<svg width="151" height="151" viewBox="0 0 151 151" fill="none" xmlns="http://www.w3.org/2000/svg">
<g clip-path="url(#clip0)">
<path d="M75.1388 117.435C56.5423 117.435 39.4759 114.952 26.1079 110.812C28.0311 117.672 31.6444 122.86 36.0997 124.52C46.155 128.267 59.9353 130.579 75.1388 130.579C90.3423 130.579 104.123 128.268 114.178 124.52C118.633 122.86 122.246 117.672 124.17 110.812C110.802 114.952 93.7353 117.435 75.1388 117.435Z" fill="url(#paint0_linear)"/>
<path d="M150.139 97.9814C150.139 132.805 0.13916 132.805 0.13916 97.9814C0.13916 63.1579 150.139 63.1579 150.139 97.9814Z" fill="url(#paint1_linear)"/>
<path d="M139.845 95.4276C139.845 120.255 10.4331 120.255 10.4331 95.4276C10.4331 70.6003 139.845 70.6003 139.845 95.4276Z" fill="url(#paint2_linear)"/>
<path d="M149.595 101.508L133.132 85.0454C128.872 80.4348 120.188 78.6827 110.167 78.6827C103.239 78.6827 82.6915 78.0945 75.708 78.0945C65.3274 78.0945 58.0889 81.2533 58.0889 86.6012C58.0889 88.1768 58.5253 89.6645 59.8215 90.9792C62.4556 93.6513 63.0083 97.3618 62.3568 100.956C62.2215 101.702 62.1515 102.466 62.1515 103.244C62.1515 107.146 63.9209 110.707 66.833 113.423L77.4959 124.086C111.571 123.755 144.99 116.229 149.595 101.508Z" fill="url(#paint3_linear)"/>
<path d="M135.931 91.2527C135.931 84.0083 124.396 76.918 110.167 76.918C103.239 76.918 82.9857 76.918 76.0021 76.918C65.6215 76.918 57.2065 81.2533 57.2065 86.6012C57.2065 88.1768 57.9371 89.6644 59.2333 90.9791C61.8674 93.6512 63.0083 97.3618 62.3568 100.956C62.2215 101.702 62.1512 102.466 62.1512 103.244C62.1512 111.762 70.5662 118.667 80.9468 118.667C84.5665 118.667 87.9468 117.827 90.8148 116.372C93.7474 114.884 97.1407 114.466 100.408 115.076C101.956 115.365 103.567 115.518 105.221 115.518C114.677 115.518 122.711 110.532 125.628 103.592C126.196 102.242 127.239 101.124 128.589 100.421C133.13 98.0568 135.931 94.8212 135.931 91.2527Z" fill="url(#paint4_radial)"/>
<path d="M131.33 98.7338L113.594 80.9985C112.062 79.3924 93.9703 79.9477 86.2547 79.9477C80.2124 83.0703 74.9956 85.5468 74.9956 91.8191C74.9956 92.9229 75.5524 93.9015 76.5368 94.755L96.6144 114.833C97.8753 114.761 99.1509 114.842 100.408 115.076C101.955 115.366 103.566 115.519 105.221 115.519C114.676 115.519 122.711 110.532 125.628 103.592C126.195 102.242 127.239 101.124 128.588 100.421C129.591 99.8994 130.508 99.335 131.33 98.7338Z" fill="url(#paint5_linear)"/>
<path d="M118.141 91.8191C118.141 101.551 74.9956 101.551 74.9956 91.8191C74.9956 82.087 84.6538 74.1979 96.5683 74.1979C108.483 74.1979 118.141 82.0873 118.141 91.8191Z" fill="url(#paint6_linear)"/>
<path d="M90.391 47.0987C90.0375 46.1608 91.009 45.2835 91.8446 45.782C94.7963 47.5435 99.1296 51.1682 99.1296 57.2679C99.1296 66.5182 88.5113 67.3902 88.5113 74.2423C88.5113 77.7588 88.9551 80.187 89.3872 81.7182C89.6372 82.6038 88.7737 83.3841 87.9784 82.9891C85.3328 81.6758 81.2637 78.4711 81.2637 71.1826C81.2637 60.3835 91.7937 60.544 91.7937 54.6396C91.7934 51.5561 91.0763 48.917 90.391 47.0987Z" fill="url(#paint7_linear)"/>
<path d="M73.7583 21.9794C73.5277 21.5665 74.1448 21.19 74.5583 21.49C77.363 23.5253 82.1063 27.8282 82.1063 33.6497C82.1063 41.9147 73.1292 44.2544 71.933 50.6994C70.9654 55.9129 73.183 60.9877 74.1998 62.9588C74.3763 63.3009 73.9701 63.6477 73.5495 63.5156C70.4563 62.5435 62.1348 58.9412 63.3774 48.5629C64.5813 38.5091 73.5863 38.9682 75.1842 32.4632C76.3321 27.7926 74.9177 24.0556 73.7583 21.9794Z" fill="url(#paint8_linear)"/>
<path d="M44.8519 49.2961C44.5366 48.5223 45.1972 47.7982 45.8402 48.2096C48.1113 49.6632 51.5072 52.654 51.8705 57.6876C52.4213 65.3205 44.6808 66.0402 45.089 71.6943C45.2984 74.5958 45.7687 76.5996 46.1769 77.8632C46.4131 78.5937 45.8261 79.2379 45.2187 78.912C43.199 77.8284 40.0219 75.184 39.5878 69.1696C38.9446 60.2584 46.6819 60.3911 46.3302 55.5187C46.1466 52.9743 45.4631 50.7964 44.8519 49.2961Z" fill="url(#paint9_linear)"/>
<path d="M97.3571 107.333C96.49 106.784 95.6712 106.142 94.9159 105.411L94.6018 105.107C90.8576 101.484 85.5232 100.023 80.4553 101.231L80.0335 101.332C74.515 102.648 68.7223 100.793 64.9944 96.5165L64.6638 96.1374C61.2856 92.2618 56.1997 90.3224 51.0988 90.9653L51.0947 90.9659C45.1229 91.7185 39.2597 88.9241 36.0832 83.8115L35.9671 83.6247C34.5135 81.285 32.5823 79.2718 30.2773 77.7641C30.2315 77.7341 30.1856 77.7041 30.1403 77.6738C28.6618 76.6862 26.9344 76.1256 25.1565 76.1518C19.4003 76.2362 14.9053 76.9935 12.2026 78.5697C13.0668 81.5835 16.4041 84.885 21.5359 88.2856C23.9073 89.8571 25.9276 91.9138 27.4232 94.3509L27.6179 94.6682C30.9597 100.113 37.1194 103.1 43.4056 102.324L43.4103 102.324C48.7832 101.66 54.1315 103.737 57.6879 107.866L57.9926 108.22C61.9044 112.763 67.9835 114.733 73.7744 113.335L74.2173 113.229C79.5359 111.945 85.1338 113.498 89.0629 117.346L89.3921 117.669C89.3997 117.676 89.4076 117.684 89.4156 117.691C89.8485 118.114 90.3656 118.395 90.9129 118.544L97.7618 112.816C99.5376 111.331 99.3124 108.572 97.3571 107.333Z" fill="url(#paint10_linear)"/>
<path d="M59.8392 123.607C28.0774 121.551 0.13916 113.01 0.13916 97.9802C0.13916 94.3037 1.80975 91.0155 4.80093 88.1155C5.84798 89.4155 7.15681 90.7772 8.6921 92.1919C10.5509 93.9067 12.0333 95.989 12.998 98.3272L13.1245 98.6331C15.2774 103.854 20.2686 107.354 25.9127 107.595L25.9186 107.598C30.7421 107.804 35.1509 110.392 37.6833 114.504L37.9009 114.854C40.6892 119.377 45.7539 121.977 51.0539 121.61L51.4568 121.58C54.4392 121.374 57.3597 122.107 59.8392 123.607Z" fill="url(#paint11_linear)"/>
<path d="M72.0791 114.412L72.2956 114.698C72.3008 114.705 72.3058 114.712 72.3111 114.719C73.1617 115.836 74.7473 116.128 75.9673 115.428L85.3979 110.016C87.0506 109.067 87.2329 106.826 85.7956 105.567C85.1582 105.009 84.5726 104.384 84.0511 103.695L83.8344 103.409C81.2488 99.997 77.0729 98.1003 72.76 98.3794L72.4011 98.4026C67.705 98.7065 63.2056 96.4323 60.7206 92.4985L60.5003 92.1497C58.2482 88.5847 54.3391 86.3391 50.0747 86.1606H50.0711C45.0785 85.9512 40.6464 82.9147 38.7241 78.3862L38.6538 78.2209C37.7741 76.1485 36.46 74.2726 34.772 72.7512C34.7385 72.7209 34.7047 72.6906 34.6717 72.66C33.5917 71.6673 32.2511 70.9832 30.7908 70.7623C23.587 69.6723 18.5744 70.2326 17.2261 73.1135C15.9808 75.7741 18.2917 79.4909 22.9991 83.7376C24.6538 85.2306 25.9732 87.0438 26.8358 89.0762L26.9482 89.3409C28.8753 93.8815 33.31 96.9329 38.315 97.1626L38.3188 97.1629C42.5964 97.3591 46.512 99.6185 48.7714 103.195L48.965 103.501C51.4503 107.435 55.9494 109.709 60.6456 109.405L61.0047 109.382C65.3176 109.103 69.4938 111 72.0791 114.412Z" fill="url(#paint12_linear)"/>
<path d="M85.7962 105.568C85.1589 105.01 84.5733 104.384 84.0518 103.696L83.8351 103.41C81.2495 99.9975 77.0736 98.1007 72.7607 98.3799L72.4018 98.4031C67.7057 98.7069 63.2062 96.4328 60.7212 92.499L60.501 92.1502C58.2489 88.5852 54.3398 86.3396 50.0754 86.161L50.0718 86.1608C45.0792 85.9513 40.6471 82.9149 38.7251 78.3863L38.6548 78.221C37.7751 76.1487 36.461 74.2728 34.773 72.7513C34.7395 72.721 34.7057 72.6907 34.6727 72.6602C33.5927 71.6675 32.2521 70.9834 30.7918 70.7625C26.0648 70.0472 22.2812 70.0428 19.8574 70.9381C20.1645 73.4705 22.4595 76.5696 26.2115 79.9925C27.9454 81.5743 29.3268 83.4969 30.228 85.6531L30.3454 85.934C32.3589 90.751 37.008 93.9825 42.2612 94.2157L42.2651 94.216C46.7551 94.4155 50.8607 96.8066 53.2251 100.599L53.4277 100.924C56.0283 105.096 60.7465 107.501 65.6771 107.169L66.0542 107.144C70.5824 106.839 74.9621 108.844 77.6692 112.462L77.896 112.765C77.9012 112.773 77.9068 112.78 77.9121 112.787C78.2107 113.184 78.5968 113.48 79.0257 113.673L85.3986 110.016C87.051 109.068 87.2336 106.827 85.7962 105.568Z" fill="url(#paint13_linear)"/>
<path d="M85.7959 105.568C85.1585 105.009 84.5729 104.384 84.0515 103.695L83.8347 103.409C81.2491 99.9973 77.0732 98.1005 72.7603 98.3796L72.4015 98.4029C67.7053 98.7067 63.2059 96.4326 60.7209 92.4987L60.5006 92.1499C58.2485 88.5849 54.3394 86.3393 50.075 86.1608L50.0715 86.1605C45.0788 85.9511 40.6467 82.9146 38.7247 78.3861L38.6544 78.2208C37.7747 76.1484 36.4606 74.2726 34.7726 72.7511C34.7391 72.7208 34.7053 72.6905 34.6723 72.6599C33.5923 71.6673 32.2517 70.9832 30.7915 70.7623C28.6256 70.4346 26.6594 70.2573 24.9297 70.2461C25.6312 72.579 27.7956 75.3205 31.0712 78.3087C32.805 79.8905 34.1865 81.8131 35.0876 83.9693L35.205 84.2502C37.2185 89.0673 41.8676 92.2987 47.1209 92.532L47.1247 92.5323C51.6147 92.7317 55.7203 95.1229 58.0847 98.9155L58.2873 99.2402C60.8879 103.412 65.6062 105.817 70.5368 105.485L70.9138 105.46C75.4421 105.155 79.8218 107.16 82.5288 110.778L82.7556 111.082C82.7609 111.089 82.7665 111.096 82.7718 111.103C82.8471 111.203 82.9279 111.297 83.0135 111.384L85.3979 110.015C87.0506 109.067 87.2332 106.826 85.7959 105.568Z" fill="url(#paint14_linear)"/>
<path d="M85.7953 105.568C85.1579 105.009 84.5724 104.384 84.0509 103.695L83.8341 103.409C81.2485 99.9972 77.0726 98.1004 72.7597 98.3796L72.4009 98.4028C67.7047 98.7066 63.2053 96.4325 60.7203 92.4987L60.5 92.1499C58.2479 88.5849 54.3388 86.3393 50.0744 86.1608L50.0709 86.1605C45.0782 85.951 40.6462 82.9146 38.7241 78.386L38.6538 78.2208C37.7741 76.1484 36.46 74.2725 34.7721 72.751C34.7385 72.7207 34.7047 72.6905 34.6718 72.6599C33.5918 71.6672 32.2512 70.9831 30.7909 70.7622C30.0618 70.6519 29.3579 70.5607 28.6753 70.4849C29.7615 72.2634 31.4921 74.2125 33.7597 76.281C35.4935 77.8628 36.875 79.7855 37.7762 81.9416L37.8935 82.2225C39.9071 87.0396 44.5562 90.271 49.8094 90.5043L49.8132 90.5046C54.3032 90.704 58.4088 93.0952 60.7732 96.8878L60.9759 97.2125C63.5765 101.384 68.2947 103.79 73.2253 103.458L73.6023 103.432C78.1306 103.127 82.5103 105.133 85.2174 108.751L85.4441 109.054C85.4494 109.061 85.455 109.068 85.4603 109.075C85.6076 109.272 85.7768 109.443 85.9615 109.589C87.0691 108.506 87.0474 106.664 85.7953 105.568Z" fill="url(#paint15_linear)"/>
<path d="M85.7959 105.568C85.1586 105.009 84.573 104.384 84.0515 103.696L83.8347 103.409C83.078 102.411 82.1821 101.546 81.1897 100.824L61.7397 109.357C65.7883 109.326 69.6412 111.194 72.0797 114.412L72.2965 114.698C72.3015 114.705 72.3068 114.712 72.3118 114.719C73.1624 115.836 74.748 116.128 75.968 115.428L85.3986 110.016C87.0506 109.067 87.2333 106.826 85.7959 105.568Z" fill="url(#paint16_linear)"/>
<path d="M75.9677 115.428L77.2845 114.672L77.2359 114.607C74.3333 110.686 69.6303 108.518 64.7642 108.857L64.3592 108.886C60.5936 109.148 56.9465 107.909 54.1503 105.548L50.3406 100.816C47.7509 97.2548 43.6636 95.0475 39.2239 94.8736L39.2201 94.8733C37.1492 94.7922 35.1662 94.2689 33.3786 93.3822C33.3427 93.3404 33.3083 93.2975 33.2721 93.256L24.1606 81.8757C23.5212 81.0183 22.8083 80.2157 22.0168 79.4877C21.9789 79.453 21.9412 79.4183 21.9039 79.3833C20.6965 78.2507 19.1968 77.4716 17.5615 77.2186C18.4948 79.1663 20.3736 81.3698 22.9992 83.7386C24.6539 85.2316 25.9736 87.0448 26.8359 89.0772L26.9483 89.3419C28.8753 93.8824 33.3101 96.9339 38.3151 97.1636L38.3186 97.1639C42.5962 97.3601 46.5118 99.6195 48.7712 103.196L48.9648 103.502C51.4498 107.436 55.9492 109.71 60.6453 109.406L61.0045 109.383C65.3174 109.104 69.4936 111.001 72.0792 114.413L72.2959 114.699C72.3009 114.706 72.3062 114.713 72.3115 114.72C73.1621 115.837 74.7477 116.128 75.9677 115.428Z" fill="url(#paint17_linear)"/>
<path d="M63.9303 127.33L64.1735 127.659C64.1794 127.667 64.185 127.674 64.1909 127.682C65.1456 128.966 66.9332 129.296 68.3123 128.484L78.9729 122.211C80.8409 121.111 81.0559 118.529 79.4397 117.084C78.7229 116.444 78.0653 115.726 77.4797 114.935L77.2362 114.606C74.3335 110.686 69.6306 108.518 64.7644 108.857L64.3594 108.885C59.0606 109.254 53.9947 106.653 51.2073 102.131L50.9603 101.73C48.4344 97.6326 44.0341 95.0614 39.2241 94.8732L39.2203 94.8729C33.5891 94.6523 28.6023 91.1723 26.4523 85.9629L26.3738 85.7726C25.39 83.3888 23.9153 81.2332 22.0173 79.4873C21.9797 79.4526 21.9418 79.4179 21.9044 79.3829C20.6903 78.2438 19.1806 77.4611 17.5344 77.2126C9.41263 75.9864 3.75587 76.6526 2.22293 79.977C0.807338 83.047 3.39881 87.3197 8.69146 92.1929C10.5518 93.9058 12.0329 95.9897 12.9976 98.3273L13.1232 98.6317C15.2782 103.855 20.2685 107.352 25.9132 107.596L25.9173 107.596C30.742 107.805 35.1494 110.392 37.6835 114.503L37.9006 114.855C40.6879 119.376 45.7538 121.978 51.0523 121.608L51.4576 121.58C56.3247 121.241 61.0276 123.41 63.9303 127.33Z" fill="url(#paint18_linear)"/>
<path d="M79.4393 117.085C78.7226 116.444 78.0646 115.726 77.4793 114.935L77.2358 114.606C74.3332 110.686 69.6302 108.518 64.764 108.857L64.359 108.885C59.0602 109.255 53.9943 106.653 51.207 102.131L50.9599 101.73C48.434 97.6328 44.0337 95.0617 39.2237 94.8731L39.2199 94.8728C33.5887 94.6522 28.602 91.1723 26.452 85.9628L26.3734 85.7725C25.3896 83.3887 23.9149 81.2331 22.017 79.4872C21.979 79.4525 21.9414 79.4178 21.904 79.3828C20.6899 78.2437 19.1802 77.4611 17.534 77.2125C12.2046 76.4078 7.93638 76.4181 5.19873 77.4596C5.53461 80.3758 8.11079 83.9367 12.3293 87.8646C14.2787 89.6799 15.8293 91.889 16.837 94.3696L16.9681 94.6925C19.2196 100.234 24.4508 103.938 30.3761 104.185L30.3805 104.185C35.4446 104.396 40.0661 107.134 42.7179 111.494L42.9449 111.868C45.8614 116.663 51.174 119.415 56.737 119.012L57.1626 118.981C62.2717 118.611 67.2043 120.903 70.2431 125.061L70.4979 125.409C70.5037 125.417 70.5099 125.425 70.5161 125.434C70.8511 125.89 71.2858 126.229 71.7684 126.45L78.9726 122.211C80.8405 121.111 81.0555 118.529 79.4393 117.085Z" fill="url(#paint19_linear)"/>
<path d="M79.4396 117.085C78.7228 116.444 78.0649 115.726 77.4796 114.935L77.2361 114.606C74.3334 110.686 69.6305 108.518 64.7643 108.857L64.3593 108.885C59.0605 109.255 53.9946 106.653 51.2073 102.131L50.9602 101.73C48.4343 97.6329 44.034 95.0617 39.224 94.8731L39.2202 94.8728C33.589 94.6523 28.6023 91.1723 26.4523 85.9629L26.3737 85.7726C25.3899 83.3887 23.9152 81.2331 22.0173 79.4873C21.9793 79.4526 21.9417 79.4179 21.9043 79.3829C20.6902 78.2437 19.1805 77.4611 17.5343 77.2126C15.0923 76.844 12.8755 76.6479 10.9243 76.642C11.7058 79.327 14.1361 82.4761 17.819 85.9052C19.7684 87.7205 21.319 89.9296 22.3267 92.4102L22.4578 92.7331C24.7093 98.2746 29.9405 101.978 35.8658 102.225L35.8702 102.226C40.9343 102.437 45.5558 105.175 48.2075 109.535L48.4346 109.908C51.3511 114.703 56.6637 117.455 62.2267 117.052L62.6522 117.021C67.7614 116.651 72.694 118.944 75.7328 123.101L75.9875 123.449C75.9937 123.458 75.9996 123.466 76.0058 123.474C76.0902 123.589 76.1811 123.696 76.2773 123.797L78.9728 122.211C80.8408 121.111 81.0558 118.529 79.4396 117.085Z" fill="url(#paint20_linear)"/>
<path d="M79.4398 117.085C78.723 116.444 78.0651 115.726 77.4798 114.935L77.2363 114.606C74.3336 110.686 69.6307 108.518 64.7645 108.857L64.3595 108.885C59.0607 109.255 53.9948 106.653 51.2075 102.131L50.9604 101.73C48.4345 97.6328 44.0342 95.0616 39.2242 94.8731L39.2204 94.8728C33.5892 94.6522 28.6025 91.1722 26.4525 85.9628L26.3739 85.7725C25.3901 83.3887 23.9154 81.2331 22.0175 79.4872C21.9795 79.4525 21.9419 79.4178 21.9045 79.3828C20.6904 78.2437 19.1807 77.461 17.5345 77.2125C16.7125 77.0884 15.9189 76.986 15.1489 76.9016C16.3669 78.946 18.311 81.1846 20.8607 83.5584C22.8101 85.3737 24.3607 87.5828 25.3683 90.0634L25.4995 90.3863C27.751 95.9278 32.9822 99.6313 38.9075 99.8784L38.9119 99.8787C43.976 100.09 48.5975 102.828 51.2492 107.188L51.4763 107.561C54.3928 112.356 59.7054 115.108 65.2683 114.705L65.6939 114.675C70.8031 114.305 75.7357 116.597 78.7745 120.754L79.0292 121.103C79.0351 121.111 79.0413 121.119 79.0475 121.127C79.2131 121.353 79.403 121.549 79.6107 121.717C80.8651 120.465 80.8481 118.343 79.4398 117.085Z" fill="url(#paint21_linear)"/>
<path d="M79.4395 117.085C78.7227 116.444 78.0648 115.726 77.4795 114.935L77.2359 114.606C76.3865 113.459 75.3795 112.467 74.2627 111.639L52.2871 121.549C56.8539 121.496 61.1927 123.633 63.9303 127.33L64.1736 127.659C64.1795 127.667 64.185 127.675 64.1909 127.682C65.1459 128.967 66.9333 129.296 68.3124 128.485L78.9727 122.211C80.8406 121.111 81.0556 118.529 79.4395 117.085Z" fill="url(#paint22_linear)"/>
</g>
<defs>
<linearGradient id="paint0_linear" x1="75.5482" y1="117.566" x2="76.3029" y2="130.021" gradientUnits="userSpaceOnUse">
<stop stop-color="#F8F6FB"/>
<stop offset="1" stop-color="#EFDCFB"/>
</linearGradient>
<linearGradient id="paint1_linear" x1="69.3127" y1="75.9914" x2="82.9759" y2="127.559" gradientUnits="userSpaceOnUse">
<stop stop-color="#F8F6FB"/>
<stop offset="1" stop-color="#EFDCFB"/>
</linearGradient>
<linearGradient id="paint2_linear" x1="79.2287" y1="128.145" x2="72.1446" y2="71.4721" gradientUnits="userSpaceOnUse">
<stop stop-color="#F8F6FB"/>
<stop offset="1" stop-color="#EFDCFB"/>
</linearGradient>
<linearGradient id="paint3_linear" x1="113.717" y1="122.478" x2="87.9453" y2="60.6636" gradientUnits="userSpaceOnUse">
<stop stop-color="#EFDCFB" stop-opacity="0"/>
<stop offset="0.0287" stop-color="#E9D6F7" stop-opacity="0.029"/>
<stop offset="0.2203" stop-color="#C5B5DE" stop-opacity="0.22"/>
<stop offset="0.4138" stop-color="#AA9BCB" stop-opacity="0.414"/>
<stop offset="0.6078" stop-color="#9688BD" stop-opacity="0.608"/>
<stop offset="0.8028" stop-color="#8A7DB5" stop-opacity="0.803"/>
<stop offset="1" stop-color="#8679B2"/>
</linearGradient>
<radialGradient id="paint4_radial" cx="0" cy="0" r="1" gradientUnits="userSpaceOnUse" gradientTransform="translate(88.6678 76.9929) scale(42.7223)">
<stop stop-color="#F8F6FB"/>
<stop offset="0.5047" stop-color="#F7F4FB"/>
<stop offset="0.7657" stop-color="#F5ECFB"/>
<stop offset="0.9705" stop-color="#F0DFFB"/>
<stop offset="1" stop-color="#EFDCFB"/>
</radialGradient>
<linearGradient id="paint5_linear" x1="106.706" y1="107.919" x2="94.9506" y2="66.7224" gradientUnits="userSpaceOnUse">
<stop stop-color="#EFDCFB" stop-opacity="0"/>
<stop offset="0.0287" stop-color="#E9D6F7" stop-opacity="0.029"/>
<stop offset="0.2203" stop-color="#C5B5DE" stop-opacity="0.22"/>
<stop offset="0.4138" stop-color="#AA9BCB" stop-opacity="0.414"/>
<stop offset="0.6078" stop-color="#9688BD" stop-opacity="0.608"/>
<stop offset="0.8028" stop-color="#8A7DB5" stop-opacity="0.803"/>
<stop offset="1" stop-color="#8679B2"/>
</linearGradient>
<linearGradient id="paint6_linear" x1="93.1815" y1="78.2961" x2="98.9091" y2="99.9135" gradientUnits="userSpaceOnUse">
<stop stop-color="#FFD945"/>
<stop offset="0.3043" stop-color="#FFCD3E"/>
<stop offset="0.8558" stop-color="#FFAD2B"/>
<stop offset="1" stop-color="#FFA325"/>
</linearGradient>
<linearGradient id="paint7_linear" x1="84.5234" y1="61.8188" x2="110.226" y2="74.0508" gradientUnits="userSpaceOnUse">
<stop stop-color="#E87264" stop-opacity="0"/>
<stop offset="1" stop-color="#F8DFBE"/>
</linearGradient>
<linearGradient id="paint8_linear" x1="65.6139" y1="40.4953" x2="83.8233" y2="44.7797" gradientUnits="userSpaceOnUse">
<stop stop-color="#E87264" stop-opacity="0"/>
<stop offset="0.1575" stop-color="#E97869" stop-opacity="0.158"/>
<stop offset="0.3778" stop-color="#EC8B78" stop-opacity="0.378"/>
<stop offset="0.6353" stop-color="#F0A991" stop-opacity="0.635"/>
<stop offset="0.9188" stop-color="#F6D2B3" stop-opacity="0.919"/>
<stop offset="1" stop-color="#F8DFBE"/>
</linearGradient>
<linearGradient id="paint9_linear" x1="39.7993" y1="61.322" x2="53.7202" y2="66.747" gradientUnits="userSpaceOnUse">
<stop stop-color="#E87264" stop-opacity="0"/>
<stop offset="1" stop-color="#F8DFBE"/>
</linearGradient>
<linearGradient id="paint10_linear" x1="54.4971" y1="97.0509" x2="43.1323" y2="120.655" gradientUnits="userSpaceOnUse">
<stop stop-color="white" stop-opacity="0"/>
<stop offset="0.2138" stop-color="#FEF0EC" stop-opacity="0.214"/>
<stop offset="0.6452" stop-color="#FCC9BB" stop-opacity="0.645"/>
<stop offset="1" stop-color="#FAA68E"/>
</linearGradient>
<linearGradient id="paint11_linear" x1="24.7759" y1="116.316" x2="44.58" y2="88.0805" gradientUnits="userSpaceOnUse">
<stop stop-color="#EFDCFB" stop-opacity="0"/>
<stop offset="0.0287" stop-color="#E9D6F7" stop-opacity="0.029"/>
<stop offset="0.2203" stop-color="#C5B5DE" stop-opacity="0.22"/>
<stop offset="0.4138" stop-color="#AA9BCB" stop-opacity="0.414"/>
<stop offset="0.6078" stop-color="#9688BD" stop-opacity="0.608"/>
<stop offset="0.8028" stop-color="#8A7DB5" stop-opacity="0.803"/>
<stop offset="1" stop-color="#8679B2"/>
</linearGradient>
<linearGradient id="paint12_linear" x1="54.4737" y1="87.9689" x2="40.1386" y2="105.032" gradientUnits="userSpaceOnUse">
<stop stop-color="#FAA68E"/>
<stop offset="0.3527" stop-color="#FAA38F"/>
<stop offset="0.651" stop-color="#FC9893"/>
<stop offset="0.9287" stop-color="#FE879A"/>
<stop offset="1" stop-color="#FF819C"/>
</linearGradient>
<linearGradient id="paint13_linear" x1="52.0546" y1="91.5033" x2="39.9091" y2="109.087" gradientUnits="userSpaceOnUse">
<stop stop-color="white" stop-opacity="0"/>
<stop offset="0.2138" stop-color="#FEF0EC" stop-opacity="0.214"/>
<stop offset="0.6452" stop-color="#FCC9BB" stop-opacity="0.645"/>
<stop offset="1" stop-color="#FAA68E"/>
</linearGradient>
<linearGradient id="paint14_linear" x1="55.4059" y1="90.079" x2="43.0725" y2="111.297" gradientUnits="userSpaceOnUse">
<stop stop-color="#F82814" stop-opacity="0"/>
<stop offset="1" stop-color="#C0272D"/>
</linearGradient>
<linearGradient id="paint15_linear" x1="56.9209" y1="90.6346" x2="49.5238" y2="101.344" gradientUnits="userSpaceOnUse">
<stop stop-color="white" stop-opacity="0"/>
<stop offset="0.2138" stop-color="#FEF0EC" stop-opacity="0.214"/>
<stop offset="0.6452" stop-color="#FCC9BB" stop-opacity="0.645"/>
<stop offset="1" stop-color="#FAA68E"/>
</linearGradient>
<linearGradient id="paint16_linear" x1="74.1948" y1="108.01" x2="82.5236" y2="121.452" gradientUnits="userSpaceOnUse">
<stop stop-color="#F82814" stop-opacity="0"/>
<stop offset="0.2677" stop-color="#EE2818" stop-opacity="0.268"/>
<stop offset="0.7191" stop-color="#D42724" stop-opacity="0.719"/>
<stop offset="1" stop-color="#C0272D"/>
</linearGradient>
<linearGradient id="paint17_linear" x1="44.1813" y1="102.478" x2="51.3068" y2="88.1662" gradientUnits="userSpaceOnUse">
<stop stop-color="#F82814" stop-opacity="0"/>
<stop offset="1" stop-color="#C0272D"/>
</linearGradient>
<linearGradient id="paint18_linear" x1="44.1745" y1="96.9934" x2="27.5455" y2="116.388" gradientUnits="userSpaceOnUse">
<stop stop-color="#FAA68E"/>
<stop offset="0.3527" stop-color="#FAA38F"/>
<stop offset="0.651" stop-color="#FC9893"/>
<stop offset="0.9287" stop-color="#FE879A"/>
<stop offset="1" stop-color="#FF819C"/>
</linearGradient>
<linearGradient id="paint19_linear" x1="41.428" y1="101.075" x2="27.3013" y2="121.143" gradientUnits="userSpaceOnUse">
<stop stop-color="white" stop-opacity="0"/>
<stop offset="0.2138" stop-color="#FEF0EC" stop-opacity="0.214"/>
<stop offset="0.6452" stop-color="#FCC9BB" stop-opacity="0.645"/>
<stop offset="1" stop-color="#FAA68E"/>
</linearGradient>
<linearGradient id="paint20_linear" x1="45.2176" y1="99.4222" x2="30.8483" y2="123.708" gradientUnits="userSpaceOnUse">
<stop stop-color="#F82814" stop-opacity="0"/>
<stop offset="1" stop-color="#C0272D"/>
</linearGradient>
<linearGradient id="paint21_linear" x1="46.9263" y1="100.057" x2="38.3223" y2="112.279" gradientUnits="userSpaceOnUse">
<stop stop-color="white" stop-opacity="0"/>
<stop offset="0.2138" stop-color="#FEF0EC" stop-opacity="0.214"/>
<stop offset="0.6452" stop-color="#FCC9BB" stop-opacity="0.645"/>
<stop offset="1" stop-color="#FAA68E"/>
</linearGradient>
<linearGradient id="paint22_linear" x1="66.3468" y1="120.02" x2="76.0204" y2="135.272" gradientUnits="userSpaceOnUse">
<stop stop-color="#F82814" stop-opacity="0"/>
<stop offset="0.2677" stop-color="#EE2818" stop-opacity="0.268"/>
<stop offset="0.7191" stop-color="#D42724" stop-opacity="0.719"/>
<stop offset="1" stop-color="#C0272D"/>
</linearGradient>
<clipPath id="clip0">
<rect width="150" height="150" fill="white" transform="translate(0.13916 0.980225)"/>
</clipPath>
</defs>
</svg>
