<svg width="151" height="151" viewBox="0 0 151 151" fill="none" xmlns="http://www.w3.org/2000/svg">
<g clip-path="url(#clip0)">
<path d="M150.507 41.8765C150.507 32.2415 135.455 24.4307 116.888 24.4307C106.036 24.4307 74.4448 24.4307 63.5934 24.4307C45.0257 24.4307 29.9736 32.2415 29.9736 41.8765C29.9736 48.7451 37.6233 54.686 48.7425 57.5315C51.586 58.2592 53.9863 60.138 55.476 62.6668C60.336 70.9162 72.5492 76.768 86.8481 76.768C100.155 76.768 111.655 71.7001 117.104 64.3483C119.371 61.2889 122.697 59.1824 126.462 58.6033C140.365 56.4642 150.507 49.7854 150.507 41.8765Z" fill="url(#paint0_radial)"/>
<path d="M120.041 24.5077C119.003 24.4577 117.951 24.4307 116.888 24.4307C106.987 24.4307 79.8243 24.4307 66.8982 24.4307C62.7664 28.9418 60.3193 34.5424 60.3193 40.6098C60.3193 42.2898 61.1596 43.7804 62.6473 45.0824L93.8517 76.2868C104.108 74.8618 112.638 70.373 117.103 64.3486C119.371 61.2892 122.697 59.1827 126.461 58.6036C134.822 57.3171 141.818 54.388 146.071 50.5383L120.041 24.5077Z" fill="url(#paint1_linear)"/>
<path d="M126.515 40.6098C126.515 55.5409 60.3193 55.5409 60.3193 40.6098C60.3193 25.6786 75.1376 13.5745 93.417 13.5745C111.696 13.5745 126.515 25.6786 126.515 40.6098Z" fill="url(#paint2_linear)"/>
<path d="M117.338 36.3009C118.707 36.3009 119.817 35.1909 119.817 33.8218C119.817 32.4526 118.707 31.3427 117.338 31.3427C115.968 31.3427 114.858 32.4526 114.858 33.8218C114.858 35.1909 115.968 36.3009 117.338 36.3009Z" fill="url(#paint3_linear)"/>
<path d="M112.734 42.1903C113.815 42.1903 114.692 41.314 114.692 40.233C114.692 39.152 113.815 38.2756 112.734 38.2756C111.653 38.2756 110.777 39.152 110.777 40.233C110.777 41.314 111.653 42.1903 112.734 42.1903Z" fill="url(#paint4_linear)"/>
<path d="M121.265 43.0553C121.917 43.0553 122.445 42.527 122.445 41.8753C122.445 41.2236 121.917 40.6953 121.265 40.6953C120.614 40.6953 120.085 41.2236 120.085 41.8753C120.085 42.527 120.614 43.0553 121.265 43.0553Z" fill="url(#paint5_linear)"/>
<path d="M99.0283 20.0121C101.986 25.6548 96.9565 34.1215 87.7947 38.9236C78.633 43.7256 68.8088 43.0439 65.8515 37.4012C62.8941 31.7586 67.9233 23.2918 77.085 18.4898C86.2468 13.6877 96.0706 14.3695 99.0283 20.0121Z" fill="url(#paint6_linear)"/>
<path d="M150.508 84.9801C150.508 71.1765 128.529 57.6671 101.417 57.6671C88.2169 57.6671 49.6269 57.6671 36.3208 57.6671C16.5419 57.6671 0.507812 65.9277 0.507812 76.1174C0.507812 79.1198 1.89987 81.9542 4.36958 84.4592C9.3887 89.5503 11.5622 96.6203 10.3208 103.468C10.0628 104.891 9.92928 106.347 9.92928 107.828C9.92928 124.058 25.9634 137.215 45.7422 137.215C52.639 137.215 59.0799 135.615 64.5443 132.843C70.1322 130.008 76.5978 129.21 82.8237 130.374C85.7722 130.925 88.8413 131.216 91.9937 131.216C110.01 131.216 125.319 121.715 130.878 108.491C131.959 105.919 133.948 103.789 136.518 102.45C145.173 97.9445 150.508 91.7801 150.508 84.9801Z" fill="url(#paint7_radial)"/>
<path d="M141.742 99.2348L107.949 65.4424C105.03 62.3821 101.474 59.748 97.4472 57.6671C86.8398 57.6671 68.2639 57.6671 53.5624 57.6671C42.0492 63.6168 34.4033 74.1083 34.4033 86.0598C34.4033 88.1633 35.4642 90.0271 37.3398 91.6536L75.5954 129.909C77.998 129.772 80.4283 129.926 82.8236 130.374C85.7722 130.925 88.8413 131.216 91.9936 131.216C110.01 131.216 125.319 121.715 130.878 108.491C131.959 105.919 133.948 103.789 136.518 102.45C138.429 101.456 140.177 100.38 141.742 99.2348Z" fill="url(#paint8_linear)"/>
<path d="M116.612 86.0597C116.612 104.603 34.4033 104.603 34.4033 86.0597C34.4033 67.5164 52.8063 52.4844 75.5074 52.4844C98.2086 52.4844 116.612 67.5167 116.612 86.0597Z" fill="url(#paint9_linear)"/>
<g opacity="0.6">
<g opacity="0.6">
<path opacity="0.6" d="M68.5704 88.8076C69.9396 88.8076 71.0495 87.6977 71.0495 86.3285C71.0495 84.9593 69.9396 83.8494 68.5704 83.8494C67.2012 83.8494 66.0913 84.9593 66.0913 86.3285C66.0913 87.6977 67.2012 88.8076 68.5704 88.8076Z" fill="url(#paint10_linear)"/>
<path opacity="0.6" d="M63.9671 94.6971C65.0481 94.6971 65.9245 93.8207 65.9245 92.7397C65.9245 91.6587 65.0481 90.7823 63.9671 90.7823C62.8861 90.7823 62.0098 91.6587 62.0098 92.7397C62.0098 93.8207 62.8861 94.6971 63.9671 94.6971Z" fill="url(#paint11_linear)"/>
<path opacity="0.6" d="M72.4979 95.562C73.1496 95.562 73.6779 95.0337 73.6779 94.382C73.6779 93.7303 73.1496 93.202 72.4979 93.202C71.8462 93.202 71.3179 93.7303 71.3179 94.382C71.3179 95.0337 71.8462 95.562 72.4979 95.562Z" fill="url(#paint12_linear)"/>
</g>
<g opacity="0.6">
<path opacity="0.6" d="M81.6783 90.0287C82.6901 90.0287 83.5103 89.2085 83.5103 88.1967C83.5103 87.1849 82.6901 86.3646 81.6783 86.3646C80.6664 86.3646 79.8462 87.1849 79.8462 88.1967C79.8462 89.2085 80.6664 90.0287 81.6783 90.0287Z" fill="url(#paint13_linear)"/>
<path opacity="0.6" d="M75.8803 90.2664C76.679 90.2664 77.3264 89.6189 77.3264 88.8202C77.3264 88.0215 76.679 87.374 75.8803 87.374C75.0816 87.374 74.4341 88.0215 74.4341 88.8202C74.4341 89.6189 75.0816 90.2664 75.8803 90.2664Z" fill="url(#paint14_linear)"/>
<path opacity="0.6" d="M79.1787 95.1999C79.6603 95.1999 80.0508 94.8095 80.0508 94.3279C80.0508 93.8462 79.6603 93.4558 79.1787 93.4558C78.6971 93.4558 78.3066 93.8462 78.3066 94.3279C78.3066 94.8095 78.6971 95.1999 79.1787 95.1999Z" fill="url(#paint15_linear)"/>
</g>
</g>
<path d="M81.0983 63.595C84.9274 70.9006 79.953 81.0573 69.9877 86.2803C60.0224 91.5032 48.8398 89.8152 45.0106 82.5097C41.1815 75.2041 46.1559 65.0473 56.1212 59.8244C66.0865 54.6014 77.2692 56.2894 81.0983 63.595Z" fill="url(#paint16_linear)"/>
</g>
<defs>
<radialGradient id="paint0_radial" cx="0" cy="0" r="1" gradientUnits="userSpaceOnUse" gradientTransform="translate(73.103 36.9507) scale(69.211 46.8804)">
<stop stop-color="#F8F6FB"/>
<stop offset="0.5047" stop-color="#F7F4FB"/>
<stop offset="0.7657" stop-color="#F5ECFB"/>
<stop offset="0.9705" stop-color="#F0DFFB"/>
<stop offset="1" stop-color="#EFDCFB"/>
</radialGradient>
<linearGradient id="paint1_linear" x1="112.631" y1="67.9801" x2="82.0135" y2="-3.07551" gradientUnits="userSpaceOnUse">
<stop stop-color="#EFDCFB" stop-opacity="0"/>
<stop offset="0.0287" stop-color="#E9D6F7" stop-opacity="0.029"/>
<stop offset="0.2203" stop-color="#C5B5DE" stop-opacity="0.22"/>
<stop offset="0.4138" stop-color="#AA9BCB" stop-opacity="0.414"/>
<stop offset="0.6078" stop-color="#9688BD" stop-opacity="0.608"/>
<stop offset="0.8028" stop-color="#8A7DB5" stop-opacity="0.803"/>
<stop offset="1" stop-color="#8679B2"/>
</linearGradient>
<linearGradient id="paint2_linear" x1="89.0338" y1="27.8068" x2="103.151" y2="63.6892" gradientUnits="userSpaceOnUse">
<stop stop-color="#FFA936"/>
<stop offset="0.4112" stop-color="#FF8548"/>
<stop offset="0.7781" stop-color="#FF6C54"/>
<stop offset="1" stop-color="#FF6359"/>
</linearGradient>
<linearGradient id="paint3_linear" x1="119.557" y1="37.0053" x2="113.223" y2="27.1201" gradientUnits="userSpaceOnUse">
<stop stop-color="#F82814" stop-opacity="0"/>
<stop offset="0.2454" stop-color="#F12817" stop-opacity="0.245"/>
<stop offset="0.6052" stop-color="#DD2820" stop-opacity="0.605"/>
<stop offset="1" stop-color="#C0272D"/>
</linearGradient>
<linearGradient id="paint4_linear" x1="114.523" y1="42.751" x2="109.523" y2="34.9469" gradientUnits="userSpaceOnUse">
<stop stop-color="#F82814" stop-opacity="0"/>
<stop offset="0.2454" stop-color="#F12817" stop-opacity="0.245"/>
<stop offset="0.6052" stop-color="#DD2820" stop-opacity="0.605"/>
<stop offset="1" stop-color="#C0272D"/>
</linearGradient>
<linearGradient id="paint5_linear" x1="122.421" y1="43.3964" x2="119.406" y2="38.6915" gradientUnits="userSpaceOnUse">
<stop stop-color="#F82814" stop-opacity="0"/>
<stop offset="0.2454" stop-color="#F12817" stop-opacity="0.245"/>
<stop offset="0.6052" stop-color="#DD2820" stop-opacity="0.605"/>
<stop offset="1" stop-color="#C0272D"/>
</linearGradient>
<linearGradient id="paint6_linear" x1="83.7221" y1="30.6008" x2="68.0464" y2="0.717514" gradientUnits="userSpaceOnUse">
<stop stop-color="white" stop-opacity="0"/>
<stop offset="1" stop-color="white"/>
</linearGradient>
<radialGradient id="paint7_radial" cx="0" cy="0" r="1" gradientUnits="userSpaceOnUse" gradientTransform="translate(60.4267 57.7881) scale(81.4025)">
<stop stop-color="#F8F6FB"/>
<stop offset="0.5047" stop-color="#F7F4FB"/>
<stop offset="0.7657" stop-color="#F5ECFB"/>
<stop offset="0.9705" stop-color="#F0DFFB"/>
<stop offset="1" stop-color="#EFDCFB"/>
</radialGradient>
<linearGradient id="paint8_linear" x1="94.4925" y1="115.573" x2="70.296" y2="30.7783" gradientUnits="userSpaceOnUse">
<stop stop-color="#EFDCFB" stop-opacity="0"/>
<stop offset="0.0287" stop-color="#E9D6F7" stop-opacity="0.029"/>
<stop offset="0.2203" stop-color="#C5B5DE" stop-opacity="0.22"/>
<stop offset="0.4138" stop-color="#AA9BCB" stop-opacity="0.414"/>
<stop offset="0.6078" stop-color="#9688BD" stop-opacity="0.608"/>
<stop offset="0.8028" stop-color="#8A7DB5" stop-opacity="0.803"/>
<stop offset="1" stop-color="#8679B2"/>
</linearGradient>
<linearGradient id="paint9_linear" x1="69.0548" y1="60.2929" x2="79.9683" y2="101.482" gradientUnits="userSpaceOnUse">
<stop stop-color="#FFD945"/>
<stop offset="0.3043" stop-color="#FFCD3E"/>
<stop offset="0.8558" stop-color="#FFAD2B"/>
<stop offset="1" stop-color="#FFA325"/>
</linearGradient>
<linearGradient id="paint10_linear" x1="70.771" y1="89.5442" x2="64.4363" y2="79.6588" gradientUnits="userSpaceOnUse">
<stop stop-color="#F82814" stop-opacity="0"/>
<stop offset="0.2454" stop-color="#F12817" stop-opacity="0.245"/>
<stop offset="0.6052" stop-color="#DD2820" stop-opacity="0.605"/>
<stop offset="1" stop-color="#C0272D"/>
</linearGradient>
<linearGradient id="paint11_linear" x1="65.7371" y1="95.2896" x2="60.7363" y2="87.4859" gradientUnits="userSpaceOnUse">
<stop stop-color="#F82814" stop-opacity="0"/>
<stop offset="0.2454" stop-color="#F12817" stop-opacity="0.245"/>
<stop offset="0.6052" stop-color="#DD2820" stop-opacity="0.605"/>
<stop offset="1" stop-color="#C0272D"/>
</linearGradient>
<linearGradient id="paint12_linear" x1="73.634" y1="95.9351" x2="70.6191" y2="91.2302" gradientUnits="userSpaceOnUse">
<stop stop-color="#F82814" stop-opacity="0"/>
<stop offset="0.2454" stop-color="#F12817" stop-opacity="0.245"/>
<stop offset="0.6052" stop-color="#DD2820" stop-opacity="0.605"/>
<stop offset="1" stop-color="#C0272D"/>
</linearGradient>
<linearGradient id="paint13_linear" x1="81.0434" y1="90.901" x2="83.3653" y2="82.5436" gradientUnits="userSpaceOnUse">
<stop stop-color="#F82814" stop-opacity="0"/>
<stop offset="0.2454" stop-color="#F12817" stop-opacity="0.245"/>
<stop offset="0.6052" stop-color="#DD2820" stop-opacity="0.605"/>
<stop offset="1" stop-color="#C0272D"/>
</linearGradient>
<linearGradient id="paint14_linear" x1="75.4007" y1="90.9597" x2="77.2341" y2="84.3622" gradientUnits="userSpaceOnUse">
<stop stop-color="#F82814" stop-opacity="0"/>
<stop offset="0.2454" stop-color="#F12817" stop-opacity="0.245"/>
<stop offset="0.6052" stop-color="#DD2820" stop-opacity="0.605"/>
<stop offset="1" stop-color="#C0272D"/>
</linearGradient>
<linearGradient id="paint15_linear" x1="78.9355" y1="95.6256" x2="80.0406" y2="91.6481" gradientUnits="userSpaceOnUse">
<stop stop-color="#F82814" stop-opacity="0"/>
<stop offset="0.2454" stop-color="#F12817" stop-opacity="0.245"/>
<stop offset="0.6052" stop-color="#DD2820" stop-opacity="0.605"/>
<stop offset="1" stop-color="#C0272D"/>
</linearGradient>
<linearGradient id="paint16_linear" x1="64.8962" y1="76.6114" x2="44.594" y2="37.9244" gradientUnits="userSpaceOnUse">
<stop stop-color="white" stop-opacity="0"/>
<stop offset="1" stop-color="white"/>
</linearGradient>
<clipPath id="clip0">
<rect width="150" height="150" fill="white" transform="translate(0.507812 0.39502)"/>
</clipPath>
</defs>
</svg>
