<svg width="151" height="151" viewBox="0 0 151 151" fill="none" xmlns="http://www.w3.org/2000/svg">
<g clip-path="url(#clip0)">
<path d="M2.09424 124.393C2.09424 134.378 9.09512 142.985 18.8669 145.038C33.5275 148.117 53.6195 150.016 75.7866 150.016C97.9537 150.016 118.046 148.117 132.706 145.038C142.478 142.985 149.479 134.378 149.479 124.393C149.479 120.984 146.176 118.534 142.923 119.553C128.292 124.136 103.687 127.146 75.7866 127.146C47.8866 127.146 23.2816 124.136 8.65012 119.553C5.39718 118.534 2.09424 120.984 2.09424 124.393Z" fill="url(#paint0_linear)"/>
<path d="M60.3945 126.834L83.4981 149.937C102.593 149.553 119.766 147.755 132.706 145.037C136.398 144.262 139.692 142.55 142.365 140.183L125.663 123.481C111.897 125.777 94.5931 127.146 75.7866 127.146C70.5236 127.146 65.3784 127.039 60.3945 126.834Z" fill="url(#paint1_linear)"/>
<path d="M142.924 119.553C136.924 121.432 129.245 123.046 120.352 124.298L138.791 142.737C145.256 139.07 149.48 132.148 149.48 124.393C149.479 120.984 146.176 118.534 142.924 119.553Z" fill="url(#paint2_linear)"/>
<g opacity="0.6">
<g opacity="0.6">
<path opacity="0.6" d="M22.3068 133.633C23.6759 133.633 24.7859 132.523 24.7859 131.154C24.7859 129.785 23.6759 128.675 22.3068 128.675C20.9376 128.675 19.8276 129.785 19.8276 131.154C19.8276 132.523 20.9376 133.633 22.3068 133.633Z" fill="url(#paint3_linear)"/>
<path opacity="0.6" d="M17.7034 139.523C18.7845 139.523 19.6608 138.646 19.6608 137.565C19.6608 136.484 18.7845 135.608 17.7034 135.608C16.6224 135.608 15.7461 136.484 15.7461 137.565C15.7461 138.646 16.6224 139.523 17.7034 139.523Z" fill="url(#paint4_linear)"/>
<path opacity="0.6" d="M26.2342 140.388C26.8859 140.388 27.4142 139.859 27.4142 139.208C27.4142 138.556 26.8859 138.028 26.2342 138.028C25.5825 138.028 25.0542 138.556 25.0542 139.208C25.0542 139.859 25.5825 140.388 26.2342 140.388Z" fill="url(#paint5_linear)"/>
</g>
<g opacity="0.6">
<path opacity="0.6" d="M35.4156 134.855C36.4274 134.855 37.2476 134.034 37.2476 133.022C37.2476 132.011 36.4274 131.19 35.4156 131.19C34.4037 131.19 33.5835 132.011 33.5835 133.022C33.5835 134.034 34.4037 134.855 35.4156 134.855Z" fill="url(#paint6_linear)"/>
<path opacity="0.6" d="M29.6171 135.092C30.4158 135.092 31.0632 134.444 31.0632 133.646C31.0632 132.847 30.4158 132.2 29.6171 132.2C28.8184 132.2 28.1709 132.847 28.1709 133.646C28.1709 134.444 28.8184 135.092 29.6171 135.092Z" fill="url(#paint7_linear)"/>
<path opacity="0.6" d="M32.9155 140.025C33.3971 140.025 33.7876 139.635 33.7876 139.153C33.7876 138.672 33.3971 138.281 32.9155 138.281C32.4339 138.281 32.0435 138.672 32.0435 139.153C32.0435 139.635 32.4339 140.025 32.9155 140.025Z" fill="url(#paint8_linear)"/>
</g>
</g>
<path d="M3.77881 132.647C6.41646 138.839 11.9444 143.584 18.8665 145.038C33.527 148.117 53.6191 150.016 75.7862 150.016C97.9532 150.016 118.045 148.117 132.706 145.038C139.628 143.584 145.156 138.839 147.794 132.647H3.77881Z" fill="url(#paint9_linear)"/>
<path d="M2.09424 104.363V109.115C2.09424 115.991 6.72806 122.031 13.3892 123.738C28.296 127.556 50.7139 129.986 75.7866 129.986C100.859 129.986 123.277 127.556 138.184 123.738C144.845 122.031 149.479 115.992 149.479 109.115V104.363C149.479 100.954 146.176 98.5039 142.923 99.523C128.292 104.107 103.687 107.116 75.7866 107.116C47.8866 107.116 23.2816 104.107 8.65012 99.523C5.39718 98.5039 2.09424 100.954 2.09424 104.363Z" fill="url(#paint10_linear)"/>
<path d="M142.924 99.5229C128.292 104.106 103.688 107.116 75.7873 107.116C47.8873 107.116 23.2823 104.106 8.65086 99.5229C6.8535 98.9599 5.04409 99.459 3.78174 100.591L30.1806 126.989C43.1841 128.88 58.88 129.986 75.787 129.986C100.86 129.986 123.278 127.556 138.184 123.738C144.846 122.031 149.479 115.991 149.479 109.115V104.363C149.48 100.954 146.177 98.5037 142.924 99.5229Z" fill="url(#paint11_linear)"/>
<path d="M149.48 109.115V105.776L143.167 99.4629C143.086 99.4841 143.005 99.4976 142.924 99.5232C135.108 101.971 124.446 103.97 111.957 105.301V113.471C111.957 115.303 112.785 116.94 114.087 118.032L122.83 126.776C128.538 125.907 133.703 124.886 138.185 123.738C144.846 122.031 149.48 115.991 149.48 109.115Z" fill="url(#paint12_linear)"/>
<path d="M107.887 105.705C98.041 106.613 87.1898 107.116 75.7869 107.116C64.4369 107.116 53.6328 106.618 43.8231 105.718C42.921 107.347 43.0634 109.503 44.5551 110.994L63.3422 129.782C67.4001 129.915 71.5542 129.986 75.7869 129.986C95.7101 129.986 113.952 128.451 128.086 125.904L107.887 105.705Z" fill="url(#paint13_linear)"/>
<path d="M105.176 103.644C86.0134 97.8383 65.5605 97.8383 46.3975 103.644C43.2043 104.612 42.1957 108.635 44.5552 110.994L67.3449 133.784C72.0072 138.446 79.5666 138.446 84.229 133.784L107.019 110.994C109.378 108.635 108.37 104.612 105.176 103.644Z" fill="url(#paint14_linear)"/>
<path d="M149.479 96.5497C149.479 75.7038 2.09424 75.7038 2.09424 96.5497C2.09424 100.144 6.47806 103.118 13.7307 105.473C16.3654 106.328 18.7954 107.716 20.8272 109.599L21.0451 109.801C25.4628 113.895 31.8587 115.044 37.4245 112.743L37.4287 112.741C42.1834 110.776 47.6045 111.304 51.8901 114.151L52.2978 114.422C57.0234 117.561 63.1004 117.819 68.0745 115.091L68.4545 114.882C73.0231 112.377 78.5542 112.376 83.1231 114.881L83.506 115.091C88.4807 117.818 94.5581 117.559 99.2834 114.42L99.7778 114.091C104.039 111.26 109.436 110.754 114.15 112.741C119.675 115.071 126.053 113.949 130.451 109.873L130.747 109.599C132.778 107.716 135.208 106.328 137.843 105.472C145.095 103.118 149.479 100.144 149.479 96.5497Z" fill="url(#paint15_linear)"/>
<path d="M149.479 96.5491C149.479 100.144 145.094 103.114 137.841 105.469C135.208 106.327 132.777 107.715 130.746 109.598L130.45 109.872C127.579 112.537 123.853 113.939 120.079 113.939C118.079 113.939 116.062 113.548 114.152 112.739C109.439 110.753 104.042 111.261 99.7778 114.091L99.2834 114.419C94.5608 117.556 88.4811 117.816 83.507 115.089L83.1249 114.878C78.5552 112.375 73.0237 112.375 68.4537 114.882L68.0764 115.089C63.1022 117.816 57.0225 117.56 52.2999 114.419L51.8911 114.15C47.6043 111.301 42.1852 110.775 37.4311 112.739H37.4267C34.169 114.082 30.6325 114.253 27.3705 113.336L8.40371 94.3697C7.39283 93.4394 6.53901 92.3477 5.87842 91.1435C14.3619 85.5312 36.0564 82.2285 60.0872 81.2356C70.4087 80.8088 81.1661 80.8088 91.4873 81.2356C122.42 82.5118 149.479 87.6162 149.479 96.5491Z" fill="url(#paint16_linear)"/>
<path d="M52.681 81.6206C36.5187 82.6368 22.0051 84.7515 12.7134 87.9665C13.0163 89.3968 13.8278 90.6385 14.9566 91.4885L36.5398 113.072C36.8366 112.97 37.1325 112.864 37.4249 112.743L37.429 112.741C42.1837 110.776 47.6049 111.304 51.8904 114.151L52.2981 114.422C57.0237 117.561 63.1007 117.819 68.0749 115.091L68.4548 114.882C73.0234 112.377 78.5546 112.377 83.1234 114.881L83.5063 115.091C84.839 115.821 86.2513 116.331 87.6949 116.635L52.681 81.6206Z" fill="url(#paint17_linear)"/>
<path d="M137.122 93.4178H111.957V112.014C112.699 112.201 113.434 112.439 114.151 112.741C119.676 115.071 126.054 113.949 130.452 109.873L130.748 109.599C132.779 107.716 135.209 106.328 137.844 105.472C141.064 104.427 143.717 103.259 145.673 101.969L137.122 93.4178Z" fill="url(#paint18_linear)"/>
<path d="M111.957 93.4178V113.471C111.957 116.759 114.622 119.424 117.91 119.424C121.198 119.424 123.863 116.759 123.863 113.471V109.408C123.863 108.269 124.786 107.346 125.925 107.346C127.064 107.346 127.988 108.269 127.988 109.408V109.739C127.988 112.261 130.032 114.306 132.555 114.306C135.077 114.306 137.122 112.261 137.122 109.739V93.4178H111.957Z" fill="url(#paint19_linear)"/>
<path d="M4.27832 84.6317V84.9617C4.27832 90.7108 8.10773 95.7699 13.6533 97.2861C28.0871 101.232 50.5513 103.769 75.7868 103.769C101.022 103.769 123.487 101.232 137.92 97.2861C143.466 95.7699 147.295 90.7111 147.295 84.9617C147.295 84.8523 147.295 84.7429 147.295 84.6329C147.295 78.6014 141.627 74.1841 135.777 75.6511C121.317 79.277 99.8107 81.5764 75.7868 81.5764C51.763 81.5764 30.2571 79.277 15.7969 75.6514C9.94626 74.1844 4.27832 78.6002 4.27832 84.6317Z" fill="url(#paint20_linear)"/>
<path d="M51.8442 80.7835C37.6677 79.8174 25.2322 78.0171 15.7969 75.6512C14.7054 75.3774 13.6204 75.3091 12.5771 75.4171V86.735C12.5771 88.68 13.5139 90.4018 14.9566 91.4883L22.8724 99.4041C36.6433 102.073 54.8389 103.714 74.8263 103.765L51.8442 80.7835Z" fill="url(#paint21_linear)"/>
<path d="M135.493 75.7206C121.036 79.3059 99.6562 81.5765 75.7874 81.5765C74.7574 81.5765 73.7342 81.5706 72.7139 81.5623L94.4445 103.293C111.945 102.384 127.164 100.227 137.921 97.2865C142.698 95.9803 146.195 92.0426 147.074 87.3018L135.493 75.7206Z" fill="url(#paint22_linear)"/>
<path d="M2.09424 67.0782V71.8303C2.09424 78.7064 6.72806 84.7464 13.3892 86.4529C28.296 90.2714 50.7139 92.7012 75.7866 92.7012C100.859 92.7012 123.277 90.2714 138.184 86.4529C144.845 84.7464 149.479 78.7067 149.479 71.8303V67.0782C149.479 63.6691 146.176 61.2191 142.923 62.2382C128.292 66.8217 103.687 69.8311 75.7866 69.8311C47.8866 69.8311 23.2816 66.8217 8.65012 62.2382C5.39718 61.2191 2.09424 63.6694 2.09424 67.0782Z" fill="url(#paint23_linear)"/>
<path d="M142.924 62.2382C128.292 66.8217 103.688 69.8311 75.7873 69.8311C47.8873 69.8311 23.2823 66.8217 8.65086 62.2382C6.8535 61.6752 5.04409 62.1744 3.78174 63.3058L30.1806 89.7047C43.1844 91.5952 58.8803 92.7011 75.7873 92.7011C100.86 92.7011 123.278 90.2714 138.185 86.4529C144.846 84.7464 149.48 78.7067 149.48 71.8303V67.0782C149.48 63.6694 146.177 61.2191 142.924 62.2382Z" fill="url(#paint24_linear)"/>
<path d="M143.589 83.8167L125.9 66.1279C112.096 68.4468 94.7008 69.8312 75.7867 69.8312C71.6699 69.8312 67.6276 69.7641 63.6758 69.6376C63.3676 71.0273 63.7146 72.5638 64.8605 73.7097L83.6476 92.4967C84.4199 92.5223 85.199 92.5432 85.9784 92.5638C106.889 92.0038 125.33 89.7456 138.184 86.4526C140.195 85.9376 142.019 85.0256 143.589 83.8167Z" fill="url(#paint25_linear)"/>
<path d="M125.482 66.3598C106.319 60.5536 85.8661 60.5536 66.7032 66.3598C63.5099 67.3274 62.5014 71.3503 64.8608 73.7098L87.6505 96.4995C92.3129 101.162 99.8723 101.162 104.535 96.4995L127.324 73.7098C129.684 71.3503 128.675 67.3274 125.482 66.3598Z" fill="url(#paint26_linear)"/>
<path d="M13.39 86.453C25.8265 89.6389 43.4929 91.8565 63.5653 92.5045L39.0115 67.9507C35.5773 67.5768 32.2829 67.1527 29.1521 66.6821H12.5776V86.2171C12.8453 86.3021 13.1153 86.3827 13.39 86.453Z" fill="url(#paint27_linear)"/>
<path d="M12.5776 66.6821V86.7354C12.5776 90.0233 15.2429 92.6886 18.5309 92.6886C21.8188 92.6886 24.4841 90.0233 24.4841 86.7354V82.6727C24.4841 81.5336 25.4073 80.6104 26.5465 80.6104C27.6856 80.6104 28.6088 81.5336 28.6088 82.6727V83.0033C28.6088 85.5257 30.6535 87.5704 33.1759 87.5704C35.6982 87.5704 37.7429 85.5257 37.7429 83.0033V66.6821H12.5776Z" fill="url(#paint28_linear)"/>
<path d="M149.479 59.2649C149.479 38.419 2.09424 38.419 2.09424 59.2649C2.09424 62.859 6.47806 65.8331 13.7307 68.1879C16.3654 69.0431 18.7954 70.4317 20.8272 72.3143L21.0451 72.5161C25.4628 76.6099 31.8587 77.7587 37.4245 75.4581L37.4287 75.4564C42.1834 73.4911 47.6045 74.0196 51.8901 76.8664L52.2978 77.1373C57.0234 80.2761 63.1004 80.5337 68.0745 77.8061L68.4545 77.5976C73.0231 75.0923 78.5542 75.0917 83.1231 77.5964L83.506 77.8061C88.4807 80.5331 94.5581 80.2746 99.2834 77.1352L99.7778 76.8067C104.039 73.9755 109.436 73.4687 114.15 75.4567C119.675 77.787 126.053 76.6646 130.451 72.5881L130.747 72.314C132.778 70.4311 135.208 69.0429 137.843 68.1876C145.095 65.8331 149.479 62.859 149.479 59.2649Z" fill="url(#paint29_linear)"/>
<path d="M149.479 59.2662C149.479 62.8609 145.094 65.8312 137.841 68.1856C135.208 69.0438 132.777 70.4324 130.746 72.315L130.45 72.5891C127.579 75.2538 123.853 76.6556 120.079 76.6556C118.079 76.6556 116.062 76.2647 114.152 75.4559C109.439 73.4697 104.042 73.9777 99.7778 76.8085L99.2834 77.1365C94.5608 80.2729 88.4811 80.5335 83.507 77.8059L83.1249 77.5947C78.5552 75.0918 73.0237 75.0918 68.4537 77.5991L68.0764 77.8059C63.1022 80.5332 57.0225 80.2774 52.2999 77.1365L51.8911 76.8668C47.6043 74.0179 42.1852 73.4921 37.4311 75.4559H37.4267C34.169 76.7994 30.6325 76.9703 27.3705 76.0535L8.40371 57.0868C7.39283 56.1565 6.53901 55.0647 5.87842 53.8606C14.3619 48.2482 36.0564 44.9456 60.0872 43.9526C70.4087 43.5259 81.1661 43.5259 91.4873 43.9526C122.42 45.2288 149.479 50.3332 149.479 59.2662Z" fill="url(#paint30_linear)"/>
<path d="M4.27832 47.347V47.677C4.27832 53.4261 8.10773 58.4852 13.6533 60.0014C28.0871 63.9476 50.5513 66.484 75.7868 66.484C101.022 66.484 123.487 63.9476 137.92 60.0014C143.466 58.4852 147.295 53.4264 147.295 47.677C147.295 47.5676 147.295 47.4581 147.295 47.3481C147.295 41.3167 141.627 36.8996 135.777 38.3664C121.317 41.9923 99.8107 44.2917 75.7868 44.2917C51.763 44.2917 30.2571 41.9923 15.7969 38.3667C9.94626 36.8996 4.27832 41.3155 4.27832 47.347Z" fill="url(#paint31_linear)"/>
<path d="M147.296 47.3497V47.6776C147.296 53.4247 143.467 58.4844 137.922 60.0032C123.485 63.9485 101.022 66.4826 75.787 66.4826C55.517 66.4826 37.0355 64.8471 23.0655 62.16L4.89844 43.9929C6.5252 39.8006 11.0993 37.19 15.7949 38.3671C30.2549 41.9932 51.7649 44.2894 75.7867 44.2894C99.8084 44.2894 121.319 41.9932 135.778 38.3671C141.629 36.8979 147.296 41.315 147.296 47.3497Z" fill="url(#paint32_linear)"/>
<path d="M150.787 39.2271C150.787 60.073 0.787109 60.073 0.787109 39.2271C0.787109 18.3812 34.3656 1.48242 75.7871 1.48242C117.209 1.48242 150.787 18.3812 150.787 39.2271Z" fill="url(#paint33_linear)"/>
<g opacity="0.6">
<g opacity="0.6">
<path opacity="0.6" d="M126.527 34.8451C127.897 34.8451 129.007 33.7351 129.007 32.366C129.007 30.9968 127.897 29.8868 126.527 29.8868C125.158 29.8868 124.048 30.9968 124.048 32.366C124.048 33.7351 125.158 34.8451 126.527 34.8451Z" fill="url(#paint34_linear)"/>
<path opacity="0.6" d="M121.925 40.7345C123.006 40.7345 123.882 39.8582 123.882 38.7772C123.882 37.6962 123.006 36.8198 121.925 36.8198C120.844 36.8198 119.967 37.6962 119.967 38.7772C119.967 39.8582 120.844 40.7345 121.925 40.7345Z" fill="url(#paint35_linear)"/>
<path opacity="0.6" d="M130.455 41.5995C131.107 41.5995 131.635 41.0712 131.635 40.4195C131.635 39.7678 131.107 39.2395 130.455 39.2395C129.804 39.2395 129.275 39.7678 129.275 40.4195C129.275 41.0712 129.804 41.5995 130.455 41.5995Z" fill="url(#paint36_linear)"/>
</g>
<g opacity="0.6">
<path opacity="0.6" d="M139.637 36.0666C140.649 36.0666 141.469 35.2463 141.469 34.2345C141.469 33.2227 140.649 32.4025 139.637 32.4025C138.625 32.4025 137.805 33.2227 137.805 34.2345C137.805 35.2463 138.625 36.0666 139.637 36.0666Z" fill="url(#paint37_linear)"/>
<path opacity="0.6" d="M133.838 36.3042C134.637 36.3042 135.284 35.6567 135.284 34.858C135.284 34.0593 134.637 33.4119 133.838 33.4119C133.04 33.4119 132.392 34.0593 132.392 34.858C132.392 35.6567 133.04 36.3042 133.838 36.3042Z" fill="url(#paint38_linear)"/>
<path opacity="0.6" d="M137.137 41.2375C137.618 41.2375 138.009 40.8471 138.009 40.3655C138.009 39.8838 137.618 39.4934 137.137 39.4934C136.655 39.4934 136.265 39.8838 136.265 40.3655C136.265 40.8471 136.655 41.2375 137.137 41.2375Z" fill="url(#paint39_linear)"/>
</g>
</g>
<path d="M0.787109 39.2274C0.787109 60.0733 150.787 60.0733 150.787 39.2274C150.787 35.3806 149.64 31.6689 147.515 28.1721H4.05917C1.93387 31.6686 0.787109 35.3804 0.787109 39.2274Z" fill="url(#paint40_linear)"/>
<path d="M42.3022 34.6153C44.569 34.6153 46.4066 33.8106 46.4066 32.818C46.4066 31.8253 44.569 31.0206 42.3022 31.0206C40.0354 31.0206 38.1978 31.8253 38.1978 32.818C38.1978 33.8106 40.0354 34.6153 42.3022 34.6153Z" fill="url(#paint41_linear)"/>
<path d="M64.6264 34.6153C66.8932 34.6153 68.7308 33.8106 68.7308 32.818C68.7308 31.8253 66.8932 31.0206 64.6264 31.0206C62.3596 31.0206 60.522 31.8253 60.522 32.818C60.522 33.8106 62.3596 34.6153 64.6264 34.6153Z" fill="url(#paint42_linear)"/>
<path d="M86.9491 34.6153C89.2159 34.6153 91.0535 33.8106 91.0535 32.818C91.0535 31.8253 89.2159 31.0206 86.9491 31.0206C84.6823 31.0206 82.8447 31.8253 82.8447 32.818C82.8447 33.8106 84.6823 34.6153 86.9491 34.6153Z" fill="url(#paint43_linear)"/>
<path d="M109.273 34.6153C111.54 34.6153 113.378 33.8106 113.378 32.818C113.378 31.8253 111.54 31.0206 109.273 31.0206C107.007 31.0206 105.169 31.8253 105.169 32.818C105.169 33.8106 107.007 34.6153 109.273 34.6153Z" fill="url(#paint44_linear)"/>
<path d="M31.1401 24.2803C33.4069 24.2803 35.2445 23.4756 35.2445 22.4829C35.2445 21.4902 33.4069 20.6855 31.1401 20.6855C28.8733 20.6855 27.0356 21.4902 27.0356 22.4829C27.0356 23.4756 28.8733 24.2803 31.1401 24.2803Z" fill="url(#paint45_linear)"/>
<path d="M53.4643 24.2803C55.7311 24.2803 57.5687 23.4756 57.5687 22.4829C57.5687 21.4902 55.7311 20.6855 53.4643 20.6855C51.1975 20.6855 49.3599 21.4902 49.3599 22.4829C49.3599 23.4756 51.1975 24.2803 53.4643 24.2803Z" fill="url(#paint46_linear)"/>
<path d="M75.7875 24.2803C78.0543 24.2803 79.8919 23.4756 79.8919 22.4829C79.8919 21.4902 78.0543 20.6855 75.7875 20.6855C73.5207 20.6855 71.6831 21.4902 71.6831 22.4829C71.6831 23.4756 73.5207 24.2803 75.7875 24.2803Z" fill="url(#paint47_linear)"/>
<path d="M98.1112 24.2803C100.378 24.2803 102.216 23.4756 102.216 22.4829C102.216 21.4902 100.378 20.6855 98.1112 20.6855C95.8444 20.6855 94.0068 21.4902 94.0068 22.4829C94.0068 23.4756 95.8444 24.2803 98.1112 24.2803Z" fill="url(#paint48_linear)"/>
<path d="M120.434 24.2803C122.701 24.2803 124.539 23.4756 124.539 22.4829C124.539 21.4902 122.701 20.6855 120.434 20.6855C118.168 20.6855 116.33 21.4902 116.33 22.4829C116.33 23.4756 118.168 24.2803 120.434 24.2803Z" fill="url(#paint49_linear)"/>
<path d="M42.3022 13.9455C44.569 13.9455 46.4066 13.1408 46.4066 12.1482C46.4066 11.1555 44.569 10.3508 42.3022 10.3508C40.0354 10.3508 38.1978 11.1555 38.1978 12.1482C38.1978 13.1408 40.0354 13.9455 42.3022 13.9455Z" fill="url(#paint50_linear)"/>
<path d="M64.6264 13.9455C66.8932 13.9455 68.7308 13.1408 68.7308 12.1482C68.7308 11.1555 66.8932 10.3508 64.6264 10.3508C62.3596 10.3508 60.522 11.1555 60.522 12.1482C60.522 13.1408 62.3596 13.9455 64.6264 13.9455Z" fill="url(#paint51_linear)"/>
<path d="M86.9491 13.9455C89.2159 13.9455 91.0535 13.1408 91.0535 12.1482C91.0535 11.1555 89.2159 10.3508 86.9491 10.3508C84.6823 10.3508 82.8447 11.1555 82.8447 12.1482C82.8447 13.1408 84.6823 13.9455 86.9491 13.9455Z" fill="url(#paint52_linear)"/>
<path d="M109.273 13.9455C111.54 13.9455 113.378 13.1408 113.378 12.1482C113.378 11.1555 111.54 10.3508 109.273 10.3508C107.007 10.3508 105.169 11.1555 105.169 12.1482C105.169 13.1408 107.007 13.9455 109.273 13.9455Z" fill="url(#paint53_linear)"/>
<path d="M75.7875 3.61058C78.0543 3.61058 79.8919 2.80587 79.8919 1.81322C79.8919 0.820571 78.0543 0.0158691 75.7875 0.0158691C73.5207 0.0158691 71.6831 0.820571 71.6831 1.81322C71.6831 2.80587 73.5207 3.61058 75.7875 3.61058Z" fill="url(#paint54_linear)"/>
<path d="M101.718 3.82036C101.523 4.79389 99.5633 5.22271 97.3406 4.77859C95.1177 4.33447 93.4733 3.18506 93.668 2.21153C93.8624 1.238 95.8224 0.80918 98.045 1.2533C100.268 1.69741 101.912 2.84683 101.718 3.82036Z" fill="url(#paint55_linear)"/>
<path d="M49.857 3.82036C50.0514 4.79389 52.0114 5.22271 54.234 4.77859C56.457 4.33447 58.1014 3.18506 57.9067 2.21153C57.712 1.238 55.7523 0.80918 53.5296 1.2533C51.3067 1.69771 49.6623 2.84683 49.857 3.82036Z" fill="url(#paint56_linear)"/>
</g>
<defs>
<linearGradient id="paint0_linear" x1="75.151" y1="122.876" x2="85.0366" y2="161.968" gradientUnits="userSpaceOnUse">
<stop stop-color="#FAA68E"/>
<stop offset="0.2061" stop-color="#FBA682"/>
<stop offset="0.5808" stop-color="#FDA861"/>
<stop offset="1" stop-color="#FFA936"/>
</linearGradient>
<linearGradient id="paint1_linear" x1="108.528" y1="152.286" x2="88.4578" y2="99.5635" gradientUnits="userSpaceOnUse">
<stop stop-color="#F82814" stop-opacity="0"/>
<stop offset="0.2454" stop-color="#F12817" stop-opacity="0.245"/>
<stop offset="0.6052" stop-color="#DD2820" stop-opacity="0.605"/>
<stop offset="1" stop-color="#C0272D"/>
</linearGradient>
<linearGradient id="paint2_linear" x1="138.255" y1="132.497" x2="130.953" y2="113.625" gradientUnits="userSpaceOnUse">
<stop stop-color="#F82814" stop-opacity="0"/>
<stop offset="0.2454" stop-color="#F12817" stop-opacity="0.245"/>
<stop offset="0.6052" stop-color="#DD2820" stop-opacity="0.605"/>
<stop offset="1" stop-color="#C0272D"/>
</linearGradient>
<linearGradient id="paint3_linear" x1="24.3271" y1="134.429" x2="17.9924" y2="124.543" gradientUnits="userSpaceOnUse">
<stop stop-color="#F82814" stop-opacity="0"/>
<stop offset="0.2454" stop-color="#F12817" stop-opacity="0.245"/>
<stop offset="0.6052" stop-color="#DD2820" stop-opacity="0.605"/>
<stop offset="1" stop-color="#C0272D"/>
</linearGradient>
<linearGradient id="paint4_linear" x1="19.2932" y1="140.174" x2="14.2922" y2="132.37" gradientUnits="userSpaceOnUse">
<stop stop-color="#F82814" stop-opacity="0"/>
<stop offset="0.2454" stop-color="#F12817" stop-opacity="0.245"/>
<stop offset="0.6052" stop-color="#DD2820" stop-opacity="0.605"/>
<stop offset="1" stop-color="#C0272D"/>
</linearGradient>
<linearGradient id="paint5_linear" x1="27.1898" y1="140.82" x2="24.1748" y2="136.115" gradientUnits="userSpaceOnUse">
<stop stop-color="#F82814" stop-opacity="0"/>
<stop offset="0.2454" stop-color="#F12817" stop-opacity="0.245"/>
<stop offset="0.6052" stop-color="#DD2820" stop-opacity="0.605"/>
<stop offset="1" stop-color="#C0272D"/>
</linearGradient>
<linearGradient id="paint6_linear" x1="34.6778" y1="135.761" x2="36.9999" y2="127.404" gradientUnits="userSpaceOnUse">
<stop stop-color="#F82814" stop-opacity="0"/>
<stop offset="0.2454" stop-color="#F12817" stop-opacity="0.245"/>
<stop offset="0.6052" stop-color="#DD2820" stop-opacity="0.605"/>
<stop offset="1" stop-color="#C0272D"/>
</linearGradient>
<linearGradient id="paint7_linear" x1="29.0351" y1="135.82" x2="30.8681" y2="129.222" gradientUnits="userSpaceOnUse">
<stop stop-color="#F82814" stop-opacity="0"/>
<stop offset="0.2454" stop-color="#F12817" stop-opacity="0.245"/>
<stop offset="0.6052" stop-color="#DD2820" stop-opacity="0.605"/>
<stop offset="1" stop-color="#C0272D"/>
</linearGradient>
<linearGradient id="paint8_linear" x1="32.5695" y1="140.486" x2="33.675" y2="136.508" gradientUnits="userSpaceOnUse">
<stop stop-color="#F82814" stop-opacity="0"/>
<stop offset="0.2454" stop-color="#F12817" stop-opacity="0.245"/>
<stop offset="0.6052" stop-color="#DD2820" stop-opacity="0.605"/>
<stop offset="1" stop-color="#C0272D"/>
</linearGradient>
<linearGradient id="paint9_linear" x1="75.7862" y1="138.039" x2="75.7862" y2="156.401" gradientUnits="userSpaceOnUse">
<stop stop-color="#F82814" stop-opacity="0"/>
<stop offset="0.2454" stop-color="#F12817" stop-opacity="0.245"/>
<stop offset="0.6052" stop-color="#DD2820" stop-opacity="0.605"/>
<stop offset="1" stop-color="#C0272D"/>
</linearGradient>
<linearGradient id="paint10_linear" x1="75.7866" y1="102.242" x2="75.7866" y2="134.373" gradientUnits="userSpaceOnUse">
<stop stop-color="#A57C52"/>
<stop offset="0.1339" stop-color="#A26C4A"/>
<stop offset="0.5155" stop-color="#994336"/>
<stop offset="0.8174" stop-color="#942A2A"/>
<stop offset="1" stop-color="#922125"/>
</linearGradient>
<linearGradient id="paint11_linear" x1="77.3744" y1="116.95" x2="76.0265" y2="90.5887" gradientUnits="userSpaceOnUse">
<stop stop-color="#42210B" stop-opacity="0"/>
<stop offset="1" stop-color="#42210B"/>
</linearGradient>
<linearGradient id="paint12_linear" x1="142.249" y1="125.063" x2="124.163" y2="102.483" gradientUnits="userSpaceOnUse">
<stop stop-color="#42210B" stop-opacity="0"/>
<stop offset="1" stop-color="#42210B"/>
</linearGradient>
<linearGradient id="paint13_linear" x1="89.5554" y1="133.364" x2="85.0619" y2="114.604" gradientUnits="userSpaceOnUse">
<stop stop-color="#42210B" stop-opacity="0"/>
<stop offset="1" stop-color="#42210B"/>
</linearGradient>
<linearGradient id="paint14_linear" x1="70.5437" y1="102.624" x2="96.8984" y2="128.979" gradientUnits="userSpaceOnUse">
<stop stop-color="#FFD945"/>
<stop offset="0.3043" stop-color="#FFCD3E"/>
<stop offset="0.8558" stop-color="#FFAD2B"/>
<stop offset="1" stop-color="#FFA325"/>
</linearGradient>
<linearGradient id="paint15_linear" x1="75.7866" y1="93.7041" x2="75.7866" y2="120.991" gradientUnits="userSpaceOnUse">
<stop stop-color="#BADA00"/>
<stop offset="0.2269" stop-color="#B0CE00"/>
<stop offset="0.6378" stop-color="#95AE00"/>
<stop offset="1" stop-color="#798C00"/>
</linearGradient>
<linearGradient id="paint16_linear" x1="77.4658" y1="111.954" x2="77.7655" y2="86.4918" gradientUnits="userSpaceOnUse">
<stop stop-color="#798C00" stop-opacity="0"/>
<stop offset="0.6542" stop-color="#556100" stop-opacity="0.654"/>
<stop offset="1" stop-color="#464F00"/>
</linearGradient>
<linearGradient id="paint17_linear" x1="56.014" y1="113.067" x2="30.4013" y2="66.785" gradientUnits="userSpaceOnUse">
<stop stop-color="#798C00" stop-opacity="0"/>
<stop offset="0.6542" stop-color="#556100" stop-opacity="0.654"/>
<stop offset="1" stop-color="#464F00"/>
</linearGradient>
<linearGradient id="paint18_linear" x1="133.358" y1="115.138" x2="123.585" y2="97.6137" gradientUnits="userSpaceOnUse">
<stop stop-color="#798C00" stop-opacity="0"/>
<stop offset="0.6542" stop-color="#556100" stop-opacity="0.654"/>
<stop offset="1" stop-color="#464F00"/>
</linearGradient>
<linearGradient id="paint19_linear" x1="120.789" y1="99.637" x2="131.868" y2="113.9" gradientUnits="userSpaceOnUse">
<stop stop-color="#FFDECF"/>
<stop offset="0.3791" stop-color="#FDC4B0"/>
<stop offset="0.7655" stop-color="#FBAE97"/>
<stop offset="1" stop-color="#FAA68E"/>
</linearGradient>
<linearGradient id="paint20_linear" x1="75.7868" y1="89.8847" x2="75.7868" y2="103.382" gradientUnits="userSpaceOnUse">
<stop stop-color="#FF6359"/>
<stop offset="0.2243" stop-color="#FE5B50"/>
<stop offset="0.5952" stop-color="#FC4637"/>
<stop offset="1" stop-color="#F82814"/>
</linearGradient>
<linearGradient id="paint21_linear" x1="47.6495" y1="108.867" x2="38.363" y2="77.8627" gradientUnits="userSpaceOnUse">
<stop stop-color="#F82814" stop-opacity="0"/>
<stop offset="1" stop-color="#C0272D"/>
</linearGradient>
<linearGradient id="paint22_linear" x1="117.856" y1="105.803" x2="112.164" y2="90.525" gradientUnits="userSpaceOnUse">
<stop stop-color="#F82814" stop-opacity="0"/>
<stop offset="1" stop-color="#C0272D"/>
</linearGradient>
<linearGradient id="paint23_linear" x1="75.7866" y1="64.9567" x2="75.7866" y2="97.0879" gradientUnits="userSpaceOnUse">
<stop stop-color="#A57C52"/>
<stop offset="0.1339" stop-color="#A26C4A"/>
<stop offset="0.5155" stop-color="#994336"/>
<stop offset="0.8174" stop-color="#942A2A"/>
<stop offset="1" stop-color="#922125"/>
</linearGradient>
<linearGradient id="paint24_linear" x1="77.3744" y1="79.6655" x2="76.0265" y2="53.3041" gradientUnits="userSpaceOnUse">
<stop stop-color="#42210B" stop-opacity="0"/>
<stop offset="1" stop-color="#42210B"/>
</linearGradient>
<linearGradient id="paint25_linear" x1="114.552" y1="97.9432" x2="99.724" y2="70.6832" gradientUnits="userSpaceOnUse">
<stop stop-color="#42210B" stop-opacity="0"/>
<stop offset="1" stop-color="#42210B"/>
</linearGradient>
<linearGradient id="paint26_linear" x1="90.8494" y1="65.3392" x2="117.204" y2="91.6939" gradientUnits="userSpaceOnUse">
<stop stop-color="#FFD945"/>
<stop offset="0.3043" stop-color="#FFCD3E"/>
<stop offset="0.8558" stop-color="#FFAD2B"/>
<stop offset="1" stop-color="#FFA325"/>
</linearGradient>
<linearGradient id="paint27_linear" x1="39.5073" y1="93.6362" x2="32.9171" y2="74.0148" gradientUnits="userSpaceOnUse">
<stop stop-color="#42210B" stop-opacity="0"/>
<stop offset="1" stop-color="#42210B"/>
</linearGradient>
<linearGradient id="paint28_linear" x1="21.4094" y1="72.9013" x2="32.4894" y2="87.1636" gradientUnits="userSpaceOnUse">
<stop stop-color="#FFDECF"/>
<stop offset="0.3791" stop-color="#FDC4B0"/>
<stop offset="0.7655" stop-color="#FBAE97"/>
<stop offset="1" stop-color="#FAA68E"/>
</linearGradient>
<linearGradient id="paint29_linear" x1="75.7866" y1="56.419" x2="75.7866" y2="83.7058" gradientUnits="userSpaceOnUse">
<stop stop-color="#BADA00"/>
<stop offset="0.2269" stop-color="#B0CE00"/>
<stop offset="0.6378" stop-color="#95AE00"/>
<stop offset="1" stop-color="#798C00"/>
</linearGradient>
<linearGradient id="paint30_linear" x1="77.4658" y1="74.6715" x2="77.7655" y2="49.2088" gradientUnits="userSpaceOnUse">
<stop stop-color="#798C00" stop-opacity="0"/>
<stop offset="0.6542" stop-color="#556100" stop-opacity="0.654"/>
<stop offset="1" stop-color="#464F00"/>
</linearGradient>
<linearGradient id="paint31_linear" x1="75.7868" y1="52.5996" x2="75.7868" y2="66.097" gradientUnits="userSpaceOnUse">
<stop stop-color="#FF6359"/>
<stop offset="0.2243" stop-color="#FE5B50"/>
<stop offset="0.5952" stop-color="#FC4637"/>
<stop offset="1" stop-color="#F82814"/>
</linearGradient>
<linearGradient id="paint32_linear" x1="75.8879" y1="66.7938" x2="76.1126" y2="44.3268" gradientUnits="userSpaceOnUse">
<stop stop-color="#F82814" stop-opacity="0"/>
<stop offset="1" stop-color="#C0272D"/>
</linearGradient>
<linearGradient id="paint33_linear" x1="67.9592" y1="8.69507" x2="81.978" y2="61.6048" gradientUnits="userSpaceOnUse">
<stop stop-color="#FAA68E"/>
<stop offset="0.2061" stop-color="#FBA682"/>
<stop offset="0.5808" stop-color="#FDA861"/>
<stop offset="1" stop-color="#FFA936"/>
</linearGradient>
<linearGradient id="paint34_linear" x1="128.59" y1="35.5783" x2="122.256" y2="25.6929" gradientUnits="userSpaceOnUse">
<stop stop-color="#F82814" stop-opacity="0"/>
<stop offset="0.2454" stop-color="#F12817" stop-opacity="0.245"/>
<stop offset="0.6052" stop-color="#DD2820" stop-opacity="0.605"/>
<stop offset="1" stop-color="#C0272D"/>
</linearGradient>
<linearGradient id="paint35_linear" x1="123.557" y1="41.324" x2="118.556" y2="33.5199" gradientUnits="userSpaceOnUse">
<stop stop-color="#F82814" stop-opacity="0"/>
<stop offset="0.2454" stop-color="#F12817" stop-opacity="0.245"/>
<stop offset="0.6052" stop-color="#DD2820" stop-opacity="0.605"/>
<stop offset="1" stop-color="#C0272D"/>
</linearGradient>
<linearGradient id="paint36_linear" x1="131.453" y1="41.9694" x2="128.439" y2="37.2643" gradientUnits="userSpaceOnUse">
<stop stop-color="#F82814" stop-opacity="0"/>
<stop offset="0.2454" stop-color="#F12817" stop-opacity="0.245"/>
<stop offset="0.6052" stop-color="#DD2820" stop-opacity="0.605"/>
<stop offset="1" stop-color="#C0272D"/>
</linearGradient>
<linearGradient id="paint37_linear" x1="138.911" y1="36.9244" x2="141.233" y2="28.5672" gradientUnits="userSpaceOnUse">
<stop stop-color="#F82814" stop-opacity="0"/>
<stop offset="0.2454" stop-color="#F12817" stop-opacity="0.245"/>
<stop offset="0.6052" stop-color="#DD2820" stop-opacity="0.605"/>
<stop offset="1" stop-color="#C0272D"/>
</linearGradient>
<linearGradient id="paint38_linear" x1="133.268" y1="36.9833" x2="135.101" y2="30.3856" gradientUnits="userSpaceOnUse">
<stop stop-color="#F82814" stop-opacity="0"/>
<stop offset="0.2454" stop-color="#F12817" stop-opacity="0.245"/>
<stop offset="0.6052" stop-color="#DD2820" stop-opacity="0.605"/>
<stop offset="1" stop-color="#C0272D"/>
</linearGradient>
<linearGradient id="paint39_linear" x1="136.803" y1="41.649" x2="137.908" y2="37.6717" gradientUnits="userSpaceOnUse">
<stop stop-color="#F82814" stop-opacity="0"/>
<stop offset="0.2454" stop-color="#F12817" stop-opacity="0.245"/>
<stop offset="0.6052" stop-color="#DD2820" stop-opacity="0.605"/>
<stop offset="1" stop-color="#C0272D"/>
</linearGradient>
<linearGradient id="paint40_linear" x1="75.7871" y1="35.0718" x2="75.7871" y2="61.7615" gradientUnits="userSpaceOnUse">
<stop stop-color="#F82814" stop-opacity="0"/>
<stop offset="0.2497" stop-color="#F32816" stop-opacity="0.25"/>
<stop offset="0.5421" stop-color="#E5281D" stop-opacity="0.542"/>
<stop offset="0.8547" stop-color="#CE2727" stop-opacity="0.855"/>
<stop offset="1" stop-color="#C0272D"/>
</linearGradient>
<linearGradient id="paint41_linear" x1="41.9051" y1="31.6665" x2="43.403" y2="36.01" gradientUnits="userSpaceOnUse">
<stop stop-color="#FFDECF"/>
<stop offset="0.3791" stop-color="#FDC4B0"/>
<stop offset="0.7655" stop-color="#FBAE97"/>
<stop offset="1" stop-color="#FAA68E"/>
</linearGradient>
<linearGradient id="paint42_linear" x1="64.2293" y1="31.6665" x2="65.727" y2="36.01" gradientUnits="userSpaceOnUse">
<stop stop-color="#FFDECF"/>
<stop offset="0.3791" stop-color="#FDC4B0"/>
<stop offset="0.7655" stop-color="#FBAE97"/>
<stop offset="1" stop-color="#FAA68E"/>
</linearGradient>
<linearGradient id="paint43_linear" x1="86.5521" y1="31.6665" x2="88.05" y2="36.01" gradientUnits="userSpaceOnUse">
<stop stop-color="#FFDECF"/>
<stop offset="0.3791" stop-color="#FDC4B0"/>
<stop offset="0.7655" stop-color="#FBAE97"/>
<stop offset="1" stop-color="#FAA68E"/>
</linearGradient>
<linearGradient id="paint44_linear" x1="108.876" y1="31.6665" x2="110.374" y2="36.01" gradientUnits="userSpaceOnUse">
<stop stop-color="#FFDECF"/>
<stop offset="0.3791" stop-color="#FDC4B0"/>
<stop offset="0.7655" stop-color="#FBAE97"/>
<stop offset="1" stop-color="#FAA68E"/>
</linearGradient>
<linearGradient id="paint45_linear" x1="30.743" y1="21.3314" x2="32.2409" y2="25.6753" gradientUnits="userSpaceOnUse">
<stop stop-color="#FFDECF"/>
<stop offset="0.3791" stop-color="#FDC4B0"/>
<stop offset="0.7655" stop-color="#FBAE97"/>
<stop offset="1" stop-color="#FAA68E"/>
</linearGradient>
<linearGradient id="paint46_linear" x1="53.0672" y1="21.3314" x2="54.5649" y2="25.6753" gradientUnits="userSpaceOnUse">
<stop stop-color="#FFDECF"/>
<stop offset="0.3791" stop-color="#FDC4B0"/>
<stop offset="0.7655" stop-color="#FBAE97"/>
<stop offset="1" stop-color="#FAA68E"/>
</linearGradient>
<linearGradient id="paint47_linear" x1="75.3905" y1="21.3314" x2="76.8884" y2="25.6753" gradientUnits="userSpaceOnUse">
<stop stop-color="#FFDECF"/>
<stop offset="0.3791" stop-color="#FDC4B0"/>
<stop offset="0.7655" stop-color="#FBAE97"/>
<stop offset="1" stop-color="#FAA68E"/>
</linearGradient>
<linearGradient id="paint48_linear" x1="97.7142" y1="21.3314" x2="99.2121" y2="25.6753" gradientUnits="userSpaceOnUse">
<stop stop-color="#FFDECF"/>
<stop offset="0.3791" stop-color="#FDC4B0"/>
<stop offset="0.7655" stop-color="#FBAE97"/>
<stop offset="1" stop-color="#FAA68E"/>
</linearGradient>
<linearGradient id="paint49_linear" x1="120.037" y1="21.3314" x2="121.535" y2="25.6753" gradientUnits="userSpaceOnUse">
<stop stop-color="#FFDECF"/>
<stop offset="0.3791" stop-color="#FDC4B0"/>
<stop offset="0.7655" stop-color="#FBAE97"/>
<stop offset="1" stop-color="#FAA68E"/>
</linearGradient>
<linearGradient id="paint50_linear" x1="41.9051" y1="10.9967" x2="43.403" y2="15.3402" gradientUnits="userSpaceOnUse">
<stop stop-color="#FFDECF"/>
<stop offset="0.3791" stop-color="#FDC4B0"/>
<stop offset="0.7655" stop-color="#FBAE97"/>
<stop offset="1" stop-color="#FAA68E"/>
</linearGradient>
<linearGradient id="paint51_linear" x1="64.2293" y1="10.9967" x2="65.727" y2="15.3402" gradientUnits="userSpaceOnUse">
<stop stop-color="#FFDECF"/>
<stop offset="0.3791" stop-color="#FDC4B0"/>
<stop offset="0.7655" stop-color="#FBAE97"/>
<stop offset="1" stop-color="#FAA68E"/>
</linearGradient>
<linearGradient id="paint52_linear" x1="86.5521" y1="10.9967" x2="88.05" y2="15.3402" gradientUnits="userSpaceOnUse">
<stop stop-color="#FFDECF"/>
<stop offset="0.3791" stop-color="#FDC4B0"/>
<stop offset="0.7655" stop-color="#FBAE97"/>
<stop offset="1" stop-color="#FAA68E"/>
</linearGradient>
<linearGradient id="paint53_linear" x1="108.876" y1="10.9967" x2="110.374" y2="15.3402" gradientUnits="userSpaceOnUse">
<stop stop-color="#FFDECF"/>
<stop offset="0.3791" stop-color="#FDC4B0"/>
<stop offset="0.7655" stop-color="#FBAE97"/>
<stop offset="1" stop-color="#FAA68E"/>
</linearGradient>
<linearGradient id="paint54_linear" x1="75.3905" y1="0.661752" x2="76.8884" y2="5.00528" gradientUnits="userSpaceOnUse">
<stop stop-color="#FFDECF"/>
<stop offset="0.3791" stop-color="#FDC4B0"/>
<stop offset="0.7655" stop-color="#FBAE97"/>
<stop offset="1" stop-color="#FAA68E"/>
</linearGradient>
<linearGradient id="paint55_linear" x1="97.5772" y1="1.78608" x2="98.1954" y2="6.34068" gradientUnits="userSpaceOnUse">
<stop stop-color="#FFDECF"/>
<stop offset="0.3791" stop-color="#FDC4B0"/>
<stop offset="0.7655" stop-color="#FBAE97"/>
<stop offset="1" stop-color="#FAA68E"/>
</linearGradient>
<linearGradient id="paint56_linear" x1="54.2292" y1="1.82093" x2="53.6111" y2="6.37582" gradientUnits="userSpaceOnUse">
<stop stop-color="#FFDECF"/>
<stop offset="0.3791" stop-color="#FDC4B0"/>
<stop offset="0.7655" stop-color="#FBAE97"/>
<stop offset="1" stop-color="#FAA68E"/>
</linearGradient>
<clipPath id="clip0">
<rect width="150" height="150" fill="white" transform="translate(0.787109 0.0158691)"/>
</clipPath>
</defs>
</svg>
