<svg width="151" height="151" viewBox="0 0 151 151" fill="none" xmlns="http://www.w3.org/2000/svg">
<g clip-path="url(#clip0)">
<path d="M62.5967 42.2923C60.984 40.6797 60.984 38.0656 62.5967 36.4529L93.3899 5.65968C95.0026 4.04703 97.6167 4.04703 99.2293 5.65968C100.842 7.27233 100.842 9.88645 99.2293 11.4991L68.4361 42.2923C66.8238 43.905 64.2093 43.905 62.5967 42.2923Z" fill="url(#paint0_linear)"/>
<path d="M76.5104 49.0603C88.4097 49.0603 98.056 39.414 98.056 27.5147C98.056 15.6154 88.4097 5.96912 76.5104 5.96912C64.6111 5.96912 54.9648 15.6154 54.9648 27.5147C54.9648 39.414 64.6111 49.0603 76.5104 49.0603Z" fill="url(#paint1_radial)"/>
<path d="M88.7114 45.2697L73.7382 30.2868C68.6932 25.2418 61.7688 23.2253 55.2185 24.2303C54.2135 30.7806 56.2297 37.7047 61.2749 42.75C68.7405 50.215 80.3182 51.0512 88.7114 45.2697Z" fill="url(#paint2_linear)"/>
<path d="M58.5031 67.0674C70.4024 67.0674 80.0487 57.4211 80.0487 45.5218C80.0487 33.6225 70.4024 23.9762 58.5031 23.9762C46.6038 23.9762 36.9575 33.6225 36.9575 45.5218C36.9575 57.4211 46.6038 67.0674 58.5031 67.0674Z" fill="url(#paint3_radial)"/>
<path d="M70.7046 63.2764L55.7313 48.2935C50.6863 43.2485 43.7619 41.232 37.2116 42.237C36.2066 48.7873 38.2228 55.7114 43.2681 60.7567C50.7334 68.222 62.3111 69.0582 70.7046 63.2764Z" fill="url(#paint4_linear)"/>
<path d="M40.4963 85.0743C52.3956 85.0743 62.0419 75.428 62.0419 63.5287C62.0419 51.6294 52.3956 41.9832 40.4963 41.9832C28.597 41.9832 18.9507 51.6294 18.9507 63.5287C18.9507 75.428 28.597 85.0743 40.4963 85.0743Z" fill="url(#paint5_radial)"/>
<path d="M27.9835 71.0656L22.9785 76.0706C23.6553 77.0135 24.4132 77.9162 25.2606 78.7638C31.1082 84.6115 39.4797 86.3906 46.8676 84.1103L33.8229 71.0656C32.2106 69.4532 29.5962 69.4532 27.9835 71.0656Z" fill="url(#paint6_linear)"/>
<path d="M2.15675 102.732C0.544104 101.12 0.544104 98.5053 2.15675 96.893L27.9838 71.0659C29.5965 69.4533 32.2106 69.4533 33.8232 71.0659C35.4359 72.6786 35.4359 75.2927 33.8232 76.9053L7.99616 102.732C6.38352 104.345 3.7691 104.345 2.15675 102.732Z" fill="url(#paint7_linear)"/>
<path d="M106.369 44.2051C104.757 42.5924 104.757 39.9783 106.369 38.3656L137.162 7.5724C138.775 5.95975 141.389 5.95975 143.002 7.5724C144.614 9.18505 144.614 11.7992 143.002 13.4118L112.209 44.2051C110.596 45.8177 107.982 45.8177 106.369 44.2051Z" fill="url(#paint8_linear)"/>
<path d="M120.283 50.9733C132.182 50.9733 141.828 41.327 141.828 29.4277C141.828 17.5284 132.182 7.88208 120.283 7.88208C108.384 7.88208 98.7373 17.5284 98.7373 29.4277C98.7373 41.327 108.384 50.9733 120.283 50.9733Z" fill="url(#paint9_radial)"/>
<path d="M132.484 47.1823L117.511 32.1994C112.466 27.1544 105.541 25.1379 98.9909 26.1429C97.9859 32.6932 100.002 39.6173 105.047 44.6626C112.513 52.1279 124.091 52.9638 132.484 47.1823Z" fill="url(#paint10_linear)"/>
<path d="M102.276 68.98C114.175 68.98 123.821 59.3337 123.821 47.4344C123.821 35.5351 114.175 25.8888 102.276 25.8888C90.3763 25.8888 80.73 35.5351 80.73 47.4344C80.73 59.3337 90.3763 68.98 102.276 68.98Z" fill="url(#paint11_radial)"/>
<path d="M114.477 65.1894L99.5033 50.2064C94.4583 45.1614 87.5339 43.145 80.9836 44.15C79.9786 50.7003 81.9948 57.6244 87.0401 62.6697C94.5057 70.135 106.083 70.9709 114.477 65.1894Z" fill="url(#paint12_linear)"/>
<path d="M84.2682 86.9871C96.1675 86.9871 105.814 77.3408 105.814 65.4415C105.814 53.5422 96.1675 43.8959 84.2682 43.8959C72.3689 43.8959 62.7227 53.5422 62.7227 65.4415C62.7227 77.3408 72.3689 86.9871 84.2682 86.9871Z" fill="url(#paint13_radial)"/>
<path d="M71.756 72.9786L66.751 77.9836C67.4277 78.9266 68.1857 79.8292 69.033 80.6769C74.8807 86.5245 83.2522 88.3036 90.6401 86.0233L77.5954 72.9786C75.9827 71.366 73.3683 71.366 71.756 72.9786Z" fill="url(#paint14_linear)"/>
<path d="M45.9292 104.645C44.3166 103.032 44.3166 100.418 45.9292 98.8057L71.7563 72.9787C73.3689 71.366 75.983 71.366 77.5957 72.9787C79.2083 74.5913 79.2083 77.2054 77.5957 78.8181L51.7686 104.645C50.156 106.258 47.5416 106.258 45.9292 104.645Z" fill="url(#paint15_linear)"/>
<path d="M113.105 83.9323C111.493 82.3197 111.493 79.7053 113.105 78.0929L143.899 47.2997C145.511 45.687 148.125 45.687 149.738 47.2997C151.351 48.9123 151.351 51.5265 149.738 53.1391L118.945 83.9323C117.332 85.5447 114.718 85.5447 113.105 83.9323Z" fill="url(#paint16_linear)"/>
<path d="M127.019 90.7003C138.919 90.7003 148.565 81.054 148.565 69.1547C148.565 57.2554 138.919 47.6091 127.019 47.6091C115.12 47.6091 105.474 57.2554 105.474 69.1547C105.474 81.054 115.12 90.7003 127.019 90.7003Z" fill="url(#paint17_radial)"/>
<path d="M139.22 86.9095L124.247 71.9265C119.202 66.8815 112.278 64.8651 105.727 65.8701C104.722 72.4204 106.738 79.3445 111.784 84.3898C119.249 91.8551 130.827 92.691 139.22 86.9095Z" fill="url(#paint18_linear)"/>
<path d="M109.012 108.707C120.911 108.707 130.557 99.0608 130.557 87.1614C130.557 75.2621 120.911 65.6158 109.012 65.6158C97.1126 65.6158 87.4663 75.2621 87.4663 87.1614C87.4663 99.0608 97.1126 108.707 109.012 108.707Z" fill="url(#paint19_radial)"/>
<path d="M121.213 104.916L106.24 89.9335C101.195 84.8885 94.2702 82.872 87.7199 83.877C86.7149 90.4273 88.7311 97.3514 93.7764 102.397C101.242 109.862 112.82 110.698 121.213 104.916Z" fill="url(#paint20_linear)"/>
<path d="M91.0046 126.714C102.904 126.714 112.55 117.068 112.55 105.169C112.55 93.2692 102.904 83.6229 91.0046 83.6229C79.1053 83.6229 69.459 93.2692 69.459 105.169C69.459 117.068 79.1053 126.714 91.0046 126.714Z" fill="url(#paint21_radial)"/>
<path d="M78.4923 112.706L73.4873 117.711C74.1641 118.654 74.922 119.556 75.7694 120.404C81.617 126.251 89.9885 128.031 97.3764 125.75L84.3317 112.706C82.7191 111.093 80.1047 111.093 78.4923 112.706Z" fill="url(#paint22_linear)"/>
<path d="M52.6655 144.372C51.0529 142.759 51.0529 140.145 52.6655 138.533L78.4926 112.706C80.1053 111.093 82.7194 111.093 84.332 112.706C85.9447 114.318 85.9447 116.932 84.332 118.545L58.505 144.372C56.8923 145.985 54.2779 145.985 52.6655 144.372Z" fill="url(#paint23_linear)"/>
</g>
<defs>
<linearGradient id="paint0_linear" x1="79.1597" y1="22.237" x2="90.3898" y2="33.467" gradientUnits="userSpaceOnUse">
<stop stop-color="#A57C52"/>
<stop offset="0.1339" stop-color="#A26C4A"/>
<stop offset="0.5155" stop-color="#994336"/>
<stop offset="0.8174" stop-color="#942A2A"/>
<stop offset="1" stop-color="#922125"/>
</linearGradient>
<radialGradient id="paint1_radial" cx="0" cy="0" r="1" gradientUnits="userSpaceOnUse" gradientTransform="translate(72.6331 16.8605) rotate(45) scale(29.7046)">
<stop stop-color="#BADA00"/>
<stop offset="0.3706" stop-color="#B8D800"/>
<stop offset="0.5625" stop-color="#B2D000"/>
<stop offset="0.7133" stop-color="#A6C300"/>
<stop offset="0.8428" stop-color="#97B000"/>
<stop offset="0.9575" stop-color="#829700"/>
<stop offset="1" stop-color="#798C00"/>
</radialGradient>
<linearGradient id="paint2_linear" x1="81.8911" y1="50.9027" x2="53.1526" y2="22.1641" gradientUnits="userSpaceOnUse">
<stop stop-color="#798C00" stop-opacity="0"/>
<stop offset="0.6542" stop-color="#556100" stop-opacity="0.654"/>
<stop offset="1" stop-color="#464F00"/>
</linearGradient>
<radialGradient id="paint3_radial" cx="0" cy="0" r="1" gradientUnits="userSpaceOnUse" gradientTransform="translate(51.2147 30.2787) rotate(45) scale(29.7046)">
<stop stop-color="#F8F6FB"/>
<stop offset="0.5047" stop-color="#F7F4FB"/>
<stop offset="0.7657" stop-color="#F5ECFB"/>
<stop offset="0.9705" stop-color="#F0DFFB"/>
<stop offset="1" stop-color="#EFDCFB"/>
</radialGradient>
<linearGradient id="paint4_linear" x1="63.8843" y1="68.9097" x2="35.1455" y2="40.1708" gradientUnits="userSpaceOnUse">
<stop stop-color="#EFDCFB" stop-opacity="0"/>
<stop offset="0.0287" stop-color="#E9D6F7" stop-opacity="0.029"/>
<stop offset="0.2203" stop-color="#C5B5DE" stop-opacity="0.22"/>
<stop offset="0.4138" stop-color="#AA9BCB" stop-opacity="0.414"/>
<stop offset="0.6078" stop-color="#9688BD" stop-opacity="0.608"/>
<stop offset="0.8028" stop-color="#8A7DB5" stop-opacity="0.803"/>
<stop offset="1" stop-color="#8679B2"/>
</linearGradient>
<radialGradient id="paint5_radial" cx="0" cy="0" r="1" gradientUnits="userSpaceOnUse" gradientTransform="translate(34.7345 49.4314) scale(31.4144)">
<stop stop-color="#FAA68E"/>
<stop offset="0.4571" stop-color="#FAA48F"/>
<stop offset="0.6937" stop-color="#FB9C92"/>
<stop offset="0.8791" stop-color="#FD8F97"/>
<stop offset="1" stop-color="#FF819C"/>
</radialGradient>
<linearGradient id="paint6_linear" x1="39.3262" y1="84.6994" x2="23.3953" y2="68.7682" gradientUnits="userSpaceOnUse">
<stop stop-color="#F82814" stop-opacity="0"/>
<stop offset="1" stop-color="#C0272D"/>
</linearGradient>
<linearGradient id="paint7_linear" x1="16.2461" y1="85.1505" x2="27.4761" y2="96.3805" gradientUnits="userSpaceOnUse">
<stop stop-color="#A57C52"/>
<stop offset="0.1339" stop-color="#A26C4A"/>
<stop offset="0.5155" stop-color="#994336"/>
<stop offset="0.8174" stop-color="#942A2A"/>
<stop offset="1" stop-color="#922125"/>
</linearGradient>
<linearGradient id="paint8_linear" x1="122.925" y1="24.1495" x2="134.155" y2="35.3795" gradientUnits="userSpaceOnUse">
<stop stop-color="#A57C52"/>
<stop offset="0.1339" stop-color="#A26C4A"/>
<stop offset="0.5155" stop-color="#994336"/>
<stop offset="0.8174" stop-color="#942A2A"/>
<stop offset="1" stop-color="#922125"/>
</linearGradient>
<radialGradient id="paint9_radial" cx="0" cy="0" r="1" gradientUnits="userSpaceOnUse" gradientTransform="translate(117.102 17.716) rotate(45) scale(29.7046)">
<stop stop-color="#F8F6FB"/>
<stop offset="0.5047" stop-color="#F7F4FB"/>
<stop offset="0.7657" stop-color="#F5ECFB"/>
<stop offset="0.9705" stop-color="#F0DFFB"/>
<stop offset="1" stop-color="#EFDCFB"/>
</radialGradient>
<linearGradient id="paint10_linear" x1="125.664" y1="52.8155" x2="96.925" y2="24.0767" gradientUnits="userSpaceOnUse">
<stop stop-color="#EFDCFB" stop-opacity="0"/>
<stop offset="0.0287" stop-color="#E9D6F7" stop-opacity="0.029"/>
<stop offset="0.2203" stop-color="#C5B5DE" stop-opacity="0.22"/>
<stop offset="0.4138" stop-color="#AA9BCB" stop-opacity="0.414"/>
<stop offset="0.6078" stop-color="#9688BD" stop-opacity="0.608"/>
<stop offset="0.8028" stop-color="#8A7DB5" stop-opacity="0.803"/>
<stop offset="1" stop-color="#8679B2"/>
</linearGradient>
<radialGradient id="paint11_radial" cx="0" cy="0" r="1" gradientUnits="userSpaceOnUse" gradientTransform="translate(93.8041 30.1329) rotate(45) scale(29.7046)">
<stop stop-color="#FAA68E"/>
<stop offset="0.4571" stop-color="#FAA48F"/>
<stop offset="0.6937" stop-color="#FB9C92"/>
<stop offset="0.8791" stop-color="#FD8F97"/>
<stop offset="1" stop-color="#FF819C"/>
</radialGradient>
<linearGradient id="paint12_linear" x1="107.656" y1="70.8223" x2="78.9177" y2="42.0838" gradientUnits="userSpaceOnUse">
<stop stop-color="#F82814" stop-opacity="0"/>
<stop offset="1" stop-color="#C0272D"/>
</linearGradient>
<radialGradient id="paint13_radial" cx="0" cy="0" r="1" gradientUnits="userSpaceOnUse" gradientTransform="translate(83.4984 44.8491) rotate(45) scale(39.8287)">
<stop stop-color="#BADA00"/>
<stop offset="0.3706" stop-color="#B8D800"/>
<stop offset="0.5625" stop-color="#B2D000"/>
<stop offset="0.7133" stop-color="#A6C300"/>
<stop offset="0.8428" stop-color="#97B000"/>
<stop offset="0.9575" stop-color="#829700"/>
<stop offset="1" stop-color="#798C00"/>
</radialGradient>
<linearGradient id="paint14_linear" x1="83.0986" y1="86.6122" x2="67.1678" y2="70.6813" gradientUnits="userSpaceOnUse">
<stop stop-color="#798C00" stop-opacity="0"/>
<stop offset="0.6542" stop-color="#556100" stop-opacity="0.654"/>
<stop offset="1" stop-color="#464F00"/>
</linearGradient>
<linearGradient id="paint15_linear" x1="60.0116" y1="87.063" x2="71.2417" y2="98.2931" gradientUnits="userSpaceOnUse">
<stop stop-color="#A57C52"/>
<stop offset="0.1339" stop-color="#A26C4A"/>
<stop offset="0.5155" stop-color="#994336"/>
<stop offset="0.8174" stop-color="#942A2A"/>
<stop offset="1" stop-color="#922125"/>
</linearGradient>
<linearGradient id="paint16_linear" x1="129.661" y1="63.8705" x2="140.891" y2="75.1006" gradientUnits="userSpaceOnUse">
<stop stop-color="#A57C52"/>
<stop offset="0.1339" stop-color="#A26C4A"/>
<stop offset="0.5155" stop-color="#994336"/>
<stop offset="0.8174" stop-color="#942A2A"/>
<stop offset="1" stop-color="#922125"/>
</linearGradient>
<radialGradient id="paint17_radial" cx="0" cy="0" r="1" gradientUnits="userSpaceOnUse" gradientTransform="translate(123.722 61.4348) rotate(45) scale(29.7046)">
<stop stop-color="#BADA00"/>
<stop offset="0.3706" stop-color="#B8D800"/>
<stop offset="0.5625" stop-color="#B2D000"/>
<stop offset="0.7133" stop-color="#A6C300"/>
<stop offset="0.8428" stop-color="#97B000"/>
<stop offset="0.9575" stop-color="#829700"/>
<stop offset="1" stop-color="#798C00"/>
</radialGradient>
<linearGradient id="paint18_linear" x1="132.4" y1="92.5427" x2="103.661" y2="63.8039" gradientUnits="userSpaceOnUse">
<stop stop-color="#798C00" stop-opacity="0"/>
<stop offset="0.6542" stop-color="#556100" stop-opacity="0.654"/>
<stop offset="1" stop-color="#464F00"/>
</linearGradient>
<radialGradient id="paint19_radial" cx="0" cy="0" r="1" gradientUnits="userSpaceOnUse" gradientTransform="translate(110.538 72.5005) rotate(45) scale(29.7046)">
<stop stop-color="#F8F6FB"/>
<stop offset="0.5047" stop-color="#F7F4FB"/>
<stop offset="0.7657" stop-color="#F5ECFB"/>
<stop offset="0.9705" stop-color="#F0DFFB"/>
<stop offset="1" stop-color="#EFDCFB"/>
</radialGradient>
<linearGradient id="paint20_linear" x1="114.393" y1="110.549" x2="85.6541" y2="81.8109" gradientUnits="userSpaceOnUse">
<stop stop-color="#EFDCFB" stop-opacity="0"/>
<stop offset="0.0287" stop-color="#E9D6F7" stop-opacity="0.029"/>
<stop offset="0.2203" stop-color="#C5B5DE" stop-opacity="0.22"/>
<stop offset="0.4138" stop-color="#AA9BCB" stop-opacity="0.414"/>
<stop offset="0.6078" stop-color="#9688BD" stop-opacity="0.608"/>
<stop offset="0.8028" stop-color="#8A7DB5" stop-opacity="0.803"/>
<stop offset="1" stop-color="#8679B2"/>
</linearGradient>
<radialGradient id="paint21_radial" cx="0" cy="0" r="1" gradientUnits="userSpaceOnUse" gradientTransform="translate(87.8902 92.5417) scale(31.4144)">
<stop stop-color="#FAA68E"/>
<stop offset="0.4571" stop-color="#FAA48F"/>
<stop offset="0.6937" stop-color="#FB9C92"/>
<stop offset="0.8791" stop-color="#FD8F97"/>
<stop offset="1" stop-color="#FF819C"/>
</radialGradient>
<linearGradient id="paint22_linear" x1="89.835" y1="126.339" x2="73.9041" y2="110.408" gradientUnits="userSpaceOnUse">
<stop stop-color="#F82814" stop-opacity="0"/>
<stop offset="1" stop-color="#C0272D"/>
</linearGradient>
<linearGradient id="paint23_linear" x1="66.7471" y1="126.784" x2="77.9771" y2="138.014" gradientUnits="userSpaceOnUse">
<stop stop-color="#A57C52"/>
<stop offset="0.1339" stop-color="#A26C4A"/>
<stop offset="0.5155" stop-color="#994336"/>
<stop offset="0.8174" stop-color="#942A2A"/>
<stop offset="1" stop-color="#922125"/>
</linearGradient>
<clipPath id="clip0">
<rect width="150" height="150" fill="white" transform="translate(0.947754 0.0158691)"/>
</clipPath>
</defs>
</svg>
