<svg width="151" height="151" viewBox="0 0 151 151" fill="none" xmlns="http://www.w3.org/2000/svg">
<g clip-path="url(#clip0)">
<path d="M75.8022 13.5208C34.3825 13.5208 0.802246 41.6955 0.802246 76.454C0.802246 111.213 34.3825 139.387 75.8022 139.387C117.222 139.387 150.802 111.213 150.802 76.454C150.802 41.6955 117.222 13.5208 75.8022 13.5208ZM76.0219 40.6131C75.9355 40.6128 75.8499 40.6099 75.7631 40.6102C75.7761 40.6102 75.789 40.6096 75.802 40.6096C75.8761 40.6096 75.9484 40.6128 76.0219 40.6131ZM75.8022 72.299C65.7199 72.299 57.0693 68.3211 53.3596 62.6484C57.0575 56.9811 65.6678 52.9811 75.7237 52.9314C85.8537 52.8811 94.557 56.854 98.2658 62.5514C94.5728 68.2484 85.9122 72.299 75.8022 72.299Z" fill="url(#paint0_linear)"/>
<path d="M75.8022 13.5208C34.3825 13.5208 0.802246 41.6955 0.802246 76.454C0.802246 111.213 34.3825 139.387 75.8022 139.387C117.222 139.387 150.802 111.213 150.802 76.454C150.802 41.6955 117.222 13.5208 75.8022 13.5208ZM76.0219 40.6131C75.9355 40.6128 75.8499 40.6099 75.7631 40.6102C75.7761 40.6102 75.789 40.6096 75.802 40.6096C75.8761 40.6096 75.9484 40.6128 76.0219 40.6131ZM75.8022 72.299C65.7199 72.299 57.0693 68.3211 53.3596 62.6484C57.0575 56.9811 65.6678 52.9811 75.7237 52.9314C85.8537 52.8811 94.557 56.854 98.2658 62.5514C94.5728 68.2484 85.9122 72.299 75.8022 72.299Z" fill="url(#paint1_linear)"/>
<path d="M150.802 76.4542H109.936C82.8613 76.4542 60.9131 98.4028 60.9131 125.477C60.9131 127.58 61.8493 129.461 63.3228 130.738L71.8875 139.302C73.184 139.358 74.4893 139.387 75.8022 139.387C117.222 139.387 150.802 111.212 150.802 76.4542Z" fill="url(#paint2_linear)"/>
<path d="M150.802 76.4542H127.57C103.41 76.4542 83.8242 96.0401 83.8242 120.2C83.8242 122.352 84.7786 124.32 86.2936 125.642L97.3883 136.737C128.286 128.957 150.802 104.915 150.802 76.4542Z" fill="url(#paint3_linear)"/>
<path d="M150.802 76.4544C150.802 59.4764 142.787 44.0717 129.764 32.7517V97.3888C129.866 99.2711 130.717 100.952 132.022 102.145L139.526 109.649C146.671 100.012 150.802 88.6391 150.802 76.4544Z" fill="url(#paint4_linear)"/>
<path d="M150.802 61.3687C150.802 34.2087 117.222 12.1931 75.8022 12.1931C34.3825 12.1931 0.802246 34.2084 0.802246 61.3687C0.802246 66.6728 2.08519 71.7799 4.45607 76.5655C6.80578 81.3078 7.9396 86.5602 7.9396 91.8528V102.139C7.9396 105.981 10.974 109.235 14.8155 109.281C16.7708 109.305 18.5425 108.52 19.8208 107.242C21.0802 105.983 21.8599 104.241 21.8599 102.32C21.8599 99.4199 24.9693 97.5878 27.5072 98.9902C34.8137 103.027 43.312 106.165 52.6072 108.146C57.4372 109.175 60.9131 113.404 60.9131 118.342V125.478C60.9131 129.323 64.0293 132.439 67.8717 132.439C69.7928 132.439 71.5349 131.659 72.7943 130.4C74.0537 129.141 74.8334 127.399 74.8334 125.478V118.185C74.8334 115.703 76.8458 113.688 79.3305 113.688C80.5696 113.688 81.6937 114.191 82.5075 115.005C83.3214 115.822 83.8243 116.943 83.8243 118.185V120.199C83.8243 124.04 86.859 127.294 90.7002 127.341C92.6552 127.364 94.4272 126.58 95.7055 125.302C96.9649 124.043 97.7446 122.304 97.7446 120.379V116.919C97.7446 112.094 100.932 107.833 105.573 106.515C114.178 104.072 121.948 100.603 128.522 96.3417C129.05 95.9996 129.745 96.3799 129.745 97.0087C129.745 100.851 132.861 103.967 136.707 103.967C138.628 103.967 140.366 103.187 141.626 101.928C142.885 100.669 143.665 98.9299 143.665 97.009V90.1278C143.665 85.6917 144.677 81.2972 146.739 77.369C149.371 72.3531 150.802 66.9708 150.802 61.3687ZM75.7237 40.6099C89.1881 40.5431 100.135 47.5825 100.178 56.3337C100.222 65.0849 89.3452 72.2322 75.8808 72.299C62.4164 72.3658 51.4693 65.3264 51.4261 56.5752C51.3825 47.824 62.2593 40.6763 75.7237 40.6099Z" fill="url(#paint5_radial)"/>
<g opacity="0.6">
<g opacity="0.6">
<path opacity="0.6" d="M33.1906 112.13C34.7623 112.13 36.0365 110.856 36.0365 109.284C36.0365 107.713 34.7623 106.438 33.1906 106.438C31.6189 106.438 30.3447 107.713 30.3447 109.284C30.3447 110.856 31.6189 112.13 33.1906 112.13Z" fill="url(#paint6_linear)"/>
<path opacity="0.6" d="M25.3952 116.148C26.6361 116.148 27.642 115.142 27.642 113.901C27.642 112.66 26.6361 111.654 25.3952 111.654C24.1543 111.654 23.1484 112.66 23.1484 113.901C23.1484 115.142 24.1543 116.148 25.3952 116.148Z" fill="url(#paint7_linear)"/>
<path opacity="0.6" d="M33.6064 120.916C34.3544 120.916 34.9608 120.31 34.9608 119.562C34.9608 118.814 34.3544 118.208 33.6064 118.208C32.8583 118.208 32.252 118.814 32.252 119.562C32.252 120.31 32.8583 120.916 33.6064 120.916Z" fill="url(#paint8_linear)"/>
</g>
<g opacity="0.6">
<path opacity="0.6" d="M46.1088 119.397C47.2702 119.397 48.2117 118.456 48.2117 117.294C48.2117 116.133 47.2702 115.192 46.1088 115.192C44.9474 115.192 44.0059 116.133 44.0059 117.294C44.0059 118.456 44.9474 119.397 46.1088 119.397Z" fill="url(#paint9_linear)"/>
<path opacity="0.6" d="M39.7262 116.936C40.6432 116.936 41.3865 116.192 41.3865 115.275C41.3865 114.358 40.6432 113.615 39.7262 113.615C38.8093 113.615 38.0659 114.358 38.0659 115.275C38.0659 116.192 38.8093 116.936 39.7262 116.936Z" fill="url(#paint10_linear)"/>
<path opacity="0.6" d="M40.6537 123.587C41.2065 123.587 41.6546 123.139 41.6546 122.586C41.6546 122.033 41.2065 121.585 40.6537 121.585C40.1009 121.585 39.6528 122.033 39.6528 122.586C39.6528 123.139 40.1009 123.587 40.6537 123.587Z" fill="url(#paint11_linear)"/>
</g>
<g opacity="0.6">
<path opacity="0.6" d="M132.692 110.081C133.853 110.081 134.795 109.139 134.795 107.978C134.795 106.816 133.853 105.875 132.692 105.875C131.53 105.875 130.589 106.816 130.589 107.978C130.589 109.139 131.53 110.081 132.692 110.081Z" fill="url(#paint12_linear)"/>
<path opacity="0.6" d="M126.309 107.619C127.226 107.619 127.969 106.876 127.969 105.959C127.969 105.042 127.226 104.298 126.309 104.298C125.392 104.298 124.648 105.042 124.648 105.959C124.648 106.876 125.392 107.619 126.309 107.619Z" fill="url(#paint13_linear)"/>
<path opacity="0.6" d="M127.236 114.27C127.789 114.27 128.237 113.822 128.237 113.27C128.237 112.717 127.789 112.269 127.236 112.269C126.683 112.269 126.235 112.717 126.235 113.27C126.235 113.822 126.683 114.27 127.236 114.27Z" fill="url(#paint14_linear)"/>
</g>
</g>
<path d="M81.4318 19.5085C80.0197 16.7399 75.7862 16.5141 74.3177 16.4361C70.8909 16.2544 66.1491 16.6726 60.2221 17.6779C35.0686 21.9435 15.0424 42.877 14.2021 43.7661C13.2415 44.7826 13.2868 46.3852 14.3033 47.3458L22.5509 55.2917C19.0183 59.1382 15.6586 63.7864 14.7794 68.2352C13.9736 72.312 15.5353 74.8344 16.9874 76.2323L47.7368 106.981C49.3341 107.404 50.9577 107.794 52.6074 108.146C57.4374 109.175 60.9133 113.404 60.9133 118.342V120.158L71.9021 131.147C72.2191 130.921 72.52 130.675 72.7944 130.4C74.0539 129.141 74.8336 127.399 74.8336 125.478V118.185C74.8336 115.703 76.8459 113.688 79.3306 113.688C80.5697 113.688 81.6939 114.191 82.5077 115.005C83.3215 115.822 83.8244 116.943 83.8244 118.185V120.199C83.8244 124.041 86.8592 127.294 90.7003 127.341C92.6556 127.364 94.4274 126.58 95.7056 125.302C96.965 124.043 97.7447 122.304 97.7447 120.379V116.919C97.7447 112.094 100.932 107.833 105.573 106.515C114.179 104.072 121.948 100.603 128.522 96.3417C129.05 95.9997 129.745 96.38 129.745 97.0088C129.745 100.851 132.861 103.967 136.707 103.967C138.628 103.967 140.367 103.187 141.626 101.928C142.885 100.669 143.665 98.93 143.665 97.0091V90.1279C143.665 87.6196 143.989 85.1246 144.643 82.7199L81.4318 19.5085ZM75.8809 72.2988C62.4165 72.3655 51.4694 65.3261 51.4262 56.5749C51.383 47.8238 62.2594 40.6764 75.7239 40.6096C89.1883 40.5429 100.135 47.5823 100.179 56.3335C100.222 65.0846 89.3453 72.2323 75.8809 72.2988Z" fill="url(#paint15_linear)"/>
<path d="M23.0649 78.4605C20.5664 78.4608 18.5258 77.7135 16.9876 76.2323C15.5355 74.8343 13.9737 72.3123 14.7796 68.2352C16.2087 61.0049 24.1879 53.2446 28.817 49.2626C36.5185 42.6373 46.0073 36.8343 54.8511 33.3417C69.4349 27.5817 74.924 23.5405 76.4046 21.8132C74.9755 21.4405 70.9996 20.9873 61.069 22.6711C37.5685 26.6561 18.0773 47.039 17.8835 47.2446C16.9229 48.2611 15.3205 48.3064 14.3037 47.3458C13.2873 46.3852 13.242 44.7826 14.2026 43.7661C15.0429 42.877 35.0687 21.9435 60.2226 17.6779C66.1496 16.6729 70.8914 16.2543 74.3182 16.4361C75.9105 16.5202 80.7558 16.7764 81.7282 20.2614C82.7252 23.8355 78.5499 27.0093 75.3229 29.0855C71.0673 31.8235 64.6317 34.9238 56.7117 38.052C48.3732 41.3452 39.4099 46.8308 32.1202 53.102C25.1893 59.064 20.5643 65.0888 19.7485 69.2173C19.3552 71.2073 19.9893 72.092 20.5008 72.584C21.9837 74.0111 25.512 73.5655 30.7046 71.2952C36.9685 68.5567 44.9102 63.4382 51.129 59.2849C52.2917 58.5079 53.8643 58.8214 54.6411 59.9843C55.4179 61.1473 55.1046 62.7199 53.9417 63.4964C47.549 67.7658 39.3611 73.0379 32.7329 75.9355C29.374 77.4041 26.5787 78.2143 24.1876 78.4126C23.8037 78.4446 23.4293 78.4605 23.0649 78.4605Z" fill="url(#paint16_linear)"/>
<path d="M150.802 61.3689C150.802 66.9701 149.371 72.3518 146.737 77.3689C144.678 81.2953 143.665 85.6912 143.665 90.1277V97.0086C143.665 97.7209 143.557 98.413 143.354 99.0612L100.165 55.8724C99.8042 48.465 91.6268 42.3774 80.833 40.9359C80.8533 40.1053 81.2754 39.2986 82.0351 38.8324C91.448 33.0253 100.368 28.1027 106.405 26.2727C114.282 23.8824 120.288 24.5845 124.255 28.3659L149.996 54.1503C150.526 56.5071 150.802 58.9145 150.802 61.3689Z" fill="url(#paint17_linear)"/>
<path d="M101.309 56.1458C100.39 56.1458 99.5041 55.6443 99.055 54.771C98.4153 53.5275 98.9053 52.0008 100.149 51.361C105.953 48.3763 121.371 40.4478 122.154 35.0231C122.244 34.396 122.198 33.4037 120.759 32.0322C115.857 27.3593 102.901 31.9122 84.6926 43.1419C83.5024 43.8758 81.9426 43.506 81.2082 42.3158C80.4744 41.1255 80.8438 39.5652 82.0344 38.831C91.4474 33.0258 100.366 28.1028 106.403 26.2713C114.282 23.881 120.288 24.5858 124.254 28.3669C127.143 31.1216 127.432 33.9005 127.166 35.7463C126.207 42.3949 116.598 48.5972 102.465 55.8652C102.094 56.0555 101.699 56.1458 101.309 56.1458Z" fill="url(#paint18_linear)"/>
<path d="M150.561 65.3136L141.364 56.116C140.932 55.6101 140.402 55.1227 139.77 54.6548C130.3 47.6351 111.559 60.2769 91.7183 73.661C86.8656 76.9345 82.1794 80.0948 77.783 82.8551C77.7606 82.8413 77.7385 82.8271 77.7159 82.8142C77.6956 82.7792 66.5841 71.6501 66.5621 71.616C66.4 71.3648 66.1994 71.1545 65.9753 70.9825C65.4077 70.8213 64.8488 70.6495 64.305 70.4616C63.8765 70.483 63.4477 70.6116 63.0615 70.861C55.9788 75.4307 46.8585 82.4566 49.4127 90.6736C50.05 92.7239 51.0688 94.0854 52.1474 94.9916L74.8597 117.704C75.0997 115.448 77.0083 113.687 79.3303 113.687C80.5694 113.687 81.6936 114.19 82.5074 115.004C83.3212 115.821 83.8241 116.942 83.8241 118.185V120.199C83.8241 124.04 86.8588 127.294 90.7 127.34C92.6553 127.364 94.4271 126.58 95.7053 125.302C96.9647 124.042 97.7444 122.303 97.7444 120.379V116.919C97.7444 112.094 100.931 107.832 105.573 106.515C114.178 104.072 121.947 100.602 128.522 96.3413C129.049 95.9992 129.745 96.3795 129.745 97.0083C129.745 100.85 132.861 103.967 136.707 103.967C138.628 103.967 140.366 103.187 141.626 101.928C142.885 100.668 143.665 98.9295 143.665 97.0086V90.1274C143.665 85.6913 144.677 81.2969 146.739 77.3686C148.747 73.5422 150.053 69.5016 150.561 65.3136Z" fill="url(#paint19_linear)"/>
<path d="M57.7863 96.8754C56.6233 96.8757 55.5463 96.7119 54.5601 96.3654C52.8298 95.7574 50.5327 94.2763 49.4127 90.6736C46.8583 82.4563 55.9789 75.4307 63.0616 70.861C64.2363 70.1027 65.8039 70.4407 66.5622 71.616C67.3204 72.7913 66.9825 74.3583 65.8072 75.1166C57.0042 80.7963 53.1154 85.5245 54.2489 89.1704C54.7801 90.8795 55.5916 91.3598 56.2395 91.5874C57.9075 92.1733 61.6239 91.9439 69.8548 87.5201C76.3419 84.0339 83.8107 78.9954 91.7186 73.661C111.559 60.2769 130.301 47.6351 139.771 54.6548C141.818 56.1724 142.818 57.8975 142.743 59.7819C142.59 63.5798 138.428 66.1766 131.532 70.4783C123.759 75.3274 113.113 81.9689 104.506 92.8886C103.64 93.9872 102.049 94.1757 100.95 93.3098C99.8519 92.4442 99.6633 90.8519 100.529 89.7536C109.682 78.1398 120.762 71.228 128.852 66.1816C132.418 63.9569 137.282 60.9224 137.67 59.6148C137.611 59.5074 137.402 59.203 136.755 58.7236C130.162 53.8369 110.417 67.1569 94.5507 77.8595C79.556 87.9745 66.361 96.8745 57.7863 96.8754Z" fill="url(#paint20_linear)"/>
</g>
<defs>
<linearGradient id="paint0_linear" x1="44.8308" y1="65.1781" x2="114.381" y2="90.4999" gradientUnits="userSpaceOnUse">
<stop stop-color="#FAA68E"/>
<stop offset="0.2061" stop-color="#FBA682"/>
<stop offset="0.5808" stop-color="#FDA861"/>
<stop offset="1" stop-color="#FFA936"/>
</linearGradient>
<linearGradient id="paint1_linear" x1="44.8308" y1="65.1781" x2="114.381" y2="90.4999" gradientUnits="userSpaceOnUse">
<stop stop-color="#FAA68E"/>
<stop offset="0.2061" stop-color="#FBA682"/>
<stop offset="0.5808" stop-color="#FDA861"/>
<stop offset="1" stop-color="#FFA936"/>
</linearGradient>
<linearGradient id="paint2_linear" x1="115.433" y1="106.445" x2="-14.6654" y2="115.223" gradientUnits="userSpaceOnUse">
<stop stop-color="#F82814" stop-opacity="0"/>
<stop offset="0.2454" stop-color="#F12817" stop-opacity="0.245"/>
<stop offset="0.6052" stop-color="#DD2820" stop-opacity="0.605"/>
<stop offset="1" stop-color="#C0272D"/>
</linearGradient>
<linearGradient id="paint3_linear" x1="119.445" y1="106.055" x2="42.0163" y2="111.457" gradientUnits="userSpaceOnUse">
<stop stop-color="#F82814" stop-opacity="0"/>
<stop offset="0.2454" stop-color="#F12817" stop-opacity="0.245"/>
<stop offset="0.6052" stop-color="#DD2820" stop-opacity="0.605"/>
<stop offset="1" stop-color="#C0272D"/>
</linearGradient>
<linearGradient id="paint4_linear" x1="164.466" y1="90.7702" x2="137.456" y2="73.0449" gradientUnits="userSpaceOnUse">
<stop stop-color="#F82814" stop-opacity="0"/>
<stop offset="0.2454" stop-color="#F12817" stop-opacity="0.245"/>
<stop offset="0.6052" stop-color="#DD2820" stop-opacity="0.605"/>
<stop offset="1" stop-color="#C0272D"/>
</linearGradient>
<radialGradient id="paint5_radial" cx="0" cy="0" r="1" gradientUnits="userSpaceOnUse" gradientTransform="translate(63.3102 42.7113) scale(100.275 69.19)">
<stop stop-color="#A57C52"/>
<stop offset="0.2601" stop-color="#A47950"/>
<stop offset="0.4581" stop-color="#A26F4C"/>
<stop offset="0.6356" stop-color="#9F5F44"/>
<stop offset="0.8011" stop-color="#9A4838"/>
<stop offset="0.9568" stop-color="#942B2A"/>
<stop offset="1" stop-color="#922125"/>
</radialGradient>
<linearGradient id="paint6_linear" x1="33.2905" y1="113.306" x2="31.1993" y2="99.9986" gradientUnits="userSpaceOnUse">
<stop stop-color="#F82814" stop-opacity="0"/>
<stop offset="0.2454" stop-color="#F12817" stop-opacity="0.245"/>
<stop offset="0.6052" stop-color="#DD2820" stop-opacity="0.605"/>
<stop offset="1" stop-color="#C0272D"/>
</linearGradient>
<linearGradient id="paint7_linear" x1="25.3515" y1="117.017" x2="23.701" y2="106.512" gradientUnits="userSpaceOnUse">
<stop stop-color="#F82814" stop-opacity="0"/>
<stop offset="0.2454" stop-color="#F12817" stop-opacity="0.245"/>
<stop offset="0.6052" stop-color="#DD2820" stop-opacity="0.605"/>
<stop offset="1" stop-color="#C0272D"/>
</linearGradient>
<linearGradient id="paint8_linear" x1="33.3491" y1="121.34" x2="32.3539" y2="115.007" gradientUnits="userSpaceOnUse">
<stop stop-color="#F82814" stop-opacity="0"/>
<stop offset="0.2454" stop-color="#F12817" stop-opacity="0.245"/>
<stop offset="0.6052" stop-color="#DD2820" stop-opacity="0.605"/>
<stop offset="1" stop-color="#C0272D"/>
</linearGradient>
<linearGradient id="paint9_linear" x1="43.9682" y1="119.433" x2="50.2643" y2="111.725" gradientUnits="userSpaceOnUse">
<stop stop-color="#F82814" stop-opacity="0"/>
<stop offset="0.2454" stop-color="#F12817" stop-opacity="0.245"/>
<stop offset="0.6052" stop-color="#DD2820" stop-opacity="0.605"/>
<stop offset="1" stop-color="#C0272D"/>
</linearGradient>
<linearGradient id="paint10_linear" x1="38.0133" y1="116.891" x2="42.9836" y2="110.806" gradientUnits="userSpaceOnUse">
<stop stop-color="#F82814" stop-opacity="0"/>
<stop offset="0.2454" stop-color="#F12817" stop-opacity="0.245"/>
<stop offset="0.6052" stop-color="#DD2820" stop-opacity="0.605"/>
<stop offset="1" stop-color="#C0272D"/>
</linearGradient>
<linearGradient id="paint11_linear" x1="39.5736" y1="123.424" x2="42.5702" y2="119.755" gradientUnits="userSpaceOnUse">
<stop stop-color="#F82814" stop-opacity="0"/>
<stop offset="0.2454" stop-color="#F12817" stop-opacity="0.245"/>
<stop offset="0.6052" stop-color="#DD2820" stop-opacity="0.605"/>
<stop offset="1" stop-color="#C0272D"/>
</linearGradient>
<linearGradient id="paint12_linear" x1="130.541" y1="110.141" x2="136.838" y2="102.433" gradientUnits="userSpaceOnUse">
<stop stop-color="#F82814" stop-opacity="0"/>
<stop offset="0.2454" stop-color="#F12817" stop-opacity="0.245"/>
<stop offset="0.6052" stop-color="#DD2820" stop-opacity="0.605"/>
<stop offset="1" stop-color="#C0272D"/>
</linearGradient>
<linearGradient id="paint13_linear" x1="124.586" y1="107.599" x2="129.557" y2="101.514" gradientUnits="userSpaceOnUse">
<stop stop-color="#F82814" stop-opacity="0"/>
<stop offset="0.2454" stop-color="#F12817" stop-opacity="0.245"/>
<stop offset="0.6052" stop-color="#DD2820" stop-opacity="0.605"/>
<stop offset="1" stop-color="#C0272D"/>
</linearGradient>
<linearGradient id="paint14_linear" x1="126.146" y1="114.132" x2="129.143" y2="110.463" gradientUnits="userSpaceOnUse">
<stop stop-color="#F82814" stop-opacity="0"/>
<stop offset="0.2454" stop-color="#F12817" stop-opacity="0.245"/>
<stop offset="0.6052" stop-color="#DD2820" stop-opacity="0.605"/>
<stop offset="1" stop-color="#C0272D"/>
</linearGradient>
<linearGradient id="paint15_linear" x1="73.968" y1="70.9358" x2="-9.93203" y2="-34.403" gradientUnits="userSpaceOnUse">
<stop stop-color="#42210B" stop-opacity="0"/>
<stop offset="1" stop-color="#42210B"/>
</linearGradient>
<linearGradient id="paint16_linear" x1="37.9137" y1="29.4711" x2="66.2743" y2="76.2885" gradientUnits="userSpaceOnUse">
<stop stop-color="#FFDECF"/>
<stop offset="0.3791" stop-color="#FDC4B0"/>
<stop offset="0.7655" stop-color="#FBAE97"/>
<stop offset="1" stop-color="#FAA68E"/>
</linearGradient>
<linearGradient id="paint17_linear" x1="134.292" y1="66.3983" x2="45.348" y2="-22.545" gradientUnits="userSpaceOnUse">
<stop stop-color="#42210B" stop-opacity="0"/>
<stop offset="1" stop-color="#42210B"/>
</linearGradient>
<linearGradient id="paint18_linear" x1="102.967" y1="35.5755" x2="123.702" y2="60.8178" gradientUnits="userSpaceOnUse">
<stop stop-color="#FFDECF"/>
<stop offset="0.3791" stop-color="#FDC4B0"/>
<stop offset="0.7655" stop-color="#FBAE97"/>
<stop offset="1" stop-color="#FAA68E"/>
</linearGradient>
<linearGradient id="paint19_linear" x1="114.062" y1="107.434" x2="64.4315" y2="4.12039" gradientUnits="userSpaceOnUse">
<stop stop-color="#42210B" stop-opacity="0"/>
<stop offset="1" stop-color="#42210B"/>
</linearGradient>
<linearGradient id="paint20_linear" x1="90.3616" y1="64.5354" x2="111.294" y2="101.899" gradientUnits="userSpaceOnUse">
<stop stop-color="#FFDECF"/>
<stop offset="0.3791" stop-color="#FDC4B0"/>
<stop offset="0.7655" stop-color="#FBAE97"/>
<stop offset="1" stop-color="#FAA68E"/>
</linearGradient>
<clipPath id="clip0">
<rect width="150" height="150" fill="white" transform="translate(0.802246 0.790039)"/>
</clipPath>
</defs>
</svg>
