<svg width="123" height="73" viewBox="0 0 123 73" fill="none" xmlns="http://www.w3.org/2000/svg">
<path fill-rule="evenodd" clip-rule="evenodd" d="M3.00184 20.0789C2.15084 20.0789 1.30484 19.7189 0.711845 19.0189C-0.360155 17.7549 -0.203155 15.8619 1.05984 14.7909L14.4368 3.45185C17.4338 0.909854 21.7848 0.909854 24.7828 3.45185L34.9258 12.0499C35.6748 12.6849 36.7618 12.6839 37.5118 12.0499L47.6528 3.45285C50.6528 0.910854 55.0038 0.911854 57.9998 3.45285L68.1388 12.0499C68.8888 12.6849 69.9768 12.6859 70.7258 12.0499L80.8658 3.45285C83.8628 0.910854 88.2148 0.910854 91.2128 3.45185L101.352 12.0499C102.102 12.6839 103.19 12.6839 103.94 12.0489L117.31 0.711854C118.574 -0.359146 120.468 -0.204146 121.538 1.05885C122.61 2.32285 122.454 4.21585 121.191 5.28785L107.82 16.6259C104.822 19.1669 100.47 19.1669 97.4718 16.6259L87.3328 8.02885C86.5818 7.39285 85.4948 7.39385 84.7458 8.02885L74.6068 16.6259C71.6088 19.1689 67.2578 19.1679 64.2588 16.6259L54.1198 8.02885C53.3708 7.39385 52.2828 7.39385 51.5328 8.02985L41.3918 16.6259C38.3958 19.1679 34.0438 19.1679 31.0468 16.6269L20.9028 8.02885C20.1528 7.39185 19.0648 7.39285 18.3168 8.02885L4.93985 19.3679C4.37584 19.8459 3.68684 20.0789 3.00184 20.0789Z" fill="#2F5163"/>
<path fill-rule="evenodd" clip-rule="evenodd" d="M3.00184 37.4872C2.15084 37.4872 1.30484 37.1272 0.711845 36.4272C-0.360155 35.1632 -0.203155 33.2702 1.05984 32.1982L14.4368 20.8602C17.4338 18.3182 21.7848 18.3182 24.7828 20.8602L34.9258 29.4582C35.6748 30.0932 36.7618 30.0922 37.5118 29.4582L47.6528 20.8612C50.6528 18.3182 55.0038 18.3202 57.9998 20.8612L68.1388 29.4582C68.8888 30.0932 69.9768 30.0922 70.7268 29.4572L80.8658 20.8612C83.8628 18.3192 88.2148 18.3192 91.2128 20.8602L101.352 29.4572C102.102 30.0922 103.19 30.0932 103.94 29.4572L117.31 18.1192C118.574 17.0492 120.468 17.2042 121.538 18.4672C122.61 19.7312 122.454 21.6242 121.191 22.6962L107.82 34.0332C104.821 36.5762 100.469 36.5752 97.4718 34.0332L87.3328 25.4372C86.5818 24.8012 85.4948 24.8022 84.7458 25.4372L74.6068 34.0342C71.6088 36.5762 67.2578 36.5752 64.2598 34.0342L54.1198 25.4372C53.3698 24.8022 52.2828 24.8022 51.5328 25.4372L41.3918 34.0342C38.3958 36.5752 34.0438 36.5752 31.0468 34.0352L20.9028 25.4372C20.1528 24.8002 19.0648 24.8012 18.3168 25.4372L4.93985 36.7762C4.37584 37.2542 3.68684 37.4872 3.00184 37.4872Z" fill="#2F5163"/>
<path fill-rule="evenodd" clip-rule="evenodd" d="M3.00184 54.8939C2.15084 54.8939 1.30484 54.5339 0.711845 53.8339C-0.360155 52.5699 -0.203155 50.6759 1.05984 49.6049L14.4368 38.2659C17.4338 35.7239 21.7848 35.7249 24.7828 38.2669L34.9258 46.8639C35.6748 47.4999 36.7618 47.4989 37.5118 46.8639L47.6528 38.2669C50.6528 35.7249 55.0038 35.7259 57.9998 38.2669L68.1388 46.8639C68.8888 47.4989 69.9768 47.4989 70.7268 46.8639L80.8658 38.2669C83.8628 35.7259 88.2148 35.7249 91.2128 38.2669L101.352 46.8639C102.102 47.4989 103.19 47.4999 103.939 46.8639L117.31 35.5259C118.574 34.4549 120.468 34.6109 121.538 35.8739C122.61 37.1369 122.454 39.0299 121.191 40.1019L107.82 51.4399C104.823 53.9829 100.471 53.9829 97.4718 51.4399L87.3328 42.8429C86.5818 42.2079 85.4948 42.2089 84.7458 42.8429L74.6068 51.4409C71.6088 53.9829 67.2578 53.9819 64.2598 51.4409L54.1198 42.8429C53.3708 42.2089 52.2828 42.2079 51.5328 42.8439L41.3918 51.4409C38.3948 53.9829 34.0438 53.9829 31.0458 51.4419L20.9028 42.8429C20.1528 42.2069 19.0648 42.2079 18.3168 42.8429L4.93985 54.1819C4.37584 54.6599 3.68684 54.8939 3.00184 54.8939Z" fill="#2F5163"/>
<path fill-rule="evenodd" clip-rule="evenodd" d="M3.00184 72.3015C2.15084 72.3015 1.30484 71.9425 0.711845 71.2415C-0.360155 69.9775 -0.203155 68.0845 1.05984 67.0135L14.4368 55.6745C17.4338 53.1325 21.7848 53.1335 24.7828 55.6755L34.9258 64.2725C35.6748 64.9085 36.7628 64.9075 37.5118 64.2725L47.6528 55.6755C50.6498 53.1335 55.0028 53.1335 57.9998 55.6755L68.1388 64.2725C68.8888 64.9075 69.9768 64.9065 70.7268 64.2725L80.8658 55.6765C83.8638 53.1345 88.2158 53.1345 91.2138 55.6765L101.352 64.2725C102.102 64.9065 103.19 64.9085 103.939 64.2725L117.31 52.9345C118.574 51.8635 120.468 52.0185 121.538 53.2815C122.61 54.5455 122.454 56.4385 121.191 57.5105L107.82 68.8485C104.823 71.3905 100.471 71.3915 97.4718 68.8485L87.3328 60.2525C86.5838 59.6165 85.4958 59.6155 84.7468 60.2525L74.6068 68.8485C71.6088 71.3905 67.2578 71.3905 64.2598 68.8495L54.1198 60.2515C53.3698 59.6165 52.2828 59.6165 51.5328 60.2525L41.3918 68.8495C38.3958 71.3895 34.0438 71.3915 31.0458 68.8495L20.9028 60.2515C20.1528 59.6145 19.0648 59.6155 18.3168 60.2515L4.93985 71.5905C4.37584 72.0685 3.68684 72.3015 3.00184 72.3015Z" fill="#2F5163"/>
<path fill-rule="evenodd" clip-rule="evenodd" d="M64.2589 16.6259C67.2579 19.1679 71.6089 19.1689 74.6069 16.6259L84.7459 8.02885C85.4949 7.39385 86.5819 7.39285 87.3329 8.02885L97.4719 16.6259C100.47 19.1669 104.822 19.1669 107.82 16.6259L121.191 5.28785C122.454 4.21585 122.61 2.32285 121.538 1.05885C120.468 -0.204146 118.574 -0.359146 117.31 0.711854L103.94 12.0489C103.19 12.6839 102.102 12.6839 101.352 12.0499L91.2129 3.45185C88.2149 0.910854 83.8629 0.910854 80.8659 3.45285L70.7259 12.0499C69.9769 12.6859 68.8889 12.6849 68.1389 12.0499L61.1249 6.10285V13.9689L64.2589 16.6259Z" fill="#1F3C49"/>
</svg>
