<svg width="151" height="151" viewBox="0 0 151 151" fill="none" xmlns="http://www.w3.org/2000/svg">
<g clip-path="url(#clip0)">
<path d="M31.668 100.356L41.4466 100.45C43.6454 100.471 45.4451 98.7054 45.466 96.5066L46.1222 8.37537C46.1504 5.41037 43.0439 3.45566 40.3833 4.76478L31.9404 8.91831C29.7433 9.99919 28.3424 12.2257 28.3192 14.6739L27.7248 96.3372C27.7039 98.5357 29.4692 100.335 31.668 100.356Z" fill="url(#paint0_linear)"/>
<path d="M45.6928 66.2124L45.4675 96.5077C45.4443 98.7062 43.6466 100.471 41.4481 100.451L31.6675 100.355C29.469 100.335 27.7043 98.5338 27.7243 96.3353L28.3202 14.6735C28.3366 12.7497 29.2075 10.9653 30.6411 9.77002L41.3719 63.0403C41.7793 65.0735 43.6731 66.4277 45.6928 66.2124Z" fill="url(#paint1_linear)"/>
<path d="M70.6667 100.356L60.8882 100.45C58.6894 100.471 56.8897 98.7054 56.8688 96.5066L56.2126 8.37537C56.1844 5.41037 59.2908 3.45566 61.9514 4.76478L70.3944 8.91831C72.5914 9.99919 73.9923 12.2257 74.0155 14.6739L74.6099 96.3372C74.6311 98.5357 72.8655 100.335 70.6667 100.356Z" fill="url(#paint2_linear)"/>
<path d="M104.649 96.383L94.8706 96.4766C92.6718 96.4975 90.8721 94.7322 90.8512 92.5333L90.195 4.40215C90.1668 1.43686 93.2732 -0.517554 95.9338 0.79127L104.377 4.9448C106.574 6.02568 107.975 8.25215 107.998 10.7004L108.592 92.3636C108.614 94.5624 106.848 96.3622 104.649 96.383Z" fill="url(#paint3_linear)"/>
<path d="M120.36 89.3758L110.629 90.3517C108.441 90.5711 106.49 88.9755 106.27 86.7872L99.4148 18.4446C99.1189 15.4943 102.036 13.2672 104.804 14.3305L113.588 17.7046C115.873 18.5825 117.47 20.6734 117.714 23.1096L123.924 85.0167C124.143 87.2046 122.547 89.1564 120.36 89.3758Z" fill="url(#paint4_linear)"/>
<path d="M60.5913 98.4591L50.861 99.435C48.6731 99.6544 46.7072 97.9167 46.4701 95.5535L39.0657 21.7376C38.746 18.5509 41.6481 16.1706 44.4266 17.3403L53.244 21.0517C55.5384 22.0176 57.1525 24.2867 57.4163 26.9182L64.1234 93.7826C64.3607 96.1459 62.7793 98.2394 60.5913 98.4591Z" fill="url(#paint5_linear)"/>
<path d="M114.153 98.7645L123.773 100.518C125.937 100.913 128.01 99.4786 128.405 97.3153L144.029 10.5777C144.56 7.66063 141.831 5.20651 138.987 6.04416L129.961 8.70239C127.612 9.39416 125.853 11.35 125.414 13.7589L110.95 94.1333C110.555 96.2968 111.989 98.37 114.153 98.7645Z" fill="url(#paint6_linear)"/>
<path d="M129.96 8.70241C127.611 9.39418 125.852 11.3501 125.413 13.7589L110.95 94.1333C110.555 96.2965 111.989 98.3701 114.152 98.7645L115.942 99.0907C116.473 98.4621 116.862 97.6674 117.026 96.7656L133.078 7.78418L129.96 8.70241Z" fill="url(#paint7_linear)"/>
<path d="M82.7356 102.268L92.475 101.374C94.665 101.173 96.2797 99.207 96.0818 96.9828L87.96 7.86107C87.693 4.86195 84.4074 3.20107 81.89 4.79283L73.9024 9.84371C71.8239 11.1581 70.6518 13.5493 70.8721 16.0258L78.4115 98.6058C78.6097 100.83 80.5456 102.469 82.7356 102.268Z" fill="url(#paint8_linear)"/>
<path d="M73.9024 9.84334C71.8239 11.1578 70.6518 13.5489 70.8721 16.0254L78.4115 98.6054C78.6094 100.83 80.5453 102.469 82.7353 102.268L84.5468 102.102C84.8906 101.343 85.053 100.459 84.9703 99.5322L76.6618 8.09863L73.9024 9.84334Z" fill="url(#paint9_linear)"/>
<path d="M127.733 62.685C127.517 62.3861 127.257 62.1085 126.944 61.8653L95.369 38.0867C88.8584 33.002 79.8581 36.3156 77.8763 44.3353L74.4316 55.0123L78.4116 98.6055C78.6096 100.83 80.5455 102.47 82.7355 102.268L92.4749 101.374C94.6649 101.173 96.2796 99.207 96.0816 96.9829L96.0346 96.4653L104.649 96.3829C106.848 96.362 108.614 94.5623 108.593 92.3635L108.575 90.007C109.197 90.2926 109.899 90.425 110.629 90.3517L111.648 90.2497L110.949 94.1335C110.555 96.2967 111.989 98.3703 114.152 98.7647L123.773 100.518C125.936 100.913 128.009 99.4788 128.404 97.3156L133.587 68.5391L127.733 62.685Z" fill="url(#paint10_linear)"/>
<path d="M63.0221 38.1075C62.1547 36.6504 45.3094 41.3548 44.8259 43.7551L33.418 100.372L41.4471 100.449C43.6459 100.47 45.4456 98.7048 45.4665 96.506L45.5424 86.3004L46.4706 95.5534C46.7077 97.9166 48.6736 99.6542 50.8615 99.4348L57.5959 98.7592C58.3241 99.7916 59.5294 100.462 60.8883 100.449L70.6668 100.356C72.8656 100.335 74.6312 98.5351 74.61 96.3363L78.4118 98.6051C78.6097 100.829 80.5456 102.469 82.7356 102.268L92.475 101.374C94.665 101.172 96.2797 99.2066 96.0818 96.9825L96.0347 96.4648L104.649 96.3825C106.848 96.3616 108.614 94.5619 108.593 92.3631L108.576 90.0066C109.197 90.2922 109.899 90.4245 110.629 90.3513L114.843 89.9287L63.0221 38.1075Z" fill="url(#paint11_linear)"/>
<path d="M126.944 61.8653L95.3689 37.2044C88.8583 32.1197 79.2698 35.4332 77.2881 43.4529L65.0483 92.985C64.5154 95.1206 65.8131 97.2794 67.9454 97.8124L77.4345 100.18C79.5669 100.713 81.7289 99.415 82.2619 97.2826L92.1684 57.2265L110.948 71.9006C112.882 73.4038 115.494 73.6918 117.706 72.6388L126.208 68.6062C128.887 67.335 129.285 63.6862 126.944 61.8653Z" fill="url(#paint12_linear)"/>
<path d="M92.1689 57.2265L82.2625 97.2827C81.7295 99.415 79.5675 100.713 77.4351 100.18L67.946 97.8124C65.8136 97.2794 64.5157 95.1206 65.0489 92.985L76.8425 45.2542L92.1689 57.2265Z" fill="url(#paint13_linear)"/>
<path d="M35.445 98.4388L25.8585 100.37C23.7029 100.805 21.6032 99.4091 21.1688 97.2535L7.60205 29.9211C7.01646 27.0144 9.6997 24.5103 12.5591 25.2953L21.6329 27.7861C23.9941 28.4344 25.7888 30.3573 26.2723 32.7576L38.5618 93.7497C38.9959 95.905 37.6006 98.0047 35.445 98.4388Z" fill="url(#paint14_linear)"/>
<path d="M35.445 98.4388L25.8585 100.37C23.7029 100.805 21.6032 99.4091 21.1688 97.2535L7.60205 29.9211C7.01646 27.0144 9.6997 24.5103 12.5591 25.2953L21.6329 27.7861C23.9941 28.4344 25.7888 30.3573 26.2723 32.7576L38.5618 93.7497C38.9959 95.905 37.6006 98.0047 35.445 98.4388Z" fill="url(#paint15_linear)"/>
<path d="M35.6528 109.437L45.2393 111.368C47.3949 111.803 49.4946 110.407 49.929 108.251L63.4961 40.9187C64.0817 38.0119 61.3984 35.5078 58.539 36.2928L49.4652 38.7837C47.104 39.4319 45.3093 41.3549 44.8258 43.7552L32.5364 104.747C32.1017 106.903 33.4972 109.003 35.6528 109.437Z" fill="url(#paint16_linear)"/>
<path d="M13.3091 58.2455L21.1691 97.2537C21.6035 99.4093 23.7029 100.805 25.8588 100.37L29.4406 99.6487C30.0735 100.088 30.84 100.348 31.6682 100.356L33.4179 100.373L32.5364 104.747C32.102 106.903 33.4976 109.003 35.6532 109.437L45.2397 111.368C47.3953 111.803 49.495 110.407 49.9294 108.251L51.7232 99.3481L57.5961 98.759C58.3244 99.7913 59.5297 100.462 60.8885 100.449L70.667 100.355C71.755 100.345 72.7359 99.8984 73.4476 99.1843L77.4353 100.179C77.94 100.305 78.4456 100.326 78.9317 100.26C79.6838 101.581 81.1409 102.414 82.7362 102.268L92.4756 101.373C94.6656 101.172 96.2803 99.2063 96.0823 96.9822L96.0353 96.4646L104.65 96.3822C106.849 96.3613 108.614 94.5616 108.593 92.3628L108.576 90.0063C109.198 90.2919 109.9 90.4243 110.63 90.351L111.649 90.249L110.95 94.1328C110.555 96.2961 111.989 98.3696 114.153 98.764L123.773 100.518C125.936 100.912 128.01 99.4781 128.404 97.3149L135.442 58.2449H13.3091V58.2455Z" fill="url(#paint17_linear)"/>
<path d="M131.272 76.8491C124.708 76.8491 118.286 78.5915 112.531 81.7485C103.442 86.735 90.0657 89.8862 75.1507 89.8862C60.2357 89.8862 46.8601 86.735 37.7704 81.7485C32.0157 78.5915 25.5931 76.8491 19.0293 76.8491C16.9551 76.8491 15.4281 78.79 15.9154 80.8059L30.4266 140.798C31.8684 146.759 37.414 150.805 43.5293 150.341C63.6746 148.812 86.6263 148.812 106.772 150.341C112.887 150.805 118.433 146.759 119.874 140.798L134.385 80.8059C134.873 78.7897 133.346 76.8491 131.272 76.8491Z" fill="url(#paint18_linear)"/>
<path d="M107.373 106.973C106.879 106.189 106.036 105.631 105.022 105.559C85.8901 104.201 64.4116 104.201 45.2795 105.559C43.4028 105.692 42.0989 107.484 42.5419 109.312C43.4207 112.94 44.806 118.66 45.8028 122.775C46.1325 124.135 46.8998 125.291 47.926 126.12L71.0195 149.213C83.1586 149.103 95.4116 149.479 106.772 150.341C112.887 150.805 118.433 146.759 119.875 140.797L124.028 123.627L107.373 106.973Z" fill="url(#paint19_linear)"/>
<path d="M42.5418 109.312C43.4206 112.94 44.8059 118.66 45.8027 122.775C46.5018 125.66 49.1538 127.641 52.1186 127.485C67.1233 126.691 83.178 126.691 98.1827 127.485C101.147 127.641 103.8 125.66 104.499 122.775C105.495 118.66 106.881 112.94 107.759 109.312C108.202 107.484 106.899 105.692 105.022 105.559C85.89 104.201 64.4112 104.201 45.2794 105.559C43.4027 105.692 42.0991 107.484 42.5418 109.312Z" fill="url(#paint20_linear)"/>
<path d="M27.7246 129.627L30.4264 140.798C31.8681 146.759 37.4137 150.805 43.529 150.341C63.6743 148.812 86.6261 148.812 106.771 150.341C112.887 150.805 118.432 146.759 119.874 140.798L122.576 129.627H27.7246Z" fill="url(#paint21_linear)"/>
</g>
<defs>
<linearGradient id="paint0_linear" x1="27.8533" y1="48.4689" x2="60.301" y2="62.3748" gradientUnits="userSpaceOnUse">
<stop stop-color="#FFD945"/>
<stop offset="0.3043" stop-color="#FFCD3E"/>
<stop offset="0.8558" stop-color="#FFAD2B"/>
<stop offset="1" stop-color="#FFA325"/>
</linearGradient>
<linearGradient id="paint1_linear" x1="38.3652" y1="54.5247" x2="19.3822" y2="60.043" gradientUnits="userSpaceOnUse">
<stop stop-color="#F82814" stop-opacity="0"/>
<stop offset="1" stop-color="#C0272D"/>
</linearGradient>
<linearGradient id="paint2_linear" x1="88.0932" y1="30.618" x2="72.2005" y2="45.8486" gradientUnits="userSpaceOnUse">
<stop stop-color="#FFD945"/>
<stop offset="0.3043" stop-color="#FFCD3E"/>
<stop offset="0.8558" stop-color="#FFAD2B"/>
<stop offset="1" stop-color="#FFA325"/>
</linearGradient>
<linearGradient id="paint3_linear" x1="87.7409" y1="47.1819" x2="100.323" y2="49.4998" gradientUnits="userSpaceOnUse">
<stop stop-color="#FFD945"/>
<stop offset="0.3043" stop-color="#FFCD3E"/>
<stop offset="0.8558" stop-color="#FFAD2B"/>
<stop offset="1" stop-color="#FFA325"/>
</linearGradient>
<linearGradient id="paint4_linear" x1="104.622" y1="52.0831" x2="115.438" y2="52.7455" gradientUnits="userSpaceOnUse">
<stop stop-color="#FFD945"/>
<stop offset="0.3043" stop-color="#FFCD3E"/>
<stop offset="0.8558" stop-color="#FFAD2B"/>
<stop offset="1" stop-color="#FFA325"/>
</linearGradient>
<linearGradient id="paint5_linear" x1="61.3985" y1="53.0832" x2="41.8671" y2="61.3232" gradientUnits="userSpaceOnUse">
<stop stop-color="#FFD945"/>
<stop offset="0.3043" stop-color="#FFCD3E"/>
<stop offset="0.8558" stop-color="#FFAD2B"/>
<stop offset="1" stop-color="#FFA325"/>
</linearGradient>
<linearGradient id="paint6_linear" x1="114.783" y1="44.0677" x2="144.412" y2="63.2953" gradientUnits="userSpaceOnUse">
<stop stop-color="#FFD945"/>
<stop offset="0.3043" stop-color="#FFCD3E"/>
<stop offset="0.8558" stop-color="#FFAD2B"/>
<stop offset="1" stop-color="#FFA325"/>
</linearGradient>
<linearGradient id="paint7_linear" x1="117.148" y1="36.1136" x2="144.739" y2="124.627" gradientUnits="userSpaceOnUse">
<stop stop-color="#F82814" stop-opacity="0"/>
<stop offset="1" stop-color="#C0272D"/>
</linearGradient>
<linearGradient id="paint8_linear" x1="73.732" y1="50.2246" x2="107.678" y2="60.9011" gradientUnits="userSpaceOnUse">
<stop stop-color="#FFD945"/>
<stop offset="0.3043" stop-color="#FFCD3E"/>
<stop offset="0.8558" stop-color="#FFAD2B"/>
<stop offset="1" stop-color="#FFA325"/>
</linearGradient>
<linearGradient id="paint9_linear" x1="57.2057" y1="22.2964" x2="108.162" y2="101.382" gradientUnits="userSpaceOnUse">
<stop stop-color="#F82814" stop-opacity="0"/>
<stop offset="1" stop-color="#C0272D"/>
</linearGradient>
<linearGradient id="paint10_linear" x1="110.844" y1="97.8697" x2="85.7752" y2="24.8429" gradientUnits="userSpaceOnUse">
<stop stop-color="#F82814" stop-opacity="0"/>
<stop offset="1" stop-color="#C0272D"/>
</linearGradient>
<linearGradient id="paint11_linear" x1="74.6639" y1="80.4698" x2="13.6109" y2="54.4619" gradientUnits="userSpaceOnUse">
<stop stop-color="#F82814" stop-opacity="0"/>
<stop offset="1" stop-color="#C0272D"/>
</linearGradient>
<linearGradient id="paint12_linear" x1="83.3028" y1="68.0309" x2="120.552" y2="83.9947" gradientUnits="userSpaceOnUse">
<stop stop-color="#FFD945"/>
<stop offset="0.3043" stop-color="#FFCD3E"/>
<stop offset="0.8558" stop-color="#FFAD2B"/>
<stop offset="1" stop-color="#FFA325"/>
</linearGradient>
<linearGradient id="paint13_linear" x1="78.9001" y1="73.1315" x2="107.043" y2="79.7536" gradientUnits="userSpaceOnUse">
<stop stop-color="#F82814" stop-opacity="0"/>
<stop offset="1" stop-color="#C0272D"/>
</linearGradient>
<linearGradient id="paint14_linear" x1="10.0177" y1="59.8636" x2="43.993" y2="70.8985" gradientUnits="userSpaceOnUse">
<stop stop-color="#FFD945"/>
<stop offset="0.3043" stop-color="#FFCD3E"/>
<stop offset="0.8558" stop-color="#FFAD2B"/>
<stop offset="1" stop-color="#FFA325"/>
</linearGradient>
<linearGradient id="paint15_linear" x1="10.0177" y1="59.8636" x2="43.993" y2="70.8985" gradientUnits="userSpaceOnUse">
<stop stop-color="#FFD945"/>
<stop offset="0.3043" stop-color="#FFCD3E"/>
<stop offset="0.8558" stop-color="#FFAD2B"/>
<stop offset="1" stop-color="#FFA325"/>
</linearGradient>
<linearGradient id="paint16_linear" x1="37.0987" y1="67.6511" x2="56.6334" y2="76.9217" gradientUnits="userSpaceOnUse">
<stop stop-color="#FFD945"/>
<stop offset="0.3043" stop-color="#FFCD3E"/>
<stop offset="0.8558" stop-color="#FFAD2B"/>
<stop offset="1" stop-color="#FFA325"/>
</linearGradient>
<linearGradient id="paint17_linear" x1="74.3753" y1="67.0502" x2="74.3753" y2="104.47" gradientUnits="userSpaceOnUse">
<stop stop-color="#F82814" stop-opacity="0"/>
<stop offset="0.2662" stop-color="#EE2818" stop-opacity="0.266"/>
<stop offset="0.7123" stop-color="#D42724" stop-opacity="0.712"/>
<stop offset="1" stop-color="#C0272D"/>
</linearGradient>
<linearGradient id="paint18_linear" x1="38.0246" y1="93.23" x2="130.732" y2="132.631" gradientUnits="userSpaceOnUse">
<stop stop-color="#FF6359"/>
<stop offset="0.2243" stop-color="#FE5B50"/>
<stop offset="0.5952" stop-color="#FC4637"/>
<stop offset="1" stop-color="#F82814"/>
</linearGradient>
<linearGradient id="paint19_linear" x1="92.5245" y1="156.833" x2="79.9431" y2="101.871" gradientUnits="userSpaceOnUse">
<stop stop-color="#F82814" stop-opacity="0"/>
<stop offset="1" stop-color="#C0272D"/>
</linearGradient>
<linearGradient id="paint20_linear" x1="71.6739" y1="103.657" x2="85.0827" y2="134.448" gradientUnits="userSpaceOnUse">
<stop stop-color="#FFD945"/>
<stop offset="0.3043" stop-color="#FFCD3E"/>
<stop offset="0.8558" stop-color="#FFAD2B"/>
<stop offset="1" stop-color="#FFA325"/>
</linearGradient>
<linearGradient id="paint21_linear" x1="75.1505" y1="136.911" x2="75.1505" y2="156.254" gradientUnits="userSpaceOnUse">
<stop stop-color="#F82814" stop-opacity="0"/>
<stop offset="1" stop-color="#C0272D"/>
</linearGradient>
<clipPath id="clip0">
<rect width="150" height="150" fill="white" transform="translate(0.807617 0.376953)"/>
</clipPath>
</defs>
</svg>
