<svg width="151" height="151" viewBox="0 0 151 151" fill="none" xmlns="http://www.w3.org/2000/svg">
<g clip-path="url(#clip0)">
<path d="M145.847 44.2693C151.83 38.2237 152.01 28.4022 146.238 22.1546C142.853 18.4916 138.2 16.7822 133.627 17.0205C133.865 12.4458 132.153 7.7887 128.487 4.40428C122.238 -1.36454 112.419 -1.18101 106.375 4.80281C101.605 9.52605 100.43 16.4969 102.85 22.3272C104.368 25.9855 103.631 30.1881 100.83 32.9887L90.1113 43.7072L106.938 60.5343L117.657 49.8158C120.458 47.0152 124.66 46.2772 128.318 47.7958C134.15 50.2175 141.123 49.0416 145.847 44.2693Z" fill="url(#paint0_linear)"/>
<path d="M106.318 27.5025C109.657 30.8416 114.108 32.3972 118.479 32.1675C118.676 28.3539 120.231 24.5998 123.144 21.6872C126.057 18.7745 129.812 17.2175 133.626 17.0204C133.856 12.6492 132.3 8.19894 128.961 4.85983C122.707 -1.3937 112.57 -1.3937 106.317 4.85983C100.065 11.1116 100.065 21.2489 106.318 27.5025Z" fill="url(#paint1_linear)"/>
<path d="M106.939 60.5345L113.851 53.6222L105.016 44.7872C104.04 43.6539 102.501 43.0742 100.934 43.4507C99.9799 43.6801 99.0025 43.5069 98.2049 43.0175L98.1857 42.9984C98.1163 42.9289 96.8075 41.6201 96.8075 41.6201C95.981 40.7936 94.9802 40.2201 93.9113 39.9075L90.1113 43.7075L106.939 60.5345Z" fill="url(#paint2_linear)"/>
<path d="M13.7272 70.6563L13.6987 70.838C13.2078 73.9627 11.3778 76.718 8.68809 78.3825L8.60191 78.4357C4.55985 80.9369 2.61573 85.7775 3.80456 90.3795L3.8525 90.5651C4.62926 93.5722 4.08103 96.768 2.34632 99.3442L2.32779 99.3719C-0.371031 103.38 -0.0960314 108.689 3.0025 112.396L3.3525 112.815C5.21309 115.041 6.02103 117.963 5.56867 120.829V120.829C4.81279 125.616 7.46662 130.29 11.9649 132.094L12.3604 132.253C15.111 133.356 17.291 135.536 18.3937 138.287L18.4172 138.346C20.2563 142.934 24.9575 145.654 29.8657 145.072C32.8316 144.72 35.8119 145.607 38.1046 147.523L38.2496 147.644C41.9557 150.742 47.2634 151.018 51.2704 148.321L51.304 148.298C53.8793 146.565 57.0737 146.017 60.0793 146.794L60.2646 146.842C64.8672 148.031 69.7078 146.087 72.2096 142.045L72.2631 141.958C73.9278 139.268 76.6831 137.439 79.8078 136.947L79.9896 136.919C84.6437 136.187 88.2946 132.537 89.0263 127.882L89.0549 127.701C89.5463 124.576 91.376 121.82 94.0657 120.155L94.154 120.101C98.1952 117.599 100.138 112.759 98.9493 108.157L98.9013 107.972C98.1246 104.965 98.6725 101.77 100.407 99.1945L100.427 99.1648C101.732 97.226 101.427 93.8722 100.732 90.8719C99.9993 87.7136 101.514 84.5598 104.3 82.9016C104.33 82.8839 104.356 82.8672 104.378 82.8507C105.777 81.7969 106.648 80.1177 106.523 78.2822C106.448 77.1933 106.921 76.1378 107.739 75.4154L111.305 72.2675C112.805 70.9427 113.009 68.6104 111.646 67.1442C110.682 66.1063 110.415 64.6016 110.962 63.2972L112.705 59.1345C113.888 56.3095 111.812 53.191 108.75 53.191C107.814 53.191 107.012 52.5207 106.846 51.5992L105.985 46.8213C105.558 44.4522 103.274 42.8883 100.933 43.4507C99.4131 43.816 97.8331 43.1607 97.0172 41.8304L96.8069 41.6201C94.696 39.5092 91.4549 39.023 88.8178 40.4219C87.7834 40.9704 86.5119 40.7798 85.684 39.9519C83.7175 37.9854 80.7478 38.2001 79.0843 40.4286L77.3654 42.7316C76.7554 43.5489 75.8275 44.0698 74.8119 44.1648L72.0678 44.4216C70.3716 44.5801 68.811 45.2875 67.5919 46.3892C67.5834 46.3969 67.5749 46.4048 67.566 46.413C65.5057 48.3551 62.6487 49.2322 59.8837 48.6227C57.0501 47.998 54.0066 48.5177 51.4804 50.2192L51.4528 50.2377C48.8778 51.9727 45.6825 52.5213 42.6763 51.7445L42.489 51.696C37.8866 50.5069 33.046 52.451 30.5443 56.493L30.4904 56.5798C28.826 59.2692 26.071 61.0989 22.9466 61.5901L22.764 61.6189C18.1096 62.3507 14.4587 66.0019 13.7272 70.6563Z" fill="url(#paint3_radial)"/>
<path d="M112.706 59.1346C113.889 56.3096 111.814 53.191 108.751 53.191C107.815 53.191 107.013 52.5207 106.847 51.5993L105.986 46.8213C105.559 44.4522 103.275 42.8884 100.934 43.4508C100.714 43.5037 100.492 43.5328 100.271 43.544L99.5023 45.3799C98.9561 46.6843 99.2225 48.189 100.187 49.2269C101.55 50.6931 101.346 53.0255 99.8455 54.3502L96.2796 57.4981C95.4614 58.2205 94.989 59.276 95.0634 60.3649C95.189 62.2008 94.3172 63.8796 92.9181 64.9334C92.8964 64.9499 92.8705 64.9669 92.8411 64.9846C90.0552 66.6428 88.5402 69.7966 89.2722 72.9549C89.9678 75.9552 90.2731 79.309 88.9675 81.2478L88.9475 81.2775C87.2131 83.8531 86.6649 87.0484 87.442 90.0546L87.4899 90.2405C88.679 94.8419 86.7358 99.6819 82.6946 102.184L82.6064 102.238C79.9167 103.903 78.087 106.659 77.5955 109.784L77.5669 109.966C76.8352 114.62 73.1846 118.27 68.5302 119.002L68.3484 119.031C65.2234 119.522 62.4684 121.352 60.8037 124.041L60.7502 124.128C58.2484 128.17 53.4075 130.114 48.8052 128.925L48.6199 128.877C45.6143 128.1 42.4199 128.648 39.8446 130.381L39.8111 130.404C35.8037 133.101 30.4961 132.825 26.7902 129.727L26.6452 129.606C24.3525 127.69 21.3722 126.804 18.4064 127.155C13.4981 127.738 8.79695 125.017 6.95783 120.43L6.93401 120.37C6.59106 119.515 6.14401 118.715 5.60812 117.986C5.72783 118.922 5.71959 119.878 5.5693 120.829V120.83C4.81342 125.617 7.46724 130.291 11.9655 132.095L12.3611 132.254C15.1117 133.357 17.2917 135.537 18.3943 138.288L18.4181 138.347C20.2572 142.935 24.9584 145.655 29.8667 145.073C32.8325 144.721 35.8128 145.607 38.1055 147.523L38.2505 147.645C41.9567 150.743 47.2643 151.018 51.2714 148.321L51.3049 148.299C53.8802 146.565 57.0746 146.018 60.0802 146.794L60.2655 146.842C64.8678 148.031 69.7087 146.088 72.2105 142.045L72.264 141.959C73.9287 139.269 76.684 137.439 79.8087 136.948L79.9905 136.92C84.6446 136.188 88.2955 132.538 89.0272 127.883L89.0558 127.701C89.5472 124.576 91.377 121.821 94.0667 120.156L94.1549 120.101C98.1961 117.6 100.139 112.76 98.9502 108.158L98.9022 107.972C98.1255 104.966 98.6734 101.771 100.408 99.1952L100.428 99.1655C101.733 97.2266 101.428 93.8728 100.733 90.8725C100 87.7143 101.515 84.5605 104.301 82.9022C104.331 82.8846 104.357 82.8675 104.378 82.851C105.778 81.7972 106.649 80.1181 106.524 78.2825C106.449 77.1937 106.921 76.1381 107.74 75.4158L111.306 72.2678C112.806 70.9431 113.01 68.6107 111.647 67.1446C110.683 66.1066 110.416 64.6022 110.963 63.2975L112.706 59.1346Z" fill="url(#paint4_linear)"/>
<g opacity="0.6">
<g opacity="0.6">
<path opacity="0.6" d="M23.6738 114.232C25.452 114.232 26.8935 112.79 26.8935 111.012C26.8935 109.234 25.452 107.792 23.6738 107.792C21.8956 107.792 20.4541 109.234 20.4541 111.012C20.4541 112.79 21.8956 114.232 23.6738 114.232Z" fill="url(#paint5_linear)"/>
<path opacity="0.6" d="M14.8543 118.777C16.258 118.777 17.396 117.639 17.396 116.235C17.396 114.831 16.258 113.693 14.8543 113.693C13.4505 113.693 12.3125 114.831 12.3125 116.235C12.3125 117.639 13.4505 118.777 14.8543 118.777Z" fill="url(#paint6_linear)"/>
<path opacity="0.6" d="M24.1427 124.172C24.989 124.172 25.6751 123.486 25.6751 122.639C25.6751 121.793 24.989 121.107 24.1427 121.107C23.2964 121.107 22.6104 121.793 22.6104 122.639C22.6104 123.486 23.2964 124.172 24.1427 124.172Z" fill="url(#paint7_linear)"/>
</g>
<g opacity="0.6">
<path opacity="0.6" d="M38.2883 122.453C39.6023 122.453 40.6674 121.388 40.6674 120.074C40.6674 118.76 39.6023 117.695 38.2883 117.695C36.9743 117.695 35.9092 118.76 35.9092 120.074C35.9092 121.388 36.9743 122.453 38.2883 122.453Z" fill="url(#paint8_linear)"/>
<path opacity="0.6" d="M31.0667 119.668C32.104 119.668 32.9449 118.827 32.9449 117.79C32.9449 116.753 32.104 115.912 31.0667 115.912C30.0294 115.912 29.1885 116.753 29.1885 117.79C29.1885 118.827 30.0294 119.668 31.0667 119.668Z" fill="url(#paint9_linear)"/>
<path opacity="0.6" d="M32.1158 127.193C32.7411 127.193 33.2481 126.686 33.2481 126.06C33.2481 125.435 32.7411 124.928 32.1158 124.928C31.4904 124.928 30.9834 125.435 30.9834 126.06C30.9834 126.686 31.4904 127.193 32.1158 127.193Z" fill="url(#paint10_linear)"/>
</g>
<g opacity="0.6">
<path opacity="0.6" d="M89.4094 55.5346C90.7233 55.5346 91.7885 54.4694 91.7885 53.1555C91.7885 51.8415 90.7233 50.7764 89.4094 50.7764C88.0954 50.7764 87.0303 51.8415 87.0303 53.1555C87.0303 54.4694 88.0954 55.5346 89.4094 55.5346Z" fill="url(#paint11_linear)"/>
<path opacity="0.6" d="M82.1878 52.7496C83.2251 52.7496 84.066 51.9087 84.066 50.8714C84.066 49.8341 83.2251 48.9932 82.1878 48.9932C81.1505 48.9932 80.3096 49.8341 80.3096 50.8714C80.3096 51.9087 81.1505 52.7496 82.1878 52.7496Z" fill="url(#paint12_linear)"/>
<path opacity="0.6" d="M83.2368 60.2747C83.8622 60.2747 84.3692 59.7677 84.3692 59.1424C84.3692 58.517 83.8622 58.01 83.2368 58.01C82.6115 58.01 82.1045 58.517 82.1045 59.1424C82.1045 59.7677 82.6115 60.2747 83.2368 60.2747Z" fill="url(#paint13_linear)"/>
</g>
</g>
<path d="M109.768 85.1704C112.337 85.1704 112.337 94.4725 109.768 94.4725C107.2 94.4725 105.117 92.3901 105.117 89.8213C105.117 87.2525 107.2 85.1704 109.768 85.1704Z" fill="url(#paint14_linear)"/>
<path d="M1.02539 59.3065C1.02539 56.7377 10.3274 56.7377 10.3274 59.3065C10.3274 61.8753 8.2451 63.9577 5.67627 63.9577C3.10745 63.9577 1.02539 61.875 1.02539 59.3065Z" fill="url(#paint15_linear)"/>
<path d="M115.527 85.1263C116.753 85.1263 117.746 84.1327 117.746 82.9069C117.746 81.6812 116.753 80.6875 115.527 80.6875C114.301 80.6875 113.308 81.6812 113.308 82.9069C113.308 84.1327 114.301 85.1263 115.527 85.1263Z" fill="url(#paint16_linear)"/>
<path d="M2.69597 131.826C3.92172 131.826 4.91539 130.833 4.91539 129.607C4.91539 128.381 3.92172 127.388 2.69597 127.388C1.47023 127.388 0.476562 128.381 0.476562 129.607C0.476562 130.833 1.47023 131.826 2.69597 131.826Z" fill="url(#paint17_linear)"/>
<path d="M114.418 105.451C116.256 105.451 117.747 103.961 117.747 102.122C117.747 100.284 116.256 98.7933 114.418 98.7933C112.579 98.7933 111.089 100.284 111.089 102.122C111.089 103.961 112.579 105.451 114.418 105.451Z" fill="url(#paint18_linear)"/>
<path d="M5.44015 76.2143C7.27861 76.2143 8.76898 74.7239 8.76898 72.8855C8.76898 71.047 7.27861 69.5566 5.44015 69.5566C3.60169 69.5566 2.11133 71.047 2.11133 72.8855C2.11133 74.7239 3.60169 76.2143 5.44015 76.2143Z" fill="url(#paint19_linear)"/>
</g>
<defs>
<linearGradient id="paint0_linear" x1="110.157" y1="29.9891" x2="136.698" y2="34.3201" gradientUnits="userSpaceOnUse">
<stop stop-color="#F8F6FB"/>
<stop offset="1" stop-color="#EFDCFB"/>
</linearGradient>
<linearGradient id="paint1_linear" x1="115.765" y1="16.5445" x2="165.203" y2="0.7942" gradientUnits="userSpaceOnUse">
<stop stop-color="#EFDCFB" stop-opacity="0"/>
<stop offset="0.4856" stop-color="#BAAAD6" stop-opacity="0.486"/>
<stop offset="1" stop-color="#8679B2"/>
</linearGradient>
<linearGradient id="paint2_linear" x1="118.617" y1="65.2919" x2="93.441" y2="40.116" gradientUnits="userSpaceOnUse">
<stop stop-color="#EFDCFB" stop-opacity="0"/>
<stop offset="0.4856" stop-color="#BAAAD6" stop-opacity="0.486"/>
<stop offset="1" stop-color="#8679B2"/>
</linearGradient>
<radialGradient id="paint3_radial" cx="0" cy="0" r="1" gradientUnits="userSpaceOnUse" gradientTransform="translate(12.4828 47.3798) rotate(-45) scale(99.6153)">
<stop stop-color="#FFD945"/>
<stop offset="0.3111" stop-color="#FFD643"/>
<stop offset="0.5584" stop-color="#FFCC3D"/>
<stop offset="0.7831" stop-color="#FFBB33"/>
<stop offset="0.9944" stop-color="#FFA425"/>
<stop offset="1" stop-color="#FFA325"/>
</radialGradient>
<linearGradient id="paint4_linear" x1="66.9572" y1="95.0075" x2="251.291" y2="147.58" gradientUnits="userSpaceOnUse">
<stop stop-color="#F82814" stop-opacity="0"/>
<stop offset="1" stop-color="#C0272D"/>
</linearGradient>
<linearGradient id="paint5_linear" x1="24.055" y1="115.933" x2="21.6893" y2="100.879" gradientUnits="userSpaceOnUse">
<stop stop-color="#F82814" stop-opacity="0"/>
<stop offset="0.2454" stop-color="#F12817" stop-opacity="0.245"/>
<stop offset="0.6052" stop-color="#DD2820" stop-opacity="0.605"/>
<stop offset="1" stop-color="#C0272D"/>
</linearGradient>
<linearGradient id="paint6_linear" x1="15.0728" y1="120.131" x2="13.2052" y2="108.247" gradientUnits="userSpaceOnUse">
<stop stop-color="#F82814" stop-opacity="0"/>
<stop offset="0.2454" stop-color="#F12817" stop-opacity="0.245"/>
<stop offset="0.6052" stop-color="#DD2820" stop-opacity="0.605"/>
<stop offset="1" stop-color="#C0272D"/>
</linearGradient>
<linearGradient id="paint7_linear" x1="24.1197" y1="125.022" x2="22.9936" y2="117.857" gradientUnits="userSpaceOnUse">
<stop stop-color="#F82814" stop-opacity="0"/>
<stop offset="0.2454" stop-color="#F12817" stop-opacity="0.245"/>
<stop offset="0.6052" stop-color="#DD2820" stop-opacity="0.605"/>
<stop offset="1" stop-color="#C0272D"/>
</linearGradient>
<linearGradient id="paint8_linear" x1="35.8089" y1="122.736" x2="42.9314" y2="114.016" gradientUnits="userSpaceOnUse">
<stop stop-color="#F82814" stop-opacity="0"/>
<stop offset="0.2454" stop-color="#F12817" stop-opacity="0.245"/>
<stop offset="0.6052" stop-color="#DD2820" stop-opacity="0.605"/>
<stop offset="1" stop-color="#C0272D"/>
</linearGradient>
<linearGradient id="paint9_linear" x1="29.0713" y1="119.86" x2="34.6942" y2="112.976" gradientUnits="userSpaceOnUse">
<stop stop-color="#F82814" stop-opacity="0"/>
<stop offset="0.2454" stop-color="#F12817" stop-opacity="0.245"/>
<stop offset="0.6052" stop-color="#DD2820" stop-opacity="0.605"/>
<stop offset="1" stop-color="#C0272D"/>
</linearGradient>
<linearGradient id="paint10_linear" x1="30.8363" y1="127.251" x2="34.2261" y2="123.101" gradientUnits="userSpaceOnUse">
<stop stop-color="#F82814" stop-opacity="0"/>
<stop offset="0.2454" stop-color="#F12817" stop-opacity="0.245"/>
<stop offset="0.6052" stop-color="#DD2820" stop-opacity="0.605"/>
<stop offset="1" stop-color="#C0272D"/>
</linearGradient>
<linearGradient id="paint11_linear" x1="86.9409" y1="55.8413" x2="94.0637" y2="47.1213" gradientUnits="userSpaceOnUse">
<stop stop-color="#F82814" stop-opacity="0"/>
<stop offset="0.2454" stop-color="#F12817" stop-opacity="0.245"/>
<stop offset="0.6052" stop-color="#DD2820" stop-opacity="0.605"/>
<stop offset="1" stop-color="#C0272D"/>
</linearGradient>
<linearGradient id="paint12_linear" x1="80.2033" y1="52.965" x2="85.8264" y2="46.0811" gradientUnits="userSpaceOnUse">
<stop stop-color="#F82814" stop-opacity="0"/>
<stop offset="0.2454" stop-color="#F12817" stop-opacity="0.245"/>
<stop offset="0.6052" stop-color="#DD2820" stop-opacity="0.605"/>
<stop offset="1" stop-color="#C0272D"/>
</linearGradient>
<linearGradient id="paint13_linear" x1="81.9683" y1="60.3556" x2="85.3583" y2="56.2055" gradientUnits="userSpaceOnUse">
<stop stop-color="#F82814" stop-opacity="0"/>
<stop offset="0.2454" stop-color="#F12817" stop-opacity="0.245"/>
<stop offset="0.6052" stop-color="#DD2820" stop-opacity="0.605"/>
<stop offset="1" stop-color="#C0272D"/>
</linearGradient>
<linearGradient id="paint14_linear" x1="104.334" y1="92.5619" x2="111.828" y2="88.4275" gradientUnits="userSpaceOnUse">
<stop stop-color="#FFD945"/>
<stop offset="0.3043" stop-color="#FFCD3E"/>
<stop offset="0.8558" stop-color="#FFAD2B"/>
<stop offset="1" stop-color="#FFA325"/>
</linearGradient>
<linearGradient id="paint15_linear" x1="8.41716" y1="64.7406" x2="4.28274" y2="57.2471" gradientUnits="userSpaceOnUse">
<stop stop-color="#FFD945"/>
<stop offset="0.3043" stop-color="#FFCD3E"/>
<stop offset="0.8558" stop-color="#FFAD2B"/>
<stop offset="1" stop-color="#FFA325"/>
</linearGradient>
<linearGradient id="paint16_linear" x1="114.046" y1="80.2237" x2="116.49" y2="84.6519" gradientUnits="userSpaceOnUse">
<stop stop-color="#FFD945"/>
<stop offset="0.3043" stop-color="#FFCD3E"/>
<stop offset="0.8558" stop-color="#FFAD2B"/>
<stop offset="1" stop-color="#FFA325"/>
</linearGradient>
<linearGradient id="paint17_linear" x1="1.21539" y1="126.923" x2="3.65862" y2="131.352" gradientUnits="userSpaceOnUse">
<stop stop-color="#FFD945"/>
<stop offset="0.3043" stop-color="#FFCD3E"/>
<stop offset="0.8558" stop-color="#FFAD2B"/>
<stop offset="1" stop-color="#FFA325"/>
</linearGradient>
<linearGradient id="paint18_linear" x1="112.197" y1="98.0969" x2="115.862" y2="104.739" gradientUnits="userSpaceOnUse">
<stop stop-color="#FFD945"/>
<stop offset="0.3043" stop-color="#FFCD3E"/>
<stop offset="0.8558" stop-color="#FFAD2B"/>
<stop offset="1" stop-color="#FFA325"/>
</linearGradient>
<linearGradient id="paint19_linear" x1="3.21927" y1="68.8605" x2="6.88427" y2="75.5028" gradientUnits="userSpaceOnUse">
<stop stop-color="#FFD945"/>
<stop offset="0.3043" stop-color="#FFCD3E"/>
<stop offset="0.8558" stop-color="#FFAD2B"/>
<stop offset="1" stop-color="#FFA325"/>
</linearGradient>
<clipPath id="clip0">
<rect width="150" height="150" fill="white" transform="translate(0.464844 0.170166)"/>
</clipPath>
</defs>
</svg>
