<svg width="151" height="151" viewBox="0 0 151 151" fill="none" xmlns="http://www.w3.org/2000/svg">
<g clip-path="url(#clip0)">
<path d="M69.4474 46.7809C67.7454 45.0788 67.7454 42.3194 69.4474 40.6176L101.948 8.11675C103.65 6.4147 106.41 6.4147 108.112 8.11675C109.814 9.81881 109.814 12.5782 108.112 14.28L75.6107 46.7809C73.9086 48.4829 71.1492 48.4829 69.4474 46.7809Z" fill="url(#paint0_linear)"/>
<path d="M103.719 15.3129C103.411 15.0382 103.065 14.8088 102.689 14.6344C99.7388 13.265 85.4458 7.11821 79.4796 13.5767C75.7638 17.5994 81.3152 24.3923 86.9617 29.6209C92.1179 34.3953 99.2844 35.2344 102.912 31.4988C107.021 27.2682 110.279 21.1561 103.719 15.3129Z" fill="url(#paint1_linear)"/>
<path d="M103.719 15.3129C103.411 15.0382 103.065 14.8088 102.689 14.6344C99.7388 13.265 85.4458 7.1182 79.4796 13.5767C75.7638 17.5994 81.3152 24.3923 86.9617 29.6209C92.1179 34.3956 110.279 21.1561 103.719 15.3129Z" fill="url(#paint2_linear)"/>
<path d="M90.8113 22.7006L85.3916 28.1203C85.9092 28.6317 86.4351 29.1332 86.9619 29.6209C91.326 33.6617 97.1293 34.8826 101.009 32.8979L90.8113 22.7006Z" fill="url(#paint3_linear)"/>
<path d="M59.4188 21.7239C65.8794 24.6421 73.0891 29.706 79.8062 36.423C86.5232 43.1401 91.587 50.3501 94.5053 56.8104C96.0729 60.2807 101.369 59.8727 105.246 55.9951C107.836 53.4057 109.015 49.9883 108.146 47.5495C105.585 40.3533 100.006 31.8645 92.185 24.0442C84.3644 16.2236 75.8756 10.6442 68.6794 8.08272C66.2406 7.21448 62.8229 8.3936 60.2338 10.983C56.3564 14.8604 55.9482 20.1562 59.4188 21.7239Z" fill="url(#paint4_linear)"/>
<path d="M90.628 34.3703C90.4286 34.153 90.2165 33.9409 89.9918 33.7338C85.445 28.7782 73.9724 26.515 68.5918 27.0015C72.3424 29.5997 76.1474 32.7635 79.8062 36.4224C86.5233 43.1394 91.5871 50.3494 94.5053 56.8097C96.073 60.28 101.369 59.8721 105.246 55.9944C106.537 54.7038 107.476 53.2077 107.988 51.7294L90.628 34.3703Z" fill="url(#paint5_linear)"/>
<path d="M66.1142 27.6818C66.1142 27.6818 50.7833 38.2018 45.9136 49.6612C41.0439 61.1206 69.7221 70.7024 76.0651 67.6956C82.408 64.6888 91.9059 47.5947 91.9059 38.2021C91.9059 28.8094 69.3789 25.2409 66.1142 27.6818Z" fill="url(#paint6_linear)"/>
<path d="M66.1143 27.6819C66.1143 27.6819 52.0414 37.3401 46.5796 48.2283C54.1558 52.0821 63.7287 54.0042 67.0772 52.4169C72.199 49.9889 79.3767 38.3769 81.9511 29.0504C75.4717 26.811 67.9028 26.3448 66.1143 27.6819Z" fill="url(#paint7_linear)"/>
<g opacity="0.5">
<g opacity="0.5">
<path opacity="0.5" d="M66.702 33.2924C67.5984 33.2924 68.325 32.5658 68.325 31.6695C68.325 30.7731 67.5984 30.0465 66.702 30.0465C65.8057 30.0465 65.0791 30.7731 65.0791 31.6695C65.0791 32.5658 65.8057 33.2924 66.702 33.2924Z" fill="url(#paint8_linear)"/>
<path opacity="0.5" d="M64.5556 37.6506C65.2632 37.6506 65.8368 37.077 65.8368 36.3694C65.8368 35.6619 65.2632 35.0883 64.5556 35.0883C63.848 35.0883 63.2744 35.6619 63.2744 36.3694C63.2744 37.077 63.848 37.6506 64.5556 37.6506Z" fill="url(#paint9_linear)"/>
<path opacity="0.5" d="M70.2431 37.1186C70.6696 37.1186 71.0154 36.7728 71.0154 36.3462C71.0154 35.9196 70.6696 35.5739 70.2431 35.5739C69.8165 35.5739 69.4707 35.9196 69.4707 36.3462C69.4707 36.7728 69.8165 37.1186 70.2431 37.1186Z" fill="url(#paint10_linear)"/>
</g>
<g opacity="0.5">
<path opacity="0.5" d="M75.3586 32.4124C76.021 32.4124 76.558 31.8754 76.558 31.213C76.558 30.5505 76.021 30.0135 75.3586 30.0135C74.6962 30.0135 74.1592 30.5505 74.1592 31.213C74.1592 31.8754 74.6962 32.4124 75.3586 32.4124Z" fill="url(#paint11_linear)"/>
<path opacity="0.5" d="M71.7124 33.2929C72.2353 33.2929 72.6592 32.8691 72.6592 32.3462C72.6592 31.8233 72.2353 31.3994 71.7124 31.3994C71.1895 31.3994 70.7656 31.8233 70.7656 32.3462C70.7656 32.8691 71.1895 33.2929 71.7124 33.2929Z" fill="url(#paint12_linear)"/>
<path opacity="0.5" d="M74.5269 36.038C74.8422 36.038 75.0978 35.7824 75.0978 35.4671C75.0978 35.1518 74.8422 34.8962 74.5269 34.8962C74.2117 34.8962 73.9561 35.1518 73.9561 35.4671C73.9561 35.7824 74.2117 36.038 74.5269 36.038Z" fill="url(#paint13_linear)"/>
</g>
</g>
<path d="M64.2654 37.4236C60.1221 37.4236 56.1989 38.1898 52.6948 39.5556C49.9412 42.6433 47.4239 46.1068 45.9136 49.6612C41.0439 61.1206 69.7221 70.7024 76.0651 67.6956C80.1151 65.7759 85.4504 58.1136 88.7792 50.3795C84.5865 42.7453 75.1915 37.4236 64.2654 37.4236Z" fill="url(#paint14_linear)"/>
<path d="M86.2525 55.5464C80.506 47.6714 69.9701 42.3903 57.9122 42.3903C55.0743 42.3903 52.3207 42.6838 49.6937 43.2338C48.1702 45.2964 46.8493 47.4611 45.9146 49.6611C41.0449 61.1206 69.7231 70.7023 76.066 67.6956C79.2004 66.2097 83.1043 61.2832 86.2525 55.5464Z" fill="url(#paint15_linear)"/>
<path d="M66.0462 54.6903L56.6826 64.0538C64.0573 67.5388 72.8791 69.2056 76.0653 67.6953C76.6479 67.4191 77.257 67.0238 77.8829 66.5268L66.0462 54.6903Z" fill="url(#paint16_linear)"/>
<path d="M31.0656 50.0764C37.5262 52.9947 44.7359 58.0585 51.453 64.7756C58.17 71.4926 63.2339 78.7026 66.1521 85.1629C67.7197 88.6332 73.0156 88.2253 76.893 84.3476C79.4824 81.7582 80.6615 78.3409 79.7933 75.902C77.2318 68.7058 71.6524 60.217 63.8318 52.3967C56.0112 44.5761 47.5224 38.9967 40.3265 36.4353C37.8877 35.567 34.47 36.7461 31.8809 39.3355C28.0033 43.2129 27.5953 48.5088 31.0656 50.0764Z" fill="url(#paint17_linear)"/>
<path d="M76.8934 84.3477C79.4828 81.7583 80.662 78.341 79.7937 75.9021C79.7734 75.8448 79.7511 75.7868 79.7305 75.7295L64.6823 60.6812C64.2614 60.2486 63.8108 59.8162 63.3267 59.3848C62.8158 58.9298 62.2434 58.5498 61.6211 58.261C58.1502 56.6501 45.2049 51.0504 34.4517 51.7698C39.9867 54.7854 45.8884 59.2107 51.4534 64.7757C58.1705 71.4927 63.2343 78.7027 66.1525 85.163C67.7199 88.6333 73.0158 88.2251 76.8934 84.3477Z" fill="url(#paint18_linear)"/>
<path d="M63.3264 59.3847C62.8155 58.9297 62.2431 58.5497 61.6208 58.2609C56.7331 55.9923 33.0561 45.81 23.1728 56.5088C17.0172 63.1723 26.2134 74.4253 35.567 83.0864C44.1084 90.9956 55.9799 92.3853 61.989 86.1976C68.7955 79.1888 74.1928 69.0641 63.3264 59.3847Z" fill="url(#paint19_linear)"/>
<path d="M63.3264 59.3847C62.8155 58.9297 62.2431 58.5497 61.6208 58.2609C56.7331 55.9923 33.0561 45.81 23.1728 56.5088C17.0172 63.1723 26.2134 74.4253 35.567 83.0864C44.1087 90.9956 74.1928 69.0641 63.3264 59.3847Z" fill="url(#paint20_linear)"/>
<g opacity="0.5">
<g opacity="0.5">
<path opacity="0.5" d="M53.0546 76.8926C53.4811 76.8926 53.8269 76.5468 53.8269 76.1203C53.8269 75.6937 53.4811 75.3479 53.0546 75.3479C52.628 75.3479 52.2822 75.6937 52.2822 76.1203C52.2822 76.5468 52.628 76.8926 53.0546 76.8926Z" fill="url(#paint21_linear)"/>
</g>
<g opacity="0.5">
<path opacity="0.5" d="M58.1701 72.1864C58.8325 72.1864 59.3695 71.6494 59.3695 70.987C59.3695 70.3246 58.8325 69.7876 58.1701 69.7876C57.5077 69.7876 56.9707 70.3246 56.9707 70.987C56.9707 71.6494 57.5077 72.1864 58.1701 72.1864Z" fill="url(#paint22_linear)"/>
<path opacity="0.5" d="M54.5244 73.0674C55.0473 73.0674 55.4712 72.6435 55.4712 72.1206C55.4712 71.5977 55.0473 71.1738 54.5244 71.1738C54.0015 71.1738 53.5776 71.5977 53.5776 72.1206C53.5776 72.6435 54.0015 73.0674 54.5244 73.0674Z" fill="url(#paint23_linear)"/>
<path opacity="0.5" d="M57.3394 75.8123C57.6547 75.8123 57.9103 75.5567 57.9103 75.2414C57.9103 74.9261 57.6547 74.6705 57.3394 74.6705C57.0241 74.6705 56.7686 74.9261 56.7686 75.2414C56.7686 75.5567 57.0241 75.8123 57.3394 75.8123Z" fill="url(#paint24_linear)"/>
</g>
</g>
<path d="M35.5674 83.0866C41.2274 88.3274 48.348 90.7024 54.2577 89.9101L40.2883 75.9407L34.3174 81.9116C34.7327 82.308 35.1497 82.7001 35.5674 83.0866Z" fill="url(#paint25_linear)"/>
<path d="M5.05461 71.1541C12.1743 74.7318 20.2473 80.6582 27.9084 88.3197C35.5696 95.9812 41.4964 104.054 45.074 111.174C46.9958 114.998 52.6352 114.934 56.5128 111.056C59.1023 108.467 60.124 104.892 59.0234 102.221C55.7758 94.3385 49.2076 84.8609 40.2875 75.9406C31.3675 67.0206 21.8899 60.4521 14.0076 57.2047C11.3361 56.1041 7.76137 57.1259 5.17196 59.7153C1.29461 63.5927 1.2299 69.2321 5.05461 71.1541Z" fill="url(#paint26_radial)"/>
<path d="M27.9089 88.3197C35.5703 95.9812 41.4968 104.054 45.0744 111.174C46.9962 114.998 52.6356 114.934 56.5133 111.056C58.0886 109.481 59.0792 107.542 59.3692 105.662L34.9677 81.2609C33.2656 79.5589 30.5062 79.5589 28.8044 81.2609L24.7671 85.2983C25.8194 86.2733 26.8683 87.2789 27.9089 88.3197Z" fill="url(#paint27_linear)"/>
<path d="M1.5451 114.684C-0.15696 112.982 -0.15696 110.222 1.5451 108.52L28.8045 81.2609C30.5066 79.5589 33.266 79.5589 34.9677 81.2609C36.6698 82.963 36.6698 85.7224 34.9677 87.4242L7.70833 114.684C6.00657 116.386 3.24716 116.386 1.5451 114.684Z" fill="url(#paint28_linear)"/>
<path d="M108.124 74.0126C106.422 72.3105 106.422 69.5511 108.124 67.8494L140.625 35.3482C142.327 33.6461 145.087 33.6461 146.789 35.3482C148.491 37.0503 148.491 39.8097 146.789 41.5114L114.288 74.0126C112.586 75.7144 109.826 75.7144 108.124 74.0126Z" fill="url(#paint29_linear)"/>
<path d="M107 43.3097C112.662 46.1547 119.082 50.8679 125.175 56.9609C131.268 63.0538 135.981 69.4735 138.826 75.1356C140.355 78.177 144.84 78.1259 147.923 75.042C149.982 72.9829 150.795 70.14 149.92 68.0156C147.337 61.7473 142.113 54.21 135.02 47.1165C127.926 40.0226 120.389 34.7991 114.12 32.2165C111.996 31.3412 109.153 32.1538 107.094 34.2129C104.01 37.2967 103.959 41.7815 107 43.3097Z" fill="url(#paint30_radial)"/>
<path d="M109.441 44.6285C114.47 47.5168 119.943 51.728 125.176 56.9609C131.268 63.0535 135.982 69.4735 138.827 75.1356C140.355 78.1771 144.84 78.1259 147.924 75.0421C149.983 72.983 150.796 70.14 149.92 68.0156C149.37 66.6806 148.693 65.2856 147.911 63.8521L137.801 53.7418C137.343 53.263 136.848 52.7844 136.312 52.3074C135.801 51.8524 135.229 51.4724 134.607 51.1835C131.348 49.6718 119.745 44.6462 109.441 44.6285Z" fill="url(#paint31_linear)"/>
<path d="M136.311 52.3073C135.8 51.8523 135.228 51.4723 134.606 51.1835C129.718 48.9149 106.041 38.7326 96.1577 49.4314C90.0021 56.0949 99.1983 67.3479 108.552 76.0091C117.093 83.9182 128.965 85.3079 134.974 79.1202C141.78 72.1114 147.178 61.9867 136.311 52.3073Z" fill="url(#paint32_linear)"/>
<path d="M136.311 52.3073C135.8 51.8523 135.228 51.4723 134.606 51.1835C129.718 48.9149 106.041 38.7326 96.1577 49.4314C90.0021 56.0949 99.1983 67.3479 108.552 76.0091C117.094 83.9182 147.178 61.9867 136.311 52.3073Z" fill="url(#paint33_linear)"/>
<g opacity="0.5">
<g opacity="0.5">
<path opacity="0.5" d="M126.04 69.8152C126.466 69.8152 126.812 69.4694 126.812 69.0429C126.812 68.6163 126.466 68.2705 126.04 68.2705C125.613 68.2705 125.268 68.6163 125.268 69.0429C125.268 69.4694 125.613 69.8152 126.04 69.8152Z" fill="url(#paint34_linear)"/>
</g>
<g opacity="0.5">
<path opacity="0.5" d="M131.155 65.109C131.818 65.109 132.355 64.572 132.355 63.9096C132.355 63.2472 131.818 62.7102 131.155 62.7102C130.493 62.7102 129.956 63.2472 129.956 63.9096C129.956 64.572 130.493 65.109 131.155 65.109Z" fill="url(#paint35_linear)"/>
<path opacity="0.5" d="M127.509 65.9896C128.032 65.9896 128.456 65.5657 128.456 65.0428C128.456 64.5199 128.032 64.0961 127.509 64.0961C126.986 64.0961 126.562 64.5199 126.562 65.0428C126.562 65.5657 126.986 65.9896 127.509 65.9896Z" fill="url(#paint36_linear)"/>
<path opacity="0.5" d="M130.324 68.7345C130.639 68.7345 130.895 68.479 130.895 68.1637C130.895 67.8484 130.639 67.5928 130.324 67.5928C130.009 67.5928 129.753 67.8484 129.753 68.1637C129.753 68.479 130.009 68.7345 130.324 68.7345Z" fill="url(#paint37_linear)"/>
</g>
</g>
<path d="M128.762 82.5547L116.405 70.197L109.641 76.9611C115.616 81.9591 122.947 83.9358 128.762 82.5547Z" fill="url(#paint38_linear)"/>
<path d="M81.4461 65.6039C87.9067 68.5221 95.1164 73.586 101.833 80.303C108.551 87.0201 113.614 94.2301 116.533 100.69C118.1 104.161 123.396 103.753 127.273 99.8751C129.863 97.2857 131.042 93.8683 130.174 91.4295C127.612 84.2333 122.033 75.7445 114.212 67.9242C106.392 60.1036 97.9029 54.5242 90.707 51.9627C88.2682 51.0945 84.8505 52.2736 82.2614 54.863C78.3838 58.7404 77.9755 64.0363 81.4461 65.6039Z" fill="url(#paint39_linear)"/>
<path d="M113.75 78.0076C113.478 77.7053 113.173 77.4194 112.824 77.1565C104.125 70.5818 88.5514 69.1891 88.5514 69.1891C88.4099 69.1706 88.2484 69.1759 88.0723 69.2C92.6323 72.0656 97.3423 75.8123 101.833 80.3029C108.55 87.02 113.614 94.23 116.532 100.69C118.1 104.161 123.396 103.753 127.273 99.875C128.871 98.2773 129.929 96.3647 130.303 94.5609L113.75 78.0076Z" fill="url(#paint40_linear)"/>
<path d="M88.552 69.1891C88.552 69.1891 104.125 70.5818 112.825 77.1565C121.525 83.7312 105.921 103.23 100.1 103.671C94.2791 104.111 79.7411 95.2585 75.3985 88.1629C71.0558 81.0674 85.1429 68.7412 88.552 69.1891Z" fill="url(#paint41_linear)"/>
<path d="M88.5517 69.1891C88.5517 69.1891 102.848 70.4686 111.697 76.3586C108.186 82.5088 102.388 88.0533 99.3143 88.2859C94.614 88.6415 84.2317 82.9383 78.1211 76.9933C81.6123 72.5318 86.684 68.9436 88.5517 69.1891Z" fill="url(#paint42_linear)"/>
<g opacity="0.5">
<g opacity="0.5">
<path opacity="0.5" d="M85.7938 74.6233C86.6902 74.6233 87.4168 73.8967 87.4168 73.0004C87.4168 72.1041 86.6902 71.3774 85.7938 71.3774C84.8975 71.3774 84.1709 72.1041 84.1709 73.0004C84.1709 73.8967 84.8975 74.6233 85.7938 74.6233Z" fill="url(#paint43_linear)"/>
<path opacity="0.5" d="M83.6474 78.9816C84.355 78.9816 84.9286 78.408 84.9286 77.7004C84.9286 76.9928 84.355 76.4192 83.6474 76.4192C82.9398 76.4192 82.3662 76.9928 82.3662 77.7004C82.3662 78.408 82.9398 78.9816 83.6474 78.9816Z" fill="url(#paint44_linear)"/>
<path opacity="0.5" d="M89.3349 78.4495C89.7614 78.4495 90.1072 78.1037 90.1072 77.6771C90.1072 77.2506 89.7614 76.9048 89.3349 76.9048C88.9083 76.9048 88.5625 77.2506 88.5625 77.6771C88.5625 78.1037 88.9083 78.4495 89.3349 78.4495Z" fill="url(#paint45_linear)"/>
</g>
<g opacity="0.5">
<path opacity="0.5" d="M94.4504 73.7433C95.1128 73.7433 95.6498 73.2063 95.6498 72.5439C95.6498 71.8815 95.1128 71.3445 94.4504 71.3445C93.788 71.3445 93.251 71.8815 93.251 72.5439C93.251 73.2063 93.788 73.7433 94.4504 73.7433Z" fill="url(#paint46_linear)"/>
<path opacity="0.5" d="M90.8042 74.6239C91.3271 74.6239 91.751 74.2 91.751 73.6771C91.751 73.1542 91.3271 72.7303 90.8042 72.7303C90.2813 72.7303 89.8574 73.1542 89.8574 73.6771C89.8574 74.2 90.2813 74.6239 90.8042 74.6239Z" fill="url(#paint47_linear)"/>
<path opacity="0.5" d="M93.6187 77.3688C93.934 77.3688 94.1896 77.1132 94.1896 76.7979C94.1896 76.4826 93.934 76.2271 93.6187 76.2271C93.3034 76.2271 93.0479 76.4826 93.0479 76.7979C93.0479 77.1132 93.3034 77.3688 93.6187 77.3688Z" fill="url(#paint48_linear)"/>
</g>
</g>
<path d="M94.3471 75.7577C97.2415 73.9862 100.336 72.8877 103.415 72.4215C106.766 73.5768 110.126 75.1171 112.824 77.1562C121.524 83.7309 105.92 103.23 100.099 103.67C96.3827 103.952 89.113 100.444 83.2121 96.025C82.6118 88.4659 86.7144 80.4292 94.3471 75.7577Z" fill="url(#paint49_linear)"/>
<path d="M87.3672 98.8483C87.7404 90.4427 92.6589 81.9486 101.082 76.7936C103.065 75.5803 105.124 74.6248 107.214 73.9171C109.232 74.8239 111.155 75.8945 112.825 77.1565C121.525 83.7312 105.921 103.23 100.1 103.671C97.2234 103.888 92.2187 101.836 87.3672 98.8483Z" fill="url(#paint50_linear)"/>
<path d="M95.1065 93.1088C94.7927 92.7859 94.4565 92.4635 94.0954 92.1418C93.7156 91.8035 93.2901 91.5209 92.8274 91.3065C90.4677 90.2115 82.218 86.6365 74.7109 86.4418C74.8401 87.0409 75.0642 87.6177 75.398 88.1632C79.7406 95.2588 94.2783 104.111 100.099 103.671C101.116 103.594 102.431 102.934 103.863 101.866L95.1065 93.1088Z" fill="url(#paint51_linear)"/>
<path d="M94.0959 92.1418C93.7162 91.8035 93.2906 91.5209 92.828 91.3062C89.1945 89.6197 71.5924 82.05 64.245 90.0038C59.6689 94.9576 66.5053 103.323 73.4592 109.762C79.8092 115.642 88.6345 116.675 93.1018 112.075C98.1618 106.865 102.174 99.3376 94.0959 92.1418Z" fill="url(#paint52_linear)"/>
<path d="M94.0959 92.1418C93.7162 91.8035 93.2906 91.5209 92.828 91.3062C89.1944 89.6197 71.5924 82.05 64.245 90.0038C59.6689 94.9576 66.5053 103.323 73.4592 109.762C79.8092 115.642 102.174 99.3376 94.0959 92.1418Z" fill="url(#paint53_linear)"/>
<path d="M73.4594 109.762C79.3485 115.215 87.3641 116.496 92.0606 112.984L80.6068 101.531L72.8994 109.238C73.0859 109.414 73.2727 109.589 73.4594 109.762Z" fill="url(#paint54_linear)"/>
<path d="M49.8503 101.221C55.7732 103.602 62.2797 107.962 68.2268 113.909C74.1738 119.857 78.5341 126.363 80.915 132.286C82.1938 135.468 87.2097 134.779 91.0871 130.902C93.6765 128.312 94.9838 125.023 94.3053 122.774C92.303 116.137 87.5297 108.454 80.6056 101.53C73.6815 94.6062 65.9991 89.833 59.3621 87.8306C57.1127 87.1521 53.8235 88.4595 51.2341 91.0489C47.3571 94.9265 46.6685 99.9424 49.8503 101.221Z" fill="url(#paint55_linear)"/>
<path d="M73.6448 108.492C71.9428 106.79 69.1833 106.79 67.4816 108.492L65.0469 110.927C66.1201 111.872 67.1828 112.865 68.2278 113.909C74.1748 119.856 78.5351 126.363 80.916 132.286C82.1948 135.468 87.2107 134.779 91.088 130.902C91.9657 130.024 92.6919 129.065 93.2475 128.095L73.6448 108.492Z" fill="url(#paint56_linear)"/>
<path d="M40.2214 141.915C38.5193 140.213 38.5193 137.453 40.2214 135.752L67.4808 108.492C69.1828 106.79 71.9422 106.79 73.644 108.492C75.3461 110.194 75.3461 112.954 73.644 114.655L46.3846 141.915C44.6825 143.617 41.9234 143.617 40.2214 141.915Z" fill="url(#paint57_linear)"/>
</g>
<defs>
<linearGradient id="paint0_linear" x1="86.9158" y1="25.6477" x2="98.7686" y2="37.5005" gradientUnits="userSpaceOnUse">
<stop stop-color="#A57C52"/>
<stop offset="0.1339" stop-color="#A26C4A"/>
<stop offset="0.5155" stop-color="#994336"/>
<stop offset="0.8174" stop-color="#942A2A"/>
<stop offset="1" stop-color="#922125"/>
</linearGradient>
<linearGradient id="paint1_linear" x1="93.9804" y1="17.2567" x2="88.813" y2="30.2312" gradientUnits="userSpaceOnUse">
<stop stop-color="#FFDECF"/>
<stop offset="0.3791" stop-color="#FDC4B0"/>
<stop offset="0.7655" stop-color="#FBAE97"/>
<stop offset="1" stop-color="#FAA68E"/>
</linearGradient>
<linearGradient id="paint2_linear" x1="91.6685" y1="19.1014" x2="90.6591" y2="45.2261" gradientUnits="userSpaceOnUse">
<stop stop-color="#FFDECF"/>
<stop offset="0.3791" stop-color="#FDC4B0"/>
<stop offset="0.7655" stop-color="#FBAE97"/>
<stop offset="1" stop-color="#FAA68E"/>
</linearGradient>
<linearGradient id="paint3_linear" x1="102.653" y1="39.962" x2="88.1316" y2="25.4406" gradientUnits="userSpaceOnUse">
<stop stop-color="#F82814" stop-opacity="0"/>
<stop offset="0.2454" stop-color="#F12817" stop-opacity="0.245"/>
<stop offset="0.6052" stop-color="#DD2820" stop-opacity="0.605"/>
<stop offset="1" stop-color="#C0272D"/>
</linearGradient>
<linearGradient id="paint4_linear" x1="91.3561" y1="24.873" x2="78.0891" y2="38.1401" gradientUnits="userSpaceOnUse">
<stop stop-color="#BADA00"/>
<stop offset="0.2269" stop-color="#B0CE00"/>
<stop offset="0.6378" stop-color="#95AE00"/>
<stop offset="1" stop-color="#798C00"/>
</linearGradient>
<linearGradient id="paint5_linear" x1="103.865" y1="57.0662" x2="74.9474" y2="28.1486" gradientUnits="userSpaceOnUse">
<stop stop-color="#798C00" stop-opacity="0"/>
<stop offset="0.6542" stop-color="#556100" stop-opacity="0.654"/>
<stop offset="1" stop-color="#464F00"/>
</linearGradient>
<linearGradient id="paint6_linear" x1="65.1698" y1="35.1556" x2="76.2212" y2="67.5612" gradientUnits="userSpaceOnUse">
<stop stop-color="#A57C52"/>
<stop offset="0.1339" stop-color="#A26C4A"/>
<stop offset="0.5155" stop-color="#994336"/>
<stop offset="0.8174" stop-color="#942A2A"/>
<stop offset="1" stop-color="#922125"/>
</linearGradient>
<linearGradient id="paint7_linear" x1="63.6934" y1="31.2766" x2="66.0217" y2="61.233" gradientUnits="userSpaceOnUse">
<stop stop-color="#A57C52"/>
<stop offset="0.1339" stop-color="#A26C4A"/>
<stop offset="0.5155" stop-color="#994336"/>
<stop offset="0.8174" stop-color="#942A2A"/>
<stop offset="1" stop-color="#922125"/>
</linearGradient>
<linearGradient id="paint8_linear" x1="68.6149" y1="32.9789" x2="63.2997" y2="27.4353" gradientUnits="userSpaceOnUse">
<stop stop-color="#42210B" stop-opacity="0"/>
<stop offset="1" stop-color="#42210B"/>
</linearGradient>
<linearGradient id="paint9_linear" x1="66.1106" y1="37.3027" x2="61.9147" y2="32.9264" gradientUnits="userSpaceOnUse">
<stop stop-color="#42210B" stop-opacity="0"/>
<stop offset="1" stop-color="#42210B"/>
</linearGradient>
<linearGradient id="paint10_linear" x1="71.2604" y1="36.7186" x2="68.7308" y2="34.0802" gradientUnits="userSpaceOnUse">
<stop stop-color="#42210B" stop-opacity="0"/>
<stop offset="1" stop-color="#42210B"/>
</linearGradient>
<linearGradient id="paint11_linear" x1="75.1874" y1="33.5622" x2="75.6244" y2="27.8996" gradientUnits="userSpaceOnUse">
<stop stop-color="#42210B" stop-opacity="0"/>
<stop offset="1" stop-color="#42210B"/>
</linearGradient>
<linearGradient id="paint12_linear" x1="71.5689" y1="34.3125" x2="71.9139" y2="29.8419" gradientUnits="userSpaceOnUse">
<stop stop-color="#42210B" stop-opacity="0"/>
<stop offset="1" stop-color="#42210B"/>
</linearGradient>
<linearGradient id="paint13_linear" x1="74.4286" y1="36.8643" x2="74.6365" y2="34.1692" gradientUnits="userSpaceOnUse">
<stop stop-color="#42210B" stop-opacity="0"/>
<stop offset="1" stop-color="#42210B"/>
</linearGradient>
<linearGradient id="paint14_linear" x1="78.0504" y1="44.7389" x2="103.402" y2="28.1827" gradientUnits="userSpaceOnUse">
<stop stop-color="#42210B" stop-opacity="0"/>
<stop offset="1" stop-color="#42210B"/>
</linearGradient>
<linearGradient id="paint15_linear" x1="74.9037" y1="47.6532" x2="96.971" y2="33.242" gradientUnits="userSpaceOnUse">
<stop stop-color="#42210B" stop-opacity="0"/>
<stop offset="1" stop-color="#42210B"/>
</linearGradient>
<linearGradient id="paint16_linear" x1="79.495" y1="77.5029" x2="62.9785" y2="60.9865" gradientUnits="userSpaceOnUse">
<stop stop-color="#42210B" stop-opacity="0"/>
<stop offset="1" stop-color="#42210B"/>
</linearGradient>
<linearGradient id="paint17_linear" x1="63.003" y1="53.2256" x2="49.7362" y2="66.4923" gradientUnits="userSpaceOnUse">
<stop stop-color="#FFD945"/>
<stop offset="0.3043" stop-color="#FFCD3E"/>
<stop offset="0.8558" stop-color="#FFAD2B"/>
<stop offset="1" stop-color="#FFA325"/>
</linearGradient>
<linearGradient id="paint18_linear" x1="82.8302" y1="90.5177" x2="29.3205" y2="37.008" gradientUnits="userSpaceOnUse">
<stop stop-color="#F82814" stop-opacity="0"/>
<stop offset="1" stop-color="#C0272D"/>
</linearGradient>
<linearGradient id="paint19_linear" x1="52.4314" y1="54.5847" x2="38.1517" y2="80.4538" gradientUnits="userSpaceOnUse">
<stop stop-color="#A57C52"/>
<stop offset="0.1339" stop-color="#A26C4A"/>
<stop offset="0.5155" stop-color="#994336"/>
<stop offset="0.8174" stop-color="#942A2A"/>
<stop offset="1" stop-color="#922125"/>
</linearGradient>
<linearGradient id="paint20_linear" x1="44.1611" y1="56.9844" x2="38.9872" y2="98.9959" gradientUnits="userSpaceOnUse">
<stop stop-color="#A57C52"/>
<stop offset="0.1339" stop-color="#A26C4A"/>
<stop offset="0.5155" stop-color="#994336"/>
<stop offset="0.8174" stop-color="#942A2A"/>
<stop offset="1" stop-color="#922125"/>
</linearGradient>
<linearGradient id="paint21_linear" x1="54.0905" y1="76.487" x2="51.5605" y2="73.8487" gradientUnits="userSpaceOnUse">
<stop stop-color="#42210B" stop-opacity="0"/>
<stop offset="1" stop-color="#42210B"/>
</linearGradient>
<linearGradient id="paint22_linear" x1="57.9867" y1="73.3554" x2="58.4238" y2="67.6926" gradientUnits="userSpaceOnUse">
<stop stop-color="#42210B" stop-opacity="0"/>
<stop offset="1" stop-color="#42210B"/>
</linearGradient>
<linearGradient id="paint23_linear" x1="54.3686" y1="74.1053" x2="54.7138" y2="69.6349" gradientUnits="userSpaceOnUse">
<stop stop-color="#42210B" stop-opacity="0"/>
<stop offset="1" stop-color="#42210B"/>
</linearGradient>
<linearGradient id="paint24_linear" x1="57.2291" y1="76.657" x2="57.437" y2="73.9619" gradientUnits="userSpaceOnUse">
<stop stop-color="#42210B" stop-opacity="0"/>
<stop offset="1" stop-color="#42210B"/>
</linearGradient>
<linearGradient id="paint25_linear" x1="60.74" y1="102.364" x2="38.8192" y2="80.4427" gradientUnits="userSpaceOnUse">
<stop stop-color="#42210B" stop-opacity="0"/>
<stop offset="1" stop-color="#42210B"/>
</linearGradient>
<radialGradient id="paint26_radial" cx="0" cy="0" r="1" gradientUnits="userSpaceOnUse" gradientTransform="translate(23.4705 93.7091) rotate(-135) scale(43.5634 20.7034)">
<stop stop-color="#FF6359"/>
<stop offset="0.4845" stop-color="#FF6157"/>
<stop offset="0.6591" stop-color="#FE5C50"/>
<stop offset="0.7835" stop-color="#FD5145"/>
<stop offset="0.884" stop-color="#FB4334"/>
<stop offset="0.9692" stop-color="#F9311E"/>
<stop offset="1" stop-color="#F82814"/>
</radialGradient>
<linearGradient id="paint27_linear" x1="52.4303" y1="108.811" x2="27.4389" y2="83.8192" gradientUnits="userSpaceOnUse">
<stop stop-color="#F82814" stop-opacity="0"/>
<stop offset="1" stop-color="#C0272D"/>
</linearGradient>
<linearGradient id="paint28_linear" x1="16.4034" y1="96.1604" x2="28.2563" y2="108.013" gradientUnits="userSpaceOnUse">
<stop stop-color="#A57C52"/>
<stop offset="0.1339" stop-color="#A26C4A"/>
<stop offset="0.5155" stop-color="#994336"/>
<stop offset="0.8174" stop-color="#942A2A"/>
<stop offset="1" stop-color="#922125"/>
</linearGradient>
<linearGradient id="paint29_linear" x1="125.587" y1="52.8748" x2="137.44" y2="64.7279" gradientUnits="userSpaceOnUse">
<stop stop-color="#A57C52"/>
<stop offset="0.1339" stop-color="#A26C4A"/>
<stop offset="0.5155" stop-color="#994336"/>
<stop offset="0.8174" stop-color="#942A2A"/>
<stop offset="1" stop-color="#922125"/>
</linearGradient>
<radialGradient id="paint30_radial" cx="0" cy="0" r="1" gradientUnits="userSpaceOnUse" gradientTransform="translate(121.601 61.2631) rotate(-135) scale(34.6442 16.4646)">
<stop stop-color="#FF6359"/>
<stop offset="0.4845" stop-color="#FF6157"/>
<stop offset="0.6591" stop-color="#FE5C50"/>
<stop offset="0.7835" stop-color="#FD5145"/>
<stop offset="0.884" stop-color="#FB4334"/>
<stop offset="0.9692" stop-color="#F9311E"/>
<stop offset="1" stop-color="#F82814"/>
</radialGradient>
<linearGradient id="paint31_linear" x1="150.307" y1="67.2853" x2="140.684" y2="64.4915" gradientUnits="userSpaceOnUse">
<stop stop-color="#F82814" stop-opacity="0"/>
<stop offset="1" stop-color="#C0272D"/>
</linearGradient>
<linearGradient id="paint32_linear" x1="125.416" y1="47.507" x2="111.137" y2="73.3761" gradientUnits="userSpaceOnUse">
<stop stop-color="#A57C52"/>
<stop offset="0.1339" stop-color="#A26C4A"/>
<stop offset="0.5155" stop-color="#994336"/>
<stop offset="0.8174" stop-color="#942A2A"/>
<stop offset="1" stop-color="#922125"/>
</linearGradient>
<linearGradient id="paint33_linear" x1="117.146" y1="49.907" x2="111.972" y2="91.9185" gradientUnits="userSpaceOnUse">
<stop stop-color="#A57C52"/>
<stop offset="0.1339" stop-color="#A26C4A"/>
<stop offset="0.5155" stop-color="#994336"/>
<stop offset="0.8174" stop-color="#942A2A"/>
<stop offset="1" stop-color="#922125"/>
</linearGradient>
<linearGradient id="paint34_linear" x1="127.052" y1="69.3872" x2="124.522" y2="66.7488" gradientUnits="userSpaceOnUse">
<stop stop-color="#42210B" stop-opacity="0"/>
<stop offset="1" stop-color="#42210B"/>
</linearGradient>
<linearGradient id="paint35_linear" x1="131.01" y1="66.2804" x2="131.447" y2="60.6175" gradientUnits="userSpaceOnUse">
<stop stop-color="#42210B" stop-opacity="0"/>
<stop offset="1" stop-color="#42210B"/>
</linearGradient>
<linearGradient id="paint36_linear" x1="127.391" y1="67.0302" x2="127.736" y2="62.56" gradientUnits="userSpaceOnUse">
<stop stop-color="#42210B" stop-opacity="0"/>
<stop offset="1" stop-color="#42210B"/>
</linearGradient>
<linearGradient id="paint37_linear" x1="130.251" y1="69.5819" x2="130.459" y2="66.8868" gradientUnits="userSpaceOnUse">
<stop stop-color="#42210B" stop-opacity="0"/>
<stop offset="1" stop-color="#42210B"/>
</linearGradient>
<linearGradient id="paint38_linear" x1="132.539" y1="93.0958" x2="113.404" y2="73.9606" gradientUnits="userSpaceOnUse">
<stop stop-color="#42210B" stop-opacity="0"/>
<stop offset="1" stop-color="#42210B"/>
</linearGradient>
<linearGradient id="paint39_linear" x1="113.383" y1="68.753" x2="100.116" y2="82.0201" gradientUnits="userSpaceOnUse">
<stop stop-color="#BADA00"/>
<stop offset="0.2269" stop-color="#B0CE00"/>
<stop offset="0.6378" stop-color="#95AE00"/>
<stop offset="1" stop-color="#798C00"/>
</linearGradient>
<linearGradient id="paint40_linear" x1="126.038" y1="100.424" x2="93.2293" y2="67.6153" gradientUnits="userSpaceOnUse">
<stop stop-color="#798C00" stop-opacity="0"/>
<stop offset="0.6542" stop-color="#556100" stop-opacity="0.654"/>
<stop offset="1" stop-color="#464F00"/>
</linearGradient>
<linearGradient id="paint41_linear" x1="92.8939" y1="74.3351" x2="99.4925" y2="103.774" gradientUnits="userSpaceOnUse">
<stop stop-color="#A57C52"/>
<stop offset="0.1339" stop-color="#A26C4A"/>
<stop offset="0.5155" stop-color="#994336"/>
<stop offset="0.8174" stop-color="#942A2A"/>
<stop offset="1" stop-color="#922125"/>
</linearGradient>
<linearGradient id="paint42_linear" x1="91.9549" y1="70.8498" x2="104.056" y2="94.5794" gradientUnits="userSpaceOnUse">
<stop stop-color="#A57C52"/>
<stop offset="0.1339" stop-color="#A26C4A"/>
<stop offset="0.5155" stop-color="#994336"/>
<stop offset="0.8174" stop-color="#942A2A"/>
<stop offset="1" stop-color="#922125"/>
</linearGradient>
<linearGradient id="paint43_linear" x1="87.7151" y1="74.2914" x2="82.4" y2="68.748" gradientUnits="userSpaceOnUse">
<stop stop-color="#42210B" stop-opacity="0"/>
<stop offset="1" stop-color="#42210B"/>
</linearGradient>
<linearGradient id="paint44_linear" x1="85.2108" y1="78.6151" x2="81.0147" y2="74.239" gradientUnits="userSpaceOnUse">
<stop stop-color="#42210B" stop-opacity="0"/>
<stop offset="1" stop-color="#42210B"/>
</linearGradient>
<linearGradient id="paint45_linear" x1="90.3606" y1="78.031" x2="87.8307" y2="75.3927" gradientUnits="userSpaceOnUse">
<stop stop-color="#42210B" stop-opacity="0"/>
<stop offset="1" stop-color="#42210B"/>
</linearGradient>
<linearGradient id="paint46_linear" x1="94.2855" y1="74.9157" x2="94.7225" y2="69.253" gradientUnits="userSpaceOnUse">
<stop stop-color="#42210B" stop-opacity="0"/>
<stop offset="1" stop-color="#42210B"/>
</linearGradient>
<linearGradient id="paint47_linear" x1="90.6668" y1="75.6657" x2="91.012" y2="71.1953" gradientUnits="userSpaceOnUse">
<stop stop-color="#42210B" stop-opacity="0"/>
<stop offset="1" stop-color="#42210B"/>
</linearGradient>
<linearGradient id="paint48_linear" x1="93.5265" y1="78.2174" x2="93.7344" y2="75.5223" gradientUnits="userSpaceOnUse">
<stop stop-color="#42210B" stop-opacity="0"/>
<stop offset="1" stop-color="#42210B"/>
</linearGradient>
<linearGradient id="paint49_linear" x1="88.3006" y1="87.6851" x2="63.2849" y2="86.9505" gradientUnits="userSpaceOnUse">
<stop stop-color="#42210B" stop-opacity="0"/>
<stop offset="1" stop-color="#42210B"/>
</linearGradient>
<linearGradient id="paint50_linear" x1="91.9532" y1="88.4843" x2="70.3441" y2="87.8499" gradientUnits="userSpaceOnUse">
<stop stop-color="#42210B" stop-opacity="0"/>
<stop offset="1" stop-color="#42210B"/>
</linearGradient>
<linearGradient id="paint51_linear" x1="105.422" y1="111.16" x2="88.5804" y2="94.3185" gradientUnits="userSpaceOnUse">
<stop stop-color="#42210B" stop-opacity="0"/>
<stop offset="1" stop-color="#42210B"/>
</linearGradient>
<linearGradient id="paint52_linear" x1="82.0811" y1="94.5251" x2="75.7174" y2="110.503" gradientUnits="userSpaceOnUse">
<stop stop-color="#FFDECF"/>
<stop offset="0.3791" stop-color="#FDC4B0"/>
<stop offset="0.7655" stop-color="#FBAE97"/>
<stop offset="1" stop-color="#FAA68E"/>
</linearGradient>
<linearGradient id="paint53_linear" x1="79.2337" y1="96.7966" x2="77.9909" y2="128.969" gradientUnits="userSpaceOnUse">
<stop stop-color="#FFDECF"/>
<stop offset="0.3791" stop-color="#FDC4B0"/>
<stop offset="0.7655" stop-color="#FBAE97"/>
<stop offset="1" stop-color="#FAA68E"/>
</linearGradient>
<linearGradient id="paint54_linear" x1="88.2068" y1="116.838" x2="76.7529" y2="105.384" gradientUnits="userSpaceOnUse">
<stop stop-color="#F82814" stop-opacity="0"/>
<stop offset="0.2454" stop-color="#F12817" stop-opacity="0.245"/>
<stop offset="0.6052" stop-color="#DD2820" stop-opacity="0.605"/>
<stop offset="1" stop-color="#C0272D"/>
</linearGradient>
<linearGradient id="paint55_linear" x1="79.8455" y1="102.428" x2="66.5785" y2="115.695" gradientUnits="userSpaceOnUse">
<stop stop-color="#FFD945"/>
<stop offset="0.3043" stop-color="#FFCD3E"/>
<stop offset="0.8558" stop-color="#FFAD2B"/>
<stop offset="1" stop-color="#FFA325"/>
</linearGradient>
<linearGradient id="paint56_linear" x1="86.2566" y1="129.549" x2="54.9827" y2="98.2755" gradientUnits="userSpaceOnUse">
<stop stop-color="#F82814" stop-opacity="0"/>
<stop offset="1" stop-color="#C0272D"/>
</linearGradient>
<linearGradient id="paint57_linear" x1="55.0739" y1="123.387" x2="66.9269" y2="135.24" gradientUnits="userSpaceOnUse">
<stop stop-color="#A57C52"/>
<stop offset="0.1339" stop-color="#A26C4A"/>
<stop offset="0.5155" stop-color="#994336"/>
<stop offset="0.8174" stop-color="#942A2A"/>
<stop offset="1" stop-color="#922125"/>
</linearGradient>
<clipPath id="clip0">
<rect width="150" height="150" fill="white" transform="translate(0.269043 0.0158691)"/>
</clipPath>
</defs>
</svg>
