<svg width="151" height="151" viewBox="0 0 151 151" fill="none" xmlns="http://www.w3.org/2000/svg">
<g clip-path="url(#clip0)">
<path d="M90.4312 2.39545C75.6785 10.1975 58.0797 23.5096 41.0282 40.561C23.9768 57.6125 10.6647 75.2116 2.86236 89.9643C-2.33793 99.7975 1.99118 114.897 13.2609 126.167C17.1085 130.014 22.4144 130.239 23.7668 126.586C29.8485 110.158 45.3788 87.8349 66.8403 66.3734C88.3018 44.9119 110.625 29.3816 127.053 23.2996C130.706 21.9472 130.481 16.6413 126.634 12.7937C115.364 1.52427 100.264 -2.80484 90.4312 2.39545Z" fill="url(#paint0_linear)"/>
<g opacity="0.6">
<g opacity="0.6">
<path opacity="0.6" d="M72.3678 23.0624C73.737 23.0624 74.8469 21.9524 74.8469 20.5832C74.8469 19.2141 73.737 18.1041 72.3678 18.1041C70.9986 18.1041 69.8887 19.2141 69.8887 20.5832C69.8887 21.9524 70.9986 23.0624 72.3678 23.0624Z" fill="url(#paint1_linear)"/>
<path opacity="0.6" d="M73.3055 30.3774C74.3865 30.3774 75.2628 29.501 75.2628 28.42C75.2628 27.339 74.3865 26.4626 73.3055 26.4626C72.2245 26.4626 71.3481 27.339 71.3481 28.42C71.3481 29.501 72.2245 30.3774 73.3055 30.3774Z" fill="url(#paint2_linear)"/>
<path opacity="0.6" d="M80.7049 25.0468C81.3566 25.0468 81.8849 24.5185 81.8849 23.8668C81.8849 23.2151 81.3566 22.6868 80.7049 22.6868C80.0532 22.6868 79.5249 23.2151 79.5249 23.8668C79.5249 24.5185 80.0532 25.0468 80.7049 25.0468Z" fill="url(#paint3_linear)"/>
</g>
<g opacity="0.6">
<path opacity="0.6" d="M83.295 14.9362C84.3068 14.9362 85.127 14.116 85.127 13.1042C85.127 12.0923 84.3068 11.2721 83.295 11.2721C82.2831 11.2721 81.4629 12.0923 81.4629 13.1042C81.4629 14.116 82.2831 14.9362 83.295 14.9362Z" fill="url(#paint4_linear)"/>
<path opacity="0.6" d="M79.4408 18.9276C80.2395 18.9276 80.887 18.2802 80.887 17.4815C80.887 16.6828 80.2395 16.0353 79.4408 16.0353C78.6421 16.0353 77.9946 16.6828 77.9946 17.4815C77.9946 18.2802 78.6421 18.9276 79.4408 18.9276Z" fill="url(#paint5_linear)"/>
<path opacity="0.6" d="M85.5937 20.1853C86.0754 20.1853 86.4658 19.7948 86.4658 19.3132C86.4658 18.8316 86.0754 18.4412 85.5937 18.4412C85.1121 18.4412 84.7217 18.8316 84.7217 19.3132C84.7217 19.7948 85.1121 20.1853 85.5937 20.1853Z" fill="url(#paint6_linear)"/>
</g>
</g>
<path d="M9.9138 117.769C11.2479 114.504 11.8017 110.816 11.45 106.918L11.4123 106.5C10.6473 98.0244 14.9329 91.1455 22.3873 88.8844L22.3929 88.8826C28.7609 86.9508 32.8956 81.6232 33.4229 74.6699L33.4732 74.0085C34.0547 66.3414 39.0679 60.747 46.4879 59.4843L47.055 59.3879C53.8697 58.2282 58.6976 53.4014 59.8585 46.587L59.9559 46.0161C61.22 38.5964 66.8153 33.584 74.4829 33.0032L75.285 32.9423C82.1994 32.4185 87.4818 28.2805 89.3523 21.9223C91.5447 14.4702 98.3776 10.1705 106.817 10.9329L107.384 10.984C111.282 11.3361 114.97 10.7823 118.235 9.44846C122.796 7.58493 146.903 10.9029 79.1359 78.6702C11.3685 146.438 8.10498 122.196 9.9138 117.769Z" fill="url(#paint7_linear)"/>
<path d="M138.196 8.21325C128.384 -1.59822 114.136 -1.78322 109.295 7.87237C100.283 25.8471 85.3411 46.22 66.0138 65.5471C46.6864 84.8741 26.3135 99.8168 8.33905 108.828C-1.31654 113.669 -1.13154 127.918 8.67993 137.729C15.232 144.281 24.2679 146.877 31.0129 144.106C50.9146 135.932 74.8349 119.373 97.3373 96.8706C119.84 74.3682 136.398 50.448 144.573 30.5462C147.343 23.8012 144.748 14.7653 138.196 8.21325Z" fill="url(#paint8_linear)"/>
<path d="M144.573 30.5462C147.01 24.6118 145.293 16.905 140.383 10.6759L113.214 10.6891C113.183 10.6844 113.153 10.6765 113.122 10.6724C110.605 10.3427 108.298 12.1162 107.968 14.6327L106.444 26.2721C106.03 29.4271 103.793 31.3221 100.458 31.3436L95.024 31.3783C90.4331 37.875 85.2508 44.4791 79.5296 51.0621L79.6219 54.3889C79.7231 58.038 77.6096 60.46 74.1087 60.7124L70.4846 60.9733C69.0208 62.503 67.5325 64.0286 66.014 65.5471C60.529 71.0321 54.9599 76.1627 49.3852 80.9062L47.9266 87.5077C47.5961 89.0033 46.8022 90.19 45.6352 90.9606L36.7808 90.9721C30.9919 95.2956 25.2634 99.1624 19.6825 102.539L15.5675 119.181C14.9584 121.644 16.4619 124.136 18.926 124.746L64.6769 124.805C75.4919 117.029 86.5766 107.632 97.3375 96.8706C119.84 74.3683 136.398 50.448 144.573 30.5462Z" fill="url(#paint9_linear)"/>
<path d="M27.0758 134.931C29.0264 132.284 30.5817 129.596 31.5872 127.056L31.6952 126.784C33.882 121.259 38.9958 115.209 44.7914 111.289L44.7958 111.286C49.7467 107.937 54.2625 102.991 56.8425 98.0897L57.0878 97.6235C59.9325 92.2197 65.1314 86.8109 70.5846 83.5815L71.0014 83.3347C76.0099 80.3688 80.8375 75.5415 83.804 70.5329L84.0525 70.1132C87.2828 64.6597 92.692 59.4612 98.0958 56.6168L98.6611 56.3191C103.534 53.7538 108.451 49.2506 111.755 44.3259C115.627 38.5538 121.651 33.445 127.151 31.2682L127.521 31.1218C130.062 30.1165 132.748 28.5615 135.396 26.6109C139.095 23.8859 154.443 18.4438 86.6755 86.2112C18.9081 153.979 24.4311 138.522 27.0758 134.931Z" fill="url(#paint10_linear)"/>
<path d="M26.7904 139.696C36.8536 149.76 50.9133 153.049 60.4986 147.601C74.8792 139.426 92.2486 125.885 109.3 108.833C126.352 91.782 139.893 74.4126 148.067 60.032C153.515 50.4467 150.226 36.387 140.163 26.3241C136.727 22.8885 131.717 22.9597 130.242 26.4891C123.607 42.3632 107.713 64.3232 86.2513 85.7847C64.7898 107.246 42.8298 123.14 26.9554 129.776C23.426 131.251 23.3548 136.261 26.7904 139.696Z" fill="url(#paint11_linear)"/>
<g opacity="0.6">
<g opacity="0.6">
<path opacity="0.6" d="M43.8893 135.025C45.2585 135.025 46.3684 133.916 46.3684 132.546C46.3684 131.177 45.2585 130.067 43.8893 130.067C42.5201 130.067 41.4102 131.177 41.4102 132.546C41.4102 133.916 42.5201 135.025 43.8893 135.025Z" fill="url(#paint12_linear)"/>
<path opacity="0.6" d="M39.286 140.915C40.367 140.915 41.2433 140.038 41.2433 138.957C41.2433 137.876 40.367 137 39.286 137C38.2049 137 37.3286 137.876 37.3286 138.957C37.3286 140.038 38.2049 140.915 39.286 140.915Z" fill="url(#paint13_linear)"/>
<path opacity="0.6" d="M47.8172 141.78C48.4689 141.78 48.9972 141.251 48.9972 140.6C48.9972 139.948 48.4689 139.42 47.8172 139.42C47.1655 139.42 46.6372 139.948 46.6372 140.6C46.6372 141.251 47.1655 141.78 47.8172 141.78Z" fill="url(#paint14_linear)"/>
</g>
<g opacity="0.6">
<path opacity="0.6" d="M136.221 48.7847C137.59 48.7847 138.7 47.6747 138.7 46.3055C138.7 44.9364 137.59 43.8264 136.221 43.8264C134.852 43.8264 133.742 44.9364 133.742 46.3055C133.742 47.6747 134.852 48.7847 136.221 48.7847Z" fill="url(#paint15_linear)"/>
<path opacity="0.6" d="M131.618 54.6741C132.699 54.6741 133.575 53.7978 133.575 52.7168C133.575 51.6357 132.699 50.7594 131.618 50.7594C130.537 50.7594 129.661 51.6357 129.661 52.7168C129.661 53.7978 130.537 54.6741 131.618 54.6741Z" fill="url(#paint16_linear)"/>
<path opacity="0.6" d="M140.149 55.5391C140.801 55.5391 141.329 55.0108 141.329 54.3591C141.329 53.7074 140.801 53.1791 140.149 53.1791C139.498 53.1791 138.969 53.7074 138.969 54.3591C138.969 55.0108 139.498 55.5391 140.149 55.5391Z" fill="url(#paint17_linear)"/>
</g>
<g opacity="0.6">
<path opacity="0.6" d="M56.9981 136.247C58.0099 136.247 58.8301 135.426 58.8301 134.415C58.8301 133.403 58.0099 132.583 56.9981 132.583C55.9863 132.583 55.166 133.403 55.166 134.415C55.166 135.426 55.9863 136.247 56.9981 136.247Z" fill="url(#paint18_linear)"/>
<path opacity="0.6" d="M51.1996 136.484C51.9983 136.484 52.6458 135.837 52.6458 135.038C52.6458 134.239 51.9983 133.592 51.1996 133.592C50.4009 133.592 49.7534 134.239 49.7534 135.038C49.7534 135.837 50.4009 136.484 51.1996 136.484Z" fill="url(#paint19_linear)"/>
<path opacity="0.6" d="M54.4985 141.418C54.9801 141.418 55.3706 141.027 55.3706 140.546C55.3706 140.064 54.9801 139.674 54.4985 139.674C54.0169 139.674 53.6265 140.064 53.6265 140.546C53.6265 141.027 54.0169 141.418 54.4985 141.418Z" fill="url(#paint20_linear)"/>
</g>
</g>
<path d="M36.4058 146.719C44.6752 150.93 53.7093 151.46 60.499 147.601C74.8796 139.427 92.249 125.885 109.3 108.834C126.352 91.7821 139.893 74.4127 148.068 60.0321C151.927 53.2424 151.397 44.208 147.186 35.9388L36.4058 146.719Z" fill="url(#paint21_linear)"/>
<path d="M84.4528 65.5747C81.9984 68.0294 78.6484 69.6011 74.7687 69.8805L65.4496 70.5514C62.6319 70.7541 60.6843 72.3714 60.106 74.9888L56.9019 89.4905C56.014 93.5079 53.6484 96.8605 50.2422 98.9291C46.4902 101.207 41.8208 101.765 37.0943 100.498C34.8449 99.895 32.7358 100.077 31.1552 101.01C29.9093 101.745 29.054 102.933 28.6802 104.445L24.4908 121.387C23.8819 123.851 21.3902 125.355 18.926 124.746C16.4619 124.136 14.9584 121.645 15.5675 119.181L19.7566 102.239C20.7228 98.3317 23.1113 95.0838 26.4822 93.0941C30.2063 90.8955 34.8202 90.3717 39.4737 91.6191C41.7537 92.2299 43.8837 92.0358 45.4708 91.072C46.7305 90.3067 47.5802 89.0738 47.9263 87.5073L51.1305 73.0055C52.5813 66.4382 57.9428 61.8758 64.7893 61.3829L74.1081 60.712C77.609 60.4599 79.7225 58.0376 79.6213 54.3885L79.4213 47.1708C79.3005 42.8117 80.7816 38.8094 83.5925 35.9014C86.3725 33.0126 90.2925 31.4076 94.599 31.3805L100.458 31.3429C103.792 31.3214 106.029 29.4264 106.443 26.2714L107.968 14.632C108.297 12.1155 110.605 10.3423 113.122 10.6717C115.638 11.0014 117.411 13.3091 117.082 15.8258L115.557 27.4655C114.556 35.1102 108.37 40.4849 100.516 40.5347L94.6572 40.572C92.8166 40.5835 91.2699 41.1941 90.2016 42.2891C89.1075 43.4211 88.5569 45.0211 88.6096 46.9158L88.8096 54.1335C88.9366 58.7061 87.2946 62.732 84.4528 65.5747Z" fill="url(#paint22_linear)"/>
</g>
<defs>
<linearGradient id="paint0_linear" x1="44.8947" y1="44.4347" x2="57.1751" y2="56.7151" gradientUnits="userSpaceOnUse">
<stop stop-color="#FAA68E"/>
<stop offset="0.2061" stop-color="#FBA682"/>
<stop offset="0.5808" stop-color="#FDA861"/>
<stop offset="1" stop-color="#FFA936"/>
</linearGradient>
<linearGradient id="paint1_linear" x1="75.9243" y1="21.6009" x2="64.5839" y2="18.5962" gradientUnits="userSpaceOnUse">
<stop stop-color="#F82814" stop-opacity="0"/>
<stop offset="0.2454" stop-color="#F12817" stop-opacity="0.245"/>
<stop offset="0.6052" stop-color="#DD2820" stop-opacity="0.605"/>
<stop offset="1" stop-color="#C0272D"/>
</linearGradient>
<linearGradient id="paint2_linear" x1="76.0956" y1="29.2317" x2="67.143" y2="26.8599" gradientUnits="userSpaceOnUse">
<stop stop-color="#F82814" stop-opacity="0"/>
<stop offset="0.2454" stop-color="#F12817" stop-opacity="0.245"/>
<stop offset="0.6052" stop-color="#DD2820" stop-opacity="0.605"/>
<stop offset="1" stop-color="#C0272D"/>
</linearGradient>
<linearGradient id="paint3_linear" x1="82.3486" y1="24.375" x2="76.9511" y2="22.945" gradientUnits="userSpaceOnUse">
<stop stop-color="#F82814" stop-opacity="0"/>
<stop offset="0.2454" stop-color="#F12817" stop-opacity="0.245"/>
<stop offset="0.6052" stop-color="#DD2820" stop-opacity="0.605"/>
<stop offset="1" stop-color="#C0272D"/>
</linearGradient>
<linearGradient id="paint4_linear" x1="84.6201" y1="15.6876" x2="80.6913" y2="7.95843" gradientUnits="userSpaceOnUse">
<stop stop-color="#F82814" stop-opacity="0"/>
<stop offset="0.2454" stop-color="#F12817" stop-opacity="0.245"/>
<stop offset="0.6052" stop-color="#DD2820" stop-opacity="0.605"/>
<stop offset="1" stop-color="#C0272D"/>
</linearGradient>
<linearGradient id="paint5_linear" x1="80.4987" y1="19.54" x2="77.397" y2="13.4378" gradientUnits="userSpaceOnUse">
<stop stop-color="#F82814" stop-opacity="0"/>
<stop offset="0.2454" stop-color="#F12817" stop-opacity="0.245"/>
<stop offset="0.6052" stop-color="#DD2820" stop-opacity="0.605"/>
<stop offset="1" stop-color="#C0272D"/>
</linearGradient>
<linearGradient id="paint6_linear" x1="86.2545" y1="20.5943" x2="84.3846" y2="16.9156" gradientUnits="userSpaceOnUse">
<stop stop-color="#F82814" stop-opacity="0"/>
<stop offset="0.2454" stop-color="#F12817" stop-opacity="0.245"/>
<stop offset="0.6052" stop-color="#DD2820" stop-opacity="0.605"/>
<stop offset="1" stop-color="#C0272D"/>
</linearGradient>
<linearGradient id="paint7_linear" x1="56.6294" y1="56.1296" x2="69.3506" y2="68.8509" gradientUnits="userSpaceOnUse">
<stop stop-color="#BADA00"/>
<stop offset="0.2269" stop-color="#B0CE00"/>
<stop offset="0.6378" stop-color="#95AE00"/>
<stop offset="1" stop-color="#798C00"/>
</linearGradient>
<linearGradient id="paint8_linear" x1="67.8942" y1="67.4344" x2="90.8821" y2="90.4223" gradientUnits="userSpaceOnUse">
<stop stop-color="#FF6359"/>
<stop offset="0.2243" stop-color="#FE5B50"/>
<stop offset="0.5952" stop-color="#FC4637"/>
<stop offset="1" stop-color="#F82814"/>
</linearGradient>
<linearGradient id="paint9_linear" x1="97.4731" y1="82.6289" x2="72.3445" y2="62.0059" gradientUnits="userSpaceOnUse">
<stop stop-color="#F82814" stop-opacity="0"/>
<stop offset="1" stop-color="#C0272D"/>
</linearGradient>
<linearGradient id="paint10_linear" x1="79.8626" y1="79.363" x2="88.5177" y2="88.0181" gradientUnits="userSpaceOnUse">
<stop stop-color="#BADA00"/>
<stop offset="0.2269" stop-color="#B0CE00"/>
<stop offset="0.6378" stop-color="#95AE00"/>
<stop offset="1" stop-color="#798C00"/>
</linearGradient>
<linearGradient id="paint11_linear" x1="82.9211" y1="83.2005" x2="125.786" y2="108.762" gradientUnits="userSpaceOnUse">
<stop stop-color="#FAA68E"/>
<stop offset="0.2061" stop-color="#FBA682"/>
<stop offset="0.5808" stop-color="#FDA861"/>
<stop offset="1" stop-color="#FFA936"/>
</linearGradient>
<linearGradient id="paint12_linear" x1="46.0521" y1="135.627" x2="39.7174" y2="125.742" gradientUnits="userSpaceOnUse">
<stop stop-color="#F82814" stop-opacity="0"/>
<stop offset="0.2454" stop-color="#F12817" stop-opacity="0.245"/>
<stop offset="0.6052" stop-color="#DD2820" stop-opacity="0.605"/>
<stop offset="1" stop-color="#C0272D"/>
</linearGradient>
<linearGradient id="paint13_linear" x1="41.0182" y1="141.373" x2="36.0175" y2="133.569" gradientUnits="userSpaceOnUse">
<stop stop-color="#F82814" stop-opacity="0"/>
<stop offset="0.2454" stop-color="#F12817" stop-opacity="0.245"/>
<stop offset="0.6052" stop-color="#DD2820" stop-opacity="0.605"/>
<stop offset="1" stop-color="#C0272D"/>
</linearGradient>
<linearGradient id="paint14_linear" x1="48.9153" y1="142.018" x2="45.9004" y2="137.313" gradientUnits="userSpaceOnUse">
<stop stop-color="#F82814" stop-opacity="0"/>
<stop offset="0.2454" stop-color="#F12817" stop-opacity="0.245"/>
<stop offset="0.6052" stop-color="#DD2820" stop-opacity="0.605"/>
<stop offset="1" stop-color="#C0272D"/>
</linearGradient>
<linearGradient id="paint15_linear" x1="138.422" y1="49.3324" x2="132.087" y2="39.447" gradientUnits="userSpaceOnUse">
<stop stop-color="#F82814" stop-opacity="0"/>
<stop offset="0.2454" stop-color="#F12817" stop-opacity="0.245"/>
<stop offset="0.6052" stop-color="#DD2820" stop-opacity="0.605"/>
<stop offset="1" stop-color="#C0272D"/>
</linearGradient>
<linearGradient id="paint16_linear" x1="133.388" y1="55.0778" x2="128.387" y2="47.2737" gradientUnits="userSpaceOnUse">
<stop stop-color="#F82814" stop-opacity="0"/>
<stop offset="0.2454" stop-color="#F12817" stop-opacity="0.245"/>
<stop offset="0.6052" stop-color="#DD2820" stop-opacity="0.605"/>
<stop offset="1" stop-color="#C0272D"/>
</linearGradient>
<linearGradient id="paint17_linear" x1="141.285" y1="55.7233" x2="138.27" y2="51.0184" gradientUnits="userSpaceOnUse">
<stop stop-color="#F82814" stop-opacity="0"/>
<stop offset="0.2454" stop-color="#F12817" stop-opacity="0.245"/>
<stop offset="0.6052" stop-color="#DD2820" stop-opacity="0.605"/>
<stop offset="1" stop-color="#C0272D"/>
</linearGradient>
<linearGradient id="paint18_linear" x1="56.3519" y1="137.039" x2="58.6738" y2="128.682" gradientUnits="userSpaceOnUse">
<stop stop-color="#F82814" stop-opacity="0"/>
<stop offset="0.2454" stop-color="#F12817" stop-opacity="0.245"/>
<stop offset="0.6052" stop-color="#DD2820" stop-opacity="0.605"/>
<stop offset="1" stop-color="#C0272D"/>
</linearGradient>
<linearGradient id="paint19_linear" x1="50.709" y1="137.098" x2="52.5424" y2="130.501" gradientUnits="userSpaceOnUse">
<stop stop-color="#F82814" stop-opacity="0"/>
<stop offset="0.2454" stop-color="#F12817" stop-opacity="0.245"/>
<stop offset="0.6052" stop-color="#DD2820" stop-opacity="0.605"/>
<stop offset="1" stop-color="#C0272D"/>
</linearGradient>
<linearGradient id="paint20_linear" x1="54.2441" y1="141.764" x2="55.3491" y2="137.787" gradientUnits="userSpaceOnUse">
<stop stop-color="#F82814" stop-opacity="0"/>
<stop offset="0.2454" stop-color="#F12817" stop-opacity="0.245"/>
<stop offset="0.6052" stop-color="#DD2820" stop-opacity="0.605"/>
<stop offset="1" stop-color="#C0272D"/>
</linearGradient>
<linearGradient id="paint21_linear" x1="97.2033" y1="96.7433" x2="115.706" y2="115.246" gradientUnits="userSpaceOnUse">
<stop stop-color="#F82814" stop-opacity="0"/>
<stop offset="0.2454" stop-color="#F12817" stop-opacity="0.245"/>
<stop offset="0.6052" stop-color="#DD2820" stop-opacity="0.605"/>
<stop offset="1" stop-color="#C0272D"/>
</linearGradient>
<linearGradient id="paint22_linear" x1="58.7056" y1="60.1922" x2="74.2504" y2="75.737" gradientUnits="userSpaceOnUse">
<stop stop-color="#FFD945"/>
<stop offset="0.3043" stop-color="#FFCD3E"/>
<stop offset="0.8558" stop-color="#FFAD2B"/>
<stop offset="1" stop-color="#FFA325"/>
</linearGradient>
<clipPath id="clip0">
<rect width="150" height="150" fill="white" transform="translate(0.678223 0.211426)"/>
</clipPath>
</defs>
</svg>
