<svg width="151" height="151" viewBox="0 0 151 151" fill="none" xmlns="http://www.w3.org/2000/svg">
<g clip-path="url(#clip0)">
<path d="M54.5052 127.81C24.7493 140.855 3.18874 148.019 0.894623 145.725C-1.39949 143.431 5.76521 121.87 18.8096 92.1145C31.854 62.3589 48.0979 37.9351 48.0979 37.9351C51.094 34.9389 66.1105 41.7242 85.5029 61.1166C104.895 80.5089 111.681 95.5254 108.684 98.5216C108.684 98.5219 84.2608 114.765 54.5052 127.81Z" fill="url(#paint0_linear)"/>
<path d="M108.685 98.5221C108.685 98.5221 84.2609 114.767 54.505 127.812C49.3488 130.074 44.4347 132.158 39.8276 134.046L39.83 51.3259C44.73 42.9959 48.0976 37.9344 48.0976 37.9344C51.0935 34.9386 66.11 41.7244 85.5026 61.1171C104.895 80.5097 111.681 95.5262 108.685 98.5221Z" fill="url(#paint1_linear)"/>
<path d="M108.686 98.5222C108.686 98.5222 84.2613 114.767 54.5054 127.812C45.7115 131.666 37.633 135.009 30.5589 137.744C13.6889 144.264 2.51066 147.341 0.89507 145.725C-0.300519 144.53 1.07036 138.108 4.50036 128.031C7.65772 118.753 12.5557 106.377 18.8083 92.1149C22.7668 83.0878 27.0183 74.5478 31.0227 67.0352C38.8842 68.4431 47.0457 70.3219 55.3501 72.6855C76.4762 78.6934 95.1601 86.871 109.329 95.704C109.457 97.0172 109.235 97.9728 108.686 98.5222Z" fill="url(#paint2_linear)"/>
<path d="M82.4518 114.056C74.2742 118.494 64.7048 123.341 54.5054 127.812C45.7115 131.666 37.633 135.009 30.5589 137.744C13.6889 144.264 2.51066 147.341 0.89507 145.725C-0.300519 144.53 1.07036 138.108 4.50036 128.031C7.65772 118.753 12.5557 106.377 18.8083 92.1148C19.0321 91.6001 19.2607 91.0901 19.4868 90.5778C24.1977 91.6281 28.9824 92.8398 33.8201 94.2154C52.3842 99.4939 69.0671 106.45 82.4518 114.056Z" fill="url(#paint3_linear)"/>
<path d="M49.8707 129.825C42.8633 132.839 36.3707 135.496 30.5589 137.744C13.6889 144.264 2.51066 147.341 0.89507 145.725C-0.300519 144.53 1.07036 138.108 4.50036 128.031C5.8136 124.17 7.42919 119.771 9.31978 114.921C10.3054 115.191 11.2954 115.466 12.288 115.748C26.0395 119.658 38.7595 124.488 49.8707 129.825Z" fill="url(#paint4_linear)"/>
<path d="M48.0984 37.9351C48.0984 37.9351 31.854 62.3595 18.8087 92.1154C14.9543 100.909 11.6119 108.988 8.87694 116.062C2.35665 132.932 -0.72012 144.11 0.895469 145.725C2.09106 146.921 8.51223 145.55 18.5893 142.12C27.8678 138.963 40.244 134.065 54.5058 127.812C63.5328 123.854 72.0728 119.602 79.5855 115.598C78.1775 107.736 76.2987 99.5748 73.9352 91.2704C67.9272 70.1442 59.7496 51.4604 50.9164 37.2909C49.6034 37.1639 48.6478 37.3856 48.0984 37.9351Z" fill="url(#paint5_linear)"/>
<path d="M32.5649 64.1689C28.1264 72.3466 23.2793 81.916 18.8087 92.1154C14.9543 100.909 11.6119 108.988 8.87694 116.062C2.35665 132.932 -0.72012 144.11 0.895469 145.725C2.09106 146.921 8.51223 145.55 18.5893 142.12C27.8678 138.963 40.244 134.065 54.5058 127.812C55.0205 127.588 55.5305 127.36 56.0428 127.134C54.9925 122.423 53.7808 117.638 52.4052 112.8C47.1267 94.2363 40.1702 77.5534 32.5649 64.1689Z" fill="url(#paint6_linear)"/>
<path d="M16.7961 96.7498C13.7816 103.757 11.1252 110.25 8.87694 116.062C2.35665 132.932 -0.72012 144.11 0.895469 145.725C2.09106 146.921 8.51223 145.55 18.5893 142.12C22.4508 140.807 26.8499 139.191 31.6993 137.301C31.4293 136.315 31.1546 135.325 30.8731 134.332C26.9631 120.581 22.1325 107.861 16.7961 96.7498Z" fill="url(#paint7_linear)"/>
<path d="M106.291 91.6048C97.4723 86.7172 87.3129 78.9398 77.4968 69.1237C67.6806 59.3075 59.9032 49.1481 55.0156 40.3295C52.39 35.5925 45.6535 35.186 41.3503 39.4892C38.4765 42.3631 37.5615 46.5492 39.1062 49.8372C43.6644 59.539 52.3297 71.4328 63.7585 82.8616C75.1873 94.2904 87.0815 102.956 96.7832 107.514C100.071 109.059 104.258 108.144 107.131 105.27C111.434 100.967 111.028 94.2301 106.291 91.6048Z" fill="url(#paint8_linear)"/>
<path d="M124.917 82.5894C124.325 81.5815 124.881 80.308 126.01 80.0092C128.571 79.3312 130.987 77.9886 132.983 75.9918C138.673 70.3021 139.053 61.2094 133.872 55.053C133.871 55.0506 133.868 55.0486 133.867 55.0462C133.579 54.7047 133.678 54.1894 134.07 53.9747C135.374 53.26 136.599 52.3527 137.701 51.2515C142.533 46.4191 143.67 39.2097 140.951 33.2586C140.939 33.2318 140.925 33.2033 140.91 33.1727C138.708 28.8756 139.757 23.6247 143.589 20.6883C144.086 20.3077 144.568 19.8994 145.033 19.4636C147.596 17.0594 149.348 14.1321 150.288 11.0127C151.471 7.08679 146.648 4.18649 143.718 7.05473C143.665 7.10679 143.612 7.15855 143.558 7.21002C140.524 10.1165 136.775 11.8838 132.872 12.5059C127.219 13.4065 121.461 11.7024 117.073 8.02767L116.998 7.96473C110.63 2.63179 101.243 3.0462 95.3691 8.91973C94.2679 10.0209 93.3605 11.2459 92.6458 12.5506C92.4314 12.9421 91.9161 13.0409 91.5744 12.7536C91.572 12.7518 91.57 12.7497 91.5676 12.748C85.4108 7.56708 76.3185 7.94708 70.6285 13.6368C68.6317 15.6336 67.2891 18.0491 66.6111 20.61C66.312 21.7397 65.0385 22.295 64.0308 21.7036C58.1623 18.2591 50.5488 19.1174 45.5811 24.0847C39.972 29.6938 39.6011 38.6777 44.7494 44.7127C52.2217 53.4718 61.6917 63.6959 72.3082 74.3124C82.9247 84.9289 93.1485 94.3989 101.908 101.871C107.943 107.019 116.927 106.649 122.536 101.039C127.503 96.0715 128.361 88.458 124.917 82.5894Z" fill="url(#paint9_radial)"/>
<path d="M70.6281 13.6365C64.9384 19.3262 64.5581 28.4188 69.7393 34.5753C75.3746 41.2721 82.3096 48.8182 90.0555 56.5641C97.8014 64.31 105.348 71.245 112.044 76.8803C118.201 82.0612 127.293 81.6812 132.983 75.9915C138.673 70.3018 139.053 61.2091 133.872 55.0524C128.237 48.3556 121.302 40.8094 113.556 33.0635C105.81 25.3174 98.2637 18.3827 91.567 12.7474C85.4105 7.56648 76.3178 7.94678 70.6281 13.6365Z" fill="url(#paint10_linear)"/>
<path d="M95.3688 8.91952C89.4908 14.7975 89.0867 24.1857 94.4229 30.5592C97.4514 34.1769 100.945 37.9963 104.784 41.8357C108.624 45.6751 112.443 49.1686 116.061 52.1972C122.435 57.5333 131.823 57.1292 137.701 51.2513C143.578 45.3733 143.983 35.9851 138.646 29.6116C135.618 25.9939 132.124 22.1745 128.285 18.3354C124.446 14.4963 120.626 11.0025 117.009 7.97393C110.635 2.63775 101.247 3.04187 95.3688 8.91952Z" fill="url(#paint11_linear)"/>
</g>
<defs>
<linearGradient id="paint0_linear" x1="28.4328" y1="88.5912" x2="52.114" y2="112.272" gradientUnits="userSpaceOnUse">
<stop stop-color="#FFD945"/>
<stop offset="0.3043" stop-color="#FFCD3E"/>
<stop offset="0.8558" stop-color="#FFAD2B"/>
<stop offset="1" stop-color="#FFA325"/>
</linearGradient>
<linearGradient id="paint1_linear" x1="49.8097" y1="104.658" x2="94.9261" y2="47.08" gradientUnits="userSpaceOnUse">
<stop stop-color="#F82814" stop-opacity="0"/>
<stop offset="1" stop-color="#C0272D"/>
</linearGradient>
<linearGradient id="paint2_linear" x1="56.0481" y1="86.6971" x2="59.5097" y2="-15.762" gradientUnits="userSpaceOnUse">
<stop stop-color="#F82814" stop-opacity="0"/>
<stop offset="1" stop-color="#C0272D"/>
</linearGradient>
<linearGradient id="paint3_linear" x1="41.7802" y1="114.74" x2="45.2418" y2="-41.0254" gradientUnits="userSpaceOnUse">
<stop stop-color="#F82814" stop-opacity="0"/>
<stop offset="1" stop-color="#C0272D"/>
</linearGradient>
<linearGradient id="paint4_linear" x1="26.5475" y1="123.541" x2="31.3168" y2="78.1549" gradientUnits="userSpaceOnUse">
<stop stop-color="#F82814" stop-opacity="0"/>
<stop offset="1" stop-color="#C0272D"/>
</linearGradient>
<linearGradient id="paint5_linear" x1="59.951" y1="90.5998" x2="162.41" y2="87.1382" gradientUnits="userSpaceOnUse">
<stop stop-color="#F82814" stop-opacity="0"/>
<stop offset="1" stop-color="#C0272D"/>
</linearGradient>
<linearGradient id="paint6_linear" x1="31.9082" y1="104.868" x2="187.674" y2="101.406" gradientUnits="userSpaceOnUse">
<stop stop-color="#F82814" stop-opacity="0"/>
<stop offset="1" stop-color="#C0272D"/>
</linearGradient>
<linearGradient id="paint7_linear" x1="23.1075" y1="120.1" x2="68.4932" y2="115.331" gradientUnits="userSpaceOnUse">
<stop stop-color="#F82814" stop-opacity="0"/>
<stop offset="1" stop-color="#C0272D"/>
</linearGradient>
<linearGradient id="paint8_linear" x1="73.2533" y1="73.3107" x2="63.9871" y2="82.5769" gradientUnits="userSpaceOnUse">
<stop stop-color="#FFD945"/>
<stop offset="0.3043" stop-color="#FFCD3E"/>
<stop offset="0.8558" stop-color="#FFAD2B"/>
<stop offset="1" stop-color="#FFA325"/>
</linearGradient>
<radialGradient id="paint9_radial" cx="0" cy="0" r="1" gradientUnits="userSpaceOnUse" gradientTransform="translate(96.3302 13.3836) rotate(45) scale(79.8321)">
<stop stop-color="#FAA68E"/>
<stop offset="0.3527" stop-color="#FAA38F"/>
<stop offset="0.651" stop-color="#FC9893"/>
<stop offset="0.9287" stop-color="#FE879A"/>
<stop offset="1" stop-color="#FF819C"/>
</radialGradient>
<linearGradient id="paint10_linear" x1="101.431" y1="44.8267" x2="-38.6493" y2="69.0581" gradientUnits="userSpaceOnUse">
<stop stop-color="#F82814" stop-opacity="0"/>
<stop offset="1" stop-color="#C0272D"/>
</linearGradient>
<linearGradient id="paint11_linear" x1="115.114" y1="29.9478" x2="-2.58118" y2="22.563" gradientUnits="userSpaceOnUse">
<stop stop-color="#F82814" stop-opacity="0"/>
<stop offset="1" stop-color="#C0272D"/>
</linearGradient>
<clipPath id="clip0">
<rect width="150" height="150" fill="white" transform="translate(0.470703 0.186768)"/>
</clipPath>
</defs>
</svg>
