<svg width="109" height="124" viewBox="0 0 109 124" fill="none" xmlns="http://www.w3.org/2000/svg">
<path fill-rule="evenodd" clip-rule="evenodd" d="M71.19 70.3784C51.509 70.3784 35.554 54.4244 35.554 34.7434C35.554 22.9084 41.328 12.4274 50.207 5.94641L49.999 5.94141C22.385 5.94141 0 28.3274 0 55.9414C0 83.5554 22.385 105.941 49.999 105.941C77.614 105.941 99.999 83.5554 99.999 55.9414L99.994 55.7154C93.513 64.6004 83.029 70.3784 71.19 70.3784Z" fill="#F0A64D"/>
<path fill-rule="evenodd" clip-rule="evenodd" d="M99.999 55.9428L99.994 55.7168C93.513 64.6018 83.029 70.3798 71.19 70.3798C63.252 70.3798 55.923 67.7818 49.999 63.3938V105.943C77.614 105.943 99.999 83.5568 99.999 55.9428Z" fill="#EB8C3C"/>
<path fill-rule="evenodd" clip-rule="evenodd" d="M93.672 15.249L108.92 18.221L93.672 21.193L90.699 36.442L87.727 21.193L72.478 18.221L87.727 15.249L90.699 0L93.672 15.249Z" fill="#EB8C3C"/>
<path fill-rule="evenodd" clip-rule="evenodd" d="M78.5599 40.0628L87.6989 41.8438L78.5599 43.6248L76.7789 52.7638L74.9979 43.6248L65.8589 41.8438L74.9979 40.0628L76.7789 30.9238L78.5599 40.0628Z" fill="#EB8C3C"/>
<path fill-rule="evenodd" clip-rule="evenodd" d="M77.0899 62.2617L61.3759 99.5037C56.7149 110.551 64.3589 123.131 76.3389 123.617C76.5879 123.627 76.8379 123.632 77.0899 123.632C77.3409 123.632 77.5919 123.627 77.8409 123.617C89.8199 123.131 97.4639 110.551 92.8039 99.5037L77.0899 62.2617Z" fill="#98D1D8"/>
<path fill-rule="evenodd" clip-rule="evenodd" d="M92.8041 99.5037L77.0901 62.2617V123.632C77.3411 123.632 77.5921 123.627 77.8411 123.617C89.8201 123.131 97.4641 110.551 92.8041 99.5037Z" fill="#87B3BB"/>
</svg>
