<svg width="109" height="106" viewBox="0 0 109 106" fill="none" xmlns="http://www.w3.org/2000/svg">
<path fill-rule="evenodd" clip-rule="evenodd" d="M71.19 70.3784C51.509 70.3784 35.555 54.4244 35.555 34.7434C35.555 22.9084 41.328 12.4274 50.208 5.94641L50 5.94141C22.386 5.94141 0 28.3274 0 55.9414C0 83.5554 22.386 105.941 50 105.941C77.614 105.941 100 83.5554 100 55.9414L99.994 55.7154C93.514 64.6004 83.029 70.3784 71.19 70.3784Z" fill="#F0A64D"/>
<path fill-rule="evenodd" clip-rule="evenodd" d="M100 55.9428L99.994 55.7168C93.514 64.6018 83.029 70.3798 71.19 70.3798C63.252 70.3798 55.923 67.7818 50 63.3938V105.943C77.614 105.943 100 83.5568 100 55.9428Z" fill="#EB8C3C"/>
<path fill-rule="evenodd" clip-rule="evenodd" d="M93.672 15.249L108.921 18.221L93.672 21.193L90.7 36.442L87.727 21.193L72.479 18.221L87.727 15.249L90.7 0L93.672 15.249Z" fill="#EB8C3C"/>
<path fill-rule="evenodd" clip-rule="evenodd" d="M78.561 40.0628L87.699 41.8438L78.561 43.6248L76.78 52.7638L74.998 43.6248L65.86 41.8438L74.998 40.0628L76.78 30.9238L78.561 40.0628Z" fill="#EB8C3C"/>
</svg>
