<svg width="125" height="125" viewBox="0 0 125 128" fill="none" xmlns="http://www.w3.org/2000/svg">
<path fill-rule="evenodd" clip-rule="evenodd" d="M82.8859 67.2238C64.0869 67.2238 48.8479 51.9848 48.8479 33.1868C48.8479 21.8828 54.3629 11.8718 62.8439 5.68078L62.6459 5.67578C36.2689 5.67578 14.8879 27.0578 14.8879 53.4348C14.8879 79.8108 36.2689 101.193 62.6459 101.193C89.0219 101.193 110.404 79.8108 110.404 53.4348L110.398 53.2178C104.209 61.7048 94.1939 67.2238 82.8859 67.2238Z" fill="#F0A64D"/>
<path fill-rule="evenodd" clip-rule="evenodd" d="M104.36 14.565L118.925 17.404L104.36 20.243L101.521 34.808L98.6819 20.243L84.1169 17.404L98.6819 14.565L101.521 0L104.36 14.565Z" fill="#EB8C3C"/>
<path fill-rule="evenodd" clip-rule="evenodd" d="M89.9259 38.2642L98.6549 39.9662L89.9259 41.6672L88.2249 50.3962L86.5229 41.6672L77.7939 39.9662L86.5229 38.2642L88.2249 29.5352L89.9259 38.2642Z" fill="#EB8C3C"/>
<path fill-rule="evenodd" clip-rule="evenodd" d="M108.663 75.3018H108.651C108.651 66.3168 101.3 58.9648 92.314 58.9648H54.539C45.554 58.9648 38.202 66.3168 38.202 75.3018H16.337C7.352 75.3018 0 82.6538 0 91.6398C0 100.625 7.352 107.977 16.337 107.977H16.459C16.459 116.962 23.81 124.314 32.796 124.314H70.571C79.556 124.314 86.908 116.962 86.908 107.977H108.663C117.648 107.977 125 100.625 125 91.6398C125 82.6538 117.648 75.3018 108.663 75.3018Z" fill="#FFFFFE" stroke="#DBDCD6" stroke-width="3"/>
<path fill-rule="evenodd" clip-rule="evenodd" d="M108.663 75.3018H108.651C108.651 66.3168 101.3 58.9648 92.314 58.9648H62.5V124.314H70.571C79.556 124.314 86.908 116.962 86.908 107.977H108.663C117.648 107.977 125 100.625 125 91.6398C125 82.6538 117.648 75.3018 108.663 75.3018Z" fill="#DBDCD6"/>
</svg>
