<svg width="151" height="150" viewBox="0 0 151 150" fill="none" xmlns="http://www.w3.org/2000/svg">
<g clip-path="url(#clip0)">
<path d="M75.6329 130.483C57.0365 130.483 39.97 128.649 26.6021 125.593C28.5253 130.658 32.1385 134.488 36.5938 135.714C46.6491 138.481 60.4294 140.188 75.6329 140.188C90.8365 140.188 104.617 138.481 114.672 135.714C119.127 134.488 122.741 130.658 124.664 125.593C111.296 128.649 94.2294 130.483 75.6329 130.483Z" fill="url(#paint0_linear)"/>
<path d="M150.633 116.119C150.633 141.831 0.632812 141.831 0.632812 116.119C0.632812 90.4064 150.633 90.4064 150.633 116.119Z" fill="url(#paint1_linear)"/>
<path d="M140.339 114.233C140.339 132.565 10.9268 132.565 10.9268 114.233C10.9268 95.9014 140.339 95.9014 140.339 114.233Z" fill="url(#paint2_linear)"/>
<path d="M150.633 116.119C150.633 95.8099 57.0561 91.5423 17.7243 103.315C17.8246 103.432 17.9255 103.548 18.0343 103.663C15.974 105.291 14.8281 107.113 14.8281 109.131C14.8281 111.018 15.8293 112.733 17.6419 114.279L36.1617 132.798C80.5178 139.258 150.633 133.699 150.633 116.119Z" fill="url(#paint3_linear)"/>
<path d="M136.439 109.131C136.439 129.977 14.8291 129.977 14.8291 109.131C14.8291 88.2854 136.439 88.2854 136.439 109.131Z" fill="url(#paint4_linear)"/>
<g opacity="0.6">
<g opacity="0.6">
<path opacity="0.6" d="M116.77 104.749C117.88 104.749 118.78 103.639 118.78 102.27C118.78 100.901 117.88 99.791 116.77 99.791C115.66 99.791 114.76 100.901 114.76 102.27C114.76 103.639 115.66 104.749 116.77 104.749Z" fill="url(#paint5_linear)"/>
<path opacity="0.6" d="M113.038 110.639C113.915 110.639 114.625 109.762 114.625 108.681C114.625 107.6 113.915 106.724 113.038 106.724C112.162 106.724 111.452 107.6 111.452 108.681C111.452 109.762 112.162 110.639 113.038 110.639Z" fill="url(#paint6_linear)"/>
<path opacity="0.6" d="M119.955 111.504C120.483 111.504 120.912 110.975 120.912 110.324C120.912 109.672 120.483 109.144 119.955 109.144C119.426 109.144 118.998 109.672 118.998 110.324C118.998 110.975 119.426 111.504 119.955 111.504Z" fill="url(#paint7_linear)"/>
</g>
<g opacity="0.6">
<path opacity="0.6" d="M127.398 105.971C128.219 105.971 128.884 105.151 128.884 104.139C128.884 103.127 128.219 102.307 127.398 102.307C126.578 102.307 125.913 103.127 125.913 104.139C125.913 105.151 126.578 105.971 127.398 105.971Z" fill="url(#paint8_linear)"/>
<path opacity="0.6" d="M122.697 106.208C123.345 106.208 123.87 105.561 123.87 104.762C123.87 103.963 123.345 103.316 122.697 103.316C122.049 103.316 121.524 103.963 121.524 104.762C121.524 105.561 122.049 106.208 122.697 106.208Z" fill="url(#paint9_linear)"/>
<path opacity="0.6" d="M125.372 111.142C125.762 111.142 126.079 110.751 126.079 110.27C126.079 109.788 125.762 109.397 125.372 109.397C124.981 109.397 124.665 109.788 124.665 110.27C124.665 110.751 124.981 111.142 125.372 111.142Z" fill="url(#paint10_linear)"/>
</g>
</g>
<path d="M136.438 109.131C136.438 104.349 130.034 100.664 120.169 98.0759H31.0972C21.2322 100.664 14.8281 104.349 14.8281 109.131C14.8284 129.977 136.438 129.977 136.438 109.131Z" fill="url(#paint11_linear)"/>
<path d="M136.439 98.0761C136.439 118.922 14.8291 118.922 14.8291 98.0761C14.8291 77.2302 136.439 77.2302 136.439 98.0761Z" fill="url(#paint12_linear)"/>
<path d="M136.438 98.076C136.438 93.2934 130.034 89.609 120.169 87.0208H31.0972C21.2322 89.6087 14.8281 93.2934 14.8281 98.0758C14.8284 118.922 136.438 118.922 136.438 98.076Z" fill="url(#paint13_linear)"/>
<g opacity="0.6">
<g opacity="0.6">
<path opacity="0.6" d="M36.0598 101.958C37.1699 101.958 38.0698 101.096 38.0698 100.032C38.0698 98.9688 37.1699 98.1067 36.0598 98.1067C34.9497 98.1067 34.0498 98.9688 34.0498 100.032C34.0498 101.096 34.9497 101.958 36.0598 101.958Z" fill="url(#paint14_linear)"/>
<path opacity="0.6" d="M32.3275 106.532C33.2038 106.532 33.9143 105.851 33.9143 105.012C33.9143 104.172 33.2038 103.492 32.3275 103.492C31.4511 103.492 30.7407 104.172 30.7407 105.012C30.7407 105.851 31.4511 106.532 32.3275 106.532Z" fill="url(#paint15_linear)"/>
<path opacity="0.6" d="M39.2444 107.204C39.7728 107.204 40.2011 106.793 40.2011 106.287C40.2011 105.781 39.7728 105.371 39.2444 105.371C38.716 105.371 38.2876 105.781 38.2876 106.287C38.2876 106.793 38.716 107.204 39.2444 107.204Z" fill="url(#paint16_linear)"/>
</g>
<g opacity="0.6">
<path opacity="0.6" d="M46.6874 102.906C47.5077 102.906 48.1727 102.269 48.1727 101.483C48.1727 100.698 47.5077 100.061 46.6874 100.061C45.8671 100.061 45.2021 100.698 45.2021 101.483C45.2021 102.269 45.8671 102.906 46.6874 102.906Z" fill="url(#paint17_linear)"/>
<path opacity="0.6" d="M41.9861 103.091C42.6338 103.091 43.1588 102.588 43.1588 101.967C43.1588 101.347 42.6338 100.844 41.9861 100.844C41.3385 100.844 40.8135 101.347 40.8135 101.967C40.8135 102.588 41.3385 103.091 41.9861 103.091Z" fill="url(#paint18_linear)"/>
<path opacity="0.6" d="M44.6604 106.922C45.0507 106.922 45.3671 106.619 45.3671 106.245C45.3671 105.871 45.0507 105.568 44.6604 105.568C44.27 105.568 43.9536 105.871 43.9536 106.245C43.9536 106.619 44.27 106.922 44.6604 106.922Z" fill="url(#paint19_linear)"/>
</g>
</g>
<path d="M136.439 87.0209C136.439 107.867 14.8291 107.867 14.8291 87.0209C14.8291 66.175 136.439 66.175 136.439 87.0209Z" fill="url(#paint20_linear)"/>
<path d="M136.438 87.0209C136.438 82.2382 130.034 78.5538 120.169 75.9656H31.0972C21.2322 78.5535 14.8281 82.2382 14.8281 87.0206C14.8284 107.867 136.438 107.867 136.438 87.0209Z" fill="url(#paint21_linear)"/>
<g opacity="0.6">
<g opacity="0.6">
<path opacity="0.6" d="M79.0769 94.2513C80.187 94.2513 81.0869 93.3892 81.0869 92.3257C81.0869 91.2623 80.187 90.4001 79.0769 90.4001C77.9668 90.4001 77.0669 91.2623 77.0669 92.3257C77.0669 93.3892 77.9668 94.2513 79.0769 94.2513Z" fill="url(#paint22_linear)"/>
<path opacity="0.6" d="M75.3446 98.8249C76.2209 98.8249 76.9313 98.1444 76.9313 97.3049C76.9313 96.4654 76.2209 95.7849 75.3446 95.7849C74.4682 95.7849 73.7578 96.4654 73.7578 97.3049C73.7578 98.1444 74.4682 98.8249 75.3446 98.8249Z" fill="url(#paint23_linear)"/>
<path opacity="0.6" d="M82.2614 99.497C82.7899 99.497 83.2182 99.0867 83.2182 98.5805C83.2182 98.0744 82.7899 97.6641 82.2614 97.6641C81.733 97.6641 81.3047 98.0744 81.3047 98.5805C81.3047 99.0867 81.733 99.497 82.2614 99.497Z" fill="url(#paint24_linear)"/>
</g>
</g>
<path d="M136.439 75.9657C136.439 96.8116 14.8291 96.8116 14.8291 75.9657C14.8291 55.1198 136.439 55.1198 136.439 75.9657Z" fill="url(#paint25_linear)"/>
<path d="M136.438 75.9657C136.438 71.1831 130.034 67.4986 120.169 64.9104H31.0972C21.2322 67.4983 14.8281 71.183 14.8281 75.9654C14.8284 96.8116 136.438 96.8116 136.438 75.9657Z" fill="url(#paint26_linear)"/>
<g opacity="0.6">
<g opacity="0.6">
<path opacity="0.6" d="M127.398 73.6758C128.218 73.6758 128.883 72.9846 128.883 72.132C128.883 71.2793 128.218 70.5881 127.398 70.5881C126.578 70.5881 125.913 71.2793 125.913 72.132C125.913 72.9846 126.578 73.6758 127.398 73.6758Z" fill="url(#paint27_linear)"/>
<path opacity="0.6" d="M122.697 73.8758C123.344 73.8758 123.869 73.3302 123.869 72.6573C123.869 71.9843 123.344 71.4387 122.697 71.4387C122.049 71.4387 121.524 71.9843 121.524 72.6573C121.524 73.3302 122.049 73.8758 122.697 73.8758Z" fill="url(#paint28_linear)"/>
<path opacity="0.6" d="M125.371 78.0329C125.762 78.0329 126.078 77.7039 126.078 77.2982C126.078 76.8924 125.762 76.5635 125.371 76.5635C124.981 76.5635 124.665 76.8924 124.665 77.2982C124.665 77.7039 124.981 78.0329 125.371 78.0329Z" fill="url(#paint29_linear)"/>
</g>
</g>
<path d="M136.439 64.9105C136.439 85.7564 14.8291 85.7564 14.8291 64.9105C14.8291 44.0647 136.439 44.0647 136.439 64.9105Z" fill="url(#paint30_linear)"/>
<path d="M136.438 64.9105C136.438 60.1279 130.034 56.4435 120.169 53.8552H31.0972C21.2322 56.4432 14.8281 60.1279 14.8281 64.9102C14.8284 85.7564 136.438 85.7564 136.438 64.9105Z" fill="url(#paint31_linear)"/>
<path d="M136.439 53.8555C136.439 74.7014 14.8291 74.7014 14.8291 53.8555C14.8291 33.0096 136.439 33.0093 136.439 53.8555Z" fill="url(#paint32_linear)"/>
<g opacity="0.6">
<g opacity="0.6">
<path opacity="0.6" d="M116.77 49.4731C117.88 49.4731 118.78 48.3632 118.78 46.994C118.78 45.6248 117.88 44.5149 116.77 44.5149C115.66 44.5149 114.76 45.6248 114.76 46.994C114.76 48.3632 115.66 49.4731 116.77 49.4731Z" fill="url(#paint33_linear)"/>
<path opacity="0.6" d="M113.038 55.3625C113.915 55.3625 114.625 54.4861 114.625 53.4051C114.625 52.3241 113.915 51.4478 113.038 51.4478C112.162 51.4478 111.452 52.3241 111.452 53.4051C111.452 54.4861 112.162 55.3625 113.038 55.3625Z" fill="url(#paint34_linear)"/>
<path opacity="0.6" d="M119.955 56.2277C120.483 56.2277 120.912 55.6994 120.912 55.0477C120.912 54.396 120.483 53.8677 119.955 53.8677C119.426 53.8677 118.998 54.396 118.998 55.0477C118.998 55.6994 119.426 56.2277 119.955 56.2277Z" fill="url(#paint35_linear)"/>
</g>
<g opacity="0.6">
<path opacity="0.6" d="M127.398 50.6946C128.219 50.6946 128.884 49.8744 128.884 48.8626C128.884 47.8508 128.219 47.0305 127.398 47.0305C126.578 47.0305 125.913 47.8508 125.913 48.8626C125.913 49.8744 126.578 50.6946 127.398 50.6946Z" fill="url(#paint36_linear)"/>
<path opacity="0.6" d="M122.697 50.9321C123.345 50.9321 123.87 50.2847 123.87 49.486C123.87 48.6873 123.345 48.0398 122.697 48.0398C122.049 48.0398 121.524 48.6873 121.524 49.486C121.524 50.2847 122.049 50.9321 122.697 50.9321Z" fill="url(#paint37_linear)"/>
<path opacity="0.6" d="M125.372 55.8655C125.762 55.8655 126.079 55.475 126.079 54.9934C126.079 54.5118 125.762 54.1213 125.372 54.1213C124.981 54.1213 124.665 54.5118 124.665 54.9934C124.665 55.475 124.981 55.8655 125.372 55.8655Z" fill="url(#paint38_linear)"/>
</g>
</g>
<path d="M136.438 53.8556C136.438 49.0729 130.034 45.3885 120.169 42.8003H31.0972C21.2322 45.3882 14.8281 49.0729 14.8281 53.8553C14.8284 74.7015 136.438 74.7015 136.438 53.8556Z" fill="url(#paint39_linear)"/>
<path d="M136.438 109.131C136.438 107.088 135.266 105.246 133.158 103.603C135.265 101.961 136.438 100.119 136.438 98.0758C136.438 96.0325 135.266 94.1908 133.158 92.5484C135.265 90.9058 136.438 89.064 136.438 87.0208C136.438 84.9775 135.266 83.1358 133.158 81.4934C135.265 79.8508 136.438 78.009 136.438 75.9658C136.438 73.9228 135.266 72.0807 133.158 70.4384C135.265 68.7957 136.438 66.954 136.438 64.9108C136.438 62.8675 135.266 61.0258 133.158 59.3834C135.265 57.7408 136.438 55.899 136.438 53.8558C136.438 36.6678 53.7646 33.6525 24.7505 44.8087V75.9116C24.7505 77.6963 25.6364 79.2713 26.9899 80.2305L71.4929 124.733C103.211 125.228 136.438 120.028 136.438 109.131Z" fill="url(#paint40_linear)"/>
<path d="M136.437 53.8556C136.437 42.2167 98.5303 37.0773 65.0444 38.4353V103.311C65.0444 105.076 65.9097 106.633 67.2347 107.595L84.2638 124.624C111.532 123.729 136.437 118.565 136.437 109.131C136.437 107.089 135.265 105.246 133.157 103.604C135.265 101.961 136.437 100.12 136.437 98.0765C136.437 96.0332 135.265 94.1915 133.157 92.5491C135.265 90.9065 136.437 89.0647 136.437 87.0215C136.437 84.9782 135.265 83.1364 133.157 81.4941C135.265 79.8514 136.437 78.0097 136.437 75.9665C136.437 73.9235 135.265 72.0814 133.157 70.4391C135.265 68.7964 136.437 66.9547 136.437 64.9114C136.437 62.8682 135.265 61.0264 133.157 59.3841C135.265 57.7406 136.437 55.8985 136.437 53.8556Z" fill="url(#paint41_linear)"/>
<path d="M136.438 109.131C136.438 107.088 135.266 105.246 133.158 103.603C135.265 101.961 136.438 100.119 136.438 98.0758C136.438 96.0326 135.266 94.1908 133.158 92.5485C135.265 90.9058 136.438 89.064 136.438 87.0208C136.438 84.9776 135.266 83.1358 133.158 81.4935C135.265 79.8508 136.438 78.009 136.438 75.9658C136.438 73.9229 135.266 72.0808 133.158 70.4384C135.265 68.7958 136.438 66.954 136.438 64.9108C136.438 62.8676 135.266 61.0258 133.158 59.3834C135.265 57.7408 136.438 55.899 136.438 53.8558C136.438 44.2158 110.433 39.0346 82.4741 38.3108V72.0058C82.4741 73.704 83.2771 75.2117 84.5206 76.1805L126.518 118.178C132.692 115.804 136.438 112.789 136.438 109.131Z" fill="url(#paint42_linear)"/>
<path d="M136.438 75.9656C136.438 73.9227 135.266 72.0806 133.158 70.4382C135.265 68.7956 136.438 66.9538 136.438 64.9106C136.438 62.8674 135.266 61.0256 133.158 59.3832C135.265 57.7406 136.438 55.8988 136.438 53.8556C136.438 48.6391 128.821 44.7291 117.402 42.1235V58.7665C117.402 60.3662 118.115 61.7968 119.236 62.7677L135.494 79.0256C136.11 78.0609 136.438 77.0415 136.438 75.9656Z" fill="url(#paint43_linear)"/>
<path d="M136.438 42.8002C136.438 21.9543 14.8281 21.9543 14.8281 42.8002C14.8281 45.8208 17.384 48.4031 21.7517 50.5481C23.5772 51.4446 24.7505 53.284 24.7505 55.3181V75.9111C24.7505 78.8349 27.1208 81.2052 30.0446 81.2052C32.9684 81.2052 35.3387 78.8349 35.3387 75.9111V67.7725C35.3387 61.1711 41.1128 56.067 47.6667 56.8596C50.0381 57.1464 52.4822 57.394 54.979 57.6025C60.6705 58.0778 65.0446 62.8455 65.0446 68.557V103.313C65.0446 106.236 67.4149 108.607 70.3387 108.607C73.2625 108.607 75.6328 106.236 75.6328 103.313V70.3349C75.6328 68.4461 77.164 66.9146 79.0531 66.9146C80.942 66.9146 82.4734 68.4458 82.4734 70.3349V72.004C82.4734 74.9278 84.8437 77.2981 87.7675 77.2981C90.6914 77.2981 93.0617 74.9278 93.0617 72.004V69.709C93.0617 63.1102 97.9867 57.5717 104.533 56.7449C107.602 56.3572 110.543 55.9031 113.312 55.382C115.437 54.982 117.402 56.604 117.402 58.7664C117.402 61.6902 119.773 64.0605 122.696 64.0605C125.62 64.0605 127.99 61.6902 127.99 58.7664V58.7352C127.99 54.6414 129.95 50.8358 133.176 48.3155C135.274 46.6764 136.438 44.8381 136.438 42.8002Z" fill="url(#paint44_radial)"/>
<path d="M136.438 42.7996C136.438 44.8378 135.274 46.676 133.177 48.3172C129.95 50.8349 127.991 54.6408 127.991 58.7349V58.7672C127.991 58.9319 127.983 59.0966 127.968 59.2584C127.853 60.5231 127.288 61.6613 126.441 62.5113C125.483 63.4702 124.159 64.0613 122.697 64.0613C121.233 64.0613 119.909 63.4702 118.953 62.5113C117.994 61.5525 117.403 60.229 117.403 58.7672C117.403 56.6025 115.436 54.9819 113.312 55.3819C110.541 55.9025 107.603 56.3584 104.533 56.7437C100.486 57.2555 97.0561 59.5672 95.0297 62.8202L63.6885 31.479C62.5767 30.5819 61.9444 29.4584 62.0238 28.0466C62.0326 27.8702 62.0502 27.6937 62.0767 27.5202C73.5385 26.9143 85.6767 27.0878 96.7473 28.0378C118.686 29.9143 136.438 34.8349 136.438 42.7996Z" fill="url(#paint45_linear)"/>
<path d="M68.7872 20.9957C70.9536 23.1622 70.9536 26.6745 68.7872 28.8407C66.6207 31.0072 63.1083 31.0072 60.9422 28.8407C58.7757 26.6742 55.5857 19.9719 57.7519 17.8054C59.918 15.6389 66.621 18.8295 68.7872 20.9957Z" fill="url(#paint46_linear)"/>
<path d="M72.7159 20.9829C72.8132 24.417 71.2297 27.2482 69.1788 27.3064C67.1279 27.3646 65.3862 24.6279 65.2888 21.1935C65.1915 17.759 66.6315 9.87081 68.6824 9.81258C70.7332 9.75464 72.6185 17.5485 72.7159 20.9829Z" fill="url(#paint47_linear)"/>
<path d="M80.2385 15.6504C79.8585 15.6375 79.4785 15.6757 79.1097 15.7683C76.2124 16.4945 62.4621 20.3416 62.0244 28.0475C61.7518 32.8469 69.6806 34.331 76.7577 34.7039C83.2203 35.0445 88.7968 31.5995 89.1753 27.0436C89.6041 21.8833 88.3244 15.9275 80.2385 15.6504Z" fill="url(#paint48_linear)"/>
<path d="M80.2385 15.6504C79.8585 15.6375 79.4785 15.6757 79.1097 15.7683C76.2124 16.4945 62.4621 20.3416 62.0244 28.0475C61.7518 32.8469 69.6806 34.331 76.7577 34.7039C83.22 35.0445 88.3244 15.9275 80.2385 15.6504Z" fill="url(#paint49_linear)"/>
<path d="M16.5119 38.7542C15.4178 40.0021 14.8281 41.3507 14.8281 42.8001C14.8281 45.8207 17.384 48.403 21.7514 50.548C23.577 51.4445 24.7505 53.2839 24.7505 55.318V75.911C24.7505 78.8348 27.1208 81.2051 30.0446 81.2051C32.9684 81.2051 35.3387 78.8348 35.3387 75.911V67.7724C35.3387 61.171 41.1128 56.0668 47.6667 56.8595C50.0381 57.1463 52.4822 57.3939 54.979 57.6024C60.6705 58.0777 65.0446 62.8454 65.0446 68.5569V103.312C65.0446 106.236 67.4149 108.607 70.3387 108.607C73.2625 108.607 75.6328 106.236 75.6328 103.312V70.3348C75.6328 68.446 77.164 66.9145 79.0531 66.9145C80.9422 66.9145 82.4734 68.4457 82.4734 70.3348V72.0039C82.4734 74.9277 84.8437 77.298 87.7675 77.298C90.6914 77.298 93.0617 74.9277 93.0617 72.0039V69.7089C93.0617 63.1101 97.9867 57.5716 104.533 56.7448C107.602 56.3571 110.543 55.903 113.312 55.3818C115.437 54.9818 117.402 56.6039 117.402 58.7663C117.402 61.6901 119.773 64.0604 122.696 64.0604C125.62 64.0604 127.99 61.6901 127.99 58.7663V58.7351C127.99 54.6413 129.95 50.8357 133.176 48.3154C135.274 46.6763 136.438 44.8377 136.438 42.7998C136.438 41.3504 135.848 40.0018 134.754 38.7539C121.206 54.2051 30.0599 54.2051 16.5119 38.7542Z" fill="url(#paint50_linear)"/>
</g>
<defs>
<linearGradient id="paint0_linear" x1="75.9123" y1="130.202" x2="76.5006" y2="139.908" gradientUnits="userSpaceOnUse">
<stop stop-color="#F8F6FB"/>
<stop offset="1" stop-color="#EFDCFB"/>
</linearGradient>
<linearGradient id="paint1_linear" x1="70.7055" y1="97.522" x2="82.2605" y2="141.132" gradientUnits="userSpaceOnUse">
<stop stop-color="#F8F6FB"/>
<stop offset="1" stop-color="#EFDCFB"/>
</linearGradient>
<linearGradient id="paint2_linear" x1="78.8588" y1="140.042" x2="73.2706" y2="95.3361" gradientUnits="userSpaceOnUse">
<stop stop-color="#F8F6FB"/>
<stop offset="1" stop-color="#EFDCFB"/>
</linearGradient>
<linearGradient id="paint3_linear" x1="85.0902" y1="130.358" x2="76.2667" y2="63.887" gradientUnits="userSpaceOnUse">
<stop stop-color="#EFDCFB" stop-opacity="0"/>
<stop offset="0.0287" stop-color="#E9D6F7" stop-opacity="0.029"/>
<stop offset="0.2203" stop-color="#C5B5DE" stop-opacity="0.22"/>
<stop offset="0.4138" stop-color="#AA9BCB" stop-opacity="0.414"/>
<stop offset="0.6078" stop-color="#9688BD" stop-opacity="0.608"/>
<stop offset="0.8028" stop-color="#8A7DB5" stop-opacity="0.803"/>
<stop offset="1" stop-color="#8679B2"/>
</linearGradient>
<linearGradient id="paint4_linear" x1="71.6391" y1="94.0542" x2="81.007" y2="129.411" gradientUnits="userSpaceOnUse">
<stop stop-color="#FFDECF"/>
<stop offset="0.3791" stop-color="#FDC4B0"/>
<stop offset="0.7655" stop-color="#FBAE97"/>
<stop offset="1" stop-color="#FAA68E"/>
</linearGradient>
<linearGradient id="paint5_linear" x1="119.055" y1="105.296" x2="113.044" y2="95.9162" gradientUnits="userSpaceOnUse">
<stop stop-color="#F82814" stop-opacity="0"/>
<stop offset="0.2454" stop-color="#F12817" stop-opacity="0.245"/>
<stop offset="0.6052" stop-color="#DD2820" stop-opacity="0.605"/>
<stop offset="1" stop-color="#C0272D"/>
</linearGradient>
<linearGradient id="paint6_linear" x1="114.914" y1="111.076" x2="110.169" y2="103.671" gradientUnits="userSpaceOnUse">
<stop stop-color="#F82814" stop-opacity="0"/>
<stop offset="0.2454" stop-color="#F12817" stop-opacity="0.245"/>
<stop offset="0.6052" stop-color="#DD2820" stop-opacity="0.605"/>
<stop offset="1" stop-color="#C0272D"/>
</linearGradient>
<linearGradient id="paint7_linear" x1="121.228" y1="111.773" x2="118.368" y2="107.308" gradientUnits="userSpaceOnUse">
<stop stop-color="#F82814" stop-opacity="0"/>
<stop offset="0.2454" stop-color="#F12817" stop-opacity="0.245"/>
<stop offset="0.6052" stop-color="#DD2820" stop-opacity="0.605"/>
<stop offset="1" stop-color="#C0272D"/>
</linearGradient>
<linearGradient id="paint8_linear" x1="126.887" y1="106.793" x2="129.18" y2="98.5394" gradientUnits="userSpaceOnUse">
<stop stop-color="#F82814" stop-opacity="0"/>
<stop offset="0.2454" stop-color="#F12817" stop-opacity="0.245"/>
<stop offset="0.6052" stop-color="#DD2820" stop-opacity="0.605"/>
<stop offset="1" stop-color="#C0272D"/>
</linearGradient>
<linearGradient id="paint9_linear" x1="122.339" y1="106.858" x2="124.15" y2="100.343" gradientUnits="userSpaceOnUse">
<stop stop-color="#F82814" stop-opacity="0"/>
<stop offset="0.2454" stop-color="#F12817" stop-opacity="0.245"/>
<stop offset="0.6052" stop-color="#DD2820" stop-opacity="0.605"/>
<stop offset="1" stop-color="#C0272D"/>
</linearGradient>
<linearGradient id="paint10_linear" x1="125.247" y1="111.535" x2="126.339" y2="107.607" gradientUnits="userSpaceOnUse">
<stop stop-color="#F82814" stop-opacity="0"/>
<stop offset="0.2454" stop-color="#F12817" stop-opacity="0.245"/>
<stop offset="0.6052" stop-color="#DD2820" stop-opacity="0.605"/>
<stop offset="1" stop-color="#C0272D"/>
</linearGradient>
<linearGradient id="paint11_linear" x1="75.6331" y1="118.824" x2="75.6331" y2="131.572" gradientUnits="userSpaceOnUse">
<stop stop-color="#F82814" stop-opacity="0"/>
<stop offset="0.2458" stop-color="#F32816" stop-opacity="0.246"/>
<stop offset="0.5506" stop-color="#E3281D" stop-opacity="0.551"/>
<stop offset="0.8853" stop-color="#CA2728" stop-opacity="0.885"/>
<stop offset="1" stop-color="#C0272D"/>
</linearGradient>
<linearGradient id="paint12_linear" x1="71.6391" y1="82.999" x2="81.0071" y2="118.355" gradientUnits="userSpaceOnUse">
<stop stop-color="#FFDECF"/>
<stop offset="0.3791" stop-color="#FDC4B0"/>
<stop offset="0.7655" stop-color="#FBAE97"/>
<stop offset="1" stop-color="#FAA68E"/>
</linearGradient>
<linearGradient id="paint13_linear" x1="75.6331" y1="108.431" x2="75.6331" y2="119.412" gradientUnits="userSpaceOnUse">
<stop stop-color="#F82814" stop-opacity="0"/>
<stop offset="0.2458" stop-color="#F32816" stop-opacity="0.246"/>
<stop offset="0.5506" stop-color="#E3281D" stop-opacity="0.551"/>
<stop offset="0.8853" stop-color="#CA2728" stop-opacity="0.885"/>
<stop offset="1" stop-color="#C0272D"/>
</linearGradient>
<linearGradient id="paint14_linear" x1="37.9718" y1="102.551" x2="32.9884" y2="94.7737" gradientUnits="userSpaceOnUse">
<stop stop-color="#F82814" stop-opacity="0"/>
<stop offset="0.2454" stop-color="#F12817" stop-opacity="0.245"/>
<stop offset="0.6052" stop-color="#DD2820" stop-opacity="0.605"/>
<stop offset="1" stop-color="#C0272D"/>
</linearGradient>
<linearGradient id="paint15_linear" x1="33.9008" y1="107.006" x2="29.9664" y2="100.867" gradientUnits="userSpaceOnUse">
<stop stop-color="#F82814" stop-opacity="0"/>
<stop offset="0.2454" stop-color="#F12817" stop-opacity="0.245"/>
<stop offset="0.6052" stop-color="#DD2820" stop-opacity="0.605"/>
<stop offset="1" stop-color="#C0272D"/>
</linearGradient>
<linearGradient id="paint16_linear" x1="40.3187" y1="107.498" x2="37.9467" y2="103.796" gradientUnits="userSpaceOnUse">
<stop stop-color="#F82814" stop-opacity="0"/>
<stop offset="0.2454" stop-color="#F12817" stop-opacity="0.245"/>
<stop offset="0.6052" stop-color="#DD2820" stop-opacity="0.605"/>
<stop offset="1" stop-color="#C0272D"/>
</linearGradient>
<linearGradient id="paint17_linear" x1="46.3075" y1="103.592" x2="48.1165" y2="97.0805" gradientUnits="userSpaceOnUse">
<stop stop-color="#F82814" stop-opacity="0"/>
<stop offset="0.2454" stop-color="#F12817" stop-opacity="0.245"/>
<stop offset="0.6052" stop-color="#DD2820" stop-opacity="0.605"/>
<stop offset="1" stop-color="#C0272D"/>
</linearGradient>
<linearGradient id="paint18_linear" x1="41.7271" y1="103.636" x2="43.1556" y2="98.4958" gradientUnits="userSpaceOnUse">
<stop stop-color="#F82814" stop-opacity="0"/>
<stop offset="0.2454" stop-color="#F12817" stop-opacity="0.245"/>
<stop offset="0.6052" stop-color="#DD2820" stop-opacity="0.605"/>
<stop offset="1" stop-color="#C0272D"/>
</linearGradient>
<linearGradient id="paint19_linear" x1="44.5853" y1="107.258" x2="45.4466" y2="104.159" gradientUnits="userSpaceOnUse">
<stop stop-color="#F82814" stop-opacity="0"/>
<stop offset="0.2454" stop-color="#F12817" stop-opacity="0.245"/>
<stop offset="0.6052" stop-color="#DD2820" stop-opacity="0.605"/>
<stop offset="1" stop-color="#C0272D"/>
</linearGradient>
<linearGradient id="paint20_linear" x1="71.6391" y1="71.9438" x2="81.0071" y2="107.3" gradientUnits="userSpaceOnUse">
<stop stop-color="#FFDECF"/>
<stop offset="0.3791" stop-color="#FDC4B0"/>
<stop offset="0.7655" stop-color="#FBAE97"/>
<stop offset="1" stop-color="#FAA68E"/>
</linearGradient>
<linearGradient id="paint21_linear" x1="75.6331" y1="96.8626" x2="75.6331" y2="110.59" gradientUnits="userSpaceOnUse">
<stop stop-color="#F82814" stop-opacity="0"/>
<stop offset="0.2458" stop-color="#F32816" stop-opacity="0.246"/>
<stop offset="0.5506" stop-color="#E3281D" stop-opacity="0.551"/>
<stop offset="0.8853" stop-color="#CA2728" stop-opacity="0.885"/>
<stop offset="1" stop-color="#C0272D"/>
</linearGradient>
<linearGradient id="paint22_linear" x1="81.0102" y1="94.8352" x2="76.0268" y2="87.0582" gradientUnits="userSpaceOnUse">
<stop stop-color="#F82814" stop-opacity="0"/>
<stop offset="0.2454" stop-color="#F12817" stop-opacity="0.245"/>
<stop offset="0.6052" stop-color="#DD2820" stop-opacity="0.605"/>
<stop offset="1" stop-color="#C0272D"/>
</linearGradient>
<linearGradient id="paint23_linear" x1="76.9392" y1="99.2909" x2="73.0048" y2="93.1514" gradientUnits="userSpaceOnUse">
<stop stop-color="#F82814" stop-opacity="0"/>
<stop offset="0.2454" stop-color="#F12817" stop-opacity="0.245"/>
<stop offset="0.6052" stop-color="#DD2820" stop-opacity="0.605"/>
<stop offset="1" stop-color="#C0272D"/>
</linearGradient>
<linearGradient id="paint24_linear" x1="83.3571" y1="99.7821" x2="80.9854" y2="96.0808" gradientUnits="userSpaceOnUse">
<stop stop-color="#F82814" stop-opacity="0"/>
<stop offset="0.2454" stop-color="#F12817" stop-opacity="0.245"/>
<stop offset="0.6052" stop-color="#DD2820" stop-opacity="0.605"/>
<stop offset="1" stop-color="#C0272D"/>
</linearGradient>
<linearGradient id="paint25_linear" x1="71.6391" y1="60.8887" x2="81.0071" y2="96.2448" gradientUnits="userSpaceOnUse">
<stop stop-color="#FFDECF"/>
<stop offset="0.3791" stop-color="#FDC4B0"/>
<stop offset="0.7655" stop-color="#FBAE97"/>
<stop offset="1" stop-color="#FAA68E"/>
</linearGradient>
<linearGradient id="paint26_linear" x1="75.6331" y1="84.7057" x2="75.6331" y2="98.8289" gradientUnits="userSpaceOnUse">
<stop stop-color="#F82814" stop-opacity="0"/>
<stop offset="0.2458" stop-color="#F32816" stop-opacity="0.246"/>
<stop offset="0.5506" stop-color="#E3281D" stop-opacity="0.551"/>
<stop offset="0.8853" stop-color="#CA2728" stop-opacity="0.885"/>
<stop offset="1" stop-color="#C0272D"/>
</linearGradient>
<linearGradient id="paint27_linear" x1="126.99" y1="74.3812" x2="128.941" y2="67.3581" gradientUnits="userSpaceOnUse">
<stop stop-color="#F82814" stop-opacity="0"/>
<stop offset="0.2454" stop-color="#F12817" stop-opacity="0.245"/>
<stop offset="0.6052" stop-color="#DD2820" stop-opacity="0.605"/>
<stop offset="1" stop-color="#C0272D"/>
</linearGradient>
<linearGradient id="paint28_linear" x1="122.42" y1="74.4317" x2="123.96" y2="68.8875" gradientUnits="userSpaceOnUse">
<stop stop-color="#F82814" stop-opacity="0"/>
<stop offset="0.2454" stop-color="#F12817" stop-opacity="0.245"/>
<stop offset="0.6052" stop-color="#DD2820" stop-opacity="0.605"/>
<stop offset="1" stop-color="#C0272D"/>
</linearGradient>
<linearGradient id="paint29_linear" x1="125.293" y1="78.3653" x2="126.222" y2="75.0227" gradientUnits="userSpaceOnUse">
<stop stop-color="#F82814" stop-opacity="0"/>
<stop offset="0.2454" stop-color="#F12817" stop-opacity="0.245"/>
<stop offset="0.6052" stop-color="#DD2820" stop-opacity="0.605"/>
<stop offset="1" stop-color="#C0272D"/>
</linearGradient>
<linearGradient id="paint30_linear" x1="71.6391" y1="49.8335" x2="81.007" y2="85.1897" gradientUnits="userSpaceOnUse">
<stop stop-color="#FFDECF"/>
<stop offset="0.3791" stop-color="#FDC4B0"/>
<stop offset="0.7655" stop-color="#FBAE97"/>
<stop offset="1" stop-color="#FAA68E"/>
</linearGradient>
<linearGradient id="paint31_linear" x1="75.6331" y1="75.0979" x2="75.6331" y2="86.8632" gradientUnits="userSpaceOnUse">
<stop stop-color="#F82814" stop-opacity="0"/>
<stop offset="0.2458" stop-color="#F32816" stop-opacity="0.246"/>
<stop offset="0.5506" stop-color="#E3281D" stop-opacity="0.551"/>
<stop offset="0.8853" stop-color="#CA2728" stop-opacity="0.885"/>
<stop offset="1" stop-color="#C0272D"/>
</linearGradient>
<linearGradient id="paint32_linear" x1="71.6391" y1="38.7781" x2="81.007" y2="74.1346" gradientUnits="userSpaceOnUse">
<stop stop-color="#FFDECF"/>
<stop offset="0.3791" stop-color="#FDC4B0"/>
<stop offset="0.7655" stop-color="#FBAE97"/>
<stop offset="1" stop-color="#FAA68E"/>
</linearGradient>
<linearGradient id="paint33_linear" x1="119.048" y1="49.9921" x2="113.038" y2="40.6116" gradientUnits="userSpaceOnUse">
<stop stop-color="#F82814" stop-opacity="0"/>
<stop offset="0.2454" stop-color="#F12817" stop-opacity="0.245"/>
<stop offset="0.6052" stop-color="#DD2820" stop-opacity="0.605"/>
<stop offset="1" stop-color="#C0272D"/>
</linearGradient>
<linearGradient id="paint34_linear" x1="114.908" y1="55.7715" x2="110.163" y2="48.3664" gradientUnits="userSpaceOnUse">
<stop stop-color="#F82814" stop-opacity="0"/>
<stop offset="0.2454" stop-color="#F12817" stop-opacity="0.245"/>
<stop offset="0.6052" stop-color="#DD2820" stop-opacity="0.605"/>
<stop offset="1" stop-color="#C0272D"/>
</linearGradient>
<linearGradient id="paint35_linear" x1="121.222" y1="56.4683" x2="118.361" y2="52.0038" gradientUnits="userSpaceOnUse">
<stop stop-color="#F82814" stop-opacity="0"/>
<stop offset="0.2454" stop-color="#F12817" stop-opacity="0.245"/>
<stop offset="0.6052" stop-color="#DD2820" stop-opacity="0.605"/>
<stop offset="1" stop-color="#C0272D"/>
</linearGradient>
<linearGradient id="paint36_linear" x1="126.876" y1="51.5006" x2="129.169" y2="43.247" gradientUnits="userSpaceOnUse">
<stop stop-color="#F82814" stop-opacity="0"/>
<stop offset="0.2454" stop-color="#F12817" stop-opacity="0.245"/>
<stop offset="0.6052" stop-color="#DD2820" stop-opacity="0.605"/>
<stop offset="1" stop-color="#C0272D"/>
</linearGradient>
<linearGradient id="paint37_linear" x1="122.329" y1="51.5661" x2="124.139" y2="45.0504" gradientUnits="userSpaceOnUse">
<stop stop-color="#F82814" stop-opacity="0"/>
<stop offset="0.2454" stop-color="#F12817" stop-opacity="0.245"/>
<stop offset="0.6052" stop-color="#DD2820" stop-opacity="0.605"/>
<stop offset="1" stop-color="#C0272D"/>
</linearGradient>
<linearGradient id="paint38_linear" x1="125.237" y1="56.2426" x2="126.328" y2="52.3144" gradientUnits="userSpaceOnUse">
<stop stop-color="#F82814" stop-opacity="0"/>
<stop offset="0.2454" stop-color="#F12817" stop-opacity="0.245"/>
<stop offset="0.6052" stop-color="#DD2820" stop-opacity="0.605"/>
<stop offset="1" stop-color="#C0272D"/>
</linearGradient>
<linearGradient id="paint39_linear" x1="75.6331" y1="61.9609" x2="75.6331" y2="77.4512" gradientUnits="userSpaceOnUse">
<stop stop-color="#F82814" stop-opacity="0"/>
<stop offset="0.2458" stop-color="#F32816" stop-opacity="0.246"/>
<stop offset="0.5506" stop-color="#E3281D" stop-opacity="0.551"/>
<stop offset="0.8853" stop-color="#CA2728" stop-opacity="0.885"/>
<stop offset="1" stop-color="#C0272D"/>
</linearGradient>
<linearGradient id="paint40_linear" x1="91.3302" y1="78.0725" x2="11.6334" y2="16.7854" gradientUnits="userSpaceOnUse">
<stop stop-color="#F82814" stop-opacity="0"/>
<stop offset="0.2461" stop-color="#F12817" stop-opacity="0.246"/>
<stop offset="0.6105" stop-color="#DD2820" stop-opacity="0.611"/>
<stop offset="1" stop-color="#C0272D"/>
</linearGradient>
<linearGradient id="paint41_linear" x1="111.901" y1="87.8862" x2="52.2933" y2="57.8862" gradientUnits="userSpaceOnUse">
<stop stop-color="#F82814" stop-opacity="0"/>
<stop offset="0.2461" stop-color="#F12817" stop-opacity="0.246"/>
<stop offset="0.6105" stop-color="#DD2820" stop-opacity="0.611"/>
<stop offset="1" stop-color="#C0272D"/>
</linearGradient>
<linearGradient id="paint42_linear" x1="115.95" y1="74.2996" x2="68.8912" y2="44.1034" gradientUnits="userSpaceOnUse">
<stop stop-color="#F82814" stop-opacity="0"/>
<stop offset="0.2461" stop-color="#F12817" stop-opacity="0.246"/>
<stop offset="0.6105" stop-color="#DD2820" stop-opacity="0.611"/>
<stop offset="1" stop-color="#C0272D"/>
</linearGradient>
<linearGradient id="paint43_linear" x1="136.655" y1="65.803" x2="118.812" y2="49.2341" gradientUnits="userSpaceOnUse">
<stop stop-color="#F82814" stop-opacity="0"/>
<stop offset="0.2461" stop-color="#F12817" stop-opacity="0.246"/>
<stop offset="0.6105" stop-color="#DD2820" stop-opacity="0.611"/>
<stop offset="1" stop-color="#C0272D"/>
</linearGradient>
<radialGradient id="paint44_radial" cx="0" cy="0" r="1" gradientUnits="userSpaceOnUse" gradientTransform="translate(60.0446 27.0917) scale(77.6521 54.7447)">
<stop stop-color="#FFD945"/>
<stop offset="0.3126" stop-color="#FFD643"/>
<stop offset="0.5593" stop-color="#FFCC3D"/>
<stop offset="0.7826" stop-color="#FFBB33"/>
<stop offset="0.9922" stop-color="#FFA426"/>
<stop offset="1" stop-color="#FFA325"/>
</radialGradient>
<linearGradient id="paint45_linear" x1="104.326" y1="46.4372" x2="66.4829" y2="-35.7195" gradientUnits="userSpaceOnUse">
<stop stop-color="#F82814" stop-opacity="0"/>
<stop offset="1" stop-color="#C0272D"/>
</linearGradient>
<linearGradient id="paint46_linear" x1="58.6965" y1="24.7419" x2="68.7973" y2="22.0838" gradientUnits="userSpaceOnUse">
<stop stop-color="#BADA00"/>
<stop offset="0.2269" stop-color="#B0CE00"/>
<stop offset="0.6378" stop-color="#95AE00"/>
<stop offset="1" stop-color="#798C00"/>
</linearGradient>
<linearGradient id="paint47_linear" x1="65.9728" y1="16.1574" x2="73.2609" y2="18.4637" gradientUnits="userSpaceOnUse">
<stop stop-color="#BADA00"/>
<stop offset="0.2269" stop-color="#B0CE00"/>
<stop offset="0.6378" stop-color="#95AE00"/>
<stop offset="1" stop-color="#798C00"/>
</linearGradient>
<linearGradient id="paint48_linear" x1="74.4962" y1="22.4504" x2="78.2871" y2="34.1677" gradientUnits="userSpaceOnUse">
<stop stop-color="#FFA936"/>
<stop offset="0.4112" stop-color="#FF8548"/>
<stop offset="0.7781" stop-color="#FF6C54"/>
<stop offset="1" stop-color="#FF6359"/>
</linearGradient>
<linearGradient id="paint49_linear" x1="73.8191" y1="24.9278" x2="88.0644" y2="43.5386" gradientUnits="userSpaceOnUse">
<stop stop-color="#F82814" stop-opacity="0"/>
<stop offset="1" stop-color="#C0272D"/>
</linearGradient>
<linearGradient id="paint50_linear" x1="67.9096" y1="57.5204" x2="167.91" y2="-133.068" gradientUnits="userSpaceOnUse">
<stop stop-color="#F82814" stop-opacity="0"/>
<stop offset="1" stop-color="#C0272D"/>
</linearGradient>
<clipPath id="clip0">
<rect width="150" height="150" fill="white" transform="translate(0.632812)"/>
</clipPath>
</defs>
</svg>
