<svg width="151" height="150" viewBox="0 0 151 150" fill="none" xmlns="http://www.w3.org/2000/svg">
<g clip-path="url(#clip0)">
<path d="M66.5653 28.7947C66.5653 28.7947 20.9962 56.6735 4.14797 132.438C2.89415 138.076 9.33974 142.24 13.9553 138.768C34.1553 123.575 77.0977 96.4411 136.517 86.6873C143.289 85.5756 146.708 77.9338 143.024 72.1429C134.049 58.0353 113.033 36.3176 66.5653 28.7947Z" fill="url(#paint0_linear)"/>
<path d="M142.913 71.9709C77.6254 79.9062 30.4898 109.522 9.02831 125.664C7.89831 126.514 6.6589 126.905 5.44948 126.931C4.99978 128.744 4.56154 130.577 4.14566 132.447C2.89301 138.082 9.34243 142.238 13.9554 138.768C34.1589 123.572 77.113 96.4315 136.548 86.6824C143.281 85.578 146.714 77.9565 143.057 72.1965C143.009 72.1215 142.962 72.0462 142.913 71.9709Z" fill="url(#paint1_linear)"/>
<path d="M145.42 77.5877C145.42 77.5877 133.552 34.9838 62.5327 25.1379C62.5327 25.1379 17.173 52.6294 0.831188 125.57C-0.385283 131 6.08325 134.877 10.6756 131.469C12.4288 130.169 14.3544 128.778 16.4488 127.316C19.0706 125.485 22.6703 127.364 22.6703 130.561V130.789C22.6703 134.169 25.4106 136.91 28.7912 136.91C32.1718 136.91 34.9121 134.169 34.9121 130.789V124.377C34.9121 118.809 37.9506 113.686 42.8394 111.021C54.8041 104.499 68.9756 97.8521 85.1347 92.0853C87.7106 91.1662 90.4224 93.0788 90.4224 95.8141C90.4224 99.1947 93.1627 101.935 96.5432 101.935C99.9238 101.935 102.664 99.1947 102.664 95.8141V87.9359C102.664 87.0497 103.254 86.2718 104.106 86.0318L104.146 86.0206C105.415 85.6635 106.674 86.6174 106.674 87.9353V107.881C106.674 111.261 109.414 114.001 112.795 114.001C116.176 114.001 118.916 111.261 118.916 107.881V90.8588C118.916 85.8106 122.481 81.4485 127.437 80.4868C133.266 79.3559 139.262 78.38 145.42 77.5877Z" fill="url(#paint2_linear)"/>
<path d="M62.5326 25.1382C62.5326 25.1382 53.8717 30.3879 42.7559 42.3841L100.684 100.313C101.899 99.1941 102.664 97.5955 102.664 95.8144V87.9361C102.664 87.0499 103.254 86.272 104.107 86.032L104.147 86.0208C105.416 85.6638 106.674 86.6176 106.674 87.9355V106.303L114.204 113.832C116.904 113.195 118.916 110.776 118.916 107.881V90.8588C118.916 85.8105 122.481 81.4485 127.437 80.4867C133.266 79.3555 139.262 78.3797 145.42 77.5876C145.42 77.5876 133.552 34.9838 62.5326 25.1382Z" fill="url(#paint3_linear)"/>
<path d="M77.3355 39.4402C76.7349 38.7599 76.0378 38.1134 75.2419 37.5131C68.7519 32.619 58.2293 32.619 51.7393 37.5131C45.5869 42.1525 45.271 49.5228 50.7831 54.4467L98.0714 101.735C100.711 101.055 102.664 98.6658 102.664 95.814V87.9358C102.664 87.0496 103.254 86.2717 104.107 86.0317L104.147 86.0205C105.415 85.6634 106.674 86.6173 106.674 87.9352V107.88C106.674 109.345 107.19 110.688 108.047 111.741C108.464 112.173 108.925 112.589 109.424 112.988C110.391 113.627 111.549 114.002 112.795 114.002C116.175 114.002 118.916 111.261 118.916 107.881V90.8587C118.916 88.1549 119.939 85.6487 121.65 83.7555L77.3355 39.4402Z" fill="url(#paint4_linear)"/>
<path d="M54.4354 59.11C52.1848 56.5079 48.1198 54.7703 43.4786 54.7703C36.3971 54.7703 30.6562 58.815 30.6562 63.8047C30.6562 65.9344 31.7048 67.8906 33.4545 69.435L64.3339 100.411C70.8436 97.5173 77.781 94.7097 85.1348 92.0853C85.8104 91.8441 86.4942 91.802 87.1371 91.9144L54.4354 59.11Z" fill="url(#paint5_linear)"/>
<path d="M107.012 66.447C104.733 63.9412 100.749 62.2788 96.2112 62.2788C89.1297 62.2788 83.3888 66.3235 83.3888 71.3132C83.3888 71.517 83.4018 71.7185 83.4206 71.9188C77.887 68.9923 70.2035 69.3903 65.2597 73.1185C60.055 77.0435 59.7412 83.2591 64.3168 87.4612L73.4088 96.5532C77.1912 95.0197 81.1009 93.5253 85.1344 92.0859C87.7103 91.1668 90.4221 93.0794 90.4221 95.8147C90.4221 99.1953 93.1623 101.936 96.5429 101.936C99.9235 101.936 102.664 99.1953 102.664 95.8147V87.9365C102.664 87.0503 103.253 86.2723 104.106 86.0323L104.146 86.0212C105.415 85.6641 106.674 86.6179 106.674 87.9359V107.881C106.674 111.262 109.414 114.002 112.795 114.002C116.175 114.002 118.916 111.262 118.916 107.881V90.8588C118.916 87.4879 120.507 84.4247 123.039 82.4738L107.012 66.447Z" fill="url(#paint6_linear)"/>
<path d="M63.4386 100.812L52.9189 90.2921C50.6401 87.7859 46.6557 86.1233 42.1174 86.1233C36.5624 86.1233 31.8336 88.6127 30.0527 92.0942C24.8633 90.3898 18.5989 91.1351 14.3545 94.3359C9.14947 98.2609 8.83595 104.477 13.4118 108.679L34.9121 130.179V124.377C34.9121 118.809 37.9507 113.686 42.8395 111.022C49.1083 107.604 55.9892 104.153 63.4386 100.812Z" fill="url(#paint7_linear)"/>
<path d="M29.4393 75.2551C29.7214 74.7234 29.519 74.0637 28.9876 73.7816C28.4558 73.4995 27.7961 73.7019 27.514 74.2334C27.232 74.7651 27.4343 75.4248 27.9658 75.7069C28.4973 75.9893 29.157 75.7869 29.4393 75.2551Z" fill="#FFEAA2"/>
<path d="M25.8614 75.6945C25.4417 75.4718 24.9208 75.6315 24.6981 76.0513C24.4755 76.471 24.6352 76.9918 25.0549 77.2145C25.4746 77.4371 25.9955 77.2774 26.2181 76.8577C26.4408 76.4377 26.2811 75.9171 25.8614 75.6945Z" fill="#FFEAA2"/>
<path d="M26.8066 80.1799C26.5537 80.0458 26.2396 80.142 26.1055 80.3949C25.9713 80.6479 26.0675 80.962 26.3205 81.0961C26.5734 81.2305 26.8875 81.134 27.0216 80.8811C27.156 80.6282 27.0599 80.3143 26.8066 80.1799Z" fill="#FFEAA2"/>
<path d="M34.2445 81.6125C33.6427 81.5954 33.1412 82.0696 33.1245 82.671C33.1074 83.2728 33.5815 83.7743 34.183 83.791C34.7848 83.8081 35.2862 83.334 35.303 82.7325C35.3201 82.1307 34.8462 81.6293 34.2445 81.6125Z" fill="#FFEAA2"/>
<path d="M39.9147 73.9034C39.4397 73.8899 39.0439 74.2643 39.0306 74.739C39.0171 75.214 39.3915 75.6099 39.8662 75.6234C40.3412 75.637 40.7371 75.2626 40.7506 74.7876C40.7639 74.3126 40.3897 73.9167 39.9147 73.9034Z" fill="#FFEAA2"/>
<path d="M31.9221 74.2304C31.6356 74.2225 31.3971 74.4481 31.3889 74.7343C31.3809 75.0207 31.6065 75.2593 31.8927 75.2675C32.1792 75.2754 32.4177 75.0498 32.4259 74.7637C32.4342 74.4772 32.2086 74.2387 31.9221 74.2304Z" fill="#FFEAA2"/>
<path d="M30.2107 78.6987C29.7771 78.7975 29.5057 79.229 29.6042 79.6628C29.703 80.0963 30.1345 80.3678 30.5683 80.2693C31.0018 80.1704 31.2733 79.739 31.1748 79.3051C31.0757 78.8716 30.6442 78.6001 30.2107 78.6987Z" fill="#FFEAA2"/>
<path d="M31.112 76.4503C30.7697 76.5283 30.5552 76.8692 30.6332 77.2115C30.7111 77.5539 31.052 77.7683 31.3944 77.6903C31.7367 77.6124 31.9511 77.2715 31.8732 76.9291C31.795 76.5868 31.4544 76.3724 31.112 76.4503Z" fill="#FFEAA2"/>
<path d="M28.5281 77.694C28.7345 77.647 28.8637 77.4417 28.8166 77.2352C28.7695 77.0288 28.5642 76.8996 28.3578 76.9467C28.1513 76.9937 28.0222 77.199 28.0692 77.4055C28.1163 77.612 28.3216 77.7411 28.5281 77.694Z" fill="#FFEAA2"/>
<path d="M49.6434 72.0359C49.9255 71.5041 49.7231 70.8444 49.1917 70.5624C48.6599 70.2803 48.0002 70.4827 47.7181 71.0141C47.4361 71.5459 47.6384 72.2056 48.1699 72.4877C48.7017 72.7697 49.3614 72.5674 49.6434 72.0359Z" fill="#FFEAA2"/>
<path d="M44.3672 81.4084C43.9475 81.1857 43.4267 81.3454 43.204 81.7651C42.9814 82.1848 43.1411 82.7057 43.5608 82.9283C43.9805 83.151 44.5014 82.9913 44.724 82.5716C44.9467 82.1519 44.7869 81.631 44.3672 81.4084Z" fill="#FFEAA2"/>
<path d="M43.0068 76.6747C42.7539 76.5403 42.4398 76.6367 42.3057 76.8897C42.1715 77.1426 42.2677 77.4567 42.5207 77.5909C42.7736 77.7253 43.0877 77.6288 43.2218 77.3759C43.3559 77.1229 43.2598 76.8091 43.0068 76.6747Z" fill="#FFEAA2"/>
<path d="M55.5785 73.5063C54.9767 73.4892 54.4752 73.9634 54.4585 74.5648C54.4414 75.1666 54.9155 75.6681 55.517 75.6848C56.1187 75.7019 56.6202 75.2278 56.637 74.6263C56.654 74.0248 56.1802 73.5234 55.5785 73.5063Z" fill="#FFEAA2"/>
<path d="M55.4586 72.0515C55.4722 71.5765 55.0978 71.1806 54.6228 71.1673C54.1478 71.1541 53.7519 71.5282 53.7386 72.0029C53.7251 72.4779 54.0995 72.8738 54.5742 72.8873C55.0492 72.9006 55.4451 72.5265 55.4586 72.0515Z" fill="#FFEAA2"/>
<path d="M52.1262 71.0109C51.8397 71.003 51.6012 71.2283 51.593 71.5148C51.585 71.8012 51.8106 72.0398 52.0968 72.048C52.3833 72.0559 52.6218 71.8304 52.63 71.5442C52.638 71.2577 52.4124 71.0192 52.1262 71.0109Z" fill="#FFEAA2"/>
<path d="M47.4265 78.5391C46.9929 78.6379 46.7215 79.0694 46.82 79.5032C46.9188 79.9368 47.3503 80.2082 47.7841 80.1097C48.2177 80.0109 48.4891 79.5794 48.3906 79.1456C48.2918 78.7118 47.8603 78.4403 47.4265 78.5391Z" fill="#FFEAA2"/>
<path d="M51.3161 73.2308C50.9738 73.3088 50.7593 73.6497 50.8373 73.9917C50.9152 74.3341 51.2561 74.5485 51.5982 74.4706C51.9405 74.3926 52.1549 74.0517 52.077 73.7097C51.9993 73.3673 51.6585 73.1529 51.3161 73.2308Z" fill="#FFEAA2"/>
<path d="M48.7312 74.4748C48.9377 74.4277 49.0668 74.2225 49.0197 74.016C48.9727 73.8095 48.7674 73.6804 48.5609 73.7275C48.3544 73.7745 48.2253 73.9798 48.2724 74.1863C48.3191 74.3925 48.5247 74.5219 48.7312 74.4748Z" fill="#FFEAA2"/>
<path d="M60.9432 89.5208C61.2253 88.989 61.0229 88.3293 60.4915 88.0472C59.9597 87.7652 59.3 87.9675 59.0179 88.499C58.7359 89.0308 58.9382 89.6905 59.4697 89.9725C60.0015 90.2549 60.6612 90.0525 60.9432 89.5208Z" fill="#FFEAA2"/>
<path d="M57.3653 89.9601C56.9456 89.7375 56.4247 89.8972 56.2021 90.3169C55.9794 90.7366 56.1391 91.2575 56.5588 91.4801C56.9785 91.7028 57.4994 91.543 57.722 91.1233C57.945 90.7033 57.785 90.1828 57.3653 89.9601Z" fill="#FFEAA2"/>
<path d="M58.3105 94.4455C58.0576 94.3114 57.7435 94.4076 57.6094 94.6606C57.4752 94.9135 57.5714 95.2276 57.8244 95.3617C58.0773 95.4958 58.3914 95.3997 58.5255 95.1467C58.6597 94.8938 58.5635 94.58 58.3105 94.4455Z" fill="#FFEAA2"/>
<path d="M65.7494 95.8784C65.1476 95.8613 64.6461 96.3354 64.6294 96.9369C64.6123 97.5387 65.0864 98.0401 65.6879 98.0569C66.2896 98.074 66.7911 97.5999 66.8079 96.9984C66.8246 96.3969 66.3508 95.8951 65.7494 95.8784Z" fill="#FFEAA2"/>
<path d="M114.48 71.3134C114.277 70.884 113.764 70.7007 113.334 70.904C112.905 71.1072 112.721 71.6204 112.925 72.0498C113.128 72.4793 113.641 72.6625 114.071 72.4592C114.5 72.256 114.684 71.7428 114.48 71.3134Z" fill="#FFEAA2"/>
<path d="M63.426 88.4961C63.1395 88.4881 62.901 88.7137 62.8928 88.9999C62.8848 89.2864 63.1104 89.5249 63.3966 89.5331C63.6831 89.5411 63.9216 89.3155 63.9298 89.0293C63.9378 88.7428 63.7122 88.5043 63.426 88.4961Z" fill="#FFEAA2"/>
<path d="M61.7146 92.9643C61.281 93.0631 61.0096 93.4946 61.1081 93.9284C61.2069 94.3619 61.6384 94.6334 62.0722 94.5349C62.5057 94.4361 62.7772 94.0046 62.6787 93.5708C62.5802 93.137 62.1481 92.8658 61.7146 92.9643Z" fill="#FFEAA2"/>
<path d="M62.6159 90.7159C62.2736 90.7939 62.0591 91.1348 62.1371 91.4771C62.215 91.8195 62.5559 92.0339 62.898 91.9559C63.2403 91.878 63.4547 91.5371 63.3768 91.1948C63.2989 90.8524 62.9583 90.638 62.6159 90.7159Z" fill="#FFEAA2"/>
<path d="M60.032 91.9599C60.2384 91.9128 60.3676 91.7076 60.3205 91.5011C60.2734 91.2946 60.0682 91.1655 59.8617 91.2126C59.6552 91.2596 59.5261 91.4649 59.5732 91.6714C59.6202 91.8778 59.8258 92.007 60.032 91.9599Z" fill="#FFEAA2"/>
<path d="M61.0194 41.978C61.3014 41.4463 61.0991 40.7866 60.5676 40.5045C60.0359 40.2224 59.3762 40.4248 59.0941 40.9563C58.812 41.488 59.0144 42.1477 59.5459 42.4298C60.0776 42.7122 60.7373 42.5098 61.0194 41.978Z" fill="#FFEAA2"/>
<path d="M109.809 78.6842C109.818 78.2092 109.439 77.8174 108.964 77.8092C108.489 77.801 108.097 78.1795 108.089 78.6545C108.081 79.1295 108.459 79.5213 108.934 79.5295C109.409 79.5377 109.801 79.1595 109.809 78.6842Z" fill="#FFEAA2"/>
<path d="M113.411 75.3253C113.416 75.0389 113.188 74.8027 112.902 74.7977C112.615 74.7927 112.379 75.0209 112.374 75.3074C112.369 75.5939 112.597 75.83 112.884 75.835C113.17 75.84 113.406 75.6118 113.411 75.3253Z" fill="#FFEAA2"/>
<path d="M66.9554 43.4484C66.3536 43.4314 65.8522 43.9055 65.8354 44.507C65.8183 45.1087 66.2925 45.6102 66.8939 45.627C67.4957 45.644 67.9972 45.1699 68.0139 44.5684C68.031 43.967 67.5569 43.4655 66.9554 43.4484Z" fill="#FFEAA2"/>
<path d="M66.8346 41.9936C66.8481 41.5186 66.4737 41.1227 65.9987 41.1095C65.5237 41.096 65.1278 41.4704 65.1146 41.9451C65.1011 42.4201 65.4755 42.816 65.9502 42.8295C66.4252 42.8427 66.8211 42.4686 66.8346 41.9936Z" fill="#FFEAA2"/>
<path d="M63.5022 40.9533C63.2157 40.9454 62.9772 41.1707 62.969 41.4572C62.961 41.7436 63.1866 41.9822 63.4728 41.9904C63.7592 41.9983 63.9978 41.7727 64.006 41.4866C64.0142 41.2001 63.7887 40.9613 63.5022 40.9533Z" fill="#FFEAA2"/>
<path d="M113.753 80.1107C113.468 79.769 112.961 79.7228 112.619 80.0072C112.277 80.2919 112.231 80.7996 112.515 81.1413C112.8 81.4831 113.308 81.5293 113.65 81.2449C113.991 80.9601 114.038 80.4525 113.753 80.1107Z" fill="#FFEAA2"/>
<path d="M62.6921 43.1732C62.3497 43.2512 62.1353 43.5921 62.2133 43.9341C62.2912 44.2765 62.6321 44.4909 62.9744 44.4129C63.3168 44.335 63.5312 43.9941 63.4533 43.6521C63.375 43.3094 63.0344 43.0953 62.6921 43.1732Z" fill="#FFEAA2"/>
<path d="M60.1072 44.4172C60.3136 44.3701 60.4428 44.1648 60.3957 43.9584C60.3486 43.7519 60.1433 43.6228 59.9369 43.6698C59.7304 43.7169 59.6013 43.9222 59.6483 44.1287C59.6954 44.3351 59.9007 44.4642 60.1072 44.4172Z" fill="#FFEAA2"/>
<path d="M90.7535 64.561C90.4338 65.071 90.588 65.7437 91.098 66.0634C91.608 66.3831 92.2806 66.229 92.6003 65.719C92.92 65.209 92.7659 64.5363 92.2559 64.2169C91.7459 63.8969 91.0733 64.051 90.7535 64.561Z" fill="#FFEAA2"/>
<path d="M94.3537 64.3809C94.7564 64.6333 95.2873 64.5115 95.5396 64.1089C95.792 63.7062 95.6702 63.1753 95.2676 62.923C94.8649 62.6706 94.334 62.7924 94.0817 63.1951C93.8293 63.5977 93.9511 64.1286 94.3537 64.3809Z" fill="#FFEAA2"/>
<path d="M93.7335 59.8388C93.9761 59.9908 94.2964 59.9176 94.4485 59.6746C94.6005 59.432 94.5273 59.1117 94.2846 58.9596C94.042 58.8076 93.7217 58.8808 93.5696 59.1235C93.4173 59.3664 93.4908 59.6867 93.7335 59.8388Z" fill="#FFEAA2"/>
<path d="M86.4191 57.8736C87.0179 57.9339 87.5523 57.4974 87.6126 56.8986C87.6729 56.2997 87.2364 55.7653 86.6376 55.705C86.0388 55.6447 85.5044 56.0812 85.4441 56.68C85.3835 57.2791 85.8203 57.8133 86.4191 57.8736Z" fill="#FFEAA2"/>
<path d="M80.2077 65.154C80.6804 65.2016 81.1024 64.8569 81.1501 64.3843C81.1977 63.9116 80.853 63.4895 80.3804 63.4419C79.9077 63.3943 79.4856 63.739 79.438 64.2116C79.3903 64.6845 79.7351 65.1063 80.2077 65.154Z" fill="#FFEAA2"/>
<path d="M88.2041 65.4041C88.4891 65.4329 88.7435 65.225 88.772 64.94C88.8009 64.655 88.5929 64.4006 88.3079 64.3721C88.0229 64.3432 87.7685 64.5512 87.74 64.8362C87.7111 65.1209 87.9191 65.3753 88.2041 65.4041Z" fill="#FFEAA2"/>
<path d="M90.2326 61.0706C90.6723 61.0033 90.9741 60.5924 90.907 60.153C90.8397 59.7133 90.4288 59.4115 89.9894 59.4786C89.5497 59.5459 89.2479 59.9568 89.315 60.3962C89.3823 60.8362 89.7932 61.138 90.2326 61.0706Z" fill="#FFEAA2"/>
<path d="M89.1712 63.2483C89.5183 63.195 89.7565 62.8709 89.7036 62.5238C89.6506 62.1768 89.3262 61.9386 88.9792 61.9915C88.6321 62.0444 88.3939 62.3688 88.4468 62.7159C88.4998 63.063 88.8242 63.3012 89.1712 63.2483Z" fill="#FFEAA2"/>
<path d="M91.839 62.1937C91.6299 62.2257 91.4861 62.4213 91.5181 62.6304C91.5502 62.8396 91.7458 62.9834 91.9549 62.9513C92.164 62.9193 92.3078 62.7237 92.2758 62.5146C92.2437 62.3054 92.0481 62.1616 91.839 62.1937Z" fill="#FFEAA2"/>
<path d="M70.3698 66.3154C70.05 66.8254 70.2042 67.498 70.7142 67.8177C71.2242 68.1374 71.8968 67.9833 72.2162 67.4733C72.5359 66.9633 72.3818 66.2907 71.8718 65.971C71.3618 65.651 70.6895 65.8054 70.3698 66.3154Z" fill="#FFEAA2"/>
<path d="M76.3078 57.3477C76.7105 57.6001 77.2414 57.4783 77.4937 57.0757C77.7461 56.673 77.6243 56.1421 77.2217 55.8898C76.819 55.6374 76.2881 55.7592 76.0358 56.1618C75.7834 56.5642 75.9052 57.0951 76.3078 57.3477Z" fill="#FFEAA2"/>
<path d="M77.3233 62.1666C77.5659 62.3187 77.8862 62.2455 78.0383 62.0025C78.1903 61.7599 78.1171 61.4396 77.8741 61.2875C77.6315 61.1355 77.3112 61.2087 77.1591 61.4513C77.0074 61.6943 77.0806 62.0146 77.3233 62.1666Z" fill="#FFEAA2"/>
<path d="M64.5558 64.4209C65.1546 64.4812 65.689 64.0447 65.7493 63.4459C65.8096 62.8471 65.3732 62.3127 64.7743 62.2524C64.1755 62.1921 63.6411 62.6286 63.5808 63.2274C63.5202 63.8262 63.957 64.3606 64.5558 64.4209Z" fill="#FFEAA2"/>
<path d="M64.5708 65.8803C64.5232 66.353 64.8679 66.775 65.3405 66.8224C65.8132 66.87 66.2352 66.5253 66.2826 66.0527C66.3302 65.58 65.9855 65.158 65.5129 65.1103C65.0402 65.063 64.6185 65.4077 64.5708 65.8803Z" fill="#FFEAA2"/>
<path d="M67.8203 67.1583C68.1053 67.1871 68.3597 66.9791 68.3882 66.6941C68.4171 66.4091 68.2091 66.1547 67.9241 66.1262C67.6391 66.0974 67.3847 66.3053 67.3562 66.5903C67.3274 66.8753 67.5353 67.1297 67.8203 67.1583Z" fill="#FFEAA2"/>
<path d="M73.049 59.9886C73.4888 59.9212 73.7905 59.5104 73.7235 59.0709C73.6561 58.6312 73.2452 58.3295 72.8058 58.3965C72.3661 58.4639 72.0643 58.8748 72.1314 59.3142C72.1985 59.7539 72.6093 60.0559 73.049 59.9886Z" fill="#FFEAA2"/>
<path d="M68.7874 65.0027C69.1345 64.9494 69.3727 64.6253 69.3198 64.2782C69.2669 63.9312 68.9424 63.6929 68.5954 63.7459C68.2483 63.7991 68.0101 64.1232 68.063 64.4703C68.116 64.8174 68.4404 65.0556 68.7874 65.0027Z" fill="#FFEAA2"/>
<path d="M71.4552 63.9483C71.2461 63.9804 71.1023 64.176 71.1344 64.3851C71.1664 64.5945 71.362 64.738 71.5711 64.706C71.7802 64.6739 71.9241 64.4783 71.892 64.2692C71.8599 64.0601 71.6644 63.9163 71.4552 63.9483Z" fill="#FFEAA2"/>
<path d="M28.934 116.234C28.8487 116.83 29.2625 117.382 29.8584 117.467C30.4543 117.553 31.0063 117.139 31.0916 116.543C31.1769 115.947 30.7631 115.395 30.1672 115.31C29.5713 115.225 29.0193 115.638 28.934 116.234Z" fill="#FFEAA2"/>
<path d="M32.1516 114.609C32.6219 114.676 33.0578 114.35 33.1251 113.879C33.1925 113.409 32.8657 112.973 32.3954 112.906C31.9251 112.838 31.4892 113.165 31.4219 113.635C31.3545 114.105 31.6813 114.542 32.1516 114.609Z" fill="#FFEAA2"/>
<path d="M29.7431 110.709C30.0266 110.749 30.2896 110.552 30.3301 110.269C30.3707 109.985 30.1737 109.722 29.8901 109.682C29.6066 109.641 29.3437 109.838 29.3031 110.122C29.2628 110.405 29.4596 110.668 29.7431 110.709Z" fill="#FFEAA2"/>
<path d="M22.2594 111.88C22.8312 111.692 23.1427 111.077 22.9547 110.505C22.7668 109.933 22.1512 109.621 21.5792 109.809C21.0074 109.997 20.6959 110.613 20.8839 111.185C21.0718 111.757 21.6874 112.068 22.2594 111.88Z" fill="#FFEAA2"/>
<path d="M19.5363 121.055C19.9878 120.906 20.2334 120.42 20.0851 119.969C19.9369 119.517 19.4507 119.272 18.9992 119.42C18.5478 119.568 18.3022 120.054 18.4504 120.506C18.5987 120.957 19.0848 121.203 19.5363 121.055Z" fill="#FFEAA2"/>
<path d="M26.9454 118.039C27.2175 117.95 27.3657 117.657 27.2763 117.385C27.1869 117.112 26.8936 116.964 26.6216 117.054C26.3495 117.143 26.2013 117.436 26.2907 117.708C26.3801 117.98 26.6733 118.129 26.9454 118.039Z" fill="#FFEAA2"/>
<path d="M27.0414 113.255C27.4158 113.016 27.5252 112.517 27.2852 112.143C27.0455 111.769 26.5473 111.659 26.1729 111.899C25.7985 112.139 25.689 112.637 25.929 113.012C26.169 113.386 26.667 113.495 27.0414 113.255Z" fill="#FFEAA2"/>
<path d="M26.9552 115.676C27.2508 115.487 27.3373 115.094 27.1479 114.798C26.9584 114.502 26.5652 114.416 26.2696 114.605C25.974 114.795 25.8876 115.188 26.077 115.484C26.2664 115.779 26.6596 115.865 26.9552 115.676Z" fill="#FFEAA2"/>
<path d="M28.9657 113.63C28.7875 113.744 28.7354 113.981 28.8496 114.159C28.9637 114.338 29.2007 114.39 29.379 114.276C29.5572 114.162 29.6093 113.924 29.4952 113.746C29.3813 113.568 29.1443 113.516 28.9657 113.63Z" fill="#FFEAA2"/>
<path d="M11.015 126.107C10.9298 126.703 11.3436 127.255 11.9395 127.34C12.5353 127.426 13.0874 127.012 13.1727 126.416C13.258 125.82 12.8442 125.268 12.2483 125.183C11.6527 125.097 11.1006 125.511 11.015 126.107Z" fill="#FFEAA2"/>
<path d="M12.8039 115.502C13.2742 115.569 13.7101 115.242 13.7775 114.772C13.8448 114.302 13.5181 113.866 13.0478 113.798C12.5775 113.731 12.1416 114.058 12.0742 114.528C12.0069 114.998 12.3336 115.434 12.8039 115.502Z" fill="#FFEAA2"/>
<path d="M15.6875 119.494C15.971 119.535 16.234 119.338 16.2745 119.054C16.3151 118.771 16.1181 118.508 15.8345 118.467C15.551 118.427 15.2881 118.624 15.2475 118.907C15.2069 119.191 15.404 119.454 15.6875 119.494Z" fill="#FFEAA2"/>
<path d="M4.9323 126.735C5.50406 126.547 5.81524 125.931 5.62759 125.359C5.43965 124.787 4.82406 124.476 4.252 124.664C3.68024 124.852 3.36877 125.467 3.55671 126.039C3.74465 126.611 4.36053 126.922 4.9323 126.735Z" fill="#FFEAA2"/>
<path d="M5.53828 128.062C5.68652 128.514 6.17269 128.759 6.62416 128.611C7.07564 128.463 7.32122 127.977 7.17299 127.525C7.02475 127.074 6.53858 126.828 6.08711 126.977C5.63593 127.125 5.39005 127.611 5.53828 128.062Z" fill="#FFEAA2"/>
<path d="M9.02645 127.913C9.29851 127.823 9.44675 127.53 9.35733 127.258C9.26792 126.986 8.97469 126.838 8.70263 126.927C8.43057 127.016 8.28234 127.31 8.37175 127.582C8.46116 127.854 8.75439 128.002 9.02645 127.913Z" fill="#FFEAA2"/>
<path d="M10.8978 119.237C11.2723 118.998 11.3817 118.499 11.1417 118.125C10.902 117.751 10.4037 117.641 10.0293 117.881C9.6549 118.121 9.54549 118.619 9.78549 118.994C10.0252 119.368 10.5234 119.477 10.8978 119.237Z" fill="#FFEAA2"/>
<path d="M9.03627 125.549C9.33186 125.36 9.41833 124.967 9.22892 124.671C9.03951 124.375 8.64627 124.289 8.35068 124.478C8.05509 124.668 7.96862 125.061 8.15803 125.356C8.34745 125.652 8.74068 125.739 9.03627 125.549Z" fill="#FFEAA2"/>
<path d="M11.0468 123.503C10.8686 123.617 10.8165 123.855 10.9306 124.033C11.0447 124.211 11.2818 124.263 11.46 124.149C11.6383 124.035 11.6903 123.798 11.5762 123.62C11.4621 123.441 11.225 123.389 11.0468 123.503Z" fill="#FFEAA2"/>
<path d="M64.6644 65.1525C68.3941 65.1525 71.4176 63.0221 71.4176 60.3942C71.4176 57.7663 68.3941 55.636 64.6644 55.636C60.9347 55.636 57.9111 57.7663 57.9111 60.3942C57.9111 63.0221 60.9347 65.1525 64.6644 65.1525Z" fill="url(#paint8_linear)"/>
<path d="M63.9483 58.5977C64.5442 58.5977 65.0274 58.1146 65.0274 57.5186C65.0274 56.9226 64.5442 56.4395 63.9483 56.4395C63.3523 56.4395 62.8691 56.9226 62.8691 57.5186C62.8691 58.1146 63.3523 58.5977 63.9483 58.5977Z" fill="url(#paint9_linear)"/>
<path d="M61.9445 61.1606C62.4149 61.1606 62.7963 60.7792 62.7963 60.3088C62.7963 59.8384 62.4149 59.457 61.9445 59.457C61.4741 59.457 61.0928 59.8384 61.0928 60.3088C61.0928 60.7792 61.4741 61.1606 61.9445 61.1606Z" fill="url(#paint10_linear)"/>
<path d="M65.6571 61.5371C65.9407 61.5371 66.1706 61.3072 66.1706 61.0235C66.1706 60.7399 65.9407 60.51 65.6571 60.51C65.3735 60.51 65.1436 60.7399 65.1436 61.0235C65.1436 61.3072 65.3735 61.5371 65.6571 61.5371Z" fill="url(#paint11_linear)"/>
<path d="M36.6966 89.3783C40.4263 89.3783 43.4498 87.248 43.4498 84.6201C43.4498 81.9922 40.4263 79.8618 36.6966 79.8618C32.9669 79.8618 29.9434 81.9922 29.9434 84.6201C29.9434 87.248 32.9669 89.3783 36.6966 89.3783Z" fill="url(#paint12_linear)"/>
<path d="M35.9805 82.8235C36.5765 82.8235 37.0596 82.3404 37.0596 81.7444C37.0596 81.1484 36.5765 80.6653 35.9805 80.6653C35.3845 80.6653 34.9014 81.1484 34.9014 81.7444C34.9014 82.3404 35.3845 82.8235 35.9805 82.8235Z" fill="url(#paint13_linear)"/>
<path d="M33.9768 85.3864C34.4472 85.3864 34.8285 85.005 34.8285 84.5346C34.8285 84.0642 34.4472 83.6829 33.9768 83.6829C33.5063 83.6829 33.125 84.0642 33.125 84.5346C33.125 85.005 33.5063 85.3864 33.9768 85.3864Z" fill="url(#paint14_linear)"/>
<path d="M37.6903 85.7629C37.9739 85.7629 38.2038 85.533 38.2038 85.2494C38.2038 84.9658 37.9739 84.7358 37.6903 84.7358C37.4067 84.7358 37.1768 84.9658 37.1768 85.2494C37.1768 85.533 37.4067 85.7629 37.6903 85.7629Z" fill="url(#paint15_linear)"/>
<path d="M71.513 96.3443C75.2427 96.3443 78.2662 94.214 78.2662 91.5861C78.2662 88.9582 75.2427 86.8279 71.513 86.8279C67.7833 86.8279 64.7598 88.9582 64.7598 91.5861C64.7598 94.214 67.7833 96.3443 71.513 96.3443Z" fill="url(#paint16_linear)"/>
<path d="M70.7969 89.7896C71.3929 89.7896 71.876 89.3064 71.876 88.7105C71.876 88.1145 71.3929 87.6313 70.7969 87.6313C70.2009 87.6313 69.7178 88.1145 69.7178 88.7105C69.7178 89.3064 70.2009 89.7896 70.7969 89.7896Z" fill="url(#paint17_linear)"/>
<path d="M68.7932 92.3524C69.2636 92.3524 69.6449 91.9711 69.6449 91.5007C69.6449 91.0303 69.2636 90.6489 68.7932 90.6489C68.3228 90.6489 67.9414 91.0303 67.9414 91.5007C67.9414 91.9711 68.3228 92.3524 68.7932 92.3524Z" fill="url(#paint18_linear)"/>
<path d="M72.5057 92.729C72.7893 92.729 73.0192 92.499 73.0192 92.2154C73.0192 91.9318 72.7893 91.7019 72.5057 91.7019C72.2221 91.7019 71.9922 91.9318 71.9922 92.2154C71.9922 92.499 72.2221 92.729 72.5057 92.729Z" fill="url(#paint19_linear)"/>
<path d="M121.317 80.5931C125.046 80.5931 128.07 78.4628 128.07 75.8349C128.07 73.207 125.046 71.0767 121.317 71.0767C117.587 71.0767 114.563 73.207 114.563 75.8349C114.563 78.4628 117.587 80.5931 121.317 80.5931Z" fill="url(#paint20_linear)"/>
<path d="M120.601 74.0388C121.197 74.0388 121.68 73.5557 121.68 72.9597C121.68 72.3638 121.197 71.8806 120.601 71.8806C120.005 71.8806 119.521 72.3638 119.521 72.9597C119.521 73.5557 120.005 74.0388 120.601 74.0388Z" fill="url(#paint21_linear)"/>
<path d="M118.597 76.6017C119.067 76.6017 119.449 76.2204 119.449 75.75C119.449 75.2795 119.067 74.8982 118.597 74.8982C118.126 74.8982 117.745 75.2795 117.745 75.75C117.745 76.2204 118.126 76.6017 118.597 76.6017Z" fill="url(#paint22_linear)"/>
<path d="M122.309 76.9782C122.593 76.9782 122.823 76.7483 122.823 76.4647C122.823 76.1811 122.593 75.9512 122.309 75.9512C122.026 75.9512 121.796 76.1811 121.796 76.4647C121.796 76.7483 122.026 76.9782 122.309 76.9782Z" fill="url(#paint23_linear)"/>
<path d="M65.0267 36.8556C68.7564 36.8556 71.7799 34.7252 71.7799 32.0973C71.7799 29.4694 68.7564 27.3391 65.0267 27.3391C61.297 27.3391 58.2734 29.4694 58.2734 32.0973C58.2734 34.7252 61.297 36.8556 65.0267 36.8556Z" fill="url(#paint24_linear)"/>
<path d="M64.3106 30.3008C64.9065 30.3008 65.3897 29.8177 65.3897 29.2217C65.3897 28.6257 64.9065 28.1426 64.3106 28.1426C63.7146 28.1426 63.2314 28.6257 63.2314 29.2217C63.2314 29.8177 63.7146 30.3008 64.3106 30.3008Z" fill="url(#paint25_linear)"/>
<path d="M62.3068 32.8637C62.7773 32.8637 63.1586 32.4823 63.1586 32.0119C63.1586 31.5415 62.7773 31.1602 62.3068 31.1602C61.8364 31.1602 61.4551 31.5415 61.4551 32.0119C61.4551 32.4823 61.8364 32.8637 62.3068 32.8637Z" fill="url(#paint26_linear)"/>
<path d="M66.0194 33.2402C66.303 33.2402 66.5329 33.0103 66.5329 32.7267C66.5329 32.4431 66.303 32.2131 66.0194 32.2131C65.7358 32.2131 65.5059 32.4431 65.5059 32.7267C65.5059 33.0103 65.7358 33.2402 66.0194 33.2402Z" fill="url(#paint27_linear)"/>
<path d="M75.2422 37.5131C68.7522 32.619 58.2296 32.619 51.7396 37.5131C45.2496 42.4072 45.2496 50.3422 51.7396 55.2364C58.2296 60.1305 68.7522 60.1305 75.2422 55.2364C81.7322 50.3422 81.7322 42.4072 75.2422 37.5131ZM56.0284 49.5611C51.9075 46.8466 51.9075 42.4446 56.0284 39.7305C60.1493 37.0161 66.8307 37.0172 70.9516 39.7316C75.0725 42.4461 75.074 46.8469 70.9534 49.5611C66.8322 52.2755 60.149 52.2755 56.0284 49.5611Z" fill="url(#paint28_linear)"/>
<path d="M53.7151 52.4713C59.1131 56.3951 67.8675 56.3951 73.2651 52.4713C78.6646 48.5463 78.6631 42.1839 73.2651 38.2604C67.8657 34.3354 59.1146 34.3354 53.7151 38.2604C48.3172 42.1839 48.3154 48.5463 53.7151 52.4713ZM70.9525 39.7304C75.0734 42.4448 75.0734 46.8469 70.9525 49.561C66.8316 52.2754 60.1501 52.2742 56.0293 49.5598C51.9084 46.8454 51.9069 42.4445 56.0275 39.7304C60.1487 37.0163 66.8316 37.0163 70.9525 39.7304Z" fill="url(#paint29_linear)"/>
<path d="M10.0761 113.155C12.5073 114.093 15.6076 113.398 17.0011 111.601C17.2752 111.248 17.1537 110.832 16.772 110.407C16.3499 109.936 16.5014 109.315 17.0808 108.937L17.1787 108.873C17.9273 108.383 17.7558 107.519 16.8449 107.193L13.2199 105.894C12.309 105.567 11.214 105.977 11.0908 106.691C10.9958 107.241 10.3558 107.667 9.56933 107.699C8.94022 107.724 8.44816 107.878 8.19728 108.202C6.80345 109.999 7.64492 112.216 10.0761 113.155Z" fill="url(#paint30_linear)"/>
<path d="M34.4159 94.3359C28.8762 90.1585 19.8947 90.1585 14.355 94.3359C8.81527 98.5132 8.81527 105.286 14.355 109.464C19.8947 113.641 28.8762 113.641 34.4159 109.464C39.9553 105.286 39.9553 98.5132 34.4159 94.3359ZM18.0156 104.619C14.4982 102.303 14.4982 98.5453 18.0156 96.2285C21.5329 93.9118 27.2359 93.9127 30.7532 96.2294C34.2706 98.5462 34.272 102.303 30.7547 104.619C27.2376 106.936 21.5329 106.936 18.0156 104.619Z" fill="url(#paint31_linear)"/>
<path d="M16.042 107.103C20.6494 110.452 28.1217 110.452 32.7291 107.103C37.3379 103.753 37.3364 98.3223 32.7291 94.9732C28.1202 91.6232 20.6508 91.6232 16.042 94.9732C11.4347 98.3226 11.4332 103.753 16.042 107.103ZM30.7552 96.2282C34.2726 98.545 34.2726 102.302 30.7552 104.619C27.2379 106.936 21.5349 106.935 18.0176 104.618C14.5002 102.301 14.4988 98.545 18.0161 96.2282C21.5332 93.9114 27.2379 93.9114 30.7552 96.2282Z" fill="url(#paint32_linear)"/>
<path d="M100.607 79.3451C98.1754 78.4066 95.0751 79.1022 93.6815 80.8987C93.4074 81.2522 93.5289 81.6675 93.9107 82.0931C94.3327 82.5637 94.1812 83.1845 93.6018 83.5634L93.5039 83.6272C92.7554 84.1166 92.9268 84.9807 93.8377 85.3072L97.4627 86.6063C98.3736 86.9328 99.4686 86.5228 99.5918 85.8092C99.6868 85.2592 100.327 84.8334 101.113 84.8013C101.742 84.7757 102.234 84.6216 102.485 84.2981C103.879 82.501 103.038 80.2837 100.607 79.3451Z" fill="url(#paint33_linear)"/>
<path d="M96.211 80.3474C103.293 80.3474 109.033 76.3026 109.033 71.313C109.033 66.3234 103.293 62.2786 96.211 62.2786C89.1294 62.2786 83.3887 66.3234 83.3887 71.313C83.3887 76.3026 89.1294 80.3474 96.211 80.3474Z" fill="url(#paint34_linear)"/>
<path d="M94.8503 67.902C95.9817 67.902 96.8988 66.9848 96.8988 65.8535C96.8988 64.7221 95.9817 63.8049 94.8503 63.8049C93.7189 63.8049 92.8018 64.7221 92.8018 65.8535C92.8018 66.9848 93.7189 67.902 94.8503 67.902Z" fill="url(#paint35_linear)"/>
<path d="M91.0461 72.7684C91.9393 72.7684 92.6634 72.0443 92.6634 71.151C92.6634 70.2578 91.9393 69.5337 91.0461 69.5337C90.1528 69.5337 89.4287 70.2578 89.4287 71.151C89.4287 72.0443 90.1528 72.7684 91.0461 72.7684Z" fill="url(#paint36_linear)"/>
<path d="M98.0951 73.4832C98.6336 73.4832 99.0701 73.0467 99.0701 72.5082C99.0701 71.9697 98.6336 71.5332 98.0951 71.5332C97.5566 71.5332 97.1201 71.9697 97.1201 72.5082C97.1201 73.0467 97.5566 73.4832 98.0951 73.4832Z" fill="url(#paint37_linear)"/>
<path d="M42.1173 104.192C49.1989 104.192 54.9396 100.147 54.9396 95.1577C54.9396 90.1681 49.1989 86.1233 42.1173 86.1233C35.0357 86.1233 29.2949 90.1681 29.2949 95.1577C29.2949 100.147 35.0357 104.192 42.1173 104.192Z" fill="url(#paint38_linear)"/>
<path d="M40.7565 91.7467C41.8879 91.7467 42.8051 90.8296 42.8051 89.6982C42.8051 88.5668 41.8879 87.6497 40.7565 87.6497C39.6252 87.6497 38.708 88.5668 38.708 89.6982C38.708 90.8296 39.6252 91.7467 40.7565 91.7467Z" fill="url(#paint39_linear)"/>
<path d="M36.9533 96.6131C37.8465 96.6131 38.5706 95.889 38.5706 94.9958C38.5706 94.1025 37.8465 93.3784 36.9533 93.3784C36.06 93.3784 35.3359 94.1025 35.3359 94.9958C35.3359 95.889 36.06 96.6131 36.9533 96.6131Z" fill="url(#paint40_linear)"/>
<path d="M44.0023 97.3279C44.5408 97.3279 44.9773 96.8914 44.9773 96.3529C44.9773 95.8145 44.5408 95.3779 44.0023 95.3779C43.4639 95.3779 43.0273 95.8145 43.0273 96.3529C43.0273 96.8914 43.4639 97.3279 44.0023 97.3279Z" fill="url(#paint41_linear)"/>
<path d="M69.4347 67.8344C67.0035 66.8959 63.9032 67.5914 62.5097 69.3879C62.2355 69.7414 62.357 70.1567 62.7388 70.5823C63.1608 71.0529 63.0094 71.6738 62.43 72.0526L62.332 72.1164C61.5835 72.6059 61.755 73.47 62.6658 73.7964L66.2908 75.0956C67.2017 75.422 68.2967 75.012 68.42 74.2985C68.515 73.7485 69.155 73.3226 69.9414 73.2906C70.5705 73.265 71.0626 73.1109 71.3135 72.7873C72.707 70.9906 71.8658 68.7732 69.4347 67.8344Z" fill="url(#paint42_linear)"/>
<path d="M73.069 96.2124C76.0472 95.7165 78.2664 93.8359 78.2664 91.5859C78.2664 88.9579 75.2428 86.8276 71.5131 86.8276C69.1402 86.8276 67.0572 87.6918 65.8525 88.9959L73.069 96.2124Z" fill="url(#paint43_linear)"/>
<path d="M85.3211 73.1181C79.7814 68.9408 70.8 68.9408 65.2602 73.1181C59.7205 77.2955 59.7205 84.0684 65.2602 88.2458C70.8 92.4231 79.7814 92.4231 85.3211 88.2458C90.8608 84.0684 90.8608 77.2955 85.3211 73.1181ZM68.9211 83.4017C65.4038 81.0849 65.4038 77.3275 68.9211 75.0108C72.4385 72.694 78.1414 72.6949 81.6588 75.0117C85.1761 77.3284 85.1776 81.0849 81.6602 83.4017C78.1429 85.7184 72.4385 85.7184 68.9211 83.4017Z" fill="url(#paint44_linear)"/>
<path d="M66.9473 85.8854C71.5546 89.2346 79.027 89.2346 83.6343 85.8854C88.2432 82.5354 88.2417 77.1045 83.6343 73.7554C79.0255 70.4054 71.5561 70.4054 66.9473 73.7554C62.3399 77.1048 62.3385 82.5354 66.9473 85.8854ZM81.6602 75.0107C85.1776 77.3275 85.1776 81.0848 81.6602 83.4016C78.1429 85.7184 72.4399 85.7175 68.9226 83.4007C65.4052 81.084 65.4037 77.3275 68.9211 75.0107C72.4385 72.6937 78.1429 72.6937 81.6602 75.0107Z" fill="url(#paint45_linear)"/>
<path d="M23.0616 81.9548C19.8293 81.9548 17.209 83.821 17.209 86.1234C17.209 88.4257 19.8293 90.2919 23.0616 90.2919C26.294 90.2919 28.9143 88.4257 28.9143 86.1234C28.9143 83.821 26.294 81.9548 23.0616 81.9548ZM23.0616 87.8928C21.6896 87.8928 20.5775 87.1007 20.5775 86.1234C20.5775 85.1463 21.6896 84.354 23.0616 84.354C24.4337 84.354 25.5457 85.146 25.5457 86.1234C25.546 87.1007 24.4337 87.8928 23.0616 87.8928Z" fill="url(#paint46_linear)"/>
<path d="M52.7247 73.8303C49.4924 73.8303 46.8721 75.6965 46.8721 77.9989C46.8721 80.3012 49.4924 82.1674 52.7247 82.1674C55.9571 82.1674 58.5774 80.3012 58.5774 77.9989C58.5774 75.6965 55.9568 73.8303 52.7247 73.8303ZM52.7247 79.768C51.3527 79.768 50.2406 78.9759 50.2406 77.9986C50.2406 77.0215 51.3527 76.2291 52.7247 76.2291C54.0968 76.2291 55.2088 77.0212 55.2088 77.9986C55.2088 78.9759 54.0965 79.768 52.7247 79.768Z" fill="url(#paint47_linear)"/>
<path d="M90.5001 52.8547C87.2678 52.8547 84.6475 54.7209 84.6475 57.0233C84.6475 59.3256 87.2678 61.1918 90.5001 61.1918C93.7325 61.1918 96.3528 59.3256 96.3528 57.0233C96.3528 54.7209 93.7325 52.8547 90.5001 52.8547ZM90.5001 58.7927C89.1281 58.7927 88.016 58.0006 88.016 57.0233C88.016 56.0459 89.1281 55.2539 90.5001 55.2539C91.8722 55.2539 92.9842 56.0459 92.9842 57.0233C92.9842 58.0006 91.8722 58.7927 90.5001 58.7927Z" fill="url(#paint48_linear)"/>
<path d="M11.4835 114.34C8.25115 114.34 5.63086 116.207 5.63086 118.509C5.63086 120.811 8.25115 122.677 11.4835 122.677C14.7159 122.677 17.3362 120.811 17.3362 118.509C17.3362 116.207 14.7159 114.34 11.4835 114.34ZM11.4835 120.278C10.1114 120.278 8.99939 119.486 8.99939 118.509C8.99939 117.532 10.1114 116.739 11.4835 116.739C12.8556 116.739 13.9676 117.531 13.9676 118.509C13.9676 119.486 12.8556 120.278 11.4835 120.278Z" fill="url(#paint49_linear)"/>
<path d="M43.4786 72.8391C50.5602 72.8391 56.301 68.7942 56.301 63.8047C56.301 58.8151 50.5602 54.7703 43.4786 54.7703C36.397 54.7703 30.6562 58.8151 30.6562 63.8047C30.6562 68.7942 36.397 72.8391 43.4786 72.8391Z" fill="url(#paint50_linear)"/>
<path d="M42.1179 60.3937C43.2492 60.3937 44.1664 59.4765 44.1664 58.3452C44.1664 57.2138 43.2492 56.2966 42.1179 56.2966C40.9865 56.2966 40.0693 57.2138 40.0693 58.3452C40.0693 59.4765 40.9865 60.3937 42.1179 60.3937Z" fill="url(#paint51_linear)"/>
<path d="M38.3136 65.2601C39.2069 65.2601 39.931 64.536 39.931 63.6427C39.931 62.7495 39.2069 62.0254 38.3136 62.0254C37.4204 62.0254 36.6963 62.7495 36.6963 63.6427C36.6963 64.536 37.4204 65.2601 38.3136 65.2601Z" fill="url(#paint52_linear)"/>
<path d="M45.3627 65.9749C45.9012 65.9749 46.3377 65.5384 46.3377 64.9999C46.3377 64.4614 45.9012 64.0249 45.3627 64.0249C44.8242 64.0249 44.3877 64.4614 44.3877 64.9999C44.3877 65.5384 44.8242 65.9749 45.3627 65.9749Z" fill="url(#paint53_linear)"/>
<path d="M89.0382 40.5649C86.607 39.6263 83.5067 40.3219 82.1132 42.1184C81.8391 42.4719 81.9605 42.8872 82.3423 43.3128C82.7644 43.7834 82.6129 44.4043 82.0335 44.7831L81.9355 44.8469C81.187 45.3363 81.3585 46.2004 82.2694 46.5269L85.8944 47.826C86.8052 48.1525 87.9002 47.7425 88.0235 47.029C88.1185 46.479 88.7585 46.0531 89.5449 46.021C90.1741 45.9954 90.6661 45.8413 90.917 45.5178C92.3105 43.7207 91.4694 41.5034 89.0382 40.5649Z" fill="url(#paint54_linear)"/>
<path d="M63.8555 30.6835C74.8561 34.8656 85.2593 41.0735 98.5858 50.8621C111.912 60.6506 122.165 75.3059 129.771 84.7915C133.858 89.8868 145.108 88.9606 148.823 83.1553C151.304 79.2785 151.312 71.4462 148.783 67.8606C141.324 57.2812 128.763 44.8529 113.247 33.4562C97.7308 22.0594 82.3817 13.9871 70.482 10.3468C66.449 9.11294 62.0264 10.9232 59.5455 14.8C55.8305 20.6056 57.9464 28.4371 63.8555 30.6835Z" fill="url(#paint55_linear)"/>
</g>
<defs>
<linearGradient id="paint0_linear" x1="66.3741" y1="87.905" x2="74.2889" y2="105.256" gradientUnits="userSpaceOnUse">
<stop stop-color="#FAA68E"/>
<stop offset="0.2061" stop-color="#FBA682"/>
<stop offset="0.5808" stop-color="#FDA861"/>
<stop offset="1" stop-color="#FFA936"/>
</linearGradient>
<linearGradient id="paint1_linear" x1="74.6533" y1="106.407" x2="67.9727" y2="87.0842" gradientUnits="userSpaceOnUse">
<stop stop-color="#F82814" stop-opacity="0"/>
<stop offset="0.2454" stop-color="#F12817" stop-opacity="0.245"/>
<stop offset="0.6052" stop-color="#DD2820" stop-opacity="0.605"/>
<stop offset="1" stop-color="#C0272D"/>
</linearGradient>
<linearGradient id="paint2_linear" x1="43.348" y1="65.0515" x2="78.5959" y2="107.265" gradientUnits="userSpaceOnUse">
<stop stop-color="#FFD945"/>
<stop offset="0.3043" stop-color="#FFCD3E"/>
<stop offset="0.8558" stop-color="#FFAD2B"/>
<stop offset="1" stop-color="#FFA325"/>
</linearGradient>
<linearGradient id="paint3_linear" x1="92.1467" y1="62.7385" x2="104.652" y2="45.0088" gradientUnits="userSpaceOnUse">
<stop stop-color="#F82814" stop-opacity="0"/>
<stop offset="1" stop-color="#C0272D"/>
</linearGradient>
<linearGradient id="paint4_linear" x1="86.3431" y1="69.7311" x2="29.9884" y2="-17.4393" gradientUnits="userSpaceOnUse">
<stop stop-color="#F82814" stop-opacity="0"/>
<stop offset="1" stop-color="#C0272D"/>
</linearGradient>
<linearGradient id="paint5_linear" x1="57.5021" y1="76.0706" x2="33.7574" y2="31.5885" gradientUnits="userSpaceOnUse">
<stop stop-color="#F82814" stop-opacity="0"/>
<stop offset="1" stop-color="#C0272D"/>
</linearGradient>
<linearGradient id="paint6_linear" x1="95.2315" y1="88.5638" x2="71.592" y2="44.0288" gradientUnits="userSpaceOnUse">
<stop stop-color="#F82814" stop-opacity="0"/>
<stop offset="1" stop-color="#C0272D"/>
</linearGradient>
<linearGradient id="paint7_linear" x1="42.9489" y1="112.912" x2="23.953" y2="80.6189" gradientUnits="userSpaceOnUse">
<stop stop-color="#F82814" stop-opacity="0"/>
<stop offset="1" stop-color="#C0272D"/>
</linearGradient>
<linearGradient id="paint8_linear" x1="63.2229" y1="56.9013" x2="66.1132" y2="63.9048" gradientUnits="userSpaceOnUse">
<stop stop-color="#BADA00"/>
<stop offset="0.2269" stop-color="#B0CE00"/>
<stop offset="0.6378" stop-color="#95AE00"/>
<stop offset="1" stop-color="#798C00"/>
</linearGradient>
<linearGradient id="paint9_linear" x1="64.5794" y1="59.3576" x2="61.8225" y2="55.0554" gradientUnits="userSpaceOnUse">
<stop stop-color="#798C00" stop-opacity="0"/>
<stop offset="0.6542" stop-color="#556100" stop-opacity="0.654"/>
<stop offset="1" stop-color="#464F00"/>
</linearGradient>
<linearGradient id="paint10_linear" x1="62.3882" y1="61.8581" x2="60.2116" y2="58.4617" gradientUnits="userSpaceOnUse">
<stop stop-color="#798C00" stop-opacity="0"/>
<stop offset="0.6542" stop-color="#556100" stop-opacity="0.654"/>
<stop offset="1" stop-color="#464F00"/>
</linearGradient>
<linearGradient id="paint11_linear" x1="65.8247" y1="62.139" x2="64.5127" y2="60.0914" gradientUnits="userSpaceOnUse">
<stop stop-color="#798C00" stop-opacity="0"/>
<stop offset="0.6542" stop-color="#556100" stop-opacity="0.654"/>
<stop offset="1" stop-color="#464F00"/>
</linearGradient>
<linearGradient id="paint12_linear" x1="35.2551" y1="81.1271" x2="38.1454" y2="88.1306" gradientUnits="userSpaceOnUse">
<stop stop-color="#BADA00"/>
<stop offset="0.2269" stop-color="#B0CE00"/>
<stop offset="0.6378" stop-color="#95AE00"/>
<stop offset="1" stop-color="#798C00"/>
</linearGradient>
<linearGradient id="paint13_linear" x1="36.5998" y1="83.599" x2="33.843" y2="79.2968" gradientUnits="userSpaceOnUse">
<stop stop-color="#798C00" stop-opacity="0"/>
<stop offset="0.6542" stop-color="#556100" stop-opacity="0.654"/>
<stop offset="1" stop-color="#464F00"/>
</linearGradient>
<linearGradient id="paint14_linear" x1="34.4087" y1="86.0995" x2="32.2324" y2="82.7031" gradientUnits="userSpaceOnUse">
<stop stop-color="#798C00" stop-opacity="0"/>
<stop offset="0.6542" stop-color="#556100" stop-opacity="0.654"/>
<stop offset="1" stop-color="#464F00"/>
</linearGradient>
<linearGradient id="paint15_linear" x1="37.8461" y1="86.3804" x2="36.5339" y2="84.3327" gradientUnits="userSpaceOnUse">
<stop stop-color="#798C00" stop-opacity="0"/>
<stop offset="0.6542" stop-color="#556100" stop-opacity="0.654"/>
<stop offset="1" stop-color="#464F00"/>
</linearGradient>
<linearGradient id="paint16_linear" x1="70.0715" y1="88.0932" x2="72.9618" y2="95.0967" gradientUnits="userSpaceOnUse">
<stop stop-color="#BADA00"/>
<stop offset="0.2269" stop-color="#B0CE00"/>
<stop offset="0.6378" stop-color="#95AE00"/>
<stop offset="1" stop-color="#798C00"/>
</linearGradient>
<linearGradient id="paint17_linear" x1="71.4349" y1="90.5649" x2="68.678" y2="86.2627" gradientUnits="userSpaceOnUse">
<stop stop-color="#798C00" stop-opacity="0"/>
<stop offset="0.6542" stop-color="#556100" stop-opacity="0.654"/>
<stop offset="1" stop-color="#464F00"/>
</linearGradient>
<linearGradient id="paint18_linear" x1="69.2438" y1="93.0651" x2="67.0674" y2="89.669" gradientUnits="userSpaceOnUse">
<stop stop-color="#798C00" stop-opacity="0"/>
<stop offset="0.6542" stop-color="#556100" stop-opacity="0.654"/>
<stop offset="1" stop-color="#464F00"/>
</linearGradient>
<linearGradient id="paint19_linear" x1="72.6805" y1="93.3463" x2="71.3683" y2="91.2986" gradientUnits="userSpaceOnUse">
<stop stop-color="#798C00" stop-opacity="0"/>
<stop offset="0.6542" stop-color="#556100" stop-opacity="0.654"/>
<stop offset="1" stop-color="#464F00"/>
</linearGradient>
<linearGradient id="paint20_linear" x1="119.875" y1="72.3422" x2="122.766" y2="79.3455" gradientUnits="userSpaceOnUse">
<stop stop-color="#BADA00"/>
<stop offset="0.2269" stop-color="#B0CE00"/>
<stop offset="0.6378" stop-color="#95AE00"/>
<stop offset="1" stop-color="#798C00"/>
</linearGradient>
<linearGradient id="paint21_linear" x1="121.263" y1="74.8003" x2="118.506" y2="70.498" gradientUnits="userSpaceOnUse">
<stop stop-color="#798C00" stop-opacity="0"/>
<stop offset="0.6542" stop-color="#556100" stop-opacity="0.654"/>
<stop offset="1" stop-color="#464F00"/>
</linearGradient>
<linearGradient id="paint22_linear" x1="119.071" y1="77.3008" x2="116.895" y2="73.9043" gradientUnits="userSpaceOnUse">
<stop stop-color="#798C00" stop-opacity="0"/>
<stop offset="0.6542" stop-color="#556100" stop-opacity="0.654"/>
<stop offset="1" stop-color="#464F00"/>
</linearGradient>
<linearGradient id="paint23_linear" x1="122.508" y1="77.5817" x2="121.196" y2="75.534" gradientUnits="userSpaceOnUse">
<stop stop-color="#798C00" stop-opacity="0"/>
<stop offset="0.6542" stop-color="#556100" stop-opacity="0.654"/>
<stop offset="1" stop-color="#464F00"/>
</linearGradient>
<linearGradient id="paint24_linear" x1="63.5852" y1="28.6044" x2="66.4755" y2="35.6079" gradientUnits="userSpaceOnUse">
<stop stop-color="#BADA00"/>
<stop offset="0.2269" stop-color="#B0CE00"/>
<stop offset="0.6378" stop-color="#95AE00"/>
<stop offset="1" stop-color="#798C00"/>
</linearGradient>
<linearGradient id="paint25_linear" x1="64.9385" y1="31.0461" x2="62.1817" y2="26.7439" gradientUnits="userSpaceOnUse">
<stop stop-color="#798C00" stop-opacity="0"/>
<stop offset="0.6542" stop-color="#556100" stop-opacity="0.654"/>
<stop offset="1" stop-color="#464F00"/>
</linearGradient>
<linearGradient id="paint26_linear" x1="62.7477" y1="33.5466" x2="60.5711" y2="30.1502" gradientUnits="userSpaceOnUse">
<stop stop-color="#798C00" stop-opacity="0"/>
<stop offset="0.6542" stop-color="#556100" stop-opacity="0.654"/>
<stop offset="1" stop-color="#464F00"/>
</linearGradient>
<linearGradient id="paint27_linear" x1="66.1844" y1="33.8276" x2="64.8722" y2="31.7801" gradientUnits="userSpaceOnUse">
<stop stop-color="#798C00" stop-opacity="0"/>
<stop offset="0.6542" stop-color="#556100" stop-opacity="0.654"/>
<stop offset="1" stop-color="#464F00"/>
</linearGradient>
<linearGradient id="paint28_linear" x1="67.311" y1="35.115" x2="62.1246" y2="50.2506" gradientUnits="userSpaceOnUse">
<stop stop-color="#FFDECF"/>
<stop offset="0.3791" stop-color="#FDC4B0"/>
<stop offset="0.7655" stop-color="#FBAE97"/>
<stop offset="1" stop-color="#FAA68E"/>
</linearGradient>
<linearGradient id="paint29_linear" x1="60.4755" y1="54.3639" x2="64.6612" y2="42.1488" gradientUnits="userSpaceOnUse">
<stop stop-color="#FFDECF"/>
<stop offset="0.3791" stop-color="#FDC4B0"/>
<stop offset="0.7655" stop-color="#FBAE97"/>
<stop offset="1" stop-color="#FAA68E"/>
</linearGradient>
<linearGradient id="paint30_linear" x1="11.727" y1="107.95" x2="16.4758" y2="115.707" gradientUnits="userSpaceOnUse">
<stop stop-color="#A57C52"/>
<stop offset="0.1339" stop-color="#A26C4A"/>
<stop offset="0.5155" stop-color="#994336"/>
<stop offset="0.8174" stop-color="#942A2A"/>
<stop offset="1" stop-color="#922125"/>
</linearGradient>
<linearGradient id="paint31_linear" x1="27.6485" y1="92.2742" x2="23.2217" y2="105.193" gradientUnits="userSpaceOnUse">
<stop stop-color="#FFDECF"/>
<stop offset="0.3791" stop-color="#FDC4B0"/>
<stop offset="0.7655" stop-color="#FBAE97"/>
<stop offset="1" stop-color="#FAA68E"/>
</linearGradient>
<linearGradient id="paint32_linear" x1="21.8311" y1="108.702" x2="25.4038" y2="98.2758" gradientUnits="userSpaceOnUse">
<stop stop-color="#FFDECF"/>
<stop offset="0.3791" stop-color="#FDC4B0"/>
<stop offset="0.7655" stop-color="#FBAE97"/>
<stop offset="1" stop-color="#FAA68E"/>
</linearGradient>
<linearGradient id="paint33_linear" x1="96.5109" y1="80.5172" x2="102.802" y2="90.9651" gradientUnits="userSpaceOnUse">
<stop stop-color="#A57C52"/>
<stop offset="0.1339" stop-color="#A26C4A"/>
<stop offset="0.5155" stop-color="#994336"/>
<stop offset="0.8174" stop-color="#942A2A"/>
<stop offset="1" stop-color="#922125"/>
</linearGradient>
<linearGradient id="paint34_linear" x1="93.474" y1="64.6812" x2="98.9619" y2="77.9786" gradientUnits="userSpaceOnUse">
<stop stop-color="#FF6359"/>
<stop offset="0.2243" stop-color="#FE5B50"/>
<stop offset="0.5952" stop-color="#FC4637"/>
<stop offset="1" stop-color="#F82814"/>
</linearGradient>
<linearGradient id="paint35_linear" x1="96.2952" y1="68.9369" x2="91.0604" y2="60.7683" gradientUnits="userSpaceOnUse">
<stop stop-color="#F82814" stop-opacity="0"/>
<stop offset="0.2454" stop-color="#F12817" stop-opacity="0.245"/>
<stop offset="0.6052" stop-color="#DD2820" stop-opacity="0.605"/>
<stop offset="1" stop-color="#C0272D"/>
</linearGradient>
<linearGradient id="paint36_linear" x1="92.1349" y1="73.6843" x2="88.0026" y2="67.2357" gradientUnits="userSpaceOnUse">
<stop stop-color="#F82814" stop-opacity="0"/>
<stop offset="0.2454" stop-color="#F12817" stop-opacity="0.245"/>
<stop offset="0.6052" stop-color="#DD2820" stop-opacity="0.605"/>
<stop offset="1" stop-color="#C0272D"/>
</linearGradient>
<linearGradient id="paint37_linear" x1="98.6599" y1="74.2179" x2="96.1687" y2="70.3302" gradientUnits="userSpaceOnUse">
<stop stop-color="#F82814" stop-opacity="0"/>
<stop offset="0.2454" stop-color="#F12817" stop-opacity="0.245"/>
<stop offset="0.6052" stop-color="#DD2820" stop-opacity="0.605"/>
<stop offset="1" stop-color="#C0272D"/>
</linearGradient>
<linearGradient id="paint38_linear" x1="39.3805" y1="88.5259" x2="44.8682" y2="101.823" gradientUnits="userSpaceOnUse">
<stop stop-color="#FF6359"/>
<stop offset="0.2243" stop-color="#FE5B50"/>
<stop offset="0.5952" stop-color="#FC4637"/>
<stop offset="1" stop-color="#F82814"/>
</linearGradient>
<linearGradient id="paint39_linear" x1="42.1764" y1="92.7996" x2="36.9419" y2="84.6311" gradientUnits="userSpaceOnUse">
<stop stop-color="#F82814" stop-opacity="0"/>
<stop offset="0.2454" stop-color="#F12817" stop-opacity="0.245"/>
<stop offset="0.6052" stop-color="#DD2820" stop-opacity="0.605"/>
<stop offset="1" stop-color="#C0272D"/>
</linearGradient>
<linearGradient id="paint40_linear" x1="38.0168" y1="97.5474" x2="33.8845" y2="91.0988" gradientUnits="userSpaceOnUse">
<stop stop-color="#F82814" stop-opacity="0"/>
<stop offset="0.2454" stop-color="#F12817" stop-opacity="0.245"/>
<stop offset="0.6052" stop-color="#DD2820" stop-opacity="0.605"/>
<stop offset="1" stop-color="#C0272D"/>
</linearGradient>
<linearGradient id="paint41_linear" x1="44.5421" y1="98.0807" x2="42.0506" y2="94.193" gradientUnits="userSpaceOnUse">
<stop stop-color="#F82814" stop-opacity="0"/>
<stop offset="0.2454" stop-color="#F12817" stop-opacity="0.245"/>
<stop offset="0.6052" stop-color="#DD2820" stop-opacity="0.605"/>
<stop offset="1" stop-color="#C0272D"/>
</linearGradient>
<linearGradient id="paint42_linear" x1="65.3388" y1="69.0064" x2="71.6303" y2="79.4544" gradientUnits="userSpaceOnUse">
<stop stop-color="#A57C52"/>
<stop offset="0.1339" stop-color="#A26C4A"/>
<stop offset="0.5155" stop-color="#994336"/>
<stop offset="0.8174" stop-color="#942A2A"/>
<stop offset="1" stop-color="#922125"/>
</linearGradient>
<linearGradient id="paint43_linear" x1="76.6396" y1="98.5206" x2="64.081" y2="74.7756" gradientUnits="userSpaceOnUse">
<stop stop-color="#798C00" stop-opacity="0"/>
<stop offset="0.6542" stop-color="#556100" stop-opacity="0.654"/>
<stop offset="1" stop-color="#464F00"/>
</linearGradient>
<linearGradient id="paint44_linear" x1="78.5461" y1="71.0597" x2="74.1192" y2="83.9789" gradientUnits="userSpaceOnUse">
<stop stop-color="#FFDECF"/>
<stop offset="0.3791" stop-color="#FDC4B0"/>
<stop offset="0.7655" stop-color="#FBAE97"/>
<stop offset="1" stop-color="#FAA68E"/>
</linearGradient>
<linearGradient id="paint45_linear" x1="72.7286" y1="87.4875" x2="76.3012" y2="77.0616" gradientUnits="userSpaceOnUse">
<stop stop-color="#FFDECF"/>
<stop offset="0.3791" stop-color="#FDC4B0"/>
<stop offset="0.7655" stop-color="#FBAE97"/>
<stop offset="1" stop-color="#FAA68E"/>
</linearGradient>
<linearGradient id="paint46_linear" x1="20.686" y1="81.3722" x2="23.3963" y2="86.7928" gradientUnits="userSpaceOnUse">
<stop stop-color="#8A7889"/>
<stop offset="0.3344" stop-color="#867385"/>
<stop offset="0.7039" stop-color="#7B667B"/>
<stop offset="1" stop-color="#6E566E"/>
</linearGradient>
<linearGradient id="paint47_linear" x1="50.3491" y1="73.2477" x2="53.0594" y2="78.6683" gradientUnits="userSpaceOnUse">
<stop stop-color="#8A7889"/>
<stop offset="0.3344" stop-color="#867385"/>
<stop offset="0.7039" stop-color="#7B667B"/>
<stop offset="1" stop-color="#6E566E"/>
</linearGradient>
<linearGradient id="paint48_linear" x1="88.1245" y1="52.2721" x2="90.8348" y2="57.6927" gradientUnits="userSpaceOnUse">
<stop stop-color="#8A7889"/>
<stop offset="0.3344" stop-color="#867385"/>
<stop offset="0.7039" stop-color="#7B667B"/>
<stop offset="1" stop-color="#6E566E"/>
</linearGradient>
<linearGradient id="paint49_linear" x1="9.10792" y1="113.758" x2="11.8182" y2="119.178" gradientUnits="userSpaceOnUse">
<stop stop-color="#8A7889"/>
<stop offset="0.3344" stop-color="#867385"/>
<stop offset="0.7039" stop-color="#7B667B"/>
<stop offset="1" stop-color="#6E566E"/>
</linearGradient>
<linearGradient id="paint50_linear" x1="40.7418" y1="57.1729" x2="46.2295" y2="70.4703" gradientUnits="userSpaceOnUse">
<stop stop-color="#FF6359"/>
<stop offset="0.2243" stop-color="#FE5B50"/>
<stop offset="0.5952" stop-color="#FC4637"/>
<stop offset="1" stop-color="#F82814"/>
</linearGradient>
<linearGradient id="paint51_linear" x1="43.5348" y1="61.4307" x2="38.3004" y2="53.2619" gradientUnits="userSpaceOnUse">
<stop stop-color="#F82814" stop-opacity="0"/>
<stop offset="0.2454" stop-color="#F12817" stop-opacity="0.245"/>
<stop offset="0.6052" stop-color="#DD2820" stop-opacity="0.605"/>
<stop offset="1" stop-color="#C0272D"/>
</linearGradient>
<linearGradient id="paint52_linear" x1="39.3746" y1="66.1782" x2="35.2423" y2="59.7295" gradientUnits="userSpaceOnUse">
<stop stop-color="#F82814" stop-opacity="0"/>
<stop offset="0.2454" stop-color="#F12817" stop-opacity="0.245"/>
<stop offset="0.6052" stop-color="#DD2820" stop-opacity="0.605"/>
<stop offset="1" stop-color="#C0272D"/>
</linearGradient>
<linearGradient id="paint53_linear" x1="45.8996" y1="66.7117" x2="43.4085" y2="62.8237" gradientUnits="userSpaceOnUse">
<stop stop-color="#F82814" stop-opacity="0"/>
<stop offset="0.2454" stop-color="#F12817" stop-opacity="0.245"/>
<stop offset="0.6052" stop-color="#DD2820" stop-opacity="0.605"/>
<stop offset="1" stop-color="#C0272D"/>
</linearGradient>
<linearGradient id="paint54_linear" x1="84.9423" y1="41.7366" x2="91.2335" y2="52.1846" gradientUnits="userSpaceOnUse">
<stop stop-color="#A57C52"/>
<stop offset="0.1339" stop-color="#A26C4A"/>
<stop offset="0.5155" stop-color="#994336"/>
<stop offset="0.8174" stop-color="#942A2A"/>
<stop offset="1" stop-color="#922125"/>
</linearGradient>
<linearGradient id="paint55_linear" x1="110.329" y1="38.9326" x2="99.3535" y2="56.8732" gradientUnits="userSpaceOnUse">
<stop stop-color="#FAA68E"/>
<stop offset="0.2061" stop-color="#FBA682"/>
<stop offset="0.5808" stop-color="#FDA861"/>
<stop offset="1" stop-color="#FFA936"/>
</linearGradient>
<clipPath id="clip0">
<rect width="150" height="150" fill="white" transform="translate(0.681641)"/>
</clipPath>
</defs>
</svg>
