<svg width="151" height="151" viewBox="0 0 151 151" fill="none" xmlns="http://www.w3.org/2000/svg">
<g clip-path="url(#clip0)">
<path d="M75.4029 133.89C63.0206 133.89 51.6567 132.056 42.7559 129C44.0364 134.065 46.4423 137.895 49.4088 139.121C56.1041 141.888 65.2797 143.595 75.4029 143.595C85.5262 143.595 94.7017 141.888 101.397 139.121C104.364 137.895 106.769 134.065 108.05 129C99.1491 132.056 87.7853 133.89 75.4029 133.89Z" fill="url(#paint0_linear)"/>
<path d="M150.402 71.4555C150.402 50.6096 0.402344 50.6096 0.402344 71.4555C0.402344 92.3013 18.0279 137.464 75.4023 137.464C132.777 137.464 150.402 92.3013 150.402 71.4555Z" fill="url(#paint1_linear)"/>
<path d="M150.402 71.4555C150.402 92.3013 0.402344 92.3013 0.402344 71.4555C0.402344 50.6096 150.402 50.6096 150.402 71.4555Z" fill="url(#paint2_linear)"/>
<path d="M144.209 71.4555C144.209 86.8181 6.5957 86.8181 6.5957 71.4555C6.5957 56.0928 144.209 56.0928 144.209 71.4555Z" fill="url(#paint3_linear)"/>
<path d="M9.35449 75.0042C16.548 79.3412 36.9257 81.9089 59.7292 82.7068C62.0201 82.7871 64.3351 80.7904 66.6639 80.8351C68.7413 80.8748 70.8295 82.9589 72.9207 82.9704C102.347 83.1286 132.379 80.473 141.45 75.0045C123.818 64.3742 26.986 64.3742 9.35449 75.0042Z" fill="url(#paint4_linear)"/>
<path d="M1.7168 82.4621C2.32797 85.223 3.16591 88.1304 4.25239 91.108C25.2236 104.748 125.581 104.748 146.552 91.108C147.638 88.1304 148.476 85.223 149.087 82.4621C149.001 82.3595 148.916 82.2568 148.822 82.1556C133.851 98.2689 16.9536 98.2689 1.98297 82.1556C1.88886 82.2568 1.80297 82.3595 1.7168 82.4621Z" fill="url(#paint5_linear)"/>
<path d="M6.5957 96.7681C7.50247 98.7204 8.51717 100.681 9.64982 102.631C36.4995 112.781 114.305 112.781 141.154 102.631C142.287 100.681 143.302 98.7204 144.208 96.7681C119.877 108.659 30.9278 108.659 6.5957 96.7681Z" fill="url(#paint6_linear)"/>
<path d="M123.547 79.9704C109.959 82.0675 91.3459 83.0675 72.9656 82.9707C71.0653 82.9607 69.1673 80.8801 67.2776 80.8466C64.7485 80.8019 62.2341 82.7948 59.7488 82.7081C47.7179 82.2878 36.3611 81.3754 27.2588 79.9707C30.9882 72.3354 37.1529 65.7795 44.9235 61.0031C53.4941 55.7325 64.0235 52.6266 75.4029 52.6266C86.7823 52.6266 97.3117 55.7325 105.882 61.0031C113.653 65.7792 119.818 72.3351 123.547 79.9704Z" fill="url(#paint7_linear)"/>
<path d="M115.972 80.9711C111.692 73.6825 105.388 67.406 97.69 62.674C92.7747 59.6513 87.2897 57.259 81.3982 55.6349C70.8876 52.7375 59.6464 53.6099 49.8197 58.3322C48.1264 59.146 46.492 60.0381 44.9235 61.0025C37.1529 65.779 30.9882 72.3349 27.2588 79.9702C50.8553 83.6119 89.5994 83.9452 115.972 80.9711Z" fill="url(#paint8_linear)"/>
<path d="M105.978 81.8995C101.708 74.8766 95.5529 68.8192 88.0753 64.2227C83.1979 61.2233 77.7594 58.8448 71.9197 57.2216C62.8429 54.6986 53.0876 56.013 45.0491 60.9257C45.007 60.9513 44.9653 60.9769 44.9235 61.0027C37.1529 65.7792 30.9882 72.3351 27.2588 79.9704C48.02 83.1742 80.5076 83.8172 105.978 81.8995Z" fill="url(#paint9_linear)"/>
<path d="M95.6812 82.5196C91.4241 75.6879 85.3726 69.7908 78.0553 65.2929C73.5235 62.5061 68.507 60.2552 63.1344 58.6481C57.04 56.8252 50.4317 57.6293 45.007 60.9514C44.9791 60.9684 44.9511 60.9855 44.9235 61.0029C37.1529 65.7793 30.9882 72.3352 27.2588 79.9705C36.3617 81.3752 47.7188 82.2876 59.7503 82.7079C62.0309 82.7876 64.3359 81.3787 66.6541 81.4232C68.7676 81.4634 70.892 82.9596 73.0197 82.9708C80.6597 83.0096 88.3397 82.8593 95.6812 82.5196Z" fill="url(#paint10_linear)"/>
<path d="M84.7838 82.8807C80.6717 77.1113 75.2364 72.1016 68.8308 68.1642C63.9155 65.1416 58.4305 62.7492 52.5391 61.1251C52.2414 61.043 51.8508 60.9836 51.4035 60.9418C47.3279 60.5607 43.2864 61.8539 40.0673 64.3821C34.5747 68.6963 30.1732 74.0039 27.2588 79.9704C36.3573 81.3745 47.7079 82.2866 59.7332 82.7069C61.9403 82.7839 64.1702 81.0798 66.4129 81.1239C68.602 81.1669 70.8038 82.9589 73.0085 82.9701C76.9405 82.9904 80.8826 82.9607 84.7838 82.8807Z" fill="url(#paint11_linear)"/>
<path d="M74.7882 82.9758C71.0561 78.5381 66.4988 74.6381 61.3026 71.444C56.3873 68.4213 50.9023 66.029 45.0108 64.4049C44.9982 64.4013 44.9856 64.3978 44.9729 64.3946C42.5641 63.7328 39.9894 64.3713 38.1064 66.0125C33.5235 70.0069 29.8167 74.7331 27.2588 79.9702C40.0956 81.9513 57.4158 82.9528 74.7882 82.9758Z" fill="url(#paint12_linear)"/>
<path d="M38.5412 61.5527C30.553 64.1792 23.9824 69.9351 20.4412 77.6116C20.2854 77.9498 20.1324 78.291 19.9854 78.6322C22.0098 79.0766 24.2259 79.4877 26.5995 79.8663C27.2812 77.7039 28.0995 75.586 29.0548 73.5145C30.9577 69.388 33.6901 65.791 37.0283 62.888C37.588 62.401 38.1648 61.9339 38.7574 61.4866C38.6859 61.5092 38.6127 61.5292 38.5412 61.5527Z" fill="url(#paint13_linear)"/>
<path d="M52.941 54.1822C46.7322 55.141 41.0763 57.8057 36.538 61.7557C33.1998 64.6586 30.4674 68.2557 28.5645 72.3822C27.4616 74.7733 26.541 77.2263 25.8027 79.7381C26.3439 79.8263 26.891 79.9145 27.4498 79.9998C29.2733 80.2792 31.1851 80.538 33.1733 80.7792C33.3327 80.2819 33.5019 79.788 33.6777 79.296C34.5307 76.1325 35.6713 73.051 37.1057 70.0678C38.4616 67.2442 40.2174 64.6648 42.2998 62.3795C45.5589 58.8013 49.6169 55.9469 54.1863 54.016C53.7713 54.0642 53.3563 54.1181 52.941 54.1822Z" fill="url(#paint14_linear)"/>
<path d="M61.6502 50.9398C53.6679 52.1768 46.5532 55.9777 41.4179 61.5445C39.3355 63.8006 37.5796 66.3474 36.2238 69.135C34.4208 72.8374 33.0738 76.6906 32.1914 80.6689C32.5149 80.7095 32.8443 80.7474 33.1738 80.788C35.2238 81.0318 37.3532 81.2556 39.5532 81.4559C40.3149 78.2965 41.4179 75.2301 42.8532 72.2801C43.6714 70.6 48.5373 63.2568 49.4617 62.115C54.1002 56.3668 60.4782 52.3142 67.6414 50.5062C65.6567 50.4895 63.6535 50.6298 61.6502 50.9398Z" fill="url(#paint15_linear)"/>
<path d="M71.9468 49.0528C62.7174 49.3616 54.2468 53.6616 48.5998 60.7498C47.7557 61.8057 46.9763 62.9263 46.2645 64.1057C43.0439 69.441 40.7968 75.2616 39.5557 81.4557C41.991 81.6851 44.5115 81.8851 47.0939 82.0616C47.6301 79.621 48.3492 77.2519 49.2463 74.9622C49.7995 73.3613 50.4227 71.7831 51.1233 70.2322C52.841 66.4381 55.2292 63.0822 58.1262 60.2881C62.8468 55.7381 68.9233 52.6792 75.6439 51.6498C79.0062 51.1331 82.3674 51.1507 85.6254 51.6578C81.3895 49.8101 76.733 48.891 71.9468 49.0528Z" fill="url(#paint16_linear)"/>
<path d="M75.056 50.8957C68.3354 51.9504 62.2589 55.0839 57.5383 59.7454C54.6413 62.608 52.253 66.046 50.5354 69.933C48.8236 73.8139 47.5501 77.8548 46.7236 82.0251C46.8472 82.0342 46.9707 82.043 47.0942 82.0522C49.2563 82.2051 51.4663 82.3357 53.7095 82.451C54.4869 79.631 55.4983 76.878 56.7386 74.2013C56.8992 73.8113 57.0648 73.423 57.2354 73.0366C59.0354 68.9539 61.8004 65.5139 65.2098 62.9628C66.2689 62.0569 67.3854 61.213 68.556 60.4404C72.6942 57.7154 77.4854 55.8525 82.6413 55.0654C87.8151 54.2763 92.9904 54.6095 97.8342 55.9536C91.196 51.488 83.1281 49.6248 75.056 50.8957Z" fill="url(#paint17_linear)"/>
<path d="M113.747 65.1145C112.45 63.7175 111.047 62.444 109.562 61.3028C102.047 55.5087 92.3413 52.9969 82.6413 54.5057C77.4855 55.3087 72.6943 57.2087 68.5561 59.9881C63.6266 63.3057 59.6266 67.8734 57.059 73.3234C55.6678 76.2763 54.5502 79.3234 53.7061 82.4498C53.8531 82.4586 54.0002 82.4675 54.1472 82.4734C55.7743 82.5531 57.4249 82.6192 59.084 82.6789C64.3911 68.8645 77.1234 59.1322 91.9896 59.1322C100.633 59.1322 108.555 62.4228 114.716 67.8916C114.79 66.906 114.473 65.8945 113.747 65.1145Z" fill="url(#paint18_linear)"/>
<path d="M55.2657 56.6963C55.6757 55.576 55.0998 54.3351 53.9795 53.9251C52.8592 53.5151 51.6183 54.091 51.2083 55.2113C50.7983 56.3316 51.3742 57.5722 52.4945 57.9825C53.6151 58.3925 54.8557 57.8166 55.2657 56.6963Z" fill="url(#paint19_linear)"/>
<path d="M48.3585 58.5273C47.474 58.2037 46.4946 58.6581 46.1708 59.5428C45.847 60.4273 46.3017 61.4067 47.1864 61.7305C48.0711 62.0543 49.0502 61.5996 49.374 60.7149C49.6976 59.8305 49.2429 58.8511 48.3585 58.5273Z" fill="url(#paint20_linear)"/>
<path d="M54.8193 62.6983C54.2861 62.5033 53.6955 62.7774 53.5005 63.3107C53.3052 63.8439 53.5793 64.4345 54.1125 64.6295C54.6458 64.8245 55.2364 64.5507 55.4314 64.0174C55.6266 63.4839 55.3525 62.8936 54.8193 62.6983Z" fill="url(#paint21_linear)"/>
<path d="M64.2618 59.2513C63.0759 59.3808 62.2195 60.4472 62.3489 61.6334C62.4783 62.8193 63.5448 63.6758 64.7309 63.5463C65.9168 63.4169 66.7733 62.3505 66.6439 61.1643C66.5145 59.9781 65.448 59.1219 64.2618 59.2513Z" fill="url(#paint22_linear)"/>
<path d="M67.3574 53.5377C66.4212 53.6401 65.745 54.4818 65.8471 55.4183C65.9495 56.3545 66.7912 57.0306 67.7277 56.9286C68.6639 56.8262 69.34 55.9845 69.238 55.048C69.1356 54.1115 68.2936 53.4354 67.3574 53.5377Z" fill="url(#paint23_linear)"/>
<path d="M59.863 54.0119C59.2986 54.0737 58.891 54.581 58.9524 55.1457C59.0142 55.7102 59.5215 56.1178 60.0862 56.0563C60.6507 55.9946 61.0583 55.4872 60.9968 54.9225C60.9354 54.3578 60.4274 53.9502 59.863 54.0119Z" fill="url(#paint24_linear)"/>
<path d="M57.7117 63.2496C56.887 63.5607 56.4706 64.4819 56.782 65.3066C57.0932 66.1313 58.0144 66.5478 58.8391 66.2363C59.6638 65.9252 60.0803 65.004 59.7688 64.1793C59.4573 63.3546 58.5365 62.9381 57.7117 63.2496Z" fill="url(#paint25_linear)"/>
<path d="M58.8742 58.5904C58.223 58.8362 57.8944 59.5633 58.14 60.2145C58.3859 60.8656 59.113 61.1942 59.7642 60.9486C60.4153 60.7027 60.7439 59.9756 60.4983 59.3245C60.2524 58.6733 59.5253 58.3445 58.8742 58.5904Z" fill="url(#paint26_linear)"/>
<path d="M54.1346 61.7328C54.5273 61.5845 54.7252 61.1463 54.5773 60.7537C54.429 60.361 53.9908 60.1631 53.5981 60.311C53.2055 60.4593 53.0076 60.8975 53.1555 61.2901C53.3037 61.6828 53.7423 61.881 54.1346 61.7328Z" fill="url(#paint27_linear)"/>
<path d="M78.9913 56.001C79.4013 54.8807 78.8254 53.6398 77.7051 53.2298C76.5848 52.8198 75.3439 53.3957 74.9339 54.516C74.5239 55.6363 75.0998 56.8772 76.2201 57.2872C77.3404 57.6975 78.581 57.1216 78.9913 56.001Z" fill="url(#paint28_linear)"/>
<path d="M72.084 57.8318C71.1996 57.5083 70.2202 57.9627 69.8964 58.8474C69.5726 59.7321 70.0273 60.7112 70.9117 61.0351C71.7961 61.3589 72.7755 60.9042 73.0993 60.0195C73.4232 59.1351 72.9685 58.1556 72.084 57.8318Z" fill="url(#paint29_linear)"/>
<path d="M78.5449 62.0034C78.0117 61.8081 77.4211 62.0822 77.2261 62.6158C77.0308 63.149 77.3049 63.7396 77.8381 63.9346C78.3714 64.1299 78.9619 63.8558 79.1569 63.3225C79.3522 62.789 79.0781 62.1984 78.5449 62.0034Z" fill="url(#paint30_linear)"/>
<path d="M91.044 57.2816C89.8582 57.411 89.0017 58.4775 89.1311 59.6637C89.2605 60.8496 90.327 61.706 91.5132 61.5766C92.699 61.4472 93.5555 60.3807 93.4261 59.1946C93.2967 58.0087 92.2302 57.1522 91.044 57.2816Z" fill="url(#paint31_linear)"/>
<path d="M90.4138 54.4577C90.3114 53.5216 89.4697 52.8454 88.5332 52.9477C87.5967 53.0501 86.9208 53.8919 87.0229 54.828C87.1252 55.7645 87.967 56.4404 88.9035 56.3383C89.84 56.236 90.5161 55.3939 90.4138 54.4577Z" fill="url(#paint32_linear)"/>
<path d="M83.5886 53.3166C83.0242 53.3783 82.6165 53.8857 82.678 54.4504C82.7398 55.0148 83.2471 55.4224 83.8118 55.3607C84.3762 55.2989 84.7839 54.7913 84.7224 54.2268C84.6606 53.6627 84.153 53.2551 83.5886 53.3166Z" fill="url(#paint33_linear)"/>
<path d="M81.4383 62.5543C80.6136 62.8654 80.1971 63.7866 80.5086 64.6113C80.8198 65.436 81.741 65.8525 82.5657 65.541C83.3904 65.2299 83.8068 64.3087 83.4954 63.484C83.1839 62.6593 82.263 62.2431 81.4383 62.5543Z" fill="url(#paint34_linear)"/>
<path d="M82.5997 57.8952C81.9486 58.141 81.62 58.8681 81.8656 59.519C82.1115 60.1702 82.8386 60.4987 83.4897 60.2531C84.1409 60.0072 84.4694 59.2802 84.2238 58.6293C83.978 57.9781 83.2509 57.6496 82.5997 57.8952Z" fill="url(#paint35_linear)"/>
<path d="M77.8602 61.0375C78.2528 60.8892 78.4508 60.451 78.3028 60.0584C78.1546 59.6657 77.7164 59.4678 77.3237 59.6157C76.9311 59.7639 76.7331 60.2022 76.8811 60.5948C77.0293 60.9878 77.4676 61.1857 77.8602 61.0375Z" fill="url(#paint36_linear)"/>
<path d="M72.3004 52.3278C73.0307 52.5951 73.8392 52.2196 74.1066 51.4896C74.3739 50.7593 73.9987 49.9507 73.2684 49.6834C72.5381 49.416 71.7295 49.7913 71.4622 50.5216C71.1948 51.2522 71.5701 52.0607 72.3004 52.3278Z" fill="url(#paint37_linear)"/>
<path d="M65.2516 52.3311C65.3787 51.9834 65.2001 51.5987 64.8525 51.4714C64.5049 51.3443 64.1201 51.5228 63.9931 51.8705C63.866 52.2181 64.0446 52.6028 64.3922 52.7302C64.7396 52.8572 65.1243 52.6787 65.2516 52.3311Z" fill="url(#paint38_linear)"/>
<path d="M73.423 55.2405C73.3827 54.8725 73.0521 54.6069 72.6842 54.6469C72.3162 54.6872 72.0507 55.0178 72.091 55.3858C72.1312 55.7537 72.4618 56.0193 72.8298 55.9793C73.1974 55.939 73.4633 55.6084 73.423 55.2405Z" fill="url(#paint39_linear)"/>
<path d="M81.7414 51.8834C81.7011 51.5155 81.3705 51.2499 81.0025 51.2899C80.6346 51.3302 80.369 51.6608 80.4093 52.0287C80.4496 52.3966 80.7805 52.6622 81.1481 52.6222C81.5158 52.5819 81.7814 52.2513 81.7414 51.8834Z" fill="url(#paint40_linear)"/>
<path d="M64.892 54.2163C64.6891 53.6787 64.0888 53.4075 63.5512 53.6104C63.0135 53.8134 62.7423 54.4137 62.9453 54.951C63.1482 55.4887 63.7485 55.7598 64.2859 55.5569C64.8235 55.3543 65.095 54.754 64.892 54.2163Z" fill="url(#paint41_linear)"/>
<path d="M69.7386 51.3026C69.5783 50.8782 69.1044 50.664 68.68 50.824C68.2556 50.9843 68.0415 51.4582 68.2015 51.8826C68.3618 52.307 68.8356 52.5211 69.26 52.3608C69.6847 52.2008 69.8988 51.727 69.7386 51.3026Z" fill="url(#paint42_linear)"/>
<path d="M77.6017 51.3026C77.4414 50.8782 76.9676 50.664 76.5432 50.824C76.1187 50.9843 75.9046 51.4582 76.0649 51.8826C76.2252 52.307 76.699 52.5211 77.1234 52.3608C77.5476 52.2008 77.7617 51.727 77.6017 51.3026Z" fill="url(#paint43_linear)"/>
<path d="M70.0087 53.7022C70.1052 53.9581 70.3911 54.0872 70.6469 53.9907C70.9028 53.8943 71.0319 53.6084 70.9355 53.3525C70.839 53.0966 70.5531 52.9675 70.2972 53.064C70.0411 53.1607 69.9119 53.4466 70.0087 53.7022Z" fill="url(#paint44_linear)"/>
<path d="M72.5365 72.7028C72.0497 72.0893 71.2588 71.7266 70.3994 71.8525H70.3965C70.2847 71.8701 70.1729 71.876 70.0612 71.876C69.6085 71.876 69.1679 71.741 68.7941 71.494C68.7162 71.4119 68.3059 71.0007 68.1691 70.8928C67.7082 70.3148 67.0415 70.0231 66.3729 70.0231C65.6788 70.0231 64.9847 70.3319 64.5259 70.9495C64.02 71.629 63.1818 71.976 62.3465 71.8525H62.3435C60.8171 71.629 59.5082 72.9407 59.7318 74.4643V74.4672C59.7494 74.579 59.7553 74.6907 59.7553 74.8025C59.7553 75.5201 59.417 76.2084 58.8288 76.6466C58.2112 77.1084 57.9023 77.7995 57.9023 78.4907C57.9023 79.1613 58.1935 79.8301 58.7703 80.2887C58.8229 80.3557 59.1118 80.3701 59.2338 80.4951C59.3615 80.626 59.3218 80.8669 59.362 80.9051C59.6756 81.3725 59.8168 81.9442 59.7318 82.5172V82.5201C59.7229 82.584 59.7173 82.6448 59.7144 82.706C61.8723 82.7816 64.052 81.3707 66.2441 81.4145C68.4829 81.4593 70.7347 82.9584 72.99 82.9698C76.2462 82.9869 79.51 82.9693 82.7515 82.9175L72.5365 72.7028Z" fill="url(#paint45_linear)"/>
<path d="M74.8406 78.4911C74.8406 79.1852 74.5318 79.8793 73.9141 80.3382C73.2347 80.844 72.8876 81.6823 73.0112 82.5176V82.5205C73.0347 82.6735 73.0406 82.8235 73.0318 82.9705C70.7523 82.9617 68.4759 82.9323 66.2141 82.8882C64.9641 82.8617 63.72 82.8323 62.4818 82.797C61.5553 82.7705 60.6318 82.7411 59.7141 82.7088C59.7171 82.647 59.7229 82.5852 59.7318 82.5205V82.5176C59.8553 81.6823 59.5082 80.844 58.8288 80.3382C58.2112 79.8793 57.9023 79.1852 57.9023 78.4911C57.9023 77.7999 58.2112 77.1087 58.8288 76.647C59.417 76.2087 59.7553 75.5205 59.7553 74.8029C59.7553 74.6911 59.7494 74.5793 59.7318 74.4676V74.4646C59.5082 72.9411 60.8171 71.6293 62.3435 71.8529H62.3465C63.1818 71.9764 64.02 71.6293 64.5259 70.9499C64.9847 70.3323 65.6788 70.0234 66.3729 70.0234C67.0641 70.0234 67.7553 70.3323 68.2171 70.9499C68.6553 71.5381 69.3435 71.8764 70.0612 71.8764C70.1729 71.8764 70.2847 71.8705 70.3965 71.8529H70.3994C71.9229 71.6293 73.2318 72.9411 73.0112 74.4646V74.4676C72.8876 75.3029 73.2347 76.1411 73.9141 76.647C74.5318 77.1087 74.8406 77.7999 74.8406 78.4911Z" fill="url(#paint46_linear)"/>
<path d="M71.3587 77.8293C71.2234 78.897 70.6793 79.844 69.8322 80.5029C68.9822 81.1587 67.9293 81.447 66.8646 81.3117C65.9558 81.197 65.1499 80.7352 64.5911 80.0117C64.0293 79.2882 63.7852 78.3911 63.8999 77.4852C63.9734 76.9205 64.4881 76.5234 65.0528 76.594C65.6146 76.6646 66.0146 77.1823 65.944 77.744C65.8969 78.1058 65.994 78.4617 66.2175 78.7499C66.4411 79.0381 66.7617 79.2234 67.1234 79.2676C67.644 79.3352 68.1558 79.194 68.5705 78.8734C68.9852 78.5529 69.2499 78.0911 69.3146 77.5705C69.5028 76.0911 68.4528 74.7323 66.9705 74.544C66.0058 74.4205 65.0499 74.6823 64.2822 75.2764C63.5116 75.8734 63.0205 76.7323 62.8969 77.697C62.6028 80.0352 64.044 82.1999 66.2146 82.8882C64.9646 82.8617 63.7205 82.8323 62.4822 82.797C61.8734 82.097 61.4087 81.2734 61.1234 80.3823C60.8293 79.4617 60.7264 78.4617 60.8558 77.4381C61.2528 74.3176 64.1117 72.1028 67.2293 72.4999C69.8381 72.8323 71.6881 75.2234 71.3587 77.8293Z" fill="url(#paint47_linear)"/>
<path d="M109.686 81.5975L87.3617 59.2728C86.9411 58.6116 86.0008 58.1775 84.959 58.2948L84.957 58.2951C84.1199 58.3895 83.2828 58.1222 82.7775 57.5993C81.857 56.6466 80.0052 56.6466 79.0846 57.5993C78.5793 58.1222 77.7423 58.3893 76.9052 58.2951L76.9031 58.2948C75.3784 58.1231 74.0693 59.1319 74.292 60.3069L74.2923 60.3084C74.4146 60.9534 74.0678 61.5984 73.3893 61.9878C72.2034 62.6684 72.1584 64.0072 73.2475 64.7416L73.9531 65.4748C74.217 65.749 74.3623 66.131 74.2937 66.5051C74.2931 66.5078 74.2928 66.5104 74.2923 66.5131L74.292 66.5146C74.1723 67.1451 74.4964 67.7257 75.0555 68.104L89.704 82.7525C96.6711 82.531 103.432 82.146 109.686 81.5975Z" fill="url(#paint48_linear)"/>
<path d="M88.4723 64.8334C87.7937 65.2228 87.447 65.8678 87.5693 66.5128L87.5696 66.5143C87.7926 67.6893 86.4835 68.6981 84.9585 68.5263L84.9564 68.526C84.1193 68.4316 83.2823 68.699 82.777 69.2219C81.8564 70.1746 80.0046 70.1746 79.084 69.2219C78.5787 68.699 77.7417 68.4319 76.9046 68.526L76.9026 68.5263C75.3779 68.6981 74.0688 67.6893 74.2917 66.5143L74.292 66.5128C74.4143 65.8678 74.0676 65.2228 73.389 64.8334C72.1529 64.124 72.1529 62.6972 73.389 61.9878C74.0676 61.5984 74.4143 60.9534 74.292 60.3084L74.2917 60.3069C74.0688 59.1319 75.3779 58.1231 76.9029 58.2948L76.9049 58.2951C77.742 58.3895 78.579 58.1222 79.0843 57.5993C80.0049 56.6466 81.8567 56.6466 82.7773 57.5993C83.2826 58.1222 84.1196 58.3893 84.9567 58.2951L84.9587 58.2948C86.4834 58.1231 87.7926 59.1319 87.5696 60.3069L87.5693 60.3084C87.447 60.9534 87.7937 61.5984 88.4723 61.9878C89.7084 62.6972 89.7084 64.124 88.4723 64.8334Z" fill="url(#paint49_linear)"/>
<path d="M75.6827 64.8675C75.3877 64.156 75.2847 63.3857 75.4147 62.5972C75.8112 60.1943 78.6709 58.4875 81.7891 58.7931C84.3965 59.0487 86.248 60.891 85.9168 62.9002C85.7815 63.7207 85.2394 64.4516 84.3906 64.9581C83.5418 65.4646 82.488 65.6863 81.4227 65.5819C80.5162 65.4931 79.7085 65.1375 79.1491 64.5807C78.5894 64.024 78.3447 63.3325 78.4603 62.634C78.5321 62.1993 79.0474 61.8919 79.6112 61.9472C80.1753 62.0025 80.5741 62.3996 80.5024 62.8343C80.4565 63.1125 80.5538 63.3875 80.7768 63.6096C80.9994 63.8313 81.3212 63.9728 81.6824 64.0081C82.2018 64.059 82.7159 63.951 83.13 63.704C83.5438 63.4569 83.8083 63.1004 83.8744 62.7002C84.063 61.5587 83.0109 60.5116 81.5297 60.3669C80.5647 60.2722 79.6094 60.4731 78.8403 60.9322C78.0712 61.3913 77.58 62.0537 77.4574 62.7975C77.1227 64.8249 78.9915 66.6843 81.6227 66.9419C82.1865 66.9972 82.5859 67.3937 82.5141 67.829C82.4424 68.2637 81.9271 68.571 81.363 68.5157C78.6285 68.2481 76.4709 66.769 75.6827 64.8675Z" fill="url(#paint50_linear)"/>
<path d="M70.511 82.032C66.883 81.9937 63.2739 82.8305 59.7236 82.7064C55.9257 82.5734 52.1951 82.3914 48.5816 82.1587L40.0404 73.6175C39.4816 73.2411 39.158 72.6587 39.2786 72.0293V72.0264C39.2786 72.0264 39.2786 72.0234 39.2786 72.0205C39.3492 71.647 39.2022 71.2646 38.9375 70.9881L38.2316 70.2558C37.711 69.9028 37.4492 69.4117 37.4492 68.9234C37.4492 68.3911 37.758 67.8558 38.3757 67.5028C39.0522 67.1117 39.3992 66.4675 39.2786 65.8234V65.8205C39.2169 65.4911 39.2727 65.1734 39.4257 64.894C39.6522 64.4646 40.0933 64.1205 40.6433 63.9381C41.0198 63.8087 41.4433 63.7587 41.8875 63.8087H41.8904C42.7286 63.9028 43.5639 63.6381 44.0698 63.1146C44.5316 62.6381 45.2227 62.3999 45.9169 62.3999C46.611 62.3999 47.3022 62.6381 47.7639 63.1146C48.1992 63.5675 48.8875 63.8264 49.608 63.8264C49.7198 63.8264 49.8316 63.8205 49.9433 63.8087C50.9875 63.6911 51.9257 64.1264 52.3463 64.7881L70.511 82.032Z" fill="url(#paint51_linear)"/>
<path d="M53.4586 70.348C52.7801 70.7374 52.4333 71.3824 52.5557 72.0274L52.556 72.0289C52.7789 73.2039 51.4698 74.2127 49.9448 74.041L49.9427 74.0407C49.1057 73.9463 48.2686 74.2136 47.7633 74.7365C46.8427 75.6892 44.991 75.6892 44.0704 74.7365C43.5651 74.2136 42.728 73.9465 41.891 74.0407L41.8889 74.041C40.3642 74.2127 39.0551 73.2039 39.278 72.0289L39.2783 72.0274C39.4007 71.3824 39.0539 70.7374 38.3754 70.348C37.1392 69.6386 37.1392 68.2118 38.3754 67.5024C39.0539 67.113 39.4007 66.468 39.2783 65.823L39.278 65.8215C39.0551 64.6465 40.3642 63.6377 41.8892 63.8095L41.8913 63.8098C42.7283 63.9042 43.5654 63.6368 44.0707 63.1139C44.9913 62.1613 46.843 62.1613 47.7636 63.1139C48.2689 63.6368 49.1057 63.9039 49.943 63.8098L49.9451 63.8095C51.4698 63.6377 52.7789 64.6465 52.556 65.8215L52.5557 65.823C52.4333 66.468 52.7801 67.113 53.4586 67.5024C54.6948 68.2118 54.6948 69.6386 53.4586 70.348Z" fill="url(#paint52_linear)"/>
<path d="M40.669 70.3822C40.374 69.6707 40.271 68.9004 40.401 68.1119C40.7975 65.7089 43.6572 64.0022 46.7755 64.3077C49.3828 64.5633 51.2343 66.4057 50.9031 68.4148C50.7678 69.2354 50.2257 69.9663 49.3769 70.4727C48.5281 70.9792 47.4743 71.201 46.409 71.0966C45.5025 71.0077 44.6949 70.6522 44.1355 70.0954C43.5757 69.5386 43.331 68.8472 43.4466 68.1486C43.5184 67.7139 44.0337 67.4066 44.5975 67.4619C45.1616 67.5172 45.5605 67.9142 45.4887 68.3489C45.4428 68.6272 45.5402 68.9022 45.7631 69.1242C45.9857 69.346 46.3075 69.4874 46.6687 69.5227C47.1881 69.5736 47.7022 69.4657 48.1163 69.2186C48.5302 68.9716 48.7946 68.6151 48.8607 68.2148C49.0493 67.0733 47.9972 66.0263 46.516 65.8816C45.551 65.7869 44.5957 65.9877 43.8266 66.4469C43.0575 66.906 42.5663 67.5683 42.4437 68.3122C42.109 70.3395 43.9778 72.1989 46.609 72.4566C47.1728 72.5119 47.5722 72.9083 47.5005 73.3436C47.4287 73.7783 46.9134 74.0857 46.3493 74.0304C43.6149 73.7627 41.4572 72.2836 40.669 70.3822Z" fill="url(#paint53_linear)"/>
<path d="M103.338 32.0378C102.985 31.144 103.956 30.3078 104.792 30.7831C107.744 32.4616 112.077 35.9157 112.077 41.7287C112.077 50.5437 101.459 51.3749 101.459 57.9043C101.459 61.2552 101.902 63.5693 102.334 65.0281C102.584 65.8719 101.721 66.6155 100.926 66.2393C98.2801 64.9878 94.2109 61.934 94.2109 54.9884C94.2109 44.6975 104.741 44.8504 104.741 39.224C104.741 36.2854 104.024 33.7704 103.338 32.0378Z" fill="url(#paint54_linear)"/>
<path d="M77.0904 8.10042C76.8598 7.70689 77.4768 7.34807 77.8904 7.63395C80.6951 9.57336 85.4383 13.6739 85.4383 19.2213C85.4383 27.0972 76.4612 29.3269 75.2651 35.4687C74.2974 40.4366 76.5151 45.2728 77.5318 47.1513C77.7083 47.4772 77.3021 47.8078 76.8815 47.6819C73.7883 46.7554 65.4668 43.3228 66.7095 33.4328C67.9133 23.8519 76.9183 24.2895 78.5162 18.0907C79.6645 13.6401 78.2498 10.0789 77.0904 8.10042Z" fill="url(#paint55_linear)"/>
<path d="M53.5941 34.1319C53.2788 33.3945 53.9394 32.7045 54.5824 33.0966C56.8535 34.4816 60.2494 37.3319 60.6127 42.1283C61.1635 49.4022 53.423 50.088 53.8312 55.476C54.0406 58.241 54.5109 60.1504 54.9191 61.3545C55.1553 62.0507 54.5682 62.6645 53.9609 62.3539C51.9412 61.3213 48.7641 58.8013 48.33 53.0701C47.6868 44.5783 55.4241 44.7045 55.0724 40.0616C54.8888 37.6369 54.2053 35.5613 53.5941 34.1319Z" fill="url(#paint56_linear)"/>
<path d="M150.403 71.4569C150.403 80.1569 124.262 85.2275 93.8057 86.6628L102.7 82.1304C125.932 80.6128 144.209 77.0539 144.209 71.4569C144.209 69.0922 140.947 67.0892 135.426 65.4539L140.126 63.0569C146.564 65.3245 150.403 68.1245 150.403 71.4569Z" fill="url(#paint57_linear)"/>
<path d="M141.268 56.1443L79.1622 90.4705C78.4004 90.9969 79.0557 92.2555 80.3466 92.7461C80.9404 92.9717 81.526 92.9675 81.8881 92.7349L145.383 59.5628C146.847 58.6228 145.08 56.1646 142.734 55.8755C142.144 55.8025 141.624 55.8978 141.268 56.1443Z" fill="url(#paint58_linear)"/>
<path d="M145.753 57.389L82.4385 91.7152C81.6768 92.2417 82.3321 93.5002 83.623 93.9908C84.2168 94.2164 84.8024 94.2122 85.1644 93.9796L149.869 60.8075C151.332 59.8675 149.566 57.4093 147.219 57.1202C146.629 57.0475 146.109 57.1428 145.753 57.389Z" fill="url(#paint59_linear)"/>
</g>
<defs>
<linearGradient id="paint0_linear" x1="75.7117" y1="134.094" x2="76.2609" y2="143.154" gradientUnits="userSpaceOnUse">
<stop stop-color="#F8F6FB"/>
<stop offset="1" stop-color="#EFDCFB"/>
</linearGradient>
<linearGradient id="paint1_linear" x1="64.0218" y1="62.6505" x2="107.257" y2="127.062" gradientUnits="userSpaceOnUse">
<stop stop-color="#F8F6FB"/>
<stop offset="1" stop-color="#EFDCFB"/>
</linearGradient>
<linearGradient id="paint2_linear" x1="66.2912" y1="34.6731" x2="76.8794" y2="77.4181" gradientUnits="userSpaceOnUse">
<stop stop-color="#F8F6FB"/>
<stop offset="1" stop-color="#EFDCFB"/>
</linearGradient>
<linearGradient id="paint3_linear" x1="75.4022" y1="100.897" x2="75.4022" y2="-5.46045" gradientUnits="userSpaceOnUse">
<stop stop-color="#EFDCFB" stop-opacity="0"/>
<stop offset="0.0287" stop-color="#E9D6F7" stop-opacity="0.029"/>
<stop offset="0.2203" stop-color="#C5B5DE" stop-opacity="0.22"/>
<stop offset="0.4138" stop-color="#AA9BCB" stop-opacity="0.414"/>
<stop offset="0.6078" stop-color="#9688BD" stop-opacity="0.608"/>
<stop offset="0.8028" stop-color="#8A7DB5" stop-opacity="0.803"/>
<stop offset="1" stop-color="#8679B2"/>
</linearGradient>
<linearGradient id="paint4_linear" x1="75.4021" y1="67.6616" x2="75.4021" y2="78.1192" gradientUnits="userSpaceOnUse">
<stop stop-color="#FFDECF"/>
<stop offset="0.3791" stop-color="#FDC4B0"/>
<stop offset="0.7655" stop-color="#FBAE97"/>
<stop offset="1" stop-color="#FAA68E"/>
</linearGradient>
<linearGradient id="paint5_linear" x1="101.047" y1="102.972" x2="113.4" y2="111.207" gradientUnits="userSpaceOnUse">
<stop stop-color="#FF6359"/>
<stop offset="0.2243" stop-color="#FE5B50"/>
<stop offset="0.5952" stop-color="#FC4637"/>
<stop offset="1" stop-color="#F82814"/>
</linearGradient>
<linearGradient id="paint6_linear" x1="98.8151" y1="114.29" x2="110.173" y2="121.862" gradientUnits="userSpaceOnUse">
<stop stop-color="#FF6359"/>
<stop offset="0.2243" stop-color="#FE5B50"/>
<stop offset="0.5952" stop-color="#FC4637"/>
<stop offset="1" stop-color="#F82814"/>
</linearGradient>
<linearGradient id="paint7_linear" x1="65.9756" y1="57.0101" x2="78.1323" y2="86.6181" gradientUnits="userSpaceOnUse">
<stop stop-color="#FFD945"/>
<stop offset="0.3043" stop-color="#FFCD3E"/>
<stop offset="0.8558" stop-color="#FFAD2B"/>
<stop offset="1" stop-color="#FFA325"/>
</linearGradient>
<linearGradient id="paint8_linear" x1="72.6703" y1="74.0684" x2="85.6114" y2="-4.46104" gradientUnits="userSpaceOnUse">
<stop stop-color="#F82814" stop-opacity="0"/>
<stop offset="1" stop-color="#C0272D"/>
</linearGradient>
<linearGradient id="paint9_linear" x1="67.0797" y1="84.9551" x2="59.1647" y2="15.9833" gradientUnits="userSpaceOnUse">
<stop stop-color="#F82814" stop-opacity="0"/>
<stop offset="1" stop-color="#C0272D"/>
</linearGradient>
<linearGradient id="paint10_linear" x1="61.9129" y1="78.7435" x2="73.0894" y2="15.6552" gradientUnits="userSpaceOnUse">
<stop stop-color="#F82814" stop-opacity="0"/>
<stop offset="1" stop-color="#C0272D"/>
</linearGradient>
<linearGradient id="paint11_linear" x1="58.1906" y1="75.0754" x2="68.3376" y2="45.3695" gradientUnits="userSpaceOnUse">
<stop stop-color="#F82814" stop-opacity="0"/>
<stop offset="1" stop-color="#C0272D"/>
</linearGradient>
<linearGradient id="paint12_linear" x1="51.1282" y1="83.1999" x2="49.5597" y2="57.3175" gradientUnits="userSpaceOnUse">
<stop stop-color="#F82814" stop-opacity="0"/>
<stop offset="1" stop-color="#C0272D"/>
</linearGradient>
<linearGradient id="paint13_linear" x1="27.5771" y1="67.7439" x2="30.6162" y2="71.6654" gradientUnits="userSpaceOnUse">
<stop stop-color="#FFD945"/>
<stop offset="0.3043" stop-color="#FFCD3E"/>
<stop offset="0.8558" stop-color="#FFAD2B"/>
<stop offset="1" stop-color="#FFA325"/>
</linearGradient>
<linearGradient id="paint14_linear" x1="33.8939" y1="61.2686" x2="39.9724" y2="66.8569" gradientUnits="userSpaceOnUse">
<stop stop-color="#FFD945"/>
<stop offset="0.3043" stop-color="#FFCD3E"/>
<stop offset="0.8558" stop-color="#FFAD2B"/>
<stop offset="1" stop-color="#FFA325"/>
</linearGradient>
<linearGradient id="paint15_linear" x1="42.7649" y1="57.9321" x2="49.7255" y2="65.383" gradientUnits="userSpaceOnUse">
<stop stop-color="#FFD945"/>
<stop offset="0.3043" stop-color="#FFCD3E"/>
<stop offset="0.8558" stop-color="#FFAD2B"/>
<stop offset="1" stop-color="#FFA325"/>
</linearGradient>
<linearGradient id="paint16_linear" x1="51.5401" y1="52.4763" x2="60.6577" y2="64.0939" gradientUnits="userSpaceOnUse">
<stop stop-color="#FFD945"/>
<stop offset="0.3043" stop-color="#FFCD3E"/>
<stop offset="0.8558" stop-color="#FFAD2B"/>
<stop offset="1" stop-color="#FFA325"/>
</linearGradient>
<linearGradient id="paint17_linear" x1="56.501" y1="47.4739" x2="69.4422" y2="65.121" gradientUnits="userSpaceOnUse">
<stop stop-color="#FFD945"/>
<stop offset="0.3043" stop-color="#FFCD3E"/>
<stop offset="0.8558" stop-color="#FFAD2B"/>
<stop offset="1" stop-color="#FFA325"/>
</linearGradient>
<linearGradient id="paint18_linear" x1="71.1758" y1="52.786" x2="78.8228" y2="65.5313" gradientUnits="userSpaceOnUse">
<stop stop-color="#FFD945"/>
<stop offset="0.3043" stop-color="#FFCD3E"/>
<stop offset="0.8558" stop-color="#FFAD2B"/>
<stop offset="1" stop-color="#FFA325"/>
</linearGradient>
<linearGradient id="paint19_linear" x1="51.313" y1="53.2866" x2="57.2948" y2="61.5795" gradientUnits="userSpaceOnUse">
<stop stop-color="#BADA00"/>
<stop offset="0.2269" stop-color="#B0CE00"/>
<stop offset="0.6378" stop-color="#95AE00"/>
<stop offset="1" stop-color="#798C00"/>
</linearGradient>
<linearGradient id="paint20_linear" x1="46.2534" y1="58.0231" x2="50.9758" y2="64.5699" gradientUnits="userSpaceOnUse">
<stop stop-color="#BADA00"/>
<stop offset="0.2269" stop-color="#B0CE00"/>
<stop offset="0.6378" stop-color="#95AE00"/>
<stop offset="1" stop-color="#798C00"/>
</linearGradient>
<linearGradient id="paint21_linear" x1="53.5502" y1="62.3945" x2="56.3972" y2="66.3415" gradientUnits="userSpaceOnUse">
<stop stop-color="#BADA00"/>
<stop offset="0.2269" stop-color="#B0CE00"/>
<stop offset="0.6378" stop-color="#95AE00"/>
<stop offset="1" stop-color="#798C00"/>
</linearGradient>
<linearGradient id="paint22_linear" x1="62.5724" y1="58.7313" x2="68.5545" y2="67.0249" gradientUnits="userSpaceOnUse">
<stop stop-color="#BADA00"/>
<stop offset="0.2269" stop-color="#B0CE00"/>
<stop offset="0.6378" stop-color="#95AE00"/>
<stop offset="1" stop-color="#798C00"/>
</linearGradient>
<linearGradient id="paint23_linear" x1="66.0236" y1="53.1271" x2="70.7462" y2="59.6745" gradientUnits="userSpaceOnUse">
<stop stop-color="#BADA00"/>
<stop offset="0.2269" stop-color="#B0CE00"/>
<stop offset="0.6378" stop-color="#95AE00"/>
<stop offset="1" stop-color="#798C00"/>
</linearGradient>
<linearGradient id="paint24_linear" x1="59.0589" y1="53.7646" x2="61.9062" y2="57.7116" gradientUnits="userSpaceOnUse">
<stop stop-color="#BADA00"/>
<stop offset="0.2269" stop-color="#B0CE00"/>
<stop offset="0.6378" stop-color="#95AE00"/>
<stop offset="1" stop-color="#798C00"/>
</linearGradient>
<linearGradient id="paint25_linear" x1="56.8535" y1="62.7716" x2="61.2744" y2="68.9005" gradientUnits="userSpaceOnUse">
<stop stop-color="#BADA00"/>
<stop offset="0.2269" stop-color="#B0CE00"/>
<stop offset="0.6378" stop-color="#95AE00"/>
<stop offset="1" stop-color="#798C00"/>
</linearGradient>
<linearGradient id="paint26_linear" x1="58.1968" y1="58.213" x2="61.6868" y2="63.0515" gradientUnits="userSpaceOnUse">
<stop stop-color="#BADA00"/>
<stop offset="0.2269" stop-color="#B0CE00"/>
<stop offset="0.6378" stop-color="#95AE00"/>
<stop offset="1" stop-color="#798C00"/>
</linearGradient>
<linearGradient id="paint27_linear" x1="53.1896" y1="60.0837" x2="55.2937" y2="63.0007" gradientUnits="userSpaceOnUse">
<stop stop-color="#BADA00"/>
<stop offset="0.2269" stop-color="#B0CE00"/>
<stop offset="0.6378" stop-color="#95AE00"/>
<stop offset="1" stop-color="#798C00"/>
</linearGradient>
<linearGradient id="paint28_linear" x1="75.0386" y1="52.5913" x2="81.0204" y2="60.8842" gradientUnits="userSpaceOnUse">
<stop stop-color="#BADA00"/>
<stop offset="0.2269" stop-color="#B0CE00"/>
<stop offset="0.6378" stop-color="#95AE00"/>
<stop offset="1" stop-color="#798C00"/>
</linearGradient>
<linearGradient id="paint29_linear" x1="69.979" y1="57.3277" x2="74.7014" y2="63.8745" gradientUnits="userSpaceOnUse">
<stop stop-color="#BADA00"/>
<stop offset="0.2269" stop-color="#B0CE00"/>
<stop offset="0.6378" stop-color="#95AE00"/>
<stop offset="1" stop-color="#798C00"/>
</linearGradient>
<linearGradient id="paint30_linear" x1="77.2758" y1="61.6993" x2="80.1228" y2="65.6463" gradientUnits="userSpaceOnUse">
<stop stop-color="#BADA00"/>
<stop offset="0.2269" stop-color="#B0CE00"/>
<stop offset="0.6378" stop-color="#95AE00"/>
<stop offset="1" stop-color="#798C00"/>
</linearGradient>
<linearGradient id="paint31_linear" x1="89.3546" y1="56.7616" x2="95.3367" y2="65.0552" gradientUnits="userSpaceOnUse">
<stop stop-color="#BADA00"/>
<stop offset="0.2269" stop-color="#B0CE00"/>
<stop offset="0.6378" stop-color="#95AE00"/>
<stop offset="1" stop-color="#798C00"/>
</linearGradient>
<linearGradient id="paint32_linear" x1="87.1997" y1="52.5372" x2="91.9223" y2="59.0842" gradientUnits="userSpaceOnUse">
<stop stop-color="#BADA00"/>
<stop offset="0.2269" stop-color="#B0CE00"/>
<stop offset="0.6378" stop-color="#95AE00"/>
<stop offset="1" stop-color="#798C00"/>
</linearGradient>
<linearGradient id="paint33_linear" x1="82.7845" y1="53.0692" x2="85.6315" y2="57.0165" gradientUnits="userSpaceOnUse">
<stop stop-color="#BADA00"/>
<stop offset="0.2269" stop-color="#B0CE00"/>
<stop offset="0.6378" stop-color="#95AE00"/>
<stop offset="1" stop-color="#798C00"/>
</linearGradient>
<linearGradient id="paint34_linear" x1="80.5801" y1="62.0763" x2="85.0007" y2="68.2052" gradientUnits="userSpaceOnUse">
<stop stop-color="#BADA00"/>
<stop offset="0.2269" stop-color="#B0CE00"/>
<stop offset="0.6378" stop-color="#95AE00"/>
<stop offset="1" stop-color="#798C00"/>
</linearGradient>
<linearGradient id="paint35_linear" x1="81.9224" y1="57.5181" x2="85.4121" y2="62.3563" gradientUnits="userSpaceOnUse">
<stop stop-color="#BADA00"/>
<stop offset="0.2269" stop-color="#B0CE00"/>
<stop offset="0.6378" stop-color="#95AE00"/>
<stop offset="1" stop-color="#798C00"/>
</linearGradient>
<linearGradient id="paint36_linear" x1="76.9152" y1="59.3886" x2="79.0193" y2="62.3054" gradientUnits="userSpaceOnUse">
<stop stop-color="#BADA00"/>
<stop offset="0.2269" stop-color="#B0CE00"/>
<stop offset="0.6378" stop-color="#95AE00"/>
<stop offset="1" stop-color="#798C00"/>
</linearGradient>
<linearGradient id="paint37_linear" x1="74.5228" y1="49.7519" x2="69.1181" y2="53.6504" gradientUnits="userSpaceOnUse">
<stop stop-color="#FF6359"/>
<stop offset="0.2243" stop-color="#FE5B50"/>
<stop offset="0.5952" stop-color="#FC4637"/>
<stop offset="1" stop-color="#F82814"/>
</linearGradient>
<linearGradient id="paint38_linear" x1="65.4499" y1="51.504" x2="62.8775" y2="53.3596" gradientUnits="userSpaceOnUse">
<stop stop-color="#FF6359"/>
<stop offset="0.2243" stop-color="#FE5B50"/>
<stop offset="0.5952" stop-color="#FC4637"/>
<stop offset="1" stop-color="#F82814"/>
</linearGradient>
<linearGradient id="paint39_linear" x1="73.5845" y1="54.7163" x2="71.0118" y2="56.5719" gradientUnits="userSpaceOnUse">
<stop stop-color="#FF6359"/>
<stop offset="0.2243" stop-color="#FE5B50"/>
<stop offset="0.5952" stop-color="#FC4637"/>
<stop offset="1" stop-color="#F82814"/>
</linearGradient>
<linearGradient id="paint40_linear" x1="81.9028" y1="51.3593" x2="79.3302" y2="53.2149" gradientUnits="userSpaceOnUse">
<stop stop-color="#FF6359"/>
<stop offset="0.2243" stop-color="#FE5B50"/>
<stop offset="0.5952" stop-color="#FC4637"/>
<stop offset="1" stop-color="#F82814"/>
</linearGradient>
<linearGradient id="paint41_linear" x1="65.2035" y1="53.6569" x2="61.2091" y2="56.5384" gradientUnits="userSpaceOnUse">
<stop stop-color="#FF6359"/>
<stop offset="0.2243" stop-color="#FE5B50"/>
<stop offset="0.5952" stop-color="#FC4637"/>
<stop offset="1" stop-color="#F82814"/>
</linearGradient>
<linearGradient id="paint42_linear" x1="69.9847" y1="50.8611" x2="66.8312" y2="53.1355" gradientUnits="userSpaceOnUse">
<stop stop-color="#FF6359"/>
<stop offset="0.2243" stop-color="#FE5B50"/>
<stop offset="0.5952" stop-color="#FC4637"/>
<stop offset="1" stop-color="#F82814"/>
</linearGradient>
<linearGradient id="paint43_linear" x1="77.8476" y1="50.8611" x2="74.6943" y2="53.1355" gradientUnits="userSpaceOnUse">
<stop stop-color="#FF6359"/>
<stop offset="0.2243" stop-color="#FE5B50"/>
<stop offset="0.5952" stop-color="#FC4637"/>
<stop offset="1" stop-color="#F82814"/>
</linearGradient>
<linearGradient id="paint44_linear" x1="71.0834" y1="53.0866" x2="69.1822" y2="54.4578" gradientUnits="userSpaceOnUse">
<stop stop-color="#FF6359"/>
<stop offset="0.2243" stop-color="#FE5B50"/>
<stop offset="0.5952" stop-color="#FC4637"/>
<stop offset="1" stop-color="#F82814"/>
</linearGradient>
<linearGradient id="paint45_linear" x1="82.6673" y1="87.561" x2="55.7556" y2="71.3845" gradientUnits="userSpaceOnUse">
<stop stop-color="#F82814" stop-opacity="0"/>
<stop offset="1" stop-color="#C0272D"/>
</linearGradient>
<linearGradient id="paint46_linear" x1="61.6126" y1="72.8558" x2="69.9309" y2="81.7855" gradientUnits="userSpaceOnUse">
<stop stop-color="#F8F6FB"/>
<stop offset="1" stop-color="#EFDCFB"/>
</linearGradient>
<linearGradient id="paint47_linear" x1="60.8008" y1="77.6708" x2="71.3967" y2="77.6708" gradientUnits="userSpaceOnUse">
<stop stop-color="#FAA68E"/>
<stop offset="0.3566" stop-color="#FB9D92"/>
<stop offset="0.9447" stop-color="#FF849B"/>
<stop offset="1" stop-color="#FF819C"/>
</linearGradient>
<linearGradient id="paint48_linear" x1="93.4684" y1="76.401" x2="70.0861" y2="45.3716" gradientUnits="userSpaceOnUse">
<stop stop-color="#F82814" stop-opacity="0"/>
<stop offset="1" stop-color="#C0272D"/>
</linearGradient>
<linearGradient id="paint49_linear" x1="76.5273" y1="58.6834" x2="84.1573" y2="66.8745" gradientUnits="userSpaceOnUse">
<stop stop-color="#F8F6FB"/>
<stop offset="1" stop-color="#EFDCFB"/>
</linearGradient>
<linearGradient id="paint50_linear" x1="78.0641" y1="59.4272" x2="83.9938" y2="67.0913" gradientUnits="userSpaceOnUse">
<stop stop-color="#FAA68E"/>
<stop offset="0.3566" stop-color="#FB9D92"/>
<stop offset="0.9447" stop-color="#FF849B"/>
<stop offset="1" stop-color="#FF819C"/>
</linearGradient>
<linearGradient id="paint51_linear" x1="55.8036" y1="78.6193" x2="36.3439" y2="52.7955" gradientUnits="userSpaceOnUse">
<stop stop-color="#F82814" stop-opacity="0"/>
<stop offset="1" stop-color="#C0272D"/>
</linearGradient>
<linearGradient id="paint52_linear" x1="41.5136" y1="64.198" x2="49.1436" y2="72.3892" gradientUnits="userSpaceOnUse">
<stop stop-color="#F8F6FB"/>
<stop offset="1" stop-color="#EFDCFB"/>
</linearGradient>
<linearGradient id="paint53_linear" x1="43.044" y1="64.9265" x2="48.9737" y2="72.5906" gradientUnits="userSpaceOnUse">
<stop stop-color="#FAA68E"/>
<stop offset="0.3566" stop-color="#FB9D92"/>
<stop offset="0.9447" stop-color="#FF849B"/>
<stop offset="1" stop-color="#FF819C"/>
</linearGradient>
<linearGradient id="paint54_linear" x1="97.7395" y1="46.0731" x2="122.151" y2="57.6908" gradientUnits="userSpaceOnUse">
<stop stop-color="#E87264" stop-opacity="0"/>
<stop offset="1" stop-color="#F8DFBE"/>
</linearGradient>
<linearGradient id="paint55_linear" x1="68.9024" y1="25.6422" x2="87.253" y2="29.9598" gradientUnits="userSpaceOnUse">
<stop stop-color="#E87264" stop-opacity="0"/>
<stop offset="0.1575" stop-color="#E97869" stop-opacity="0.158"/>
<stop offset="0.3778" stop-color="#EC8B78" stop-opacity="0.378"/>
<stop offset="0.6353" stop-color="#F0A991" stop-opacity="0.635"/>
<stop offset="0.9188" stop-color="#F6D2B3" stop-opacity="0.919"/>
<stop offset="1" stop-color="#F8DFBE"/>
</linearGradient>
<linearGradient id="paint56_linear" x1="48.7821" y1="45.581" x2="62.1153" y2="50.7769" gradientUnits="userSpaceOnUse">
<stop stop-color="#E87264" stop-opacity="0"/>
<stop offset="1" stop-color="#F8DFBE"/>
</linearGradient>
<linearGradient id="paint57_linear" x1="124.323" y1="83.0436" x2="118.734" y2="71.7201" gradientUnits="userSpaceOnUse">
<stop stop-color="#EFDCFB" stop-opacity="0"/>
<stop offset="0.0287" stop-color="#E9D6F7" stop-opacity="0.029"/>
<stop offset="0.2203" stop-color="#C5B5DE" stop-opacity="0.22"/>
<stop offset="0.4138" stop-color="#AA9BCB" stop-opacity="0.414"/>
<stop offset="0.6078" stop-color="#9688BD" stop-opacity="0.608"/>
<stop offset="0.8028" stop-color="#8A7DB5" stop-opacity="0.803"/>
<stop offset="1" stop-color="#8679B2"/>
</linearGradient>
<linearGradient id="paint58_linear" x1="111.369" y1="73.1502" x2="113.134" y2="75.9934" gradientUnits="userSpaceOnUse">
<stop stop-color="#FF6359"/>
<stop offset="0.2243" stop-color="#FE5B50"/>
<stop offset="0.5952" stop-color="#FC4637"/>
<stop offset="1" stop-color="#F82814"/>
</linearGradient>
<linearGradient id="paint59_linear" x1="114.789" y1="73.6669" x2="117.73" y2="78.3728" gradientUnits="userSpaceOnUse">
<stop stop-color="#FF6359"/>
<stop offset="0.2243" stop-color="#FE5B50"/>
<stop offset="0.5952" stop-color="#FC4637"/>
<stop offset="1" stop-color="#F82814"/>
</linearGradient>
<clipPath id="clip0">
<rect width="150" height="150" fill="white" transform="translate(0.402344 0.562744)"/>
</clipPath>
</defs>
</svg>
