<svg width="151" height="151" viewBox="0 0 151 151" fill="none" xmlns="http://www.w3.org/2000/svg">
<g clip-path="url(#clip0)">
<path d="M145.9 97.3585C148.24 96.1435 149.023 92.9079 147.093 90.7514L67.6846 2.00051C66.1775 0.316103 63.8196 0.201985 62.1614 1.29551L43.4893 12.3764C42.5219 12.8814 26.0463 91.9455 25.0081 103.984C24.8155 106.219 26.3913 108.217 28.6099 108.551C41.7552 110.531 59.8355 110.103 79.3458 110.103C96.9611 110.103 112.777 110.755 125.425 109.106C126.108 109.016 126.713 108.779 127.228 108.439L145.9 97.3585Z" fill="url(#paint0_linear)"/>
<path d="M147.092 90.751L133.309 75.3466L116.381 92.2751L127.204 108.452C127.211 108.448 127.22 108.444 127.227 108.439L145.899 97.3583C148.239 96.1433 149.022 92.9077 147.092 90.751Z" fill="url(#paint1_linear)"/>
<path d="M53.4022 10.6302C39.0637 23.3308 118.436 112.942 132.775 100.242C135.248 98.0522 134.932 93.5749 132.646 87.7305C131.815 85.6075 131.462 83.284 131.663 80.9017L131.684 80.6461C132.121 75.4661 129.467 70.8772 124.887 68.8946L124.883 68.8931C120.971 67.1996 118.415 63.5817 118.065 59.2414L118.032 58.8284C117.646 54.0428 114.55 50.1911 109.995 48.8284L109.648 48.7243C105.464 47.4728 102.485 44.1102 101.747 39.8064L101.685 39.4458C100.882 34.7596 97.4313 31.222 92.7269 30.2617L92.2349 30.1611C87.9925 29.2949 84.7375 26.3225 83.5663 22.2452C82.1934 17.4661 77.9869 14.2722 72.8146 14.0817L72.4666 14.0687C70.0775 13.9808 67.8137 13.349 65.8066 12.2684C60.2807 9.29401 55.8743 8.44048 53.4022 10.6302Z" fill="url(#paint2_linear)"/>
<path d="M132.646 87.7311C131.814 85.607 131.463 83.2828 131.663 80.9017L131.684 80.6449C132.119 75.467 129.465 70.8778 124.887 68.8943H124.882C120.971 67.1999 118.415 63.5811 118.064 59.2408L118.031 58.8299C117.645 54.0437 114.55 50.1899 109.994 48.8278L109.648 48.7252C105.464 47.474 102.484 44.1093 101.746 39.8067L101.684 39.4472C101.181 36.507 99.635 34.0205 97.3921 32.3396C99.173 37.342 98.0624 43.1417 94.0597 47.144L79.4971 61.7067C99.8856 85.454 125.261 106.898 132.776 100.241C135.246 98.0522 134.933 93.574 132.646 87.7311Z" fill="url(#paint3_linear)"/>
<path d="M65.5255 37.9255C72.6618 37.9255 78.4469 32.1403 78.4469 25.004C78.4469 17.8677 72.6618 12.0825 65.5255 12.0825C58.3891 12.0825 52.604 17.8677 52.604 25.004C52.604 32.1403 58.3891 37.9255 65.5255 37.9255Z" fill="url(#paint4_linear)"/>
<path d="M107.391 82.3302C114.528 82.3302 120.313 76.5451 120.313 69.4088C120.313 62.2724 114.528 56.4873 107.391 56.4873C100.255 56.4873 94.4697 62.2724 94.4697 69.4088C94.4697 76.5451 100.255 82.3302 107.391 82.3302Z" fill="url(#paint5_linear)"/>
<path d="M130.343 68.7136C124.803 63.1736 115.821 63.1736 110.281 68.7136C104.741 74.2536 104.741 83.236 110.281 88.776C115.821 94.316 124.803 94.316 130.343 88.776C135.883 83.236 135.884 74.2536 130.343 68.7136ZM113.942 85.1148C110.425 81.5971 110.425 75.8924 113.942 72.3748C117.46 68.8571 123.163 68.8586 126.681 72.3762C130.198 75.8939 130.2 81.5974 126.682 85.1148C123.165 88.6324 117.46 88.6324 113.942 85.1148Z" fill="url(#paint6_linear)"/>
<path d="M111.968 87.0889C116.576 91.6966 124.049 91.6966 128.656 87.0889C133.265 82.4798 133.264 75.0083 128.656 70.4007C124.047 65.7916 116.577 65.7916 111.968 70.4007C107.36 75.0083 107.359 82.4798 111.968 87.0889ZM126.682 72.3748C130.2 75.8925 130.2 81.5972 126.682 85.1148C123.165 88.6325 117.461 88.631 113.944 85.1133C110.426 81.5957 110.425 75.8922 113.942 72.3748C117.46 68.8572 123.165 68.8572 126.682 72.3748Z" fill="url(#paint7_linear)"/>
<path d="M94.0606 27.0808C88.5206 21.5408 79.5383 21.5408 73.9983 27.0808C68.4583 32.6208 68.4583 41.6031 73.9983 47.1431C79.5383 52.6831 88.5206 52.6831 94.0606 47.1431C99.6006 41.6031 99.6006 32.6208 94.0606 27.0808ZM77.6591 43.482C74.1415 39.9643 74.1415 34.2596 77.6591 30.742C81.1768 27.2243 86.8803 27.2258 90.3977 30.7434C93.915 34.2611 93.9168 39.9646 90.3992 43.4823C86.8818 46.9996 81.1768 46.9996 77.6591 43.482Z" fill="url(#paint8_linear)"/>
<path d="M75.6848 45.4561C80.2924 50.0638 87.7654 50.0638 92.373 45.4561C96.9822 40.847 96.9807 33.3755 92.373 28.7679C87.7639 24.1588 80.2939 24.1588 75.6848 28.7679C71.0772 33.3755 71.0757 40.847 75.6848 45.4561ZM90.3992 30.742C93.9169 34.2596 93.9169 39.9643 90.3992 43.482C86.8816 46.9996 81.178 46.9982 77.6607 43.4805C74.143 39.9629 74.1416 34.2593 77.6592 30.742C81.1766 27.2243 86.8816 27.2243 90.3992 30.742Z" fill="url(#paint9_linear)"/>
<path d="M123.777 94.91L125.813 93.0515C128.761 90.3621 129.174 85.6159 126.779 81.5221C121.418 72.3603 111.937 59.8783 100.167 46.9806C88.398 34.083 76.8336 23.5015 68.1998 17.3268C64.3416 14.5677 59.5777 14.5462 56.6304 17.2356L54.5936 19.0942C53.1325 20.4274 53.6327 23.0847 55.5966 24.3597C64.4292 30.0936 77.2686 41.5733 90.3651 55.9253C103.462 70.2774 113.721 84.1112 118.625 93.4306C119.715 95.5027 122.315 96.2436 123.777 94.91Z" fill="url(#paint10_linear)"/>
<path d="M67.1117 32.572C70.5832 39.0614 75.899 44.3776 82.3885 47.8488C83.4699 48.4273 84.7776 47.6438 84.7776 46.4173V34.5709C84.7776 32.1473 82.8129 30.1826 80.3893 30.1826H68.5432C67.3167 30.1829 66.5332 31.4906 67.1117 32.572Z" fill="url(#paint11_linear)"/>
<path d="M51.0415 13.7182C43.7194 20.2038 123.092 109.815 130.414 103.33C131.677 102.211 130.361 98.6208 127.282 93.4785C126.163 91.6105 125.342 89.7008 124.909 87.88L124.863 87.6847C123.922 83.7249 120.881 79.4788 117.075 76.8102L117.072 76.8082C113.821 74.5288 111.088 71.0682 109.779 67.5767L109.655 67.2446C108.213 63.3949 105.03 59.6199 101.394 57.4441L101.116 57.2779C97.7753 55.2796 94.7962 51.9167 93.2156 48.3596L93.0832 48.0617C91.362 44.1885 87.9985 40.5741 84.3509 38.6776L83.9694 38.4791C80.68 36.7688 77.5956 33.6452 75.755 30.1605C73.5979 26.0761 69.7688 22.5476 65.9688 21.1417L65.7132 21.047C63.9579 20.3976 62.1615 19.352 60.4423 18.0164C55.7094 14.3399 52.3041 12.5999 51.0415 13.7182Z" fill="url(#paint12_linear)"/>
<path d="M136.644 102.852L127.228 108.438C126.712 108.779 126.107 109.016 125.426 109.106C112.775 110.754 96.9605 106.29 79.3452 106.29C59.8355 106.29 41.7549 110.53 28.6099 108.552C26.3911 108.217 24.8155 106.219 25.0075 103.984C26.0452 91.9447 42.5228 12.8817 43.4902 12.3761L51.4599 7.64673L136.644 102.852Z" fill="url(#paint13_linear)"/>
<path d="M136.644 102.852L127.228 108.438C126.712 108.779 126.107 109.016 125.426 109.106C112.775 110.754 96.6111 108.139 78.9961 108.139C59.4864 108.139 41.7549 110.53 28.6099 108.552C26.3911 108.217 24.8155 106.219 25.0075 103.984C26.0452 91.9447 42.5228 12.8817 43.4902 12.3761L51.4599 7.64673L136.644 102.852Z" fill="url(#paint14_linear)"/>
<path d="M41.3839 14.9597C30.0133 54.0306 50.596 63.2727 49.5577 75.3112C49.3651 77.5465 26.3904 108.216 28.6089 108.551C41.7542 110.53 59.5963 109.864 79.1066 109.864C96.7215 109.864 112.776 110.754 125.424 109.105C128.818 108.663 130.329 104.604 128.047 102.053L48.6386 13.3027C46.4098 10.8118 42.3177 11.7506 41.3839 14.9597Z" fill="url(#paint15_linear)"/>
<path d="M25.0071 103.984C24.8145 106.219 26.3904 108.217 28.6089 108.551C41.7542 110.53 59.4854 111.744 78.9957 111.744C96.611 111.744 112.776 110.755 125.425 109.105C128.818 108.663 130.329 104.604 128.047 102.053L107.192 78.7449H27.9395C26.3051 90.2352 25.4218 99.1749 25.0071 103.984Z" fill="url(#paint16_linear)"/>
<g opacity="0.6">
<g opacity="0.6">
<path opacity="0.6" d="M53.1107 32.2152C54.369 32.2152 55.389 31.1952 55.389 29.9369C55.389 28.6787 54.369 27.6587 53.1107 27.6587C51.8525 27.6587 50.8325 28.6787 50.8325 29.9369C50.8325 31.1952 51.8525 32.2152 53.1107 32.2152Z" fill="url(#paint17_linear)"/>
<path opacity="0.6" d="M46.2009 33.9379C47.1942 33.9379 47.9994 33.1326 47.9994 32.1393C47.9994 31.146 47.1942 30.3408 46.2009 30.3408C45.2076 30.3408 44.4023 31.146 44.4023 32.1393C44.4023 33.1326 45.2076 33.9379 46.2009 33.9379Z" fill="url(#paint18_linear)"/>
<path opacity="0.6" d="M51.5905 39.1128C52.1892 39.1128 52.6746 38.6274 52.6746 38.0287C52.6746 37.43 52.1892 36.9446 51.5905 36.9446C50.9917 36.9446 50.5063 37.43 50.5063 38.0287C50.5063 38.6274 50.9917 39.1128 51.5905 39.1128Z" fill="url(#paint19_linear)"/>
</g>
<g opacity="0.6">
<path opacity="0.6" d="M37.7353 95.8266C38.9935 95.8266 40.0135 94.8066 40.0135 93.5484C40.0135 92.2901 38.9935 91.2701 37.7353 91.2701C36.477 91.2701 35.457 92.2901 35.457 93.5484C35.457 94.8066 36.477 95.8266 37.7353 95.8266Z" fill="url(#paint20_linear)"/>
<path opacity="0.6" d="M38.1457 102.588C39.139 102.588 39.9442 101.782 39.9442 100.789C39.9442 99.7957 39.139 98.9905 38.1457 98.9905C37.1524 98.9905 36.3472 99.7957 36.3472 100.789C36.3472 101.782 37.1524 102.588 38.1457 102.588Z" fill="url(#paint21_linear)"/>
<path opacity="0.6" d="M45.1925 98.122C45.7913 98.122 46.2766 97.6366 46.2766 97.0378C46.2766 96.4391 45.7913 95.9537 45.1925 95.9537C44.5938 95.9537 44.1084 96.4391 44.1084 97.0378C44.1084 97.6366 44.5938 98.122 45.1925 98.122Z" fill="url(#paint22_linear)"/>
</g>
<g opacity="0.6">
<path opacity="0.6" d="M61.7511 40.1868C62.6807 40.1868 63.4343 39.4332 63.4343 38.5035C63.4343 37.5739 62.6807 36.8203 61.7511 36.8203C60.8215 36.8203 60.0679 37.5739 60.0679 38.5035C60.0679 39.4332 60.8215 40.1868 61.7511 40.1868Z" fill="url(#paint23_linear)"/>
<path opacity="0.6" d="M57.134 37.112C57.8679 37.112 58.4628 36.5171 58.4628 35.7832C58.4628 35.0493 57.8679 34.4543 57.134 34.4543C56.4001 34.4543 55.8052 35.0493 55.8052 35.7832C55.8052 36.5171 56.4001 37.112 57.134 37.112Z" fill="url(#paint24_linear)"/>
<path opacity="0.6" d="M56.5458 42.4537C56.9883 42.4537 57.347 42.095 57.347 41.6525C57.347 41.21 56.9883 40.8513 56.5458 40.8513C56.1033 40.8513 55.7446 41.21 55.7446 41.6525C55.7446 42.095 56.1033 42.4537 56.5458 42.4537Z" fill="url(#paint25_linear)"/>
</g>
<g opacity="0.6">
<path opacity="0.6" d="M100.377 99.9674C101.306 99.9674 102.06 99.2138 102.06 98.2842C102.06 97.3546 101.306 96.601 100.377 96.601C99.447 96.601 98.6934 97.3546 98.6934 98.2842C98.6934 99.2138 99.447 99.9674 100.377 99.9674Z" fill="url(#paint26_linear)"/>
<path opacity="0.6" d="M95.7595 96.8928C96.4934 96.8928 97.0883 96.2978 97.0883 95.5639C97.0883 94.83 96.4934 94.2351 95.7595 94.2351C95.0256 94.2351 94.4307 94.83 94.4307 95.5639C94.4307 96.2978 95.0256 96.8928 95.7595 96.8928Z" fill="url(#paint27_linear)"/>
<path opacity="0.6" d="M95.1713 102.235C95.6138 102.235 95.9725 101.876 95.9725 101.434C95.9725 100.991 95.6138 100.632 95.1713 100.632C94.7288 100.632 94.3701 100.991 94.3701 101.434C94.3701 101.876 94.7288 102.235 95.1713 102.235Z" fill="url(#paint28_linear)"/>
</g>
</g>
<path d="M111.643 62.7347C111.074 62.9305 110.771 63.5505 110.967 64.1197C111.163 64.6888 111.783 64.9914 112.352 64.7955C112.921 64.5997 113.224 63.9797 113.028 63.4105C112.832 62.8414 112.212 62.5388 111.643 62.7347Z" fill="#FFEAA2"/>
<path d="M114.557 64.8569C114.712 65.3064 115.201 65.5452 115.651 65.3905C116.1 65.2358 116.339 64.7464 116.184 64.297C116.03 63.8475 115.54 63.6087 115.091 63.7634C114.642 63.9181 114.403 64.4075 114.557 64.8569Z" fill="#FFEAA2"/>
<path d="M116.93 60.9341C117.023 61.2049 117.318 61.3491 117.589 61.2558C117.86 61.1626 118.004 60.8676 117.911 60.5967C117.817 60.3258 117.522 60.1817 117.251 60.275C116.981 60.3682 116.837 60.6632 116.93 60.9341Z" fill="#FFEAA2"/>
<path d="M109.127 53.8119C109.555 54.2352 110.245 54.2313 110.668 53.8034C111.091 53.3754 111.087 52.6854 110.659 52.2622C110.231 51.839 109.541 51.8428 109.118 52.2707C108.695 52.6987 108.699 53.3887 109.127 53.8119Z" fill="#FFEAA2"/>
<path d="M98.0136 48.187C98.3516 48.5211 98.8963 48.5182 99.2304 48.1803C99.5645 47.8423 99.5616 47.2976 99.2236 46.9635C98.8857 46.6294 98.341 46.6323 98.0068 46.9703C97.6727 47.3082 97.676 47.8529 98.0136 48.187Z" fill="#FFEAA2"/>
<path d="M104.076 53.4061C104.28 53.6076 104.608 53.6058 104.81 53.402C105.011 53.1982 105.009 52.87 104.806 52.6685C104.602 52.467 104.274 52.4688 104.072 52.6726C103.871 52.8761 103.873 53.2047 104.076 53.4061Z" fill="#FFEAA2"/>
<path d="M113.431 59.6923C113.815 59.9161 114.309 59.7864 114.533 59.402C114.756 59.0179 114.627 58.5246 114.242 58.3008C113.858 58.077 113.365 58.2067 113.141 58.5911C112.917 58.9752 113.047 59.4682 113.431 59.6923Z" fill="#FFEAA2"/>
<path d="M111.238 60.7193C111.541 60.896 111.93 60.7934 112.107 60.4901C112.284 60.1869 112.181 59.7975 111.878 59.6207C111.575 59.444 111.185 59.5466 111.009 59.8498C110.832 60.1531 110.934 60.5425 111.238 60.7193Z" fill="#FFEAA2"/>
<path d="M113.976 61.5753C113.793 61.4689 113.558 61.5306 113.452 61.7136C113.345 61.8965 113.407 62.1312 113.59 62.2377C113.773 62.3442 114.007 62.2824 114.114 62.0994C114.22 61.9168 114.158 61.6821 113.976 61.5753Z" fill="#FFEAA2"/>
<path d="M89.631 42.9086C89.0619 43.1045 88.7592 43.7245 88.9551 44.2936C89.151 44.8627 89.771 45.1654 90.3401 44.9695C90.9092 44.7736 91.2119 44.1536 91.016 43.5845C90.8201 43.0157 90.2001 42.713 89.631 42.9086Z" fill="#FFEAA2"/>
<path d="M99.8855 52.2273C100.04 52.6767 100.53 52.9155 100.979 52.7608C101.428 52.6061 101.667 52.1167 101.513 51.6673C101.358 51.2179 100.868 50.9791 100.419 51.1338C99.9699 51.2885 99.7308 51.7779 99.8855 52.2273Z" fill="#FFEAA2"/>
<path d="M97.6475 44.051C97.7407 44.3219 98.0357 44.466 98.3066 44.3728C98.5775 44.2795 98.7216 43.9845 98.6284 43.7137C98.5351 43.4428 98.2402 43.2987 97.9693 43.3919C97.6984 43.4851 97.5543 43.7804 97.6475 44.051Z" fill="#FFEAA2"/>
<path d="M86.2981 37.7814C86.726 38.2046 87.416 38.2008 87.8393 37.7729C88.2625 37.3449 88.2587 36.6549 87.8307 36.2317C87.4028 35.8085 86.7128 35.8123 86.2896 36.2402C85.8663 36.6682 85.8701 37.3582 86.2981 37.7814Z" fill="#FFEAA2"/>
<path d="M85.3932 38.9264C85.0591 39.2644 85.062 39.8091 85.4 40.1432C85.7379 40.4773 86.2826 40.4744 86.6167 40.1364C86.9508 39.7985 86.9479 39.2538 86.6099 38.9197C86.272 38.5856 85.7273 38.5888 85.3932 38.9264Z" fill="#FFEAA2"/>
<path d="M87.1172 41.962C87.321 42.1635 87.6493 42.1618 87.8507 41.9579C88.0522 41.7544 88.0504 41.4259 87.8466 41.2244C87.6428 41.0229 87.3146 41.0247 87.1131 41.2285C86.9119 41.4323 86.9137 41.7609 87.1172 41.962Z" fill="#FFEAA2"/>
<path d="M95.6909 39.6708C96.075 39.8946 96.5683 39.7649 96.7921 39.3805C97.0159 38.9964 96.8862 38.5031 96.5018 38.2793C96.1177 38.0555 95.6244 38.1852 95.4006 38.5696C95.1768 38.954 95.3068 39.447 95.6909 39.6708Z" fill="#FFEAA2"/>
<path d="M89.2254 40.8931C89.5286 41.0698 89.918 40.9672 90.0948 40.664C90.2716 40.3607 90.1689 39.9713 89.8657 39.7946C89.5625 39.6178 89.173 39.7204 88.9963 40.0237C88.8195 40.3272 88.9219 40.7163 89.2254 40.8931Z" fill="#FFEAA2"/>
<path d="M91.9625 41.7494C91.7795 41.6429 91.5448 41.7047 91.4384 41.8876C91.3319 42.0706 91.3937 42.3053 91.5766 42.4118C91.7595 42.5182 91.9942 42.4565 92.1007 42.2735C92.2072 42.0906 92.1454 41.8559 91.9625 41.7494Z" fill="#FFEAA2"/>
<path d="M41.3839 14.9597C30.0133 54.0306 26.0454 91.945 25.0071 103.983C24.8145 106.219 26.3904 108.216 28.6089 108.55C41.7542 110.53 59.4854 111.744 78.9957 111.744C96.6107 111.744 112.776 110.754 125.425 109.105C128.818 108.663 130.329 104.603 128.047 102.053L48.6386 13.3027C46.4098 10.8118 42.3177 11.7506 41.3839 14.9597Z" fill="url(#paint29_linear)"/>
<path d="M123.679 136.198C126.019 134.983 126.802 131.747 124.873 129.59L45.4642 40.8399C43.9571 39.1555 41.5992 39.0413 39.9409 40.1349L21.2689 51.2158C20.3015 51.7208 19.513 52.6019 19.1642 53.7996C7.79359 92.8705 3.82565 130.785 2.78741 142.823C2.59476 145.058 4.17065 147.056 6.38918 147.39C19.5345 149.37 37.2659 150.583 56.7759 150.583C74.3912 150.583 90.5559 149.594 103.205 147.945C103.887 147.856 104.492 147.619 105.007 147.278L123.679 136.198Z" fill="url(#paint30_linear)"/>
<path d="M124.873 129.59L111.09 114.186L94.1616 131.115L104.985 147.292C104.992 147.287 105 147.283 105.008 147.278L123.68 136.198C126.02 134.983 126.803 131.747 124.873 129.59Z" fill="url(#paint31_linear)"/>
<path d="M31.1825 49.4695C16.8437 62.1701 96.2167 151.782 110.555 139.081C113.028 136.892 112.712 132.414 110.426 126.57C109.595 124.447 109.242 122.123 109.443 119.741L109.464 119.485C109.901 114.305 107.247 109.717 102.667 107.734L102.663 107.732C98.7508 106.039 96.1949 102.421 95.8452 98.0807L95.812 97.6678C95.4261 92.8822 92.3305 89.0304 87.7755 87.6678L87.4276 87.5637C83.244 86.3122 80.2649 82.9495 79.527 78.6457L79.4652 78.2851C78.6617 73.599 75.2114 70.0613 70.507 69.101L70.0149 69.0004C65.7726 68.1343 62.5175 65.1619 61.3464 61.0845C59.9734 56.3054 55.767 53.1116 50.5946 52.921L50.2467 52.9081C47.8575 52.8201 45.5937 52.1884 43.5867 51.1078C38.0608 48.1334 33.6546 47.2798 31.1825 49.4695Z" fill="url(#paint32_linear)"/>
<path d="M110.427 126.57C109.595 124.446 109.243 122.122 109.443 119.741L109.465 119.484C109.9 114.306 107.246 109.717 102.668 107.734H102.663C98.7523 106.039 96.1958 102.42 95.8443 98.0801L95.812 97.6693C95.4255 92.8831 92.3311 89.0292 87.7746 87.6672L87.4287 87.5645C83.2452 86.3134 80.2643 82.9487 79.5264 78.646L79.4643 78.2866C78.9617 75.3463 77.4158 72.8598 75.1728 71.179C76.9537 76.1813 75.8431 81.981 71.8405 85.9834L57.2778 100.546C77.6664 124.293 103.042 145.737 110.557 139.08C113.027 136.892 112.713 132.413 110.427 126.57Z" fill="url(#paint33_linear)"/>
<path d="M43.3058 76.7648C50.4421 76.7648 56.2272 70.9797 56.2272 63.8433C56.2272 56.707 50.4421 50.9219 43.3058 50.9219C36.1694 50.9219 30.3843 56.707 30.3843 63.8433C30.3843 70.9797 36.1694 76.7648 43.3058 76.7648Z" fill="url(#paint34_linear)"/>
<path d="M85.1715 121.17C92.3078 121.17 98.0929 115.384 98.0929 108.248C98.0929 101.112 92.3078 95.3267 85.1715 95.3267C78.0351 95.3267 72.25 101.112 72.25 108.248C72.25 115.384 78.0351 121.17 85.1715 121.17Z" fill="url(#paint35_linear)"/>
<path d="M108.124 107.553C102.584 102.013 93.6013 102.013 88.0613 107.553C82.5212 113.093 82.5212 122.075 88.0613 127.615C93.6013 133.155 102.584 133.155 108.124 127.615C113.664 122.075 113.664 113.093 108.124 107.553ZM91.7224 123.954C88.2048 120.437 88.2048 114.732 91.7224 111.214C95.2401 107.697 100.944 107.698 104.461 111.216C107.979 114.733 107.98 120.437 104.462 123.954C100.945 127.472 95.2401 127.472 91.7224 123.954Z" fill="url(#paint36_linear)"/>
<path d="M89.7483 125.928C94.3559 130.536 101.829 130.536 106.436 125.928C111.046 121.319 111.044 113.848 106.436 109.24C101.827 104.631 94.3574 104.631 89.7483 109.24C85.1406 113.848 85.1392 121.319 89.7483 125.928ZM104.462 111.214C107.98 114.732 107.98 120.437 104.462 123.954C100.945 127.472 95.2412 127.47 91.7239 123.953C88.2065 120.435 88.2048 114.732 91.7224 111.214C95.24 107.697 100.945 107.697 104.462 111.214Z" fill="url(#paint37_linear)"/>
<path d="M71.8409 65.9201C66.3009 60.3801 57.3185 60.3801 51.7785 65.9201C46.2385 71.4601 46.2385 80.4425 51.7785 85.9825C57.3185 91.5225 66.3009 91.5225 71.8409 85.9825C77.3809 80.4425 77.3809 71.4601 71.8409 65.9201ZM55.4397 82.3213C51.9221 78.8037 51.9221 73.099 55.4397 69.5813C58.9574 66.0637 64.6609 66.0651 68.1782 69.5828C71.6959 73.1004 71.6974 78.804 68.1797 82.3216C64.6621 85.839 58.9574 85.839 55.4397 82.3213Z" fill="url(#paint38_linear)"/>
<path d="M53.4656 84.2955C58.0732 88.9031 65.5462 88.9031 70.1538 84.2955C74.7629 79.6864 74.7614 72.2149 70.1538 67.6072C65.5447 62.9981 58.0747 62.9981 53.4656 67.6072C48.8579 72.2149 48.8564 79.6864 53.4656 84.2955ZM68.1797 69.5813C71.6973 73.099 71.6973 78.8037 68.1797 82.3214C64.662 85.839 58.9585 85.8375 55.4412 82.3199C51.9235 78.8022 51.922 73.0987 55.4397 69.5813C58.9573 66.0637 64.6623 66.0637 68.1797 69.5813Z" fill="url(#paint39_linear)"/>
<path d="M101.557 133.75L103.594 131.891C106.541 129.202 106.955 124.455 104.56 120.362C99.1991 111.2 89.7176 98.7178 77.9482 85.8202C66.1788 72.9225 54.6144 62.3411 45.9806 56.1664C42.1223 53.4072 37.3585 53.3858 34.4112 56.0755L32.3744 57.934C30.9132 59.2672 31.4135 61.9246 33.3773 63.1996C42.21 68.9334 55.0494 80.4131 68.1459 94.7652C81.2423 109.117 91.502 122.951 96.4056 132.27C97.4956 134.342 100.096 135.083 101.557 133.75Z" fill="url(#paint40_linear)"/>
<path d="M69.6814 77.4041C70.2506 77.2082 70.5532 76.5882 70.3573 76.0191C70.1614 75.4499 69.5414 75.1473 68.9723 75.3432C68.4032 75.5391 68.1006 76.1591 68.2964 76.7282C68.492 77.2973 69.1123 77.6 69.6814 77.4041Z" fill="#FFEAA2"/>
<path d="M66.7674 75.2817C66.6127 74.8323 66.1233 74.5935 65.6739 74.7482C65.2245 74.9029 64.9857 75.3923 65.1404 75.8417C65.2951 76.2911 65.7845 76.5299 66.2339 76.3752C66.6833 76.2205 66.9221 75.7311 66.7674 75.2817Z" fill="#FFEAA2"/>
<path d="M64.3955 79.2046C64.3022 78.9338 64.0072 78.7896 63.7364 78.8829C63.4655 78.9761 63.3214 79.2711 63.4146 79.542C63.5078 79.8129 63.8028 79.957 64.0737 79.8638C64.3446 79.7708 64.4887 79.4755 64.3955 79.2046Z" fill="#FFEAA2"/>
<path d="M72.1984 86.3267C71.7705 85.9034 71.0805 85.9072 70.6572 86.3352C70.234 86.7631 70.2378 87.4531 70.6658 87.8764C71.0937 88.2996 71.7837 88.2958 72.2069 87.8678C72.6305 87.4399 72.6266 86.7499 72.1984 86.3267Z" fill="#FFEAA2"/>
<path d="M83.3116 91.9517C82.9737 91.6175 82.429 91.6205 82.0948 91.9584C81.7607 92.2964 81.7637 92.8411 82.1016 93.1752C82.4395 93.5093 82.9843 93.5064 83.3184 93.1684C83.6525 92.8305 83.6496 92.2858 83.3116 91.9517Z" fill="#FFEAA2"/>
<path d="M77.2487 86.7328C77.0449 86.5313 76.7166 86.5331 76.5152 86.7369C76.3137 86.9408 76.3155 87.269 76.5193 87.4705C76.7231 87.6719 77.0514 87.6702 77.2528 87.4664C77.4543 87.2625 77.4525 86.9343 77.2487 86.7328Z" fill="#FFEAA2"/>
<path d="M67.8934 80.4464C67.5093 80.2226 67.0161 80.3523 66.7923 80.7367C66.5684 81.1208 66.6981 81.6141 67.0826 81.8379C67.4667 82.0617 67.9599 81.932 68.1837 81.5476C68.4075 81.1635 68.2775 80.6706 67.8934 80.4464Z" fill="#FFEAA2"/>
<path d="M70.0878 79.4193C69.7846 79.2425 69.3951 79.3452 69.2184 79.6484C69.0416 79.9517 69.1443 80.3411 69.4475 80.5178C69.7507 80.6946 70.1402 80.5919 70.3169 80.2887C70.4937 79.9855 70.391 79.5964 70.0878 79.4193Z" fill="#FFEAA2"/>
<path d="M67.3496 78.5635C67.5325 78.67 67.7672 78.6082 67.8737 78.4252C67.9801 78.2423 67.9184 78.0076 67.7354 77.9011C67.5525 77.7947 67.3178 77.8564 67.2113 78.0394C67.1048 78.2223 67.1666 78.457 67.3496 78.5635Z" fill="#FFEAA2"/>
<path d="M91.6936 97.2302C92.2628 97.0344 92.5654 96.4144 92.3695 95.8452C92.1736 95.2761 91.5536 94.9735 90.9845 95.1694C90.4154 95.3652 90.1128 95.9852 90.3086 96.5544C90.5045 97.1235 91.1245 97.4261 91.6936 97.2302Z" fill="#FFEAA2"/>
<path d="M81.4403 87.9114C81.2856 87.462 80.7962 87.2232 80.3468 87.3779C79.8973 87.5326 79.6585 88.022 79.8132 88.4714C79.9679 88.9209 80.4573 89.1597 80.9067 89.005C81.3559 88.8503 81.5947 88.3609 81.4403 87.9114Z" fill="#FFEAA2"/>
<path d="M83.6777 96.0876C83.5845 95.8167 83.2895 95.6726 83.0186 95.7658C82.7477 95.859 82.6036 96.154 82.6968 96.4249C82.7901 96.6958 83.0851 96.8399 83.3559 96.7467C83.6268 96.6534 83.771 96.3584 83.6777 96.0876Z" fill="#FFEAA2"/>
<path d="M95.0265 102.357C94.5986 101.934 93.9086 101.938 93.4854 102.366C93.0621 102.794 93.0659 103.484 93.4939 103.907C93.9218 104.33 94.6118 104.326 95.0351 103.898C95.4583 103.471 95.4545 102.781 95.0265 102.357Z" fill="#FFEAA2"/>
<path d="M95.9317 101.212C96.2658 100.874 96.2628 100.33 95.9249 99.9955C95.5869 99.6614 95.0422 99.6643 94.7081 100.002C94.374 100.34 94.377 100.885 94.7149 101.219C95.0528 101.553 95.5975 101.55 95.9317 101.212Z" fill="#FFEAA2"/>
<path d="M94.2077 98.1767C94.0039 97.9752 93.6756 97.977 93.4742 98.1808C93.2727 98.3843 93.2744 98.7129 93.4783 98.9143C93.6821 99.1158 94.0103 99.114 94.2118 98.9102C94.4133 98.7064 94.4115 98.3781 94.2077 98.1767Z" fill="#FFEAA2"/>
<path d="M85.6337 100.468C85.2496 100.244 84.7563 100.374 84.5325 100.758C84.3087 101.142 84.4384 101.636 84.8228 101.859C85.2069 102.083 85.7001 101.954 85.924 101.569C86.1478 101.185 86.0181 100.692 85.6337 100.468Z" fill="#FFEAA2"/>
<path d="M92.1005 99.2455C91.7973 99.0687 91.4078 99.1714 91.2311 99.4746C91.0543 99.7778 91.157 100.167 91.4602 100.344C91.7634 100.521 92.1528 100.418 92.3296 100.115C92.5064 99.8117 92.4037 99.4222 92.1005 99.2455Z" fill="#FFEAA2"/>
<path d="M89.3624 98.3896C89.5453 98.4961 89.78 98.4344 89.8865 98.2514C89.9929 98.0685 89.9312 97.8338 89.7482 97.7273C89.5653 97.6208 89.3306 97.6826 89.2241 97.8655C89.1174 98.0482 89.1794 98.2829 89.3624 98.3896Z" fill="#FFEAA2"/>
<path d="M44.8929 71.4114C48.3644 77.9008 53.6803 83.2167 60.1697 86.6881C61.2512 87.2667 62.5588 86.4831 62.5588 85.2567V73.4102C62.5588 70.9867 60.5941 69.022 58.1706 69.022H46.3241C45.0979 69.0223 44.3144 70.3299 44.8929 71.4114Z" fill="url(#paint41_linear)"/>
<path d="M28.8222 52.5575C21.5002 59.0431 100.873 148.655 108.195 142.169C109.458 141.051 108.141 137.46 105.063 132.318C103.944 130.45 103.123 128.54 102.69 126.719L102.644 126.524C101.703 122.565 98.6616 118.318 94.856 115.65L94.8531 115.648C91.6022 113.368 88.8684 109.908 87.5602 106.416L87.4357 106.084C85.9934 102.235 82.811 98.4596 79.1743 96.2837L78.8963 96.1175C75.556 94.1193 72.5769 90.7563 70.9963 87.1993L70.864 86.9013C69.1428 83.0281 65.7793 79.4137 62.1316 77.5172L61.7502 77.3187C58.4607 75.6084 55.3763 72.4849 53.5357 69.0002C51.3787 64.9158 47.5496 61.3872 43.7496 59.9814L43.494 59.8866C41.7387 59.2372 39.9422 58.1916 38.2231 56.8561C33.4899 53.1793 30.0846 51.4393 28.8222 52.5575Z" fill="url(#paint42_linear)"/>
<path d="M114.425 141.691L105.01 147.278C104.493 147.618 103.888 147.856 103.207 147.945C90.5564 149.594 74.3926 150.583 56.7773 150.583C37.2676 150.583 19.5361 149.369 6.39114 147.391C4.17231 147.056 2.59673 145.059 2.78879 142.824C3.82643 130.784 7.79673 92.8699 19.1661 53.7993C19.5147 52.6019 20.3038 51.721 21.2714 51.2157L29.2411 46.4863L114.425 141.691Z" fill="url(#paint43_linear)"/>
<path d="M114.425 141.691L105.01 147.278C104.493 147.618 103.888 147.856 103.207 147.945C90.5564 149.594 74.3926 150.583 56.7773 150.583C37.2676 150.583 19.5361 149.369 6.39114 147.391C4.17231 147.056 2.59673 145.059 2.78879 142.824C3.82643 130.784 8.67908 94.0463 20.0485 54.9757C20.397 53.7784 21.1861 52.8975 22.1538 52.3922L29.2411 46.4863L114.425 141.691Z" fill="url(#paint44_linear)"/>
<path d="M19.1652 53.7993C7.79456 92.8702 3.82662 130.785 2.78839 142.823C2.59574 145.058 4.17162 147.056 6.39015 147.39C19.5352 149.37 37.2666 150.583 56.7766 150.583C74.3916 150.583 90.5566 149.594 103.205 147.945C106.599 147.503 108.11 143.443 105.828 140.893L26.4196 52.1423C24.191 49.6514 20.099 50.5902 19.1652 53.7993Z" fill="url(#paint45_linear)"/>
<path d="M2.78839 142.823C2.59574 145.058 4.17162 147.056 6.39015 147.39C19.5352 149.37 37.2666 150.583 56.7766 150.583C74.3919 150.583 90.5566 149.594 103.205 147.945C106.599 147.503 108.11 143.443 105.828 140.893L84.9728 117.584L7.14456 117.73C5.50986 129.22 3.20309 138.014 2.78839 142.823Z" fill="url(#paint46_linear)"/>
<g opacity="0.6">
<g opacity="0.6">
<path opacity="0.6" d="M30.8915 71.0545C32.1498 71.0545 33.1698 70.0345 33.1698 68.7763C33.1698 67.5181 32.1498 66.498 30.8915 66.498C29.6333 66.498 28.6133 67.5181 28.6133 68.7763C28.6133 70.0345 29.6333 71.0545 30.8915 71.0545Z" fill="url(#paint47_linear)"/>
<path opacity="0.6" d="M23.9816 72.7772C24.9749 72.7772 25.7802 71.972 25.7802 70.9787C25.7802 69.9854 24.9749 69.1802 23.9816 69.1802C22.9883 69.1802 22.1831 69.9854 22.1831 70.9787C22.1831 71.972 22.9883 72.7772 23.9816 72.7772Z" fill="url(#paint48_linear)"/>
<path opacity="0.6" d="M29.3712 77.9522C29.97 77.9522 30.4553 77.4668 30.4553 76.8681C30.4553 76.2693 29.97 75.7839 29.3712 75.7839C28.7725 75.7839 28.2871 76.2693 28.2871 76.8681C28.2871 77.4668 28.7725 77.9522 29.3712 77.9522Z" fill="url(#paint49_linear)"/>
</g>
<g opacity="0.6">
<path opacity="0.6" d="M15.516 134.666C16.7743 134.666 17.7943 133.646 17.7943 132.388C17.7943 131.129 16.7743 130.109 15.516 130.109C14.2578 130.109 13.2378 131.129 13.2378 132.388C13.2378 133.646 14.2578 134.666 15.516 134.666Z" fill="url(#paint50_linear)"/>
<path opacity="0.6" d="M15.926 141.427C16.9193 141.427 17.7245 140.622 17.7245 139.628C17.7245 138.635 16.9193 137.83 15.926 137.83C14.9327 137.83 14.1274 138.635 14.1274 139.628C14.1274 140.622 14.9327 141.427 15.926 141.427Z" fill="url(#paint51_linear)"/>
<path opacity="0.6" d="M22.9733 136.961C23.572 136.961 24.0574 136.476 24.0574 135.877C24.0574 135.278 23.572 134.793 22.9733 134.793C22.3745 134.793 21.8892 135.278 21.8892 135.877C21.8892 136.476 22.3745 136.961 22.9733 136.961Z" fill="url(#paint52_linear)"/>
</g>
<g opacity="0.6">
<path opacity="0.6" d="M39.5314 79.0257C40.461 79.0257 41.2146 78.272 41.2146 77.3424C41.2146 76.4128 40.461 75.6592 39.5314 75.6592C38.6018 75.6592 37.8481 76.4128 37.8481 77.3424C37.8481 78.272 38.6018 79.0257 39.5314 79.0257Z" fill="url(#paint53_linear)"/>
<path opacity="0.6" d="M34.9143 75.951C35.6482 75.951 36.2431 75.3561 36.2431 74.6222C36.2431 73.8883 35.6482 73.2933 34.9143 73.2933C34.1804 73.2933 33.5854 73.8883 33.5854 74.6222C33.5854 75.3561 34.1804 75.951 34.9143 75.951Z" fill="url(#paint54_linear)"/>
<path opacity="0.6" d="M34.3261 81.293C34.7686 81.293 35.1273 80.9343 35.1273 80.4919C35.1273 80.0494 34.7686 79.6907 34.3261 79.6907C33.8836 79.6907 33.5249 80.0494 33.5249 80.4919C33.5249 80.9343 33.8836 81.293 34.3261 81.293Z" fill="url(#paint55_linear)"/>
</g>
<g opacity="0.6">
<path opacity="0.6" d="M78.1569 138.807C79.0865 138.807 79.8401 138.053 79.8401 137.124C79.8401 136.194 79.0865 135.44 78.1569 135.44C77.2272 135.44 76.4736 136.194 76.4736 137.124C76.4736 138.053 77.2272 138.807 78.1569 138.807Z" fill="url(#paint56_linear)"/>
<path opacity="0.6" d="M73.5398 135.732C74.2737 135.732 74.8686 135.137 74.8686 134.403C74.8686 133.67 74.2737 133.075 73.5398 133.075C72.8059 133.075 72.2109 133.67 72.2109 134.403C72.2109 135.137 72.8059 135.732 73.5398 135.732Z" fill="url(#paint57_linear)"/>
<path opacity="0.6" d="M72.9516 141.074C73.3941 141.074 73.7528 140.715 73.7528 140.273C73.7528 139.83 73.3941 139.472 72.9516 139.472C72.5091 139.472 72.1504 139.83 72.1504 140.273C72.1504 140.715 72.5091 141.074 72.9516 141.074Z" fill="url(#paint58_linear)"/>
</g>
</g>
</g>
<defs>
<linearGradient id="paint0_linear" x1="107.677" y1="31.3117" x2="86.3266" y2="71.3093" gradientUnits="userSpaceOnUse">
<stop stop-color="#FFD945"/>
<stop offset="0.3043" stop-color="#FFCD3E"/>
<stop offset="0.8558" stop-color="#FFAD2B"/>
<stop offset="1" stop-color="#FFA325"/>
</linearGradient>
<linearGradient id="paint1_linear" x1="139.913" y1="94.3136" x2="127.481" y2="91.2057" gradientUnits="userSpaceOnUse">
<stop stop-color="#F82814" stop-opacity="0"/>
<stop offset="0.2454" stop-color="#F12817" stop-opacity="0.245"/>
<stop offset="0.6052" stop-color="#DD2820" stop-opacity="0.605"/>
<stop offset="1" stop-color="#C0272D"/>
</linearGradient>
<linearGradient id="paint2_linear" x1="106.247" y1="42.2781" x2="99.8228" y2="48.7019" gradientUnits="userSpaceOnUse">
<stop stop-color="#BADA00"/>
<stop offset="0.2269" stop-color="#B0CE00"/>
<stop offset="0.6378" stop-color="#95AE00"/>
<stop offset="1" stop-color="#798C00"/>
</linearGradient>
<linearGradient id="paint3_linear" x1="111.708" y1="66.7855" x2="87.0247" y2="64.6234" gradientUnits="userSpaceOnUse">
<stop stop-color="#798C00" stop-opacity="0"/>
<stop offset="0.6542" stop-color="#556100" stop-opacity="0.654"/>
<stop offset="1" stop-color="#464F00"/>
</linearGradient>
<linearGradient id="paint4_linear" x1="67.8996" y1="14.6763" x2="64.2964" y2="30.351" gradientUnits="userSpaceOnUse">
<stop stop-color="#FF6359"/>
<stop offset="0.2243" stop-color="#FE5B50"/>
<stop offset="0.5952" stop-color="#FC4637"/>
<stop offset="1" stop-color="#F82814"/>
</linearGradient>
<linearGradient id="paint5_linear" x1="109.765" y1="59.0808" x2="106.162" y2="74.7558" gradientUnits="userSpaceOnUse">
<stop stop-color="#FF6359"/>
<stop offset="0.2243" stop-color="#FE5B50"/>
<stop offset="0.5952" stop-color="#FC4637"/>
<stop offset="1" stop-color="#F82814"/>
</linearGradient>
<linearGradient id="paint6_linear" x1="124.451" y1="66.4708" x2="118.801" y2="82.9589" gradientUnits="userSpaceOnUse">
<stop stop-color="#FFDECF"/>
<stop offset="0.3791" stop-color="#FDC4B0"/>
<stop offset="0.7655" stop-color="#FBAE97"/>
<stop offset="1" stop-color="#FAA68E"/>
</linearGradient>
<linearGradient id="paint7_linear" x1="116.925" y1="88.8092" x2="121.625" y2="75.0941" gradientUnits="userSpaceOnUse">
<stop stop-color="#FFDECF"/>
<stop offset="0.3791" stop-color="#FDC4B0"/>
<stop offset="0.7655" stop-color="#FBAE97"/>
<stop offset="1" stop-color="#FAA68E"/>
</linearGradient>
<linearGradient id="paint8_linear" x1="88.173" y1="24.8442" x2="82.5235" y2="41.3321" gradientUnits="userSpaceOnUse">
<stop stop-color="#FFDECF"/>
<stop offset="0.3791" stop-color="#FDC4B0"/>
<stop offset="0.7655" stop-color="#FBAE97"/>
<stop offset="1" stop-color="#FAA68E"/>
</linearGradient>
<linearGradient id="paint9_linear" x1="80.6472" y1="47.1827" x2="85.3468" y2="33.4675" gradientUnits="userSpaceOnUse">
<stop stop-color="#FFDECF"/>
<stop offset="0.3791" stop-color="#FDC4B0"/>
<stop offset="0.7655" stop-color="#FBAE97"/>
<stop offset="1" stop-color="#FAA68E"/>
</linearGradient>
<linearGradient id="paint10_linear" x1="99.7764" y1="47.342" x2="86.7989" y2="59.1814" gradientUnits="userSpaceOnUse">
<stop stop-color="#A57C52"/>
<stop offset="0.1339" stop-color="#A26C4A"/>
<stop offset="0.5155" stop-color="#994336"/>
<stop offset="0.8174" stop-color="#942A2A"/>
<stop offset="1" stop-color="#922125"/>
</linearGradient>
<linearGradient id="paint11_linear" x1="75.8476" y1="31.1785" x2="75.8476" y2="48.6679" gradientUnits="userSpaceOnUse">
<stop stop-color="#FFD945"/>
<stop offset="0.3043" stop-color="#FFCD3E"/>
<stop offset="0.8558" stop-color="#FFAD2B"/>
<stop offset="1" stop-color="#FFA325"/>
</linearGradient>
<linearGradient id="paint12_linear" x1="97.7879" y1="52.1341" x2="92.9794" y2="56.4861" gradientUnits="userSpaceOnUse">
<stop stop-color="#BADA00"/>
<stop offset="0.2269" stop-color="#B0CE00"/>
<stop offset="0.6378" stop-color="#95AE00"/>
<stop offset="1" stop-color="#798C00"/>
</linearGradient>
<linearGradient id="paint13_linear" x1="99.2167" y1="40.46" x2="80.3031" y2="75.8926" gradientUnits="userSpaceOnUse">
<stop stop-color="#FFD945"/>
<stop offset="0.3043" stop-color="#FFCD3E"/>
<stop offset="0.8558" stop-color="#FFAD2B"/>
<stop offset="1" stop-color="#FFA325"/>
</linearGradient>
<linearGradient id="paint14_linear" x1="91.4331" y1="56.2467" x2="81.4293" y2="66.2506" gradientUnits="userSpaceOnUse">
<stop stop-color="#F82814" stop-opacity="0"/>
<stop offset="0.2918" stop-color="#EC2819" stop-opacity="0.292"/>
<stop offset="0.8165" stop-color="#CD2727" stop-opacity="0.817"/>
<stop offset="1" stop-color="#C0272D"/>
</linearGradient>
<linearGradient id="paint15_linear" x1="43.8183" y1="38.2827" x2="88.6804" y2="125.305" gradientUnits="userSpaceOnUse">
<stop stop-color="#FAA68E"/>
<stop offset="0.2061" stop-color="#FBA682"/>
<stop offset="0.5808" stop-color="#FDA861"/>
<stop offset="1" stop-color="#FFA936"/>
</linearGradient>
<linearGradient id="paint16_linear" x1="77.0633" y1="98.6711" x2="77.0633" y2="125.718" gradientUnits="userSpaceOnUse">
<stop stop-color="#F82814" stop-opacity="0"/>
<stop offset="0.2454" stop-color="#F12817" stop-opacity="0.245"/>
<stop offset="0.6052" stop-color="#DD2820" stop-opacity="0.605"/>
<stop offset="1" stop-color="#C0272D"/>
</linearGradient>
<linearGradient id="paint17_linear" x1="53.1933" y1="33.1158" x2="53.9456" y2="22.3625" gradientUnits="userSpaceOnUse">
<stop stop-color="#F82814" stop-opacity="0"/>
<stop offset="0.2454" stop-color="#F12817" stop-opacity="0.245"/>
<stop offset="0.6052" stop-color="#DD2820" stop-opacity="0.605"/>
<stop offset="1" stop-color="#C0272D"/>
</linearGradient>
<linearGradient id="paint18_linear" x1="46.3362" y1="34.5889" x2="46.9302" y2="26.0997" gradientUnits="userSpaceOnUse">
<stop stop-color="#F82814" stop-opacity="0"/>
<stop offset="0.2454" stop-color="#F12817" stop-opacity="0.245"/>
<stop offset="0.6052" stop-color="#DD2820" stop-opacity="0.605"/>
<stop offset="1" stop-color="#C0272D"/>
</linearGradient>
<linearGradient id="paint19_linear" x1="51.7997" y1="39.3926" x2="52.1576" y2="34.2747" gradientUnits="userSpaceOnUse">
<stop stop-color="#F82814" stop-opacity="0"/>
<stop offset="0.2454" stop-color="#F12817" stop-opacity="0.245"/>
<stop offset="0.6052" stop-color="#DD2820" stop-opacity="0.605"/>
<stop offset="1" stop-color="#C0272D"/>
</linearGradient>
<linearGradient id="paint20_linear" x1="41.697" y1="94.4911" x2="31.4655" y2="91.0891" gradientUnits="userSpaceOnUse">
<stop stop-color="#F82814" stop-opacity="0"/>
<stop offset="0.2454" stop-color="#F12817" stop-opacity="0.245"/>
<stop offset="0.6052" stop-color="#DD2820" stop-opacity="0.605"/>
<stop offset="1" stop-color="#C0272D"/>
</linearGradient>
<linearGradient id="paint21_linear" x1="41.4193" y1="101.501" x2="33.342" y2="98.8152" gradientUnits="userSpaceOnUse">
<stop stop-color="#F82814" stop-opacity="0"/>
<stop offset="0.2454" stop-color="#F12817" stop-opacity="0.245"/>
<stop offset="0.6052" stop-color="#DD2820" stop-opacity="0.605"/>
<stop offset="1" stop-color="#C0272D"/>
</linearGradient>
<linearGradient id="paint22_linear" x1="47.4319" y1="97.4023" x2="42.5623" y2="95.7828" gradientUnits="userSpaceOnUse">
<stop stop-color="#F82814" stop-opacity="0"/>
<stop offset="0.2454" stop-color="#F12817" stop-opacity="0.245"/>
<stop offset="0.6052" stop-color="#DD2820" stop-opacity="0.605"/>
<stop offset="1" stop-color="#C0272D"/>
</linearGradient>
<linearGradient id="paint23_linear" x1="60.189" y1="39.8637" x2="66.4814" y2="34.981" gradientUnits="userSpaceOnUse">
<stop stop-color="#F82814" stop-opacity="0"/>
<stop offset="0.2454" stop-color="#F12817" stop-opacity="0.245"/>
<stop offset="0.6052" stop-color="#DD2820" stop-opacity="0.605"/>
<stop offset="1" stop-color="#C0272D"/>
</linearGradient>
<linearGradient id="paint24_linear" x1="56.0002" y1="36.8132" x2="60.9678" y2="32.9586" gradientUnits="userSpaceOnUse">
<stop stop-color="#F82814" stop-opacity="0"/>
<stop offset="0.2454" stop-color="#F12817" stop-opacity="0.245"/>
<stop offset="0.6052" stop-color="#DD2820" stop-opacity="0.605"/>
<stop offset="1" stop-color="#C0272D"/>
</linearGradient>
<linearGradient id="paint25_linear" x1="56.0456" y1="42.188" x2="59.0405" y2="39.8641" gradientUnits="userSpaceOnUse">
<stop stop-color="#F82814" stop-opacity="0"/>
<stop offset="0.2454" stop-color="#F12817" stop-opacity="0.245"/>
<stop offset="0.6052" stop-color="#DD2820" stop-opacity="0.605"/>
<stop offset="1" stop-color="#C0272D"/>
</linearGradient>
<linearGradient id="paint26_linear" x1="98.7904" y1="99.6275" x2="105.083" y2="94.7448" gradientUnits="userSpaceOnUse">
<stop stop-color="#F82814" stop-opacity="0"/>
<stop offset="0.2454" stop-color="#F12817" stop-opacity="0.245"/>
<stop offset="0.6052" stop-color="#DD2820" stop-opacity="0.605"/>
<stop offset="1" stop-color="#C0272D"/>
</linearGradient>
<linearGradient id="paint27_linear" x1="94.6013" y1="96.5768" x2="99.5689" y2="92.7222" gradientUnits="userSpaceOnUse">
<stop stop-color="#F82814" stop-opacity="0"/>
<stop offset="0.2454" stop-color="#F12817" stop-opacity="0.245"/>
<stop offset="0.6052" stop-color="#DD2820" stop-opacity="0.605"/>
<stop offset="1" stop-color="#C0272D"/>
</linearGradient>
<linearGradient id="paint28_linear" x1="94.647" y1="101.952" x2="97.6419" y2="99.6278" gradientUnits="userSpaceOnUse">
<stop stop-color="#F82814" stop-opacity="0"/>
<stop offset="0.2454" stop-color="#F12817" stop-opacity="0.245"/>
<stop offset="0.6052" stop-color="#DD2820" stop-opacity="0.605"/>
<stop offset="1" stop-color="#C0272D"/>
</linearGradient>
<linearGradient id="paint29_linear" x1="83.6766" y1="62.2912" x2="66.3801" y2="82.8306" gradientUnits="userSpaceOnUse">
<stop stop-color="#FFD945"/>
<stop offset="0.3043" stop-color="#FFCD3E"/>
<stop offset="0.8558" stop-color="#FFAD2B"/>
<stop offset="1" stop-color="#FFA325"/>
</linearGradient>
<linearGradient id="paint30_linear" x1="85.1377" y1="69.9808" x2="63.7877" y2="109.978" gradientUnits="userSpaceOnUse">
<stop stop-color="#FFD945"/>
<stop offset="0.3043" stop-color="#FFCD3E"/>
<stop offset="0.8558" stop-color="#FFAD2B"/>
<stop offset="1" stop-color="#FFA325"/>
</linearGradient>
<linearGradient id="paint31_linear" x1="117.693" y1="133.153" x2="105.262" y2="130.045" gradientUnits="userSpaceOnUse">
<stop stop-color="#F82814" stop-opacity="0"/>
<stop offset="0.2454" stop-color="#F12817" stop-opacity="0.245"/>
<stop offset="0.6052" stop-color="#DD2820" stop-opacity="0.605"/>
<stop offset="1" stop-color="#C0272D"/>
</linearGradient>
<linearGradient id="paint32_linear" x1="84.0267" y1="81.1175" x2="77.6028" y2="87.5413" gradientUnits="userSpaceOnUse">
<stop stop-color="#BADA00"/>
<stop offset="0.2269" stop-color="#B0CE00"/>
<stop offset="0.6378" stop-color="#95AE00"/>
<stop offset="1" stop-color="#798C00"/>
</linearGradient>
<linearGradient id="paint33_linear" x1="89.4884" y1="105.625" x2="64.8052" y2="103.463" gradientUnits="userSpaceOnUse">
<stop stop-color="#798C00" stop-opacity="0"/>
<stop offset="0.6542" stop-color="#556100" stop-opacity="0.654"/>
<stop offset="1" stop-color="#464F00"/>
</linearGradient>
<linearGradient id="paint34_linear" x1="45.6802" y1="53.5157" x2="42.0766" y2="69.1904" gradientUnits="userSpaceOnUse">
<stop stop-color="#FF6359"/>
<stop offset="0.2243" stop-color="#FE5B50"/>
<stop offset="0.5952" stop-color="#FC4637"/>
<stop offset="1" stop-color="#F82814"/>
</linearGradient>
<linearGradient id="paint35_linear" x1="87.5459" y1="97.9202" x2="83.9424" y2="113.595" gradientUnits="userSpaceOnUse">
<stop stop-color="#FF6359"/>
<stop offset="0.2243" stop-color="#FE5B50"/>
<stop offset="0.5952" stop-color="#FC4637"/>
<stop offset="1" stop-color="#F82814"/>
</linearGradient>
<linearGradient id="paint36_linear" x1="102.234" y1="105.304" x2="96.5844" y2="121.792" gradientUnits="userSpaceOnUse">
<stop stop-color="#FFDECF"/>
<stop offset="0.3791" stop-color="#FDC4B0"/>
<stop offset="0.7655" stop-color="#FBAE97"/>
<stop offset="1" stop-color="#FAA68E"/>
</linearGradient>
<linearGradient id="paint37_linear" x1="94.7084" y1="127.643" x2="99.4079" y2="113.928" gradientUnits="userSpaceOnUse">
<stop stop-color="#FFDECF"/>
<stop offset="0.3791" stop-color="#FDC4B0"/>
<stop offset="0.7655" stop-color="#FBAE97"/>
<stop offset="1" stop-color="#FAA68E"/>
</linearGradient>
<linearGradient id="paint38_linear" x1="65.9569" y1="63.6776" x2="60.3071" y2="80.1657" gradientUnits="userSpaceOnUse">
<stop stop-color="#FFDECF"/>
<stop offset="0.3791" stop-color="#FDC4B0"/>
<stop offset="0.7655" stop-color="#FBAE97"/>
<stop offset="1" stop-color="#FAA68E"/>
</linearGradient>
<linearGradient id="paint39_linear" x1="58.4312" y1="86.016" x2="63.1309" y2="72.3009" gradientUnits="userSpaceOnUse">
<stop stop-color="#FFDECF"/>
<stop offset="0.3791" stop-color="#FDC4B0"/>
<stop offset="0.7655" stop-color="#FBAE97"/>
<stop offset="1" stop-color="#FAA68E"/>
</linearGradient>
<linearGradient id="paint40_linear" x1="77.5763" y1="86.2059" x2="64.5985" y2="98.0453" gradientUnits="userSpaceOnUse">
<stop stop-color="#A57C52"/>
<stop offset="0.1339" stop-color="#A26C4A"/>
<stop offset="0.5155" stop-color="#994336"/>
<stop offset="0.8174" stop-color="#942A2A"/>
<stop offset="1" stop-color="#922125"/>
</linearGradient>
<linearGradient id="paint41_linear" x1="53.6291" y1="70.0179" x2="53.6291" y2="87.5073" gradientUnits="userSpaceOnUse">
<stop stop-color="#FFD945"/>
<stop offset="0.3043" stop-color="#FFCD3E"/>
<stop offset="0.8558" stop-color="#FFAD2B"/>
<stop offset="1" stop-color="#FFA325"/>
</linearGradient>
<linearGradient id="paint42_linear" x1="75.5684" y1="90.9734" x2="70.7602" y2="95.3255" gradientUnits="userSpaceOnUse">
<stop stop-color="#BADA00"/>
<stop offset="0.2269" stop-color="#B0CE00"/>
<stop offset="0.6378" stop-color="#95AE00"/>
<stop offset="1" stop-color="#798C00"/>
</linearGradient>
<linearGradient id="paint43_linear" x1="76.6791" y1="79.129" x2="57.7656" y2="114.562" gradientUnits="userSpaceOnUse">
<stop stop-color="#FFD945"/>
<stop offset="0.3043" stop-color="#FFCD3E"/>
<stop offset="0.8558" stop-color="#FFAD2B"/>
<stop offset="1" stop-color="#FFA325"/>
</linearGradient>
<linearGradient id="paint44_linear" x1="69.6606" y1="95.5322" x2="59.6567" y2="105.536" gradientUnits="userSpaceOnUse">
<stop stop-color="#F82814" stop-opacity="0"/>
<stop offset="0.2918" stop-color="#EC2819" stop-opacity="0.292"/>
<stop offset="0.8165" stop-color="#CD2727" stop-opacity="0.817"/>
<stop offset="1" stop-color="#C0272D"/>
</linearGradient>
<linearGradient id="paint45_linear" x1="20.8469" y1="77.5102" x2="65.709" y2="164.532" gradientUnits="userSpaceOnUse">
<stop stop-color="#FFD945"/>
<stop offset="0.3043" stop-color="#FFCD3E"/>
<stop offset="0.8558" stop-color="#FFAD2B"/>
<stop offset="1" stop-color="#FFA325"/>
</linearGradient>
<linearGradient id="paint46_linear" x1="54.8446" y1="137.511" x2="54.8446" y2="164.558" gradientUnits="userSpaceOnUse">
<stop stop-color="#F82814" stop-opacity="0"/>
<stop offset="0.2454" stop-color="#F12817" stop-opacity="0.245"/>
<stop offset="0.6052" stop-color="#DD2820" stop-opacity="0.605"/>
<stop offset="1" stop-color="#C0272D"/>
</linearGradient>
<linearGradient id="paint47_linear" x1="30.9767" y1="71.942" x2="31.7292" y2="61.1885" gradientUnits="userSpaceOnUse">
<stop stop-color="#F82814" stop-opacity="0"/>
<stop offset="0.2454" stop-color="#F12817" stop-opacity="0.245"/>
<stop offset="0.6052" stop-color="#DD2820" stop-opacity="0.605"/>
<stop offset="1" stop-color="#C0272D"/>
</linearGradient>
<linearGradient id="paint48_linear" x1="24.1195" y1="73.4147" x2="24.7136" y2="64.9256" gradientUnits="userSpaceOnUse">
<stop stop-color="#F82814" stop-opacity="0"/>
<stop offset="0.2454" stop-color="#F12817" stop-opacity="0.245"/>
<stop offset="0.6052" stop-color="#DD2820" stop-opacity="0.605"/>
<stop offset="1" stop-color="#C0272D"/>
</linearGradient>
<linearGradient id="paint49_linear" x1="29.5831" y1="78.2187" x2="29.941" y2="73.1007" gradientUnits="userSpaceOnUse">
<stop stop-color="#F82814" stop-opacity="0"/>
<stop offset="0.2454" stop-color="#F12817" stop-opacity="0.245"/>
<stop offset="0.6052" stop-color="#DD2820" stop-opacity="0.605"/>
<stop offset="1" stop-color="#C0272D"/>
</linearGradient>
<linearGradient id="paint50_linear" x1="19.5045" y1="133.345" x2="9.27292" y2="129.942" gradientUnits="userSpaceOnUse">
<stop stop-color="#F82814" stop-opacity="0"/>
<stop offset="0.2454" stop-color="#F12817" stop-opacity="0.245"/>
<stop offset="0.6052" stop-color="#DD2820" stop-opacity="0.605"/>
<stop offset="1" stop-color="#C0272D"/>
</linearGradient>
<linearGradient id="paint51_linear" x1="19.2268" y1="140.354" x2="11.1492" y2="137.669" gradientUnits="userSpaceOnUse">
<stop stop-color="#F82814" stop-opacity="0"/>
<stop offset="0.2454" stop-color="#F12817" stop-opacity="0.245"/>
<stop offset="0.6052" stop-color="#DD2820" stop-opacity="0.605"/>
<stop offset="1" stop-color="#C0272D"/>
</linearGradient>
<linearGradient id="paint52_linear" x1="25.2392" y1="136.255" x2="20.3697" y2="134.636" gradientUnits="userSpaceOnUse">
<stop stop-color="#F82814" stop-opacity="0"/>
<stop offset="0.2454" stop-color="#F12817" stop-opacity="0.245"/>
<stop offset="0.6052" stop-color="#DD2820" stop-opacity="0.605"/>
<stop offset="1" stop-color="#C0272D"/>
</linearGradient>
<linearGradient id="paint53_linear" x1="37.9717" y1="78.6846" x2="44.2641" y2="73.8019" gradientUnits="userSpaceOnUse">
<stop stop-color="#F82814" stop-opacity="0"/>
<stop offset="0.2454" stop-color="#F12817" stop-opacity="0.245"/>
<stop offset="0.6052" stop-color="#DD2820" stop-opacity="0.605"/>
<stop offset="1" stop-color="#C0272D"/>
</linearGradient>
<linearGradient id="paint54_linear" x1="33.7832" y1="75.6339" x2="38.7508" y2="71.7793" gradientUnits="userSpaceOnUse">
<stop stop-color="#F82814" stop-opacity="0"/>
<stop offset="0.2454" stop-color="#F12817" stop-opacity="0.245"/>
<stop offset="0.6052" stop-color="#DD2820" stop-opacity="0.605"/>
<stop offset="1" stop-color="#C0272D"/>
</linearGradient>
<linearGradient id="paint55_linear" x1="33.8286" y1="81.0088" x2="36.8235" y2="78.6848" gradientUnits="userSpaceOnUse">
<stop stop-color="#F82814" stop-opacity="0"/>
<stop offset="0.2454" stop-color="#F12817" stop-opacity="0.245"/>
<stop offset="0.6052" stop-color="#DD2820" stop-opacity="0.605"/>
<stop offset="1" stop-color="#C0272D"/>
</linearGradient>
<linearGradient id="paint56_linear" x1="76.5731" y1="138.448" x2="82.8655" y2="133.566" gradientUnits="userSpaceOnUse">
<stop stop-color="#F82814" stop-opacity="0"/>
<stop offset="0.2454" stop-color="#F12817" stop-opacity="0.245"/>
<stop offset="0.6052" stop-color="#DD2820" stop-opacity="0.605"/>
<stop offset="1" stop-color="#C0272D"/>
</linearGradient>
<linearGradient id="paint57_linear" x1="72.3843" y1="135.398" x2="77.3516" y2="131.543" gradientUnits="userSpaceOnUse">
<stop stop-color="#F82814" stop-opacity="0"/>
<stop offset="0.2454" stop-color="#F12817" stop-opacity="0.245"/>
<stop offset="0.6052" stop-color="#DD2820" stop-opacity="0.605"/>
<stop offset="1" stop-color="#C0272D"/>
</linearGradient>
<linearGradient id="paint58_linear" x1="72.43" y1="140.773" x2="75.4249" y2="138.449" gradientUnits="userSpaceOnUse">
<stop stop-color="#F82814" stop-opacity="0"/>
<stop offset="0.2454" stop-color="#F12817" stop-opacity="0.245"/>
<stop offset="0.6052" stop-color="#DD2820" stop-opacity="0.605"/>
<stop offset="1" stop-color="#C0272D"/>
</linearGradient>
<clipPath id="clip0">
<rect width="150" height="150" fill="white" transform="translate(0.476074 0.583496)"/>
</clipPath>
</defs>
</svg>
