<svg width="151" height="151" viewBox="0 0 151 151" fill="none" xmlns="http://www.w3.org/2000/svg">
<g clip-path="url(#clip0)">
<path d="M126.638 62.5281C125.368 62.5281 124.338 61.4987 124.338 60.2284C124.338 58.9581 125.368 57.9287 126.638 57.9287C133.576 57.9287 139.22 52.2846 139.22 45.3469C139.22 38.4093 133.576 32.7651 126.638 32.7651H121.528C114.59 32.7651 108.946 38.4093 108.946 45.3469C108.946 46.6172 107.916 47.6466 106.646 47.6466C105.376 47.6466 104.347 46.6172 104.347 45.3469C104.347 35.8734 112.054 28.166 121.528 28.166H126.638C136.111 28.166 143.819 35.8734 143.819 45.3469C143.819 54.8204 136.111 62.5281 126.638 62.5281Z" fill="url(#paint0_linear)"/>
<path d="M114.437 62.5281C113.167 62.5281 112.138 61.4987 112.138 60.2284C112.138 58.9581 113.167 57.9287 114.437 57.9287C123.238 57.9287 130.398 50.7687 130.398 41.9678C130.398 33.167 123.238 26.007 114.437 26.007H108.167C99.3659 26.007 92.2059 33.167 92.2059 41.9678C92.2059 43.2381 91.1762 44.2675 89.9062 44.2675C88.6362 44.2675 87.6064 43.2381 87.6064 41.9678C87.6064 30.6311 96.8297 21.4078 108.166 21.4078H114.437C125.774 21.4078 134.997 30.6311 134.997 41.9678C134.997 53.3046 125.774 62.5281 114.437 62.5281Z" fill="url(#paint1_linear)"/>
<path d="M65.9021 122.615C70.3504 122.615 73.9565 119.009 73.9565 114.56C73.9565 110.112 70.3504 106.506 65.9021 106.506C61.4537 106.506 57.8477 110.112 57.8477 114.56C57.8477 119.009 61.4537 122.615 65.9021 122.615Z" fill="url(#paint2_linear)"/>
<path d="M69.7633 121.628C69.2054 121.935 68.6256 122.168 68.0371 122.328L58.1362 112.427C58.6942 110.394 60.0433 108.582 62.0427 107.49C65.9459 105.359 70.8398 106.797 72.9706 110.701C75.1015 114.604 73.6665 119.498 69.7633 121.628Z" fill="url(#paint3_linear)"/>
<path d="M90.5493 125.166C93.7417 129.156 93.5137 134.644 90.0396 137.424C86.5658 140.203 81.1614 139.222 77.969 135.232C74.7767 131.242 75.0046 125.754 78.4787 122.974C81.9529 120.195 87.3567 121.176 90.5493 125.166Z" fill="url(#paint4_linear)"/>
<path d="M90.5491 125.166C83.9858 123.447 80.445 127.519 81.9491 135.056C83.7255 143.958 81.6141 148.026 79.3855 149.808C72.4726 155.339 59.1791 126.485 67.2502 120.027C75.3214 113.569 84.1423 117.159 90.5491 125.166Z" fill="url(#paint5_linear)"/>
<path d="M61.3235 76.9556C55.4003 85.0973 52.5853 95.4153 54.0553 105.913C54.0612 105.955 54.0679 106 54.0759 106.049C54.9147 111.186 59.7141 114.712 64.8812 114.08L67.6141 113.745C72.01 113.207 75.5473 109.784 76.0973 105.389C76.7253 100.371 78.6244 95.6303 81.5412 91.5982L61.3235 76.9556Z" fill="url(#paint6_linear)"/>
<path d="M75.7111 87.3757C72.8558 91.3749 70.994 96.0584 70.374 101.014C69.824 105.409 66.287 108.832 61.8908 109.37L59.1578 109.705C57.8275 109.868 56.5225 109.753 55.3022 109.408C57.2231 112.628 60.9443 114.562 64.8814 114.08L67.6143 113.745C72.0102 113.207 75.5475 109.784 76.0975 105.389C76.7255 100.371 78.6246 95.6304 81.5414 91.5984L75.7111 87.3757Z" fill="url(#paint7_linear)"/>
<path d="M61.3233 76.9556C58.9469 80.222 57.0722 83.8394 55.7725 87.6773C56.3516 89.0223 57.2007 90.2567 58.296 91.285L75.2633 108.252C75.6825 107.365 75.9701 106.403 76.0972 105.389C76.7251 100.371 78.6242 95.6303 81.541 91.5982L61.3233 76.9556Z" fill="url(#paint8_linear)"/>
<path d="M83.9834 57.9161C72.3257 60.9314 62.8375 68.0855 56.6828 77.3973C52.9143 83.0987 55.2834 90.8214 61.6078 93.4114L71.4793 97.4537C76.004 99.3067 81.2463 97.9273 84.1822 94.0179C88.326 88.5002 94.2998 84.2973 101.5 82.4349L94.7725 56.4264C91.2043 56.4999 87.5887 56.9835 83.9834 57.9161Z" fill="url(#paint9_linear)"/>
<path d="M94.7722 56.4264C93.0213 56.4626 91.2587 56.5987 89.4916 56.837L94.7419 77.1346C89.7358 78.4296 85.3222 80.8561 81.7046 84.0693C74.7605 90.2373 64.9255 91.8955 56.2563 88.6714C57.3993 90.7258 59.2213 92.4343 61.6078 93.4117L71.4793 97.4541C76.004 99.307 81.2463 97.9276 84.1822 94.0182C88.326 88.5005 94.2999 84.2976 101.5 82.4352L94.7722 56.4264Z" fill="url(#paint10_linear)"/>
<path d="M102.408 92.8932H94.0018C83.025 92.8932 74.1265 83.9946 74.1265 73.0179C74.1265 62.0411 83.025 53.1426 94.0018 53.1426H121.377C127.116 53.1426 131.768 57.7946 131.768 63.5335C131.768 79.7482 118.623 92.8932 102.408 92.8932Z" fill="url(#paint11_linear)"/>
<path d="M109.004 63.9569C111.478 63.9569 113.484 61.9509 113.484 59.4763C113.484 57.0018 111.478 54.9957 109.004 54.9957C106.529 54.9957 104.523 57.0018 104.523 59.4763C104.523 61.9509 106.529 63.9569 109.004 63.9569Z" fill="url(#paint12_radial)"/>
<path d="M88.2796 76.4011C89.321 76.4011 90.1652 75.5569 90.1652 74.5155C90.1652 73.4741 89.321 72.6299 88.2796 72.6299C87.2382 72.6299 86.394 73.4741 86.394 74.5155C86.394 75.5569 87.2382 76.4011 88.2796 76.4011Z" fill="url(#paint13_linear)"/>
<path d="M82.5603 77.8269C83.3824 77.8269 84.0488 77.1605 84.0488 76.3384C84.0488 75.5163 83.3824 74.8499 82.5603 74.8499C81.7382 74.8499 81.0718 75.5163 81.0718 76.3384C81.0718 77.1605 81.7382 77.8269 82.5603 77.8269Z" fill="url(#paint14_linear)"/>
<path d="M87.0214 82.1104C87.517 82.1104 87.9187 81.7086 87.9187 81.213C87.9187 80.7174 87.517 80.3157 87.0214 80.3157C86.5258 80.3157 86.124 80.7174 86.124 81.213C86.124 81.7086 86.5258 82.1104 87.0214 82.1104Z" fill="url(#paint15_linear)"/>
<path d="M72.7626 135.218C73.5948 135.218 74.2694 134.544 74.2694 133.711C74.2694 132.879 73.5948 132.205 72.7626 132.205C71.9305 132.205 71.2559 132.879 71.2559 133.711C71.2559 134.544 71.9305 135.218 72.7626 135.218Z" fill="url(#paint16_linear)"/>
<path d="M73.0341 139.69C73.691 139.69 74.2235 139.157 74.2235 138.5C74.2235 137.844 73.691 137.311 73.0341 137.311C72.3772 137.311 71.8447 137.844 71.8447 138.5C71.8447 139.157 72.3772 139.69 73.0341 139.69Z" fill="url(#paint17_linear)"/>
<path d="M77.6951 136.737C78.0911 136.737 78.4121 136.416 78.4121 136.02C78.4121 135.624 78.0911 135.302 77.6951 135.302C77.2991 135.302 76.978 135.624 76.978 136.02C76.978 136.416 77.2991 136.737 77.6951 136.737Z" fill="url(#paint18_linear)"/>
<path d="M95.4313 82.9992C96.2008 82.9992 96.8246 82.3755 96.8246 81.606C96.8246 80.8365 96.2008 80.2128 95.4313 80.2128C94.6619 80.2128 94.0381 80.8365 94.0381 81.606C94.0381 82.3755 94.6619 82.9992 95.4313 82.9992Z" fill="url(#paint19_linear)"/>
<path d="M91.6098 80.4543C92.2173 80.4543 92.7098 79.9618 92.7098 79.3543C92.7098 78.7468 92.2173 78.2543 91.6098 78.2543C91.0023 78.2543 90.5098 78.7468 90.5098 79.3543C90.5098 79.9618 91.0023 80.4543 91.6098 80.4543Z" fill="url(#paint20_linear)"/>
<path d="M91.1227 84.876C91.489 84.876 91.7859 84.5791 91.7859 84.2128C91.7859 83.8465 91.489 83.5496 91.1227 83.5496C90.7564 83.5496 90.4595 83.8465 90.4595 84.2128C90.4595 84.5791 90.7564 84.876 91.1227 84.876Z" fill="url(#paint21_linear)"/>
<path d="M65.6911 103.013C66.4605 103.013 67.0843 102.389 67.0843 101.619C67.0843 100.85 66.4605 100.226 65.6911 100.226C64.9216 100.226 64.2979 100.85 64.2979 101.619C64.2979 102.389 64.9216 103.013 65.6911 103.013Z" fill="url(#paint22_linear)"/>
<path d="M61.8695 100.468C62.477 100.468 62.9695 99.9753 62.9695 99.3678C62.9695 98.7603 62.477 98.2678 61.8695 98.2678C61.262 98.2678 60.7695 98.7603 60.7695 99.3678C60.7695 99.9753 61.262 100.468 61.8695 100.468Z" fill="url(#paint23_linear)"/>
<path d="M61.3825 104.89C61.7488 104.89 62.0457 104.593 62.0457 104.226C62.0457 103.86 61.7488 103.563 61.3825 103.563C61.0162 103.563 60.7192 103.86 60.7192 104.226C60.7192 104.593 61.0162 104.89 61.3825 104.89Z" fill="url(#paint24_linear)"/>
<path d="M79.7804 41.6288C78.5104 41.6288 77.4807 40.5994 77.4807 39.3291C77.4807 38.0588 78.5104 37.0294 79.7804 37.0294C86.7181 37.0294 92.3622 31.3853 92.3622 24.4476C92.3622 17.51 86.7181 11.8658 79.7804 11.8658H74.6701C67.7328 11.8658 62.0887 17.51 62.0887 24.4476C62.0887 25.7179 61.059 26.7473 59.789 26.7473C58.519 26.7473 57.4893 25.7179 57.4893 24.4476C57.4893 14.9741 65.1966 7.26672 74.6701 7.26672H79.7804C89.254 7.26672 96.9613 14.9741 96.9613 24.4476C96.9613 33.9211 89.254 41.6288 79.7804 41.6288Z" fill="url(#paint25_linear)"/>
<path d="M67.5799 41.6288C66.3099 41.6288 65.2802 40.5994 65.2802 39.3291C65.2802 38.0588 66.3099 37.0294 67.5799 37.0294C76.3808 37.0294 83.5408 29.8694 83.5408 21.0685C83.5408 12.2676 76.3808 5.10761 67.5799 5.10761H61.3093C52.5084 5.10761 45.3484 12.2676 45.3484 21.0685C45.3484 22.3388 44.3187 23.3682 43.0487 23.3682C41.7787 23.3682 40.749 22.3388 40.749 21.0685C40.7493 9.73203 49.9726 0.508789 61.3093 0.508789H67.5799C78.917 0.508789 88.1399 9.73203 88.1399 21.0688C88.1399 32.4056 78.917 41.6288 67.5799 41.6288Z" fill="url(#paint26_linear)"/>
<path d="M19.0446 101.715C23.493 101.715 27.0991 98.1091 27.0991 93.6607C27.0991 89.2124 23.493 85.6063 19.0446 85.6063C14.5963 85.6063 10.9902 89.2124 10.9902 93.6607C10.9902 98.1091 14.5963 101.715 19.0446 101.715Z" fill="url(#paint27_linear)"/>
<path d="M22.9059 100.729C22.3479 101.036 21.7682 101.269 21.1797 101.428L11.2788 91.5275C11.8367 89.4946 13.1859 87.6825 15.1853 86.5911C19.0885 84.4602 23.9823 85.8981 26.1132 89.8014C28.2441 93.7046 26.8091 98.5981 22.9059 100.729Z" fill="url(#paint28_linear)"/>
<path d="M43.6914 104.267C46.8838 108.257 46.6558 113.745 43.1817 116.525C39.7079 119.304 34.3035 118.323 31.1111 114.333C27.9188 110.343 28.1467 104.855 31.6208 102.075C35.0949 99.2956 40.4991 100.277 43.6914 104.267Z" fill="url(#paint29_linear)"/>
<path d="M43.6914 104.267C37.1281 102.548 33.5872 106.619 35.0914 114.156C36.8678 123.059 34.7564 127.126 32.5281 128.909C25.6152 134.44 12.3216 105.586 20.3928 99.1282C28.464 92.6702 37.2849 96.2599 43.6914 104.267Z" fill="url(#paint30_linear)"/>
<path d="M14.4661 56.0562C8.54286 64.1979 5.72786 74.5159 7.19786 85.0135C7.20374 85.0553 7.2105 85.1006 7.21844 85.1491C8.05727 90.2868 12.8567 93.8129 18.0237 93.1803L20.7567 92.8456C25.1526 92.3073 28.6899 88.8841 29.2399 84.4897C29.8679 79.4715 31.767 74.7309 34.6837 70.6988L14.4661 56.0562Z" fill="url(#paint31_linear)"/>
<path d="M28.8537 66.4763C25.9984 70.4754 24.1366 75.159 23.5166 80.1149C22.9666 84.5093 19.4295 87.9328 15.0334 88.4707L12.3004 88.8054C10.9701 88.9684 9.66512 88.8537 8.44482 88.5087C10.3657 91.7287 14.0869 93.6625 18.0239 93.1804L20.7569 92.8457C25.1528 92.3075 28.6901 88.8843 29.2401 84.4899C29.8681 79.4716 31.7672 74.731 34.6839 70.699L28.8537 66.4763Z" fill="url(#paint32_linear)"/>
<path d="M14.4659 56.0562C12.0895 59.3226 10.2147 62.94 8.91504 66.7779C9.49416 68.1229 10.3433 69.3573 11.4386 70.3856L28.4059 87.3529C28.825 86.4656 29.1127 85.5041 29.2397 84.4897C29.8677 79.4715 31.7668 74.7309 34.6836 70.6988L14.4659 56.0562Z" fill="url(#paint33_linear)"/>
<path d="M37.126 37.0167C25.4683 40.032 15.9801 47.1861 9.82537 56.4979C6.05684 62.1993 8.42596 69.922 14.7504 72.512L24.6218 76.5543C29.1466 78.4073 34.3889 77.0279 37.3248 73.1185C41.4686 67.6008 47.4424 63.3979 54.6424 61.5355L47.9151 35.527C44.3471 35.6008 40.7316 36.0843 37.126 37.0167Z" fill="url(#paint34_linear)"/>
<path d="M47.9148 35.5272C46.1639 35.5634 44.4013 35.6996 42.6342 35.9378L47.8845 56.2355C42.8783 57.5305 38.4648 59.9569 34.8472 63.1702C27.903 69.3381 18.068 70.9963 9.39893 67.7722C10.5419 69.8266 12.3639 71.5352 14.7504 72.5125L24.6219 76.5549C29.1466 78.4078 34.3889 77.0284 37.3248 73.119C41.4686 67.6013 47.4425 63.3984 54.6425 61.536L47.9148 35.5272Z" fill="url(#paint35_linear)"/>
<path d="M55.5503 71.9938H47.1438C36.1671 71.9938 27.2686 63.0952 27.2686 52.1185C27.2686 41.1417 36.1671 32.2432 47.1438 32.2432H74.5191C80.258 32.2432 84.91 36.8955 84.91 42.634C84.9103 58.849 71.7656 71.9938 55.5503 71.9938Z" fill="url(#paint36_linear)"/>
<path d="M62.1461 43.0576C64.6207 43.0576 66.6267 41.0516 66.6267 38.577C66.6267 36.1025 64.6207 34.0964 62.1461 34.0964C59.6716 34.0964 57.6655 36.1025 57.6655 38.577C57.6655 41.0516 59.6716 43.0576 62.1461 43.0576Z" fill="url(#paint37_radial)"/>
<path d="M41.4217 55.5018C42.4631 55.5018 43.3073 54.6576 43.3073 53.6162C43.3073 52.5748 42.4631 51.7306 41.4217 51.7306C40.3803 51.7306 39.5361 52.5748 39.5361 53.6162C39.5361 54.6576 40.3803 55.5018 41.4217 55.5018Z" fill="url(#paint38_linear)"/>
<path d="M35.7024 56.9276C36.5245 56.9276 37.1909 56.2612 37.1909 55.4391C37.1909 54.617 36.5245 53.9506 35.7024 53.9506C34.8803 53.9506 34.2139 54.617 34.2139 55.4391C34.2139 56.2612 34.8803 56.9276 35.7024 56.9276Z" fill="url(#paint39_linear)"/>
<path d="M40.164 61.2115C40.6595 61.2115 41.0613 60.8097 41.0613 60.3141C41.0613 59.8185 40.6595 59.4167 40.164 59.4167C39.6684 59.4167 39.2666 59.8185 39.2666 60.3141C39.2666 60.8097 39.6684 61.2115 40.164 61.2115Z" fill="url(#paint40_linear)"/>
<path d="M25.9052 114.319C26.7374 114.319 27.412 113.644 27.412 112.812C27.412 111.98 26.7374 111.306 25.9052 111.306C25.073 111.306 24.3984 111.98 24.3984 112.812C24.3984 113.644 25.073 114.319 25.9052 114.319Z" fill="url(#paint41_linear)"/>
<path d="M26.1767 118.791C26.8336 118.791 27.3661 118.258 27.3661 117.601C27.3661 116.944 26.8336 116.412 26.1767 116.412C25.5198 116.412 24.9873 116.944 24.9873 117.601C24.9873 118.258 25.5198 118.791 26.1767 118.791Z" fill="url(#paint42_linear)"/>
<path d="M30.8377 115.837C31.2337 115.837 31.5547 115.516 31.5547 115.12C31.5547 114.724 31.2337 114.403 30.8377 114.403C30.4416 114.403 30.1206 114.724 30.1206 115.12C30.1206 115.516 30.4416 115.837 30.8377 115.837Z" fill="url(#paint43_linear)"/>
<path d="M48.5739 62.1004C49.3434 62.1004 49.9671 61.4767 49.9671 60.7072C49.9671 59.9377 49.3434 59.314 48.5739 59.314C47.8044 59.314 47.1807 59.9377 47.1807 60.7072C47.1807 61.4767 47.8044 62.1004 48.5739 62.1004Z" fill="url(#paint44_linear)"/>
<path d="M44.7523 59.5553C45.3599 59.5553 45.8523 59.0629 45.8523 58.4553C45.8523 57.8478 45.3599 57.3553 44.7523 57.3553C44.1448 57.3553 43.6523 57.8478 43.6523 58.4553C43.6523 59.0629 44.1448 59.5553 44.7523 59.5553Z" fill="url(#paint45_linear)"/>
<path d="M44.2653 63.9771C44.6316 63.9771 44.9285 63.6802 44.9285 63.3139C44.9285 62.9476 44.6316 62.6506 44.2653 62.6506C43.899 62.6506 43.6021 62.9476 43.6021 63.3139C43.6021 63.6802 43.899 63.9771 44.2653 63.9771Z" fill="url(#paint46_linear)"/>
<path d="M18.8337 82.1135C19.6031 82.1135 20.2269 81.4897 20.2269 80.7203C20.2269 79.9508 19.6031 79.327 18.8337 79.327C18.0642 79.327 17.4404 79.9508 17.4404 80.7203C17.4404 81.4897 18.0642 82.1135 18.8337 82.1135Z" fill="url(#paint47_linear)"/>
<path d="M15.0121 79.5685C15.6196 79.5685 16.1121 79.076 16.1121 78.4685C16.1121 77.861 15.6196 77.3685 15.0121 77.3685C14.4046 77.3685 13.9121 77.861 13.9121 78.4685C13.9121 79.076 14.4046 79.5685 15.0121 79.5685Z" fill="url(#paint48_linear)"/>
<path d="M14.5251 83.9903C14.8913 83.9903 15.1883 83.6934 15.1883 83.3271C15.1883 82.9608 14.8913 82.6638 14.5251 82.6638C14.1588 82.6638 13.8618 82.9608 13.8618 83.3271C13.8618 83.6934 14.1588 83.9903 14.5251 83.9903Z" fill="url(#paint49_linear)"/>
</g>
<defs>
<linearGradient id="paint0_linear" x1="117.336" y1="28.4237" x2="131.979" y2="61.7657" gradientUnits="userSpaceOnUse">
<stop stop-color="#FF6359"/>
<stop offset="0.2243" stop-color="#FE5B50"/>
<stop offset="0.5952" stop-color="#FC4637"/>
<stop offset="1" stop-color="#F82814"/>
</linearGradient>
<linearGradient id="paint1_linear" x1="103.233" y1="21.6799" x2="120.782" y2="61.637" gradientUnits="userSpaceOnUse">
<stop stop-color="#FF6359"/>
<stop offset="0.2243" stop-color="#FE5B50"/>
<stop offset="0.5952" stop-color="#FC4637"/>
<stop offset="1" stop-color="#F82814"/>
</linearGradient>
<linearGradient id="paint2_linear" x1="59.7744" y1="113.028" x2="71.2218" y2="115.89" gradientUnits="userSpaceOnUse">
<stop stop-color="#FF6359"/>
<stop offset="0.2243" stop-color="#FE5B50"/>
<stop offset="0.5952" stop-color="#FC4637"/>
<stop offset="1" stop-color="#F82814"/>
</linearGradient>
<linearGradient id="paint3_linear" x1="66.9751" y1="122.731" x2="65.7483" y2="110.262" gradientUnits="userSpaceOnUse">
<stop stop-color="#F82814" stop-opacity="0"/>
<stop offset="0.2454" stop-color="#F12817" stop-opacity="0.245"/>
<stop offset="0.6052" stop-color="#DD2820" stop-opacity="0.605"/>
<stop offset="1" stop-color="#C0272D"/>
</linearGradient>
<linearGradient id="paint4_linear" x1="93.5417" y1="137.068" x2="85.2997" y2="136.692" gradientUnits="userSpaceOnUse">
<stop stop-color="#FF6359"/>
<stop offset="0.2243" stop-color="#FE5B50"/>
<stop offset="0.5952" stop-color="#FC4637"/>
<stop offset="1" stop-color="#F82814"/>
</linearGradient>
<linearGradient id="paint5_linear" x1="80.8579" y1="130.349" x2="62.6652" y2="141.183" gradientUnits="userSpaceOnUse">
<stop stop-color="#FF6359"/>
<stop offset="0.2243" stop-color="#FE5B50"/>
<stop offset="0.5952" stop-color="#FC4637"/>
<stop offset="1" stop-color="#F82814"/>
</linearGradient>
<linearGradient id="paint6_linear" x1="64.4075" y1="95.9247" x2="73.8635" y2="107.202" gradientUnits="userSpaceOnUse">
<stop stop-color="#FF6359"/>
<stop offset="0.2243" stop-color="#FE5B50"/>
<stop offset="0.5952" stop-color="#FC4637"/>
<stop offset="1" stop-color="#F82814"/>
</linearGradient>
<linearGradient id="paint7_linear" x1="52.5881" y1="96.751" x2="81.2061" y2="103.701" gradientUnits="userSpaceOnUse">
<stop stop-color="#F82814" stop-opacity="0"/>
<stop offset="0.2454" stop-color="#F12817" stop-opacity="0.245"/>
<stop offset="0.6052" stop-color="#DD2820" stop-opacity="0.605"/>
<stop offset="1" stop-color="#C0272D"/>
</linearGradient>
<linearGradient id="paint8_linear" x1="64.2263" y1="107.486" x2="67.8036" y2="93.0753" gradientUnits="userSpaceOnUse">
<stop stop-color="#F82814" stop-opacity="0"/>
<stop offset="0.2454" stop-color="#F12817" stop-opacity="0.245"/>
<stop offset="0.6052" stop-color="#DD2820" stop-opacity="0.605"/>
<stop offset="1" stop-color="#C0272D"/>
</linearGradient>
<linearGradient id="paint9_linear" x1="76.1722" y1="75.7096" x2="81.0781" y2="94.3114" gradientUnits="userSpaceOnUse">
<stop stop-color="#FF6359"/>
<stop offset="0.2243" stop-color="#FE5B50"/>
<stop offset="0.5952" stop-color="#FC4637"/>
<stop offset="1" stop-color="#F82814"/>
</linearGradient>
<linearGradient id="paint10_linear" x1="62.5861" y1="71.9852" x2="89.364" y2="78.5264" gradientUnits="userSpaceOnUse">
<stop stop-color="#F82814" stop-opacity="0"/>
<stop offset="0.2454" stop-color="#F12817" stop-opacity="0.245"/>
<stop offset="0.6052" stop-color="#DD2820" stop-opacity="0.605"/>
<stop offset="1" stop-color="#C0272D"/>
</linearGradient>
<linearGradient id="paint11_linear" x1="101.251" y1="65.4123" x2="114.538" y2="95.6655" gradientUnits="userSpaceOnUse">
<stop stop-color="#FF6359"/>
<stop offset="0.2243" stop-color="#FE5B50"/>
<stop offset="0.5952" stop-color="#FC4637"/>
<stop offset="1" stop-color="#F82814"/>
</linearGradient>
<radialGradient id="paint12_radial" cx="0" cy="0" r="1" gradientUnits="userSpaceOnUse" gradientTransform="translate(107.505 54.6378) scale(8.18884)">
<stop stop-color="#A57C52"/>
<stop offset="0.2601" stop-color="#A47950"/>
<stop offset="0.4581" stop-color="#A26F4C"/>
<stop offset="0.6356" stop-color="#9F5F44"/>
<stop offset="0.8011" stop-color="#9A4838"/>
<stop offset="0.9568" stop-color="#942B2A"/>
<stop offset="1" stop-color="#922125"/>
</radialGradient>
<linearGradient id="paint13_linear" x1="88.034" y1="76.9914" x2="88.6566" y2="68.0904" gradientUnits="userSpaceOnUse">
<stop stop-color="#F82814" stop-opacity="0"/>
<stop offset="0.2454" stop-color="#F12817" stop-opacity="0.245"/>
<stop offset="0.6052" stop-color="#DD2820" stop-opacity="0.605"/>
<stop offset="1" stop-color="#C0272D"/>
</linearGradient>
<linearGradient id="paint14_linear" x1="82.3583" y1="78.2105" x2="82.8499" y2="71.1835" gradientUnits="userSpaceOnUse">
<stop stop-color="#F82814" stop-opacity="0"/>
<stop offset="0.2454" stop-color="#F12817" stop-opacity="0.245"/>
<stop offset="0.6052" stop-color="#DD2820" stop-opacity="0.605"/>
<stop offset="1" stop-color="#C0272D"/>
</linearGradient>
<linearGradient id="paint15_linear" x1="86.8803" y1="82.1869" x2="87.1768" y2="77.9505" gradientUnits="userSpaceOnUse">
<stop stop-color="#F82814" stop-opacity="0"/>
<stop offset="0.2454" stop-color="#F12817" stop-opacity="0.245"/>
<stop offset="0.6052" stop-color="#DD2820" stop-opacity="0.605"/>
<stop offset="1" stop-color="#C0272D"/>
</linearGradient>
<linearGradient id="paint16_linear" x1="75.5472" y1="133.434" x2="68.7799" y2="131.184" gradientUnits="userSpaceOnUse">
<stop stop-color="#F82814" stop-opacity="0"/>
<stop offset="0.2454" stop-color="#F12817" stop-opacity="0.245"/>
<stop offset="0.6052" stop-color="#DD2820" stop-opacity="0.605"/>
<stop offset="1" stop-color="#C0272D"/>
</linearGradient>
<linearGradient id="paint17_linear" x1="75.364" y1="138.071" x2="70.0213" y2="136.294" gradientUnits="userSpaceOnUse">
<stop stop-color="#F82814" stop-opacity="0"/>
<stop offset="0.2454" stop-color="#F12817" stop-opacity="0.245"/>
<stop offset="0.6052" stop-color="#DD2820" stop-opacity="0.605"/>
<stop offset="1" stop-color="#C0272D"/>
</linearGradient>
<linearGradient id="paint18_linear" x1="79.3405" y1="135.36" x2="76.1195" y2="134.289" gradientUnits="userSpaceOnUse">
<stop stop-color="#F82814" stop-opacity="0"/>
<stop offset="0.2454" stop-color="#F12817" stop-opacity="0.245"/>
<stop offset="0.6052" stop-color="#DD2820" stop-opacity="0.605"/>
<stop offset="1" stop-color="#C0272D"/>
</linearGradient>
<linearGradient id="paint19_linear" x1="93.8856" y1="82.4556" x2="99.094" y2="78.414" gradientUnits="userSpaceOnUse">
<stop stop-color="#F82814" stop-opacity="0"/>
<stop offset="0.2454" stop-color="#F12817" stop-opacity="0.245"/>
<stop offset="0.6052" stop-color="#DD2820" stop-opacity="0.605"/>
<stop offset="1" stop-color="#C0272D"/>
</linearGradient>
<linearGradient id="paint20_linear" x1="90.4186" y1="79.9306" x2="94.5304" y2="76.74" gradientUnits="userSpaceOnUse">
<stop stop-color="#F82814" stop-opacity="0"/>
<stop offset="0.2454" stop-color="#F12817" stop-opacity="0.245"/>
<stop offset="0.6052" stop-color="#DD2820" stop-opacity="0.605"/>
<stop offset="1" stop-color="#C0272D"/>
</linearGradient>
<linearGradient id="paint21_linear" x1="90.4562" y1="84.3794" x2="92.9353" y2="82.456" gradientUnits="userSpaceOnUse">
<stop stop-color="#F82814" stop-opacity="0"/>
<stop offset="0.2454" stop-color="#F12817" stop-opacity="0.245"/>
<stop offset="0.6052" stop-color="#DD2820" stop-opacity="0.605"/>
<stop offset="1" stop-color="#C0272D"/>
</linearGradient>
<linearGradient id="paint22_linear" x1="64.1536" y1="102.457" x2="69.362" y2="98.415" gradientUnits="userSpaceOnUse">
<stop stop-color="#F82814" stop-opacity="0"/>
<stop offset="0.2454" stop-color="#F12817" stop-opacity="0.245"/>
<stop offset="0.6052" stop-color="#DD2820" stop-opacity="0.605"/>
<stop offset="1" stop-color="#C0272D"/>
</linearGradient>
<linearGradient id="paint23_linear" x1="60.6866" y1="99.9316" x2="64.7984" y2="96.741" gradientUnits="userSpaceOnUse">
<stop stop-color="#F82814" stop-opacity="0"/>
<stop offset="0.2454" stop-color="#F12817" stop-opacity="0.245"/>
<stop offset="0.6052" stop-color="#DD2820" stop-opacity="0.605"/>
<stop offset="1" stop-color="#C0272D"/>
</linearGradient>
<linearGradient id="paint24_linear" x1="60.7242" y1="104.381" x2="63.2033" y2="102.457" gradientUnits="userSpaceOnUse">
<stop stop-color="#F82814" stop-opacity="0"/>
<stop offset="0.2454" stop-color="#F12817" stop-opacity="0.245"/>
<stop offset="0.6052" stop-color="#DD2820" stop-opacity="0.605"/>
<stop offset="1" stop-color="#C0272D"/>
</linearGradient>
<linearGradient id="paint25_linear" x1="70.4781" y1="7.52437" x2="85.1216" y2="40.8667" gradientUnits="userSpaceOnUse">
<stop stop-color="#FF6359"/>
<stop offset="0.2243" stop-color="#FE5B50"/>
<stop offset="0.5952" stop-color="#FC4637"/>
<stop offset="1" stop-color="#F82814"/>
</linearGradient>
<linearGradient id="paint26_linear" x1="56.3755" y1="0.780554" x2="73.9243" y2="40.7376" gradientUnits="userSpaceOnUse">
<stop stop-color="#FF6359"/>
<stop offset="0.2243" stop-color="#FE5B50"/>
<stop offset="0.5952" stop-color="#FC4637"/>
<stop offset="1" stop-color="#F82814"/>
</linearGradient>
<linearGradient id="paint27_linear" x1="12.917" y1="92.129" x2="24.3641" y2="94.9907" gradientUnits="userSpaceOnUse">
<stop stop-color="#FF6359"/>
<stop offset="0.2243" stop-color="#FE5B50"/>
<stop offset="0.5952" stop-color="#FC4637"/>
<stop offset="1" stop-color="#F82814"/>
</linearGradient>
<linearGradient id="paint28_linear" x1="20.1173" y1="101.832" x2="18.8909" y2="89.3622" gradientUnits="userSpaceOnUse">
<stop stop-color="#F82814" stop-opacity="0"/>
<stop offset="0.2454" stop-color="#F12817" stop-opacity="0.245"/>
<stop offset="0.6052" stop-color="#DD2820" stop-opacity="0.605"/>
<stop offset="1" stop-color="#C0272D"/>
</linearGradient>
<linearGradient id="paint29_linear" x1="46.6833" y1="116.175" x2="38.4414" y2="115.799" gradientUnits="userSpaceOnUse">
<stop stop-color="#FF6359"/>
<stop offset="0.2243" stop-color="#FE5B50"/>
<stop offset="0.5952" stop-color="#FC4637"/>
<stop offset="1" stop-color="#F82814"/>
</linearGradient>
<linearGradient id="paint30_linear" x1="34.0005" y1="109.449" x2="15.8075" y2="120.283" gradientUnits="userSpaceOnUse">
<stop stop-color="#FF6359"/>
<stop offset="0.2243" stop-color="#FE5B50"/>
<stop offset="0.5952" stop-color="#FC4637"/>
<stop offset="1" stop-color="#F82814"/>
</linearGradient>
<linearGradient id="paint31_linear" x1="17.5691" y1="75.0126" x2="27.0249" y2="86.2903" gradientUnits="userSpaceOnUse">
<stop stop-color="#FF6359"/>
<stop offset="0.2243" stop-color="#FE5B50"/>
<stop offset="0.5952" stop-color="#FC4637"/>
<stop offset="1" stop-color="#F82814"/>
</linearGradient>
<linearGradient id="paint32_linear" x1="5.73071" y1="75.8519" x2="34.3487" y2="82.8019" gradientUnits="userSpaceOnUse">
<stop stop-color="#F82814" stop-opacity="0"/>
<stop offset="0.2454" stop-color="#F12817" stop-opacity="0.245"/>
<stop offset="0.6052" stop-color="#DD2820" stop-opacity="0.605"/>
<stop offset="1" stop-color="#C0272D"/>
</linearGradient>
<linearGradient id="paint33_linear" x1="17.3689" y1="86.5873" x2="20.9459" y2="72.1762" gradientUnits="userSpaceOnUse">
<stop stop-color="#F82814" stop-opacity="0"/>
<stop offset="0.2454" stop-color="#F12817" stop-opacity="0.245"/>
<stop offset="0.6052" stop-color="#DD2820" stop-opacity="0.605"/>
<stop offset="1" stop-color="#C0272D"/>
</linearGradient>
<linearGradient id="paint34_linear" x1="29.3151" y1="54.8105" x2="34.221" y2="73.4123" gradientUnits="userSpaceOnUse">
<stop stop-color="#FF6359"/>
<stop offset="0.2243" stop-color="#FE5B50"/>
<stop offset="0.5952" stop-color="#FC4637"/>
<stop offset="1" stop-color="#F82814"/>
</linearGradient>
<linearGradient id="paint35_linear" x1="15.7283" y1="51.086" x2="42.5066" y2="57.6272" gradientUnits="userSpaceOnUse">
<stop stop-color="#F82814" stop-opacity="0"/>
<stop offset="0.2454" stop-color="#F12817" stop-opacity="0.245"/>
<stop offset="0.6052" stop-color="#DD2820" stop-opacity="0.605"/>
<stop offset="1" stop-color="#C0272D"/>
</linearGradient>
<linearGradient id="paint36_linear" x1="54.3935" y1="44.5132" x2="67.6806" y2="74.7664" gradientUnits="userSpaceOnUse">
<stop stop-color="#FF6359"/>
<stop offset="0.2243" stop-color="#FE5B50"/>
<stop offset="0.5952" stop-color="#FC4637"/>
<stop offset="1" stop-color="#F82814"/>
</linearGradient>
<radialGradient id="paint37_radial" cx="0" cy="0" r="1" gradientUnits="userSpaceOnUse" gradientTransform="translate(60.6476 33.7388) scale(8.18882)">
<stop stop-color="#A57C52"/>
<stop offset="0.2601" stop-color="#A47950"/>
<stop offset="0.4581" stop-color="#A26F4C"/>
<stop offset="0.6356" stop-color="#9F5F44"/>
<stop offset="0.8011" stop-color="#9A4838"/>
<stop offset="0.9568" stop-color="#942B2A"/>
<stop offset="1" stop-color="#922125"/>
</radialGradient>
<linearGradient id="paint38_linear" x1="41.1918" y1="56.0937" x2="41.8144" y2="47.1928" gradientUnits="userSpaceOnUse">
<stop stop-color="#F82814" stop-opacity="0"/>
<stop offset="0.2454" stop-color="#F12817" stop-opacity="0.245"/>
<stop offset="0.6052" stop-color="#DD2820" stop-opacity="0.605"/>
<stop offset="1" stop-color="#C0272D"/>
</linearGradient>
<linearGradient id="paint39_linear" x1="35.5161" y1="57.3128" x2="36.0075" y2="50.286" gradientUnits="userSpaceOnUse">
<stop stop-color="#F82814" stop-opacity="0"/>
<stop offset="0.2454" stop-color="#F12817" stop-opacity="0.245"/>
<stop offset="0.6052" stop-color="#DD2820" stop-opacity="0.605"/>
<stop offset="1" stop-color="#C0272D"/>
</linearGradient>
<linearGradient id="paint40_linear" x1="40.0383" y1="61.2892" x2="40.3348" y2="57.0529" gradientUnits="userSpaceOnUse">
<stop stop-color="#F82814" stop-opacity="0"/>
<stop offset="0.2454" stop-color="#F12817" stop-opacity="0.245"/>
<stop offset="0.6052" stop-color="#DD2820" stop-opacity="0.605"/>
<stop offset="1" stop-color="#C0272D"/>
</linearGradient>
<linearGradient id="paint41_linear" x1="28.6771" y1="112.567" x2="21.9094" y2="110.317" gradientUnits="userSpaceOnUse">
<stop stop-color="#F82814" stop-opacity="0"/>
<stop offset="0.2454" stop-color="#F12817" stop-opacity="0.245"/>
<stop offset="0.6052" stop-color="#DD2820" stop-opacity="0.605"/>
<stop offset="1" stop-color="#C0272D"/>
</linearGradient>
<linearGradient id="paint42_linear" x1="28.4934" y1="117.204" x2="23.151" y2="115.427" gradientUnits="userSpaceOnUse">
<stop stop-color="#F82814" stop-opacity="0"/>
<stop offset="0.2454" stop-color="#F12817" stop-opacity="0.245"/>
<stop offset="0.6052" stop-color="#DD2820" stop-opacity="0.605"/>
<stop offset="1" stop-color="#C0272D"/>
</linearGradient>
<linearGradient id="paint43_linear" x1="32.4702" y1="114.493" x2="29.2492" y2="113.422" gradientUnits="userSpaceOnUse">
<stop stop-color="#F82814" stop-opacity="0"/>
<stop offset="0.2454" stop-color="#F12817" stop-opacity="0.245"/>
<stop offset="0.6052" stop-color="#DD2820" stop-opacity="0.605"/>
<stop offset="1" stop-color="#C0272D"/>
</linearGradient>
<linearGradient id="paint44_linear" x1="47.0494" y1="61.5576" x2="52.2578" y2="57.516" gradientUnits="userSpaceOnUse">
<stop stop-color="#F82814" stop-opacity="0"/>
<stop offset="0.2454" stop-color="#F12817" stop-opacity="0.245"/>
<stop offset="0.6052" stop-color="#DD2820" stop-opacity="0.605"/>
<stop offset="1" stop-color="#C0272D"/>
</linearGradient>
<linearGradient id="paint45_linear" x1="43.5824" y1="59.0325" x2="47.6942" y2="55.8419" gradientUnits="userSpaceOnUse">
<stop stop-color="#F82814" stop-opacity="0"/>
<stop offset="0.2454" stop-color="#F12817" stop-opacity="0.245"/>
<stop offset="0.6052" stop-color="#DD2820" stop-opacity="0.605"/>
<stop offset="1" stop-color="#C0272D"/>
</linearGradient>
<linearGradient id="paint46_linear" x1="43.62" y1="63.4813" x2="46.0991" y2="61.5579" gradientUnits="userSpaceOnUse">
<stop stop-color="#F82814" stop-opacity="0"/>
<stop offset="0.2454" stop-color="#F12817" stop-opacity="0.245"/>
<stop offset="0.6052" stop-color="#DD2820" stop-opacity="0.605"/>
<stop offset="1" stop-color="#C0272D"/>
</linearGradient>
<linearGradient id="paint47_linear" x1="17.3177" y1="81.5584" x2="22.5261" y2="77.5168" gradientUnits="userSpaceOnUse">
<stop stop-color="#F82814" stop-opacity="0"/>
<stop offset="0.2454" stop-color="#F12817" stop-opacity="0.245"/>
<stop offset="0.6052" stop-color="#DD2820" stop-opacity="0.605"/>
<stop offset="1" stop-color="#C0272D"/>
</linearGradient>
<linearGradient id="paint48_linear" x1="13.8507" y1="79.0334" x2="17.9625" y2="75.8428" gradientUnits="userSpaceOnUse">
<stop stop-color="#F82814" stop-opacity="0"/>
<stop offset="0.2454" stop-color="#F12817" stop-opacity="0.245"/>
<stop offset="0.6052" stop-color="#DD2820" stop-opacity="0.605"/>
<stop offset="1" stop-color="#C0272D"/>
</linearGradient>
<linearGradient id="paint49_linear" x1="13.8883" y1="83.4822" x2="16.3671" y2="81.5588" gradientUnits="userSpaceOnUse">
<stop stop-color="#F82814" stop-opacity="0"/>
<stop offset="0.2454" stop-color="#F12817" stop-opacity="0.245"/>
<stop offset="0.6052" stop-color="#DD2820" stop-opacity="0.605"/>
<stop offset="1" stop-color="#C0272D"/>
</linearGradient>
<clipPath id="clip0">
<rect width="150" height="150" fill="white" transform="translate(0.315918 0.508789)"/>
</clipPath>
</defs>
</svg>
