<svg width="312" height="39" viewBox="0 0 312 39" fill="none" xmlns="http://www.w3.org/2000/svg">
<path d="M309.2 16.3221C310.972 15.9173 312.092 14.1102 311.697 12.2938C311.302 10.4773 309.54 9.32889 307.768 9.73367C305.997 10.1385 304.877 11.9455 305.272 13.762C305.666 15.5784 307.429 16.7268 309.2 16.3221ZM308.216 11.7925C308.88 11.6407 309.541 12.0714 309.689 12.7526C309.837 13.4338 309.417 14.1114 308.753 14.2632C308.088 14.415 307.428 13.9843 307.28 13.3031C307.131 12.622 307.552 11.9443 308.216 11.7925Z" fill="#6A7889"/>
<path d="M275.425 33.9739L273.965 33.4683C273.824 33.4194 273.711 33.3039 273.663 33.1593L273.17 31.6626C273.04 31.2663 272.678 31 272.27 31C271.862 31 271.5 31.2662 271.37 31.6625L270.876 33.1591C270.829 33.3038 270.716 33.4193 270.575 33.4682L269.115 33.9738C268.729 34.1077 268.469 34.4787 268.469 34.897C268.469 35.3153 268.729 35.6863 269.115 35.8202L270.575 36.3258C270.716 36.3747 270.829 36.4903 270.876 36.6349L271.37 38.1315C271.5 38.5277 271.862 38.7941 272.27 38.7941C272.678 38.7941 273.04 38.5278 273.17 38.1316L273.663 36.6349C273.711 36.4903 273.824 36.3747 273.965 36.3259L275.425 35.8203C275.811 35.6864 276.071 35.3154 276.071 34.8971C276.071 34.4787 275.811 34.1077 275.425 33.9739ZM272.27 35.901C272.068 35.462 271.719 35.1045 271.291 34.897C271.719 34.6897 272.067 34.3321 272.27 33.8931C272.472 34.3321 272.821 34.6895 273.249 34.897C272.821 35.1045 272.472 35.462 272.27 35.901Z" fill="#6A7889"/>
<path d="M252.017 3.97391L250.557 3.46826C250.416 3.41937 250.304 3.30388 250.256 3.15928L249.763 1.66259C249.632 1.26633 249.27 1 248.863 1C248.455 1 248.093 1.26622 247.962 1.66249L247.469 3.15906C247.421 3.30376 247.309 3.41927 247.168 3.46816L245.708 3.9738C245.321 4.10767 245.062 4.47867 245.062 4.89703C245.062 5.31528 245.321 5.68628 245.708 5.82016L247.168 6.3258C247.309 6.37469 247.421 6.49029 247.469 6.63489L247.962 8.13147C248.093 8.52773 248.455 8.79406 248.863 8.79406C249.27 8.79406 249.632 8.52784 249.763 8.13158L250.256 6.63489C250.304 6.49029 250.416 6.37469 250.557 6.32591L252.017 5.82026C252.404 5.68639 252.663 5.31539 252.663 4.89714C252.663 4.47867 252.403 4.10767 252.017 3.97391ZM248.862 5.90098C248.66 5.46195 248.311 5.10452 247.883 4.89703C248.311 4.68966 248.66 4.33211 248.862 3.89308C249.065 4.33211 249.413 4.68955 249.842 4.89703C249.414 5.10452 249.065 5.46195 248.862 5.90098Z" fill="#6A7889"/>
<path d="M111.326 26.9739L109.866 26.4683C109.725 26.4194 109.612 26.3039 109.565 26.1593L109.071 24.6626C108.941 24.2663 108.579 24 108.171 24C107.763 24 107.401 24.2662 107.271 24.6625L106.778 26.1591C106.73 26.3038 106.617 26.4193 106.476 26.4682L105.017 26.9738C104.63 27.1077 104.37 27.4787 104.37 27.897C104.37 28.3153 104.63 28.6863 105.016 28.8202L106.476 29.3258C106.617 29.3747 106.73 29.4903 106.778 29.6349L107.271 31.1315C107.401 31.5277 107.763 31.7941 108.171 31.7941C108.579 31.7941 108.941 31.5278 109.071 31.1316L109.565 29.6349C109.612 29.4903 109.725 29.3747 109.866 29.3259L111.326 28.8203C111.712 28.6864 111.972 28.3154 111.972 27.8971C111.972 27.4787 111.712 27.1077 111.326 26.9739ZM108.171 28.901C107.969 28.462 107.62 28.1045 107.192 27.897C107.62 27.6897 107.969 27.3321 108.171 26.8931C108.373 27.3321 108.722 27.6895 109.15 27.897C108.722 28.1045 108.373 28.462 108.171 28.901Z" fill="#6A7889"/>
<path d="M47.2023 22.9739L45.7425 22.4683C45.6015 22.4194 45.4889 22.3039 45.4412 22.1593L44.948 20.6626C44.8174 20.2663 44.4556 20 44.0477 20C43.6398 20 43.2779 20.2662 43.1474 20.6625L42.6542 22.1591C42.6065 22.3038 42.4938 22.4193 42.3527 22.4682L40.8931 22.9738C40.5065 23.1077 40.2469 23.4787 40.2469 23.897C40.2469 24.3153 40.5065 24.6863 40.893 24.8202L42.3527 25.3258C42.4938 25.3747 42.6065 25.4903 42.6542 25.6349L43.1474 27.1315C43.2779 27.5277 43.6398 27.7941 44.0477 27.7941C44.4556 27.7941 44.8174 27.5278 44.948 27.1316L45.4412 25.6349C45.4889 25.4903 45.6015 25.3747 45.7425 25.3259L47.2023 24.8203C47.5887 24.6864 47.8485 24.3154 47.8485 23.8971C47.8484 23.4787 47.5886 23.1077 47.2023 22.9739ZM44.0476 24.901C43.8453 24.462 43.4966 24.1045 43.0684 23.897C43.4966 23.6897 43.8452 23.3321 44.0476 22.8931C44.2499 23.3321 44.5986 23.6895 45.0267 23.897C44.5987 24.1045 44.2499 24.462 44.0476 24.901Z" fill="#6A7889"/>
<path d="M4.90408 13.3221C6.67566 12.9173 7.79575 11.1102 7.40095 9.29376C7.00616 7.47733 5.24371 6.32889 3.47213 6.73367C1.70054 7.13846 0.580459 8.94553 0.975251 10.762C1.37004 12.5784 3.13249 13.7268 4.90408 13.3221ZM3.91961 8.79254C4.58397 8.64074 5.24487 9.0714 5.39292 9.75257C5.54097 10.4338 5.12095 11.1114 4.45659 11.2632C3.79223 11.415 3.13133 10.9843 2.98328 10.3031C2.83523 9.62197 3.25535 8.94432 3.91961 8.79254Z" fill="#6A7889"/>
<path d="M83.6571 7.32205C85.4287 6.91726 86.5488 5.1102 86.154 3.29376C85.7592 1.47733 83.9968 0.328886 82.2252 0.733674C80.4536 1.13846 79.3335 2.94553 79.7283 4.76196C80.1231 6.5784 81.8855 7.72684 83.6571 7.32205ZM82.6727 2.79254C83.337 2.64074 83.9979 3.0714 84.146 3.75257C84.294 4.43375 83.874 5.11138 83.2096 5.26318C82.5453 5.41498 81.8844 4.98433 81.7363 4.30315C81.5883 3.62197 82.0084 2.94432 82.6727 2.79254Z" fill="#6A7889"/>
<path d="M227.274 18.323C229.046 17.9182 230.166 16.1112 229.771 14.2947C229.377 12.4783 227.614 11.3299 225.842 11.7347C224.071 12.1394 222.951 13.9465 223.346 15.7629C223.74 17.5794 225.503 18.7278 227.274 18.323ZM226.29 13.7935C226.954 13.6417 227.615 14.0724 227.763 14.7536C227.911 15.4347 227.491 16.1124 226.827 16.2642C226.163 16.416 225.502 15.9853 225.354 15.3041C225.206 14.6229 225.626 13.9453 226.29 13.7935Z" fill="#6A7889"/>
</svg>
