<svg width="151" height="150" viewBox="0 0 151 150" fill="none" xmlns="http://www.w3.org/2000/svg">
<g clip-path="url(#clip0)">
<path d="M145.108 17.7305H59.9927V50.3531C59.9927 69.5522 145.109 69.5522 145.109 50.3531V17.7305H145.108Z" fill="url(#paint0_linear)"/>
<path d="M145.108 17.7304C145.108 36.9295 59.9917 36.9295 59.9917 17.7304C59.9917 -1.46873 145.108 -1.46873 145.108 17.7304Z" fill="url(#paint1_linear)"/>
<path d="M127.306 16.1825C127.306 13.0622 121.491 11.0114 113.846 10.0299C99.184 8.14753 82.334 10.1984 82.334 16.1825C82.334 19.5375 84.5169 21.6564 93.009 22.5387C107.561 24.0508 127.306 21.9319 127.306 16.1825Z" fill="url(#paint2_linear)"/>
<path d="M116.098 22.0052C110.133 20.5793 105.798 16.2767 105.798 11.1896C105.798 10.5849 105.861 9.99196 105.979 9.41284C117.115 9.79549 127.307 12.052 127.307 16.1825C127.307 18.9881 122.604 20.9287 116.098 22.0052Z" fill="url(#paint3_linear)"/>
<path d="M113.981 10.0476C112.918 13.8994 107.077 16.8453 100.029 16.8453C93.4873 16.8453 87.9865 14.3073 86.3794 10.8629C93.9853 9.17528 105.209 8.90352 113.981 10.0476Z" fill="url(#paint4_linear)"/>
<path d="M77.7935 16.1824C77.7935 12.9197 84.1523 10.8265 92.3123 9.90238C95.9273 9.49297 99.2776 12.1391 99.4935 15.7709C99.5011 15.9 99.5049 16.0297 99.5049 16.16C99.5049 16.8186 99.4061 17.4597 99.219 18.0765C98.3308 21.0041 95.3817 22.8086 92.342 22.4653C84.1676 21.5433 77.7935 19.4491 77.7935 16.1824Z" fill="url(#paint5_linear)"/>
<path d="M109.872 19.4555C111.311 16.5466 114.837 15.3558 117.745 16.7955L123.916 19.8496C121.129 21.1481 116.863 22.0466 112.028 22.5452C110.342 22.7187 109.12 20.9752 109.872 19.4555Z" fill="url(#paint6_linear)"/>
<g opacity="0.6">
<g opacity="0.6">
<g opacity="0.6">
<path opacity="0.6" d="M68.6329 16.6645C69.4862 16.6645 70.1779 15.9727 70.1779 15.1195C70.1779 14.2662 69.4862 13.5745 68.6329 13.5745C67.7796 13.5745 67.0879 14.2662 67.0879 15.1195C67.0879 15.9727 67.7796 16.6645 68.6329 16.6645Z" fill="url(#paint7_linear)"/>
<path opacity="0.6" d="M69.8115 21.114C70.4851 21.114 71.0312 20.5679 71.0312 19.8943C71.0312 19.2206 70.4851 18.6746 69.8115 18.6746C69.1379 18.6746 68.5918 19.2206 68.5918 19.8943C68.5918 20.5679 69.1379 21.114 69.8115 21.114Z" fill="url(#paint8_linear)"/>
<path opacity="0.6" d="M74.04 17.2479C74.4461 17.2479 74.7753 16.9187 74.7753 16.5126C74.7753 16.1065 74.4461 15.7773 74.04 15.7773C73.6339 15.7773 73.3047 16.1065 73.3047 16.5126C73.3047 16.9187 73.6339 17.2479 74.04 17.2479Z" fill="url(#paint9_linear)"/>
</g>
<g opacity="0.6">
<path opacity="0.6" d="M132.24 21.7646C133.094 21.7646 133.785 21.0728 133.785 20.2196C133.785 19.3663 133.094 18.6746 132.24 18.6746C131.387 18.6746 130.695 19.3663 130.695 20.2196C130.695 21.0728 131.387 21.7646 132.24 21.7646Z" fill="url(#paint10_linear)"/>
<path opacity="0.6" d="M129.372 25.4343C130.045 25.4343 130.591 24.8882 130.591 24.2146C130.591 23.541 130.045 22.9949 129.372 22.9949C128.698 22.9949 128.152 23.541 128.152 24.2146C128.152 24.8882 128.698 25.4343 129.372 25.4343Z" fill="url(#paint11_linear)"/>
<path opacity="0.6" d="M134.688 25.9733C135.094 25.9733 135.423 25.6441 135.423 25.238C135.423 24.8319 135.094 24.5027 134.688 24.5027C134.282 24.5027 133.953 24.8319 133.953 25.238C133.953 25.6441 134.282 25.9733 134.688 25.9733Z" fill="url(#paint12_linear)"/>
</g>
<g opacity="0.6">
<path opacity="0.6" d="M74.8187 10.8C75.4491 10.8 75.9602 10.289 75.9602 9.65856C75.9602 9.02814 75.4491 8.51709 74.8187 8.51709C74.1883 8.51709 73.6772 9.02814 73.6772 9.65856C73.6772 10.289 74.1883 10.8 74.8187 10.8Z" fill="url(#paint13_linear)"/>
<path opacity="0.6" d="M72.7698 13.5616C73.2675 13.5616 73.671 13.1582 73.671 12.6605C73.671 12.1627 73.2675 11.7593 72.7698 11.7593C72.2721 11.7593 71.8687 12.1627 71.8687 12.6605C71.8687 13.1582 72.2721 13.5616 72.7698 13.5616Z" fill="url(#paint14_linear)"/>
<path opacity="0.6" d="M76.7151 13.8663C77.0151 13.8663 77.2583 13.623 77.2583 13.323C77.2583 13.023 77.0151 12.7798 76.7151 12.7798C76.4151 12.7798 76.1719 13.023 76.1719 13.323C76.1719 13.623 76.4151 13.8663 76.7151 13.8663Z" fill="url(#paint15_linear)"/>
</g>
</g>
</g>
<path d="M111.403 64.4715L83.7535 36.8218C80.0023 32.4415 70.8826 29.5289 59.9917 28.083V50.3533C59.9914 61.2927 87.6261 65.9986 111.403 64.4715Z" fill="url(#paint16_linear)"/>
<path d="M85.59 41.4121H0.474121V74.0348C0.474121 93.2339 85.59 93.2339 85.59 74.0348V41.4121Z" fill="url(#paint17_linear)"/>
<path d="M85.59 41.4122C85.59 60.6113 0.474121 60.6113 0.474121 41.4122C0.474121 22.213 85.59 22.2133 85.59 41.4122Z" fill="url(#paint18_linear)"/>
<path d="M18.2759 39.8647C18.2759 36.7503 24.0697 34.7012 31.6935 33.7176C46.3565 31.8256 63.365 33.8747 63.365 39.8647C63.365 43.1632 61.29 45.2668 53.0012 46.175C38.4112 47.7741 18.2759 45.6706 18.2759 39.8647Z" fill="url(#paint19_linear)"/>
<path d="M29.4841 45.6871C35.4494 44.2612 39.7841 39.9585 39.7841 34.8715C39.7841 34.2668 39.7215 33.6738 39.6035 33.0947C28.4679 33.4774 18.2759 35.7338 18.2759 39.8644C18.2759 42.6697 22.9782 44.6106 29.4841 45.6871Z" fill="url(#paint20_linear)"/>
<path d="M31.6006 33.7298C32.6635 37.5816 38.5047 40.5275 45.5529 40.5275C52.0944 40.5275 57.5953 37.9896 59.2024 34.5451C51.5968 32.8572 40.3724 32.5857 31.6006 33.7298Z" fill="url(#paint21_linear)"/>
<path d="M67.7886 39.8645C67.7886 36.6019 61.4298 34.5086 53.2698 33.5845C49.6548 33.1751 46.3045 35.8213 46.0886 39.453C46.081 39.5822 46.0771 39.7119 46.0771 39.8422C46.0771 40.5007 46.176 41.1419 46.363 41.7586C47.2513 44.6863 50.2004 46.4907 53.2401 46.1474C61.4145 45.2251 67.7886 43.131 67.7886 39.8645Z" fill="url(#paint22_linear)"/>
<path d="M35.7101 43.1373C34.2704 40.2285 30.7451 39.0376 27.8363 40.4773L21.666 43.5315C24.4528 44.83 28.719 45.7285 33.5537 46.2271C35.2401 46.4006 36.4625 44.6571 35.7101 43.1373Z" fill="url(#paint23_linear)"/>
<g opacity="0.6">
<g opacity="0.6">
<g opacity="0.6">
<path opacity="0.6" d="M9.11482 40.3463C9.9681 40.3463 10.6598 39.6546 10.6598 38.8013C10.6598 37.9481 9.9681 37.2563 9.11482 37.2563C8.26154 37.2563 7.56982 37.9481 7.56982 38.8013C7.56982 39.6546 8.26154 40.3463 9.11482 40.3463Z" fill="url(#paint24_linear)"/>
<path opacity="0.6" d="M10.2939 44.7959C10.9676 44.7959 11.5136 44.2498 11.5136 43.5762C11.5136 42.9025 10.9676 42.3564 10.2939 42.3564C9.6203 42.3564 9.07422 42.9025 9.07422 43.5762C9.07422 44.2498 9.6203 44.7959 10.2939 44.7959Z" fill="url(#paint25_linear)"/>
<path opacity="0.6" d="M14.5219 40.9298C14.928 40.9298 15.2572 40.6006 15.2572 40.1945C15.2572 39.7884 14.928 39.4592 14.5219 39.4592C14.1158 39.4592 13.7866 39.7884 13.7866 40.1945C13.7866 40.6006 14.1158 40.9298 14.5219 40.9298Z" fill="url(#paint26_linear)"/>
</g>
<g opacity="0.6">
<path opacity="0.6" d="M72.7227 45.4467C73.576 45.4467 74.2677 44.755 74.2677 43.9017C74.2677 43.0484 73.576 42.3567 72.7227 42.3567C71.8695 42.3567 71.1777 43.0484 71.1777 43.9017C71.1777 44.755 71.8695 45.4467 72.7227 45.4467Z" fill="url(#paint27_linear)"/>
<path opacity="0.6" d="M69.8545 49.1164C70.5281 49.1164 71.0742 48.5703 71.0742 47.8967C71.0742 47.2231 70.5281 46.677 69.8545 46.677C69.1808 46.677 68.6348 47.2231 68.6348 47.8967C68.6348 48.5703 69.1808 49.1164 69.8545 49.1164Z" fill="url(#paint28_linear)"/>
<path opacity="0.6" d="M75.1708 49.6552C75.5769 49.6552 75.9061 49.326 75.9061 48.9199C75.9061 48.5138 75.5769 48.1846 75.1708 48.1846C74.7647 48.1846 74.4355 48.5138 74.4355 48.9199C74.4355 49.326 74.7647 49.6552 75.1708 49.6552Z" fill="url(#paint29_linear)"/>
</g>
<g opacity="0.6">
<path opacity="0.6" d="M15.3007 34.4822C15.9311 34.4822 16.4421 33.9711 16.4421 33.3407C16.4421 32.7103 15.9311 32.1992 15.3007 32.1992C14.6702 32.1992 14.1592 32.7103 14.1592 33.3407C14.1592 33.9711 14.6702 34.4822 15.3007 34.4822Z" fill="url(#paint30_linear)"/>
<path opacity="0.6" d="M13.2518 37.2438C13.7495 37.2438 14.1529 36.8403 14.1529 36.3426C14.1529 35.8449 13.7495 35.4414 13.2518 35.4414C12.7541 35.4414 12.3506 35.8449 12.3506 36.3426C12.3506 36.8403 12.7541 37.2438 13.2518 37.2438Z" fill="url(#paint31_linear)"/>
<path opacity="0.6" d="M17.197 37.5481C17.4971 37.5481 17.7403 37.3049 17.7403 37.0049C17.7403 36.7049 17.4971 36.4617 17.197 36.4617C16.897 36.4617 16.6538 36.7049 16.6538 37.0049C16.6538 37.3049 16.897 37.5481 17.197 37.5481Z" fill="url(#paint32_linear)"/>
</g>
</g>
</g>
<path d="M150.474 65.0942H65.3584V97.7169C65.3584 116.916 150.474 116.916 150.474 97.7169V65.0942Z" fill="url(#paint33_linear)"/>
<path d="M150.474 65.0942C150.474 84.2933 65.3584 84.2933 65.3584 65.0942C65.3584 45.895 150.474 45.895 150.474 65.0942Z" fill="url(#paint34_linear)"/>
<path d="M83.1602 63.5462C83.1602 66.6638 88.9663 68.7141 96.6022 69.6965C111.265 71.5829 129.701 69.5329 129.701 63.5462C129.701 60.1544 125.801 58.0262 117.177 57.1615C102.653 55.7053 83.1602 57.8335 83.1602 63.5462Z" fill="url(#paint35_linear)"/>
<path d="M94.3684 57.7236C100.334 59.1495 104.668 63.4522 104.668 68.5392C104.668 69.1439 104.606 69.7369 104.488 70.316C93.3522 69.9333 83.1602 67.6769 83.1602 63.5463C83.1602 60.7407 87.8628 58.8001 94.3684 57.7236Z" fill="url(#paint36_linear)"/>
<path d="M96.4849 69.681C97.5478 65.8292 103.389 62.8833 110.437 62.8833C116.979 62.8833 122.48 65.4212 124.087 68.8657C116.481 70.5533 105.257 70.8251 96.4849 69.681Z" fill="url(#paint37_linear)"/>
<path d="M132.673 63.5463C132.673 66.8089 126.314 68.9022 118.154 69.8263C114.539 70.2357 111.189 67.5895 110.973 63.9578C110.965 63.8286 110.961 63.6989 110.961 63.5687C110.961 62.9101 111.06 62.2689 111.247 61.6522C112.136 58.7245 115.085 56.9201 118.124 57.2634C126.299 58.1854 132.673 60.2798 132.673 63.5463Z" fill="url(#paint38_linear)"/>
<path d="M115.238 60.2733C116.678 63.1821 120.203 64.373 123.112 62.9333L129.282 59.8792C126.496 58.5807 122.229 57.6821 117.395 57.1836C115.708 57.0101 114.486 58.7539 115.238 60.2733Z" fill="url(#paint39_linear)"/>
<g opacity="0.6">
<g opacity="0.6">
<g opacity="0.6">
<path opacity="0.6" d="M73.9991 64.0282C74.8524 64.0282 75.5441 63.3365 75.5441 62.4832C75.5441 61.6299 74.8524 60.9382 73.9991 60.9382C73.1458 60.9382 72.4541 61.6299 72.4541 62.4832C72.4541 63.3365 73.1458 64.0282 73.9991 64.0282Z" fill="url(#paint40_linear)"/>
<path opacity="0.6" d="M75.1782 68.4777C75.8518 68.4777 76.3979 67.9317 76.3979 67.258C76.3979 66.5844 75.8518 66.0383 75.1782 66.0383C74.5046 66.0383 73.9585 66.5844 73.9585 67.258C73.9585 67.9317 74.5046 68.4777 75.1782 68.4777Z" fill="url(#paint41_linear)"/>
<path opacity="0.6" d="M79.4062 64.6117C79.8123 64.6117 80.1415 64.2825 80.1415 63.8764C80.1415 63.4703 79.8123 63.1411 79.4062 63.1411C79.0001 63.1411 78.6709 63.4703 78.6709 63.8764C78.6709 64.2825 79.0001 64.6117 79.4062 64.6117Z" fill="url(#paint42_linear)"/>
</g>
<g opacity="0.6">
<path opacity="0.6" d="M137.608 69.1283C138.461 69.1283 139.152 68.4366 139.152 67.5833C139.152 66.7301 138.461 66.0383 137.608 66.0383C136.754 66.0383 136.062 66.7301 136.062 67.5833C136.062 68.4366 136.754 69.1283 137.608 69.1283Z" fill="url(#paint43_linear)"/>
<path opacity="0.6" d="M134.739 72.7981C135.412 72.7981 135.958 72.252 135.958 71.5784C135.958 70.9047 135.412 70.3586 134.739 70.3586C134.065 70.3586 133.519 70.9047 133.519 71.5784C133.519 72.252 134.065 72.7981 134.739 72.7981Z" fill="url(#paint44_linear)"/>
<path opacity="0.6" d="M140.055 73.337C140.461 73.337 140.79 73.0078 140.79 72.6017C140.79 72.1957 140.461 71.8665 140.055 71.8665C139.649 71.8665 139.319 72.1957 139.319 72.6017C139.319 73.0078 139.649 73.337 140.055 73.337Z" fill="url(#paint45_linear)"/>
</g>
<g opacity="0.6">
<path opacity="0.6" d="M80.1849 58.1638C80.8154 58.1638 81.3264 57.6528 81.3264 57.0223C81.3264 56.3919 80.8154 55.8809 80.1849 55.8809C79.5545 55.8809 79.0435 56.3919 79.0435 57.0223C79.0435 57.6528 79.5545 58.1638 80.1849 58.1638Z" fill="url(#paint46_linear)"/>
<path opacity="0.6" d="M78.136 60.9254C78.6338 60.9254 79.0372 60.5219 79.0372 60.0242C79.0372 59.5265 78.6338 59.123 78.136 59.123C77.6383 59.123 77.2349 59.5265 77.2349 60.0242C77.2349 60.5219 77.6383 60.9254 78.136 60.9254Z" fill="url(#paint47_linear)"/>
<path opacity="0.6" d="M82.0813 61.2298C82.3813 61.2298 82.6245 60.9866 82.6245 60.6865C82.6245 60.3865 82.3813 60.1433 82.0813 60.1433C81.7813 60.1433 81.5381 60.3865 81.5381 60.6865C81.5381 60.9866 81.7813 61.2298 82.0813 61.2298Z" fill="url(#paint48_linear)"/>
</g>
</g>
</g>
<path d="M65.3584 85.9131V97.7169C65.3584 107.578 87.8152 112.374 109.659 112.105L92.3128 94.7587C87.9937 90.0943 77.4928 87.1463 65.3584 85.9131Z" fill="url(#paint49_linear)"/>
<path d="M94.4123 99.6472H9.29639V132.27C9.29639 151.469 94.4123 151.469 94.4123 132.27V99.6472Z" fill="url(#paint50_linear)"/>
<path d="M94.4123 99.6471C94.4123 118.846 9.29639 118.846 9.29639 99.6471C9.29639 80.448 94.4123 80.448 94.4123 99.6471Z" fill="url(#paint51_linear)"/>
<path d="M76.6108 98.0993C76.6108 101.215 70.8108 103.265 63.1811 104.248C48.4879 105.17 30.0391 104.088 30.0391 98.0993C30.0391 94.7548 33.7797 92.6387 42.2338 91.7516C48.2358 91.1216 55.1317 91.111 61.1641 91.7196C63.2455 91.9296 64.9276 92.6843 66.7317 93.0416C69.1852 93.5278 71.6117 93.6796 73.2361 94.4387C75.3523 95.4275 76.6108 96.6478 76.6108 98.0993Z" fill="url(#paint52_linear)"/>
<path d="M65.4025 92.2766C59.4372 93.7025 55.1025 98.0051 55.1025 103.092C55.1025 103.697 55.1652 104.29 55.2831 104.869C66.4187 104.486 76.6108 102.23 76.6108 98.099C76.6108 95.2937 71.9084 93.3531 65.4025 92.2766Z" fill="url(#paint53_linear)"/>
<path d="M63.2859 104.234C62.2229 100.382 56.3817 97.4363 49.3335 97.4363C42.792 97.4363 37.2911 99.9742 35.6841 103.419C43.2897 105.106 54.5141 105.378 63.2859 104.234Z" fill="url(#paint54_linear)"/>
<path d="M27.0981 98.0993C27.0981 101.362 33.457 103.455 41.617 104.379C45.232 104.789 48.5823 102.143 48.7981 98.5108C48.8058 98.3816 48.8096 98.2519 48.8096 98.1216C48.8096 97.4631 48.7108 96.8219 48.5237 96.2052C47.6355 93.2775 44.6864 91.4731 41.6467 91.8163C33.4723 92.7384 27.0981 94.8328 27.0981 98.0993Z" fill="url(#paint55_linear)"/>
<path d="M59.1765 94.8266C60.6162 97.7354 64.1415 98.9263 67.0503 97.4866L73.2206 94.4325C70.4338 93.1339 66.1676 92.2354 61.3329 91.7369C59.6465 91.5631 58.4241 93.3069 59.1765 94.8266Z" fill="url(#paint56_linear)"/>
<g opacity="0.6">
<g opacity="0.6">
<g opacity="0.6">
<path opacity="0.6" d="M17.9371 98.5812C18.7904 98.5812 19.4821 97.8895 19.4821 97.0362C19.4821 96.1829 18.7904 95.4912 17.9371 95.4912C17.0838 95.4912 16.3921 96.1829 16.3921 97.0362C16.3921 97.8895 17.0838 98.5812 17.9371 98.5812Z" fill="url(#paint57_linear)"/>
<path opacity="0.6" d="M19.1162 103.031C19.7898 103.031 20.3359 102.485 20.3359 101.811C20.3359 101.137 19.7898 100.591 19.1162 100.591C18.4426 100.591 17.8965 101.137 17.8965 101.811C17.8965 102.485 18.4426 103.031 19.1162 103.031Z" fill="url(#paint58_linear)"/>
<path opacity="0.6" d="M23.3442 99.1647C23.7503 99.1647 24.0795 98.8355 24.0795 98.4294C24.0795 98.0233 23.7503 97.6941 23.3442 97.6941C22.9381 97.6941 22.6089 98.0233 22.6089 98.4294C22.6089 98.8355 22.9381 99.1647 23.3442 99.1647Z" fill="url(#paint59_linear)"/>
</g>
<g opacity="0.6">
<path opacity="0.6" d="M81.545 103.681C82.3983 103.681 83.09 102.99 83.09 102.136C83.09 101.283 82.3983 100.591 81.545 100.591C80.6917 100.591 80 101.283 80 102.136C80 102.99 80.6917 103.681 81.545 103.681Z" fill="url(#paint60_linear)"/>
<path opacity="0.6" d="M78.6767 107.351C79.3504 107.351 79.8964 106.805 79.8964 106.131C79.8964 105.458 79.3504 104.912 78.6767 104.912C78.0031 104.912 77.457 105.458 77.457 106.131C77.457 106.805 78.0031 107.351 78.6767 107.351Z" fill="url(#paint61_linear)"/>
<path opacity="0.6" d="M83.9931 107.89C84.3992 107.89 84.7284 107.561 84.7284 107.155C84.7284 106.749 84.3992 106.42 83.9931 106.42C83.587 106.42 83.2578 106.749 83.2578 107.155C83.2578 107.561 83.587 107.89 83.9931 107.89Z" fill="url(#paint62_linear)"/>
</g>
<g opacity="0.6">
<path opacity="0.6" d="M24.1229 92.7168C24.7533 92.7168 25.2644 92.2057 25.2644 91.5753C25.2644 90.9449 24.7533 90.4338 24.1229 90.4338C23.4925 90.4338 22.9814 90.9449 22.9814 91.5753C22.9814 92.2057 23.4925 92.7168 24.1229 92.7168Z" fill="url(#paint63_linear)"/>
<path opacity="0.6" d="M22.074 95.4784C22.5717 95.4784 22.9752 95.0749 22.9752 94.5772C22.9752 94.0795 22.5717 93.676 22.074 93.676C21.5763 93.676 21.1729 94.0795 21.1729 94.5772C21.1729 95.0749 21.5763 95.4784 22.074 95.4784Z" fill="url(#paint64_linear)"/>
<path opacity="0.6" d="M26.0193 95.783C26.3193 95.783 26.5625 95.5398 26.5625 95.2398C26.5625 94.9398 26.3193 94.6965 26.0193 94.6965C25.7193 94.6965 25.4761 94.9398 25.4761 95.2398C25.4761 95.5398 25.7193 95.783 26.0193 95.783Z" fill="url(#paint65_linear)"/>
</g>
</g>
</g>
</g>
<defs>
<linearGradient id="paint0_linear" x1="95.3709" y1="27.7584" x2="114.971" y2="48.5463" gradientUnits="userSpaceOnUse">
<stop stop-color="#464F00"/>
<stop offset="0.2883" stop-color="#454518"/>
<stop offset="0.7468" stop-color="#443738"/>
<stop offset="1" stop-color="#433244"/>
</linearGradient>
<linearGradient id="paint1_linear" x1="99.127" y1="4.94569" x2="109.481" y2="43.6195" gradientUnits="userSpaceOnUse">
<stop stop-color="#F8F6FB"/>
<stop offset="1" stop-color="#EFDCFB"/>
</linearGradient>
<linearGradient id="paint2_linear" x1="104.931" y1="16.7799" x2="107.431" y2="22.3681" gradientUnits="userSpaceOnUse">
<stop stop-color="#FF6359"/>
<stop offset="0.2243" stop-color="#FE5B50"/>
<stop offset="0.5952" stop-color="#FC4637"/>
<stop offset="1" stop-color="#F82814"/>
</linearGradient>
<linearGradient id="paint3_linear" x1="114.177" y1="12.0752" x2="120.5" y2="19.5752" gradientUnits="userSpaceOnUse">
<stop stop-color="#FFA936"/>
<stop offset="0.4112" stop-color="#FF8548"/>
<stop offset="0.7781" stop-color="#FF6C54"/>
<stop offset="1" stop-color="#FF6359"/>
</linearGradient>
<linearGradient id="paint4_linear" x1="98.7856" y1="8.16028" x2="103.639" y2="16.2485" gradientUnits="userSpaceOnUse">
<stop stop-color="#BADA00"/>
<stop offset="0.2269" stop-color="#B0CE00"/>
<stop offset="0.6378" stop-color="#95AE00"/>
<stop offset="1" stop-color="#798C00"/>
</linearGradient>
<linearGradient id="paint5_linear" x1="86.8276" y1="13.2124" x2="93.004" y2="21.1536" gradientUnits="userSpaceOnUse">
<stop stop-color="#FFD945"/>
<stop offset="0.3043" stop-color="#FFCD3E"/>
<stop offset="0.8558" stop-color="#FFAD2B"/>
<stop offset="1" stop-color="#FFA325"/>
</linearGradient>
<linearGradient id="paint6_linear" x1="112.409" y1="20.3502" x2="120.094" y2="17.7002" gradientUnits="userSpaceOnUse">
<stop stop-color="#FFDECF"/>
<stop offset="0.3791" stop-color="#FDC4B0"/>
<stop offset="0.7655" stop-color="#FBAE97"/>
<stop offset="1" stop-color="#FAA68E"/>
</linearGradient>
<linearGradient id="paint7_linear" x1="70.8152" y1="15.4572" x2="63.5698" y2="14.4622" gradientUnits="userSpaceOnUse">
<stop stop-color="#EFDCFB" stop-opacity="0"/>
<stop offset="0.0287" stop-color="#E9D6F7" stop-opacity="0.029"/>
<stop offset="0.2203" stop-color="#C5B5DE" stop-opacity="0.22"/>
<stop offset="0.4138" stop-color="#AA9BCB" stop-opacity="0.414"/>
<stop offset="0.6078" stop-color="#9688BD" stop-opacity="0.608"/>
<stop offset="0.8028" stop-color="#8A7DB5" stop-opacity="0.803"/>
<stop offset="1" stop-color="#8679B2"/>
</linearGradient>
<linearGradient id="paint8_linear" x1="71.5022" y1="20.1657" x2="65.7822" y2="19.3801" gradientUnits="userSpaceOnUse">
<stop stop-color="#EFDCFB" stop-opacity="0"/>
<stop offset="0.0287" stop-color="#E9D6F7" stop-opacity="0.029"/>
<stop offset="0.2203" stop-color="#C5B5DE" stop-opacity="0.22"/>
<stop offset="0.4138" stop-color="#AA9BCB" stop-opacity="0.414"/>
<stop offset="0.6078" stop-color="#9688BD" stop-opacity="0.608"/>
<stop offset="0.8028" stop-color="#8A7DB5" stop-opacity="0.803"/>
<stop offset="1" stop-color="#8679B2"/>
</linearGradient>
<linearGradient id="paint9_linear" x1="75.0011" y1="16.6842" x2="71.5528" y2="16.2105" gradientUnits="userSpaceOnUse">
<stop stop-color="#EFDCFB" stop-opacity="0"/>
<stop offset="0.0287" stop-color="#E9D6F7" stop-opacity="0.029"/>
<stop offset="0.2203" stop-color="#C5B5DE" stop-opacity="0.22"/>
<stop offset="0.4138" stop-color="#AA9BCB" stop-opacity="0.414"/>
<stop offset="0.6078" stop-color="#9688BD" stop-opacity="0.608"/>
<stop offset="0.8028" stop-color="#8A7DB5" stop-opacity="0.803"/>
<stop offset="1" stop-color="#8679B2"/>
</linearGradient>
<linearGradient id="paint10_linear" x1="133.255" y1="22.4682" x2="129.308" y2="16.3082" gradientUnits="userSpaceOnUse">
<stop stop-color="#EFDCFB" stop-opacity="0"/>
<stop offset="0.0287" stop-color="#E9D6F7" stop-opacity="0.029"/>
<stop offset="0.2203" stop-color="#C5B5DE" stop-opacity="0.22"/>
<stop offset="0.4138" stop-color="#AA9BCB" stop-opacity="0.414"/>
<stop offset="0.6078" stop-color="#9688BD" stop-opacity="0.608"/>
<stop offset="0.8028" stop-color="#8A7DB5" stop-opacity="0.803"/>
<stop offset="1" stop-color="#8679B2"/>
</linearGradient>
<linearGradient id="paint11_linear" x1="130.118" y1="26.0484" x2="127.002" y2="21.1856" gradientUnits="userSpaceOnUse">
<stop stop-color="#EFDCFB" stop-opacity="0"/>
<stop offset="0.0287" stop-color="#E9D6F7" stop-opacity="0.029"/>
<stop offset="0.2203" stop-color="#C5B5DE" stop-opacity="0.22"/>
<stop offset="0.4138" stop-color="#AA9BCB" stop-opacity="0.414"/>
<stop offset="0.6078" stop-color="#9688BD" stop-opacity="0.608"/>
<stop offset="0.8028" stop-color="#8A7DB5" stop-opacity="0.803"/>
<stop offset="1" stop-color="#8679B2"/>
</linearGradient>
<linearGradient id="paint12_linear" x1="135.039" y1="26.4506" x2="133.16" y2="23.5188" gradientUnits="userSpaceOnUse">
<stop stop-color="#EFDCFB" stop-opacity="0"/>
<stop offset="0.0287" stop-color="#E9D6F7" stop-opacity="0.029"/>
<stop offset="0.2203" stop-color="#C5B5DE" stop-opacity="0.22"/>
<stop offset="0.4138" stop-color="#AA9BCB" stop-opacity="0.414"/>
<stop offset="0.6078" stop-color="#9688BD" stop-opacity="0.608"/>
<stop offset="0.8028" stop-color="#8A7DB5" stop-opacity="0.803"/>
<stop offset="1" stop-color="#8679B2"/>
</linearGradient>
<linearGradient id="paint13_linear" x1="75.6635" y1="11.3672" x2="72.6382" y2="6.88681" gradientUnits="userSpaceOnUse">
<stop stop-color="#EFDCFB" stop-opacity="0"/>
<stop offset="0.0287" stop-color="#E9D6F7" stop-opacity="0.029"/>
<stop offset="0.2203" stop-color="#C5B5DE" stop-opacity="0.22"/>
<stop offset="0.4138" stop-color="#AA9BCB" stop-opacity="0.414"/>
<stop offset="0.6078" stop-color="#9688BD" stop-opacity="0.608"/>
<stop offset="0.8028" stop-color="#8A7DB5" stop-opacity="0.803"/>
<stop offset="1" stop-color="#8679B2"/>
</linearGradient>
<linearGradient id="paint14_linear" x1="73.4097" y1="14.0674" x2="71.0214" y2="10.5307" gradientUnits="userSpaceOnUse">
<stop stop-color="#EFDCFB" stop-opacity="0"/>
<stop offset="0.0287" stop-color="#E9D6F7" stop-opacity="0.029"/>
<stop offset="0.2203" stop-color="#C5B5DE" stop-opacity="0.22"/>
<stop offset="0.4138" stop-color="#AA9BCB" stop-opacity="0.414"/>
<stop offset="0.6078" stop-color="#9688BD" stop-opacity="0.608"/>
<stop offset="0.8028" stop-color="#8A7DB5" stop-opacity="0.803"/>
<stop offset="1" stop-color="#8679B2"/>
</linearGradient>
<linearGradient id="paint15_linear" x1="77.052" y1="14.2774" x2="75.6122" y2="12.1449" gradientUnits="userSpaceOnUse">
<stop stop-color="#EFDCFB" stop-opacity="0"/>
<stop offset="0.0287" stop-color="#E9D6F7" stop-opacity="0.029"/>
<stop offset="0.2203" stop-color="#C5B5DE" stop-opacity="0.22"/>
<stop offset="0.4138" stop-color="#AA9BCB" stop-opacity="0.414"/>
<stop offset="0.6078" stop-color="#9688BD" stop-opacity="0.608"/>
<stop offset="0.8028" stop-color="#8A7DB5" stop-opacity="0.803"/>
<stop offset="1" stop-color="#8679B2"/>
</linearGradient>
<linearGradient id="paint16_linear" x1="100.603" y1="73.6965" x2="66.0326" y2="39.1259" gradientUnits="userSpaceOnUse">
<stop offset="0.001" stop-color="#433244" stop-opacity="0"/>
<stop offset="0.4841" stop-color="#362637" stop-opacity="0.484"/>
<stop offset="1" stop-color="#2D1E2E"/>
</linearGradient>
<linearGradient id="paint17_linear" x1="35.8524" y1="51.44" x2="55.4527" y2="72.228" gradientUnits="userSpaceOnUse">
<stop stop-color="#464F00"/>
<stop offset="0.2883" stop-color="#454518"/>
<stop offset="0.7468" stop-color="#443738"/>
<stop offset="1" stop-color="#433244"/>
</linearGradient>
<linearGradient id="paint18_linear" x1="39.6094" y1="28.6275" x2="49.9629" y2="67.3016" gradientUnits="userSpaceOnUse">
<stop stop-color="#F8F6FB"/>
<stop offset="1" stop-color="#EFDCFB"/>
</linearGradient>
<linearGradient id="paint19_linear" x1="41.8097" y1="43.1485" x2="43.4274" y2="48.5897" gradientUnits="userSpaceOnUse">
<stop stop-color="#FF6359"/>
<stop offset="0.2243" stop-color="#FE5B50"/>
<stop offset="0.5952" stop-color="#FC4637"/>
<stop offset="1" stop-color="#F82814"/>
</linearGradient>
<linearGradient id="paint20_linear" x1="29.2697" y1="37.4112" x2="33.8285" y2="45.9406" gradientUnits="userSpaceOnUse">
<stop stop-color="#FFA936"/>
<stop offset="0.4112" stop-color="#FF8548"/>
<stop offset="0.7781" stop-color="#FF6C54"/>
<stop offset="1" stop-color="#FF6359"/>
</linearGradient>
<linearGradient id="paint21_linear" x1="45.7238" y1="34.9107" x2="47.9297" y2="39.6166" gradientUnits="userSpaceOnUse">
<stop stop-color="#BADA00"/>
<stop offset="0.2269" stop-color="#B0CE00"/>
<stop offset="0.6378" stop-color="#95AE00"/>
<stop offset="1" stop-color="#798C00"/>
</linearGradient>
<linearGradient id="paint22_linear" x1="55.1998" y1="36.8042" x2="60.1998" y2="46.9513" gradientUnits="userSpaceOnUse">
<stop stop-color="#FFD945"/>
<stop offset="0.3043" stop-color="#FFCD3E"/>
<stop offset="0.8558" stop-color="#FFAD2B"/>
<stop offset="1" stop-color="#FFA325"/>
</linearGradient>
<linearGradient id="paint23_linear" x1="27.6084" y1="41.3497" x2="30.2554" y2="46.2026" gradientUnits="userSpaceOnUse">
<stop stop-color="#FFDECF"/>
<stop offset="0.3791" stop-color="#FDC4B0"/>
<stop offset="0.7655" stop-color="#FBAE97"/>
<stop offset="1" stop-color="#FAA68E"/>
</linearGradient>
<linearGradient id="paint24_linear" x1="11.2831" y1="39.1279" x2="4.03775" y2="38.1328" gradientUnits="userSpaceOnUse">
<stop stop-color="#EFDCFB" stop-opacity="0"/>
<stop offset="0.0287" stop-color="#E9D6F7" stop-opacity="0.029"/>
<stop offset="0.2203" stop-color="#C5B5DE" stop-opacity="0.22"/>
<stop offset="0.4138" stop-color="#AA9BCB" stop-opacity="0.414"/>
<stop offset="0.6078" stop-color="#9688BD" stop-opacity="0.608"/>
<stop offset="0.8028" stop-color="#8A7DB5" stop-opacity="0.803"/>
<stop offset="1" stop-color="#8679B2"/>
</linearGradient>
<linearGradient id="paint25_linear" x1="11.9705" y1="43.8365" x2="6.25054" y2="43.0509" gradientUnits="userSpaceOnUse">
<stop stop-color="#EFDCFB" stop-opacity="0"/>
<stop offset="0.0287" stop-color="#E9D6F7" stop-opacity="0.029"/>
<stop offset="0.2203" stop-color="#C5B5DE" stop-opacity="0.22"/>
<stop offset="0.4138" stop-color="#AA9BCB" stop-opacity="0.414"/>
<stop offset="0.6078" stop-color="#9688BD" stop-opacity="0.608"/>
<stop offset="0.8028" stop-color="#8A7DB5" stop-opacity="0.803"/>
<stop offset="1" stop-color="#8679B2"/>
</linearGradient>
<linearGradient id="paint26_linear" x1="15.4693" y1="40.355" x2="12.0209" y2="39.8814" gradientUnits="userSpaceOnUse">
<stop stop-color="#EFDCFB" stop-opacity="0"/>
<stop offset="0.0287" stop-color="#E9D6F7" stop-opacity="0.029"/>
<stop offset="0.2203" stop-color="#C5B5DE" stop-opacity="0.22"/>
<stop offset="0.4138" stop-color="#AA9BCB" stop-opacity="0.414"/>
<stop offset="0.6078" stop-color="#9688BD" stop-opacity="0.608"/>
<stop offset="0.8028" stop-color="#8A7DB5" stop-opacity="0.803"/>
<stop offset="1" stop-color="#8679B2"/>
</linearGradient>
<linearGradient id="paint27_linear" x1="73.7097" y1="46.169" x2="69.7623" y2="40.009" gradientUnits="userSpaceOnUse">
<stop stop-color="#EFDCFB" stop-opacity="0"/>
<stop offset="0.0287" stop-color="#E9D6F7" stop-opacity="0.029"/>
<stop offset="0.2203" stop-color="#C5B5DE" stop-opacity="0.22"/>
<stop offset="0.4138" stop-color="#AA9BCB" stop-opacity="0.414"/>
<stop offset="0.6078" stop-color="#9688BD" stop-opacity="0.608"/>
<stop offset="0.8028" stop-color="#8A7DB5" stop-opacity="0.803"/>
<stop offset="1" stop-color="#8679B2"/>
</linearGradient>
<linearGradient id="paint28_linear" x1="70.5728" y1="49.7492" x2="67.4567" y2="44.8864" gradientUnits="userSpaceOnUse">
<stop stop-color="#EFDCFB" stop-opacity="0"/>
<stop offset="0.0287" stop-color="#E9D6F7" stop-opacity="0.029"/>
<stop offset="0.2203" stop-color="#C5B5DE" stop-opacity="0.22"/>
<stop offset="0.4138" stop-color="#AA9BCB" stop-opacity="0.414"/>
<stop offset="0.6078" stop-color="#9688BD" stop-opacity="0.608"/>
<stop offset="0.8028" stop-color="#8A7DB5" stop-opacity="0.803"/>
<stop offset="1" stop-color="#8679B2"/>
</linearGradient>
<linearGradient id="paint29_linear" x1="75.4941" y1="50.1515" x2="73.6152" y2="47.2197" gradientUnits="userSpaceOnUse">
<stop stop-color="#EFDCFB" stop-opacity="0"/>
<stop offset="0.0287" stop-color="#E9D6F7" stop-opacity="0.029"/>
<stop offset="0.2203" stop-color="#C5B5DE" stop-opacity="0.22"/>
<stop offset="0.4138" stop-color="#AA9BCB" stop-opacity="0.414"/>
<stop offset="0.6078" stop-color="#9688BD" stop-opacity="0.608"/>
<stop offset="0.8028" stop-color="#8A7DB5" stop-opacity="0.803"/>
<stop offset="1" stop-color="#8679B2"/>
</linearGradient>
<linearGradient id="paint30_linear" x1="16.1242" y1="35.0787" x2="13.0989" y2="30.5984" gradientUnits="userSpaceOnUse">
<stop stop-color="#EFDCFB" stop-opacity="0"/>
<stop offset="0.0287" stop-color="#E9D6F7" stop-opacity="0.029"/>
<stop offset="0.2203" stop-color="#C5B5DE" stop-opacity="0.22"/>
<stop offset="0.4138" stop-color="#AA9BCB" stop-opacity="0.414"/>
<stop offset="0.6078" stop-color="#9688BD" stop-opacity="0.608"/>
<stop offset="0.8028" stop-color="#8A7DB5" stop-opacity="0.803"/>
<stop offset="1" stop-color="#8679B2"/>
</linearGradient>
<linearGradient id="paint31_linear" x1="13.8704" y1="37.779" x2="11.4821" y2="34.2422" gradientUnits="userSpaceOnUse">
<stop stop-color="#EFDCFB" stop-opacity="0"/>
<stop offset="0.0287" stop-color="#E9D6F7" stop-opacity="0.029"/>
<stop offset="0.2203" stop-color="#C5B5DE" stop-opacity="0.22"/>
<stop offset="0.4138" stop-color="#AA9BCB" stop-opacity="0.414"/>
<stop offset="0.6078" stop-color="#9688BD" stop-opacity="0.608"/>
<stop offset="0.8028" stop-color="#8A7DB5" stop-opacity="0.803"/>
<stop offset="1" stop-color="#8679B2"/>
</linearGradient>
<linearGradient id="paint32_linear" x1="17.5127" y1="37.989" x2="16.0729" y2="35.8565" gradientUnits="userSpaceOnUse">
<stop stop-color="#EFDCFB" stop-opacity="0"/>
<stop offset="0.0287" stop-color="#E9D6F7" stop-opacity="0.029"/>
<stop offset="0.2203" stop-color="#C5B5DE" stop-opacity="0.22"/>
<stop offset="0.4138" stop-color="#AA9BCB" stop-opacity="0.414"/>
<stop offset="0.6078" stop-color="#9688BD" stop-opacity="0.608"/>
<stop offset="0.8028" stop-color="#8A7DB5" stop-opacity="0.803"/>
<stop offset="1" stop-color="#8679B2"/>
</linearGradient>
<linearGradient id="paint33_linear" x1="100.737" y1="75.1222" x2="120.337" y2="95.9101" gradientUnits="userSpaceOnUse">
<stop stop-color="#464F00"/>
<stop offset="0.2883" stop-color="#454518"/>
<stop offset="0.7468" stop-color="#443738"/>
<stop offset="1" stop-color="#433244"/>
</linearGradient>
<linearGradient id="paint34_linear" x1="104.494" y1="52.3092" x2="114.847" y2="90.9833" gradientUnits="userSpaceOnUse">
<stop stop-color="#F8F6FB"/>
<stop offset="1" stop-color="#EFDCFB"/>
</linearGradient>
<linearGradient id="paint35_linear" x1="106.968" y1="57.4617" x2="106.511" y2="62.64" gradientUnits="userSpaceOnUse">
<stop stop-color="#FF6359"/>
<stop offset="0.2243" stop-color="#FE5B50"/>
<stop offset="0.5952" stop-color="#FC4637"/>
<stop offset="1" stop-color="#F82814"/>
</linearGradient>
<linearGradient id="paint36_linear" x1="92.1405" y1="61.2954" x2="96.111" y2="70.413" gradientUnits="userSpaceOnUse">
<stop stop-color="#FFA936"/>
<stop offset="0.4112" stop-color="#FF8548"/>
<stop offset="0.7781" stop-color="#FF6C54"/>
<stop offset="1" stop-color="#FF6359"/>
</linearGradient>
<linearGradient id="paint37_linear" x1="108.582" y1="64.0812" x2="111.67" y2="73.493" gradientUnits="userSpaceOnUse">
<stop stop-color="#BADA00"/>
<stop offset="0.2269" stop-color="#B0CE00"/>
<stop offset="0.6378" stop-color="#95AE00"/>
<stop offset="1" stop-color="#798C00"/>
</linearGradient>
<linearGradient id="paint38_linear" x1="120.831" y1="62.7037" x2="127.154" y2="71.8213" gradientUnits="userSpaceOnUse">
<stop stop-color="#FFD945"/>
<stop offset="0.3043" stop-color="#FFCD3E"/>
<stop offset="0.8558" stop-color="#FFAD2B"/>
<stop offset="1" stop-color="#FFA325"/>
</linearGradient>
<linearGradient id="paint39_linear" x1="117.775" y1="59.3786" x2="125.461" y2="62.0289" gradientUnits="userSpaceOnUse">
<stop stop-color="#FFDECF"/>
<stop offset="0.3791" stop-color="#FDC4B0"/>
<stop offset="0.7655" stop-color="#FBAE97"/>
<stop offset="1" stop-color="#FAA68E"/>
</linearGradient>
<linearGradient id="paint40_linear" x1="76.1707" y1="62.8286" x2="68.9252" y2="61.8337" gradientUnits="userSpaceOnUse">
<stop stop-color="#EFDCFB" stop-opacity="0"/>
<stop offset="0.0287" stop-color="#E9D6F7" stop-opacity="0.029"/>
<stop offset="0.2203" stop-color="#C5B5DE" stop-opacity="0.22"/>
<stop offset="0.4138" stop-color="#AA9BCB" stop-opacity="0.414"/>
<stop offset="0.6078" stop-color="#9688BD" stop-opacity="0.608"/>
<stop offset="0.8028" stop-color="#8A7DB5" stop-opacity="0.803"/>
<stop offset="1" stop-color="#8679B2"/>
</linearGradient>
<linearGradient id="paint41_linear" x1="76.858" y1="67.5371" x2="71.1382" y2="66.7516" gradientUnits="userSpaceOnUse">
<stop stop-color="#EFDCFB" stop-opacity="0"/>
<stop offset="0.0287" stop-color="#E9D6F7" stop-opacity="0.029"/>
<stop offset="0.2203" stop-color="#C5B5DE" stop-opacity="0.22"/>
<stop offset="0.4138" stop-color="#AA9BCB" stop-opacity="0.414"/>
<stop offset="0.6078" stop-color="#9688BD" stop-opacity="0.608"/>
<stop offset="0.8028" stop-color="#8A7DB5" stop-opacity="0.803"/>
<stop offset="1" stop-color="#8679B2"/>
</linearGradient>
<linearGradient id="paint42_linear" x1="80.3569" y1="64.0558" x2="76.9084" y2="63.5823" gradientUnits="userSpaceOnUse">
<stop stop-color="#EFDCFB" stop-opacity="0"/>
<stop offset="0.0287" stop-color="#E9D6F7" stop-opacity="0.029"/>
<stop offset="0.2203" stop-color="#C5B5DE" stop-opacity="0.22"/>
<stop offset="0.4138" stop-color="#AA9BCB" stop-opacity="0.414"/>
<stop offset="0.6078" stop-color="#9688BD" stop-opacity="0.608"/>
<stop offset="0.8028" stop-color="#8A7DB5" stop-opacity="0.803"/>
<stop offset="1" stop-color="#8679B2"/>
</linearGradient>
<linearGradient id="paint43_linear" x1="138.63" y1="69.8558" x2="134.683" y2="63.6958" gradientUnits="userSpaceOnUse">
<stop stop-color="#EFDCFB" stop-opacity="0"/>
<stop offset="0.0287" stop-color="#E9D6F7" stop-opacity="0.029"/>
<stop offset="0.2203" stop-color="#C5B5DE" stop-opacity="0.22"/>
<stop offset="0.4138" stop-color="#AA9BCB" stop-opacity="0.414"/>
<stop offset="0.6078" stop-color="#9688BD" stop-opacity="0.608"/>
<stop offset="0.8028" stop-color="#8A7DB5" stop-opacity="0.803"/>
<stop offset="1" stop-color="#8679B2"/>
</linearGradient>
<linearGradient id="paint44_linear" x1="135.493" y1="73.436" x2="132.377" y2="68.5729" gradientUnits="userSpaceOnUse">
<stop stop-color="#EFDCFB" stop-opacity="0"/>
<stop offset="0.0287" stop-color="#E9D6F7" stop-opacity="0.029"/>
<stop offset="0.2203" stop-color="#C5B5DE" stop-opacity="0.22"/>
<stop offset="0.4138" stop-color="#AA9BCB" stop-opacity="0.414"/>
<stop offset="0.6078" stop-color="#9688BD" stop-opacity="0.608"/>
<stop offset="0.8028" stop-color="#8A7DB5" stop-opacity="0.803"/>
<stop offset="1" stop-color="#8679B2"/>
</linearGradient>
<linearGradient id="paint45_linear" x1="140.414" y1="73.8379" x2="138.535" y2="70.9062" gradientUnits="userSpaceOnUse">
<stop stop-color="#EFDCFB" stop-opacity="0"/>
<stop offset="0.0287" stop-color="#E9D6F7" stop-opacity="0.029"/>
<stop offset="0.2203" stop-color="#C5B5DE" stop-opacity="0.22"/>
<stop offset="0.4138" stop-color="#AA9BCB" stop-opacity="0.414"/>
<stop offset="0.6078" stop-color="#9688BD" stop-opacity="0.608"/>
<stop offset="0.8028" stop-color="#8A7DB5" stop-opacity="0.803"/>
<stop offset="1" stop-color="#8679B2"/>
</linearGradient>
<linearGradient id="paint46_linear" x1="81.0468" y1="58.752" x2="78.0218" y2="54.2716" gradientUnits="userSpaceOnUse">
<stop stop-color="#EFDCFB" stop-opacity="0"/>
<stop offset="0.0287" stop-color="#E9D6F7" stop-opacity="0.029"/>
<stop offset="0.2203" stop-color="#C5B5DE" stop-opacity="0.22"/>
<stop offset="0.4138" stop-color="#AA9BCB" stop-opacity="0.414"/>
<stop offset="0.6078" stop-color="#9688BD" stop-opacity="0.608"/>
<stop offset="0.8028" stop-color="#8A7DB5" stop-opacity="0.803"/>
<stop offset="1" stop-color="#8679B2"/>
</linearGradient>
<linearGradient id="paint47_linear" x1="78.7933" y1="61.4526" x2="76.4049" y2="57.9155" gradientUnits="userSpaceOnUse">
<stop stop-color="#EFDCFB" stop-opacity="0"/>
<stop offset="0.0287" stop-color="#E9D6F7" stop-opacity="0.029"/>
<stop offset="0.2203" stop-color="#C5B5DE" stop-opacity="0.22"/>
<stop offset="0.4138" stop-color="#AA9BCB" stop-opacity="0.414"/>
<stop offset="0.6078" stop-color="#9688BD" stop-opacity="0.608"/>
<stop offset="0.8028" stop-color="#8A7DB5" stop-opacity="0.803"/>
<stop offset="1" stop-color="#8679B2"/>
</linearGradient>
<linearGradient id="paint48_linear" x1="82.4355" y1="61.6623" x2="80.9955" y2="59.5298" gradientUnits="userSpaceOnUse">
<stop stop-color="#EFDCFB" stop-opacity="0"/>
<stop offset="0.0287" stop-color="#E9D6F7" stop-opacity="0.029"/>
<stop offset="0.2203" stop-color="#C5B5DE" stop-opacity="0.22"/>
<stop offset="0.4138" stop-color="#AA9BCB" stop-opacity="0.414"/>
<stop offset="0.6078" stop-color="#9688BD" stop-opacity="0.608"/>
<stop offset="0.8028" stop-color="#8A7DB5" stop-opacity="0.803"/>
<stop offset="1" stop-color="#8679B2"/>
</linearGradient>
<linearGradient id="paint49_linear" x1="113.806" y1="132.602" x2="83.2587" y2="102.055" gradientUnits="userSpaceOnUse">
<stop offset="0.001" stop-color="#433244" stop-opacity="0"/>
<stop offset="0.4841" stop-color="#362637" stop-opacity="0.484"/>
<stop offset="1" stop-color="#2D1E2E"/>
</linearGradient>
<linearGradient id="paint50_linear" x1="44.6749" y1="109.675" x2="64.2749" y2="130.463" gradientUnits="userSpaceOnUse">
<stop stop-color="#464F00"/>
<stop offset="0.2883" stop-color="#454518"/>
<stop offset="0.7468" stop-color="#443738"/>
<stop offset="1" stop-color="#433244"/>
</linearGradient>
<linearGradient id="paint51_linear" x1="48.4317" y1="86.8624" x2="58.7852" y2="125.536" gradientUnits="userSpaceOnUse">
<stop stop-color="#F8F6FB"/>
<stop offset="1" stop-color="#EFDCFB"/>
</linearGradient>
<linearGradient id="paint52_linear" x1="52.787" y1="92.011" x2="53.242" y2="97.1666" gradientUnits="userSpaceOnUse">
<stop stop-color="#FF6359"/>
<stop offset="0.2243" stop-color="#FE5B50"/>
<stop offset="0.5952" stop-color="#FC4637"/>
<stop offset="1" stop-color="#F82814"/>
</linearGradient>
<linearGradient id="paint53_linear" x1="64.9172" y1="96.7598" x2="66.592" y2="104.22" gradientUnits="userSpaceOnUse">
<stop stop-color="#FFA936"/>
<stop offset="0.4112" stop-color="#FF8548"/>
<stop offset="0.7781" stop-color="#FF6C54"/>
<stop offset="1" stop-color="#FF6359"/>
</linearGradient>
<linearGradient id="paint54_linear" x1="47.4414" y1="99.7939" x2="52.6182" y2="109.691" gradientUnits="userSpaceOnUse">
<stop stop-color="#BADA00"/>
<stop offset="0.2269" stop-color="#B0CE00"/>
<stop offset="0.6378" stop-color="#95AE00"/>
<stop offset="1" stop-color="#798C00"/>
</linearGradient>
<linearGradient id="paint55_linear" x1="38.1237" y1="97.8137" x2="43.182" y2="105.857" gradientUnits="userSpaceOnUse">
<stop stop-color="#FFD945"/>
<stop offset="0.3043" stop-color="#FFCD3E"/>
<stop offset="0.8558" stop-color="#FFAD2B"/>
<stop offset="1" stop-color="#FFA325"/>
</linearGradient>
<linearGradient id="paint56_linear" x1="61.7135" y1="93.9316" x2="69.3991" y2="96.5819" gradientUnits="userSpaceOnUse">
<stop stop-color="#FFDECF"/>
<stop offset="0.3791" stop-color="#FDC4B0"/>
<stop offset="0.7655" stop-color="#FBAE97"/>
<stop offset="1" stop-color="#FAA68E"/>
</linearGradient>
<linearGradient id="paint57_linear" x1="20.0926" y1="97.3728" x2="12.847" y2="96.378" gradientUnits="userSpaceOnUse">
<stop stop-color="#EFDCFB" stop-opacity="0"/>
<stop offset="0.0287" stop-color="#E9D6F7" stop-opacity="0.029"/>
<stop offset="0.2203" stop-color="#C5B5DE" stop-opacity="0.22"/>
<stop offset="0.4138" stop-color="#AA9BCB" stop-opacity="0.414"/>
<stop offset="0.6078" stop-color="#9688BD" stop-opacity="0.608"/>
<stop offset="0.8028" stop-color="#8A7DB5" stop-opacity="0.803"/>
<stop offset="1" stop-color="#8679B2"/>
</linearGradient>
<linearGradient id="paint58_linear" x1="20.7798" y1="102.081" x2="15.06" y2="101.296" gradientUnits="userSpaceOnUse">
<stop stop-color="#EFDCFB" stop-opacity="0"/>
<stop offset="0.0287" stop-color="#E9D6F7" stop-opacity="0.029"/>
<stop offset="0.2203" stop-color="#C5B5DE" stop-opacity="0.22"/>
<stop offset="0.4138" stop-color="#AA9BCB" stop-opacity="0.414"/>
<stop offset="0.6078" stop-color="#9688BD" stop-opacity="0.608"/>
<stop offset="0.8028" stop-color="#8A7DB5" stop-opacity="0.803"/>
<stop offset="1" stop-color="#8679B2"/>
</linearGradient>
<linearGradient id="paint59_linear" x1="24.2788" y1="98.6" x2="20.8302" y2="98.1261" gradientUnits="userSpaceOnUse">
<stop stop-color="#EFDCFB" stop-opacity="0"/>
<stop offset="0.0287" stop-color="#E9D6F7" stop-opacity="0.029"/>
<stop offset="0.2203" stop-color="#C5B5DE" stop-opacity="0.22"/>
<stop offset="0.4138" stop-color="#AA9BCB" stop-opacity="0.414"/>
<stop offset="0.6078" stop-color="#9688BD" stop-opacity="0.608"/>
<stop offset="0.8028" stop-color="#8A7DB5" stop-opacity="0.803"/>
<stop offset="1" stop-color="#8679B2"/>
</linearGradient>
<linearGradient id="paint60_linear" x1="82.5428" y1="104.433" x2="78.5953" y2="98.2728" gradientUnits="userSpaceOnUse">
<stop stop-color="#EFDCFB" stop-opacity="0"/>
<stop offset="0.0287" stop-color="#E9D6F7" stop-opacity="0.029"/>
<stop offset="0.2203" stop-color="#C5B5DE" stop-opacity="0.22"/>
<stop offset="0.4138" stop-color="#AA9BCB" stop-opacity="0.414"/>
<stop offset="0.6078" stop-color="#9688BD" stop-opacity="0.608"/>
<stop offset="0.8028" stop-color="#8A7DB5" stop-opacity="0.803"/>
<stop offset="1" stop-color="#8679B2"/>
</linearGradient>
<linearGradient id="paint61_linear" x1="79.4062" y1="108.013" x2="76.2897" y2="103.15" gradientUnits="userSpaceOnUse">
<stop stop-color="#EFDCFB" stop-opacity="0"/>
<stop offset="0.0287" stop-color="#E9D6F7" stop-opacity="0.029"/>
<stop offset="0.2203" stop-color="#C5B5DE" stop-opacity="0.22"/>
<stop offset="0.4138" stop-color="#AA9BCB" stop-opacity="0.414"/>
<stop offset="0.6078" stop-color="#9688BD" stop-opacity="0.608"/>
<stop offset="0.8028" stop-color="#8A7DB5" stop-opacity="0.803"/>
<stop offset="1" stop-color="#8679B2"/>
</linearGradient>
<linearGradient id="paint62_linear" x1="84.3275" y1="108.415" x2="82.4486" y2="105.483" gradientUnits="userSpaceOnUse">
<stop stop-color="#EFDCFB" stop-opacity="0"/>
<stop offset="0.0287" stop-color="#E9D6F7" stop-opacity="0.029"/>
<stop offset="0.2203" stop-color="#C5B5DE" stop-opacity="0.22"/>
<stop offset="0.4138" stop-color="#AA9BCB" stop-opacity="0.414"/>
<stop offset="0.6078" stop-color="#9688BD" stop-opacity="0.608"/>
<stop offset="0.8028" stop-color="#8A7DB5" stop-opacity="0.803"/>
<stop offset="1" stop-color="#8679B2"/>
</linearGradient>
<linearGradient id="paint63_linear" x1="24.9686" y1="93.3388" x2="21.9433" y2="88.8584" gradientUnits="userSpaceOnUse">
<stop stop-color="#EFDCFB" stop-opacity="0"/>
<stop offset="0.0287" stop-color="#E9D6F7" stop-opacity="0.029"/>
<stop offset="0.2203" stop-color="#C5B5DE" stop-opacity="0.22"/>
<stop offset="0.4138" stop-color="#AA9BCB" stop-opacity="0.414"/>
<stop offset="0.6078" stop-color="#9688BD" stop-opacity="0.608"/>
<stop offset="0.8028" stop-color="#8A7DB5" stop-opacity="0.803"/>
<stop offset="1" stop-color="#8679B2"/>
</linearGradient>
<linearGradient id="paint64_linear" x1="22.7148" y1="96.0391" x2="20.3264" y2="92.5023" gradientUnits="userSpaceOnUse">
<stop stop-color="#EFDCFB" stop-opacity="0"/>
<stop offset="0.0287" stop-color="#E9D6F7" stop-opacity="0.029"/>
<stop offset="0.2203" stop-color="#C5B5DE" stop-opacity="0.22"/>
<stop offset="0.4138" stop-color="#AA9BCB" stop-opacity="0.414"/>
<stop offset="0.6078" stop-color="#9688BD" stop-opacity="0.608"/>
<stop offset="0.8028" stop-color="#8A7DB5" stop-opacity="0.803"/>
<stop offset="1" stop-color="#8679B2"/>
</linearGradient>
<linearGradient id="paint65_linear" x1="26.3571" y1="96.249" x2="24.9173" y2="94.1165" gradientUnits="userSpaceOnUse">
<stop stop-color="#EFDCFB" stop-opacity="0"/>
<stop offset="0.0287" stop-color="#E9D6F7" stop-opacity="0.029"/>
<stop offset="0.2203" stop-color="#C5B5DE" stop-opacity="0.22"/>
<stop offset="0.4138" stop-color="#AA9BCB" stop-opacity="0.414"/>
<stop offset="0.6078" stop-color="#9688BD" stop-opacity="0.608"/>
<stop offset="0.8028" stop-color="#8A7DB5" stop-opacity="0.803"/>
<stop offset="1" stop-color="#8679B2"/>
</linearGradient>
<clipPath id="clip0">
<rect width="150" height="150" fill="white" transform="translate(0.474121)"/>
</clipPath>
</defs>
</svg>
