<svg width="151" height="150" viewBox="0 0 151 150" fill="none" xmlns="http://www.w3.org/2000/svg">
<g clip-path="url(#clip0)">
<path d="M96.2906 39.6838C100.558 39.6838 104.017 36.2247 104.017 31.9576C104.017 27.6906 100.558 24.2314 96.2906 24.2314C92.0236 24.2314 88.5645 27.6906 88.5645 31.9576C88.5645 36.2247 92.0236 39.6838 96.2906 39.6838Z" fill="url(#paint0_linear)"/>
<path d="M38.6108 100.087L40.2946 100.915C42.4858 101.992 45.049 102.009 47.2543 100.96C48.4469 100.393 49.8228 100.353 51.0464 100.85L52.5581 101.463C54.4778 102.242 56.6814 101.675 57.9864 100.065C58.5922 99.3181 59.5466 98.9448 60.4987 99.0828L64.3599 99.6422C66.1246 99.8978 67.8772 99.1075 68.854 97.6157C69.8458 96.1007 71.6364 95.3113 73.4237 95.6007C76.0072 96.0189 78.5369 94.596 79.5208 92.1707L80.1502 90.6192C80.4846 89.7945 81.2002 89.1848 82.0672 88.9851L83.4396 88.6689C86.5105 87.9613 88.9043 85.5566 89.5984 82.4825C89.8025 81.5784 90.4514 80.8395 91.3214 80.5204C94.0764 79.5098 95.9667 76.9578 96.1308 74.0281L96.1511 73.6648C96.1896 72.9775 96.4864 72.3298 96.9819 71.8519L98.0034 70.8669C100.363 68.591 101.69 65.4495 101.676 62.171C101.673 61.3287 102.058 60.5319 102.72 60.0116C104.428 58.6707 105.12 56.4084 104.454 54.3416L104.216 53.6019C103.958 52.8019 104.083 51.9278 104.555 51.2322C106.312 48.6413 106.599 45.3245 105.312 42.4707L104.968 41.7066C104.663 41.0325 104.646 40.2637 104.919 39.5766C105.719 37.5622 104.865 35.2692 102.942 34.2692L101.074 33.2978C100.408 32.9519 99.9146 32.3475 99.7084 31.6263C99.0867 29.4531 96.7122 28.3048 94.6228 29.1666L94.134 29.3684C93.4052 29.669 92.5819 29.6398 91.8761 29.2884L89.8358 28.2728C88.1125 27.4151 86.0322 28.3157 85.4784 30.159C85.1799 31.1528 84.3437 31.8913 83.3208 32.0651L82.9987 32.1198C80.7543 32.5013 79.1987 34.5695 79.4546 36.8316C79.5799 37.9392 79.0193 39.0119 78.0384 39.5416C76.5055 40.3689 75.9858 42.316 76.9022 43.7975L77.1972 44.2745C77.9255 45.4516 77.6581 46.9872 76.5746 47.8487C74.7731 49.281 73.8125 51.5228 74.0178 53.8151L74.0181 53.8169C74.1387 55.1628 73.2569 56.3942 71.944 56.7137C69.5302 57.301 67.6078 59.1216 66.8902 61.4998L66.8114 61.761C66.4581 62.9319 65.3693 63.7251 64.1467 63.7025L62.8052 63.6775C60.8578 63.6413 58.9964 64.4772 57.7293 65.9563C56.9655 66.8481 55.7169 67.1516 54.629 66.7101L53.9034 66.4157C51.3075 65.3625 48.4366 65.196 45.7364 65.9422C44.5564 66.2684 43.3037 65.7692 42.6714 64.721L42.2011 63.9416C41.1187 62.1481 39.0025 61.2575 36.9634 61.7378C35.8969 61.9889 34.7834 61.5781 34.1355 60.6945L33.0467 59.2095C31.8217 57.5389 29.5434 57.0437 27.7355 58.0554C27.0119 58.4601 26.1437 58.5145 25.3755 58.2028L22.0084 56.8366C20.5969 56.2639 18.9899 56.9569 18.4372 58.376C18.0525 59.3642 17.1299 60.0404 16.0716 60.1098L14.2443 60.2298C11.7502 60.3937 9.84753 62.5254 9.96694 65.0219C10.0105 65.9295 9.59959 66.7992 8.87106 67.3419L6.58253 69.0475C5.12165 70.1363 4.86636 72.2248 6.02224 73.6334C6.76577 74.5392 6.84841 75.8186 6.22724 76.8125C5.07753 78.6525 5.55665 81.0695 7.32136 82.3319L7.65989 82.5739C8.47371 83.1563 8.904 84.1372 8.78106 85.1301C8.5193 87.2436 9.954 89.1936 12.0496 89.5731L13.4746 89.831C14.2349 89.9686 14.9011 90.4216 15.3084 91.0781L16.409 92.8516C17.5643 94.7134 19.6605 95.7766 21.8449 95.6089C23.4619 95.4848 25.0581 96.0354 26.2549 97.1301L26.7155 97.5513C28.8667 99.5187 31.8493 100.299 34.6884 99.6372C36.0084 99.3301 37.3943 99.4886 38.6108 100.087Z" fill="url(#paint1_linear)"/>
<path d="M98.0039 70.8664C100.364 68.5905 101.691 65.449 101.677 62.1705C101.673 61.3282 102.059 60.5314 102.721 60.0111C104.429 58.6702 105.12 56.4079 104.455 54.3411L104.217 53.6014C103.959 52.8014 104.084 51.9273 104.556 51.2317C106.313 48.6408 106.599 45.324 105.312 42.4702L104.968 41.7061C104.664 41.032 104.647 40.2632 104.92 39.5761C105.719 37.5617 104.865 35.2687 102.942 34.2687L101.074 33.2973C100.899 33.2061 100.737 33.0961 100.587 32.9717C100.699 34.9196 100.181 36.8832 99.0525 38.5473C98.5807 39.2429 98.4557 40.117 98.7133 40.917L98.9516 41.6567C99.6172 43.7232 98.9254 45.9858 97.2178 47.3267C96.5554 47.847 96.1698 48.6437 96.1736 49.4861C96.1877 52.7646 94.8607 55.9061 92.5007 58.182L91.4792 59.167C90.9836 59.6449 90.6869 60.2923 90.6483 60.9799L90.628 61.3432C90.4639 64.2732 88.5736 66.8249 85.8186 67.8355C84.9486 68.1546 84.2998 68.8935 84.0957 69.7976C83.4016 72.8717 81.0077 75.2761 77.9369 75.984L76.5645 76.3002C75.6975 76.4999 74.9822 77.1099 74.6475 77.9343L74.018 79.4858C73.0342 81.9111 70.5045 83.334 67.921 82.9158C66.1336 82.6264 64.3433 83.4158 63.3513 84.9305C62.3745 86.4223 60.6219 87.2126 58.8572 86.957L54.996 86.3976C54.0439 86.2596 53.0895 86.6329 52.4836 87.3802C51.1789 88.9896 48.9754 89.557 47.0554 88.7779L45.5436 88.1646C44.3201 87.6682 42.9442 87.7085 41.7516 88.2752C39.5466 89.3235 36.983 89.3067 34.7919 88.2293L33.108 87.4014C31.8916 86.8035 30.506 86.6449 29.186 86.9526C26.3469 87.6146 23.3642 86.834 21.213 84.8667L20.7524 84.4455C19.5557 83.3511 17.9595 82.8005 16.3424 82.9243C14.1577 83.092 12.0619 82.0285 10.9066 80.167L9.80597 78.3934C9.39862 77.737 8.73244 77.2837 7.97215 77.1464L6.54715 76.8885C6.43833 76.8688 6.33244 76.8423 6.22715 76.8143C5.0795 78.654 5.55862 81.0693 7.32244 82.3314L7.66068 82.5735C8.4745 83.1558 8.9048 84.1367 8.78186 85.1296C8.52009 87.2432 9.9548 89.1932 12.0504 89.5726L13.4754 89.8305C14.2357 89.9682 14.9019 90.4214 15.3092 91.0776L16.4098 92.8511C17.5651 94.7129 19.6613 95.7761 21.8457 95.6085C23.4627 95.4843 25.0589 96.0349 26.2557 97.1296L26.7163 97.5508C28.8674 99.5182 31.8501 100.298 34.6892 99.6367C36.0092 99.329 37.3951 99.4876 38.6113 100.086L40.2951 100.913C42.4863 101.991 45.0495 102.008 47.2548 100.959C48.4475 100.392 49.8233 100.352 51.0469 100.849L52.5586 101.462C54.4783 102.241 56.6819 101.673 57.9869 100.064C58.5927 99.317 59.5472 98.9438 60.4992 99.0817L64.3604 99.6411C66.1251 99.8967 67.8777 99.1064 68.8545 97.6146C69.8463 96.0996 71.6369 95.3102 73.4242 95.5999C76.0078 96.0182 78.5375 94.5952 79.5213 92.1699L80.1507 90.6185C80.4851 89.7937 81.2007 89.184 82.0677 88.9843L83.4404 88.6679C86.5113 87.9602 88.9051 85.5555 89.5992 82.4814C89.8033 81.5773 90.4522 80.8385 91.3222 80.5193C94.0772 79.5088 95.9675 76.9567 96.1316 74.027L96.1519 73.6637C96.1904 72.9764 96.4872 72.3287 96.9827 71.8508L98.0039 70.8664Z" fill="url(#paint2_linear)"/>
<g opacity="0.6">
<g opacity="0.6">
<path opacity="0.6" d="M26.6999 68.234C27.9416 68.234 28.9481 67.2275 28.9481 65.9858C28.9481 64.7441 27.9416 63.7375 26.6999 63.7375C25.4582 63.7375 24.4517 64.7441 24.4517 65.9858C24.4517 67.2275 25.4582 68.234 26.6999 68.234Z" fill="url(#paint3_linear)"/>
<path opacity="0.6" d="M20.6466 71.5788C21.6269 71.5788 22.4216 70.7841 22.4216 69.8038C22.4216 68.8235 21.6269 68.0288 20.6466 68.0288C19.6663 68.0288 18.8716 68.8235 18.8716 69.8038C18.8716 70.7841 19.6663 71.5788 20.6466 71.5788Z" fill="url(#paint4_linear)"/>
<path opacity="0.6" d="M27.2555 75.1622C27.8465 75.1622 28.3255 74.6832 28.3255 74.0922C28.3255 73.5013 27.8465 73.0222 27.2555 73.0222C26.6646 73.0222 26.1855 73.5013 26.1855 74.0922C26.1855 74.6832 26.6646 75.1622 27.2555 75.1622Z" fill="url(#paint5_linear)"/>
</g>
<g opacity="0.6">
<path opacity="0.6" d="M37.0791 73.6861C37.9966 73.6861 38.7403 72.9424 38.7403 72.025C38.7403 71.1075 37.9966 70.3638 37.0791 70.3638C36.1617 70.3638 35.418 71.1075 35.418 72.025C35.418 72.9424 36.1617 73.6861 37.0791 73.6861Z" fill="url(#paint6_linear)"/>
<path opacity="0.6" d="M31.9941 71.8834C32.7184 71.8834 33.3056 71.2963 33.3056 70.572C33.3056 69.8477 32.7184 69.2605 31.9941 69.2605C31.2698 69.2605 30.6826 69.8477 30.6826 70.572C30.6826 71.2963 31.2698 71.8834 31.9941 71.8834Z" fill="url(#paint7_linear)"/>
<path opacity="0.6" d="M32.8882 77.1154C33.3249 77.1154 33.6788 76.7614 33.6788 76.3248C33.6788 75.8881 33.3249 75.5342 32.8882 75.5342C32.4516 75.5342 32.0977 75.8881 32.0977 76.3248C32.0977 76.7614 32.4516 77.1154 32.8882 77.1154Z" fill="url(#paint8_linear)"/>
</g>
<g opacity="0.6">
<path opacity="0.6" d="M98.0314 52.145C99.1514 52.145 100.059 51.2371 100.059 50.1171C100.059 48.9971 99.1514 48.0891 98.0314 48.0891C96.9114 48.0891 96.0034 48.9971 96.0034 50.1171C96.0034 51.2371 96.9114 52.145 98.0314 52.145Z" fill="url(#paint9_linear)"/>
<path opacity="0.6" d="M91.8238 49.9443C92.7081 49.9443 93.425 49.2274 93.425 48.3431C93.425 47.4588 92.7081 46.7419 91.8238 46.7419C90.9395 46.7419 90.2227 47.4588 90.2227 48.3431C90.2227 49.2274 90.9395 49.9443 91.8238 49.9443Z" fill="url(#paint10_linear)"/>
<path opacity="0.6" d="M92.915 56.331C93.4481 56.331 93.8803 55.8988 93.8803 55.3657C93.8803 54.8326 93.4481 54.4004 92.915 54.4004C92.3819 54.4004 91.9497 54.8326 91.9497 55.3657C91.9497 55.8988 92.3819 56.331 92.915 56.331Z" fill="url(#paint11_linear)"/>
</g>
</g>
<path d="M89.1974 7.21617C90.2213 2.42264 94.4342 -0.740886 98.6077 0.15029C102.781 1.04147 105.335 5.65 104.311 10.4438C103.287 15.2373 99.0742 18.4009 94.9007 17.5097C90.7272 16.6185 88.1739 12.0097 89.1974 7.21617Z" fill="url(#paint12_linear)"/>
<path d="M89.1972 7.21626C91.9064 13.1336 97.0799 13.2898 101.763 7.59567C107.294 0.87008 111.596 -0.0325674 114.273 0.539197C122.578 2.31273 109.228 29.7066 99.5317 27.636C89.8352 25.5654 87.1431 16.836 89.1972 7.21626Z" fill="url(#paint13_linear)"/>
<path d="M104.122 64.9094C108.389 64.9094 111.848 61.4503 111.848 57.1832C111.848 52.9162 108.389 49.457 104.122 49.457C99.8551 49.457 96.396 52.9162 96.396 57.1832C96.396 61.4503 99.8551 64.9094 104.122 64.9094Z" fill="url(#paint14_linear)"/>
<path d="M53.5164 130.72L55.2744 131.376C57.562 132.229 60.1141 131.991 62.2038 130.728C63.3341 130.045 64.6991 129.868 65.9661 130.24L67.5314 130.7C69.5194 131.284 71.6552 130.499 72.7932 128.768C73.3217 127.964 74.2341 127.498 75.1952 127.54L79.0929 127.712C80.8741 127.79 82.5393 126.829 83.3626 125.248C84.1985 123.642 85.9014 122.678 87.7088 122.788C90.3211 122.947 92.6964 121.279 93.4338 118.767L93.9055 117.161C94.1561 116.307 94.8073 115.629 95.6502 115.344L96.9844 114.892C99.9694 113.882 102.112 111.251 102.496 108.123C102.609 107.203 103.181 106.404 104.016 105.999C106.656 104.719 108.283 101.992 108.154 99.0598L108.138 98.6962C108.108 98.0083 108.339 97.3345 108.785 96.8098L109.703 95.7277C111.824 93.2283 112.832 89.9701 112.491 86.7092C112.404 85.8715 112.708 85.0401 113.315 84.4565C114.881 82.9521 115.343 80.6321 114.475 78.6421L114.165 77.9298C113.828 77.1595 113.866 76.2771 114.266 75.538C115.756 72.7851 115.711 69.4559 114.146 66.7448L113.727 66.0189C113.358 65.3783 113.263 64.6154 113.467 63.9042C114.062 61.8201 112.983 59.6239 110.971 58.8204L109.015 58.0398C108.318 57.7618 107.767 57.2095 107.49 56.5127C106.655 54.4124 104.178 53.5062 102.184 54.5718L101.718 54.8212C101.023 55.193 100.201 55.2459 99.4635 54.9665L97.3323 54.1592C95.5323 53.4774 93.552 54.5806 93.1843 56.4701C92.9864 57.4886 92.2279 58.3068 91.2276 58.5818L90.9126 58.6683C88.7173 59.2715 87.3755 61.4845 87.8555 63.7098C88.0905 64.7995 87.6396 65.9227 86.7161 66.5471C85.2735 67.523 84.9502 69.5124 86.0096 70.8948L86.3508 71.3401C87.1929 72.4386 87.0796 73.9933 86.0873 74.9583C84.4376 76.563 83.7049 78.8895 84.1376 81.1498L84.1379 81.1515C84.392 82.4786 83.637 83.7918 82.3626 84.2404C80.0194 85.0651 78.2879 87.0686 77.8108 89.5062L77.7585 89.7739C77.5238 90.9742 76.5194 91.8718 75.3002 91.9709L73.9629 92.0798C72.0217 92.2377 70.2526 93.2548 69.1394 94.853C68.4682 95.8165 67.2561 96.243 66.1294 95.9121L65.3779 95.6915C62.6899 94.9021 59.8167 95.0227 57.2044 96.0342C56.0629 96.4762 54.7667 96.1045 54.0329 95.1245L53.487 94.3957C52.2311 92.7189 50.037 92.0436 48.0558 92.7248C47.0196 93.0809 45.8708 92.7833 45.1382 91.9686L43.9067 90.5995C42.5214 89.0592 40.2049 88.7936 38.507 89.9801C37.8276 90.4551 36.9691 90.5954 36.1735 90.3618L32.687 89.338C31.2255 88.9089 29.6955 89.7583 29.287 91.2256C29.0026 92.2474 28.152 93.0121 27.1058 93.1865L25.2996 93.488C22.8344 93.8995 21.1535 96.2104 21.5211 98.6824C21.6546 99.5812 21.3326 100.487 20.662 101.1L18.5546 103.025C17.2094 104.254 17.1635 106.358 18.4541 107.644C19.2841 108.471 19.4938 109.736 18.9749 110.787C18.0144 112.732 18.7317 115.089 20.6135 116.17L20.9744 116.377C21.8423 116.875 22.3679 117.808 22.3446 118.809C22.2949 120.938 23.9167 122.735 26.0396 122.904L27.4832 123.019C28.2532 123.08 28.9614 123.464 29.4323 124.077L30.7041 125.732C32.0391 127.469 34.2305 128.319 36.3876 127.934C37.9841 127.65 39.6273 128.039 40.9273 129.008L41.4276 129.382C43.7641 131.125 46.8096 131.604 49.5688 130.663C50.852 130.227 52.2467 130.246 53.5164 130.72Z" fill="url(#paint15_linear)"/>
<path d="M109.703 95.7276C111.824 93.2282 112.832 89.97 112.491 86.7091C112.404 85.8715 112.707 85.04 113.315 84.4565C114.88 82.9521 115.343 80.632 114.475 78.642L114.164 77.93C113.828 77.1597 113.866 76.2773 114.266 75.5382C115.756 72.7853 115.711 69.4562 114.146 66.745L113.727 66.0191C113.357 65.3785 113.263 64.6156 113.467 63.9044C114.062 61.8203 112.983 59.6241 110.97 58.8206L109.015 58.04C108.831 57.9668 108.659 57.8735 108.498 57.7644C108.803 59.6915 108.483 61.6971 107.526 63.4653C107.126 64.2044 107.089 65.0868 107.425 65.8571L107.735 66.5694C108.604 68.5594 108.141 70.8797 106.575 72.3838C105.968 72.9673 105.664 73.7985 105.751 74.6365C106.092 77.8973 105.084 81.1553 102.963 83.655L102.045 84.737C101.599 85.262 101.369 85.9359 101.399 86.6235L101.414 86.9871C101.543 89.9188 99.9162 92.6462 97.2756 93.9265C96.4415 94.3309 95.8697 95.1306 95.7565 96.0506C95.3721 99.1785 93.2297 101.81 90.2444 102.82L88.9103 103.271C88.0674 103.556 87.4165 104.234 87.1656 105.088L86.6939 106.695C85.9565 109.206 83.5812 110.874 80.9689 110.715C79.1615 110.605 77.4586 111.569 76.6227 113.175C75.7994 114.756 74.1342 115.718 72.353 115.639L68.4553 115.467C67.4942 115.425 66.5818 115.891 66.0533 116.695C64.9153 118.426 62.7794 119.211 60.7915 118.627L59.2262 118.167C57.9592 117.795 56.5942 117.972 55.4639 118.655C53.3742 119.918 50.8218 120.156 48.5344 119.303L46.7765 118.647C45.5065 118.173 44.1118 118.154 42.8291 118.591C40.0703 119.533 37.0244 119.053 34.688 117.31L34.1877 116.937C32.888 115.967 31.2447 115.578 29.648 115.863C27.4909 116.247 25.2994 115.398 23.9644 113.661L22.6927 112.005C22.2221 111.393 21.5139 111.008 20.7436 110.947L19.3 110.832C19.1897 110.824 19.0818 110.808 18.9744 110.791C18.0156 112.736 18.7333 115.091 20.6142 116.171L20.975 116.378C21.843 116.876 22.3686 117.81 22.3453 118.81C22.2956 120.939 23.9174 122.736 26.0403 122.905L27.4839 123.02C28.2539 123.081 28.9621 123.466 29.4327 124.078L30.7044 125.734C32.0394 127.471 34.2309 128.32 36.388 127.936C37.9844 127.651 39.6277 128.04 40.9277 129.01L41.428 129.383C43.7644 131.126 46.81 131.606 49.5692 130.664C50.8518 130.226 52.2468 130.246 53.5165 130.72L55.2744 131.376C57.5621 132.229 60.1142 131.991 62.2039 130.728C63.3342 130.045 64.6992 129.868 65.9662 130.24L67.5315 130.7C69.5194 131.284 71.6553 130.499 72.7933 128.768C73.3218 127.964 74.2341 127.498 75.1953 127.54L79.093 127.712C80.8741 127.79 82.5394 126.829 83.3627 125.248C84.1986 123.641 85.9015 122.678 87.7089 122.788C90.3212 122.946 92.6965 121.279 93.4339 118.767L93.9056 117.161C94.1562 116.307 94.8074 115.629 95.6503 115.344L96.9845 114.892C99.9695 113.882 102.112 111.251 102.497 108.123C102.609 107.203 103.182 106.404 104.016 105.999C106.656 104.719 108.283 101.991 108.154 99.0597L108.139 98.6962C108.108 98.0082 108.339 97.3344 108.785 96.8097L109.703 95.7276Z" fill="url(#paint16_linear)"/>
<g opacity="0.6">
<g opacity="0.6">
<path opacity="0.6" d="M38.2687 100.224C39.5104 100.224 40.517 99.2169 40.517 97.9753C40.517 96.7336 39.5104 95.7271 38.2687 95.7271C37.0271 95.7271 36.0205 96.7336 36.0205 97.9753C36.0205 99.2169 37.0271 100.224 38.2687 100.224Z" fill="url(#paint17_linear)"/>
<path opacity="0.6" d="M32.6251 104.152C33.6054 104.152 34.4001 103.358 34.4001 102.377C34.4001 101.397 33.6054 100.602 32.6251 100.602C31.6448 100.602 30.8501 101.397 30.8501 102.377C30.8501 103.358 31.6448 104.152 32.6251 104.152Z" fill="url(#paint18_linear)"/>
<path opacity="0.6" d="M39.6286 107.057C40.2195 107.057 40.6986 106.577 40.6986 105.987C40.6986 105.396 40.2195 104.917 39.6286 104.917C39.0376 104.917 38.5586 105.396 38.5586 105.987C38.5586 106.577 39.0376 107.057 39.6286 107.057Z" fill="url(#paint19_linear)"/>
</g>
<g opacity="0.6">
<path opacity="0.6" d="M49.1973 104.612C50.1148 104.612 50.8585 103.868 50.8585 102.95C50.8585 102.033 50.1148 101.289 49.1973 101.289C48.2799 101.289 47.5361 102.033 47.5361 102.95C47.5361 103.868 48.2799 104.612 49.1973 104.612Z" fill="url(#paint20_linear)"/>
<path opacity="0.6" d="M43.9926 103.323C44.7169 103.323 45.3041 102.736 45.3041 102.011C45.3041 101.287 44.7169 100.7 43.9926 100.7C43.2683 100.7 42.6812 101.287 42.6812 102.011C42.6812 102.736 43.2683 103.323 43.9926 103.323Z" fill="url(#paint21_linear)"/>
<path opacity="0.6" d="M45.4551 108.437C45.8918 108.437 46.2457 108.083 46.2457 107.646C46.2457 107.21 45.8918 106.856 45.4551 106.856C45.0185 106.856 44.6646 107.21 44.6646 107.646C44.6646 108.083 45.0185 108.437 45.4551 108.437Z" fill="url(#paint22_linear)"/>
</g>
<g opacity="0.6">
<path opacity="0.6" d="M107.663 77.1067C108.783 77.1067 109.691 76.1987 109.691 75.0787C109.691 73.9587 108.783 73.0508 107.663 73.0508C106.543 73.0508 105.635 73.9587 105.635 75.0787C105.635 76.1987 106.543 77.1067 107.663 77.1067Z" fill="url(#paint23_linear)"/>
<path opacity="0.6" d="M101.31 75.5334C102.194 75.5334 102.911 74.8165 102.911 73.9322C102.911 73.0479 102.194 72.3311 101.31 72.3311C100.425 72.3311 99.7085 73.0479 99.7085 73.9322C99.7085 74.8165 100.425 75.5334 101.31 75.5334Z" fill="url(#paint24_linear)"/>
<path opacity="0.6" d="M103.095 81.7763C103.628 81.7763 104.06 81.3441 104.06 80.811C104.06 80.2779 103.628 79.8457 103.095 79.8457C102.562 79.8457 102.13 80.2779 102.13 80.811C102.13 81.3441 102.562 81.7763 103.095 81.7763Z" fill="url(#paint25_linear)"/>
</g>
</g>
<path d="M94.5992 33.2717C95.1401 28.4 99.0172 24.8323 103.259 25.3035C107.5 25.7747 110.5 30.1059 109.959 34.9776C109.418 39.8494 105.541 43.417 101.3 42.9459C97.0581 42.4747 94.0581 38.1435 94.5992 33.2717Z" fill="url(#paint26_linear)"/>
<path d="M94.5989 33.2717C97.8842 38.89 103.047 38.5297 107.14 32.3973C111.973 25.1541 116.164 23.8276 118.885 24.1297C127.325 25.067 116.771 53.6547 106.916 52.5603C97.0615 51.4659 93.513 43.0482 94.5989 33.2717Z" fill="url(#paint27_linear)"/>
<path d="M127.493 83.029C131.76 83.029 135.219 79.5699 135.219 75.3028C135.219 71.0358 131.76 67.5767 127.493 67.5767C123.226 67.5767 119.767 71.0358 119.767 75.3028C119.767 79.5699 123.226 83.029 127.493 83.029Z" fill="url(#paint28_linear)"/>
<path d="M76.8874 148.84L78.6454 149.495C80.933 150.349 83.4851 150.11 85.5748 148.848C86.7051 148.165 88.0701 147.988 89.3371 148.36L90.9024 148.819C92.8904 149.403 95.0262 148.619 96.1642 146.888C96.6927 146.084 97.6051 145.617 98.5662 145.66L102.464 145.831C104.245 145.91 105.91 144.949 106.734 143.367C107.569 141.761 109.272 140.797 111.08 140.907C113.692 141.066 116.067 139.398 116.805 136.887L117.277 135.28C117.527 134.427 118.178 133.749 119.021 133.463L120.355 133.012C123.34 132.002 125.483 129.371 125.867 126.243C125.98 125.323 126.552 124.523 127.387 124.119C130.027 122.839 131.654 120.111 131.525 117.179L131.509 116.816C131.479 116.128 131.71 115.454 132.156 114.929L133.074 113.847C135.195 111.348 136.203 108.09 135.862 104.829C135.775 103.991 136.079 103.16 136.686 102.576C138.252 101.072 138.714 98.7516 137.846 96.7616L137.536 96.0493C137.199 95.279 137.237 94.3966 137.637 93.6575C139.127 90.9046 139.082 87.5755 137.517 84.8643L137.098 84.1384C136.729 83.4978 136.634 82.7349 136.838 82.0237C137.433 79.9396 136.354 77.7434 134.342 76.9399L132.386 76.1593C131.689 75.8813 131.138 75.329 130.861 74.6322C130.026 72.5319 127.549 71.6258 125.555 72.6914L125.089 72.9411C124.394 73.3128 123.572 73.3658 122.835 73.0866L120.704 72.2793C118.904 71.5975 116.923 72.7008 116.556 74.5902C116.358 75.6087 115.599 76.4269 114.599 76.7019L114.284 76.7884C112.089 77.3916 110.747 79.6046 111.227 81.8299C111.462 82.9196 111.011 84.0428 110.087 84.6672C108.645 85.6431 108.322 87.6325 109.381 89.0149L109.722 89.4602C110.564 90.5587 110.451 92.1134 109.459 93.0784C107.809 94.6831 107.076 97.0096 107.509 99.2699L107.509 99.2716C107.763 100.599 107.008 101.912 105.734 102.36C103.391 103.185 101.659 105.189 101.182 107.626L101.13 107.894C100.895 109.094 99.8907 109.992 98.6715 110.091L97.3342 110.2C95.393 110.358 93.6239 111.375 92.5107 112.973C91.8395 113.937 90.6274 114.363 89.5009 114.032L88.7495 113.812C86.0615 113.022 83.1883 113.143 80.5759 114.154C79.4345 114.596 78.1383 114.225 77.4045 113.245L76.8586 112.516C75.6027 110.839 73.4086 110.164 71.4274 110.845C70.3912 111.201 69.2424 110.903 68.5098 110.089L67.2783 108.72C65.893 107.179 63.5765 106.914 61.8786 108.1C61.1992 108.575 60.3406 108.715 59.5451 108.482L56.0586 107.458C54.5971 107.029 53.0671 107.878 52.6586 109.346C52.3742 110.368 51.5236 111.132 50.4774 111.307L48.6712 111.608C46.2059 112.02 44.5251 114.33 44.8927 116.803C45.0262 117.701 44.7042 118.608 44.0336 119.22L41.9262 121.145C40.5809 122.374 40.5351 124.478 41.8256 125.764C42.6556 126.591 42.8653 127.856 42.3465 128.907C41.3859 130.853 42.1033 133.21 43.9851 134.29L44.3459 134.497C45.2139 134.995 45.7395 135.928 45.7162 136.929C45.6665 139.058 47.2883 140.855 49.4112 141.024L50.8548 141.139C51.6248 141.2 52.333 141.584 52.8039 142.197L54.0756 143.852C55.4106 145.59 57.6021 146.439 59.7592 146.054C61.3556 145.77 62.9989 146.159 64.2989 147.128L64.7992 147.502C67.1356 149.245 70.1812 149.724 72.9404 148.783C74.223 148.346 75.6177 148.366 76.8874 148.84Z" fill="url(#paint29_linear)"/>
<path d="M133.074 113.847C135.195 111.348 136.203 108.09 135.862 104.829C135.775 103.991 136.079 103.16 136.686 102.576C138.252 101.072 138.715 98.7517 137.846 96.7617L137.536 96.0494C137.2 95.2791 137.237 94.3967 137.637 93.6576C139.127 90.9047 139.082 87.5756 137.517 84.8644L137.098 84.1385C136.729 83.4979 136.635 82.735 136.838 82.0238C137.433 79.9397 136.355 77.7435 134.342 76.94L132.386 76.1594C132.203 76.0861 132.03 75.9929 131.869 75.8838C132.175 77.8108 131.855 79.8164 130.897 81.5847C130.498 82.3238 130.46 83.2061 130.796 83.9764L131.107 84.6888C131.975 86.6788 131.512 88.9991 129.946 90.5032C129.339 91.0867 129.035 91.9179 129.122 92.7558C129.463 96.0167 128.456 99.2747 126.334 101.774L125.416 102.856C124.97 103.381 124.74 104.055 124.77 104.743L124.786 105.106C124.914 108.038 123.288 110.766 120.647 112.046C119.813 112.45 119.241 113.25 119.128 114.17C118.743 117.298 116.601 119.929 113.616 120.939L112.282 121.391C111.439 121.676 110.788 122.354 110.537 123.208L110.065 124.814C109.328 127.325 106.953 128.993 104.34 128.834C102.533 128.724 100.83 129.688 99.994 131.294C99.1707 132.876 97.5054 133.837 95.7243 133.758L91.8266 133.587C90.8654 133.544 89.9531 134.011 89.4246 134.815C88.2866 136.546 86.1507 137.33 84.1628 136.746L82.5975 136.286C81.3304 135.914 79.9654 136.091 78.8351 136.774C76.7454 138.037 74.1931 138.276 71.9057 137.422L70.1478 136.766C68.8778 136.293 67.4831 136.273 66.2004 136.711C63.4416 137.652 60.3957 137.173 58.0593 135.429L57.559 135.056C56.2593 134.086 54.616 133.698 53.0193 133.982C50.8622 134.366 48.6707 133.517 47.3357 131.78L46.064 130.125C45.5934 129.512 44.8851 129.128 44.1151 129.066L42.6716 128.952C42.5613 128.943 42.4534 128.927 42.346 128.91C41.3872 130.855 42.1048 133.211 43.9857 134.291L44.3466 134.498C45.2146 134.996 45.7401 135.929 45.7169 136.929C45.6672 139.059 47.289 140.856 49.4119 141.025L50.8554 141.139C51.6254 141.201 52.3337 141.585 52.8043 142.198L54.076 143.853C55.411 145.59 57.6025 146.439 59.7596 146.055C61.356 145.771 62.9993 146.159 64.2993 147.129L64.7996 147.502C67.136 149.246 70.1816 149.725 72.9407 148.784C74.2234 148.346 75.6184 148.366 76.8881 148.839L78.646 149.495C80.9337 150.349 83.4857 150.11 85.5754 148.847C86.7057 148.164 88.0707 147.987 89.3378 148.359L90.9031 148.819C92.891 149.403 95.0269 148.619 96.1649 146.887C96.6934 146.084 97.6057 145.617 98.5669 145.659L102.465 145.831C104.246 145.91 105.911 144.949 106.734 143.367C107.57 141.761 109.273 140.797 111.08 140.907C113.693 141.066 116.068 139.398 116.805 136.887L117.277 135.28C117.528 134.426 118.179 133.749 119.022 133.463L120.356 133.012C123.341 132.001 125.484 129.371 125.868 126.243C125.981 125.323 126.553 124.523 127.387 124.118C130.028 122.838 131.655 120.111 131.526 117.179L131.51 116.816C131.48 116.128 131.711 115.454 132.156 114.929L133.074 113.847Z" fill="url(#paint30_linear)"/>
<g opacity="0.6">
<g opacity="0.6">
<path opacity="0.6" d="M61.6394 118.343C62.881 118.343 63.8876 117.337 63.8876 116.095C63.8876 114.853 62.881 113.847 61.6394 113.847C60.3977 113.847 59.3911 114.853 59.3911 116.095C59.3911 117.337 60.3977 118.343 61.6394 118.343Z" fill="url(#paint31_linear)"/>
<path opacity="0.6" d="M55.9957 122.272C56.976 122.272 57.7707 121.477 57.7707 120.497C57.7707 119.517 56.976 118.722 55.9957 118.722C55.0154 118.722 54.2207 119.517 54.2207 120.497C54.2207 121.477 55.0154 122.272 55.9957 122.272Z" fill="url(#paint32_linear)"/>
<path opacity="0.6" d="M62.9992 125.176C63.5901 125.176 64.0692 124.697 64.0692 124.106C64.0692 123.515 63.5901 123.036 62.9992 123.036C62.4083 123.036 61.9292 123.515 61.9292 124.106C61.9292 124.697 62.4083 125.176 62.9992 125.176Z" fill="url(#paint33_linear)"/>
</g>
<g opacity="0.6">
<path opacity="0.6" d="M72.5679 122.731C73.4854 122.731 74.2291 121.987 74.2291 121.07C74.2291 120.152 73.4854 119.408 72.5679 119.408C71.6505 119.408 70.9067 120.152 70.9067 121.07C70.9067 121.987 71.6505 122.731 72.5679 122.731Z" fill="url(#paint34_linear)"/>
<path opacity="0.6" d="M67.3632 121.442C68.0875 121.442 68.6747 120.855 68.6747 120.131C68.6747 119.406 68.0875 118.819 67.3632 118.819C66.6389 118.819 66.0518 119.406 66.0518 120.131C66.0518 120.855 66.6389 121.442 67.3632 121.442Z" fill="url(#paint35_linear)"/>
<path opacity="0.6" d="M68.8257 126.556C69.2624 126.556 69.6163 126.202 69.6163 125.766C69.6163 125.329 69.2624 124.975 68.8257 124.975C68.3891 124.975 68.0352 125.329 68.0352 125.766C68.0352 126.202 68.3891 126.556 68.8257 126.556Z" fill="url(#paint36_linear)"/>
</g>
<g opacity="0.6">
<path opacity="0.6" d="M131.033 95.2261C132.153 95.2261 133.061 94.3181 133.061 93.1981C133.061 92.0781 132.153 91.1702 131.033 91.1702C129.913 91.1702 129.005 92.0781 129.005 93.1981C129.005 94.3181 129.913 95.2261 131.033 95.2261Z" fill="url(#paint37_linear)"/>
<path opacity="0.6" d="M124.68 93.6528C125.565 93.6528 126.281 92.9359 126.281 92.0516C126.281 91.1673 125.565 90.4504 124.68 90.4504C123.796 90.4504 123.079 91.1673 123.079 92.0516C123.079 92.9359 123.796 93.6528 124.68 93.6528Z" fill="url(#paint38_linear)"/>
<path opacity="0.6" d="M126.466 99.8957C126.999 99.8957 127.431 99.4635 127.431 98.9304C127.431 98.3973 126.999 97.9651 126.466 97.9651C125.933 97.9651 125.5 98.3973 125.5 98.9304C125.5 99.4635 125.933 99.8957 126.466 99.8957Z" fill="url(#paint39_linear)"/>
</g>
</g>
<path d="M117.97 51.3914C118.511 46.5196 122.388 42.952 126.63 43.4231C130.872 43.8943 133.871 48.2255 133.33 53.0972C132.789 57.969 128.912 61.5367 124.671 61.0655C120.429 60.5943 117.429 56.2631 117.97 51.3914Z" fill="url(#paint40_linear)"/>
<path d="M117.97 51.3914C121.255 57.0096 126.418 56.6493 130.511 50.517C135.344 43.2737 139.535 41.9473 142.256 42.2493C150.696 43.1867 140.142 71.7743 130.287 70.6799C120.433 69.5855 116.884 61.1681 117.97 51.3914Z" fill="url(#paint41_linear)"/>
</g>
<defs>
<linearGradient id="paint0_linear" x1="94.8588" y1="24.116" x2="97.1162" y2="36.249" gradientUnits="userSpaceOnUse">
<stop stop-color="#FF6359"/>
<stop offset="0.2243" stop-color="#FE5B50"/>
<stop offset="0.5952" stop-color="#FC4637"/>
<stop offset="1" stop-color="#F82814"/>
</linearGradient>
<linearGradient id="paint1_linear" x1="55.5917" y1="59.5263" x2="60.0034" y2="108.644" gradientUnits="userSpaceOnUse">
<stop stop-color="#FFD945"/>
<stop offset="0.3043" stop-color="#FFCD3E"/>
<stop offset="0.8558" stop-color="#FFAD2B"/>
<stop offset="1" stop-color="#FFA325"/>
</linearGradient>
<linearGradient id="paint2_linear" x1="61.4887" y1="65.7482" x2="138.503" y2="133.552" gradientUnits="userSpaceOnUse">
<stop stop-color="#F82814" stop-opacity="0"/>
<stop offset="0.2454" stop-color="#F12817" stop-opacity="0.245"/>
<stop offset="0.6052" stop-color="#DD2820" stop-opacity="0.605"/>
<stop offset="1" stop-color="#C0272D"/>
</linearGradient>
<linearGradient id="paint3_linear" x1="27.3479" y1="69.7157" x2="25.3906" y2="59.253" gradientUnits="userSpaceOnUse">
<stop stop-color="#F82814" stop-opacity="0"/>
<stop offset="0.2454" stop-color="#F12817" stop-opacity="0.245"/>
<stop offset="0.6052" stop-color="#DD2820" stop-opacity="0.605"/>
<stop offset="1" stop-color="#C0272D"/>
</linearGradient>
<linearGradient id="paint4_linear" x1="21.1626" y1="72.8298" x2="19.6174" y2="64.5699" gradientUnits="userSpaceOnUse">
<stop stop-color="#F82814" stop-opacity="0"/>
<stop offset="0.2454" stop-color="#F12817" stop-opacity="0.245"/>
<stop offset="0.6052" stop-color="#DD2820" stop-opacity="0.605"/>
<stop offset="1" stop-color="#C0272D"/>
</linearGradient>
<linearGradient id="paint5_linear" x1="27.5784" y1="76.0605" x2="26.6468" y2="71.0808" gradientUnits="userSpaceOnUse">
<stop stop-color="#F82814" stop-opacity="0"/>
<stop offset="0.2454" stop-color="#F12817" stop-opacity="0.245"/>
<stop offset="0.6052" stop-color="#DD2820" stop-opacity="0.605"/>
<stop offset="1" stop-color="#C0272D"/>
</linearGradient>
<linearGradient id="paint6_linear" x1="35.302" y1="73.8537" x2="40.1069" y2="67.6247" gradientUnits="userSpaceOnUse">
<stop stop-color="#F82814" stop-opacity="0"/>
<stop offset="0.2454" stop-color="#F12817" stop-opacity="0.245"/>
<stop offset="0.6052" stop-color="#DD2820" stop-opacity="0.605"/>
<stop offset="1" stop-color="#C0272D"/>
</linearGradient>
<linearGradient id="paint7_linear" x1="30.5403" y1="71.9762" x2="34.3337" y2="67.0587" gradientUnits="userSpaceOnUse">
<stop stop-color="#F82814" stop-opacity="0"/>
<stop offset="0.2454" stop-color="#F12817" stop-opacity="0.245"/>
<stop offset="0.6052" stop-color="#DD2820" stop-opacity="0.605"/>
<stop offset="1" stop-color="#C0272D"/>
</linearGradient>
<linearGradient id="paint8_linear" x1="31.9172" y1="77.104" x2="34.2041" y2="74.1393" gradientUnits="userSpaceOnUse">
<stop stop-color="#F82814" stop-opacity="0"/>
<stop offset="0.2454" stop-color="#F12817" stop-opacity="0.245"/>
<stop offset="0.6052" stop-color="#DD2820" stop-opacity="0.605"/>
<stop offset="1" stop-color="#C0272D"/>
</linearGradient>
<linearGradient id="paint9_linear" x1="95.9496" y1="52.4029" x2="101.815" y2="44.7987" gradientUnits="userSpaceOnUse">
<stop stop-color="#F82814" stop-opacity="0"/>
<stop offset="0.2454" stop-color="#F12817" stop-opacity="0.245"/>
<stop offset="0.6052" stop-color="#DD2820" stop-opacity="0.605"/>
<stop offset="1" stop-color="#C0272D"/>
</linearGradient>
<linearGradient id="paint10_linear" x1="90.1369" y1="50.1107" x2="94.7676" y2="44.1076" gradientUnits="userSpaceOnUse">
<stop stop-color="#F82814" stop-opacity="0"/>
<stop offset="0.2454" stop-color="#F12817" stop-opacity="0.245"/>
<stop offset="0.6052" stop-color="#DD2820" stop-opacity="0.605"/>
<stop offset="1" stop-color="#C0272D"/>
</linearGradient>
<linearGradient id="paint11_linear" x1="91.8175" y1="56.37" x2="94.6092" y2="52.7509" gradientUnits="userSpaceOnUse">
<stop stop-color="#F82814" stop-opacity="0"/>
<stop offset="0.2454" stop-color="#F12817" stop-opacity="0.245"/>
<stop offset="0.6052" stop-color="#DD2820" stop-opacity="0.605"/>
<stop offset="1" stop-color="#C0272D"/>
</linearGradient>
<linearGradient id="paint12_linear" x1="96.1662" y1="-2.31531" x2="100.892" y2="4.03238" gradientUnits="userSpaceOnUse">
<stop stop-color="#FF6359"/>
<stop offset="0.2243" stop-color="#FE5B50"/>
<stop offset="0.5952" stop-color="#FC4637"/>
<stop offset="1" stop-color="#F82814"/>
</linearGradient>
<linearGradient id="paint13_linear" x1="103.683" y1="3.40619" x2="98.1854" y2="26.9428" gradientUnits="userSpaceOnUse">
<stop stop-color="#FF6359"/>
<stop offset="0.2243" stop-color="#FE5B50"/>
<stop offset="0.5952" stop-color="#FC4637"/>
<stop offset="1" stop-color="#F82814"/>
</linearGradient>
<linearGradient id="paint14_linear" x1="101.927" y1="49.5606" x2="105.381" y2="61.4115" gradientUnits="userSpaceOnUse">
<stop stop-color="#FF6359"/>
<stop offset="0.2243" stop-color="#FE5B50"/>
<stop offset="0.5952" stop-color="#FC4637"/>
<stop offset="1" stop-color="#F82814"/>
</linearGradient>
<linearGradient id="paint15_linear" x1="65.3823" y1="80.4524" x2="71.5588" y2="125.452" gradientUnits="userSpaceOnUse">
<stop stop-color="#FFD945"/>
<stop offset="0.3043" stop-color="#FFCD3E"/>
<stop offset="0.8558" stop-color="#FFAD2B"/>
<stop offset="1" stop-color="#FFA325"/>
</linearGradient>
<linearGradient id="paint16_linear" x1="78.4459" y1="95.3226" x2="170.206" y2="127.086" gradientUnits="userSpaceOnUse">
<stop stop-color="#F82814" stop-opacity="0"/>
<stop offset="0.2454" stop-color="#F12817" stop-opacity="0.245"/>
<stop offset="0.6052" stop-color="#DD2820" stop-opacity="0.605"/>
<stop offset="1" stop-color="#C0272D"/>
</linearGradient>
<linearGradient id="paint17_linear" x1="39.1503" y1="101.557" x2="36.1624" y2="91.3391" gradientUnits="userSpaceOnUse">
<stop stop-color="#F82814" stop-opacity="0"/>
<stop offset="0.2454" stop-color="#F12817" stop-opacity="0.245"/>
<stop offset="0.6052" stop-color="#DD2820" stop-opacity="0.605"/>
<stop offset="1" stop-color="#C0272D"/>
</linearGradient>
<linearGradient id="paint18_linear" x1="33.3034" y1="105.271" x2="30.9445" y2="97.2042" gradientUnits="userSpaceOnUse">
<stop stop-color="#F82814" stop-opacity="0"/>
<stop offset="0.2454" stop-color="#F12817" stop-opacity="0.245"/>
<stop offset="0.6052" stop-color="#DD2820" stop-opacity="0.605"/>
<stop offset="1" stop-color="#C0272D"/>
</linearGradient>
<linearGradient id="paint19_linear" x1="40.0095" y1="107.849" x2="38.5875" y2="102.985" gradientUnits="userSpaceOnUse">
<stop stop-color="#F82814" stop-opacity="0"/>
<stop offset="0.2454" stop-color="#F12817" stop-opacity="0.245"/>
<stop offset="0.6052" stop-color="#DD2820" stop-opacity="0.605"/>
<stop offset="1" stop-color="#C0272D"/>
</linearGradient>
<linearGradient id="paint20_linear" x1="48.0057" y1="104.958" x2="52.1613" y2="98.286" gradientUnits="userSpaceOnUse">
<stop stop-color="#F82814" stop-opacity="0"/>
<stop offset="0.2454" stop-color="#F12817" stop-opacity="0.245"/>
<stop offset="0.6052" stop-color="#DD2820" stop-opacity="0.605"/>
<stop offset="1" stop-color="#C0272D"/>
</linearGradient>
<linearGradient id="paint21_linear" x1="43.0841" y1="103.566" x2="46.3649" y2="98.2992" gradientUnits="userSpaceOnUse">
<stop stop-color="#F82814" stop-opacity="0"/>
<stop offset="0.2454" stop-color="#F12817" stop-opacity="0.245"/>
<stop offset="0.6052" stop-color="#DD2820" stop-opacity="0.605"/>
<stop offset="1" stop-color="#C0272D"/>
</linearGradient>
<linearGradient id="paint22_linear" x1="44.9643" y1="108.527" x2="46.9421" y2="105.351" gradientUnits="userSpaceOnUse">
<stop stop-color="#F82814" stop-opacity="0"/>
<stop offset="0.2454" stop-color="#F12817" stop-opacity="0.245"/>
<stop offset="0.6052" stop-color="#DD2820" stop-opacity="0.605"/>
<stop offset="1" stop-color="#C0272D"/>
</linearGradient>
<linearGradient id="paint23_linear" x1="106.16" y1="77.5824" x2="111.233" y2="69.4375" gradientUnits="userSpaceOnUse">
<stop stop-color="#F82814" stop-opacity="0"/>
<stop offset="0.2454" stop-color="#F12817" stop-opacity="0.245"/>
<stop offset="0.6052" stop-color="#DD2820" stop-opacity="0.605"/>
<stop offset="1" stop-color="#C0272D"/>
</linearGradient>
<linearGradient id="paint24_linear" x1="100.153" y1="75.8835" x2="104.158" y2="69.4534" gradientUnits="userSpaceOnUse">
<stop stop-color="#F82814" stop-opacity="0"/>
<stop offset="0.2454" stop-color="#F12817" stop-opacity="0.245"/>
<stop offset="0.6052" stop-color="#DD2820" stop-opacity="0.605"/>
<stop offset="1" stop-color="#C0272D"/>
</linearGradient>
<linearGradient id="paint25_linear" x1="102.448" y1="81.9388" x2="104.863" y2="78.0622" gradientUnits="userSpaceOnUse">
<stop stop-color="#F82814" stop-opacity="0"/>
<stop offset="0.2454" stop-color="#F12817" stop-opacity="0.245"/>
<stop offset="0.6052" stop-color="#DD2820" stop-opacity="0.605"/>
<stop offset="1" stop-color="#C0272D"/>
</linearGradient>
<linearGradient id="paint26_linear" x1="100.589" y1="23.1209" x2="105.923" y2="28.9634" gradientUnits="userSpaceOnUse">
<stop stop-color="#FF6359"/>
<stop offset="0.2243" stop-color="#FE5B50"/>
<stop offset="0.5952" stop-color="#FC4637"/>
<stop offset="1" stop-color="#F82814"/>
</linearGradient>
<linearGradient id="paint27_linear" x1="108.639" y1="28.0601" x2="105.527" y2="52.0266" gradientUnits="userSpaceOnUse">
<stop stop-color="#FF6359"/>
<stop offset="0.2243" stop-color="#FE5B50"/>
<stop offset="0.5952" stop-color="#FC4637"/>
<stop offset="1" stop-color="#F82814"/>
</linearGradient>
<linearGradient id="paint28_linear" x1="125.309" y1="67.6924" x2="128.763" y2="79.543" gradientUnits="userSpaceOnUse">
<stop stop-color="#FF6359"/>
<stop offset="0.2243" stop-color="#FE5B50"/>
<stop offset="0.5952" stop-color="#FC4637"/>
<stop offset="1" stop-color="#F82814"/>
</linearGradient>
<linearGradient id="paint29_linear" x1="83.1222" y1="92.8653" x2="111.47" y2="150.702" gradientUnits="userSpaceOnUse">
<stop stop-color="#FFD945"/>
<stop offset="0.3043" stop-color="#FFCD3E"/>
<stop offset="0.8558" stop-color="#FFAD2B"/>
<stop offset="1" stop-color="#FFA325"/>
</linearGradient>
<linearGradient id="paint30_linear" x1="96.0035" y1="112.277" x2="179.397" y2="172.098" gradientUnits="userSpaceOnUse">
<stop stop-color="#F82814" stop-opacity="0"/>
<stop offset="0.2454" stop-color="#F12817" stop-opacity="0.245"/>
<stop offset="0.6052" stop-color="#DD2820" stop-opacity="0.605"/>
<stop offset="1" stop-color="#C0272D"/>
</linearGradient>
<linearGradient id="paint31_linear" x1="62.5365" y1="119.676" x2="59.5487" y2="109.458" gradientUnits="userSpaceOnUse">
<stop stop-color="#F82814" stop-opacity="0"/>
<stop offset="0.2454" stop-color="#F12817" stop-opacity="0.245"/>
<stop offset="0.6052" stop-color="#DD2820" stop-opacity="0.605"/>
<stop offset="1" stop-color="#C0272D"/>
</linearGradient>
<linearGradient id="paint32_linear" x1="56.6897" y1="123.389" x2="54.3307" y2="115.323" gradientUnits="userSpaceOnUse">
<stop stop-color="#F82814" stop-opacity="0"/>
<stop offset="0.2454" stop-color="#F12817" stop-opacity="0.245"/>
<stop offset="0.6052" stop-color="#DD2820" stop-opacity="0.605"/>
<stop offset="1" stop-color="#C0272D"/>
</linearGradient>
<linearGradient id="paint33_linear" x1="63.3958" y1="125.967" x2="61.9738" y2="121.104" gradientUnits="userSpaceOnUse">
<stop stop-color="#F82814" stop-opacity="0"/>
<stop offset="0.2454" stop-color="#F12817" stop-opacity="0.245"/>
<stop offset="0.6052" stop-color="#DD2820" stop-opacity="0.605"/>
<stop offset="1" stop-color="#C0272D"/>
</linearGradient>
<linearGradient id="paint34_linear" x1="71.3637" y1="123.076" x2="75.5197" y2="116.403" gradientUnits="userSpaceOnUse">
<stop stop-color="#F82814" stop-opacity="0"/>
<stop offset="0.2454" stop-color="#F12817" stop-opacity="0.245"/>
<stop offset="0.6052" stop-color="#DD2820" stop-opacity="0.605"/>
<stop offset="1" stop-color="#C0272D"/>
</linearGradient>
<linearGradient id="paint35_linear" x1="66.4425" y1="121.684" x2="69.723" y2="116.417" gradientUnits="userSpaceOnUse">
<stop stop-color="#F82814" stop-opacity="0"/>
<stop offset="0.2454" stop-color="#F12817" stop-opacity="0.245"/>
<stop offset="0.6052" stop-color="#DD2820" stop-opacity="0.605"/>
<stop offset="1" stop-color="#C0272D"/>
</linearGradient>
<linearGradient id="paint36_linear" x1="68.3224" y1="126.645" x2="70.3005" y2="123.469" gradientUnits="userSpaceOnUse">
<stop stop-color="#F82814" stop-opacity="0"/>
<stop offset="0.2454" stop-color="#F12817" stop-opacity="0.245"/>
<stop offset="0.6052" stop-color="#DD2820" stop-opacity="0.605"/>
<stop offset="1" stop-color="#C0272D"/>
</linearGradient>
<linearGradient id="paint37_linear" x1="129.518" y1="95.7002" x2="134.591" y2="87.5551" gradientUnits="userSpaceOnUse">
<stop stop-color="#F82814" stop-opacity="0"/>
<stop offset="0.2454" stop-color="#F12817" stop-opacity="0.245"/>
<stop offset="0.6052" stop-color="#DD2820" stop-opacity="0.605"/>
<stop offset="1" stop-color="#C0272D"/>
</linearGradient>
<linearGradient id="paint38_linear" x1="123.511" y1="94.0012" x2="127.516" y2="87.5711" gradientUnits="userSpaceOnUse">
<stop stop-color="#F82814" stop-opacity="0"/>
<stop offset="0.2454" stop-color="#F12817" stop-opacity="0.245"/>
<stop offset="0.6052" stop-color="#DD2820" stop-opacity="0.605"/>
<stop offset="1" stop-color="#C0272D"/>
</linearGradient>
<linearGradient id="paint39_linear" x1="125.806" y1="100.057" x2="128.221" y2="96.18" gradientUnits="userSpaceOnUse">
<stop stop-color="#F82814" stop-opacity="0"/>
<stop offset="0.2454" stop-color="#F12817" stop-opacity="0.245"/>
<stop offset="0.6052" stop-color="#DD2820" stop-opacity="0.605"/>
<stop offset="1" stop-color="#C0272D"/>
</linearGradient>
<linearGradient id="paint40_linear" x1="123.961" y1="41.2283" x2="129.295" y2="47.0708" gradientUnits="userSpaceOnUse">
<stop stop-color="#FF6359"/>
<stop offset="0.2243" stop-color="#FE5B50"/>
<stop offset="0.5952" stop-color="#FC4637"/>
<stop offset="1" stop-color="#F82814"/>
</linearGradient>
<linearGradient id="paint41_linear" x1="132.01" y1="46.1675" x2="128.898" y2="70.1346" gradientUnits="userSpaceOnUse">
<stop stop-color="#FF6359"/>
<stop offset="0.2243" stop-color="#FE5B50"/>
<stop offset="0.5952" stop-color="#FC4637"/>
<stop offset="1" stop-color="#F82814"/>
</linearGradient>
<clipPath id="clip0">
<rect width="150" height="150" fill="white" transform="translate(0.31543)"/>
</clipPath>
</defs>
</svg>
