<svg width="232" height="201" viewBox="0 0 232 201" fill="none" xmlns="http://www.w3.org/2000/svg">
<path d="M200.214 30.2646V31.7646H201.714H201.736C217.552 31.7646 230.5 44.7123 230.5 60.5312C230.5 76.3481 217.552 89.2958 201.736 89.2958H161.433H159.933V90.7958C159.933 106.613 146.985 119.56 131.168 119.56H61.1881C45.3712 119.56 32.4235 106.613 32.4235 90.7958V89.2958H30.9235H30.6978C14.8809 89.2958 1.93323 76.3481 1.93323 60.5312C1.93323 44.7123 14.881 31.7646 30.6978 31.7646H71.2044H72.7044V30.2646C72.7044 14.4477 85.6521 1.5 101.469 1.5H171.449C187.266 1.5 200.214 14.4477 200.214 30.2646Z" fill="#FFFFFE" stroke="#DBDCD6" stroke-width="3"/>
<path fill-rule="evenodd" clip-rule="evenodd" d="M201.736 30.2646H201.714C201.714 13.6193 188.095 0 171.449 0H116.217V121.06H131.168C147.814 121.06 161.433 107.441 161.433 90.7958H201.736C218.381 90.7958 232 77.1765 232 60.5312C232 43.8839 218.381 30.2646 201.736 30.2646Z" fill="#DBDCD6"/>
<path fill-rule="evenodd" clip-rule="evenodd" d="M122.709 44.0055H167.861C169.996 44.0055 171.433 46.1936 170.581 48.1521L148.15 99.8308C147.299 101.789 148.735 103.977 150.87 103.977H162.676C164.949 103.977 166.377 106.43 165.255 108.407L113.282 199.989C112.163 201.964 109.143 200.804 109.632 198.588L124.466 131.306C124.874 129.456 123.465 127.703 121.569 127.703H105.872C103.98 127.703 102.573 125.957 102.973 124.11L119.811 46.3427C120.107 44.9789 121.314 44.0055 122.709 44.0055Z" fill="#F0A64D"/>
<path fill-rule="evenodd" clip-rule="evenodd" d="M170.581 48.1521C171.433 46.1936 169.996 44.0055 167.861 44.0055H136.866V158.429L165.255 108.407C166.377 106.43 164.949 103.977 162.676 103.977H150.87C148.735 103.977 147.299 101.789 148.15 99.8308L170.581 48.1521Z" fill="#EB8C3C"/>
</svg>
