<svg width="21" height="20" viewBox="0 0 21 20" fill="none" xmlns="http://www.w3.org/2000/svg">
<path d="M19.2922 9.50003C19.2955 10.8199 18.9941 12.1219 18.4124 13.3C17.7227 14.7118 16.6624 15.8992 15.3502 16.7293C14.0381 17.5594 12.5259 17.9994 10.9832 18C9.69296 18.0035 8.4202 17.6951 7.26856 17.1L1.69666 19L3.55396 13.3C2.97226 12.1219 2.67082 10.8199 2.67418 9.50003C2.67478 7.92179 3.10489 6.37488 3.91635 5.03258C4.7278 3.69028 5.88854 2.6056 7.26856 1.90003C8.4202 1.30496 9.69296 0.996587 10.9832 1.00003H11.4719C13.5094 1.11502 15.4339 1.99479 16.8768 3.47089C18.3197 4.94699 19.1797 6.91568 19.2922 9.00003V9.50003Z" stroke="#6A7889" stroke-width="2" stroke-linecap="round" stroke-linejoin="round"/>
</svg>
