<svg width="12" height="8" viewBox="0 0 12 8" fill="none" xmlns="http://www.w3.org/2000/svg">
<mask id="path-1-outside-1" maskUnits="userSpaceOnUse" x="0" y="0" width="12" height="8" fill="black">
<rect fill="white" width="12" height="8"/>
<path fill-rule="evenodd" clip-rule="evenodd" d="M4.79823 5.5573L2.67104 3.66554C2.31384 3.34787 2.31384 2.78966 2.67104 2.47199C2.97368 2.20285 3.42986 2.20285 3.7325 2.47199L5.33545 3.89754C5.7144 4.23455 6.2856 4.23455 6.66455 3.89754L8.2675 2.47199C8.57014 2.20285 9.02632 2.20285 9.32896 2.47199C9.68616 2.78966 9.68616 3.34787 9.32896 3.66554L7.20177 5.5573C6.53805 6.14756 5.46195 6.14757 4.79823 5.5573Z"/>
</mask>
<path fill-rule="evenodd" clip-rule="evenodd" d="M4.79823 5.5573L2.67104 3.66554C2.31384 3.34787 2.31384 2.78966 2.67104 2.47199C2.97368 2.20285 3.42986 2.20285 3.7325 2.47199L5.33545 3.89754C5.7144 4.23455 6.2856 4.23455 6.66455 3.89754L8.2675 2.47199C8.57014 2.20285 9.02632 2.20285 9.32896 2.47199C9.68616 2.78966 9.68616 3.34787 9.32896 3.66554L7.20177 5.5573C6.53805 6.14756 5.46195 6.14757 4.79823 5.5573Z" fill="#3E5067"/>
<path fill-rule="evenodd" clip-rule="evenodd" d="M4.79823 5.5573L2.67104 3.66554C2.31384 3.34787 2.31384 2.78966 2.67104 2.47199C2.97368 2.20285 3.42986 2.20285 3.7325 2.47199L5.33545 3.89754C5.7144 4.23455 6.2856 4.23455 6.66455 3.89754L8.2675 2.47199C8.57014 2.20285 9.02632 2.20285 9.32896 2.47199C9.68616 2.78966 9.68616 3.34787 9.32896 3.66554L7.20177 5.5573C6.53805 6.14756 5.46195 6.14757 4.79823 5.5573Z" stroke="white" stroke-width="4" mask="url(#path-1-outside-1)"/>
</svg>
