<svg width="18" height="18" viewBox="0 0 18 18" fill="none" xmlns="http://www.w3.org/2000/svg">
<ellipse cx="9.00005" cy="9" rx="9.00005" ry="9" fill="#7BF1A8"/>
<g clip-path="url(#clip0)">
<path d="M14.8327 8.46334V9C14.832 10.2579 14.4247 11.4819 13.6715 12.4894C12.9183 13.4969 11.8596 14.2339 10.6533 14.5906C9.44705 14.9473 8.15778 14.9044 6.97781 14.4685C5.79784 14.0326 4.79041 13.2269 4.10575 12.1716C3.42109 11.1164 3.09589 9.86804 3.17866 8.61285C3.26143 7.35766 3.74772 6.16286 4.56502 5.20663C5.38232 4.2504 6.48683 3.58398 7.71382 3.30675C8.94081 3.02953 10.2245 3.15637 11.3736 3.66834" stroke="white" stroke-width="2" stroke-linecap="round" stroke-linejoin="round"/>
<path d="M14.8329 4.33331L8.99952 10.1725L7.24951 8.42248" stroke="white" stroke-width="2" stroke-linecap="round" stroke-linejoin="round"/>
</g>
<defs>
<clipPath id="clip0">
<rect width="14.0001" height="14" fill="white" transform="translate(1.99951 2)"/>
</clipPath>
</defs>
</svg>
