<svg width="12" height="12" viewBox="0 0 12 12" fill="none" xmlns="http://www.w3.org/2000/svg">
<g clip-path="url(#clip0)">
<path d="M11.572 4.27044L8.03152 3.75594L6.45002 0.549943C6.40404 0.471872 6.33848 0.407155 6.25982 0.362192C6.18116 0.31723 6.09212 0.293579 6.00152 0.293579C5.91092 0.293579 5.82188 0.31723 5.74322 0.362192C5.66456 0.407155 5.599 0.471872 5.55302 0.549943L3.96852 3.75594L0.42802 4.27044C0.33569 4.28377 0.24893 4.32266 0.177548 4.38272C0.106166 4.44278 0.0530094 4.52161 0.0240876 4.6103C-0.00483423 4.69899 -0.00836763 4.794 0.0138869 4.88459C0.0361413 4.97519 0.0832961 5.05775 0.15002 5.12294L2.71252 7.61994L2.10802 11.1464C2.09227 11.2384 2.10255 11.3329 2.13771 11.4193C2.17287 11.5057 2.23151 11.5806 2.30698 11.6354C2.38246 11.6902 2.47178 11.7229 2.56483 11.7296C2.65787 11.7363 2.75095 11.7169 2.83352 11.6734L6.00002 10.0089L9.16652 11.6734C9.24909 11.7169 9.34217 11.7363 9.43521 11.7296C9.52826 11.7229 9.61758 11.6902 9.69306 11.6354C9.76853 11.5806 9.82717 11.5057 9.86233 11.4193C9.89749 11.3329 9.90777 11.2384 9.89202 11.1464L9.28752 7.61994L11.85 5.12294C11.9167 5.05781 11.9639 4.97533 11.9862 4.88481C12.0085 4.79429 12.0051 4.69934 11.9762 4.61068C11.9474 4.52201 11.8944 4.44317 11.8232 4.38305C11.7519 4.32293 11.6653 4.28392 11.573 4.27044H11.572Z" fill="#31465E"/>
</g>
<defs>
<clipPath id="clip0">
<rect width="12" height="12" fill="white"/>
</clipPath>
</defs>
</svg>
