<svg width="24" height="21" viewBox="0 0 24 21" fill="none" xmlns="http://www.w3.org/2000/svg">
<path d="M9.88084 2.85996L1.41084 17C1.23621 17.3024 1.14381 17.6453 1.14283 17.9945C1.14185 18.3437 1.23233 18.6871 1.40527 18.9905C1.5782 19.2939 1.82757 19.5467 2.12855 19.7238C2.42953 19.9009 2.77164 19.9961 3.12084 20H20.0608C20.41 19.9961 20.7522 19.9009 21.0531 19.7238C21.3541 19.5467 21.6035 19.2939 21.7764 18.9905C21.9494 18.6871 22.0398 18.3437 22.0389 17.9945C22.0379 17.6453 21.9455 17.3024 21.7708 17L13.3008 2.85996C13.1226 2.56607 12.8716 2.32308 12.572 2.15444C12.2725 1.98581 11.9346 1.89722 11.5908 1.89722C11.2471 1.89722 10.9092 1.98581 10.6096 2.15444C10.3101 2.32308 10.0591 2.56607 9.88084 2.85996V2.85996Z" stroke="#25282B" stroke-width="2" stroke-linecap="round" stroke-linejoin="round"/>
</svg>
