<svg width="113" height="155" viewBox="0 0 113 155" fill="none" xmlns="http://www.w3.org/2000/svg">
<g clip-path="url(#clip0)">
<path fill-rule="evenodd" clip-rule="evenodd" d="M1.26411 142.667L89.9828 154.081L111.87 11.526L23.1513 0.112732L1.26411 142.667Z" fill="#A05C2E"/>
<path fill-rule="evenodd" clip-rule="evenodd" d="M8.18892 136.38L85.2196 146.29L104.945 17.814L27.9146 7.90436L8.18892 136.38Z" fill="#632A1E"/>
<path fill-rule="evenodd" clip-rule="evenodd" d="M9.57766 134.677L84.3973 144.302L103.556 19.5161L28.7368 9.89087L9.57766 134.677Z" fill="#7D3723"/>
<path fill-rule="evenodd" clip-rule="evenodd" d="M18.031 130.076L45.3756 133.594L53.4401 81.0682L26.0955 77.5504L18.031 130.076Z" fill="#A96B50"/>
<path fill-rule="evenodd" clip-rule="evenodd" d="M45.3755 133.594L18.0309 130.076L20.7427 127.12L43.6571 130.068L45.3755 133.594Z" fill="#8B4427"/>
<path fill-rule="evenodd" clip-rule="evenodd" d="M53.4401 81.0682L26.0955 77.5504L27.8318 81.077L50.7075 84.0198L53.4401 81.0682Z" fill="#B7896B"/>
<path fill-rule="evenodd" clip-rule="evenodd" d="M20.7428 127.12L43.6556 130.068L50.7252 84.0224L27.8124 81.0748L20.7428 127.12Z" fill="#A46437"/>
<path fill-rule="evenodd" clip-rule="evenodd" d="M48.6035 134.009L75.9464 137.526L84.0109 85.001L56.668 81.4834L48.6035 134.009Z" fill="#A96B50"/>
<path fill-rule="evenodd" clip-rule="evenodd" d="M75.9464 137.527L48.6034 134.009L51.3152 131.053L74.2296 134.001L75.9464 137.527Z" fill="#8B4427"/>
<path fill-rule="evenodd" clip-rule="evenodd" d="M84.0109 85.001L56.668 81.4834L58.4043 85.01L81.28 87.9528L84.0109 85.001Z" fill="#B7896B"/>
<path fill-rule="evenodd" clip-rule="evenodd" d="M51.3169 131.053L74.2297 134.001L81.2993 87.9557L58.3865 85.008L51.3169 131.053Z" fill="#A46437"/>
<path fill-rule="evenodd" clip-rule="evenodd" d="M43.6556 130.068L27.8124 81.0748L50.7252 84.0224L43.6556 130.068Z" fill="#AF754C"/>
<path fill-rule="evenodd" clip-rule="evenodd" d="M74.2297 134.001L58.3865 85.008L81.2993 87.9557L74.2297 134.001Z" fill="#AF754C"/>
<path fill-rule="evenodd" clip-rule="evenodd" d="M27.3389 69.4512L54.6835 72.969L62.748 20.4436L35.4034 16.9258L27.3389 69.4512Z" fill="#A96B50"/>
<path fill-rule="evenodd" clip-rule="evenodd" d="M54.6834 72.9702L27.3388 69.4524L30.0507 66.4965L52.9651 69.4444L54.6834 72.9702Z" fill="#8B4427"/>
<path fill-rule="evenodd" clip-rule="evenodd" d="M62.748 20.4436L35.4034 16.9258L37.1395 20.4539L60.0152 23.3968L62.748 20.4436Z" fill="#B7896B"/>
<path fill-rule="evenodd" clip-rule="evenodd" d="M30.0507 66.4964L52.9635 69.444L60.0331 23.3986L37.1203 20.451L30.0507 66.4964Z" fill="#A46437"/>
<path fill-rule="evenodd" clip-rule="evenodd" d="M57.9114 73.3842L85.2544 76.9018L93.3189 24.3765L65.976 20.8589L57.9114 73.3842Z" fill="#A96B50"/>
<path fill-rule="evenodd" clip-rule="evenodd" d="M85.2542 76.903L57.9112 73.3854L60.6231 70.4296L83.5375 73.3774L85.2542 76.903Z" fill="#8B4427"/>
<path fill-rule="evenodd" clip-rule="evenodd" d="M93.3189 24.3765L65.976 20.8589L67.712 24.387L90.5877 27.3298L93.3189 24.3765Z" fill="#B7896B"/>
<path fill-rule="evenodd" clip-rule="evenodd" d="M60.6248 70.4297L83.5376 73.3773L90.6072 27.3319L67.6944 24.3843L60.6248 70.4297Z" fill="#924B2A"/>
<path fill-rule="evenodd" clip-rule="evenodd" d="M52.9635 69.444L37.1203 20.451L60.0331 23.3986L52.9635 69.444Z" fill="#AF754C"/>
<path fill-rule="evenodd" clip-rule="evenodd" d="M60.6248 70.4297L83.5376 73.3773L90.6072 27.3319L67.6944 24.3843L60.6248 70.4297Z" fill="#A46437"/>
<path fill-rule="evenodd" clip-rule="evenodd" d="M83.5376 73.3773L67.6944 24.3843L90.6072 27.3319L83.5376 73.3773Z" fill="#AF754C"/>
<path fill-rule="evenodd" clip-rule="evenodd" d="M91.1036 90.3332L86.0779 89.6866C85.6695 89.6341 85.3852 89.2886 85.4426 88.9147L87.0705 78.3118C87.1279 77.9379 87.5053 77.6776 87.9136 77.7301L92.9393 78.3766C93.3477 78.4292 93.632 78.7747 93.5746 79.1485L91.9467 89.7514C91.8893 90.1253 91.5119 90.3857 91.1036 90.3332Z" fill="#9B6E2F"/>
<path fill-rule="evenodd" clip-rule="evenodd" d="M91.3176 89.3466L86.7099 88.7538C86.3355 88.7057 86.0747 88.3888 86.1273 88.046L87.6198 78.3253C87.6724 77.9825 88.0185 77.7437 88.3929 77.7919L93.0007 78.3846C93.3751 78.4328 93.6358 78.7496 93.5832 79.0925L92.0907 88.8132C92.0381 89.156 91.692 89.3948 91.3176 89.3466Z" fill="#BB933F"/>
<path fill-rule="evenodd" clip-rule="evenodd" d="M92.6209 82.1336C92.4269 83.397 91.1531 84.276 89.7748 84.0987C88.3949 83.9211 87.435 82.7549 87.629 81.4914C87.8228 80.2294 89.0966 79.3505 90.4765 79.528C91.8548 79.7053 92.8147 80.8716 92.6209 82.1336Z" fill="#A77E35"/>
<path fill-rule="evenodd" clip-rule="evenodd" d="M92.0561 82.0607C91.9061 83.0375 90.9197 83.7168 89.8545 83.5798C88.7877 83.4425 88.0456 82.5409 88.1956 81.5641C88.3454 80.5888 89.3302 79.9092 90.397 80.0465C91.4622 80.1835 92.2058 81.0854 92.0561 82.0607Z" fill="#BB933F"/>
<path fill-rule="evenodd" clip-rule="evenodd" d="M91.303 83.2345C92.1578 82.6407 92.3291 81.525 91.6827 80.7396C91.035 79.9526 89.8165 79.7958 88.9575 80.3845L91.303 83.2345Z" fill="#C9AB64"/>
<path fill-rule="evenodd" clip-rule="evenodd" d="M90.3093 85.6021C90.3674 85.2238 90.0791 84.8718 89.6643 84.8184C89.2495 84.7651 88.8648 85.0305 88.8067 85.4088C88.7609 85.7073 88.9273 85.9849 89.2014 86.1181L88.5027 87.4749L89.9794 87.6649L89.7179 86.1846C90.0199 86.1255 90.2635 85.9006 90.3093 85.6021Z" fill="#1E2721"/>
</g>
<defs>
<clipPath id="clip0">
<rect width="91.1242" height="145.022" fill="white" transform="matrix(0.991826 0.127595 -0.151757 0.988418 22.509 0.0300293)"/>
</clipPath>
</defs>
</svg>
