<svg width="151" height="151" viewBox="0 0 151 151" fill="none" xmlns="http://www.w3.org/2000/svg">
<g clip-path="url(#clip0)">
<path d="M150.43 74.8371C150.43 95.683 0.429688 95.683 0.429688 74.8371C0.429688 53.9912 34.0082 37.0924 75.4297 37.0924C116.851 37.0924 150.43 53.9912 150.43 74.8371Z" fill="url(#paint0_linear)"/>
<path d="M0.429688 74.837C0.429688 95.6829 150.43 95.6829 150.43 74.837C150.43 70.9903 149.283 67.2785 147.158 63.7817H3.70175C1.57645 67.2785 0.429688 70.9903 0.429688 74.837Z" fill="url(#paint1_linear)"/>
<path d="M68.189 37.2642C67.9801 37.4142 67.7684 37.5642 67.5566 37.7142C60.8301 42.5289 55.2184 47.67 51.3978 52.2524C50.4331 53.4083 49.0742 53.973 47.7037 53.973C46.1566 53.973 44.5948 53.2495 43.5772 51.8318C42.3007 50.0465 42.286 47.6612 43.5537 45.9348C44.2392 45.0009 45.0119 44.035 45.8648 43.0456C47.8692 40.7206 50.6328 39.1659 53.6678 38.7036C58.3316 37.993 63.1881 37.5045 68.189 37.2642Z" fill="url(#paint2_linear)"/>
<path d="M89.4628 37.7523C82.7628 42.5553 77.1686 47.6818 73.3569 52.2523C72.3951 53.4082 71.0363 53.9729 69.6657 53.9729C68.1157 53.9729 66.5539 53.2494 65.5392 51.8318C64.2598 50.0465 64.248 47.6612 65.5157 45.9347C67.2589 43.5594 69.5651 40.9788 72.3236 38.3306C73.153 37.5341 74.2625 37.0906 75.4122 37.0906H75.4301C80.2275 37.0906 84.9186 37.317 89.4628 37.7523Z" fill="url(#paint3_linear)"/>
<path d="M107.491 40.7053C102.529 44.6111 98.3559 48.6082 95.3177 52.2523C94.353 53.4082 92.9942 53.9729 91.6236 53.9729C90.0765 53.9729 88.5148 53.2494 87.4971 51.8317C86.2206 50.0464 86.2059 47.6611 87.4736 45.9347C88.5506 44.4667 89.8427 42.9206 91.3239 41.3282C93.1286 39.3879 95.7892 38.4703 98.4051 38.8941C101.528 39.4 104.561 40.0067 107.491 40.7053Z" fill="url(#paint4_linear)"/>
<g opacity="0.6">
<g opacity="0.6">
<path opacity="0.6" d="M23.6926 68.4603C25.2643 68.4603 26.5384 67.1862 26.5384 65.6144C26.5384 64.0427 25.2643 62.7686 23.6926 62.7686C22.1208 62.7686 20.8467 64.0427 20.8467 65.6144C20.8467 67.1862 22.1208 68.4603 23.6926 68.4603Z" fill="url(#paint5_linear)"/>
<path opacity="0.6" d="M15.8972 72.4777C17.138 72.4777 18.1439 71.4718 18.1439 70.2309C18.1439 68.99 17.138 67.9841 15.8972 67.9841C14.6563 67.9841 13.6504 68.99 13.6504 70.2309C13.6504 71.4718 14.6563 72.4777 15.8972 72.4777Z" fill="url(#paint6_linear)"/>
<path opacity="0.6" d="M24.1083 77.2466C24.8563 77.2466 25.4627 76.6402 25.4627 75.8921C25.4627 75.1441 24.8563 74.5377 24.1083 74.5377C23.3603 74.5377 22.7539 75.1441 22.7539 75.8921C22.7539 76.6402 23.3603 77.2466 24.1083 77.2466Z" fill="url(#paint7_linear)"/>
</g>
<g opacity="0.6">
<path opacity="0.6" d="M36.6117 75.7274C37.7732 75.7274 38.7147 74.7859 38.7147 73.6244C38.7147 72.463 37.7732 71.5215 36.6117 71.5215C35.4503 71.5215 34.5088 72.463 34.5088 73.6244C34.5088 74.7859 35.4503 75.7274 36.6117 75.7274Z" fill="url(#paint8_linear)"/>
<path opacity="0.6" d="M30.2287 73.2655C31.1456 73.2655 31.889 72.5222 31.889 71.6052C31.889 70.6883 31.1456 69.9449 30.2287 69.9449C29.3117 69.9449 28.5684 70.6883 28.5684 71.6052C28.5684 72.5222 29.3117 73.2655 30.2287 73.2655Z" fill="url(#paint9_linear)"/>
<path opacity="0.6" d="M31.1562 79.9169C31.7089 79.9169 32.157 79.4688 32.157 78.916C32.157 78.3633 31.7089 77.9152 31.1562 77.9152C30.6034 77.9152 30.1553 78.3633 30.1553 78.916C30.1553 79.4688 30.6034 79.9169 31.1562 79.9169Z" fill="url(#paint10_linear)"/>
</g>
<g opacity="0.6">
<path opacity="0.6" d="M123.194 66.4106C124.355 66.4106 125.297 65.4691 125.297 64.3076C125.297 63.1462 124.355 62.2047 123.194 62.2047C122.032 62.2047 121.091 63.1462 121.091 64.3076C121.091 65.4691 122.032 66.4106 123.194 66.4106Z" fill="url(#paint11_linear)"/>
<path opacity="0.6" d="M116.811 63.9491C117.728 63.9491 118.471 63.2058 118.471 62.2888C118.471 61.3719 117.728 60.6285 116.811 60.6285C115.894 60.6285 115.15 61.3719 115.15 62.2888C115.15 63.2058 115.894 63.9491 116.811 63.9491Z" fill="url(#paint12_linear)"/>
<path opacity="0.6" d="M117.738 70.6006C118.291 70.6006 118.739 70.1525 118.739 69.5998C118.739 69.047 118.291 68.5989 117.738 68.5989C117.185 68.5989 116.737 69.047 116.737 69.5998C116.737 70.1525 117.185 70.6006 117.738 70.6006Z" fill="url(#paint13_linear)"/>
</g>
</g>
<path d="M84.3708 90.372L68.546 74.5473C65.1566 71.0114 60.9081 68.6341 56.0049 68.3809C54.1049 68.4897 52.2402 68.6926 50.4225 68.9897C37.7131 71.0417 27.1319 77.4732 21.5352 86.1088C37.9696 89.4553 61.7207 90.8764 84.3708 90.372Z" fill="url(#paint14_linear)"/>
<path d="M48.0422 112.198C46.0011 112.478 44.1628 112.548 42.5128 112.433C41.6511 112.33 40.8011 112.216 39.9658 112.089C27.0481 110.189 17.2334 106.222 17.2334 100.195C17.2334 84.8599 31.4599 72.0511 50.4216 68.9893C52.2393 68.6923 54.104 68.4893 56.004 68.3805C67.3981 68.9687 75.2599 81.0217 77.0099 92.4481C78.3511 101.219 77.3981 108.186 48.0422 112.198Z" fill="url(#paint15_linear)"/>
<path d="M77.0099 92.4482C76.6131 89.8579 75.9014 87.2355 74.9064 84.7217C73.6649 90.4193 67.4478 94.9749 45.8363 97.9282C43.7952 98.2076 41.9569 98.2782 40.3069 98.1634C39.4452 98.0605 38.5952 97.9458 37.7599 97.8193C29.6175 96.6217 22.7113 94.6017 18.7155 91.7634C17.7502 94.4493 17.2334 97.2764 17.2334 100.195C17.2334 106.221 27.0481 110.189 39.9658 112.089C40.8011 112.216 41.6511 112.33 42.5128 112.433C44.1628 112.548 46.0011 112.477 48.0422 112.198C77.3981 108.186 78.3511 101.219 77.0099 92.4482Z" fill="url(#paint16_linear)"/>
<path d="M77.009 92.449C74.8364 78.2581 63.2399 63.1049 47.1543 70.134C31.0687 77.1631 18.684 116.209 48.0414 112.198C77.3987 108.186 78.352 101.219 77.009 92.449Z" fill="url(#paint17_linear)"/>
<path d="M77.0085 92.4491C75.7129 83.987 71.0659 75.1838 64.1147 70.9449C63.9291 71.387 63.6271 71.7629 63.2397 72.0402C63.2276 72.0488 63.2132 72.0576 63.1968 72.0667C61.6323 72.9126 60.8882 74.7008 61.4697 76.5982C62.022 78.4005 62.3609 80.3929 61.6829 81.4747L61.6726 81.4911C60.7718 82.9279 60.5997 84.7864 61.2003 86.5961L61.2373 86.7079C62.1565 89.4779 61.2397 92.2402 58.975 93.5244L58.9256 93.5523C57.4182 94.407 56.4697 95.9453 56.3279 97.765L56.3197 97.8708C56.1085 100.581 54.1285 102.561 51.4182 102.772L51.3123 102.78C49.4926 102.922 47.9544 103.871 47.1 105.378L47.0723 105.426C45.7882 107.692 43.0256 108.609 40.255 107.69L40.1435 107.653C38.3341 107.052 36.4762 107.224 35.0394 108.124L35.0206 108.136C34.5938 108.403 34.1335 108.604 33.6523 108.741C36.422 111.66 41.0435 113.154 48.0409 112.198C77.3985 108.187 78.3515 101.219 77.0085 92.4491Z" fill="url(#paint18_linear)"/>
<g opacity="0.6">
<g opacity="0.6">
<path opacity="0.6" d="M63.2407 80.8961C63.9286 80.8961 64.4863 80.3384 64.4863 79.6505C64.4863 78.9626 63.9286 78.4049 63.2407 78.4049C62.5528 78.4049 61.9951 78.9626 61.9951 79.6505C61.9951 80.3384 62.5528 80.8961 63.2407 80.8961Z" fill="url(#paint19_linear)"/>
<path opacity="0.6" d="M66.6522 78.6134C67.1952 78.6134 67.6354 78.1732 67.6354 77.6302C67.6354 77.0872 67.1952 76.647 66.6522 76.647C66.1092 76.647 65.6689 77.0872 65.6689 77.6302C65.6689 78.1732 66.1092 78.6134 66.6522 78.6134Z" fill="url(#paint20_linear)"/>
<path opacity="0.6" d="M63.0585 75.7455C63.3858 75.7455 63.6511 75.4801 63.6511 75.1528C63.6511 74.8255 63.3858 74.5602 63.0585 74.5602C62.7312 74.5602 62.4658 74.8255 62.4658 75.1528C62.4658 75.4801 62.7312 75.7455 63.0585 75.7455Z" fill="url(#paint21_linear)"/>
</g>
<g opacity="0.6">
<path opacity="0.6" d="M57.5873 77.0654C58.0956 77.0654 58.5076 76.6534 58.5076 76.1451C58.5076 75.6369 58.0956 75.2249 57.5873 75.2249C57.079 75.2249 56.667 75.6369 56.667 76.1451C56.667 76.6534 57.079 77.0654 57.5873 77.0654Z" fill="url(#paint22_linear)"/>
<path opacity="0.6" d="M60.3798 77.7552C60.781 77.7552 61.1063 77.4299 61.1063 77.0287C61.1063 76.6275 60.781 76.3022 60.3798 76.3022C59.9786 76.3022 59.6533 76.6275 59.6533 77.0287C59.6533 77.4299 59.9786 77.7552 60.3798 77.7552Z" fill="url(#paint23_linear)"/>
<path opacity="0.6" d="M59.9751 74.2672C60.2169 74.2672 60.413 74.0712 60.413 73.8293C60.413 73.5874 60.2169 73.3914 59.9751 73.3914C59.7332 73.3914 59.5371 73.5874 59.5371 73.8293C59.5371 74.0712 59.7332 74.2672 59.9751 74.2672Z" fill="url(#paint24_linear)"/>
</g>
<g opacity="0.6">
<path opacity="0.6" d="M37.2943 105.766C37.8026 105.766 38.2146 105.354 38.2146 104.846C38.2146 104.338 37.8026 103.926 37.2943 103.926C36.7861 103.926 36.374 104.338 36.374 104.846C36.374 105.354 36.7861 105.766 37.2943 105.766Z" fill="url(#paint25_linear)"/>
<path opacity="0.6" d="M40.0878 106.456C40.489 106.456 40.8143 106.13 40.8143 105.729C40.8143 105.328 40.489 105.003 40.0878 105.003C39.6866 105.003 39.3613 105.328 39.3613 105.729C39.3613 106.13 39.6866 106.456 40.0878 106.456Z" fill="url(#paint26_linear)"/>
<path opacity="0.6" d="M39.6821 102.968C39.924 102.968 40.12 102.772 40.12 102.53C40.12 102.288 39.924 102.092 39.6821 102.092C39.4402 102.092 39.2441 102.288 39.2441 102.53C39.2441 102.772 39.4402 102.968 39.6821 102.968Z" fill="url(#paint27_linear)"/>
</g>
</g>
<path d="M94.1863 93.1212C93.9301 93.1124 93.6739 93.1382 93.4251 93.2006C91.4716 93.6903 82.201 96.2838 81.906 101.479C81.7222 104.715 87.068 105.716 91.8395 105.967C96.1969 106.197 99.9566 103.874 100.212 100.803C100.501 97.3235 99.638 93.3082 94.1863 93.1212Z" fill="url(#paint28_linear)"/>
<path d="M94.1863 93.1212C93.9301 93.1124 93.6739 93.1382 93.4251 93.2006C91.4716 93.6903 82.201 96.2838 81.906 101.479C81.7222 104.715 87.068 105.716 91.8395 105.967C96.1966 106.197 99.638 93.3082 94.1863 93.1212Z" fill="url(#paint29_linear)"/>
<path d="M102.54 111.147C102.54 113.539 93.876 113.539 93.876 111.147C93.876 108.754 95.8157 106.815 98.208 106.815C100.601 106.814 102.54 108.754 102.54 111.147Z" fill="url(#paint30_linear)"/>
</g>
<defs>
<linearGradient id="paint0_linear" x1="67.6017" y1="44.3048" x2="81.6206" y2="97.2148" gradientUnits="userSpaceOnUse">
<stop stop-color="#FAA68E"/>
<stop offset="0.2061" stop-color="#FBA682"/>
<stop offset="0.5808" stop-color="#FDA861"/>
<stop offset="1" stop-color="#FFA936"/>
</linearGradient>
<linearGradient id="paint1_linear" x1="75.4297" y1="73.87" x2="75.4297" y2="98.2511" gradientUnits="userSpaceOnUse">
<stop stop-color="#F82814" stop-opacity="0"/>
<stop offset="0.2743" stop-color="#F42816" stop-opacity="0.274"/>
<stop offset="0.536" stop-color="#E9281B" stop-opacity="0.536"/>
<stop offset="0.7918" stop-color="#D62723" stop-opacity="0.792"/>
<stop offset="1" stop-color="#C0272D"/>
</linearGradient>
<linearGradient id="paint2_linear" x1="59.509" y1="48.0633" x2="43.3107" y2="32.6459" gradientUnits="userSpaceOnUse">
<stop stop-color="#F82814" stop-opacity="0"/>
<stop offset="0.4703" stop-color="#E0281F" stop-opacity="0.47"/>
<stop offset="1" stop-color="#C0272D"/>
</linearGradient>
<linearGradient id="paint3_linear" x1="81.5866" y1="48.3882" x2="63.9395" y2="33.2903" gradientUnits="userSpaceOnUse">
<stop stop-color="#F82814" stop-opacity="0"/>
<stop offset="0.4703" stop-color="#E0281F" stop-opacity="0.47"/>
<stop offset="1" stop-color="#C0272D"/>
</linearGradient>
<linearGradient id="paint4_linear" x1="101.776" y1="49.0508" x2="83.1489" y2="38.0702" gradientUnits="userSpaceOnUse">
<stop stop-color="#F82814" stop-opacity="0"/>
<stop offset="0.4703" stop-color="#E0281F" stop-opacity="0.47"/>
<stop offset="1" stop-color="#C0272D"/>
</linearGradient>
<linearGradient id="paint5_linear" x1="23.8718" y1="69.9368" x2="21.7807" y2="56.6298" gradientUnits="userSpaceOnUse">
<stop stop-color="#F82814" stop-opacity="0"/>
<stop offset="0.2454" stop-color="#F12817" stop-opacity="0.245"/>
<stop offset="0.6052" stop-color="#DD2820" stop-opacity="0.605"/>
<stop offset="1" stop-color="#C0272D"/>
</linearGradient>
<linearGradient id="paint6_linear" x1="15.9329" y1="73.6485" x2="14.2821" y2="63.143" gradientUnits="userSpaceOnUse">
<stop stop-color="#F82814" stop-opacity="0"/>
<stop offset="0.2454" stop-color="#F12817" stop-opacity="0.245"/>
<stop offset="0.6052" stop-color="#DD2820" stop-opacity="0.605"/>
<stop offset="1" stop-color="#C0272D"/>
</linearGradient>
<linearGradient id="paint7_linear" x1="23.9306" y1="77.9714" x2="22.9353" y2="71.638" gradientUnits="userSpaceOnUse">
<stop stop-color="#F82814" stop-opacity="0"/>
<stop offset="0.2454" stop-color="#F12817" stop-opacity="0.245"/>
<stop offset="0.6052" stop-color="#DD2820" stop-opacity="0.605"/>
<stop offset="1" stop-color="#C0272D"/>
</linearGradient>
<linearGradient id="paint8_linear" x1="34.3792" y1="75.8992" x2="40.675" y2="68.1912" gradientUnits="userSpaceOnUse">
<stop stop-color="#F82814" stop-opacity="0"/>
<stop offset="0.2454" stop-color="#F12817" stop-opacity="0.245"/>
<stop offset="0.6052" stop-color="#DD2820" stop-opacity="0.605"/>
<stop offset="1" stop-color="#C0272D"/>
</linearGradient>
<linearGradient id="paint9_linear" x1="28.4236" y1="73.3567" x2="33.3941" y2="67.2717" gradientUnits="userSpaceOnUse">
<stop stop-color="#F82814" stop-opacity="0"/>
<stop offset="0.2454" stop-color="#F12817" stop-opacity="0.245"/>
<stop offset="0.6052" stop-color="#DD2820" stop-opacity="0.605"/>
<stop offset="1" stop-color="#C0272D"/>
</linearGradient>
<linearGradient id="paint10_linear" x1="29.984" y1="79.8893" x2="32.9807" y2="76.2208" gradientUnits="userSpaceOnUse">
<stop stop-color="#F82814" stop-opacity="0"/>
<stop offset="0.2454" stop-color="#F12817" stop-opacity="0.245"/>
<stop offset="0.6052" stop-color="#DD2820" stop-opacity="0.605"/>
<stop offset="1" stop-color="#C0272D"/>
</linearGradient>
<linearGradient id="paint11_linear" x1="120.951" y1="66.607" x2="127.248" y2="58.8992" gradientUnits="userSpaceOnUse">
<stop stop-color="#F82814" stop-opacity="0"/>
<stop offset="0.2454" stop-color="#F12817" stop-opacity="0.245"/>
<stop offset="0.6052" stop-color="#DD2820" stop-opacity="0.605"/>
<stop offset="1" stop-color="#C0272D"/>
</linearGradient>
<linearGradient id="paint12_linear" x1="114.996" y1="64.0646" x2="119.967" y2="57.9798" gradientUnits="userSpaceOnUse">
<stop stop-color="#F82814" stop-opacity="0"/>
<stop offset="0.2454" stop-color="#F12817" stop-opacity="0.245"/>
<stop offset="0.6052" stop-color="#DD2820" stop-opacity="0.605"/>
<stop offset="1" stop-color="#C0272D"/>
</linearGradient>
<linearGradient id="paint13_linear" x1="116.556" y1="70.5976" x2="119.553" y2="66.9291" gradientUnits="userSpaceOnUse">
<stop stop-color="#F82814" stop-opacity="0"/>
<stop offset="0.2454" stop-color="#F12817" stop-opacity="0.245"/>
<stop offset="0.6052" stop-color="#DD2820" stop-opacity="0.605"/>
<stop offset="1" stop-color="#C0272D"/>
</linearGradient>
<linearGradient id="paint14_linear" x1="77.7219" y1="113.006" x2="34.9787" y2="70.262" gradientUnits="userSpaceOnUse">
<stop stop-color="#F82814" stop-opacity="0"/>
<stop offset="0.3805" stop-color="#E6281C" stop-opacity="0.381"/>
<stop offset="1" stop-color="#C0272D"/>
</linearGradient>
<linearGradient id="paint15_linear" x1="48.5446" y1="92.4196" x2="44.2799" y2="110.214" gradientUnits="userSpaceOnUse">
<stop stop-color="#FAA68E"/>
<stop offset="0.2061" stop-color="#FBA682"/>
<stop offset="0.5808" stop-color="#FDA861"/>
<stop offset="1" stop-color="#FFA936"/>
</linearGradient>
<linearGradient id="paint16_linear" x1="43.6996" y1="107.803" x2="39.729" y2="119.421" gradientUnits="userSpaceOnUse">
<stop stop-color="#F82814" stop-opacity="0"/>
<stop offset="0.3805" stop-color="#E6281C" stop-opacity="0.381"/>
<stop offset="1" stop-color="#C0272D"/>
</linearGradient>
<linearGradient id="paint17_linear" x1="50.2881" y1="81.9671" x2="68.1285" y2="124.504" gradientUnits="userSpaceOnUse">
<stop stop-color="#FFDECF"/>
<stop offset="0.3791" stop-color="#FDC4B0"/>
<stop offset="0.7655" stop-color="#FBAE97"/>
<stop offset="1" stop-color="#FAA68E"/>
</linearGradient>
<linearGradient id="paint18_linear" x1="50.3112" y1="90.9447" x2="100.605" y2="130.651" gradientUnits="userSpaceOnUse">
<stop stop-color="#F82814" stop-opacity="0"/>
<stop offset="0.2454" stop-color="#F12817" stop-opacity="0.245"/>
<stop offset="0.6052" stop-color="#DD2820" stop-opacity="0.605"/>
<stop offset="1" stop-color="#C0272D"/>
</linearGradient>
<linearGradient id="paint19_linear" x1="63.473" y1="77.8484" x2="64.388" y2="83.6719" gradientUnits="userSpaceOnUse">
<stop stop-color="#F82814" stop-opacity="0"/>
<stop offset="0.2454" stop-color="#F12817" stop-opacity="0.245"/>
<stop offset="0.6052" stop-color="#DD2820" stop-opacity="0.605"/>
<stop offset="1" stop-color="#C0272D"/>
</linearGradient>
<linearGradient id="paint20_linear" x1="66.9473" y1="76.224" x2="67.6699" y2="80.8214" gradientUnits="userSpaceOnUse">
<stop stop-color="#F82814" stop-opacity="0"/>
<stop offset="0.2454" stop-color="#F12817" stop-opacity="0.245"/>
<stop offset="0.6052" stop-color="#DD2820" stop-opacity="0.605"/>
<stop offset="1" stop-color="#C0272D"/>
</linearGradient>
<linearGradient id="paint21_linear" x1="63.4473" y1="74.3323" x2="63.8827" y2="77.104" gradientUnits="userSpaceOnUse">
<stop stop-color="#F82814" stop-opacity="0"/>
<stop offset="0.2454" stop-color="#F12817" stop-opacity="0.245"/>
<stop offset="0.6052" stop-color="#DD2820" stop-opacity="0.605"/>
<stop offset="1" stop-color="#C0272D"/>
</linearGradient>
<linearGradient id="paint22_linear" x1="58.6664" y1="75.3438" x2="55.9114" y2="78.7171" gradientUnits="userSpaceOnUse">
<stop stop-color="#F82814" stop-opacity="0"/>
<stop offset="0.2454" stop-color="#F12817" stop-opacity="0.245"/>
<stop offset="0.6052" stop-color="#DD2820" stop-opacity="0.605"/>
<stop offset="1" stop-color="#C0272D"/>
</linearGradient>
<linearGradient id="paint23_linear" x1="61.2719" y1="76.4564" x2="59.0969" y2="79.1193" gradientUnits="userSpaceOnUse">
<stop stop-color="#F82814" stop-opacity="0"/>
<stop offset="0.2454" stop-color="#F12817" stop-opacity="0.245"/>
<stop offset="0.6052" stop-color="#DD2820" stop-opacity="0.605"/>
<stop offset="1" stop-color="#C0272D"/>
</linearGradient>
<linearGradient id="paint24_linear" x1="60.5905" y1="73.5976" x2="59.2791" y2="75.2032" gradientUnits="userSpaceOnUse">
<stop stop-color="#F82814" stop-opacity="0"/>
<stop offset="0.2454" stop-color="#F12817" stop-opacity="0.245"/>
<stop offset="0.6052" stop-color="#DD2820" stop-opacity="0.605"/>
<stop offset="1" stop-color="#C0272D"/>
</linearGradient>
<linearGradient id="paint25_linear" x1="38.3691" y1="104.035" x2="35.6137" y2="107.408" gradientUnits="userSpaceOnUse">
<stop stop-color="#F82814" stop-opacity="0"/>
<stop offset="0.2454" stop-color="#F12817" stop-opacity="0.245"/>
<stop offset="0.6052" stop-color="#DD2820" stop-opacity="0.605"/>
<stop offset="1" stop-color="#C0272D"/>
</linearGradient>
<linearGradient id="paint26_linear" x1="40.9749" y1="105.147" x2="38.8" y2="107.81" gradientUnits="userSpaceOnUse">
<stop stop-color="#F82814" stop-opacity="0"/>
<stop offset="0.2454" stop-color="#F12817" stop-opacity="0.245"/>
<stop offset="0.6052" stop-color="#DD2820" stop-opacity="0.605"/>
<stop offset="1" stop-color="#C0272D"/>
</linearGradient>
<linearGradient id="paint27_linear" x1="40.2926" y1="102.289" x2="38.9811" y2="103.894" gradientUnits="userSpaceOnUse">
<stop stop-color="#F82814" stop-opacity="0"/>
<stop offset="0.2454" stop-color="#F12817" stop-opacity="0.245"/>
<stop offset="0.6052" stop-color="#DD2820" stop-opacity="0.605"/>
<stop offset="1" stop-color="#C0272D"/>
</linearGradient>
<linearGradient id="paint28_linear" x1="90.3148" y1="97.7059" x2="92.8707" y2="105.606" gradientUnits="userSpaceOnUse">
<stop stop-color="#FFDECF"/>
<stop offset="0.3791" stop-color="#FDC4B0"/>
<stop offset="0.7655" stop-color="#FBAE97"/>
<stop offset="1" stop-color="#FAA68E"/>
</linearGradient>
<linearGradient id="paint29_linear" x1="88.078" y1="94.8765" x2="92.7839" y2="109.19" gradientUnits="userSpaceOnUse">
<stop stop-color="#FFDECF"/>
<stop offset="0.3791" stop-color="#FDC4B0"/>
<stop offset="0.7655" stop-color="#FBAE97"/>
<stop offset="1" stop-color="#FAA68E"/>
</linearGradient>
<linearGradient id="paint30_linear" x1="96.2433" y1="106.96" x2="99.9198" y2="114.019" gradientUnits="userSpaceOnUse">
<stop stop-color="#FFDECF"/>
<stop offset="0.3791" stop-color="#FDC4B0"/>
<stop offset="0.7655" stop-color="#FBAE97"/>
<stop offset="1" stop-color="#FAA68E"/>
</linearGradient>
<clipPath id="clip0">
<rect width="150" height="150" fill="white" transform="translate(0.429688 0.0158691)"/>
</clipPath>
</defs>
</svg>
