<svg width="151" height="151" viewBox="0 0 151 151" fill="none" xmlns="http://www.w3.org/2000/svg">
<g clip-path="url(#clip0)">
<path d="M75.108 111.887C56.5116 111.887 39.4451 109.267 26.0771 104.898C28.0004 112.137 31.6136 117.611 36.0689 119.362C46.1242 123.317 59.9045 125.755 75.108 125.755C90.3116 125.755 104.092 123.317 114.147 119.362C118.602 117.61 122.216 112.137 124.139 104.898C110.771 109.267 93.7045 111.887 75.108 111.887Z" fill="url(#paint0_linear)"/>
<path d="M150.108 91.3598C150.108 128.105 0.108398 128.105 0.108398 91.3598C0.108398 54.6151 150.108 54.6151 150.108 91.3598Z" fill="url(#paint1_linear)"/>
<path d="M139.814 88.6651C139.814 114.862 10.4023 114.862 10.4023 88.6651C10.4023 62.4681 139.814 62.4681 139.814 88.6651Z" fill="url(#paint2_linear)"/>
<path d="M150.108 91.3598C150.108 61.3027 49.7444 55.8336 13.2097 74.9495C13.1914 81.5857 13.1717 88.7604 13.1688 89.8736L13.1685 89.9701C13.162 92.3601 14.2394 94.4163 15.9735 95.6913L35.4373 115.155C79.7823 124.451 150.108 116.52 150.108 91.3598Z" fill="url(#paint3_linear)"/>
<path d="M55.856 118.093L38.3069 100.544C37.5125 99.6171 36.3357 99.028 35.0196 99.028C32.6269 99.028 30.6875 100.967 30.6875 103.36C30.6875 103.752 30.9228 104.078 31.3113 104.341L43.5987 116.629C47.5601 117.239 51.6649 117.726 55.856 118.093Z" fill="url(#paint4_linear)"/>
<path d="M80.1563 118.861L57.7266 96.4312C56.8019 95.3201 55.3219 94.5604 53.0251 94.4815C52.7689 94.4727 52.5127 94.4986 52.2639 94.5609C50.3104 95.0507 41.0398 97.6442 40.7448 102.84C40.6901 103.805 41.1298 104.57 41.8969 105.177L54.7089 117.989C62.9819 118.759 71.6127 119.049 80.1563 118.861Z" fill="url(#paint5_linear)"/>
<path d="M137.032 69.8053L137.047 64.5494C137.122 37.0723 123.075 31.2541 117.405 30.0253C116.111 29.7432 114.735 29.7876 113.387 30.1529L19.0271 55.7953C15.698 56.6994 13.2521 59.8053 13.243 63.1414C13.243 63.1414 13.1756 87.7323 13.1698 89.8741L13.1695 89.9705C13.1589 93.8332 15.9742 96.8294 19.8295 97.0526L127.629 103.313C132.503 103.594 136.951 99.4053 136.964 94.5194C136.964 94.5197 137.025 72.3088 137.032 69.8053Z" fill="url(#paint6_linear)"/>
<path d="M117.406 30.0232C116.11 29.7423 114.733 29.7882 113.387 30.1541L19.0267 55.7946C17.8393 56.1173 16.7678 56.7235 15.8755 57.5164L137.045 64.6514L137.046 64.5496C137.122 37.0714 123.075 31.2526 117.406 30.0232Z" fill="url(#paint7_linear)"/>
<path d="M82.516 61.441L15.876 57.516C16.7672 56.7225 17.8398 56.1169 19.0277 55.7936L69.7078 42.0225C69.0945 43.2175 68.7428 44.5533 68.7392 45.9369C68.7325 48.3736 69.8007 50.4336 71.4813 51.6889L82.516 61.441Z" fill="url(#paint8_linear)"/>
<path d="M137.048 64.5504L137.048 64.6513L123.545 63.8566L122.902 63.8189L122.814 63.8118L82.5161 61.4407L71.4813 51.6886C69.8008 50.4333 68.7325 48.3733 68.7393 45.9366C68.7431 44.553 69.0946 43.2171 69.7078 42.0221L92.1375 35.9274L113.388 30.1524C114.733 29.7877 116.11 29.7416 117.407 30.023C123.074 31.2516 137.123 37.0701 137.048 64.5504Z" fill="url(#paint9_linear)"/>
<path d="M126.098 88.6451L126.135 74.9301C126.141 72.6453 124.476 70.8733 122.197 70.7392L13.2388 64.323C13.2253 69.2492 13.1738 88.0145 13.1688 89.8736L13.1685 89.9701C13.167 90.473 13.2147 90.9609 13.3053 91.4303L116.762 97.4386C121.636 97.7198 126.084 93.5309 126.098 88.6451Z" fill="url(#paint10_linear)"/>
<path d="M126.103 86.3802L126.096 88.6449C126.091 90.5114 125.438 92.2779 124.36 93.7297L13.1743 87.2735L13.1946 79.8214L126.103 86.3802Z" fill="url(#paint11_linear)"/>
<path d="M126.134 74.9306L126.114 82.2435L13.2061 75.6876L13.2263 68.2385L126.131 74.7947C126.134 74.8379 126.134 74.8844 126.134 74.9306Z" fill="url(#paint12_linear)"/>
<path d="M116.237 28.0212C114.871 27.7277 113.413 27.7903 111.994 28.1759C110.603 28.5539 110.237 30.3971 111.431 31.0065C117.728 34.2206 125.742 42.035 126.81 61.0221C126.91 62.8003 128.257 64.1336 130.045 64.2389L132.459 64.3439C134.886 64.4495 137.061 62.2871 136.924 59.8798C135.489 34.7539 121.875 29.2318 116.237 28.0212Z" fill="url(#paint13_linear)"/>
<path d="M74.6252 33.0871C76.2273 34.5613 77.0691 36.6554 76.5055 37.7645C75.942 38.8736 74.1864 38.578 72.5847 37.1039C70.9829 35.6298 67.7817 31.3651 68.3449 30.2557C68.9085 29.1466 73.0232 31.613 74.6252 33.0871Z" fill="url(#paint14_linear)"/>
<path d="M77.0756 32.8348C77.4297 35.5418 76.6844 37.8854 75.4112 38.0695C74.1379 38.2536 72.8188 36.2086 72.4647 33.5015C72.1106 30.7945 72.3344 24.4645 73.6076 24.2804C74.8809 24.0965 76.7215 30.128 77.0756 32.8348Z" fill="url(#paint15_linear)"/>
<path d="M90.1803 36.8022C90.6471 41.121 87.6891 44.9827 83.5735 45.4274C79.458 45.8722 75.7432 42.7319 75.2765 38.413C74.8097 34.0942 77.7677 30.2324 81.8832 29.7877C85.9988 29.3427 89.7135 32.4833 90.1803 36.8022Z" fill="url(#paint16_linear)"/>
<path d="M84.8611 31.7513C84.9502 32.5766 84.1922 33.3354 83.1678 33.4463C82.1434 33.5569 81.2408 32.9778 81.1517 32.1522C81.0625 31.3269 81.8205 30.5681 82.8449 30.4572C83.8693 30.3463 84.7719 30.926 84.8611 31.7513Z" fill="url(#paint17_linear)"/>
<path d="M80.8486 33.996C80.8913 34.3895 80.6216 34.7413 80.2466 34.7819C79.8716 34.8225 79.5331 34.5363 79.4907 34.1427C79.4484 33.7492 79.7178 33.3975 80.0928 33.3569C80.4678 33.3163 80.8063 33.6024 80.8486 33.996Z" fill="url(#paint18_linear)"/>
<path d="M84.1182 35.8836C84.1608 36.2772 83.8911 36.6289 83.5161 36.6695C83.1411 36.7101 82.8026 36.4239 82.7602 36.0304C82.7179 35.6369 82.9873 35.2851 83.3623 35.2445C83.737 35.2042 84.0755 35.4901 84.1182 35.8836Z" fill="url(#paint19_linear)"/>
<path d="M82.5016 43.7386C82.9683 48.0575 80.0104 51.9192 75.8948 52.3639C71.7792 52.8086 68.0645 49.6683 67.5978 45.3495C67.131 41.0307 70.0889 37.1689 74.2045 36.7242C78.3201 36.2795 82.0348 39.4198 82.5016 43.7386Z" fill="url(#paint20_linear)"/>
<path d="M77.1824 38.6878C77.2715 39.5131 76.5135 40.2719 75.4891 40.3828C74.4647 40.4934 73.5621 39.9142 73.4729 39.0887C73.3838 38.2631 74.1418 37.5045 75.1662 37.3937C76.1903 37.2831 77.0929 37.8625 77.1824 38.6878Z" fill="url(#paint21_linear)"/>
<path d="M73.1699 40.9321C73.2126 41.3257 72.9429 41.6774 72.5679 41.718C72.1929 41.7586 71.8544 41.4724 71.812 41.0789C71.7696 40.6854 72.0391 40.3336 72.4141 40.293C72.7891 40.2524 73.1276 40.5386 73.1699 40.9321Z" fill="url(#paint22_linear)"/>
<path d="M76.4395 42.8201C76.4821 43.2136 76.2124 43.5654 75.8374 43.606C75.4624 43.6465 75.1239 43.3604 75.0815 42.9668C75.0392 42.5733 75.3086 42.2215 75.6836 42.181C76.0586 42.1404 76.3968 42.4265 76.4395 42.8201Z" fill="url(#paint23_linear)"/>
<g opacity="0.5">
<g opacity="0.5">
<path opacity="0.5" d="M18.4114 73.6997C19.2478 73.6997 19.9258 73.0217 19.9258 72.1853C19.9258 71.3489 19.2478 70.6709 18.4114 70.6709C17.575 70.6709 16.897 71.3489 16.897 72.1853C16.897 73.0217 17.575 73.6997 18.4114 73.6997Z" fill="url(#paint24_linear)"/>
<path opacity="0.5" d="M16.8909 77.9565C17.5512 77.9565 18.0865 77.4212 18.0865 76.7609C18.0865 76.1006 17.5512 75.5653 16.8909 75.5653C16.2306 75.5653 15.6953 76.1006 15.6953 76.7609C15.6953 77.4212 16.2306 77.9565 16.8909 77.9565Z" fill="url(#paint25_linear)"/>
<path opacity="0.5" d="M22.1647 76.89C22.5629 76.89 22.8856 76.5673 22.8856 76.1691C22.8856 75.771 22.5629 75.4482 22.1647 75.4482C21.7666 75.4482 21.4438 75.771 21.4438 76.1691C21.4438 76.5673 21.7666 76.89 22.1647 76.89Z" fill="url(#paint26_linear)"/>
</g>
<g opacity="0.5">
<path opacity="0.5" d="M26.396 72.013C27.014 72.013 27.5151 71.512 27.5151 70.8939C27.5151 70.2758 27.014 69.7748 26.396 69.7748C25.7779 69.7748 25.2769 70.2758 25.2769 70.8939C25.2769 71.512 25.7779 72.013 26.396 72.013Z" fill="url(#paint27_linear)"/>
<path opacity="0.5" d="M23.1272 73.1942C23.6151 73.1942 24.0107 72.7986 24.0107 72.3106C24.0107 71.8227 23.6151 71.4271 23.1272 71.4271C22.6392 71.4271 22.2437 71.8227 22.2437 72.3106C22.2437 72.7986 22.6392 73.1942 23.1272 73.1942Z" fill="url(#paint28_linear)"/>
<path opacity="0.5" d="M26.0517 75.4565C26.3459 75.4565 26.5843 75.218 26.5843 74.9239C26.5843 74.6297 26.3459 74.3912 26.0517 74.3912C25.7575 74.3912 25.519 74.6297 25.519 74.9239C25.519 75.218 25.7575 75.4565 26.0517 75.4565Z" fill="url(#paint29_linear)"/>
</g>
<g opacity="0.5">
<path opacity="0.5" d="M120.187 86.8587C121.023 86.8587 121.701 86.1806 121.701 85.3442C121.701 84.5079 121.023 83.8298 120.187 83.8298C119.35 83.8298 118.672 84.5079 118.672 85.3442C118.672 86.1806 119.35 86.8587 120.187 86.8587Z" fill="url(#paint30_linear)"/>
<path opacity="0.5" d="M120.587 81.735C121.247 81.735 121.782 81.1998 121.782 80.5395C121.782 79.8792 121.247 79.3439 120.587 79.3439C119.926 79.3439 119.391 79.8792 119.391 80.5395C119.391 81.1998 119.926 81.735 120.587 81.735Z" fill="url(#paint31_linear)"/>
<path opacity="0.5" d="M115.6 83.0774C115.998 83.0774 116.321 82.7546 116.321 82.3565C116.321 81.9584 115.998 81.6356 115.6 81.6356C115.202 81.6356 114.879 81.9584 114.879 82.3565C114.879 82.7546 115.202 83.0774 115.6 83.0774Z" fill="url(#paint32_linear)"/>
</g>
<g opacity="0.5">
<path opacity="0.5" d="M112.729 89.5987C113.348 89.5987 113.849 89.0977 113.849 88.4796C113.849 87.8615 113.348 87.3605 112.729 87.3605C112.111 87.3605 111.61 87.8615 111.61 88.4796C111.61 89.0977 112.111 89.5987 112.729 89.5987Z" fill="url(#paint33_linear)"/>
<path opacity="0.5" d="M115.573 87.2163C116.061 87.2163 116.457 86.8207 116.457 86.3327C116.457 85.8448 116.061 85.4492 115.573 85.4492C115.086 85.4492 114.69 85.8448 114.69 86.3327C114.69 86.8207 115.086 87.2163 115.573 87.2163Z" fill="url(#paint34_linear)"/>
<path opacity="0.5" d="M112.116 85.0145C112.41 85.0145 112.648 84.776 112.648 84.4819C112.648 84.1877 112.41 83.9492 112.116 83.9492C111.821 83.9492 111.583 84.1877 111.583 84.4819C111.583 84.776 111.821 85.0145 112.116 85.0145Z" fill="url(#paint35_linear)"/>
</g>
<g opacity="0.5">
<path opacity="0.5" d="M45.1958 86.483C45.8138 86.483 46.3149 85.9819 46.3149 85.3639C46.3149 84.7458 45.8138 84.2448 45.1958 84.2448C44.5777 84.2448 44.0767 84.7458 44.0767 85.3639C44.0767 85.9819 44.5777 86.483 45.1958 86.483Z" fill="url(#paint36_linear)"/>
<path opacity="0.5" d="M41.927 87.6645C42.415 87.6645 42.8105 87.269 42.8105 86.781C42.8105 86.293 42.415 85.8975 41.927 85.8975C41.439 85.8975 41.0435 86.293 41.0435 86.781C41.0435 87.269 41.439 87.6645 41.927 87.6645Z" fill="url(#paint37_linear)"/>
<path opacity="0.5" d="M44.8515 89.9265C45.1457 89.9265 45.3841 89.688 45.3841 89.3939C45.3841 89.0997 45.1457 88.8612 44.8515 88.8612C44.5573 88.8612 44.3188 89.0997 44.3188 89.3939C44.3188 89.688 44.5573 89.9265 44.8515 89.9265Z" fill="url(#paint38_linear)"/>
</g>
</g>
<path d="M53.0251 94.4819C52.769 94.4731 52.5128 94.499 52.264 94.5613C50.3104 95.051 41.0398 97.6445 40.7448 102.84C40.561 106.076 45.9069 107.077 50.6784 107.328C55.0357 107.558 58.7954 105.235 59.0507 102.163C59.3396 98.6843 58.4769 94.6687 53.0251 94.4819Z" fill="url(#paint39_linear)"/>
<path d="M53.0251 94.4819C52.769 94.4731 52.5128 94.499 52.264 94.5613C50.3104 95.051 41.0398 97.6446 40.7448 102.84C40.561 106.076 45.9069 107.077 50.6784 107.328C55.0354 107.558 58.4769 94.6687 53.0251 94.4819Z" fill="url(#paint40_linear)"/>
<path d="M39.3516 103.36C39.3516 105.753 30.6875 105.753 30.6875 103.36C30.6875 100.967 32.6272 99.0281 35.0196 99.0281C37.4119 99.0281 39.3516 100.967 39.3516 103.36Z" fill="url(#paint41_linear)"/>
</g>
<defs>
<linearGradient id="paint0_linear" x1="75.5448" y1="112.107" x2="76.3351" y2="125.144" gradientUnits="userSpaceOnUse">
<stop stop-color="#F8F6FB"/>
<stop offset="1" stop-color="#EFDCFB"/>
</linearGradient>
<linearGradient id="paint1_linear" x1="69.0802" y1="68.6077" x2="83.2166" y2="121.962" gradientUnits="userSpaceOnUse">
<stop stop-color="#F8F6FB"/>
<stop offset="1" stop-color="#EFDCFB"/>
</linearGradient>
<linearGradient id="paint2_linear" x1="82.0838" y1="122.02" x2="57.8203" y2="5.99688" gradientUnits="userSpaceOnUse">
<stop stop-color="#EFDCFB" stop-opacity="0"/>
<stop offset="0.0287" stop-color="#E9D6F7" stop-opacity="0.029"/>
<stop offset="0.2203" stop-color="#C5B5DE" stop-opacity="0.22"/>
<stop offset="0.4138" stop-color="#AA9BCB" stop-opacity="0.414"/>
<stop offset="0.6078" stop-color="#9688BD" stop-opacity="0.608"/>
<stop offset="0.8028" stop-color="#8A7DB5" stop-opacity="0.803"/>
<stop offset="1" stop-color="#8679B2"/>
</linearGradient>
<linearGradient id="paint3_linear" x1="88.8214" y1="110.882" x2="47.6449" y2="-7.64785" gradientUnits="userSpaceOnUse">
<stop stop-color="#EFDCFB" stop-opacity="0"/>
<stop offset="0.0287" stop-color="#E9D6F7" stop-opacity="0.029"/>
<stop offset="0.2203" stop-color="#C5B5DE" stop-opacity="0.22"/>
<stop offset="0.4138" stop-color="#AA9BCB" stop-opacity="0.414"/>
<stop offset="0.6078" stop-color="#9688BD" stop-opacity="0.608"/>
<stop offset="0.8028" stop-color="#8A7DB5" stop-opacity="0.803"/>
<stop offset="1" stop-color="#8679B2"/>
</linearGradient>
<linearGradient id="paint4_linear" x1="47.9525" y1="115.603" x2="4.3928" y2="72.0435" gradientUnits="userSpaceOnUse">
<stop stop-color="#EFDCFB" stop-opacity="0"/>
<stop offset="0.0287" stop-color="#E9D6F7" stop-opacity="0.029"/>
<stop offset="0.2203" stop-color="#C5B5DE" stop-opacity="0.22"/>
<stop offset="0.4138" stop-color="#AA9BCB" stop-opacity="0.414"/>
<stop offset="0.6078" stop-color="#9688BD" stop-opacity="0.608"/>
<stop offset="0.8028" stop-color="#8A7DB5" stop-opacity="0.803"/>
<stop offset="1" stop-color="#8679B2"/>
</linearGradient>
<linearGradient id="paint5_linear" x1="62.2592" y1="113.686" x2="34.0239" y2="77.5098" gradientUnits="userSpaceOnUse">
<stop stop-color="#EFDCFB" stop-opacity="0"/>
<stop offset="0.0287" stop-color="#E9D6F7" stop-opacity="0.029"/>
<stop offset="0.2203" stop-color="#C5B5DE" stop-opacity="0.22"/>
<stop offset="0.4138" stop-color="#AA9BCB" stop-opacity="0.414"/>
<stop offset="0.6078" stop-color="#9688BD" stop-opacity="0.608"/>
<stop offset="0.8028" stop-color="#8A7DB5" stop-opacity="0.803"/>
<stop offset="1" stop-color="#8679B2"/>
</linearGradient>
<linearGradient id="paint6_linear" x1="65.9827" y1="53.1499" x2="112.905" y2="135.401" gradientUnits="userSpaceOnUse">
<stop stop-color="#FFDECF"/>
<stop offset="0.3791" stop-color="#FDC4B0"/>
<stop offset="0.7655" stop-color="#FBAE97"/>
<stop offset="1" stop-color="#FAA68E"/>
</linearGradient>
<linearGradient id="paint7_linear" x1="72.6447" y1="45.6504" x2="91.3065" y2="84.6148" gradientUnits="userSpaceOnUse">
<stop stop-color="#FFDECF"/>
<stop offset="0.3791" stop-color="#FDC4B0"/>
<stop offset="0.7655" stop-color="#FBAE97"/>
<stop offset="1" stop-color="#FAA68E"/>
</linearGradient>
<linearGradient id="paint8_linear" x1="43.1304" y1="44.0924" x2="57.2135" y2="73.4969" gradientUnits="userSpaceOnUse">
<stop stop-color="#FFDECF"/>
<stop offset="0.3791" stop-color="#FDC4B0"/>
<stop offset="0.7655" stop-color="#FBAE97"/>
<stop offset="1" stop-color="#FAA68E"/>
</linearGradient>
<linearGradient id="paint9_linear" x1="111.528" y1="53.9226" x2="72.0844" y2="18.8487" gradientUnits="userSpaceOnUse">
<stop stop-color="#F82814" stop-opacity="0"/>
<stop offset="0.2458" stop-color="#F12817" stop-opacity="0.246"/>
<stop offset="0.608" stop-color="#DD2820" stop-opacity="0.608"/>
<stop offset="1" stop-color="#C0272D"/>
</linearGradient>
<linearGradient id="paint10_linear" x1="64.8899" y1="44.9685" x2="74.557" y2="86.6706" gradientUnits="userSpaceOnUse">
<stop stop-color="#FAA68E"/>
<stop offset="0.3527" stop-color="#FAA38F"/>
<stop offset="0.651" stop-color="#FC9893"/>
<stop offset="0.9287" stop-color="#FE879A"/>
<stop offset="1" stop-color="#FF819C"/>
</linearGradient>
<linearGradient id="paint11_linear" x1="65.8604" y1="72.3701" x2="79.2822" y2="109.914" gradientUnits="userSpaceOnUse">
<stop stop-color="#A57C52"/>
<stop offset="0.1339" stop-color="#A26C4A"/>
<stop offset="0.5155" stop-color="#994336"/>
<stop offset="0.8174" stop-color="#942A2A"/>
<stop offset="1" stop-color="#922125"/>
</linearGradient>
<linearGradient id="paint12_linear" x1="68.653" y1="71.3718" x2="82.0745" y2="108.916" gradientUnits="userSpaceOnUse">
<stop stop-color="#A57C52"/>
<stop offset="0.1339" stop-color="#A26C4A"/>
<stop offset="0.5155" stop-color="#994336"/>
<stop offset="0.8174" stop-color="#942A2A"/>
<stop offset="1" stop-color="#922125"/>
</linearGradient>
<linearGradient id="paint13_linear" x1="121.313" y1="34.7614" x2="134.575" y2="62.4492" gradientUnits="userSpaceOnUse">
<stop stop-color="#FFDECF"/>
<stop offset="0.3791" stop-color="#FDC4B0"/>
<stop offset="0.7655" stop-color="#FBAE97"/>
<stop offset="1" stop-color="#FAA68E"/>
</linearGradient>
<linearGradient id="paint14_linear" x1="72.8354" y1="33.2762" x2="71.4923" y2="35.9911" gradientUnits="userSpaceOnUse">
<stop stop-color="#BADA00"/>
<stop offset="0.2269" stop-color="#B0CE00"/>
<stop offset="0.6378" stop-color="#95AE00"/>
<stop offset="1" stop-color="#798C00"/>
</linearGradient>
<linearGradient id="paint15_linear" x1="75.4185" y1="31.0206" x2="71.7966" y2="33.8785" gradientUnits="userSpaceOnUse">
<stop stop-color="#BADA00"/>
<stop offset="0.2269" stop-color="#B0CE00"/>
<stop offset="0.6378" stop-color="#95AE00"/>
<stop offset="1" stop-color="#798C00"/>
</linearGradient>
<linearGradient id="paint16_linear" x1="80.5596" y1="35.8274" x2="88.0947" y2="41.8858" gradientUnits="userSpaceOnUse">
<stop stop-color="#FF6359"/>
<stop offset="0.2243" stop-color="#FE5B50"/>
<stop offset="0.5952" stop-color="#FC4637"/>
<stop offset="1" stop-color="#F82814"/>
</linearGradient>
<linearGradient id="paint17_linear" x1="84.9792" y1="35.265" x2="80.7254" y2="28.0851" gradientUnits="userSpaceOnUse">
<stop stop-color="#FF6359"/>
<stop offset="0.2243" stop-color="#FE5B50"/>
<stop offset="0.5952" stop-color="#FC4637"/>
<stop offset="1" stop-color="#F82814"/>
</linearGradient>
<linearGradient id="paint18_linear" x1="81.0539" y1="35.5436" x2="79.1289" y2="32.2942" gradientUnits="userSpaceOnUse">
<stop stop-color="#FF6359"/>
<stop offset="0.2243" stop-color="#FE5B50"/>
<stop offset="0.5952" stop-color="#FC4637"/>
<stop offset="1" stop-color="#F82814"/>
</linearGradient>
<linearGradient id="paint19_linear" x1="84.3237" y1="37.4293" x2="82.3987" y2="34.1799" gradientUnits="userSpaceOnUse">
<stop stop-color="#FF6359"/>
<stop offset="0.2243" stop-color="#FE5B50"/>
<stop offset="0.5952" stop-color="#FC4637"/>
<stop offset="1" stop-color="#F82814"/>
</linearGradient>
<linearGradient id="paint20_linear" x1="72.8859" y1="42.7671" x2="80.421" y2="48.8256" gradientUnits="userSpaceOnUse">
<stop stop-color="#FF6359"/>
<stop offset="0.2243" stop-color="#FE5B50"/>
<stop offset="0.5952" stop-color="#FC4637"/>
<stop offset="1" stop-color="#F82814"/>
</linearGradient>
<linearGradient id="paint21_linear" x1="77.3053" y1="42.2047" x2="73.0515" y2="35.0245" gradientUnits="userSpaceOnUse">
<stop stop-color="#FF6359"/>
<stop offset="0.2243" stop-color="#FE5B50"/>
<stop offset="0.5952" stop-color="#FC4637"/>
<stop offset="1" stop-color="#F82814"/>
</linearGradient>
<linearGradient id="paint22_linear" x1="73.3802" y1="42.483" x2="71.455" y2="39.2339" gradientUnits="userSpaceOnUse">
<stop stop-color="#FF6359"/>
<stop offset="0.2243" stop-color="#FE5B50"/>
<stop offset="0.5952" stop-color="#FC4637"/>
<stop offset="1" stop-color="#F82814"/>
</linearGradient>
<linearGradient id="paint23_linear" x1="76.6501" y1="44.369" x2="74.7251" y2="41.1196" gradientUnits="userSpaceOnUse">
<stop stop-color="#FF6359"/>
<stop offset="0.2243" stop-color="#FE5B50"/>
<stop offset="0.5952" stop-color="#FC4637"/>
<stop offset="1" stop-color="#F82814"/>
</linearGradient>
<linearGradient id="paint24_linear" x1="19.8264" y1="74.0016" x2="14.3398" y2="69.3852" gradientUnits="userSpaceOnUse">
<stop stop-color="#42210B" stop-opacity="0"/>
<stop offset="1" stop-color="#42210B"/>
</linearGradient>
<linearGradient id="paint25_linear" x1="17.932" y1="78.265" x2="13.6008" y2="74.6204" gradientUnits="userSpaceOnUse">
<stop stop-color="#42210B" stop-opacity="0"/>
<stop offset="1" stop-color="#42210B"/>
</linearGradient>
<linearGradient id="paint26_linear" x1="22.6541" y1="77.2096" x2="20.0429" y2="75.0123" gradientUnits="userSpaceOnUse">
<stop stop-color="#42210B" stop-opacity="0"/>
<stop offset="1" stop-color="#42210B"/>
</linearGradient>
<linearGradient id="paint27_linear" x1="26.4508" y1="73.0006" x2="26.2877" y2="67.7037" gradientUnits="userSpaceOnUse">
<stop stop-color="#42210B" stop-opacity="0"/>
<stop offset="1" stop-color="#42210B"/>
</linearGradient>
<linearGradient id="paint28_linear" x1="23.1699" y1="74.0596" x2="23.041" y2="69.8781" gradientUnits="userSpaceOnUse">
<stop stop-color="#42210B" stop-opacity="0"/>
<stop offset="1" stop-color="#42210B"/>
</linearGradient>
<linearGradient id="paint29_linear" x1="26.0793" y1="76.1395" x2="26.0015" y2="73.6185" gradientUnits="userSpaceOnUse">
<stop stop-color="#42210B" stop-opacity="0"/>
<stop offset="1" stop-color="#42210B"/>
</linearGradient>
<linearGradient id="paint30_linear" x1="117.735" y1="84.3496" x2="124.156" y2="87.5409" gradientUnits="userSpaceOnUse">
<stop stop-color="#42210B" stop-opacity="0"/>
<stop offset="1" stop-color="#42210B"/>
</linearGradient>
<linearGradient id="paint31_linear" x1="118.569" y1="79.7597" x2="123.638" y2="82.2792" gradientUnits="userSpaceOnUse">
<stop stop-color="#42210B" stop-opacity="0"/>
<stop offset="1" stop-color="#42210B"/>
</linearGradient>
<linearGradient id="paint32_linear" x1="114.23" y1="81.8999" x2="117.286" y2="83.4186" gradientUnits="userSpaceOnUse">
<stop stop-color="#42210B" stop-opacity="0"/>
<stop offset="1" stop-color="#42210B"/>
</linearGradient>
<linearGradient id="paint33_linear" x1="112.433" y1="86.8869" x2="113.837" y2="91.9939" gradientUnits="userSpaceOnUse">
<stop stop-color="#42210B" stop-opacity="0"/>
<stop offset="1" stop-color="#42210B"/>
</linearGradient>
<linearGradient id="paint34_linear" x1="115.371" y1="85.0861" x2="116.48" y2="89.1178" gradientUnits="userSpaceOnUse">
<stop stop-color="#42210B" stop-opacity="0"/>
<stop offset="1" stop-color="#42210B"/>
</linearGradient>
<linearGradient id="paint35_linear" x1="112.056" y1="83.75" x2="112.724" y2="86.1806" gradientUnits="userSpaceOnUse">
<stop stop-color="#42210B" stop-opacity="0"/>
<stop offset="1" stop-color="#42210B"/>
</linearGradient>
<linearGradient id="paint36_linear" x1="45.2594" y1="87.4759" x2="45.096" y2="82.1788" gradientUnits="userSpaceOnUse">
<stop stop-color="#42210B" stop-opacity="0"/>
<stop offset="1" stop-color="#42210B"/>
</linearGradient>
<linearGradient id="paint37_linear" x1="41.9781" y1="88.535" x2="41.8494" y2="84.3532" gradientUnits="userSpaceOnUse">
<stop stop-color="#42210B" stop-opacity="0"/>
<stop offset="1" stop-color="#42210B"/>
</linearGradient>
<linearGradient id="paint38_linear" x1="44.8876" y1="90.6146" x2="44.8101" y2="88.0937" gradientUnits="userSpaceOnUse">
<stop stop-color="#42210B" stop-opacity="0"/>
<stop offset="1" stop-color="#42210B"/>
</linearGradient>
<linearGradient id="paint39_linear" x1="49.1534" y1="99.0666" x2="51.7093" y2="106.967" gradientUnits="userSpaceOnUse">
<stop stop-color="#FAA68E"/>
<stop offset="0.3527" stop-color="#FAA38F"/>
<stop offset="0.651" stop-color="#FC9893"/>
<stop offset="0.9287" stop-color="#FE879A"/>
<stop offset="1" stop-color="#FF819C"/>
</linearGradient>
<linearGradient id="paint40_linear" x1="47.8043" y1="99.7231" x2="52.8648" y2="104.164" gradientUnits="userSpaceOnUse">
<stop stop-color="#FAA68E"/>
<stop offset="0.3527" stop-color="#FAA38F"/>
<stop offset="0.651" stop-color="#FC9893"/>
<stop offset="0.9287" stop-color="#FE879A"/>
<stop offset="1" stop-color="#FF819C"/>
</linearGradient>
<linearGradient id="paint41_linear" x1="33.0549" y1="99.174" x2="36.7313" y2="106.233" gradientUnits="userSpaceOnUse">
<stop stop-color="#FFDECF"/>
<stop offset="0.3791" stop-color="#FDC4B0"/>
<stop offset="0.7655" stop-color="#FBAE97"/>
<stop offset="1" stop-color="#FAA68E"/>
</linearGradient>
<clipPath id="clip0">
<rect width="150" height="150" fill="white" transform="translate(0.108398 0.0158691)"/>
</clipPath>
</defs>
</svg>
