<svg width="56" height="56" viewBox="0 0 56 56" fill="none" xmlns="http://www.w3.org/2000/svg">
<path d="M37.8122 30.8268C39.8552 29.8564 41.8894 29.1485 43.8876 28.715C44.464 28.59 44.8323 28.0095 44.7104 27.4185C44.5885 26.8276 44.023 26.4498 43.4459 26.5749C41.1329 27.0767 38.7838 27.916 36.4344 29.0758C35.122 27.4709 33.6196 25.7929 31.9987 24.131C30.2762 22.365 28.5358 20.7351 26.8825 19.3318C28.3132 17.4769 29.4809 15.4001 30.3644 13.1272C31.7419 9.58331 32.4404 5.53447 32.4404 1.09275C32.4404 0.488672 31.9627 -0.000999451 31.3737 -0.000999451C30.7846 -0.000999451 30.3069 0.488672 30.3069 1.09275C30.3069 7.93656 28.5954 13.6007 25.2156 17.9715C24.5778 17.4726 23.9594 17.0141 23.3688 16.6058C20.2073 14.4195 18.3243 13.9071 17.2718 14.9475C17.2644 14.9546 17.2566 14.9616 17.2493 14.9689C17.2483 14.97 17.2472 14.971 17.2461 14.972C17.2455 14.9727 17.245 14.9734 17.2443 14.974C16.9748 15.251 16.8083 15.586 16.7453 15.9858L1.00049 54.4824C0.833006 54.8919 0.923679 55.3647 1.22994 55.6787C1.43412 55.888 1.70699 55.9991 1.98456 55.9991C2.12345 55.9991 2.26362 55.9713 2.39685 55.914C2.39984 55.9127 2.39685 55.914 2.39984 55.9127L39.9429 39.7703C40.2989 39.7112 40.6013 39.562 40.857 39.3261C40.8756 39.3102 40.893 39.2934 40.9104 39.2765C40.9172 39.2697 40.9245 39.264 40.9313 39.257C40.9323 39.2559 40.9332 39.2547 40.9341 39.2537C40.9415 39.2462 40.9483 39.2382 40.9554 39.2304C41.97 38.1512 41.4702 36.2206 39.3379 32.9793C38.8872 32.2942 38.375 31.5729 37.8122 30.8268ZM9.37837 48.2071C9.15574 49.6304 8.66067 50.566 8.42246 50.951L3.97638 52.8627L8.4918 41.8226C9.37528 44.0933 9.68154 46.2686 9.37837 48.2071ZM15.9427 44.5063C15.5126 47.0202 14.3718 48.2319 14.0474 48.5325L11.2364 49.7411C11.8613 47.4602 12.0256 43.8396 9.6106 39.087L12.8074 31.2712C16.1242 37.7188 16.3731 41.991 15.9427 44.5063ZM19.7479 46.0813L17.4486 47.0701C17.6677 46.5025 17.8609 45.8561 18.0009 45.1236C18.8547 40.6553 17.4609 35.1306 13.8603 28.6969L15.0145 25.8749C15.9281 27.002 16.969 28.5973 17.3906 29.6031C17.5641 30.0173 17.9577 30.2654 18.3711 30.2654C18.5116 30.2654 18.6546 30.2366 18.7919 30.1762C19.3331 29.9377 19.5833 29.2945 19.3507 28.7395C18.7252 27.2472 17.139 24.9251 15.9257 23.6471L17.6894 19.335C17.9983 19.9157 18.3809 20.5521 18.8399 21.2497C19.1558 21.7301 19.502 22.228 19.8743 22.7399C23.5233 28.4171 23.4407 34.2281 22.7274 38.1054C21.9688 42.2293 20.3445 45.2486 19.7479 46.0813ZM27.9674 42.5473L22.9032 44.7247C23.6344 43.0802 24.3804 40.9212 24.8238 38.5109C25.3189 35.8188 25.5367 32.2785 24.6204 28.4555C25.1257 29.0028 25.6456 29.5514 26.1788 30.0981C27.7745 31.734 29.385 33.2521 30.928 34.5825C30.775 39.7464 28.465 42.0995 27.9674 42.5473ZM31.6445 40.9663C32.2155 39.755 32.7198 38.1938 32.9447 36.244C33.5886 36.748 34.2129 37.2111 34.8088 37.6231C35.4895 38.0939 36.11 38.486 36.6767 38.8027L31.6445 40.9663ZM35.3965 35.3803C33.0774 33.6956 30.3396 31.2703 27.6875 28.5511C25.0356 25.8321 22.6701 23.025 21.0271 20.6471C19.4382 18.3477 19.01 17.1736 18.8972 16.665C19.3933 16.7807 20.5384 17.2198 22.781 18.8488C23.1137 19.0904 23.4554 19.3486 23.8036 19.6193C23.7288 19.6983 23.655 19.778 23.579 19.856C23.1624 20.2831 23.1624 20.9757 23.579 21.4029C23.7873 21.6164 24.0603 21.7233 24.3333 21.7233C24.6062 21.7233 24.8793 21.6164 25.0876 21.4029C25.2215 21.2655 25.3535 21.1263 25.484 20.9858C27.1021 22.3572 28.8131 23.9585 30.4901 25.678C31.9322 27.1566 33.2882 28.6607 34.4908 30.1081C34.2981 30.2178 34.1056 30.3293 33.9131 30.4433C33.4028 30.7454 33.228 31.4143 33.5226 31.9374C33.7202 32.2882 34.0787 32.4845 34.4475 32.4845C34.6284 32.4845 34.8119 32.4371 34.9798 32.3377C35.2759 32.1622 35.5723 31.9939 35.8685 31.8295C36.332 32.4331 36.7621 33.0199 37.1505 33.582C38.7395 35.8814 39.1676 37.0556 39.2804 37.5642C38.7841 37.4483 37.639 37.0093 35.3965 35.3803Z" fill="#6A7889"/>
<path d="M20.213 31.5582C19.9712 31.0073 19.3397 30.7616 18.8024 31.0096C18.2819 31.2497 18.0408 31.8651 18.2462 32.4042C18.4077 32.8376 18.8115 33.1075 19.2426 33.1075C19.3595 33.1075 19.4783 33.0876 19.595 33.0458C20.151 32.8463 20.4441 32.2223 20.2495 31.6521C20.2393 31.6225 20.2256 31.5868 20.213 31.5582Z" fill="#6A7889"/>
<path d="M40.753 16.9192C40.9613 17.1327 41.2343 17.2396 41.5073 17.2396C41.7804 17.2396 42.0532 17.1327 42.2616 16.9192C44.645 14.4754 48.5065 13.3554 51.3258 13.1221C51.913 13.0736 52.3506 12.5459 52.3033 11.9439C52.2558 11.3418 51.7424 10.8949 51.1542 10.9417C47.9568 11.2063 43.5455 12.5092 40.753 15.3724C40.3364 15.7995 40.3364 16.4921 40.753 16.9192Z" fill="#6A7889"/>
<path d="M54.7445 11.1521C54.7143 11.1438 54.6836 11.1356 54.6526 11.1276C54.0809 10.9815 53.5021 11.3386 53.3597 11.9247C53.2174 12.5109 53.5654 13.1045 54.1371 13.2504L54.1916 13.2648C54.2842 13.2903 54.3772 13.3025 54.4688 13.3025C54.9396 13.3025 55.3706 12.9804 55.4984 12.492C55.6511 11.9085 55.3137 11.3087 54.7445 11.1521Z" fill="#6A7889"/>
<path d="M49.1878 18.9896C47.4232 18.9896 45.9876 20.4616 45.9876 22.2709C45.9876 24.0801 47.4232 25.5521 49.1878 25.5521C50.9524 25.5521 52.3881 24.0801 52.3881 22.2709C52.3881 20.4616 50.9523 18.9896 49.1878 18.9896ZM49.1878 23.3646C48.5996 23.3646 48.1211 22.874 48.1211 22.2709C48.1211 21.6678 48.5996 21.1771 49.1878 21.1771C49.776 21.1771 50.2546 21.6678 50.2546 22.2709C50.2546 22.874 49.776 23.3646 49.1878 23.3646Z" fill="#6A7889"/>
<path d="M22.0933 10.4584C23.8579 10.4584 25.2935 8.98647 25.2935 7.17719C25.2935 5.36791 23.8579 3.89594 22.0933 3.89594C20.3287 3.89594 18.8931 5.36791 18.8931 7.17719C18.8931 8.98647 20.3287 10.4584 22.0933 10.4584ZM22.0933 6.08344C22.6815 6.08344 23.16 6.5741 23.16 7.17719C23.16 7.78028 22.6815 8.27094 22.0933 8.27094C21.5051 8.27094 21.0266 7.78028 21.0266 7.17719C21.0266 6.5742 21.5051 6.08344 22.0933 6.08344Z" fill="#6A7889"/>
<path d="M48.835 32.1625C48.835 31.56 48.3558 31.0687 47.7683 31.0687C47.1807 31.0687 46.7015 31.56 46.7015 32.1625C46.7015 32.7649 47.1807 33.2562 47.7683 33.2562C48.3558 33.2562 48.835 32.7648 48.835 32.1625Z" fill="#6A7889"/>
<path d="M36.6736 10.3971C37.2612 10.3971 37.7404 9.90581 37.7404 9.30337C37.7404 8.70094 37.2612 8.20963 36.6736 8.20963C36.0861 8.20963 35.6069 8.70094 35.6069 9.30337C35.607 9.9057 36.0862 10.3971 36.6736 10.3971Z" fill="#6A7889"/>
<path d="M50.968 39.2719C50.3804 39.2719 49.9012 39.7633 49.9012 40.3657C49.9012 40.9682 50.3804 41.4595 50.968 41.4595C51.5555 41.4595 52.0348 40.9682 52.0348 40.3657C52.0348 39.7633 51.5555 39.2719 50.968 39.2719Z" fill="#6A7889"/>
<path d="M15.7663 3.28148C16.3538 3.28148 16.833 2.79017 16.833 2.18773C16.833 1.58529 16.3538 1.09398 15.7663 1.09398C15.1787 1.09398 14.6995 1.58529 14.6995 2.18773C14.6995 2.79017 15.1787 3.28148 15.7663 3.28148Z" fill="#6A7889"/>
<path d="M12.4598 9.97388L11.0001 9.46824C10.8591 9.41935 10.7464 9.30385 10.6987 9.15926L10.2056 7.66257C10.075 7.2663 9.71319 6.99998 9.30526 6.99998C8.89734 6.99998 8.5355 7.2662 8.40493 7.66246L7.91178 9.15904C7.86409 9.30374 7.75134 9.41924 7.61031 9.46813L6.15069 9.97377C5.7641 10.1076 5.50446 10.4786 5.50446 10.897C5.50446 11.3153 5.7641 11.6863 6.15058 11.8201L7.61031 12.3258C7.75134 12.3747 7.86409 12.4903 7.91178 12.6349L8.40493 14.1314C8.5355 14.5277 8.89734 14.794 9.30526 14.794C9.71319 14.794 10.075 14.5278 10.2056 14.1316L10.6987 12.6349C10.7464 12.4903 10.8591 12.3747 11.0001 12.3259L12.4598 11.8202C12.8463 11.6864 13.1061 11.3154 13.1061 10.8971C13.106 10.4786 12.8462 10.1076 12.4598 9.97388ZM9.30516 11.901C9.1029 11.4619 8.75418 11.1045 8.32599 10.897C8.75418 10.6896 9.10279 10.3321 9.30516 9.89305C9.50752 10.3321 9.85613 10.6895 10.2843 10.897C9.85624 11.1045 9.50752 11.4619 9.30516 11.901Z" fill="#6A7889"/>
<path d="M39.0218 17.7395L37.562 17.2339C37.421 17.185 37.3084 17.0695 37.2607 16.9249L36.7675 15.4282C36.637 15.0319 36.2751 14.7656 35.8672 14.7656C35.4593 14.7656 35.0974 15.0318 34.9669 15.4281L34.4737 16.9247C34.426 17.0694 34.3133 17.1849 34.1723 17.2338L32.7126 17.7394C32.3261 17.8733 32.0664 18.2443 32.0664 18.6626C32.0664 19.0809 32.3261 19.4519 32.7125 19.5858L34.1723 20.0914C34.3133 20.1403 34.426 20.2559 34.4737 20.4005L34.9669 21.8971C35.0974 22.2933 35.4593 22.5597 35.8672 22.5597C36.2751 22.5597 36.637 22.2934 36.7675 21.8972L37.2607 20.4005C37.3084 20.2559 37.421 20.1403 37.562 20.0915L39.0218 19.5859C39.4083 19.452 39.668 19.081 39.668 18.6627C39.6679 18.2443 39.4082 17.8733 39.0218 17.7395ZM35.8671 19.6666C35.6648 19.2276 35.3161 18.8701 34.8879 18.6626C35.3161 18.4553 35.6647 18.0977 35.8671 17.6587C36.0695 18.0977 36.4181 18.4552 36.8463 18.6626C36.4182 18.8701 36.0695 19.2276 35.8671 19.6666Z" fill="#6A7889"/>
<path d="M48.9425 45.8489L47.4828 45.3432C47.3417 45.2943 47.2291 45.1788 47.1814 45.0343L46.6883 43.5376C46.5577 43.1413 46.1958 42.875 45.7879 42.875C45.38 42.875 45.0182 43.1412 44.8876 43.5375L44.3944 45.034C44.3468 45.1787 44.234 45.2942 44.093 45.3431L42.6334 45.8488C42.2468 45.9826 41.9871 46.3536 41.9871 46.772C41.9871 47.1903 42.2468 47.5613 42.6332 47.6951L44.093 48.2008C44.234 48.2497 44.3468 48.3653 44.3944 48.5099L44.8876 50.0064C45.0182 50.4027 45.38 50.669 45.7879 50.669C46.1958 50.669 46.5577 50.4028 46.6883 50.0065L47.1814 48.5099C47.2291 48.3653 47.3417 48.2497 47.4828 48.2009L48.9425 47.6952C49.329 47.5614 49.5887 47.1904 49.5887 46.7721C49.5886 46.3536 49.3289 45.9826 48.9425 45.8489ZM45.7878 47.776C45.5856 47.3369 45.2368 46.9795 44.8087 46.772C45.2368 46.5646 45.5855 46.2071 45.7878 45.768C45.9902 46.2071 46.3388 46.5645 46.767 46.772C46.3389 46.9795 45.9902 47.3369 45.7878 47.776Z" fill="#6A7889"/>
</svg>
