<svg width="151" height="151" viewBox="0 0 151 151" fill="none" xmlns="http://www.w3.org/2000/svg">
<g clip-path="url(#clip0)">
<path d="M145.335 40.9215C145.335 18.33 114.11 0.0158691 75.5915 0.0158691C37.073 0.0158691 5.84766 18.33 5.84766 40.9215C5.84766 41.3815 5.9056 41.832 6.01913 42.2732C8.91883 53.5462 10.5597 65.1056 9.85354 76.7241L6.23736 136.236C6.01413 139.907 8.54442 143.176 12.1547 143.881C54.0503 152.061 97.1327 152.061 139.028 143.881C142.639 143.176 145.169 139.907 144.946 136.236L141.329 76.7241C140.624 65.1056 142.264 53.5462 145.164 42.2732C145.277 41.832 145.335 41.3815 145.335 40.9215Z" fill="url(#paint0_linear)"/>
<path d="M137.837 44.5877C137.837 24.4253 109.969 8.08032 75.5921 8.08032C41.2156 8.08032 13.3477 24.4253 13.3477 44.5877C13.3477 44.9983 13.3994 45.4003 13.5006 45.7939C16.0885 55.8547 17.553 66.1712 16.9227 76.5403L13.6953 129.653C13.4962 132.93 15.7544 135.847 18.9762 136.477C56.3671 143.777 94.8165 143.777 132.207 136.477C135.429 135.847 137.687 132.93 137.488 129.653L134.261 76.5406C133.631 66.1715 135.095 55.855 137.683 45.7941C137.785 45.4003 137.837 44.9983 137.837 44.5877Z" fill="url(#paint1_linear)"/>
<g opacity="0.6">
<g opacity="0.6">
<path opacity="0.6" d="M30.0126 122.368C31.382 122.368 32.492 121.258 32.492 119.889C32.492 118.519 31.382 117.409 30.0126 117.409C28.6433 117.409 27.5332 118.519 27.5332 119.889C27.5332 121.258 28.6433 122.368 30.0126 122.368Z" fill="url(#paint2_linear)"/>
<path opacity="0.6" d="M23.1214 125.694C24.2024 125.694 25.0788 124.818 25.0788 123.737C25.0788 122.656 24.2024 121.78 23.1214 121.78C22.0404 121.78 21.1641 122.656 21.1641 123.737C21.1641 124.818 22.0404 125.694 23.1214 125.694Z" fill="url(#paint3_linear)"/>
<path opacity="0.6" d="M30.1478 130.029C30.7995 130.029 31.3278 129.5 31.3278 128.849C31.3278 128.197 30.7995 127.669 30.1478 127.669C29.4961 127.669 28.9678 128.197 28.9678 128.849C28.9678 129.5 29.4961 130.029 30.1478 130.029Z" fill="url(#paint4_linear)"/>
</g>
<g opacity="0.6">
<path opacity="0.6" d="M41.086 128.981C42.0978 128.981 42.918 128.161 42.918 127.149C42.918 126.138 42.0978 125.317 41.086 125.317C40.0741 125.317 39.2539 126.138 39.2539 127.149C39.2539 128.161 40.0741 128.981 41.086 128.981Z" fill="url(#paint5_linear)"/>
<path opacity="0.6" d="M35.5715 126.697C36.3703 126.697 37.0179 126.049 37.0179 125.25C37.0179 124.451 36.3703 123.804 35.5715 123.804C34.7726 123.804 34.125 124.451 34.125 125.25C34.125 126.049 34.7726 126.697 35.5715 126.697Z" fill="url(#paint6_linear)"/>
<path opacity="0.6" d="M36.2178 132.51C36.6994 132.51 37.0898 132.12 37.0898 131.638C37.0898 131.156 36.6994 130.766 36.2178 130.766C35.7361 130.766 35.3457 131.156 35.3457 131.638C35.3457 132.12 35.7361 132.51 36.2178 132.51Z" fill="url(#paint7_linear)"/>
</g>
<g opacity="0.6">
<path opacity="0.6" d="M128.187 103.915C129.198 103.915 130.019 103.094 130.019 102.083C130.019 101.071 129.198 100.251 128.187 100.251C127.175 100.251 126.354 101.071 126.354 102.083C126.354 103.094 127.175 103.915 128.187 103.915Z" fill="url(#paint8_linear)"/>
<path opacity="0.6" d="M122.672 101.63C123.471 101.63 124.119 100.982 124.119 100.183C124.119 99.3844 123.471 98.7368 122.672 98.7368C121.873 98.7368 121.226 99.3844 121.226 100.183C121.226 100.982 121.873 101.63 122.672 101.63Z" fill="url(#paint9_linear)"/>
<path opacity="0.6" d="M123.318 107.443C123.8 107.443 124.19 107.053 124.19 106.571C124.19 106.09 123.8 105.699 123.318 105.699C122.837 105.699 122.446 106.09 122.446 106.571C122.446 107.053 122.837 107.443 123.318 107.443Z" fill="url(#paint10_linear)"/>
</g>
<g opacity="0.6">
<path opacity="0.6" d="M25.6485 42.1321C26.6603 42.1321 27.4805 41.3119 27.4805 40.3001C27.4805 39.2883 26.6603 38.468 25.6485 38.468C24.6366 38.468 23.8164 39.2883 23.8164 40.3001C23.8164 41.3119 24.6366 42.1321 25.6485 42.1321Z" fill="url(#paint11_linear)"/>
<path opacity="0.6" d="M20.134 39.8474C20.9328 39.8474 21.5804 39.1998 21.5804 38.4009C21.5804 37.6021 20.9328 36.9545 20.134 36.9545C19.3351 36.9545 18.6875 37.6021 18.6875 38.4009C18.6875 39.1998 19.3351 39.8474 20.134 39.8474Z" fill="url(#paint12_linear)"/>
<path opacity="0.6" d="M20.7803 45.6606C21.2619 45.6606 21.6523 45.2702 21.6523 44.7886C21.6523 44.3069 21.2619 43.9165 20.7803 43.9165C20.2986 43.9165 19.9082 44.3069 19.9082 44.7886C19.9082 45.2702 20.2986 45.6606 20.7803 45.6606Z" fill="url(#paint13_linear)"/>
</g>
</g>
<path d="M145.242 41.9173L121.694 18.3688C119.393 15.7267 25.1025 21.9541 25.1025 30.0732V105.378C25.1025 107.959 26.3711 110.243 28.3172 111.645L66.5605 149.888C90.8087 150.55 115.112 148.551 139.028 143.881C142.638 143.176 145.168 139.907 144.945 136.236L141.329 76.7241C140.623 65.1056 142.264 53.5462 145.164 42.2732C145.194 42.1553 145.22 42.0367 145.242 41.9173Z" fill="url(#paint14_linear)"/>
<path d="M145.243 41.9147L121.668 18.3397C119.37 15.7123 116.296 15.2168 112.733 14.2926C98.964 10.7188 84.807 10.0482 70.7002 10.5159V131.231C70.7002 133.798 71.9528 136.07 73.8787 137.474L86.2437 149.839C103.93 149.27 121.582 147.287 139.028 143.881C142.639 143.176 145.169 139.907 144.946 136.236L141.33 76.7241C140.624 65.1056 142.264 53.5462 145.164 42.2732C145.195 42.1544 145.22 42.035 145.243 41.9147Z" fill="url(#paint15_linear)"/>
<path d="M145.248 41.883L121.381 18.0162C119.117 15.5506 116.149 15.1788 112.733 14.2927C109.039 13.3338 105.321 12.5221 101.579 11.8541V119.795C101.579 122.196 102.676 124.341 104.396 125.757L124.949 146.31C129.655 145.6 134.349 144.795 139.028 143.881C142.639 143.176 145.169 139.907 144.946 136.236L141.33 76.7241C140.624 65.1056 142.264 53.5462 145.164 42.2732C145.197 42.1441 145.224 42.0138 145.248 41.883Z" fill="url(#paint16_linear)"/>
<path d="M112.734 12.8215C88.3755 6.50008 62.8072 6.50008 38.449 12.8215C30.5899 14.861 25.1025 21.9542 25.1025 30.0736V105.378C25.1025 109.642 28.5587 113.098 32.8222 113.098C37.0858 113.098 40.542 109.642 40.542 105.378C40.542 97.1224 47.2343 90.4301 55.4899 90.4301H55.7511C64.0067 90.4301 70.699 97.1224 70.699 105.378V131.233C70.699 135.496 74.1552 138.952 78.4187 138.952C82.6823 138.952 86.1384 135.496 86.1384 131.233V115.282C86.1384 111.019 89.5946 107.563 93.8581 107.563C98.1217 107.563 101.578 111.019 101.578 115.282V119.795C101.578 124.059 105.034 127.515 109.298 127.515C113.561 127.515 117.017 124.059 117.017 119.795V97.9745C117.017 95.4715 119.046 93.4427 121.549 93.4427C124.052 93.4427 126.081 91.4139 126.081 88.911V30.0736C126.08 21.9542 120.593 14.861 112.734 12.8215Z" fill="url(#paint17_linear)"/>
<path d="M94.9231 103.585C94.9231 99.321 91.4669 95.8651 87.2033 95.8651C82.9398 95.8651 79.4836 99.3213 79.4836 103.585V119.535C79.4836 123.798 76.0275 127.255 71.7639 127.255C71.4025 127.255 71.0475 127.228 70.6992 127.18V131.232C70.6992 135.496 74.1554 138.952 78.4189 138.952C82.6825 138.952 86.1386 135.496 86.1386 131.232V115.282C86.1386 111.019 89.5948 107.562 93.8583 107.562C94.2198 107.562 94.5748 107.589 94.9231 107.637V103.585Z" fill="url(#paint18_linear)"/>
<path d="M119.275 16.063C119.374 16.8221 119.426 17.5942 119.426 18.3759V77.213C119.426 79.7159 117.397 81.7448 114.894 81.7448C112.391 81.7448 110.363 83.7736 110.363 86.2765V108.097C110.363 112.361 106.906 115.817 102.643 115.817C102.281 115.817 101.926 115.79 101.578 115.742V119.795C101.578 124.058 105.034 127.514 109.298 127.514C113.561 127.514 117.018 124.058 117.018 119.795V97.9742C117.018 95.4712 119.046 93.4424 121.549 93.4424C124.052 93.4424 126.081 91.4136 126.081 88.9106V30.0736C126.081 24.4753 123.472 19.3653 119.275 16.063Z" fill="url(#paint19_linear)"/>
<path d="M126.081 30.0736V88.9104C126.081 90.1604 125.572 91.2959 124.754 92.1165C123.933 92.9371 122.801 93.443 121.548 93.443C119.045 93.443 117.015 95.4727 117.015 97.9727V119.795C117.015 121.928 116.151 123.857 114.753 125.251C114.253 125.751 113.686 126.184 113.065 126.531C111.981 127.142 110.728 127.495 109.398 127.512C105.097 127.567 101.579 123.922 101.579 119.621V115.283C101.579 113.15 100.714 111.221 99.3167 109.824C97.8896 108.397 95.907 107.525 93.7199 107.563C89.4823 107.637 86.1391 111.216 86.1391 115.454V131.231C86.1391 133.364 85.2743 135.293 83.877 136.69C83.377 137.19 82.8093 137.62 82.1885 137.967C81.0738 138.596 79.7882 138.952 78.4176 138.952C74.1555 138.952 70.6994 135.496 70.6994 131.231V105.379C70.6994 103.182 70.2258 101.093 69.3729 99.2136C67.0255 94.0339 61.8076 90.4306 55.7511 90.4306H55.4893C51.3596 90.4306 47.6241 92.1042 44.9179 94.8074C42.2146 97.5136 40.5411 101.249 40.5411 105.379C40.5411 107.509 39.6764 109.438 38.2791 110.835C37.7791 111.335 37.2114 111.767 36.5908 112.112V38.7036C36.5908 34.6445 37.9643 30.8412 40.3176 27.7998C42.6708 24.7554 46.0061 22.473 49.9358 21.4521C72.1855 15.6804 95.4402 15.1786 117.86 19.9515C122.6 20.9604 126.054 25.1336 126.08 29.9792C126.081 30.0106 126.081 30.0421 126.081 30.0736Z" fill="url(#paint20_linear)"/>
<path d="M101.381 30.4041C102.75 30.4041 103.86 29.2941 103.86 27.9247C103.86 26.5554 102.75 25.4453 101.381 25.4453C100.011 25.4453 98.9014 26.5554 98.9014 27.9247C98.9014 29.2941 100.011 30.4041 101.381 30.4041Z" fill="url(#paint21_linear)"/>
<path d="M94.4896 33.7306C95.5706 33.7306 96.4469 32.8543 96.4469 31.7733C96.4469 30.6923 95.5706 29.8159 94.4896 29.8159C93.4086 29.8159 92.5322 30.6923 92.5322 31.7733C92.5322 32.8543 93.4086 33.7306 94.4896 33.7306Z" fill="url(#paint22_linear)"/>
<path d="M101.516 38.0651C102.168 38.0651 102.696 37.5368 102.696 36.8851C102.696 36.2334 102.168 35.7051 101.516 35.7051C100.864 35.7051 100.336 36.2334 100.336 36.8851C100.336 37.5368 100.864 38.0651 101.516 38.0651Z" fill="url(#paint23_linear)"/>
<path d="M112.455 37.018C113.467 37.018 114.287 36.1978 114.287 35.1859C114.287 34.1741 113.467 33.3539 112.455 33.3539C111.443 33.3539 110.623 34.1741 110.623 35.1859C110.623 36.1978 111.443 37.018 112.455 37.018Z" fill="url(#paint24_linear)"/>
<path d="M106.941 34.7333C107.739 34.7333 108.387 34.0857 108.387 33.2868C108.387 32.4879 107.739 31.8403 106.941 31.8403C106.142 31.8403 105.494 32.4879 105.494 33.2868C105.494 34.0857 106.142 34.7333 106.941 34.7333Z" fill="url(#paint25_linear)"/>
<path d="M107.587 40.5465C108.069 40.5465 108.459 40.1561 108.459 39.6744C108.459 39.1928 108.069 38.8024 107.587 38.8024C107.105 38.8024 106.715 39.1928 106.715 39.6744C106.715 40.1561 107.105 40.5465 107.587 40.5465Z" fill="url(#paint26_linear)"/>
<path d="M67.0449 83.2291C68.0568 83.2291 68.877 82.4088 68.877 81.397C68.877 80.3852 68.0568 79.5649 67.0449 79.5649C66.0331 79.5649 65.2129 80.3852 65.2129 81.397C65.2129 82.4088 66.0331 83.2291 67.0449 83.2291Z" fill="url(#paint27_linear)"/>
<path d="M61.5305 80.9443C62.3293 80.9443 62.9769 80.2967 62.9769 79.4979C62.9769 78.699 62.3293 78.0514 61.5305 78.0514C60.7316 78.0514 60.084 78.699 60.084 79.4979C60.084 80.2967 60.7316 80.9443 61.5305 80.9443Z" fill="url(#paint28_linear)"/>
<path d="M62.1768 86.7575C62.6584 86.7575 63.0488 86.3671 63.0488 85.8855C63.0488 85.4039 62.6584 85.0134 62.1768 85.0134C61.6951 85.0134 61.3047 85.4039 61.3047 85.8855C61.3047 86.3671 61.6951 86.7575 62.1768 86.7575Z" fill="url(#paint29_linear)"/>
</g>
<defs>
<linearGradient id="paint0_linear" x1="15.9462" y1="17.4741" x2="153.156" y2="172.772" gradientUnits="userSpaceOnUse">
<stop stop-color="#FAA68E"/>
<stop offset="0.2061" stop-color="#FBA682"/>
<stop offset="0.5808" stop-color="#FDA861"/>
<stop offset="1" stop-color="#FFA936"/>
</linearGradient>
<linearGradient id="paint1_linear" x1="45.4288" y1="53.38" x2="185.823" y2="193.774" gradientUnits="userSpaceOnUse">
<stop stop-color="#FFDECF"/>
<stop offset="0.3791" stop-color="#FDC4B0"/>
<stop offset="0.7655" stop-color="#FBAE97"/>
<stop offset="1" stop-color="#FAA68E"/>
</linearGradient>
<linearGradient id="paint2_linear" x1="30.2636" y1="124.398" x2="28.7265" y2="112.758" gradientUnits="userSpaceOnUse">
<stop stop-color="#F82814" stop-opacity="0"/>
<stop offset="0.2454" stop-color="#F12817" stop-opacity="0.245"/>
<stop offset="0.6052" stop-color="#DD2820" stop-opacity="0.605"/>
<stop offset="1" stop-color="#C0272D"/>
</linearGradient>
<linearGradient id="paint3_linear" x1="23.2665" y1="127.461" x2="22.0533" y2="118.273" gradientUnits="userSpaceOnUse">
<stop stop-color="#F82814" stop-opacity="0"/>
<stop offset="0.2454" stop-color="#F12817" stop-opacity="0.245"/>
<stop offset="0.6052" stop-color="#DD2820" stop-opacity="0.605"/>
<stop offset="1" stop-color="#C0272D"/>
</linearGradient>
<linearGradient id="paint4_linear" x1="30.1422" y1="131.4" x2="29.4106" y2="125.86" gradientUnits="userSpaceOnUse">
<stop stop-color="#F82814" stop-opacity="0"/>
<stop offset="0.2454" stop-color="#F12817" stop-opacity="0.245"/>
<stop offset="0.6052" stop-color="#DD2820" stop-opacity="0.605"/>
<stop offset="1" stop-color="#C0272D"/>
</linearGradient>
<linearGradient id="paint5_linear" x1="39.6953" y1="129.609" x2="45.3446" y2="123.033" gradientUnits="userSpaceOnUse">
<stop stop-color="#F82814" stop-opacity="0"/>
<stop offset="0.2454" stop-color="#F12817" stop-opacity="0.245"/>
<stop offset="0.6052" stop-color="#DD2820" stop-opacity="0.605"/>
<stop offset="1" stop-color="#C0272D"/>
</linearGradient>
<linearGradient id="paint6_linear" x1="34.564" y1="127.267" x2="39.0238" y2="122.075" gradientUnits="userSpaceOnUse">
<stop stop-color="#F82814" stop-opacity="0"/>
<stop offset="0.2454" stop-color="#F12817" stop-opacity="0.245"/>
<stop offset="0.6052" stop-color="#DD2820" stop-opacity="0.605"/>
<stop offset="1" stop-color="#C0272D"/>
</linearGradient>
<linearGradient id="paint7_linear" x1="35.7819" y1="132.99" x2="38.4708" y2="129.86" gradientUnits="userSpaceOnUse">
<stop stop-color="#F82814" stop-opacity="0"/>
<stop offset="0.2454" stop-color="#F12817" stop-opacity="0.245"/>
<stop offset="0.6052" stop-color="#DD2820" stop-opacity="0.605"/>
<stop offset="1" stop-color="#C0272D"/>
</linearGradient>
<linearGradient id="paint8_linear" x1="126.768" y1="104.52" x2="132.417" y2="97.9433" gradientUnits="userSpaceOnUse">
<stop stop-color="#F82814" stop-opacity="0"/>
<stop offset="0.2454" stop-color="#F12817" stop-opacity="0.245"/>
<stop offset="0.6052" stop-color="#DD2820" stop-opacity="0.605"/>
<stop offset="1" stop-color="#C0272D"/>
</linearGradient>
<linearGradient id="paint9_linear" x1="121.637" y1="102.178" x2="126.096" y2="96.9858" gradientUnits="userSpaceOnUse">
<stop stop-color="#F82814" stop-opacity="0"/>
<stop offset="0.2454" stop-color="#F12817" stop-opacity="0.245"/>
<stop offset="0.6052" stop-color="#DD2820" stop-opacity="0.605"/>
<stop offset="1" stop-color="#C0272D"/>
</linearGradient>
<linearGradient id="paint10_linear" x1="122.854" y1="107.901" x2="125.543" y2="104.77" gradientUnits="userSpaceOnUse">
<stop stop-color="#F82814" stop-opacity="0"/>
<stop offset="0.2454" stop-color="#F12817" stop-opacity="0.245"/>
<stop offset="0.6052" stop-color="#DD2820" stop-opacity="0.605"/>
<stop offset="1" stop-color="#C0272D"/>
</linearGradient>
<linearGradient id="paint11_linear" x1="24.2335" y1="42.7849" x2="29.8827" y2="36.2082" gradientUnits="userSpaceOnUse">
<stop stop-color="#F82814" stop-opacity="0"/>
<stop offset="0.2454" stop-color="#F12817" stop-opacity="0.245"/>
<stop offset="0.6052" stop-color="#DD2820" stop-opacity="0.605"/>
<stop offset="1" stop-color="#C0272D"/>
</linearGradient>
<linearGradient id="paint12_linear" x1="19.1025" y1="40.4425" x2="23.5619" y2="35.2504" gradientUnits="userSpaceOnUse">
<stop stop-color="#F82814" stop-opacity="0"/>
<stop offset="0.2454" stop-color="#F12817" stop-opacity="0.245"/>
<stop offset="0.6052" stop-color="#DD2820" stop-opacity="0.605"/>
<stop offset="1" stop-color="#C0272D"/>
</linearGradient>
<linearGradient id="paint13_linear" x1="20.32" y1="46.1653" x2="23.0087" y2="43.0352" gradientUnits="userSpaceOnUse">
<stop stop-color="#F82814" stop-opacity="0"/>
<stop offset="0.2454" stop-color="#F12817" stop-opacity="0.245"/>
<stop offset="0.6052" stop-color="#DD2820" stop-opacity="0.605"/>
<stop offset="1" stop-color="#C0272D"/>
</linearGradient>
<linearGradient id="paint14_linear" x1="99.8928" y1="91.1023" x2="55.4605" y2="42.9676" gradientUnits="userSpaceOnUse">
<stop stop-color="#F82814" stop-opacity="0"/>
<stop offset="0.2458" stop-color="#F12817" stop-opacity="0.246"/>
<stop offset="0.608" stop-color="#DD2820" stop-opacity="0.608"/>
<stop offset="1" stop-color="#C0272D"/>
</linearGradient>
<linearGradient id="paint15_linear" x1="117.689" y1="88.2803" x2="68.6143" y2="71.0456" gradientUnits="userSpaceOnUse">
<stop stop-color="#F82814" stop-opacity="0"/>
<stop offset="0.2458" stop-color="#F12817" stop-opacity="0.246"/>
<stop offset="0.608" stop-color="#DD2820" stop-opacity="0.608"/>
<stop offset="1" stop-color="#C0272D"/>
</linearGradient>
<linearGradient id="paint16_linear" x1="136.454" y1="82.4385" x2="91.8982" y2="75.9897" gradientUnits="userSpaceOnUse">
<stop stop-color="#F82814" stop-opacity="0"/>
<stop offset="0.2458" stop-color="#F12817" stop-opacity="0.246"/>
<stop offset="0.608" stop-color="#DD2820" stop-opacity="0.608"/>
<stop offset="1" stop-color="#C0272D"/>
</linearGradient>
<linearGradient id="paint17_linear" x1="53.9225" y1="32.8107" x2="123.34" y2="139.878" gradientUnits="userSpaceOnUse">
<stop stop-color="#FF6359"/>
<stop offset="0.2243" stop-color="#FE5B50"/>
<stop offset="0.5952" stop-color="#FC4637"/>
<stop offset="1" stop-color="#F82814"/>
</linearGradient>
<linearGradient id="paint18_linear" x1="77.1125" y1="108.619" x2="94.2778" y2="135.094" gradientUnits="userSpaceOnUse">
<stop stop-color="#F82814" stop-opacity="0"/>
<stop offset="1" stop-color="#C0272D"/>
</linearGradient>
<linearGradient id="paint19_linear" x1="112.747" y1="71.6368" x2="140.102" y2="93.403" gradientUnits="userSpaceOnUse">
<stop stop-color="#F82814" stop-opacity="0"/>
<stop offset="1" stop-color="#C0272D"/>
</linearGradient>
<linearGradient id="paint20_linear" x1="71.3758" y1="52.2895" x2="11.3744" y2="-52.7135" gradientUnits="userSpaceOnUse">
<stop stop-color="white" stop-opacity="0"/>
<stop offset="1" stop-color="white"/>
</linearGradient>
<linearGradient id="paint21_linear" x1="101.635" y1="32.3748" x2="100.098" y2="20.7352" gradientUnits="userSpaceOnUse">
<stop stop-color="#F82814" stop-opacity="0"/>
<stop offset="0.2454" stop-color="#F12817" stop-opacity="0.245"/>
<stop offset="0.6052" stop-color="#DD2820" stop-opacity="0.605"/>
<stop offset="1" stop-color="#C0272D"/>
</linearGradient>
<linearGradient id="paint22_linear" x1="94.6375" y1="35.4386" x2="93.4242" y2="26.2495" gradientUnits="userSpaceOnUse">
<stop stop-color="#F82814" stop-opacity="0"/>
<stop offset="0.2454" stop-color="#F12817" stop-opacity="0.245"/>
<stop offset="0.6052" stop-color="#DD2820" stop-opacity="0.605"/>
<stop offset="1" stop-color="#C0272D"/>
</linearGradient>
<linearGradient id="paint23_linear" x1="101.513" y1="39.3767" x2="100.782" y2="33.8369" gradientUnits="userSpaceOnUse">
<stop stop-color="#F82814" stop-opacity="0"/>
<stop offset="0.2454" stop-color="#F12817" stop-opacity="0.245"/>
<stop offset="0.6052" stop-color="#DD2820" stop-opacity="0.605"/>
<stop offset="1" stop-color="#C0272D"/>
</linearGradient>
<linearGradient id="paint24_linear" x1="111.018" y1="37.6438" x2="116.668" y2="31.0672" gradientUnits="userSpaceOnUse">
<stop stop-color="#F82814" stop-opacity="0"/>
<stop offset="0.2454" stop-color="#F12817" stop-opacity="0.245"/>
<stop offset="0.6052" stop-color="#DD2820" stop-opacity="0.605"/>
<stop offset="1" stop-color="#C0272D"/>
</linearGradient>
<linearGradient id="paint25_linear" x1="105.887" y1="35.3014" x2="110.347" y2="30.1094" gradientUnits="userSpaceOnUse">
<stop stop-color="#F82814" stop-opacity="0"/>
<stop offset="0.2454" stop-color="#F12817" stop-opacity="0.245"/>
<stop offset="0.6052" stop-color="#DD2820" stop-opacity="0.605"/>
<stop offset="1" stop-color="#C0272D"/>
</linearGradient>
<linearGradient id="paint26_linear" x1="107.105" y1="41.0243" x2="109.794" y2="37.8942" gradientUnits="userSpaceOnUse">
<stop stop-color="#F82814" stop-opacity="0"/>
<stop offset="0.2454" stop-color="#F12817" stop-opacity="0.245"/>
<stop offset="0.6052" stop-color="#DD2820" stop-opacity="0.605"/>
<stop offset="1" stop-color="#C0272D"/>
</linearGradient>
<linearGradient id="paint27_linear" x1="65.6335" y1="83.8591" x2="71.2828" y2="77.2824" gradientUnits="userSpaceOnUse">
<stop stop-color="#F82814" stop-opacity="0"/>
<stop offset="0.2454" stop-color="#F12817" stop-opacity="0.245"/>
<stop offset="0.6052" stop-color="#DD2820" stop-opacity="0.605"/>
<stop offset="1" stop-color="#C0272D"/>
</linearGradient>
<linearGradient id="paint28_linear" x1="60.5025" y1="81.5167" x2="64.962" y2="76.3246" gradientUnits="userSpaceOnUse">
<stop stop-color="#F82814" stop-opacity="0"/>
<stop offset="0.2454" stop-color="#F12817" stop-opacity="0.245"/>
<stop offset="0.6052" stop-color="#DD2820" stop-opacity="0.605"/>
<stop offset="1" stop-color="#C0272D"/>
</linearGradient>
<linearGradient id="paint29_linear" x1="61.7201" y1="87.2395" x2="64.4087" y2="84.1094" gradientUnits="userSpaceOnUse">
<stop stop-color="#F82814" stop-opacity="0"/>
<stop offset="0.2454" stop-color="#F12817" stop-opacity="0.245"/>
<stop offset="0.6052" stop-color="#DD2820" stop-opacity="0.605"/>
<stop offset="1" stop-color="#C0272D"/>
</linearGradient>
<clipPath id="clip0">
<rect width="150" height="150" fill="white" transform="translate(0.591797 0.0158691)"/>
</clipPath>
</defs>
</svg>
