<svg width="151" height="151" viewBox="0 0 151 151" fill="none" xmlns="http://www.w3.org/2000/svg">
<g clip-path="url(#clip0)">
<path d="M75.6266 112.544C63.2442 112.544 51.8804 110.711 42.9795 107.654C44.2601 112.719 46.666 116.55 49.6324 117.776C56.3277 120.543 65.5033 122.249 75.6266 122.249C85.7498 122.249 94.9254 120.543 101.621 117.776C104.587 116.55 106.993 112.719 108.274 107.654C99.3727 110.711 88.0089 112.544 75.6266 112.544Z" fill="url(#paint0_linear)"/>
<path d="M150.626 64.7047C150.626 43.8588 0.626465 43.8588 0.626465 64.7047C0.626465 85.5506 18.2521 116.119 75.6265 116.119C133.001 116.119 150.626 85.5509 150.626 64.7047Z" fill="url(#paint1_linear)"/>
<path d="M150.626 64.7047C150.626 85.5506 0.626465 85.5506 0.626465 64.7047C0.626465 43.8588 150.626 43.8588 150.626 64.7047Z" fill="url(#paint2_linear)"/>
<path d="M129.744 49.5989C129.744 71.8698 25.5132 71.8698 25.5132 49.5989C25.5132 45.7589 28.6135 42.5818 33.7426 40.0662C35.6058 39.1524 37.3244 37.6692 38.7611 35.6577L38.9152 35.4421C42.0394 31.0686 46.5626 29.8412 50.4988 32.2989L50.5017 32.3006C53.8644 34.4003 57.6982 33.8356 60.7288 30.7945L61.017 30.505C64.3591 27.1515 68.6567 26.8765 72.1744 29.7906L72.4432 30.0133C75.6741 32.6898 79.5858 32.6903 82.817 30.0145L83.0876 29.7903C86.6058 26.8768 90.9035 27.153 94.2455 30.5071L94.5953 30.858C97.6091 33.8827 101.426 34.4242 104.759 32.3003C108.667 29.8109 113.177 31.01 116.288 35.3648L116.497 35.6577C117.933 37.6692 119.652 39.1527 121.515 40.0662C126.644 42.5818 129.744 45.7592 129.744 49.5989Z" fill="url(#paint3_linear)"/>
<path d="M113.425 41.7529C110.422 41.7529 107.988 44.187 107.988 47.19C107.988 50.1929 110.422 52.627 113.425 52.627C116.427 52.627 118.862 50.1929 118.862 47.19C118.862 44.187 116.427 41.7529 113.425 41.7529ZM113.425 49.4979C112.15 49.4979 111.117 48.4647 111.117 47.19C111.117 45.9153 112.15 44.882 113.425 44.882C114.7 44.882 115.733 45.9153 115.733 47.19C115.733 48.4647 114.699 49.4979 113.425 49.4979Z" fill="url(#paint4_linear)"/>
<path d="M71.565 31.3153C68.562 31.3153 66.1279 33.7494 66.1279 36.7524C66.1279 39.7553 68.562 42.1894 71.565 42.1894C74.5676 42.1894 77.002 39.7553 77.002 36.7524C77.002 33.7494 74.5679 31.3153 71.565 31.3153ZM71.565 39.06C70.2903 39.06 69.257 38.0268 69.257 36.7521C69.257 35.4774 70.2903 34.4441 71.565 34.4441C72.8397 34.4441 73.8729 35.4774 73.8729 36.7521C73.8729 38.0268 72.8397 39.06 71.565 39.06Z" fill="url(#paint5_linear)"/>
<path d="M103.264 61.6219C108.876 61.6219 113.425 57.0729 113.425 51.4616C113.425 45.8502 108.876 41.3013 103.264 41.3013C97.6529 41.3013 93.104 45.8502 93.104 51.4616C93.104 57.0729 97.6529 61.6219 103.264 61.6219Z" fill="url(#paint6_linear)"/>
<path d="M100.404 64.7941L69.154 33.5274C67.1981 31.5715 64.8732 30.8 62.4308 29.9274C61.9337 30.2744 61.482 30.0385 61.0173 30.505L60.729 30.7944C57.6982 33.8356 53.8643 34.4003 50.502 32.3006L50.499 32.2988C49.2558 31.5227 48.2481 31.5665 46.9505 31.5085C45.8581 32.2047 44.874 32.8603 43.9202 33.8141C36.8567 40.8777 36.5105 52.0438 43.574 59.1077L48.112 63.6456C63.4334 66.7494 83.8302 67.1327 100.404 64.7941Z" fill="url(#paint7_linear)"/>
<path d="M144.433 64.7047C144.433 80.0674 6.81982 80.0674 6.81982 64.7047C6.81982 49.3421 144.433 49.3424 144.433 64.7047Z" fill="url(#paint8_linear)"/>
<path d="M2.50635 76.7827C3.46841 79.8924 4.82429 83.0448 6.62841 86.143C32.4287 97.4021 118.824 97.4021 144.624 86.143C146.428 83.0448 147.784 79.8924 148.746 76.7827C128.836 91.0583 22.4172 91.0583 2.50635 76.7827Z" fill="url(#paint9_linear)"/>
<path d="M144.359 64.1062C144.214 65.1238 143.841 66.1121 143.264 67.068C141.04 69.2283 135.764 71.0065 128.516 72.4024C124.563 73.1638 120.022 72.3409 115.071 72.8747C110.581 73.3588 105.753 75.22 100.717 75.5171C92.9862 75.973 84.7662 76.2088 76.5291 76.2238C69.235 76.2415 53.4997 73.3768 53.3527 71.9886C52.9733 68.415 55.3703 65.1709 59.6027 62.3562C60.0703 62.0474 60.5233 61.6886 60.9527 61.2827C61.938 60.3562 62.8203 59.1856 63.5556 57.7915L63.6674 57.5768C64.8056 55.4209 66.3174 53.9503 68.0027 53.2444C69.4527 52.6385 71.0291 52.6033 72.6056 53.1915C72.8968 53.3003 73.188 53.4297 73.4762 53.5827L73.4791 53.5856C75.8056 54.8033 78.2174 54.6356 80.2644 53.2062C80.9821 52.7062 81.6556 52.0474 82.2644 51.2415L82.488 50.9444C85.0791 47.515 88.8056 46.8621 92.1644 49.2503L92.4203 49.4327C95.5056 51.6268 98.9233 51.268 101.482 48.4797L101.697 48.2444C104.482 45.2091 108.264 45.0709 111.512 47.8856L111.853 48.1797C114.782 50.718 118.167 50.8709 120.873 48.5856C122.153 47.5062 123.576 46.9738 125.026 46.9738C127.167 46.9738 129.367 48.1297 131.244 50.3768L131.453 50.6297C132.906 52.368 134.553 53.5915 136.27 54.2709C140.997 56.1385 144.017 58.8121 144.394 62.3856C144.456 62.968 144.444 63.5444 144.359 64.1062Z" fill="url(#paint10_linear)"/>
<path d="M69.1536 33.5274C62.0901 26.4639 50.6375 26.4639 43.5736 33.5274C36.5098 40.5909 36.5101 52.0436 43.5736 59.1074C50.6372 66.1709 62.0898 66.1709 69.1536 59.1074C76.2175 52.0439 76.2175 40.5912 69.1536 33.5274ZM48.2419 54.4394C43.7569 49.9544 43.7569 42.6806 48.2419 38.1956C52.7269 33.7106 59.9989 33.7124 64.4839 38.1974C68.9689 42.6824 68.9707 49.9544 64.4857 54.4394C60.0007 58.9244 52.7269 58.9244 48.2419 54.4394Z" fill="url(#paint11_linear)"/>
<path d="M45.7248 56.9565C51.5998 62.8315 61.1277 62.8315 67.0027 56.9565C72.8795 51.0797 72.8777 41.5536 67.0027 35.6786C61.126 29.8018 51.6015 29.8018 45.7248 35.6786C39.8498 41.5533 39.848 51.0797 45.7248 56.9565ZM64.4857 38.1953C68.9707 42.6803 68.9707 49.9542 64.4857 54.4392C60.0007 58.9242 52.7286 58.9224 48.2436 54.4374C43.7586 49.9524 43.7568 42.6803 48.2418 38.1953C52.7268 33.7103 60.0007 33.7103 64.4857 38.1953Z" fill="url(#paint12_linear)"/>
<path d="M138.261 42.0065C132.611 36.3565 123.45 36.3565 117.8 42.0065C112.15 47.6565 112.15 56.8171 117.8 62.4671C123.45 68.1171 132.611 68.1171 138.261 62.4671C143.911 56.8171 143.911 47.6565 138.261 42.0065ZM121.534 58.7333C117.947 55.146 117.947 49.3277 121.534 45.7404C125.122 42.153 130.938 42.1545 134.526 45.7418C138.113 49.3292 138.115 55.146 134.527 58.7333C130.94 62.3207 125.122 62.3207 121.534 58.7333Z" fill="url(#paint13_linear)"/>
<path d="M119.521 60.7465C124.22 65.4456 131.841 65.4456 136.54 60.7465C141.241 56.0459 141.24 48.4262 136.54 43.7271C131.84 39.0265 124.222 39.0265 119.521 43.7271C114.822 48.4262 114.82 56.0459 119.521 60.7465ZM134.527 45.7403C138.115 49.3277 138.115 55.1459 134.527 58.7333C130.94 62.3206 125.123 62.3192 121.536 58.7318C117.948 55.1445 117.947 49.3277 121.534 45.7403C125.122 42.153 130.94 42.153 134.527 45.7403Z" fill="url(#paint14_linear)"/>
<path d="M86.8252 36.7516C87.6022 36.7266 88.2122 36.0766 88.1872 35.2992C88.1622 34.5221 87.5122 33.9121 86.7349 33.9371C85.9578 33.9621 85.3478 34.6121 85.3728 35.3895C85.3978 36.1666 86.0481 36.7766 86.8252 36.7516Z" fill="url(#paint15_linear)"/>
<path d="M80.287 39.3881C80.2753 39.0181 79.9658 38.7278 79.5958 38.7399C79.2258 38.7516 78.9358 39.061 78.9476 39.431C78.9594 39.801 79.2691 40.091 79.6388 40.0793C80.0088 40.0672 80.2991 39.7578 80.287 39.3881Z" fill="url(#paint16_linear)"/>
<path d="M88.9553 39.0333C88.7806 38.7072 88.3744 38.5842 88.0482 38.7589C87.722 38.9336 87.5991 39.3398 87.7738 39.666C87.9485 39.9922 88.3547 40.1151 88.6809 39.9404C89.0071 39.766 89.13 39.3598 88.9553 39.0333Z" fill="url(#paint17_linear)"/>
<path d="M94.365 36.4359C94.1903 36.1097 93.7841 35.9868 93.4579 36.1615C93.1317 36.3362 93.0088 36.7424 93.1835 37.0686C93.3582 37.3947 93.7644 37.5177 94.0905 37.343C94.4167 37.1683 94.5397 36.7621 94.365 36.4359Z" fill="url(#paint18_linear)"/>
<path d="M80.6586 41.2709C80.2694 40.848 79.6115 40.8207 79.1886 41.2098C78.7656 41.5989 78.7383 42.2568 79.1274 42.6798C79.5165 43.1027 80.1744 43.1301 80.5974 42.7409C81.0203 42.3518 81.0477 41.6936 80.6586 41.2709Z" fill="url(#paint19_linear)"/>
<path d="M84.066 36.7572C83.759 36.4234 83.2392 36.4016 82.9054 36.709C82.5716 37.016 82.5498 37.5357 82.8572 37.8696C83.1642 38.2034 83.684 38.2252 84.0178 37.9178C84.3513 37.6107 84.3731 37.091 84.066 36.7572Z" fill="url(#paint20_linear)"/>
<path d="M91.359 33.8201C91.0519 33.4863 90.5322 33.4645 90.1984 33.7718C89.8646 34.0789 89.8428 34.5986 90.1501 34.9324C90.4572 35.2663 90.9769 35.288 91.3107 34.9807C91.6443 34.6736 91.666 34.1539 91.359 33.8201Z" fill="url(#paint21_linear)"/>
<path d="M85.2129 38.8828C85.3979 39.0839 85.7115 39.0972 85.9126 38.9119C86.1138 38.7266 86.1271 38.4133 85.9418 38.2122C85.7565 38.011 85.4432 37.9978 85.2421 38.183C85.0406 38.3683 85.0276 38.6816 85.2129 38.8828Z" fill="url(#paint22_linear)"/>
<path d="M90.323 40.4306C84.2901 34.3976 74.5083 34.3976 68.4754 40.4306C62.4424 46.4635 62.4424 56.2453 68.4754 62.2782C74.5083 68.3112 84.2901 68.3112 90.323 62.2782C96.356 56.2453 96.356 46.4635 90.323 40.4306ZM72.4622 58.2912C68.6316 54.4606 68.6316 48.2479 72.4622 44.4174C76.2927 40.5868 82.5039 40.5882 86.3345 44.4188C90.1651 48.2494 90.1666 54.4606 86.336 58.2912C82.5054 62.1218 76.2927 62.1218 72.4622 58.2912Z" fill="url(#paint23_linear)"/>
<path d="M70.3127 60.4408C75.3304 65.4585 83.4683 65.4585 88.486 60.4408C93.5051 55.4217 93.5036 47.2853 88.486 42.2676C83.4666 37.2482 75.3318 37.2482 70.3127 42.2676C65.2951 47.2853 65.2933 55.4217 70.3127 60.4408ZM86.3363 44.4173C90.1668 48.2479 90.1668 54.4605 86.3363 58.2911C82.5057 62.1217 76.2945 62.1203 72.4639 58.2897C68.6333 54.4591 68.6318 48.2479 72.4624 44.4173C76.293 40.5867 82.5057 40.5867 86.3363 44.4173Z" fill="url(#paint24_linear)"/>
<path d="M63.0505 62.6615C60.3772 72.2865 25.522 62.6056 28.1955 52.9806C30.869 43.3556 40.8384 37.7203 50.4634 40.3935C60.0884 43.0668 65.724 53.0365 63.0505 62.6615Z" fill="url(#paint25_linear)"/>
<path d="M126.348 37.9762C119.284 30.9127 107.832 30.9127 100.768 37.9762C93.7041 45.0398 93.7044 56.4924 100.768 63.5562C107.832 70.6198 119.284 70.6198 126.348 63.5562C133.412 56.4927 133.412 45.0398 126.348 37.9762ZM105.436 58.888C100.951 54.403 100.951 47.1292 105.436 42.6442C109.921 38.1592 117.193 38.1609 121.678 42.6459C126.163 47.1309 126.165 54.403 121.68 58.888C117.195 63.373 109.921 63.373 105.436 58.888Z" fill="url(#paint26_linear)"/>
<path d="M102.919 61.4051C108.794 67.2801 118.322 67.2801 124.197 61.4051C130.074 55.5284 130.072 46.0022 124.197 40.1272C118.32 34.2504 108.796 34.2504 102.919 40.1272C97.0441 46.0022 97.0424 55.5284 102.919 61.4051ZM121.68 42.6442C126.165 47.1292 126.165 54.4031 121.68 58.8881C117.195 63.3731 109.923 63.3713 105.438 58.8863C100.953 54.4013 100.951 47.1292 105.436 42.6442C109.921 38.1592 117.195 38.1592 121.68 42.6442Z" fill="url(#paint27_linear)"/>
<path d="M36.0627 42.4974C30.0336 36.4683 20.258 36.4683 14.2289 42.4974C8.19975 48.5265 8.19975 58.3021 14.2289 64.3312C20.258 70.3604 30.0336 70.3604 36.0627 64.3312C42.0918 58.3021 42.0918 48.5265 36.0627 42.4974ZM18.2133 60.3468C14.385 56.5186 14.385 50.3101 18.2133 46.4818C22.0415 42.6536 28.2486 42.6551 32.0768 46.4833C35.9051 50.3115 35.9065 56.5186 32.0783 60.3468C28.25 64.1751 22.0412 64.1751 18.2133 60.3468Z" fill="url(#paint28_linear)"/>
<path d="M16.0647 62.4954C21.0791 67.5098 29.212 67.5098 34.2265 62.4954C39.2426 57.4793 39.2409 49.3481 34.2265 44.3337C29.2103 39.3175 21.0806 39.3175 16.0647 44.3337C11.0503 49.3481 11.0485 57.4793 16.0647 62.4954ZM32.0782 46.4819C35.9065 50.3101 35.9065 56.5187 32.0782 60.3469C28.25 64.1751 22.0429 64.1737 18.2147 60.3454C14.3865 56.5172 14.385 50.3101 18.2132 46.4819C22.0415 42.6537 28.25 42.6537 32.0782 46.4819Z" fill="url(#paint29_linear)"/>
<path d="M144.359 64.1062C144.214 65.1238 143.841 66.1121 143.264 67.068C141.038 69.2306 135.752 71.0103 128.492 72.4068C124.309 73.2115 119.47 72.1241 114.183 72.6744C109.945 73.1156 105.418 75.2397 100.71 75.5174C92.9815 75.9733 84.7638 76.2085 76.5291 76.2238C69.235 76.2415 53.4997 73.3768 53.3527 71.9886C52.9733 68.415 55.3703 65.1709 59.6027 62.3562C60.0703 62.0474 60.5233 61.6886 60.9527 61.2827C61.938 60.3562 62.8203 59.1856 63.5556 57.7915L63.6674 57.5768C64.8056 55.4209 66.3174 53.9503 68.0027 53.2444C69.4527 52.6385 71.0291 52.6033 72.6056 53.1915C72.8968 53.3003 73.188 53.4297 73.4762 53.5827L73.4791 53.5856C75.8056 54.8033 78.2174 54.6356 80.2644 53.2062C80.9821 52.7062 81.6556 52.0474 82.2644 51.2415L82.488 50.9444C85.0791 47.515 88.8056 46.8621 92.1644 49.2503L92.4203 49.4327C95.5056 51.6268 98.9233 51.268 101.482 48.4797L101.697 48.2444C104.482 45.2091 108.264 45.0709 111.512 47.8856L111.853 48.1797C114.782 50.718 118.167 50.8709 120.873 48.5856C122.153 47.5062 123.576 46.9738 125.026 46.9738C127.167 46.9738 129.367 48.1297 131.244 50.3768L131.453 50.6297C132.906 52.368 134.553 53.5915 136.27 54.2709C140.997 56.1385 144.017 58.8121 144.394 62.3856C144.456 62.968 144.444 63.5444 144.359 64.1062Z" fill="url(#paint30_linear)"/>
<path d="M75.8545 75.8836C75.9745 76.0345 76.0057 76.0739 76.1257 76.2245C84.4827 76.2165 92.8298 75.9815 100.674 75.5198C105.583 75.2306 110.296 73.6765 114.69 73.2098C119.78 72.6692 124.444 73.1859 128.494 72.4068C135.753 71.0104 141.038 69.2306 143.265 67.0683C143.841 66.1124 144.215 65.1242 144.359 64.1065C144.444 63.5448 144.456 62.9683 144.394 62.3859C144.38 62.2533 144.362 62.1221 144.341 61.9921C143.855 59.0112 141.298 56.8812 138.299 56.5198C136.898 56.3509 135.485 55.6933 134.165 54.5495L133.824 54.2554C130.577 51.4407 126.795 51.5789 124.01 54.6142L123.795 54.8495C121.236 57.6377 117.818 57.9965 114.733 55.8024L114.477 55.6201C111.118 53.2318 107.392 53.8848 104.801 57.3142L104.577 57.6112C103.968 58.4171 103.295 59.0759 102.577 59.5759C100.53 61.0054 98.1183 61.173 95.7918 59.9554L95.7889 59.9524C95.5007 59.7995 95.2095 59.6701 94.9183 59.5612C93.3418 58.973 91.7654 59.0083 90.3154 59.6142C88.6301 60.3201 87.1183 61.7906 85.9801 63.9465L85.8683 64.1612C85.133 65.5554 84.2507 66.7259 83.2654 67.6524C82.836 68.0583 82.383 68.4171 81.9154 68.7259C78.6827 70.8756 76.5257 73.2768 75.8545 75.8836Z" fill="url(#paint31_linear)"/>
<path d="M117.407 73.6895C112.17 74.3183 106.915 74.7477 100.687 75.5177C92.9653 75.9724 84.7559 76.2074 76.5291 76.2239C69.235 76.2415 53.4997 73.3768 53.3527 71.9886C52.9733 68.415 55.3703 65.1709 59.6027 62.3562C60.0703 62.0474 60.5233 61.6886 60.9527 61.2827C61.938 60.3562 62.8203 59.1856 63.5556 57.7915L63.6674 57.5768C64.8056 55.4209 66.3174 53.9503 68.0027 53.2445C69.4527 52.6386 71.0291 52.6033 72.6056 53.1915C72.8968 53.3003 73.188 53.4297 73.4762 53.5827L73.4791 53.5856C75.8056 54.8033 78.2174 54.6356 80.2644 53.2062C80.9821 52.7062 81.6556 52.0474 82.2644 51.2415L82.488 50.9444C85.0791 47.515 88.8056 46.8621 92.1644 49.2503L92.4203 49.4327C92.9615 49.818 93.5115 50.1239 94.0674 50.3503L117.407 73.6895Z" fill="url(#paint32_linear)"/>
<path d="M94.5181 58.3365C91.5152 58.3365 89.0811 60.7707 89.0811 63.7736C89.0811 66.7765 91.5152 69.2107 94.5181 69.2107C97.5208 69.2107 99.9552 66.7765 99.9552 63.7736C99.9552 60.7707 97.5211 58.3365 94.5181 58.3365ZM94.5181 66.0815C93.2434 66.0815 92.2102 65.0483 92.2102 63.7736C92.2102 62.4989 93.2434 61.4657 94.5181 61.4657C95.7928 61.4657 96.8261 62.4989 96.8261 63.7736C96.8261 65.0483 95.7928 66.0815 94.5181 66.0815Z" fill="url(#paint33_linear)"/>
<path d="M123.193 60.3741C120.19 60.3741 117.756 62.8083 117.756 65.8112C117.756 68.8141 120.19 71.2483 123.193 71.2483C126.196 71.2483 128.63 68.8141 128.63 65.8112C128.63 62.8083 126.196 60.3741 123.193 60.3741ZM123.193 68.1191C121.918 68.1191 120.885 67.0859 120.885 65.8112C120.885 64.5365 121.918 63.5033 123.193 63.5033C124.468 63.5033 125.501 64.5365 125.501 65.8112C125.501 67.0859 124.468 68.1191 123.193 68.1191Z" fill="url(#paint34_linear)"/>
<path d="M93.1874 45.6168C93.6806 45.3535 93.8671 44.7403 93.6038 44.2471C93.3406 43.7538 92.7274 43.5674 92.2341 43.8306C91.7409 44.0938 91.5544 44.7071 91.8177 45.2003C92.0809 45.6935 92.6941 45.88 93.1874 45.6168Z" fill="url(#paint35_linear)"/>
<path d="M90.2029 44.0982C89.9949 43.7088 89.5108 43.5614 89.1214 43.7694C88.732 43.9773 88.5846 44.4614 88.7926 44.8509C89.0005 45.2403 89.4846 45.3876 89.874 45.1797C90.2635 44.9717 90.4105 44.4876 90.2029 44.0982Z" fill="url(#paint36_linear)"/>
<path d="M88.603 48.0452C88.4777 47.8105 88.1859 47.7217 87.9509 47.847C87.7159 47.9723 87.6274 48.264 87.7527 48.499C87.878 48.734 88.1697 48.8226 88.4047 48.6973C88.6394 48.5717 88.7283 48.2799 88.603 48.0452Z" fill="url(#paint37_linear)"/>
<path d="M93.5906 53.0091C93.1359 52.6838 92.5036 52.7888 92.1783 53.2435C91.853 53.6982 91.958 54.3306 92.4127 54.6559C92.8674 54.9812 93.4998 54.8762 93.8251 54.4215C94.1503 53.9668 94.0453 53.3344 93.5906 53.0091Z" fill="url(#paint38_linear)"/>
<path d="M101.961 50.0123C101.601 49.7556 101.102 49.8382 100.846 50.1973C100.589 50.5564 100.671 51.0556 101.031 51.3123C101.39 51.5691 101.889 51.4864 102.146 51.1273C102.402 50.7682 102.319 50.2691 101.961 50.0123Z" fill="url(#paint39_linear)"/>
<path d="M95.632 46.1156C95.4155 45.9606 95.1146 46.0106 94.9596 46.2271C94.8049 46.4436 94.8546 46.7444 95.0711 46.8994C95.2875 47.0541 95.5884 47.0044 95.7434 46.788C95.8984 46.5715 95.8484 46.2706 95.632 46.1156Z" fill="url(#paint40_linear)"/>
<path d="M91.9943 48.6702C91.609 48.5211 91.1758 48.7129 91.0267 49.0982C90.8775 49.4834 91.0693 49.9167 91.4546 50.0658C91.8399 50.2149 92.2731 50.0232 92.4222 49.6379C92.5714 49.2523 92.3796 48.819 91.9943 48.6702Z" fill="url(#paint41_linear)"/>
<path d="M93.856 47.4059C93.5518 47.2882 93.2098 47.4397 93.0921 47.7438C92.9745 48.0479 93.126 48.39 93.4301 48.5076C93.7342 48.6253 94.0763 48.4738 94.1939 48.1697C94.3116 47.8653 94.1601 47.5235 93.856 47.4059Z" fill="url(#paint42_linear)"/>
<path d="M91.219 47.0229C91.4026 47.0938 91.6087 47.0026 91.6796 46.8191C91.7505 46.6356 91.6593 46.4294 91.4758 46.3585C91.2923 46.2876 91.0861 46.3788 91.0152 46.5623C90.9443 46.7459 91.0358 46.952 91.219 47.0229Z" fill="url(#paint43_linear)"/>
<path d="M110.425 53.6223C110.918 53.359 111.105 52.7458 110.842 52.2526C110.578 51.7593 109.965 51.5729 109.472 51.8361C108.979 52.0993 108.792 52.7126 109.055 53.2058C109.318 53.699 109.932 53.8855 110.425 53.6223Z" fill="url(#paint44_linear)"/>
<path d="M101.495 58.1055C101.287 57.7161 100.803 57.5688 100.414 57.7767C100.024 57.9846 99.8771 58.4688 100.085 58.8582C100.293 59.2476 100.777 59.3949 101.167 59.187C101.556 58.9791 101.703 58.4949 101.495 58.1055Z" fill="url(#paint45_linear)"/>
<path d="M102.904 53.752C102.778 53.5173 102.487 53.4285 102.252 53.5538C102.017 53.6791 101.928 53.9708 102.053 54.2058C102.179 54.4405 102.47 54.5294 102.705 54.4041C102.94 54.2788 103.029 53.987 102.904 53.752Z" fill="url(#paint46_linear)"/>
<path d="M114.235 57.8358C113.78 57.5105 113.148 57.6155 112.823 58.0702C112.498 58.5249 112.603 59.1572 113.057 59.4825C113.512 59.8078 114.144 59.7028 114.47 59.2481C114.795 58.7934 114.69 58.1611 114.235 57.8358Z" fill="url(#paint47_linear)"/>
<path d="M114.898 56.6526C115.154 56.2935 115.072 55.7944 114.713 55.5376C114.353 55.2808 113.854 55.3635 113.598 55.7226C113.341 56.0817 113.423 56.5808 113.783 56.8376C114.141 57.0944 114.64 57.0114 114.898 56.6526Z" fill="url(#paint48_linear)"/>
<path d="M112.87 54.1212C112.653 53.9665 112.352 54.0162 112.197 54.2327C112.043 54.4492 112.092 54.75 112.309 54.905C112.525 55.0598 112.826 55.01 112.981 54.7936C113.136 54.5771 113.086 54.2762 112.87 54.1212Z" fill="url(#paint49_linear)"/>
<path d="M105.342 57.4826C104.957 57.3335 104.523 57.5252 104.374 57.9105C104.225 58.2958 104.417 58.7291 104.802 58.8782C105.188 59.0273 105.621 58.8355 105.77 58.4502C105.919 58.0649 105.727 57.6317 105.342 57.4826Z" fill="url(#paint50_linear)"/>
<path d="M111.094 55.4114C110.79 55.2937 110.448 55.4449 110.33 55.7493C110.212 56.0534 110.364 56.3955 110.668 56.5131C110.972 56.6308 111.314 56.4793 111.432 56.1752C111.549 55.8711 111.398 55.529 111.094 55.4114Z" fill="url(#paint51_linear)"/>
<path d="M108.457 55.0285C108.64 55.0994 108.847 55.0082 108.917 54.8247C108.988 54.6412 108.897 54.435 108.714 54.3641C108.53 54.2932 108.324 54.3844 108.253 54.568C108.182 54.7515 108.273 54.9577 108.457 55.0285Z" fill="url(#paint52_linear)"/>
<path d="M87.4641 71.4112C81.747 77.1283 72.4891 77.1392 66.7856 71.4356C61.082 65.7321 61.0932 56.4742 66.81 50.7571C72.5267 45.04 86.1467 40.6674 91.8503 46.3709C97.5538 52.0744 93.1812 65.6942 87.4641 71.4112Z" fill="url(#paint53_linear)"/>
<path d="M66.2207 70.8359C71.376 75.3856 79.7383 74.7273 85.2592 69.2062C90.6957 63.7697 95.3607 51.6344 91.4242 46.0762C91.3027 45.9044 91.1527 45.7535 90.9839 45.6279C84.8692 41.0882 72.2557 45.3118 66.8104 50.7571C61.2892 56.2779 61.0913 65.1006 66.2207 70.8359Z" fill="url(#paint54_linear)"/>
<path d="M74.3432 68.6286C78.8739 68.6286 82.5467 64.9558 82.5467 60.4251C82.5467 55.8944 78.8739 52.2216 74.3432 52.2216C69.8125 52.2216 66.1396 55.8944 66.1396 60.4251C66.1396 64.9558 69.8125 68.6286 74.3432 68.6286Z" fill="url(#paint55_linear)"/>
<path d="M76.5291 76.2239C72.2147 76.2345 67.8959 76.183 63.6403 76.0713C62.5903 76.0436 61.5444 73.9536 60.503 73.9186C59.2641 73.8771 58.0324 75.8892 56.8088 75.8371C56.1818 75.8107 55.5571 75.7827 54.935 75.7533C29.7468 74.5592 8.635 71.1268 6.93206 65.4533C6.88206 65.1239 6.84971 64.7915 6.835 64.4621C6.77324 63.2621 6.935 62.0621 7.34383 60.8739C8.59383 57.2415 11.7203 54.9562 15.9997 53.768C17.5527 53.3357 19.1938 52.3327 20.8203 50.7651L20.9938 50.5945C24.5262 47.1827 27.9762 47.0739 29.8291 50.3121V50.3151C31.4144 53.0827 34.1821 53.4386 37.2174 51.2651L37.5056 51.0592C40.8527 48.6621 43.8409 49.4004 45.2615 52.9739L45.3703 53.2474C45.5085 53.5915 45.6615 53.9121 45.8262 54.2033C47.238 56.6915 49.638 57.2504 52.3674 55.6562L52.6233 55.5062C55.9438 53.568 58.7527 54.8268 59.9144 58.7768L60.035 59.1886C60.2733 60.0004 60.5821 60.7004 60.9527 61.2827C62.2027 63.2533 64.1497 63.868 66.4203 62.9151C67.1262 62.618 67.7997 62.4739 68.4291 62.4739C70.8703 62.4739 72.6556 64.6415 73.1938 68.4915L73.2409 68.8151C73.5527 71.0533 74.2291 72.8533 75.188 74.1504C75.6968 74.8357 76.1439 75.5298 76.5291 76.2239Z" fill="url(#paint56_linear)"/>
<path d="M125.906 67.398C123.514 64.8971 119.911 63.6709 116.286 64.4765C111.339 65.5762 108.034 70.0868 108.29 74.9851C108.292 74.9848 108.294 74.9848 108.297 74.9845C108.346 74.9803 115.356 73.5656 118.662 73.1486C122.094 72.7153 125.599 72.9621 128.479 72.4086C129.173 72.2751 129.849 72.1383 130.506 71.9977L125.906 67.398Z" fill="url(#paint57_linear)"/>
<path d="M128.492 72.2432C127.266 66.728 121.801 63.2506 116.286 64.4765C111.339 65.5762 108.034 70.0868 108.29 74.985C115.902 74.36 122.819 73.4988 128.518 72.4012C128.51 72.3485 128.504 72.2962 128.492 72.2432Z" fill="url(#paint58_linear)"/>
<path d="M114.227 73.7051C114.227 69.8954 111.139 66.8069 107.329 66.8069C103.519 66.8069 100.431 69.8954 100.431 73.7051C100.431 74.3328 100.516 74.9404 100.673 75.5184C105.399 75.2401 109.936 74.8781 114.188 74.4354C114.214 74.1951 114.227 73.9519 114.227 73.7051Z" fill="url(#paint59_linear)"/>
<path d="M58.6715 66.6554C55.9774 63.9613 52.6177 62.6907 49.1788 62.0745C43.6009 61.0754 37.7106 62.4133 33.3409 66.783C31.365 68.7589 29.6938 70.9504 28.8232 73.421C29.0365 73.4521 29.2559 73.4816 29.4712 73.5121C29.4709 73.5127 29.4706 73.5133 29.4706 73.5139C36.8885 74.5657 45.6329 75.3121 54.935 75.7533C55.5515 75.7824 56.1706 75.8101 56.7918 75.8366C58.0335 75.8892 59.2841 74.466 60.5418 74.508C61.5677 74.5424 62.5982 76.0436 63.6324 76.0707C65.1394 76.1101 66.6541 76.1421 68.1741 76.1665L58.6715 66.6554Z" fill="url(#paint60_linear)"/>
<path d="M31.4361 58.3365C28.4331 58.3365 25.999 60.7707 25.999 63.7736C25.999 66.7765 28.4331 69.2107 31.4361 69.2107C34.4387 69.2107 36.8731 66.7765 36.8731 63.7736C36.8731 60.7707 34.439 58.3365 31.4361 58.3365ZM31.4361 66.0815C30.1614 66.0815 29.1281 65.0483 29.1281 63.7736C29.1281 62.4989 30.1614 61.4657 31.4361 61.4657C32.7108 61.4657 33.744 62.4989 33.744 63.7736C33.744 65.0483 32.7108 66.0815 31.4361 66.0815Z" fill="url(#paint61_linear)"/>
<path d="M58.6718 66.6553C51.6082 59.5918 40.1556 59.5918 33.0918 66.6553C31.1159 68.6312 29.6938 70.9506 28.8232 73.4209C30.9791 73.735 33.2512 74.023 35.6206 74.2844C36.1577 73.2168 36.8685 72.2144 37.7597 71.3233C42.2447 66.8383 49.5168 66.84 54.0018 71.325C55.313 72.6362 56.3162 73.895 56.8609 75.5433C58.0924 75.5956 59.2538 75.9339 60.5006 75.9756C61.5462 76.0106 62.5968 76.0421 63.6515 76.0697C63 72.6209 61.3412 69.3247 58.6718 66.6553Z" fill="url(#paint62_linear)"/>
<path d="M56.5209 68.8065C50.6442 62.9297 41.1197 62.9297 35.243 68.8065C33.758 70.2915 32.6495 72.0103 31.915 73.8442C33.1203 73.9986 34.3574 74.1453 35.6209 74.2847C36.1577 73.2171 36.8689 72.2147 37.76 71.3236C42.245 66.8386 49.5189 66.8386 54.0039 71.3236C55.3153 72.635 56.2403 74.1856 56.7847 75.8344C58.023 75.8871 59.2683 75.9353 60.5224 75.9774C59.9024 73.3495 58.57 70.8556 56.5209 68.8065Z" fill="url(#paint63_linear)"/>
<path d="M48.6336 44.5901C48.8257 44.0651 48.556 43.4836 48.0307 43.2913C47.5057 43.0992 46.9242 43.3689 46.7318 43.8942C46.5398 44.4192 46.8095 45.0007 47.3348 45.1927C47.8601 45.3851 48.4415 45.1154 48.6336 44.5901Z" fill="url(#paint64_linear)"/>
<path d="M45.3965 45.4483C44.9821 45.2966 44.5229 45.5098 44.3712 45.9242C44.2194 46.3386 44.4327 46.7977 44.8471 46.9495C45.2615 47.1013 45.7206 46.888 45.8724 46.4736C46.0241 46.0589 45.8109 45.5998 45.3965 45.4483Z" fill="url(#paint65_linear)"/>
<path d="M46.8357 49.4566C46.5857 49.3651 46.3089 49.4937 46.2175 49.7437C46.126 49.9937 46.2545 50.2704 46.5042 50.3619C46.7539 50.4534 47.031 50.3248 47.1225 50.0751C47.2139 49.8248 47.0854 49.5481 46.8357 49.4566Z" fill="url(#paint66_linear)"/>
<path d="M53.862 49.8313C53.3062 49.8919 52.9047 50.3919 52.9656 50.9478C53.0262 51.5037 53.5262 51.9051 54.082 51.8442C54.6379 51.7837 55.0394 51.2837 54.9785 50.7278C54.9176 50.1719 54.4179 49.7704 53.862 49.8313Z" fill="url(#paint67_linear)"/>
<path d="M58.1026 42.0171C57.6638 42.0651 57.347 42.4595 57.3949 42.8983C57.4429 43.3371 57.8373 43.6539 58.2761 43.6059C58.7149 43.558 59.0317 43.1633 58.9838 42.7248C58.9358 42.2862 58.5414 41.9692 58.1026 42.0171Z" fill="url(#paint68_linear)"/>
<path d="M50.788 43.3322C50.5233 43.361 50.3325 43.599 50.3613 43.8637C50.3901 44.1281 50.628 44.3193 50.8928 44.2905C51.1572 44.2616 51.3483 44.0237 51.3195 43.759C51.2904 43.4943 51.0525 43.3034 50.788 43.3322Z" fill="url(#paint69_linear)"/>
<path d="M49.7805 47.6613C49.394 47.8072 49.1987 48.2389 49.3449 48.6254C49.4908 49.0119 49.9226 49.2072 50.309 49.0613C50.6955 48.9154 50.8908 48.4836 50.7449 48.0972C50.599 47.7107 50.167 47.5154 49.7805 47.6613Z" fill="url(#paint70_linear)"/>
<path d="M50.3241 45.4778C50.0189 45.5931 49.865 45.9337 49.98 46.239C50.0953 46.5443 50.4359 46.6981 50.7412 46.5831C51.0465 46.4678 51.2003 46.1272 51.0853 45.8219C50.9703 45.5167 50.6294 45.3628 50.3241 45.4778Z" fill="url(#paint71_linear)"/>
<path d="M48.1035 46.9507C48.2876 46.8813 48.3802 46.6757 48.3108 46.4919C48.2414 46.3078 48.0358 46.2151 47.852 46.2845C47.6679 46.3539 47.5752 46.5595 47.6446 46.7433C47.714 46.9272 47.9193 47.0201 48.1035 46.9507Z" fill="url(#paint72_linear)"/>
<path d="M66.8187 39.0642C67.0107 38.5392 66.741 37.9578 66.2157 37.7654C65.6907 37.5733 65.1092 37.843 64.9169 38.3683C64.7248 38.8933 64.9945 39.4748 65.5198 39.6672C66.0451 39.8592 66.6266 39.5895 66.8187 39.0642Z" fill="url(#paint73_linear)"/>
<path d="M63.1523 48.3588C62.7379 48.2071 62.2788 48.4203 62.127 48.8347C61.9753 49.2491 62.1885 49.7083 62.6029 49.86C63.0173 50.0118 63.4764 49.7986 63.6282 49.3841C63.7797 48.9697 63.5667 48.5106 63.1523 48.3588Z" fill="url(#paint74_linear)"/>
<path d="M61.2996 44.1757C61.0496 44.0842 60.7728 44.2128 60.6813 44.4628C60.5899 44.7128 60.7184 44.9895 60.9681 45.0807C61.2181 45.1722 61.4949 45.0437 61.5863 44.7939C61.6778 44.5437 61.5493 44.2669 61.2996 44.1757Z" fill="url(#paint75_linear)"/>
<path d="M72.4675 39.6646C71.9116 39.7251 71.5102 40.2251 71.571 40.781C71.6316 41.3369 72.1316 41.7384 72.6875 41.6775C73.2434 41.6169 73.6449 41.1169 73.584 40.561C73.5231 40.0051 73.0234 39.6037 72.4675 39.6646Z" fill="url(#paint76_linear)"/>
<path d="M72.1722 38.341C72.1243 37.9022 71.7296 37.5854 71.2911 37.6333C70.8522 37.6813 70.5355 38.0757 70.5834 38.5145C70.6314 38.9533 71.0258 39.2701 71.4646 39.2222C71.9034 39.1745 72.2202 38.7798 72.1722 38.341Z" fill="url(#paint77_linear)"/>
<path d="M68.9736 37.8063C68.7092 37.8352 68.518 38.0731 68.5468 38.3378C68.5756 38.6022 68.8136 38.7934 69.0783 38.7646C69.3427 38.7358 69.5339 38.4978 69.5051 38.2331C69.4759 37.9684 69.2383 37.7775 68.9736 37.8063Z" fill="url(#paint78_linear)"/>
<path d="M65.6039 45.3305C65.2174 45.4764 65.0221 45.9081 65.168 46.2946C65.3139 46.6811 65.7456 46.8764 66.1321 46.7305C66.5186 46.5846 66.7139 46.1528 66.5677 45.7663C66.4221 45.3799 65.9904 45.1846 65.6039 45.3305Z" fill="url(#paint79_linear)"/>
<path d="M68.5097 39.9522C68.2044 40.0675 68.0506 40.4081 68.1656 40.7134C68.2809 41.0187 68.6215 41.1725 68.9267 41.0575C69.232 40.9422 69.3859 40.6016 69.2709 40.2963C69.1556 39.991 68.8147 39.8369 68.5097 39.9522Z" fill="url(#paint80_linear)"/>
<path d="M66.289 41.4248C66.4731 41.3554 66.5658 41.1498 66.4963 40.966C66.4269 40.7819 66.2214 40.6892 66.0375 40.7586C65.8534 40.8281 65.7608 41.0336 65.8302 41.2175C65.8996 41.4013 66.1052 41.4942 66.289 41.4248Z" fill="url(#paint81_linear)"/>
</g>
<defs>
<linearGradient id="paint0_linear" x1="75.9354" y1="112.749" x2="76.4845" y2="121.808" gradientUnits="userSpaceOnUse">
<stop stop-color="#F8F6FB"/>
<stop offset="1" stop-color="#EFDCFB"/>
</linearGradient>
<linearGradient id="paint1_linear" x1="64.1647" y1="53.2797" x2="104.251" y2="113.001" gradientUnits="userSpaceOnUse">
<stop stop-color="#F8F6FB"/>
<stop offset="1" stop-color="#EFDCFB"/>
</linearGradient>
<linearGradient id="paint2_linear" x1="66.5153" y1="27.9224" x2="77.1035" y2="70.6677" gradientUnits="userSpaceOnUse">
<stop stop-color="#F8F6FB"/>
<stop offset="1" stop-color="#EFDCFB"/>
</linearGradient>
<linearGradient id="paint3_linear" x1="77.6285" y1="28.9103" x2="77.6285" y2="49.8062" gradientUnits="userSpaceOnUse">
<stop stop-color="#BADA00"/>
<stop offset="0.2269" stop-color="#B0CE00"/>
<stop offset="0.6378" stop-color="#95AE00"/>
<stop offset="1" stop-color="#798C00"/>
</linearGradient>
<linearGradient id="paint4_linear" x1="110.589" y1="41.5185" x2="113.824" y2="47.9891" gradientUnits="userSpaceOnUse">
<stop stop-color="#8A7889"/>
<stop offset="0.3344" stop-color="#867385"/>
<stop offset="0.7039" stop-color="#7B667B"/>
<stop offset="1" stop-color="#6E566E"/>
</linearGradient>
<linearGradient id="paint5_linear" x1="68.7294" y1="31.0809" x2="71.9647" y2="37.5515" gradientUnits="userSpaceOnUse">
<stop stop-color="#8A7889"/>
<stop offset="0.3344" stop-color="#867385"/>
<stop offset="0.7039" stop-color="#7B667B"/>
<stop offset="1" stop-color="#6E566E"/>
</linearGradient>
<linearGradient id="paint6_linear" x1="103.264" y1="41.3824" x2="103.264" y2="52.2619" gradientUnits="userSpaceOnUse">
<stop stop-color="#F8F6FB"/>
<stop offset="1" stop-color="#EFDCFB"/>
</linearGradient>
<linearGradient id="paint7_linear" x1="69.677" y1="58.0138" x2="64.154" y2="25.555" gradientUnits="userSpaceOnUse">
<stop stop-color="#798C00" stop-opacity="0"/>
<stop offset="0.6542" stop-color="#556100" stop-opacity="0.654"/>
<stop offset="1" stop-color="#464F00"/>
</linearGradient>
<linearGradient id="paint8_linear" x1="75.6263" y1="94.1462" x2="75.6263" y2="-12.2109" gradientUnits="userSpaceOnUse">
<stop stop-color="#EFDCFB" stop-opacity="0"/>
<stop offset="0.0287" stop-color="#E9D6F7" stop-opacity="0.029"/>
<stop offset="0.2203" stop-color="#C5B5DE" stop-opacity="0.22"/>
<stop offset="0.4138" stop-color="#AA9BCB" stop-opacity="0.414"/>
<stop offset="0.6078" stop-color="#9688BD" stop-opacity="0.608"/>
<stop offset="0.8028" stop-color="#8A7DB5" stop-opacity="0.803"/>
<stop offset="1" stop-color="#8679B2"/>
</linearGradient>
<linearGradient id="paint9_linear" x1="100.548" y1="96.7033" x2="112.717" y2="104.816" gradientUnits="userSpaceOnUse">
<stop stop-color="#FF6359"/>
<stop offset="0.2243" stop-color="#FE5B50"/>
<stop offset="0.5952" stop-color="#FC4637"/>
<stop offset="1" stop-color="#F82814"/>
</linearGradient>
<linearGradient id="paint10_linear" x1="97.7265" y1="53.7685" x2="99.6797" y2="76.6244" gradientUnits="userSpaceOnUse">
<stop stop-color="#BADA00"/>
<stop offset="0.2269" stop-color="#B0CE00"/>
<stop offset="0.6378" stop-color="#95AE00"/>
<stop offset="1" stop-color="#798C00"/>
</linearGradient>
<linearGradient id="paint11_linear" x1="61.7305" y1="30.715" x2="54.527" y2="51.7374" gradientUnits="userSpaceOnUse">
<stop stop-color="#FFD945"/>
<stop offset="0.3126" stop-color="#FFD643"/>
<stop offset="0.5593" stop-color="#FFCC3D"/>
<stop offset="0.7826" stop-color="#FFBB33"/>
<stop offset="0.9922" stop-color="#FFA426"/>
<stop offset="1" stop-color="#FFA325"/>
</linearGradient>
<linearGradient id="paint12_linear" x1="51.9614" y1="59.3437" x2="57.9534" y2="41.8567" gradientUnits="userSpaceOnUse">
<stop stop-color="#FFD945"/>
<stop offset="0.3126" stop-color="#FFD643"/>
<stop offset="0.5593" stop-color="#FFCC3D"/>
<stop offset="0.7826" stop-color="#FFBB33"/>
<stop offset="0.9922" stop-color="#FFA426"/>
<stop offset="1" stop-color="#FFA325"/>
</linearGradient>
<linearGradient id="paint13_linear" x1="122.237" y1="40.4021" x2="130.054" y2="56.3698" gradientUnits="userSpaceOnUse">
<stop stop-color="#FF6359"/>
<stop offset="0.2243" stop-color="#FE5B50"/>
<stop offset="0.5952" stop-color="#FC4637"/>
<stop offset="1" stop-color="#F82814"/>
</linearGradient>
<linearGradient id="paint14_linear" x1="142.224" y1="66.43" x2="123.689" y2="47.895" gradientUnits="userSpaceOnUse">
<stop stop-color="#FF6359"/>
<stop offset="0.2243" stop-color="#FE5B50"/>
<stop offset="0.5952" stop-color="#FC4637"/>
<stop offset="1" stop-color="#F82814"/>
</linearGradient>
<linearGradient id="paint15_linear" x1="87.7093" y1="33.4574" x2="84.1515" y2="39.0967" gradientUnits="userSpaceOnUse">
<stop stop-color="#FF6359"/>
<stop offset="0.2243" stop-color="#FE5B50"/>
<stop offset="0.5952" stop-color="#FC4637"/>
<stop offset="1" stop-color="#F82814"/>
</linearGradient>
<linearGradient id="paint16_linear" x1="79.9441" y1="38.4768" x2="78.2507" y2="41.1609" gradientUnits="userSpaceOnUse">
<stop stop-color="#FF6359"/>
<stop offset="0.2243" stop-color="#FE5B50"/>
<stop offset="0.5952" stop-color="#FC4637"/>
<stop offset="1" stop-color="#F82814"/>
</linearGradient>
<linearGradient id="paint17_linear" x1="88.6959" y1="38.415" x2="87.0025" y2="41.0991" gradientUnits="userSpaceOnUse">
<stop stop-color="#FF6359"/>
<stop offset="0.2243" stop-color="#FE5B50"/>
<stop offset="0.5952" stop-color="#FC4637"/>
<stop offset="1" stop-color="#F82814"/>
</linearGradient>
<linearGradient id="paint18_linear" x1="94.1075" y1="35.8145" x2="92.4142" y2="38.4989" gradientUnits="userSpaceOnUse">
<stop stop-color="#FF6359"/>
<stop offset="0.2243" stop-color="#FE5B50"/>
<stop offset="0.5952" stop-color="#FC4637"/>
<stop offset="1" stop-color="#F82814"/>
</linearGradient>
<linearGradient id="paint19_linear" x1="80.5215" y1="40.5666" x2="77.8923" y2="44.7345" gradientUnits="userSpaceOnUse">
<stop stop-color="#FF6359"/>
<stop offset="0.2243" stop-color="#FE5B50"/>
<stop offset="0.5952" stop-color="#FC4637"/>
<stop offset="1" stop-color="#F82814"/>
</linearGradient>
<linearGradient id="paint20_linear" x1="83.9125" y1="36.1839" x2="81.837" y2="39.4739" gradientUnits="userSpaceOnUse">
<stop stop-color="#FF6359"/>
<stop offset="0.2243" stop-color="#FE5B50"/>
<stop offset="0.5952" stop-color="#FC4637"/>
<stop offset="1" stop-color="#F82814"/>
</linearGradient>
<linearGradient id="paint21_linear" x1="91.2088" y1="33.2433" x2="89.133" y2="36.5334" gradientUnits="userSpaceOnUse">
<stop stop-color="#FF6359"/>
<stop offset="0.2243" stop-color="#FE5B50"/>
<stop offset="0.5952" stop-color="#FC4637"/>
<stop offset="1" stop-color="#F82814"/>
</linearGradient>
<linearGradient id="paint22_linear" x1="85.7647" y1="37.8381" x2="84.5133" y2="39.8219" gradientUnits="userSpaceOnUse">
<stop stop-color="#FF6359"/>
<stop offset="0.2243" stop-color="#FE5B50"/>
<stop offset="0.5952" stop-color="#FC4637"/>
<stop offset="1" stop-color="#F82814"/>
</linearGradient>
<linearGradient id="paint23_linear" x1="83.9834" y1="38.0245" x2="77.8308" y2="55.9798" gradientUnits="userSpaceOnUse">
<stop stop-color="#FFD945"/>
<stop offset="0.3126" stop-color="#FFD643"/>
<stop offset="0.5593" stop-color="#FFCC3D"/>
<stop offset="0.7826" stop-color="#FFBB33"/>
<stop offset="0.9922" stop-color="#FFA426"/>
<stop offset="1" stop-color="#FFA325"/>
</linearGradient>
<linearGradient id="paint24_linear" x1="75.6417" y1="62.4887" x2="80.7593" y2="47.5534" gradientUnits="userSpaceOnUse">
<stop stop-color="#FFD945"/>
<stop offset="0.3126" stop-color="#FFD643"/>
<stop offset="0.5593" stop-color="#FFCC3D"/>
<stop offset="0.7826" stop-color="#FFBB33"/>
<stop offset="0.9922" stop-color="#FFA426"/>
<stop offset="1" stop-color="#FFA325"/>
</linearGradient>
<linearGradient id="paint25_linear" x1="43.1749" y1="41.0665" x2="46.4042" y2="58.4075" gradientUnits="userSpaceOnUse">
<stop stop-color="#FF6359"/>
<stop offset="0.2243" stop-color="#FE5B50"/>
<stop offset="0.5952" stop-color="#FC4637"/>
<stop offset="1" stop-color="#F82814"/>
</linearGradient>
<linearGradient id="paint26_linear" x1="118.916" y1="35.1631" x2="111.713" y2="56.1855" gradientUnits="userSpaceOnUse">
<stop stop-color="#FFDECF"/>
<stop offset="0.3791" stop-color="#FDC4B0"/>
<stop offset="0.7655" stop-color="#FBAE97"/>
<stop offset="1" stop-color="#FAA68E"/>
</linearGradient>
<linearGradient id="paint27_linear" x1="109.147" y1="63.7917" x2="115.139" y2="46.3046" gradientUnits="userSpaceOnUse">
<stop stop-color="#FFDECF"/>
<stop offset="0.3791" stop-color="#FDC4B0"/>
<stop offset="0.7655" stop-color="#FBAE97"/>
<stop offset="1" stop-color="#FAA68E"/>
</linearGradient>
<linearGradient id="paint28_linear" x1="29.7353" y1="40.0925" x2="23.5867" y2="58.0364" gradientUnits="userSpaceOnUse">
<stop stop-color="#FFDECF"/>
<stop offset="0.3791" stop-color="#FDC4B0"/>
<stop offset="0.7655" stop-color="#FBAE97"/>
<stop offset="1" stop-color="#FAA68E"/>
</linearGradient>
<linearGradient id="paint29_linear" x1="21.3983" y1="64.5415" x2="26.5128" y2="49.6155" gradientUnits="userSpaceOnUse">
<stop stop-color="#FFDECF"/>
<stop offset="0.3791" stop-color="#FDC4B0"/>
<stop offset="0.7655" stop-color="#FBAE97"/>
<stop offset="1" stop-color="#FAA68E"/>
</linearGradient>
<linearGradient id="paint30_linear" x1="97.7262" y1="53.768" x2="99.6797" y2="76.6218" gradientUnits="userSpaceOnUse">
<stop stop-color="#BADA00"/>
<stop offset="0.2269" stop-color="#B0CE00"/>
<stop offset="0.6378" stop-color="#95AE00"/>
<stop offset="1" stop-color="#798C00"/>
</linearGradient>
<linearGradient id="paint31_linear" x1="110.042" y1="65.2748" x2="109.16" y2="29.0004" gradientUnits="userSpaceOnUse">
<stop stop-color="#798C00" stop-opacity="0"/>
<stop offset="0.6542" stop-color="#556100" stop-opacity="0.654"/>
<stop offset="1" stop-color="#464F00"/>
</linearGradient>
<linearGradient id="paint32_linear" x1="96.7047" y1="79.2627" x2="66.9768" y2="55.9468" gradientUnits="userSpaceOnUse">
<stop stop-color="#798C00" stop-opacity="0"/>
<stop offset="0.6542" stop-color="#556100" stop-opacity="0.654"/>
<stop offset="1" stop-color="#464F00"/>
</linearGradient>
<linearGradient id="paint33_linear" x1="91.6825" y1="58.1021" x2="94.9178" y2="64.5727" gradientUnits="userSpaceOnUse">
<stop stop-color="#8A7889"/>
<stop offset="0.3344" stop-color="#867385"/>
<stop offset="0.7039" stop-color="#7B667B"/>
<stop offset="1" stop-color="#6E566E"/>
</linearGradient>
<linearGradient id="paint34_linear" x1="120.357" y1="60.1397" x2="123.593" y2="66.6103" gradientUnits="userSpaceOnUse">
<stop stop-color="#8A7889"/>
<stop offset="0.3344" stop-color="#867385"/>
<stop offset="0.7039" stop-color="#7B667B"/>
<stop offset="1" stop-color="#6E566E"/>
</linearGradient>
<linearGradient id="paint35_linear" x1="92.6583" y1="43.1114" x2="92.1547" y2="47.8768" gradientUnits="userSpaceOnUse">
<stop stop-color="#FFDECF"/>
<stop offset="0.3791" stop-color="#FDC4B0"/>
<stop offset="0.7655" stop-color="#FBAE97"/>
<stop offset="1" stop-color="#FAA68E"/>
</linearGradient>
<linearGradient id="paint36_linear" x1="89.4114" y1="43.1834" x2="89.0136" y2="46.9453" gradientUnits="userSpaceOnUse">
<stop stop-color="#FFDECF"/>
<stop offset="0.3791" stop-color="#FDC4B0"/>
<stop offset="0.7655" stop-color="#FBAE97"/>
<stop offset="1" stop-color="#FAA68E"/>
</linearGradient>
<linearGradient id="paint37_linear" x1="88.0392" y1="47.4606" x2="87.7994" y2="49.7289" gradientUnits="userSpaceOnUse">
<stop stop-color="#FFDECF"/>
<stop offset="0.3791" stop-color="#FDC4B0"/>
<stop offset="0.7655" stop-color="#FBAE97"/>
<stop offset="1" stop-color="#FAA68E"/>
</linearGradient>
<linearGradient id="paint38_linear" x1="92.9452" y1="52.2199" x2="92.4413" y2="56.9855" gradientUnits="userSpaceOnUse">
<stop stop-color="#FFDECF"/>
<stop offset="0.3791" stop-color="#FDC4B0"/>
<stop offset="0.7655" stop-color="#FBAE97"/>
<stop offset="1" stop-color="#FAA68E"/>
</linearGradient>
<linearGradient id="paint39_linear" x1="101.406" y1="49.376" x2="101.008" y2="53.1383" gradientUnits="userSpaceOnUse">
<stop stop-color="#FFDECF"/>
<stop offset="0.3791" stop-color="#FDC4B0"/>
<stop offset="0.7655" stop-color="#FBAE97"/>
<stop offset="1" stop-color="#FAA68E"/>
</linearGradient>
<linearGradient id="paint40_linear" x1="95.2135" y1="45.6995" x2="94.9736" y2="47.9678" gradientUnits="userSpaceOnUse">
<stop stop-color="#FFDECF"/>
<stop offset="0.3791" stop-color="#FDC4B0"/>
<stop offset="0.7655" stop-color="#FBAE97"/>
<stop offset="1" stop-color="#FAA68E"/>
</linearGradient>
<linearGradient id="paint41_linear" x1="91.628" y1="48.1549" x2="91.2556" y2="51.6766" gradientUnits="userSpaceOnUse">
<stop stop-color="#FFDECF"/>
<stop offset="0.3791" stop-color="#FDC4B0"/>
<stop offset="0.7655" stop-color="#FBAE97"/>
<stop offset="1" stop-color="#FAA68E"/>
</linearGradient>
<linearGradient id="paint42_linear" x1="93.5217" y1="46.9831" x2="93.2277" y2="49.7634" gradientUnits="userSpaceOnUse">
<stop stop-color="#FFDECF"/>
<stop offset="0.3791" stop-color="#FDC4B0"/>
<stop offset="0.7655" stop-color="#FBAE97"/>
<stop offset="1" stop-color="#FAA68E"/>
</linearGradient>
<linearGradient id="paint43_linear" x1="91.1891" y1="46.0714" x2="91.012" y2="47.7476" gradientUnits="userSpaceOnUse">
<stop stop-color="#FFDECF"/>
<stop offset="0.3791" stop-color="#FDC4B0"/>
<stop offset="0.7655" stop-color="#FBAE97"/>
<stop offset="1" stop-color="#FAA68E"/>
</linearGradient>
<linearGradient id="paint44_linear" x1="109.892" y1="51.1239" x2="109.388" y2="55.8893" gradientUnits="userSpaceOnUse">
<stop stop-color="#FFDECF"/>
<stop offset="0.3791" stop-color="#FDC4B0"/>
<stop offset="0.7655" stop-color="#FBAE97"/>
<stop offset="1" stop-color="#FAA68E"/>
</linearGradient>
<linearGradient id="paint45_linear" x1="100.697" y1="57.195" x2="100.3" y2="60.9571" gradientUnits="userSpaceOnUse">
<stop stop-color="#FFDECF"/>
<stop offset="0.3791" stop-color="#FDC4B0"/>
<stop offset="0.7655" stop-color="#FBAE97"/>
<stop offset="1" stop-color="#FAA68E"/>
</linearGradient>
<linearGradient id="paint46_linear" x1="102.337" y1="53.1738" x2="102.097" y2="55.4417" gradientUnits="userSpaceOnUse">
<stop stop-color="#FFDECF"/>
<stop offset="0.3791" stop-color="#FDC4B0"/>
<stop offset="0.7655" stop-color="#FBAE97"/>
<stop offset="1" stop-color="#FAA68E"/>
</linearGradient>
<linearGradient id="paint47_linear" x1="113.587" y1="57.0553" x2="113.083" y2="61.8209" gradientUnits="userSpaceOnUse">
<stop stop-color="#FFDECF"/>
<stop offset="0.3791" stop-color="#FDC4B0"/>
<stop offset="0.7655" stop-color="#FBAE97"/>
<stop offset="1" stop-color="#FAA68E"/>
</linearGradient>
<linearGradient id="paint48_linear" x1="114.155" y1="54.9064" x2="113.757" y2="58.6688" gradientUnits="userSpaceOnUse">
<stop stop-color="#FFDECF"/>
<stop offset="0.3791" stop-color="#FDC4B0"/>
<stop offset="0.7655" stop-color="#FBAE97"/>
<stop offset="1" stop-color="#FAA68E"/>
</linearGradient>
<linearGradient id="paint49_linear" x1="112.447" y1="53.7122" x2="112.207" y2="55.9805" gradientUnits="userSpaceOnUse">
<stop stop-color="#FFDECF"/>
<stop offset="0.3791" stop-color="#FDC4B0"/>
<stop offset="0.7655" stop-color="#FBAE97"/>
<stop offset="1" stop-color="#FAA68E"/>
</linearGradient>
<linearGradient id="paint50_linear" x1="104.971" y1="56.9729" x2="104.599" y2="60.4946" gradientUnits="userSpaceOnUse">
<stop stop-color="#FFDECF"/>
<stop offset="0.3791" stop-color="#FDC4B0"/>
<stop offset="0.7655" stop-color="#FBAE97"/>
<stop offset="1" stop-color="#FAA68E"/>
</linearGradient>
<linearGradient id="paint51_linear" x1="110.755" y1="54.9956" x2="110.461" y2="57.776" gradientUnits="userSpaceOnUse">
<stop stop-color="#FFDECF"/>
<stop offset="0.3791" stop-color="#FDC4B0"/>
<stop offset="0.7655" stop-color="#FBAE97"/>
<stop offset="1" stop-color="#FAA68E"/>
</linearGradient>
<linearGradient id="paint52_linear" x1="108.423" y1="54.084" x2="108.245" y2="55.7603" gradientUnits="userSpaceOnUse">
<stop stop-color="#FFDECF"/>
<stop offset="0.3791" stop-color="#FDC4B0"/>
<stop offset="0.7655" stop-color="#FBAE97"/>
<stop offset="1" stop-color="#FAA68E"/>
</linearGradient>
<linearGradient id="paint53_linear" x1="78.9097" y1="58.8094" x2="84.4611" y2="76.3409" gradientUnits="userSpaceOnUse">
<stop stop-color="#F8F6FB"/>
<stop offset="1" stop-color="#EFDCFB"/>
</linearGradient>
<linearGradient id="paint54_linear" x1="78.3501" y1="59.4532" x2="93.6413" y2="131.526" gradientUnits="userSpaceOnUse">
<stop stop-color="#EFDCFB" stop-opacity="0"/>
<stop offset="0.0287" stop-color="#E9D6F7" stop-opacity="0.029"/>
<stop offset="0.2203" stop-color="#C5B5DE" stop-opacity="0.22"/>
<stop offset="0.4138" stop-color="#AA9BCB" stop-opacity="0.414"/>
<stop offset="0.6078" stop-color="#9688BD" stop-opacity="0.608"/>
<stop offset="0.8028" stop-color="#8A7DB5" stop-opacity="0.803"/>
<stop offset="1" stop-color="#8679B2"/>
</linearGradient>
<linearGradient id="paint55_linear" x1="69.3799" y1="55.3116" x2="82.2364" y2="68.5574" gradientUnits="userSpaceOnUse">
<stop stop-color="#FFD945"/>
<stop offset="0.3126" stop-color="#FFD643"/>
<stop offset="0.5593" stop-color="#FFCC3D"/>
<stop offset="0.7826" stop-color="#FFBB33"/>
<stop offset="0.9922" stop-color="#FFA426"/>
<stop offset="1" stop-color="#FFA325"/>
</linearGradient>
<linearGradient id="paint56_linear" x1="41.8385" y1="62.9633" x2="41.4462" y2="80.0221" gradientUnits="userSpaceOnUse">
<stop stop-color="#BADA00"/>
<stop offset="0.2269" stop-color="#B0CE00"/>
<stop offset="0.6378" stop-color="#95AE00"/>
<stop offset="1" stop-color="#798C00"/>
</linearGradient>
<linearGradient id="paint57_linear" x1="128.409" y1="82.5003" x2="113.653" y2="67.7448" gradientUnits="userSpaceOnUse">
<stop stop-color="#798C00" stop-opacity="0"/>
<stop offset="0.6542" stop-color="#556100" stop-opacity="0.654"/>
<stop offset="1" stop-color="#464F00"/>
</linearGradient>
<linearGradient id="paint58_linear" x1="114.629" y1="65.6044" x2="118.082" y2="72.6568" gradientUnits="userSpaceOnUse">
<stop stop-color="#FF6359"/>
<stop offset="0.2243" stop-color="#FE5B50"/>
<stop offset="0.5952" stop-color="#FC4637"/>
<stop offset="1" stop-color="#F82814"/>
</linearGradient>
<linearGradient id="paint59_linear" x1="105.771" y1="69.3434" x2="108.306" y2="76.3839" gradientUnits="userSpaceOnUse">
<stop stop-color="#FFA936"/>
<stop offset="0.4112" stop-color="#FF8548"/>
<stop offset="0.7781" stop-color="#FF6C54"/>
<stop offset="1" stop-color="#FF6359"/>
</linearGradient>
<linearGradient id="paint60_linear" x1="48.4894" y1="76.4121" x2="48.5609" y2="63.8986" gradientUnits="userSpaceOnUse">
<stop stop-color="#798C00" stop-opacity="0"/>
<stop offset="0.6542" stop-color="#556100" stop-opacity="0.654"/>
<stop offset="1" stop-color="#464F00"/>
</linearGradient>
<linearGradient id="paint61_linear" x1="28.6005" y1="58.1021" x2="31.8358" y2="64.5727" gradientUnits="userSpaceOnUse">
<stop stop-color="#8A7889"/>
<stop offset="0.3344" stop-color="#867385"/>
<stop offset="0.7039" stop-color="#7B667B"/>
<stop offset="1" stop-color="#6E566E"/>
</linearGradient>
<linearGradient id="paint62_linear" x1="40.8103" y1="62.923" x2="46.9886" y2="75.5427" gradientUnits="userSpaceOnUse">
<stop stop-color="#FFDECF"/>
<stop offset="0.3791" stop-color="#FDC4B0"/>
<stop offset="0.7655" stop-color="#FBAE97"/>
<stop offset="1" stop-color="#FAA68E"/>
</linearGradient>
<linearGradient id="paint63_linear" x1="50.6265" y1="77.7336" x2="35.0888" y2="62.1962" gradientUnits="userSpaceOnUse">
<stop stop-color="#FFDECF"/>
<stop offset="0.3791" stop-color="#FDC4B0"/>
<stop offset="0.7655" stop-color="#FBAE97"/>
<stop offset="1" stop-color="#FAA68E"/>
</linearGradient>
<linearGradient id="paint64_linear" x1="46.7812" y1="42.9922" x2="49.5848" y2="46.8786" gradientUnits="userSpaceOnUse">
<stop stop-color="#FFDECF"/>
<stop offset="0.3791" stop-color="#FDC4B0"/>
<stop offset="0.7655" stop-color="#FBAE97"/>
<stop offset="1" stop-color="#FAA68E"/>
</linearGradient>
<linearGradient id="paint65_linear" x1="44.41" y1="45.2119" x2="46.6229" y2="48.2801" gradientUnits="userSpaceOnUse">
<stop stop-color="#FFDECF"/>
<stop offset="0.3791" stop-color="#FDC4B0"/>
<stop offset="0.7655" stop-color="#FBAE97"/>
<stop offset="1" stop-color="#FAA68E"/>
</linearGradient>
<linearGradient id="paint66_linear" x1="46.2407" y1="49.3142" x2="47.5751" y2="51.164" gradientUnits="userSpaceOnUse">
<stop stop-color="#FFDECF"/>
<stop offset="0.3791" stop-color="#FDC4B0"/>
<stop offset="0.7655" stop-color="#FBAE97"/>
<stop offset="1" stop-color="#FAA68E"/>
</linearGradient>
<linearGradient id="paint67_linear" x1="53.0703" y1="49.5875" x2="55.8738" y2="53.4742" gradientUnits="userSpaceOnUse">
<stop stop-color="#FFDECF"/>
<stop offset="0.3791" stop-color="#FDC4B0"/>
<stop offset="0.7655" stop-color="#FBAE97"/>
<stop offset="1" stop-color="#FAA68E"/>
</linearGradient>
<linearGradient id="paint68_linear" x1="57.4773" y1="41.8248" x2="59.6908" y2="44.8933" gradientUnits="userSpaceOnUse">
<stop stop-color="#FFDECF"/>
<stop offset="0.3791" stop-color="#FDC4B0"/>
<stop offset="0.7655" stop-color="#FBAE97"/>
<stop offset="1" stop-color="#FAA68E"/>
</linearGradient>
<linearGradient id="paint69_linear" x1="50.4113" y1="43.216" x2="51.7454" y2="45.0661" gradientUnits="userSpaceOnUse">
<stop stop-color="#FFDECF"/>
<stop offset="0.3791" stop-color="#FDC4B0"/>
<stop offset="0.7655" stop-color="#FBAE97"/>
<stop offset="1" stop-color="#FAA68E"/>
</linearGradient>
<linearGradient id="paint70_linear" x1="49.3781" y1="47.4375" x2="51.4499" y2="50.3098" gradientUnits="userSpaceOnUse">
<stop stop-color="#FFDECF"/>
<stop offset="0.3791" stop-color="#FDC4B0"/>
<stop offset="0.7655" stop-color="#FBAE97"/>
<stop offset="1" stop-color="#FAA68E"/>
</linearGradient>
<linearGradient id="paint71_linear" x1="50.0068" y1="45.3011" x2="51.6424" y2="47.5687" gradientUnits="userSpaceOnUse">
<stop stop-color="#FFDECF"/>
<stop offset="0.3791" stop-color="#FDC4B0"/>
<stop offset="0.7655" stop-color="#FBAE97"/>
<stop offset="1" stop-color="#FAA68E"/>
</linearGradient>
<linearGradient id="paint72_linear" x1="47.6605" y1="46.1778" x2="48.6467" y2="47.5448" gradientUnits="userSpaceOnUse">
<stop stop-color="#FFDECF"/>
<stop offset="0.3791" stop-color="#FDC4B0"/>
<stop offset="0.7655" stop-color="#FBAE97"/>
<stop offset="1" stop-color="#FAA68E"/>
</linearGradient>
<linearGradient id="paint73_linear" x1="64.9663" y1="37.4663" x2="67.7698" y2="41.3528" gradientUnits="userSpaceOnUse">
<stop stop-color="#FFDECF"/>
<stop offset="0.3791" stop-color="#FDC4B0"/>
<stop offset="0.7655" stop-color="#FBAE97"/>
<stop offset="1" stop-color="#FAA68E"/>
</linearGradient>
<linearGradient id="paint74_linear" x1="62.1656" y1="48.1227" x2="64.3788" y2="51.1909" gradientUnits="userSpaceOnUse">
<stop stop-color="#FFDECF"/>
<stop offset="0.3791" stop-color="#FDC4B0"/>
<stop offset="0.7655" stop-color="#FBAE97"/>
<stop offset="1" stop-color="#FAA68E"/>
</linearGradient>
<linearGradient id="paint75_linear" x1="60.7049" y1="44.0331" x2="62.039" y2="45.8828" gradientUnits="userSpaceOnUse">
<stop stop-color="#FFDECF"/>
<stop offset="0.3791" stop-color="#FDC4B0"/>
<stop offset="0.7655" stop-color="#FBAE97"/>
<stop offset="1" stop-color="#FAA68E"/>
</linearGradient>
<linearGradient id="paint76_linear" x1="71.6758" y1="39.4207" x2="74.4793" y2="43.3075" gradientUnits="userSpaceOnUse">
<stop stop-color="#FFDECF"/>
<stop offset="0.3791" stop-color="#FDC4B0"/>
<stop offset="0.7655" stop-color="#FBAE97"/>
<stop offset="1" stop-color="#FAA68E"/>
</linearGradient>
<linearGradient id="paint77_linear" x1="70.6658" y1="37.441" x2="72.8793" y2="40.5092" gradientUnits="userSpaceOnUse">
<stop stop-color="#FFDECF"/>
<stop offset="0.3791" stop-color="#FDC4B0"/>
<stop offset="0.7655" stop-color="#FBAE97"/>
<stop offset="1" stop-color="#FAA68E"/>
</linearGradient>
<linearGradient id="paint78_linear" x1="68.5968" y1="37.6905" x2="69.9312" y2="39.5402" gradientUnits="userSpaceOnUse">
<stop stop-color="#FFDECF"/>
<stop offset="0.3791" stop-color="#FDC4B0"/>
<stop offset="0.7655" stop-color="#FBAE97"/>
<stop offset="1" stop-color="#FAA68E"/>
</linearGradient>
<linearGradient id="paint79_linear" x1="65.2015" y1="45.1066" x2="67.2733" y2="47.979" gradientUnits="userSpaceOnUse">
<stop stop-color="#FFDECF"/>
<stop offset="0.3791" stop-color="#FDC4B0"/>
<stop offset="0.7655" stop-color="#FBAE97"/>
<stop offset="1" stop-color="#FAA68E"/>
</linearGradient>
<linearGradient id="paint80_linear" x1="68.192" y1="39.7754" x2="69.8276" y2="42.0428" gradientUnits="userSpaceOnUse">
<stop stop-color="#FFDECF"/>
<stop offset="0.3791" stop-color="#FDC4B0"/>
<stop offset="0.7655" stop-color="#FBAE97"/>
<stop offset="1" stop-color="#FAA68E"/>
</linearGradient>
<linearGradient id="paint81_linear" x1="65.8461" y1="40.6519" x2="66.8322" y2="42.0189" gradientUnits="userSpaceOnUse">
<stop stop-color="#FFDECF"/>
<stop offset="0.3791" stop-color="#FDC4B0"/>
<stop offset="0.7655" stop-color="#FBAE97"/>
<stop offset="1" stop-color="#FAA68E"/>
</linearGradient>
<clipPath id="clip0">
<rect width="150" height="150" fill="white" transform="translate(0.626465 0.0159912)"/>
</clipPath>
</defs>
</svg>
