<svg width="151" height="151" viewBox="0 0 151 151" fill="none" xmlns="http://www.w3.org/2000/svg">
<g clip-path="url(#clip0)">
<path d="M75.0402 137.131C56.4437 137.131 39.3772 135.298 26.0093 132.241C27.9325 137.306 31.5457 141.137 36.001 142.363C46.0563 145.13 59.8366 146.836 75.0402 146.836C90.2437 146.836 104.024 145.13 114.079 142.363C118.535 141.137 122.148 137.306 124.071 132.241C110.703 135.298 93.6366 137.131 75.0402 137.131Z" fill="url(#paint0_linear)"/>
<path d="M150.041 122.768C150.041 148.48 0.0405273 148.48 0.0405273 122.768C0.0405273 97.0555 150.041 97.0552 150.041 122.768Z" fill="url(#paint1_linear)"/>
<path d="M139.746 120.882C139.746 139.214 10.3345 139.214 10.3345 120.882C10.3345 102.55 139.746 102.551 139.746 120.882Z" fill="url(#paint2_linear)"/>
<path d="M150.041 122.768C150.041 103.831 68.6843 98.8417 25.8037 107.798C28.2517 111.624 31.0796 115.224 34.2658 118.533L62.1652 146.416C66.2984 146.69 70.6081 146.836 75.0405 146.836C90.244 146.836 104.024 145.13 114.08 142.363C116.398 141.725 118.485 140.377 120.227 138.522C137.759 135.375 150.041 130.124 150.041 122.768Z" fill="url(#paint3_linear)"/>
<path d="M75.0407 123.638C62.0787 123.638 50.1834 121.812 40.8657 118.767C42.2063 123.812 44.7248 127.628 47.8301 128.848C54.8387 131.605 64.4437 133.304 75.0407 133.304C85.6378 133.304 95.2428 131.605 102.251 128.848C105.357 127.627 107.875 123.812 109.216 118.767C99.8981 121.812 88.0028 123.638 75.0407 123.638Z" fill="url(#paint4_linear)"/>
<path d="M124.835 88.6249C124.835 90.821 126.615 92.6013 128.811 92.6013H140.569C145.284 92.6013 149.107 88.781 149.107 84.0634C149.107 81.7072 148.15 79.5722 146.605 78.0275C145.06 76.4802 142.928 75.5258 140.569 75.5258H135.029C134.967 76.3943 134.886 77.2605 134.79 78.1211C134.543 80.3187 134.192 82.4978 133.74 84.6487H128.811C126.615 84.6487 124.835 86.4287 124.835 88.6249Z" fill="url(#paint5_linear)"/>
<path d="M124.835 88.6249C124.835 90.821 126.615 92.6013 128.811 92.6013H140.569C145.284 92.6013 149.107 88.781 149.107 84.0634C149.107 81.7072 148.15 79.5722 146.605 78.0275C145.06 76.4802 142.928 75.5258 140.569 75.5258H135.029C134.967 76.3943 134.886 77.2605 134.79 78.1211C134.543 80.3187 134.192 82.4978 133.74 84.6487H128.811C126.615 84.6487 124.835 86.4287 124.835 88.6249Z" fill="url(#paint6_linear)"/>
<path d="M133.74 84.6487H137.839C139.813 84.6487 141.412 83.0493 141.412 81.0755C141.412 80.2613 141.082 79.5228 140.548 78.9872C140.013 78.4516 139.277 78.1213 138.46 78.1213H134.791C134.544 80.3184 134.193 82.4978 133.74 84.6487Z" fill="url(#paint7_linear)"/>
<path d="M45.4196 124.783C64.9269 129.14 85.1549 129.14 104.662 124.783C108.911 123.835 112.796 121.669 115.816 118.533C128.2 105.672 135.219 88.444 135.219 70.4049V68.7214C135.219 42.0287 14.8628 42.0287 14.8628 68.7214V70.4049C14.8628 88.444 21.8819 105.672 34.266 118.533C37.2854 121.669 41.1707 123.835 45.4196 124.783Z" fill="url(#paint8_linear)"/>
<path d="M135.218 68.7214C135.218 95.414 14.8623 95.414 14.8623 68.7214C14.8623 42.0287 135.218 42.0287 135.218 68.7214Z" fill="url(#paint9_linear)"/>
<path d="M129.083 67.2787C129.083 88.4234 20.999 88.4234 20.999 67.2787C20.999 46.134 129.083 46.134 129.083 67.2787Z" fill="url(#paint10_linear)"/>
<path d="M24.0239 72.9846C39.5828 86.5208 110.498 86.5208 126.057 72.9846C110.498 59.4485 39.583 59.4485 24.0239 72.9846Z" fill="url(#paint11_linear)"/>
<path d="M110.854 79.5082C111.074 78.99 111.189 78.4497 111.189 77.8865C111.189 63.7429 38.8921 63.7429 38.8921 77.8865C38.8921 78.4494 39.0077 78.99 39.2277 79.5082C59.1618 84.3456 90.9194 84.3456 110.854 79.5082Z" fill="url(#paint12_linear)"/>
<path d="M44.896 80.6988C47.6557 67.4888 102.425 67.4888 105.185 80.6988C87.2572 83.9479 62.8236 83.9479 44.896 80.6988Z" fill="url(#paint13_linear)"/>
<path d="M54.2091 76.1746C54.2091 77.8338 45.9644 77.8338 45.9644 76.1746C45.9644 74.5155 47.8099 73.1705 50.0867 73.1705C52.3635 73.1705 54.2091 74.5155 54.2091 76.1746Z" fill="url(#paint14_linear)"/>
<path d="M114.44 71.5543C114.44 73.2134 106.195 73.2134 106.195 71.5543C106.195 69.8952 108.041 68.5502 110.318 68.5502C112.594 68.5502 114.44 69.8952 114.44 71.5543Z" fill="url(#paint15_linear)"/>
<path d="M66.332 82.9487C68.91 83.0587 71.5141 83.1196 74.1223 83.1311C73.6041 81.9037 72.0365 81.0114 70.182 81.0114C68.4214 81.0114 66.9229 81.8169 66.332 82.9487Z" fill="url(#paint16_linear)"/>
<path d="M105.635 76.8699C105.157 76.6364 104.58 76.8349 104.347 77.3131C104.113 77.7914 104.312 78.3684 104.79 78.6017C105.268 78.8352 105.845 78.6366 106.079 78.1584C106.312 77.6805 106.114 77.1034 105.635 76.8699Z" fill="#FFEAA2"/>
<path d="M112.213 75.2875C111.835 75.1031 111.38 75.2599 111.195 75.6375C111.011 76.0152 111.168 76.4705 111.545 76.6549C111.923 76.839 112.378 76.6825 112.563 76.3049C112.747 75.9272 112.59 75.4716 112.213 75.2875Z" fill="#FFEAA2"/>
<path d="M110.978 71.8945C110.751 71.7834 110.476 71.8778 110.365 72.1054C110.254 72.3331 110.348 72.6078 110.576 72.7187C110.804 72.8298 111.078 72.7351 111.189 72.5078C111.3 72.2801 111.206 72.0054 110.978 71.8945Z" fill="#FFEAA2"/>
<path d="M60.7678 67.1414C60.2358 67.1443 59.8066 67.5781 59.8096 68.1105C59.8125 68.6425 60.2463 69.0717 60.7784 69.0687C61.3105 69.0658 61.7396 68.632 61.7366 68.0999C61.734 67.5675 61.3002 67.1384 60.7678 67.1414Z" fill="#FFEAA2"/>
<path d="M52.2326 70.8134C51.8126 70.8157 51.4737 71.1581 51.4761 71.5784C51.4784 71.9984 51.8208 72.3372 52.2411 72.3348C52.6614 72.3325 52.9999 71.9901 52.9976 71.5698C52.9952 71.1498 52.6528 70.811 52.2326 70.8134Z" fill="#FFEAA2"/>
<path d="M65.3058 76.8187C65.0526 76.8202 64.8484 77.0267 64.8496 77.2799C64.8508 77.5331 65.0576 77.7376 65.3108 77.7361C65.564 77.7346 65.7681 77.5281 65.767 77.2749C65.7655 77.0214 65.559 76.8173 65.3058 76.8187Z" fill="#FFEAA2"/>
<path d="M101.297 70.0331C100.917 70.1334 100.69 70.5228 100.79 70.9031C100.891 71.2834 101.28 71.5105 101.66 71.4102C102.041 71.3099 102.268 70.9205 102.167 70.5402C102.067 70.1599 101.678 69.9328 101.297 70.0331Z" fill="#FFEAA2"/>
<path d="M100.062 75.6184C99.7613 75.6975 99.5822 76.0049 99.6613 76.3052C99.7404 76.6055 100.048 76.7846 100.348 76.7055C100.648 76.6263 100.827 76.3187 100.748 76.0187C100.669 75.7187 100.362 75.5393 100.062 75.6184Z" fill="#FFEAA2"/>
<path d="M109.13 74.9669C108.949 75.0146 108.841 75.2002 108.888 75.3811C108.936 75.5619 109.121 75.6702 109.302 75.6225C109.483 75.5749 109.591 75.3893 109.544 75.2084C109.496 75.0272 109.311 74.9193 109.13 74.9669Z" fill="#FFEAA2"/>
<path d="M48.6272 76.4114C48.1489 76.1779 47.5719 76.3764 47.3386 76.8546C47.1051 77.3329 47.3036 77.9099 47.7819 78.1432C48.2601 78.3767 48.8372 78.1782 49.0704 77.6999C49.3039 77.2217 49.1054 76.6449 48.6272 76.4114Z" fill="#FFEAA2"/>
<path d="M56.6049 72.3234C56.2273 72.139 55.772 72.2958 55.5876 72.6734C55.4032 73.0511 55.5599 73.5063 55.9376 73.6908C56.3152 73.8752 56.7705 73.7184 56.9549 73.3408C57.1393 72.9631 56.9826 72.5078 56.6049 72.3234Z" fill="#FFEAA2"/>
<path d="M49.8283 69.1537C49.6007 69.0425 49.326 69.1369 49.2151 69.3646C49.1039 69.5922 49.1983 69.8669 49.426 69.9778C49.6536 70.089 49.9283 69.9946 50.0392 69.7669C50.1504 69.5393 50.056 69.2649 49.8283 69.1537Z" fill="#FFEAA2"/>
<path d="M39.3688 72.1846C39.3658 71.6525 38.932 71.2234 38.3997 71.2263C37.8676 71.2293 37.4385 71.6631 37.4414 72.1952C37.4444 72.7272 37.8782 73.1563 38.4105 73.1534C38.9429 73.1507 39.3717 72.7169 39.3688 72.1846Z" fill="#FFEAA2"/>
<path d="M39.3165 73.6704C38.8965 73.6728 38.5577 74.0151 38.5601 74.4354C38.5624 74.8554 38.9048 75.1943 39.3251 75.1919C39.7451 75.1895 40.0839 74.8472 40.0815 74.4269C40.0792 74.0069 39.7368 73.6681 39.3165 73.6704Z" fill="#FFEAA2"/>
<path d="M41.5314 74.3381C41.2781 74.3396 41.074 74.5461 41.0752 74.7993C41.0767 75.0526 41.2831 75.2567 41.5364 75.2555C41.7896 75.2543 41.9937 75.0476 41.9925 74.7943C41.9911 74.5411 41.7846 74.3367 41.5314 74.3381Z" fill="#FFEAA2"/>
<path d="M45.1016 67.0855C44.7213 67.1858 44.4942 67.5752 44.5945 67.9555C44.6948 68.3358 45.0842 68.5628 45.4645 68.4625C45.8448 68.3622 46.0719 67.9728 45.9716 67.5925C45.8713 67.2122 45.4819 66.9852 45.1016 67.0855Z" fill="#FFEAA2"/>
<path d="M41.8995 72.1823C41.5992 72.2614 41.4201 72.5687 41.4992 72.869C41.5783 73.1693 41.8856 73.3484 42.1859 73.2693C42.4862 73.1902 42.6653 72.8829 42.5862 72.5826C42.5074 72.2826 42.1998 72.1031 41.8995 72.1823Z" fill="#FFEAA2"/>
<path d="M44.4329 72.0931C44.252 72.1408 44.1438 72.3261 44.1914 72.5073C44.2391 72.6881 44.4246 72.7964 44.6055 72.7487C44.7864 72.7011 44.8946 72.5155 44.847 72.3346C44.7994 72.1534 44.6138 72.0452 44.4329 72.0931Z" fill="#FFEAA2"/>
<path d="M69.4312 71.5543C69.4312 73.2134 61.1865 73.2134 61.1865 71.5543C61.1865 69.8952 63.0321 68.5502 65.3089 68.5502C67.5856 68.5502 69.4312 69.8952 69.4312 71.5543Z" fill="url(#paint17_linear)"/>
<path d="M69.3174 68.0357C70.7339 69.3389 71.4783 71.1907 70.98 72.1715C70.4818 73.1524 68.9294 72.8907 67.513 71.5874C66.0965 70.2842 63.2659 66.513 63.7642 65.5321C64.2627 64.5513 67.9009 66.7321 69.3174 68.0357Z" fill="url(#paint18_linear)"/>
<path d="M71.4841 67.8125C71.797 70.206 71.1382 72.2784 70.0123 72.441C68.8865 72.604 67.72 70.7954 67.407 68.4019C67.0941 66.0084 67.292 60.4113 68.4176 60.2484C69.5435 60.086 71.1709 65.419 71.4841 67.8125Z" fill="url(#paint19_linear)"/>
<path d="M78.6471 64.9994C78.3191 64.9832 77.9912 65.0197 77.6733 65.1017C75.6671 65.6197 67.893 67.9117 67.6388 72.3835C67.4762 75.2447 72.203 76.1294 76.4221 76.3517C80.2747 76.5549 83.5991 74.5011 83.825 71.7849C84.078 68.7411 83.3336 65.2326 78.6471 64.9994Z" fill="url(#paint20_linear)"/>
<path d="M78.6855 65.0058C78.3458 64.9717 78.0043 65.0161 77.6738 65.1014C75.6699 65.6184 67.892 67.9105 67.6379 72.3834C67.4752 75.2446 72.202 76.1293 76.4211 76.3517C80.2226 76.5523 83.2355 65.4611 78.6855 65.0058Z" fill="url(#paint21_linear)"/>
<path d="M98.9273 77.6988C98.9273 79.3579 90.6826 79.3579 90.6826 77.6988C90.6826 76.0397 92.5282 74.6947 94.805 74.6947C97.0817 74.6947 98.9273 76.0397 98.9273 77.6988Z" fill="url(#paint22_linear)"/>
<path d="M23.9565 104.737C26.7904 109.715 30.243 114.355 34.266 118.533C37.2857 121.669 41.1707 123.835 45.4195 124.783C64.9268 129.14 85.1548 129.14 104.662 124.783C108.91 123.835 112.796 121.669 115.815 118.533C119.838 114.355 123.291 109.714 126.125 104.737H23.9565Z" fill="url(#paint23_linear)"/>
<path d="M65.9408 127.746C61.4673 127.446 57.0026 126.922 52.5673 126.181C50.1761 125.778 47.7938 125.313 45.4202 124.784C41.1702 123.834 37.2849 121.669 34.2673 118.534C27.1967 111.193 21.8761 102.428 18.6114 92.9016C17.6996 90.2457 16.9496 87.5281 16.3643 84.7663C16.3643 84.7575 16.3614 84.7457 16.3585 84.734C16.3555 84.7046 16.3496 84.6781 16.3438 84.6487H21.2702C22.5938 84.6487 23.7614 85.2957 24.4849 86.2899L65.9408 127.746Z" fill="url(#paint24_linear)"/>
<path d="M25.2469 88.6249C25.2469 90.821 23.4666 92.6013 21.2704 92.6013H9.51304C4.79804 92.6013 0.975098 88.781 0.975098 84.0634C0.975098 81.7072 1.93216 79.5722 3.47686 78.0275C5.02157 76.4802 7.15422 75.5258 9.51304 75.5258H15.0525C15.1148 76.3943 15.1954 77.2605 15.2916 78.1211C15.5386 80.3187 15.8898 82.4978 16.3422 84.6487H21.2704C23.4666 84.6487 25.2469 86.4287 25.2469 88.6249Z" fill="url(#paint25_linear)"/>
<path d="M16.3422 84.6487H12.2436C10.2698 84.6487 8.67041 83.0493 8.67041 81.0755C8.67041 80.2613 9.0007 79.5228 9.53394 78.9872C10.0695 78.4516 10.8057 78.1213 11.6222 78.1213H15.2916C15.5386 80.3184 15.8898 82.4978 16.3422 84.6487Z" fill="url(#paint26_linear)"/>
<path d="M96.0912 30.6011C95.7377 29.6631 96.7092 28.7858 97.5447 29.2843C100.497 31.0458 104.83 34.6705 104.83 40.7702C104.83 50.0205 94.2115 50.8925 94.2115 57.7446C94.2115 61.2611 94.6553 63.6893 95.0874 65.2205C95.3374 66.1061 94.4739 66.8864 93.6786 66.4914C91.033 65.1781 86.9639 61.9734 86.9639 54.6849C86.9639 43.8858 97.4939 44.0464 97.4939 38.142C97.4939 35.0584 96.7765 32.4193 96.0912 30.6011Z" fill="url(#paint27_linear)"/>
<path d="M79.4595 5.48161C79.2289 5.06867 79.846 4.6922 80.2595 4.9922C83.0642 7.02749 87.8074 11.3304 87.8074 17.1519C87.8074 25.4169 78.8304 27.7566 77.6342 34.2016C76.6665 39.4151 78.8842 44.4898 79.901 46.461C80.0774 46.8031 79.6712 47.1499 79.2507 47.0178C76.1574 46.0457 67.836 42.4434 69.0786 32.0651C70.2824 22.0113 79.2874 22.4704 80.8854 15.9654C82.0333 11.2948 80.6189 7.55779 79.4595 5.48161Z" fill="url(#paint28_linear)"/>
<path d="M50.5531 32.7984C50.2378 32.0246 50.8984 31.3005 51.5414 31.712C53.8125 33.1655 57.2084 36.1564 57.5716 41.1899C58.1225 48.8228 50.3819 49.5425 50.7902 55.1967C50.9996 58.0981 51.4699 60.102 51.8781 61.3655C52.1143 62.0961 51.5272 62.7402 50.9199 62.4143C48.9002 61.3308 45.7231 58.6864 45.289 52.672C44.6458 43.7608 52.3831 43.8934 52.0314 39.0211C51.8478 36.4767 51.1643 34.2987 50.5531 32.7984Z" fill="url(#paint29_linear)"/>
</g>
<defs>
<linearGradient id="paint0_linear" x1="75.3196" y1="136.851" x2="75.9078" y2="146.557" gradientUnits="userSpaceOnUse">
<stop stop-color="#F8F6FB"/>
<stop offset="1" stop-color="#EFDCFB"/>
</linearGradient>
<linearGradient id="paint1_linear" x1="70.1132" y1="104.171" x2="81.6682" y2="147.781" gradientUnits="userSpaceOnUse">
<stop stop-color="#F8F6FB"/>
<stop offset="1" stop-color="#EFDCFB"/>
</linearGradient>
<linearGradient id="paint2_linear" x1="78.2665" y1="146.691" x2="72.6783" y2="101.985" gradientUnits="userSpaceOnUse">
<stop stop-color="#F8F6FB"/>
<stop offset="1" stop-color="#EFDCFB"/>
</linearGradient>
<linearGradient id="paint3_linear" x1="101.712" y1="148.129" x2="36.8105" y2="-9.51777" gradientUnits="userSpaceOnUse">
<stop stop-color="#EFDCFB" stop-opacity="0"/>
<stop offset="0.0287" stop-color="#E9D6F7" stop-opacity="0.029"/>
<stop offset="0.2203" stop-color="#C5B5DE" stop-opacity="0.22"/>
<stop offset="0.4138" stop-color="#AA9BCB" stop-opacity="0.414"/>
<stop offset="0.6078" stop-color="#9688BD" stop-opacity="0.608"/>
<stop offset="0.8028" stop-color="#8A7DB5" stop-opacity="0.803"/>
<stop offset="1" stop-color="#8679B2"/>
</linearGradient>
<linearGradient id="paint4_linear" x1="75.3451" y1="123.791" x2="75.896" y2="132.878" gradientUnits="userSpaceOnUse">
<stop stop-color="#F8F6FB"/>
<stop offset="1" stop-color="#EFDCFB"/>
</linearGradient>
<linearGradient id="paint5_linear" x1="137.187" y1="82.8522" x2="136.602" y2="92.4934" gradientUnits="userSpaceOnUse">
<stop stop-color="#F8F6FB"/>
<stop offset="1" stop-color="#EFDCFB"/>
</linearGradient>
<linearGradient id="paint6_linear" x1="139.555" y1="84.4155" x2="123.084" y2="83.2019" gradientUnits="userSpaceOnUse">
<stop stop-color="#EFDCFB" stop-opacity="0"/>
<stop offset="0.0287" stop-color="#E9D6F7" stop-opacity="0.029"/>
<stop offset="0.2203" stop-color="#C5B5DE" stop-opacity="0.22"/>
<stop offset="0.4138" stop-color="#AA9BCB" stop-opacity="0.414"/>
<stop offset="0.6078" stop-color="#9688BD" stop-opacity="0.608"/>
<stop offset="0.8028" stop-color="#8A7DB5" stop-opacity="0.803"/>
<stop offset="1" stop-color="#8679B2"/>
</linearGradient>
<linearGradient id="paint7_linear" x1="138.195" y1="79.3363" x2="135.855" y2="90.519" gradientUnits="userSpaceOnUse">
<stop stop-color="#EFDCFB" stop-opacity="0"/>
<stop offset="0.0287" stop-color="#E9D6F7" stop-opacity="0.029"/>
<stop offset="0.2203" stop-color="#C5B5DE" stop-opacity="0.22"/>
<stop offset="0.4138" stop-color="#AA9BCB" stop-opacity="0.414"/>
<stop offset="0.6078" stop-color="#9688BD" stop-opacity="0.608"/>
<stop offset="0.8028" stop-color="#8A7DB5" stop-opacity="0.803"/>
<stop offset="1" stop-color="#8679B2"/>
</linearGradient>
<linearGradient id="paint8_linear" x1="65.8387" y1="54.3193" x2="98.3225" y2="130.115" gradientUnits="userSpaceOnUse">
<stop stop-color="#F8F6FB"/>
<stop offset="1" stop-color="#EFDCFB"/>
</linearGradient>
<linearGradient id="paint9_linear" x1="86.2679" y1="110.569" x2="75.8841" y2="71.8661" gradientUnits="userSpaceOnUse">
<stop stop-color="#F8F6FB"/>
<stop offset="1" stop-color="#EFDCFB"/>
</linearGradient>
<linearGradient id="paint10_linear" x1="75.0411" y1="78.831" x2="75.0411" y2="0.42811" gradientUnits="userSpaceOnUse">
<stop stop-color="#EFDCFB" stop-opacity="0"/>
<stop offset="0.0287" stop-color="#E9D6F7" stop-opacity="0.029"/>
<stop offset="0.2203" stop-color="#C5B5DE" stop-opacity="0.22"/>
<stop offset="0.4138" stop-color="#AA9BCB" stop-opacity="0.414"/>
<stop offset="0.6078" stop-color="#9688BD" stop-opacity="0.608"/>
<stop offset="0.8028" stop-color="#8A7DB5" stop-opacity="0.803"/>
<stop offset="1" stop-color="#8679B2"/>
</linearGradient>
<linearGradient id="paint11_linear" x1="75.0404" y1="63.1185" x2="75.0404" y2="88.8661" gradientUnits="userSpaceOnUse">
<stop stop-color="#FFD945"/>
<stop offset="0.3043" stop-color="#FFCD3E"/>
<stop offset="0.8558" stop-color="#FFAD2B"/>
<stop offset="1" stop-color="#FFA325"/>
</linearGradient>
<linearGradient id="paint12_linear" x1="75.9924" y1="75.3609" x2="110.893" y2="-17.1836" gradientUnits="userSpaceOnUse">
<stop stop-color="#F82814" stop-opacity="0"/>
<stop offset="1" stop-color="#C0272D"/>
</linearGradient>
<linearGradient id="paint13_linear" x1="74.7766" y1="77.3246" x2="69.7489" y2="13.0028" gradientUnits="userSpaceOnUse">
<stop stop-color="#F82814" stop-opacity="0"/>
<stop offset="1" stop-color="#C0272D"/>
</linearGradient>
<linearGradient id="paint14_linear" x1="49.7349" y1="74.9785" x2="51.4252" y2="80.0496" gradientUnits="userSpaceOnUse">
<stop stop-color="#FFDECF"/>
<stop offset="0.3791" stop-color="#FDC4B0"/>
<stop offset="0.7655" stop-color="#FBAE97"/>
<stop offset="1" stop-color="#FAA68E"/>
</linearGradient>
<linearGradient id="paint15_linear" x1="109.966" y1="70.3581" x2="111.656" y2="75.4293" gradientUnits="userSpaceOnUse">
<stop stop-color="#FFDECF"/>
<stop offset="0.3791" stop-color="#FDC4B0"/>
<stop offset="0.7655" stop-color="#FBAE97"/>
<stop offset="1" stop-color="#FAA68E"/>
</linearGradient>
<linearGradient id="paint16_linear" x1="69.9538" y1="82.2193" x2="71.1688" y2="85.8652" gradientUnits="userSpaceOnUse">
<stop stop-color="#FFDECF"/>
<stop offset="0.3791" stop-color="#FDC4B0"/>
<stop offset="0.7655" stop-color="#FBAE97"/>
<stop offset="1" stop-color="#FAA68E"/>
</linearGradient>
<linearGradient id="paint17_linear" x1="63.7789" y1="68.4011" x2="66.7" y2="74.0096" gradientUnits="userSpaceOnUse">
<stop stop-color="#FF6359"/>
<stop offset="0.2243" stop-color="#FE5B50"/>
<stop offset="0.5952" stop-color="#FC4637"/>
<stop offset="1" stop-color="#F82814"/>
</linearGradient>
<linearGradient id="paint18_linear" x1="67.5825" y1="68.1712" x2="66.395" y2="70.5718" gradientUnits="userSpaceOnUse">
<stop stop-color="#BADA00"/>
<stop offset="0.2269" stop-color="#B0CE00"/>
<stop offset="0.6378" stop-color="#95AE00"/>
<stop offset="1" stop-color="#798C00"/>
</linearGradient>
<linearGradient id="paint19_linear" x1="70.0442" y1="66.2135" x2="66.8416" y2="68.7404" gradientUnits="userSpaceOnUse">
<stop stop-color="#BADA00"/>
<stop offset="0.2269" stop-color="#B0CE00"/>
<stop offset="0.6378" stop-color="#95AE00"/>
<stop offset="1" stop-color="#798C00"/>
</linearGradient>
<linearGradient id="paint20_linear" x1="75.0739" y1="69.047" x2="77.3338" y2="76.0323" gradientUnits="userSpaceOnUse">
<stop stop-color="#A57C52"/>
<stop offset="0.1339" stop-color="#A26C4A"/>
<stop offset="0.5155" stop-color="#994336"/>
<stop offset="0.8174" stop-color="#942A2A"/>
<stop offset="1" stop-color="#922125"/>
</linearGradient>
<linearGradient id="paint21_linear" x1="73.2043" y1="66.809" x2="76.8452" y2="78.1217" gradientUnits="userSpaceOnUse">
<stop stop-color="#A57C52"/>
<stop offset="0.1339" stop-color="#A26C4A"/>
<stop offset="0.5155" stop-color="#994336"/>
<stop offset="0.8174" stop-color="#942A2A"/>
<stop offset="1" stop-color="#922125"/>
</linearGradient>
<linearGradient id="paint22_linear" x1="93.275" y1="74.5453" x2="96.1962" y2="80.1541" gradientUnits="userSpaceOnUse">
<stop stop-color="#FF6359"/>
<stop offset="0.2243" stop-color="#FE5B50"/>
<stop offset="0.5952" stop-color="#FC4637"/>
<stop offset="1" stop-color="#F82814"/>
</linearGradient>
<linearGradient id="paint23_linear" x1="75.0407" y1="113.828" x2="75.0407" y2="148.234" gradientUnits="userSpaceOnUse">
<stop stop-color="#EFDCFB" stop-opacity="0"/>
<stop offset="0.0287" stop-color="#E9D6F7" stop-opacity="0.029"/>
<stop offset="0.2203" stop-color="#C5B5DE" stop-opacity="0.22"/>
<stop offset="0.4138" stop-color="#AA9BCB" stop-opacity="0.414"/>
<stop offset="0.6078" stop-color="#9688BD" stop-opacity="0.608"/>
<stop offset="0.8028" stop-color="#8A7DB5" stop-opacity="0.803"/>
<stop offset="1" stop-color="#8679B2"/>
</linearGradient>
<linearGradient id="paint24_linear" x1="36.7579" y1="106.31" x2="-28.6833" y2="76.8981" gradientUnits="userSpaceOnUse">
<stop stop-color="#EFDCFB" stop-opacity="0"/>
<stop offset="0.0287" stop-color="#E9D6F7" stop-opacity="0.029"/>
<stop offset="0.2203" stop-color="#C5B5DE" stop-opacity="0.22"/>
<stop offset="0.4138" stop-color="#AA9BCB" stop-opacity="0.414"/>
<stop offset="0.6078" stop-color="#9688BD" stop-opacity="0.608"/>
<stop offset="0.8028" stop-color="#8A7DB5" stop-opacity="0.803"/>
<stop offset="1" stop-color="#8679B2"/>
</linearGradient>
<linearGradient id="paint25_linear" x1="12.8951" y1="82.8522" x2="13.4795" y2="92.4934" gradientUnits="userSpaceOnUse">
<stop stop-color="#F8F6FB"/>
<stop offset="1" stop-color="#EFDCFB"/>
</linearGradient>
<linearGradient id="paint26_linear" x1="11.8872" y1="79.3363" x2="14.2278" y2="90.519" gradientUnits="userSpaceOnUse">
<stop stop-color="#EFDCFB" stop-opacity="0"/>
<stop offset="0.0287" stop-color="#E9D6F7" stop-opacity="0.029"/>
<stop offset="0.2203" stop-color="#C5B5DE" stop-opacity="0.22"/>
<stop offset="0.4138" stop-color="#AA9BCB" stop-opacity="0.414"/>
<stop offset="0.6078" stop-color="#9688BD" stop-opacity="0.608"/>
<stop offset="0.8028" stop-color="#8A7DB5" stop-opacity="0.803"/>
<stop offset="1" stop-color="#8679B2"/>
</linearGradient>
<linearGradient id="paint27_linear" x1="90.2239" y1="45.3211" x2="115.926" y2="57.5531" gradientUnits="userSpaceOnUse">
<stop stop-color="#E87264" stop-opacity="0"/>
<stop offset="1" stop-color="#F8DFBE"/>
</linearGradient>
<linearGradient id="paint28_linear" x1="71.3151" y1="23.9975" x2="89.5242" y2="28.2819" gradientUnits="userSpaceOnUse">
<stop stop-color="#E87264" stop-opacity="0"/>
<stop offset="0.1575" stop-color="#E97869" stop-opacity="0.158"/>
<stop offset="0.3778" stop-color="#EC8B78" stop-opacity="0.378"/>
<stop offset="0.6353" stop-color="#F0A991" stop-opacity="0.635"/>
<stop offset="0.9188" stop-color="#F6D2B3" stop-opacity="0.919"/>
<stop offset="1" stop-color="#F8DFBE"/>
</linearGradient>
<linearGradient id="paint29_linear" x1="45.5005" y1="44.8243" x2="59.4214" y2="50.2493" gradientUnits="userSpaceOnUse">
<stop stop-color="#E87264" stop-opacity="0"/>
<stop offset="1" stop-color="#F8DFBE"/>
</linearGradient>
<clipPath id="clip0">
<rect width="150" height="150" fill="white" transform="translate(0.0405273 0.860107)"/>
</clipPath>
</defs>
</svg>
